<svg width="24" height="24" viewBox="0 0 24 24" fill="none" xmlns="http://www.w3.org/2000/svg">
<path d="M16.1511 3.86024V2.356C16.1511 1.96066 15.8232 1.63281 15.4279 1.63281C15.0326 1.63281 14.7047 1.96066 14.7047 2.356V3.80238H8.43706V2.356C8.43706 1.96066 8.10922 1.63281 7.71387 1.63281C7.31853 1.63281 6.99068 1.96066 6.99068 2.356V3.86024C4.3872 4.1013 3.12403 5.65375 2.93118 7.95831C2.91189 8.23795 3.14331 8.46937 3.41331 8.46937H19.7285C20.0081 8.46937 20.2395 8.2283 20.2106 7.95831C20.0177 5.65375 18.7546 4.1013 16.1511 3.86024Z" fill="white"/>
<path d="M18.3208 14.8887C16.1898 14.8887 14.4638 16.6147 14.4638 18.7457C14.4638 19.4689 14.6663 20.1535 15.0231 20.732C15.6884 21.8506 16.913 22.6027 18.3208 22.6027C19.7286 22.6027 20.9532 21.8506 21.6185 20.732C21.9753 20.1535 22.1778 19.4689 22.1778 18.7457C22.1778 16.6147 20.4518 14.8887 18.3208 14.8887ZM20.3168 18.3311L18.2629 20.2306C18.128 20.356 17.9447 20.4235 17.7712 20.4235C17.588 20.4235 17.4048 20.356 17.2601 20.2113L16.3055 19.2567C16.0259 18.9771 16.0259 18.5143 16.3055 18.2346C16.5851 17.955 17.048 17.955 17.3276 18.2346L17.7905 18.6975L19.3333 17.2704C19.6225 17.0004 20.0854 17.0197 20.3554 17.3089C20.6254 17.5982 20.6061 18.0514 20.3168 18.3311Z" fill="white"/>
<path d="M19.2851 9.91406H3.85701C3.32668 9.91406 2.89276 10.348 2.89276 10.8783V16.8181C2.89276 19.7109 4.33914 21.6394 7.71403 21.6394H12.4678C13.1331 21.6394 13.596 20.9933 13.3838 20.3666C13.191 19.8073 13.0271 19.1902 13.0271 18.7466C13.0271 15.8249 15.4088 13.4432 18.3305 13.4432C18.6101 13.4432 18.8897 13.4625 19.1597 13.5107C19.7383 13.5975 20.259 13.1443 20.259 12.5658V10.888C20.2493 10.348 19.8154 9.91406 19.2851 9.91406ZM8.88077 17.9849C8.69757 18.1584 8.44686 18.2645 8.19615 18.2645C7.94545 18.2645 7.69474 18.1584 7.51153 17.9849C7.33797 17.8017 7.2319 17.5509 7.2319 17.3002C7.2319 17.0495 7.33797 16.7988 7.51153 16.6156C7.60796 16.5288 7.70438 16.4613 7.82974 16.4131C8.18651 16.2588 8.61078 16.3456 8.88077 16.6156C9.05434 16.7988 9.16041 17.0495 9.16041 17.3002C9.16041 17.5509 9.05434 17.8017 8.88077 17.9849ZM8.88077 14.61C8.83256 14.6485 8.78435 14.6871 8.73614 14.7257C8.67828 14.7643 8.62042 14.7932 8.56257 14.8125C8.50471 14.8414 8.44686 14.8607 8.389 14.8703C8.32151 14.88 8.25401 14.8896 8.19615 14.8896C7.94545 14.8896 7.69474 14.7835 7.51153 14.61C7.33797 14.4268 7.2319 14.1761 7.2319 13.9254C7.2319 13.6746 7.33797 13.4239 7.51153 13.2407C7.73331 13.019 8.0708 12.9129 8.389 12.9804C8.44686 12.99 8.50471 13.0093 8.56257 13.0382C8.62042 13.0575 8.67828 13.0865 8.73614 13.125C8.78435 13.1636 8.83256 13.2022 8.88077 13.2407C9.05434 13.4239 9.16041 13.6746 9.16041 13.9254C9.16041 14.1761 9.05434 14.4268 8.88077 14.61ZM12.2557 14.61C12.0725 14.7835 11.8217 14.8896 11.571 14.8896C11.3203 14.8896 11.0696 14.7835 10.8864 14.61C10.7129 14.4268 10.6068 14.1761 10.6068 13.9254C10.6068 13.6746 10.7129 13.4239 10.8864 13.2407C11.2528 12.884 11.8989 12.884 12.2557 13.2407C12.4292 13.4239 12.5353 13.6746 12.5353 13.9254C12.5353 14.1761 12.4292 14.4268 12.2557 14.61Z" fill="white"/>
</svg>
