<svg width="25" height="25" viewBox="0 0 25 25" fill="none" xmlns="http://www.w3.org/2000/svg">
<path d="M18.0258 5.81809L12.3758 2.77809C11.7758 2.45809 11.0658 2.45809 10.4658 2.77809L4.82576 5.81809C4.41576 6.04809 4.15576 6.48809 4.15576 6.96809C4.15576 7.45809 4.40576 7.89809 4.82576 8.11809L10.4758 11.1581C10.7758 11.3181 11.1058 11.3981 11.4258 11.3981C11.7458 11.3981 12.0858 11.3181 12.3758 11.1581L18.0258 8.11809C18.4358 7.89809 18.6958 7.45809 18.6958 6.96809C18.6958 6.48809 18.4358 6.04809 18.0258 5.81809Z" fill="white"/>
<path d="M9.54578 12.2184L4.29578 9.59839C3.88578 9.38839 3.42578 9.41839 3.03578 9.64839C2.65578 9.88839 2.42578 10.2984 2.42578 10.7484V15.7084C2.42578 16.5684 2.90578 17.3384 3.67578 17.7284L8.92578 20.3484C9.10578 20.4384 9.30578 20.4884 9.50578 20.4884C9.73578 20.4884 9.97578 20.4184 10.1858 20.2984C10.5658 20.0584 10.7958 19.6484 10.7958 19.1984V14.2384C10.7858 13.3784 10.3058 12.6084 9.54578 12.2184Z" fill="white"/>
<path d="M20.4258 10.7484V13.2084C19.9458 13.0684 19.4358 13.0084 18.9258 13.0084C17.5658 13.0084 16.2358 13.4784 15.1858 14.3184C13.7458 15.4484 12.9258 17.1584 12.9258 19.0084C12.9258 19.4984 12.9858 19.9884 13.1158 20.4584C12.9658 20.4384 12.8158 20.3784 12.6758 20.2884C12.2958 20.0584 12.0658 19.6484 12.0658 19.1984V14.2384C12.0658 13.3784 12.5458 12.6084 13.3058 12.2184L18.5558 9.59839C18.9658 9.38839 19.4258 9.41839 19.8158 9.64839C20.1958 9.88839 20.4258 10.2984 20.4258 10.7484Z" fill="white"/>
<path d="M22.4058 16.1773C21.5858 15.1673 20.3358 14.5273 18.9258 14.5273C17.8658 14.5273 16.8858 14.8973 16.1158 15.5173C15.0758 16.3373 14.4258 17.6073 14.4258 19.0273C14.4258 19.8673 14.6658 20.6673 15.0758 21.3473C15.3458 21.7973 15.6858 22.1873 16.0858 22.5073H16.0958C16.8658 23.1473 17.8558 23.5273 18.9258 23.5273C20.0658 23.5273 21.0958 23.1073 21.8858 22.4073C22.2358 22.1073 22.5358 21.7473 22.7758 21.3473C23.1858 20.6673 23.4258 19.8673 23.4258 19.0273C23.4258 17.9473 23.0458 16.9473 22.4058 16.1773ZM21.1858 18.4673L18.7858 20.6873C18.6458 20.8173 18.4558 20.8873 18.2758 20.8873C18.0858 20.8873 17.8958 20.8173 17.7458 20.6673L16.6358 19.5573C16.3458 19.2673 16.3458 18.7873 16.6358 18.4973C16.9258 18.2073 17.4058 18.2073 17.6958 18.4973L18.2958 19.0973L20.1658 17.3673C20.4658 17.0873 20.9458 17.1073 21.2258 17.4073C21.5158 17.7173 21.4958 18.1873 21.1858 18.4673Z" fill="white"/>
</svg>
