<svg width="20" height="21" viewBox="0 0 20 21" fill="none" xmlns="http://www.w3.org/2000/svg">
<path d="M14.1865 2.48408C14.3779 2.07381 14.5648 1.68176 14.7608 1.25781C15.6224 2.68466 16.4703 4.08416 17.3365 5.50645C15.6954 5.75717 14.0816 6.0079 12.4268 6.25862C12.6411 5.7982 12.8417 5.36513 13.065 4.88648C12.6183 4.76339 12.1943 4.61296 11.7567 4.53091C7.8454 3.78329 4.09821 6.37259 3.39619 10.2884C2.66681 14.3912 5.42022 18.3116 9.53665 19.0319C13.9084 19.7932 18.0613 16.8255 18.7587 12.431C18.7907 12.2395 18.8135 12.0481 18.8727 11.8612C18.8408 12.1848 18.8226 12.5131 18.777 12.8367C18.2345 16.4426 15.3899 19.3008 11.7841 19.8707C7.36219 20.5727 3.11355 17.8193 1.94654 13.484C0.556163 8.35103 3.8019 3.26817 8.86653 2.13763C10.6398 1.74103 12.3858 1.85499 14.0998 2.45673C14.1226 2.46585 14.1454 2.47041 14.1865 2.48408Z" fill="white"/>
<path d="M8.40807 8.66846C9.08484 8.66846 9.42322 9.02867 9.42322 9.74911V14.0471H8.27708V12.2706H7.45022V14.0471H6.30408V9.74911C6.30408 9.02867 6.64246 8.66846 7.31923 8.66846H8.40807ZM7.45022 11.3865H8.27708V9.60993C8.27708 9.56627 8.26071 9.52806 8.22796 9.49532C8.20067 9.46257 8.16519 9.4462 8.12153 9.4462H7.60577C7.5621 9.4462 7.5239 9.46257 7.49115 9.49532C7.46386 9.52806 7.45022 9.56627 7.45022 9.60993V11.3865Z" fill="white"/>
<path d="M11.8248 11.9431V11.0999H13.3394V13.0484C13.3394 13.7688 13.001 14.129 12.3242 14.129H11.2927C10.6159 14.129 10.2775 13.7688 10.2775 13.0484V9.74911C10.2775 9.02867 10.6159 8.66846 11.2927 8.66846H12.3242C13.001 8.66846 13.3394 9.02867 13.3394 9.74911V10.2485H12.2505V9.60993C12.2505 9.56627 12.2341 9.52806 12.2014 9.49532C12.1741 9.46257 12.1386 9.4462 12.095 9.4462H11.5792C11.5355 9.4462 11.4973 9.46257 11.4646 9.49532C11.4373 9.52806 11.4237 9.56627 11.4237 9.60993V13.1793C11.4237 13.223 11.4373 13.2612 11.4646 13.294C11.4973 13.3267 11.5355 13.3431 11.5792 13.3431H12.095C12.1386 13.3431 12.1741 13.3267 12.2014 13.294C12.2341 13.2612 12.2505 13.223 12.2505 13.1793V11.9431H11.8248Z" fill="white"/>
<path d="M15.1173 13.0975H16.3862V14.0471H13.9711V8.75032H16.3862V9.68361H15.1173V10.928H16.3044V11.8285H15.1173V13.0975Z" fill="white"/>
</svg>
