<svg width="20" height="20" viewBox="0 0 20 20" fill="none" xmlns="http://www.w3.org/2000/svg">
<path d="M9.02295 15.4057H7.2417C6.37087 15.4057 5.65837 16.1182 5.65837 16.989V17.1869H4.8667C4.54212 17.1869 4.27295 17.4561 4.27295 17.7807C4.27295 18.1053 4.54212 18.3744 4.8667 18.3744H14.3667C14.6913 18.3744 14.9604 18.1053 14.9604 17.7807C14.9604 17.4561 14.6913 17.1869 14.3667 17.1869H13.575V16.989C13.575 16.1182 12.8625 15.4057 11.9917 15.4057H10.2104V13.5928C10.0125 13.6165 9.81462 13.6244 9.6167 13.6244C9.41878 13.6244 9.22087 13.6165 9.02295 13.5928V15.4057Z" fill="white"/>
<path d="M14.7471 10.1732C15.2696 9.97525 15.7287 9.65067 16.0929 9.2865C16.8291 8.47109 17.3121 7.49734 17.3121 6.35734C17.3121 5.21734 16.4175 4.32275 15.2775 4.32275H14.8341C14.3196 3.26984 13.2429 2.5415 11.9921 2.5415H7.24206C5.99122 2.5415 4.91456 3.26984 4.39997 4.32275H3.95664C2.81664 4.32275 1.92206 5.21734 1.92206 6.35734C1.92206 7.49734 2.40497 8.47109 3.14122 9.2865C3.50539 9.65067 3.96456 9.97525 4.48706 10.1732C5.31039 12.1998 7.28956 13.6248 9.61706 13.6248C11.9446 13.6248 13.9237 12.1998 14.7471 10.1732ZM11.8654 7.64775L11.3746 8.24942C11.2954 8.3365 11.24 8.51067 11.2479 8.62942L11.2954 9.40525C11.3271 9.88025 10.9866 10.1257 10.5433 9.9515L9.82289 9.6665C9.71206 9.62692 9.52206 9.62692 9.41122 9.6665L8.69081 9.9515C8.24747 10.1257 7.90706 9.88025 7.93872 9.40525L7.98622 8.62942C7.99414 8.51067 7.93872 8.3365 7.85956 8.24942L7.36872 7.64775C7.05997 7.28359 7.19456 6.87984 7.65373 6.76109L8.40581 6.57109C8.52456 6.53942 8.66706 6.42859 8.73039 6.32567L9.14997 5.6765C9.41122 5.27275 9.82289 5.27275 10.0841 5.6765L10.5037 6.32567C10.5671 6.42859 10.7096 6.53942 10.8283 6.57109L11.5804 6.76109C12.0396 6.87984 12.1741 7.28359 11.8654 7.64775Z" fill="white"/>
</svg>
