<svg width="18" height="19" viewBox="0 0 18 19" fill="none" xmlns="http://www.w3.org/2000/svg">
<g clip-path="url(#clip0_3232_15715)">
<path fill-rule="evenodd" clip-rule="evenodd" d="M5.5605 2.75C5.16271 2.75008 4.78124 2.90818 4.5 3.1895L2.6895 5C2.48399 5.20529 2.34252 5.46584 2.28225 5.75H15.7178C15.6575 5.46584 15.516 5.20529 15.3105 5L13.5 3.1895C13.2188 2.90818 12.8373 2.75008 12.4395 2.75H5.5605ZM15.75 7.25H2.25V14.75C2.25 15.1478 2.40804 15.5294 2.68934 15.8107C2.97064 16.092 3.35218 16.25 3.75 16.25H14.25C14.6478 16.25 15.0294 16.092 15.3107 15.8107C15.592 15.5294 15.75 15.1478 15.75 14.75V7.25ZM9 8.75C9.19891 8.75 9.38968 8.82902 9.53033 8.96967C9.67098 9.11032 9.75 9.30109 9.75 9.5V11.8895L10.0605 11.5782C10.2012 11.4376 10.3921 11.3587 10.591 11.3587C10.79 11.3588 10.9807 11.4379 11.1214 11.5786C11.262 11.7194 11.341 11.9102 11.3409 12.1091C11.3408 12.3081 11.2617 12.4989 11.121 12.6395L9.531 14.2302C9.46135 14.3 9.37863 14.3553 9.28758 14.393C9.19653 14.4308 9.09894 14.4502 9.00037 14.4502C8.90181 14.4502 8.80422 14.4308 8.71317 14.393C8.62212 14.3553 8.5394 14.3 8.46975 14.2302L6.879 12.6395C6.73827 12.4989 6.65917 12.3081 6.6591 12.1091C6.65903 11.9102 6.73799 11.7194 6.87862 11.5786C7.01926 11.4379 7.21003 11.3588 7.40899 11.3587C7.60794 11.3587 7.79877 11.4376 7.9395 11.5782L8.25 11.8895V9.5C8.25 9.30109 8.32902 9.11032 8.46967 8.96967C8.61032 8.82902 8.80109 8.75 9 8.75Z" fill="white"/>
</g>
<defs>
<clipPath id="clip0_3232_15715">
<rect width="18" height="18" fill="white" transform="translate(0 0.5)"/>
</clipPath>
</defs>
</svg>
