<svg width="260" height="75" viewBox="0 0 260 75" fill="none" xmlns="http://www.w3.org/2000/svg">
<path d="M259.163 0.323242V74.4225H0.836975V0.323242H259.163ZM257.386 2.13092H2.63957V72.6304H257.386V2.13092Z" fill="white"/>
<path d="M83.0395 71.1482H5.03156V4.02979H83.0395V71.1482ZM65.8959 67.7259C66.0423 67.7672 66.3715 67.8551 66.6989 67.9516C69.0909 68.6409 71.4519 68.7736 73.8817 67.9671C76.0755 67.2382 78.352 66.7609 80.5768 66.1147C80.8991 66.0216 81.1972 65.6477 81.3799 65.3323C81.5419 65.0514 81.5419 64.6706 81.5902 64.3311C81.8814 62.296 82.2175 60.2643 82.4311 58.2205C82.5225 57.3382 82.6173 56.3094 82.2588 55.5564C81.0335 52.9457 79.5997 50.4332 78.2728 47.869C78.052 47.4514 77.9145 46.9949 77.8678 46.5249C77.7489 45.0756 77.8798 43.5816 77.5765 42.1771C77.1802 40.3557 76.7804 38.4067 75.4069 37.0281C73.4793 35.1072 71.4552 33.2857 69.3425 31.5706C68.6101 30.9726 67.5692 30.6228 66.6162 30.447C64.7033 30.0903 62.7525 29.9404 60.8207 29.6854C60.4364 29.6337 59.9866 29.5871 59.7005 29.3666C58.9802 28.8048 58.3219 28.1603 57.6618 27.5244C56.5692 26.4905 55.4646 25.491 53.7757 25.746C53.6344 25.7684 53.4776 25.6926 53.1433 25.6237C54.3599 24.5898 54.3927 23.4162 54.3117 22.0497C54.2686 21.3156 55.1268 20.5332 55.5663 19.7647C55.7644 19.42 56.1505 18.9927 56.066 18.7307C55.942 18.3344 55.5042 18.0035 55.1372 17.7295C54.9648 17.5986 54.6426 17.6623 54.3944 17.6382C54.3629 17.5494 54.3382 17.4584 54.3203 17.3659C54.2893 17.1385 54.2686 16.911 54.2445 16.6766C53.9655 13.869 52.9422 11.1867 51.2804 8.90655C49.9758 7.12817 48.3214 5.80472 46.1828 5.14127C40.6992 3.4525 35.0484 6.1959 33.0959 11.6534C32.422 13.5386 32.1791 15.5755 31.7172 17.652C31.5436 17.6389 31.3704 17.6831 31.2243 17.7778C30.9072 18.069 30.535 18.4274 30.4592 18.8117C30.4023 19.0857 30.7642 19.4648 30.9762 19.7699C31.4932 20.4971 32.2256 21.1484 32.4944 21.9446C32.8667 23.0543 32.8925 24.2813 33.0476 25.3325C32.3583 25.5048 31.7 25.5754 31.152 25.8494C30.5621 26.1429 30.0293 26.5391 29.5786 27.0195C28.0276 28.6807 26.4645 30.273 23.914 30.0679C23.8563 30.0676 23.7987 30.0717 23.7417 30.08C21.1877 30.2213 18.9474 31.0674 17.0983 32.8975C15.8575 34.1279 14.4874 35.2325 13.2914 36.5025C12.6234 37.2403 12.0761 38.0789 11.6698 38.9874C10.5881 41.277 10.1213 43.8088 10.3153 46.3336C10.3529 46.7544 10.2786 47.1777 10.0998 47.5605C8.78151 50.0575 7.41663 52.5372 6.07589 55.0273C5.61509 55.8592 5.45502 56.8244 5.62265 57.7604C5.98455 59.9575 6.25167 62.1702 6.56704 64.3759C6.78417 65.8941 6.81692 65.9148 8.29036 66.2163C8.51319 66.2707 8.73199 66.3403 8.94522 66.4248C10.4583 66.9573 11.9955 67.4312 13.4776 68.0395C15.9247 69.0459 18.458 69.1062 21.0102 68.8012C22.8766 68.5772 24.7188 68.1687 26.5059 67.8534C26.9109 68.379 27.2486 69.0407 27.7777 69.4629C28.6721 70.1729 29.6837 70.614 30.9296 70.4968C32.2084 70.3745 33.5146 70.471 34.802 70.471C44.217 70.471 53.631 70.4653 63.0438 70.4538C63.4918 70.4538 64.095 70.3469 64.3552 70.0523C64.9446 69.3836 65.3616 68.5634 65.8976 67.7328L65.8959 67.7259Z" fill="white"/>
<path d="M201.968 38.7723L183.054 37.4885V34.9346L182.744 34.8795C182.591 35.5033 182.399 36.1202 182.299 36.7526C182.199 37.3851 181.932 37.5453 181.284 37.5453C174.056 37.5315 166.825 37.5499 159.593 37.6005C158.904 37.6005 158.535 37.4798 158.397 36.7681C158.274 36.2359 158.101 35.7166 157.88 35.2172C157.794 35.0018 157.594 34.8312 157.446 34.6399L157.223 34.7261V37.5453L138.555 38.9084C138.555 38.6637 138.555 38.3604 138.555 38.0588C138.567 28.1445 138.575 18.2307 138.577 8.31746C138.577 7.56785 138.775 7.34727 139.54 7.34383C146.112 7.31396 152.684 7.25651 159.255 7.1715C159.506 7.15478 159.758 7.19756 159.99 7.29637C160.222 7.39517 160.427 7.54722 160.589 7.74017C163.312 10.7283 166.067 13.6871 168.787 16.6786C169.209 17.1439 169.648 17.2662 170.255 17.3524C171.891 17.5885 172.84 16.9233 173.722 15.5671C175.435 12.9254 177.366 10.425 179.168 7.83839C179.523 7.32142 179.895 7.16288 180.504 7.1715C187.306 7.25422 194.108 7.31625 200.908 7.35761C201.675 7.35761 201.983 7.60576 201.981 8.39155C201.961 16.415 201.954 24.4378 201.962 32.46C201.966 34.5555 201.968 36.6389 201.968 38.7723Z" fill="white"/>
<path d="M252.396 53.9886C248.334 49.715 243.14 47.7281 237.846 45.7481C238.688 45.1329 239.483 44.5642 240.258 43.9801C241.177 43.2908 241.838 42.474 241.563 41.2229C241.473 40.8145 241.43 40.3182 241.173 40.039C240.251 39.0309 239.341 37.9711 238.254 37.1664C235.687 35.2293 232.852 33.6743 229.839 32.5498C228.043 31.9158 226.114 31.7503 224.236 32.069C223.451 32.1948 223.056 31.9777 222.787 31.3005C222.518 30.6232 222.282 29.8909 221.925 29.2481C221.59 28.625 221.155 28.0614 220.636 27.58C220.364 27.3422 219.807 27.3491 219.385 27.3732C218.452 27.4146 217.54 27.6649 216.716 28.1056C215.454 28.7794 214.844 29.9253 215.234 31.2919C215.379 31.8088 215.248 32.3827 215.285 32.9272C215.292 33.1956 215.369 33.4575 215.508 33.6872C215.916 34.2593 216.404 34.778 216.818 35.3484C217.162 35.8309 217.555 36.0583 218.131 35.7723C219.409 35.1364 220.474 35.7895 221.517 36.3806C222.034 36.677 222.184 40.8317 221.689 41.185C221.395 41.3609 221.047 41.4222 220.711 41.3573C219.03 41.0282 217.371 40.5784 215.682 40.3027C213.959 40.0201 212.215 39.9029 210.483 39.6909C208.777 39.4807 207.076 39.2412 205.271 39.0016V38.0625C205.271 32.8497 205.254 27.6351 205.271 22.4223C205.294 17.7575 205.382 13.0927 205.385 8.42791C205.385 7.61971 205.676 7.34399 206.419 7.34571C208.744 7.34571 211.072 7.34571 213.392 7.35777C217.293 7.36984 221.196 7.40085 225.098 7.39052C225.691 7.39052 226.087 7.54044 226.322 8.07981C226.813 9.20681 227.316 10.32 227.799 11.4556C228.965 14.1904 230.11 16.9355 231.299 19.66C231.628 20.4165 231.686 20.3906 232.701 20.1925C232.748 19.2912 232.843 18.3555 232.832 17.4215C232.803 14.5299 232.724 11.6366 232.681 8.74498C232.663 7.60937 232.912 7.36639 234.018 7.36639C239.786 7.36639 245.554 7.38018 251.32 7.36639C252.139 7.36639 252.428 7.63005 252.428 8.4572C252.414 23.4689 252.414 38.4801 252.428 53.4906C252.442 53.5992 252.416 53.7095 252.396 53.9886Z" fill="white"/>
<path d="M125.671 29.4132C124.303 29.1461 123.021 28.9755 122.092 30.3386C121.933 30.5713 121.511 30.6833 121.192 30.7367C120.513 30.8401 119.824 30.8694 119.136 30.9194C117.901 31.0107 117.723 30.8694 117.497 29.6218C117.451 29.3702 117.43 29.1151 117.39 28.7929C118.58 28.4069 119.741 28.0191 120.992 28.3655C121.838 28.5982 122.41 28.3259 123.034 27.6917C123.92 26.7922 124.465 25.853 124.503 24.564C124.52 23.9868 125.304 23.5491 124.868 22.7943C124.592 22.3152 124.523 21.7155 124.26 21.233C124.17 21.0905 124.051 20.9683 123.911 20.8745C123.77 20.7808 123.612 20.7174 123.446 20.6885C123.139 20.6779 122.839 20.5915 122.573 20.4369C122.307 20.2824 122.084 20.0645 121.923 19.8027C121.769 19.5753 121.083 19.5098 120.747 19.6425C119.921 19.993 119.125 20.4108 118.368 20.8918C118.168 21.0125 118.095 21.3381 117.957 21.5673C117.854 21.7397 117.785 21.9775 117.625 22.0688C116.832 22.541 116.677 22.9787 117.066 23.8093C117.675 25.1069 117.34 25.6221 115.884 25.4532C112.107 25.0104 108.57 25.7066 105.293 27.6125C101.922 29.5735 99.8125 32.6099 98.3701 36.1235C97.6997 37.7589 97.8945 39.3598 99.2542 40.7194C100.429 41.8929 101.507 43.1647 102.635 44.3848C103.566 45.3877 103.497 45.5428 102.256 46.0684C99.4989 47.2436 96.683 48.3482 94.0394 49.7561C92.1179 50.7797 90.4342 52.2427 88.6471 53.5076C88.6471 53.4369 88.6075 53.1733 88.6075 52.9113C88.6075 38.1845 88.6075 23.4589 88.6075 8.73437C88.6075 7.5281 88.7643 7.37129 89.9172 7.36612C99.2438 7.31787 108.57 7.25411 117.895 7.22998C120.136 7.22998 122.376 7.29374 124.606 7.42815C127.115 7.58152 129.562 8.11745 131.759 9.3668C132.54 9.80795 133.217 10.5989 133.691 11.3813C134.647 12.9587 135.155 14.7668 135.161 16.6113C135.177 18.3345 135.323 20.0578 135.144 21.7638C134.953 23.5973 134.389 25.3309 132.978 26.725C131.684 28.0071 130.257 28.9652 128.518 29.5063C128.297 29.5735 127.975 30.0371 128.02 30.1077C128.192 30.3783 128.483 30.7126 128.771 30.7591C131.634 31.2192 134.351 33.4508 134.67 36.0546C134.789 37.0334 135.044 37.9967 135.227 38.9238L117.087 41.8533C117.397 40.8917 116.742 40.4316 115.948 40.0732C115.895 40.0508 115.841 40.0318 115.789 40.0077C112.381 38.4361 112.374 38.4413 110.371 35.3843C110.259 35.2119 110.33 34.7811 110.476 34.614C111.136 33.8678 112.007 33.5387 113.001 33.5128C114.75 33.468 116.499 33.3784 118.25 33.3732C119.487 33.3876 120.707 33.0813 121.79 32.4841C122.53 32.0462 123.3 31.6621 124.094 31.3347C125.011 30.9762 125.368 30.2628 125.671 29.4132Z" fill="white"/>
<path d="M201.968 40.8193V50.1076C201.968 51.5396 201.935 52.9733 201.981 54.4054C202.004 55.0688 201.766 55.2187 201.14 55.2187C195.402 55.2187 189.663 55.2383 183.923 55.2773C183.233 55.2773 183.027 55.0275 183.039 54.364C183.09 51.0898 183.111 47.8329 183.133 44.5674C183.144 42.9682 183.133 41.3673 183.133 39.52L201.968 40.8193Z" fill="white"/>
<path d="M138.606 55.1531V40.9312L157.154 39.563V55.1531H138.606Z" fill="white"/>
<path d="M205.325 55.8701V41.0864L210.943 41.8343C211.17 41.8819 211.4 41.9142 211.632 41.9308C212.721 41.9308 213.238 42.5632 213.416 43.3904C214.674 43.5472 215.88 43.5955 217.035 43.8695C218.189 44.1435 219.308 44.6432 220.481 45.0619C220.063 45.7512 219.823 46.4647 220.309 47.1522C220.748 47.7795 221.343 47.7881 222.022 47.1143C221.991 47.521 221.975 47.7226 221.955 47.9983C223.987 47.8863 224.884 45.6185 226.704 45.5427C226.921 46.3268 227.049 47.0402 227.311 47.7037C228.36 50.3954 229.448 53.0698 230.568 55.8701H205.325Z" fill="white"/>
<path d="M159.429 39.5029H181.183C181.055 39.8786 180.957 40.156 180.867 40.4369C179.451 44.9018 178.024 49.3616 176.626 53.8317C176.213 55.1586 176.206 55.2103 174.801 55.2103C171.527 55.2103 168.265 55.1999 164.997 55.2189C164.461 55.2189 164.18 55.0776 164.011 54.5296C162.523 49.7269 161.001 44.9346 159.496 40.1371C159.456 39.928 159.434 39.7158 159.429 39.5029Z" fill="white"/>
<path d="M135.137 40.9917C135.137 42.6133 135.148 44.0108 135.137 45.4084C135.113 48.3844 135.06 51.3604 135.061 54.3365C135.061 54.9741 134.865 55.1981 134.234 55.1981C130.96 55.1619 127.699 55.1653 124.432 55.1292C121.394 55.0947 118.355 55.0275 115.317 54.9758C115.066 54.9758 114.816 54.9758 114.435 54.9758C114.534 54.7425 114.649 54.5162 114.78 54.2986C116.532 51.8946 118.28 49.4855 120.056 47.1006C120.842 46.0442 120.813 45.5359 119.788 44.7466C119.414 44.4589 119.029 44.1814 118.652 43.8988L118.681 43.6248L135.137 40.9917Z" fill="white"/>
<path d="M238.44 55.9199C237.859 55.203 237.449 54.593 236.934 54.0881C236.384 53.5504 236.008 53.0007 235.848 52.2132C235.472 50.3693 234.787 48.6461 233.163 47.1693C233.794 47.0866 234.294 46.8677 234.681 46.9969C239.627 48.5927 244.492 50.3866 248.682 53.5797C249.53 54.2277 250.269 55.0169 251.058 55.7389L250.934 55.9233L238.44 55.9199Z" fill="white"/>
<path d="M186.237 57.6333H188.148C187.7 61.0132 187.261 64.3333 186.83 67.5936C186.721 67.6712 186.701 67.7005 186.675 67.7039C185.058 67.847 185.058 67.847 184.509 66.334C183.947 64.783 183.387 63.2321 182.677 61.7088C182.446 63.6871 182.215 65.6722 181.979 67.685H180.026C180.471 64.3402 180.914 61.016 181.37 57.5937C181.919 57.5937 182.429 57.6281 182.934 57.5937C183.402 57.5523 183.582 57.7798 183.716 58.1779C184.212 59.6374 184.729 61.0919 185.243 62.5463C185.315 62.7513 185.415 62.9478 185.587 63.3665C185.817 61.3124 186.023 59.5099 186.237 57.6333Z" fill="white"/>
<path d="M250.605 60.7143C249.845 60.673 249.073 61.1072 248.537 60.1715C248.401 59.9337 247.848 59.8958 247.469 59.8682C247.355 59.8579 247.07 60.2508 247.114 60.3421C247.262 60.6514 247.472 60.9271 247.73 61.152C247.939 61.3347 248.237 61.414 248.494 61.5432C250.508 62.5479 251.079 64.8346 249.792 66.6871C249.002 67.821 247.481 68.238 246 67.721C244.706 67.2695 244.105 66.2373 244.239 64.6106C245.021 64.6002 245.845 64.29 246.383 65.2775C246.51 65.5084 247.045 65.6221 247.382 65.5997C247.527 65.5744 247.663 65.514 247.779 65.4239C247.895 65.3338 247.987 65.2167 248.048 65.0827C248.104 64.8691 247.908 64.4727 247.703 64.3245C247.217 63.9799 246.652 63.7472 246.131 63.4439C244.677 62.5927 244.261 60.5144 245.214 58.9015C245.995 57.5798 247.894 57.161 249.306 58.0175C250.29 58.6085 250.546 59.5735 250.605 60.7143Z" fill="white"/>
<path d="M94.3134 65.3342C94.2031 66.2286 94.1152 66.9316 94.0239 67.6744H88.7264C89.1297 64.3037 89.526 60.9899 89.9327 57.6348H95.0872C95.0079 58.3482 94.9304 59.0375 94.8459 59.7974H91.7715C91.7009 60.3334 91.6388 60.8021 91.563 61.3725H94.1687C94.0773 62.1445 93.9963 62.8166 93.9067 63.5627H91.3372C91.2631 64.1607 91.1977 64.6863 91.1184 65.3342H94.3134Z" fill="white"/>
<path d="M150.887 57.626H156.043L155.798 59.7955H152.763C152.682 60.3125 152.608 60.7761 152.517 61.3465H155.14C155.047 62.146 154.967 62.8319 154.878 63.5867H152.281C152.222 64.1829 152.169 64.7085 152.108 65.3426H155.262C155.171 66.1784 155.09 66.9022 155.009 67.669H149.715C149.913 65.982 150.111 64.319 150.306 62.6544C150.501 60.9897 150.687 59.3682 150.887 57.626Z" fill="white"/>
<path d="M212.545 57.6367H220.016C219.94 58.2738 219.831 58.9066 219.689 59.5323C219.639 59.7046 219.308 59.9045 219.089 59.9286C218.524 59.9639 217.958 59.9702 217.393 59.9476L216.049 67.6867H213.064L214.37 59.9579H212.189L212.545 57.6367Z" fill="white"/>
<path d="M119.701 57.6279H122.059C122.338 59.663 122.614 61.6637 122.89 63.6592L123.062 63.6816C123.521 62.303 123.986 60.9215 124.454 59.5372C124.499 59.4011 124.539 59.2632 124.584 59.1288C125.126 57.4952 125.126 57.4952 126.963 57.6313C126.9 57.8777 126.853 58.1138 126.776 58.3378C125.778 61.2312 124.752 64.1124 123.772 67.0126C123.587 67.5589 123.339 67.8277 122.738 67.7381C122.393 67.6881 122.036 67.7898 121.704 67.7088C121.468 67.6485 121.121 67.4245 121.09 67.2315C120.589 64.1572 120.129 61.0761 119.663 57.9966C119.663 57.8727 119.675 57.749 119.701 57.6279Z" fill="white"/>
<path d="M90.2774 55.0687C92.3454 52.7682 98.863 49.0512 101.824 48.5015C101.539 49.127 101.219 49.6957 101.021 50.304C100.769 51.0794 100.7 51.9204 100.4 52.6717C100.066 53.5075 99.5713 54.2795 99.1164 55.0601C99.056 55.1618 98.8079 55.1894 98.6476 55.1894C95.9248 55.1894 93.2019 55.1865 90.4791 55.1807C90.436 55.1807 90.3912 55.1308 90.2774 55.0687Z" fill="white"/>
<path d="M112.01 48.1188C111.105 49.1528 110.273 50.0558 109.492 51.0018C108.803 51.8428 108.267 52.7078 108.436 53.9399C108.634 55.3857 108.264 55.689 106.799 55.6959H105.525C105.575 55.4357 105.563 55.2237 105.655 55.0773C106.44 53.8193 107.194 52.5372 108.067 51.3361C108.584 50.6089 108.953 49.9144 108.858 48.9873C108.782 48.2532 110.065 46.885 110.754 47.0556C111.217 47.1711 111.576 47.7328 112.01 48.1188Z" fill="white"/>
<path d="M48.9815 43.7265C48.9815 43.742 48.9815 43.5542 48.997 43.3818C53.1691 43.6507 58.9216 44.7604 59.7246 45.4842H58.4959L60.4467 47.1609L59.2197 47.3453L61.0757 49.134C59.9573 49.794 58.9629 49.7699 57.9341 49.5924C55.5938 49.1857 53.2518 48.7859 50.903 48.424C50.3429 48.3379 49.7535 48.4619 49.1796 48.3982C48.2852 48.3 47.9509 49.1599 48.4748 49.7768C48.9298 50.311 49.5329 50.7194 50.0758 51.1778C50.2147 51.2708 50.3405 51.3821 50.4497 51.5086C48.9263 51.3673 47.5528 50.8521 46.4344 49.813C46.0328 49.4407 45.7451 49.4683 45.3125 49.6837C42.6086 50.9986 39.8927 52.2893 37.1801 53.5869C36.901 53.7196 36.6132 53.8333 36.1462 54.0401C38.1056 51.5173 41.354 51.2122 43.3927 49.1754L43.2721 48.9014C42.002 49.184 40.6871 49.3408 39.4687 49.763C33.8507 51.7292 28.2671 53.8057 22.6508 55.7685C20.2519 56.606 17.7979 57.2884 15.3508 57.9794C14.8338 58.1259 14.2358 58.0018 13.4776 58.0018C13.8222 57.5469 14.0532 57.2057 14.3237 56.9024C16.6175 54.3175 19.5385 52.6287 22.6267 51.2053C28.243 48.6205 34.1729 46.961 40.127 45.3722C41.4816 45.0103 42.8413 44.4278 44.2061 44.4072C45.2401 44.3917 45.9053 43.7592 46.7773 43.6283C47.4701 43.5283 48.2025 43.6834 48.9815 43.7265Z" fill="white"/>
<path d="M76.7804 42.772C74.2505 38.712 71.5914 34.8072 67.0126 32.7203C68.069 34.0645 69.0358 35.4413 69.0651 37.4644C67.209 35.207 65.0532 33.7405 62.2648 32.9271C63.4401 34.9812 64.5999 36.8906 63.9675 39.4616C62.0942 37.1611 60.0417 35.2949 57.1328 34.2437C57.7704 33.4992 58.3305 32.8479 58.9595 32.1172H56.938C57.2827 36.5976 58.2598 40.8316 60.5829 44.6968L60.3985 44.7951C60.0159 44.2247 59.5644 43.6888 59.2611 43.0718C57.0794 38.6638 56.3814 33.9387 56.3314 29.0791C56.3314 28.5225 56.3159 28.0297 55.5266 28.0452C54.8149 31.5347 53.5069 34.7141 50.4583 36.8751C48.1336 38.5208 45.4745 39.0429 42.7034 38.8913C34.9071 38.4656 32.7736 34.0352 31.6087 27.5696C30.9193 27.6695 31.0124 28.0348 31.2071 28.5363C33.1286 33.4855 32.8133 38.3381 30.5367 43.0977C30.4466 43.2745 30.3435 43.4444 30.2283 43.606C30.2059 43.6371 30.1249 43.625 29.8681 43.6646C32.1481 39.1308 32.7219 34.5142 31.1675 29.5341L29.1202 30.9127L31.1882 31.7743L31.0917 31.9948L29.2736 32.1206L31.1054 34.2368C28.243 35.2914 26.1733 37.0991 24.4103 39.3117C23.7055 38.1899 23.9433 37.1939 25.9131 32.9495C23.1816 33.7336 21.0119 35.2242 19.1508 37.4748C19.2162 35.462 20.1348 34.0524 21.2515 32.7152C16.6226 34.7831 13.9618 38.7465 11.4768 42.8823C12.0731 40.5094 12.597 38.1279 14.6236 36.446C15.8575 35.4206 17.0362 34.3229 18.1978 33.2201C19.6178 31.8777 21.3101 31.259 23.2316 31.0884C24.9394 30.9385 26.6386 30.6904 28.4429 30.4715L27.9966 29.7822C29.2649 28.6656 30.5367 27.542 31.9757 26.272C32.2773 29.8822 33.058 33.096 35.5292 35.6154C38.0728 38.2002 41.292 38.7379 44.7335 38.4811C50.4411 38.0555 54.1273 33.9628 55.1992 26.7459C55.7696 27.1818 56.2832 27.5644 56.7829 27.9625C56.9626 28.101 57.1231 28.2627 57.2603 28.4433C58.7992 30.5353 61.0671 30.7869 63.4039 30.923C64.3759 30.9799 65.3358 31.1832 66.3043 31.2987C67.3614 31.41 68.3578 31.8465 69.1564 32.548C70.9745 34.1679 72.8185 35.7636 74.559 37.4627C75.817 38.6896 76.0617 40.4491 76.6029 42.0379C76.6839 42.2791 76.7218 42.529 76.7804 42.772ZM58.6665 30.9454L56.7916 29.7994C56.8364 30.6128 56.8708 31.228 56.9053 31.8673L58.6665 30.9454Z" fill="white"/>
<path d="M42.6792 10.6627C42.6499 8.86876 43.5409 7.65388 44.7972 6.51827C43.553 6.02197 42.3845 6.17362 41.2265 6.439C37.4231 7.292 34.4711 10.561 33.9075 14.5382C33.7924 15.3887 33.7348 16.2459 33.7352 17.1041C33.7352 17.9296 33.8265 18.755 33.8782 19.5804L33.6439 19.6476C33.4147 18.7257 32.9787 17.7986 32.9959 16.8904C33.043 14.5045 33.6858 12.1683 34.8657 10.094C37.6937 5.05351 46.2172 3.78176 50.2033 9.07728C52.6159 12.2704 53.7171 15.8289 53.2518 19.8579C53.1277 20.9211 53.3638 22.0223 53.369 23.1062C53.369 23.4973 53.288 23.9781 53.0554 24.2642C52.0782 25.4618 51.0666 26.6354 49.993 27.7469C49.2238 28.5084 48.6528 29.4467 48.33 30.4799C48.1094 31.2175 47.7837 31.924 47.5338 32.6546C47.4804 32.8115 47.4925 33.1182 47.5804 33.1716C47.7692 33.2633 47.9865 33.2769 48.1853 33.2095C48.5747 33.0648 48.9366 32.8494 49.4209 32.8321C47.9853 34.0005 46.5963 35.2309 45.1005 36.3165C44.0079 37.1092 41.8693 36.8542 40.8284 35.9719C40.3114 35.5256 39.8513 34.9862 39.2912 34.5933C38.2382 33.8644 38.0693 32.8115 38.1641 31.6C38.4071 32.0205 38.6312 32.4616 38.8983 32.8563C39.0964 33.1998 39.347 33.5103 39.641 33.7765C40.4544 34.4244 41.2248 35.0706 42.4655 34.5864C43.1273 34.3296 43.9717 34.5416 44.942 34.5416L45.9518 32.5978C44.0562 31.8671 42.1605 32.7701 40.4596 32.0687L40.4768 31.8068C42.4052 31.8068 44.3353 31.781 46.2637 31.8223C46.8307 31.8344 47.1857 31.6689 47.4304 31.1761C47.6751 30.6833 47.9819 30.2352 48.1887 29.7355C48.6885 28.5292 48.3007 27.8072 47.0151 27.5418C46.5188 27.4401 46.007 27.4125 45.4814 27.1592C45.69 27.0874 45.9063 27.04 46.1259 27.0179C46.3845 27.0187 46.6406 27.0684 46.8807 27.1644C48.4765 27.8347 49.6759 27.2902 50.8306 26.1201C51.1643 25.7956 51.4308 25.4085 51.6147 24.981C51.7986 24.5534 51.8964 24.0937 51.9025 23.6283C51.289 23.873 50.7134 24.1815 50.0964 24.3297C49.445 24.4601 48.7788 24.5012 48.1163 24.452C49.2847 24.0419 50.1447 22.7632 51.5992 23.3578C53.469 18.5327 52.6487 11.8896 48.1525 8.35007C48.8763 10.5058 49.3158 12.5306 47.6855 14.49C46.6498 12.348 45.3108 10.6971 42.6792 10.6627Z" fill="white"/>
<path d="M75.8997 52.3443C73.4147 51.1691 70.9021 50.1954 68.1275 49.9663C69.1391 50.3712 70.1559 50.7607 71.1588 51.1846C71.8171 51.462 72.5134 51.7016 73.0752 52.1255C73.3905 52.3598 73.4664 52.9147 73.6508 53.3317C73.2165 53.4506 72.7374 53.7505 72.3548 53.6592C70.4885 53.2146 68.6669 52.5839 66.7954 52.1806C65.1324 51.8222 63.4246 51.6774 61.7064 51.5585C67.3451 53.5006 72.3393 56.4939 76.9027 60.2402L76.7993 60.4539C75.798 59.9714 74.7985 59.4837 73.7938 59.0064C73.4612 58.8478 73.1303 58.6376 72.777 58.5824C68.6083 57.9224 64.7946 56.3164 61.1808 54.2158C59.8814 53.461 58.5958 52.9319 57.0448 53.0905C55.9712 53.199 55.125 52.6476 54.2686 51.5964L61.5065 50.416L60.9154 49.9887C62.6257 49.3966 64.4393 49.162 66.2439 49.2994C68.6083 49.4717 70.9641 49.8267 73.3095 50.2041C74.5297 50.3902 75.3827 51.2053 75.8997 52.3443Z" fill="white"/>
<path d="M12.7089 50.375L13.5706 46.7079C12.0386 47.666 11.3182 49.0188 11.1769 50.692C11.0907 51.6898 11.1114 52.6962 11.039 53.6939C10.9615 54.7279 9.25712 56.0565 8.24208 55.8773C7.99737 55.8342 7.78023 55.6377 7.50278 55.4826C7.15507 56.694 7.09605 57.97 7.33045 59.2083C7.51785 60.3296 7.64784 61.4598 7.71992 62.5944C7.78713 63.6835 8.1249 64.1574 9.19163 63.9575C11.7766 63.475 14.3409 62.8684 16.9121 62.3067C17.243 62.2343 17.5687 62.1343 17.9237 62.043C17.9134 62.1257 17.9237 62.1912 17.903 62.1998C15.0302 63.4991 12.1385 64.7468 8.98828 65.2207C7.75438 65.4068 7.68545 65.3241 7.51484 64.1212C7.21326 61.9724 6.8686 59.8304 6.57908 57.6798C6.51187 57.1628 6.455 56.5218 6.68248 56.0909C8.39546 52.834 9.66382 49.3255 12.1127 46.4822C13.9101 44.397 15.9212 42.579 18.4993 41.5175C19.2765 41.197 20.1433 41.0574 20.9843 40.935C21.5996 40.8472 21.9373 41.2642 21.7547 41.8449C21.5168 42.598 21.2807 43.4079 20.8137 44.0179C19.18 46.1461 17.2551 47.9607 14.7666 49.1032C14.1238 49.3979 13.5534 49.8459 12.7089 50.375Z" fill="white"/>
<path d="M80.5234 55.1844C79.7048 55.7014 78.8724 55.5463 78.4554 54.5985C78.0692 53.65 77.799 52.6583 77.6506 51.6449C77.3146 49.6322 76.4443 47.983 74.7623 46.8043C74.883 47.666 75.0019 48.5379 75.1432 49.5512C73.2889 48.9532 71.6707 48.5172 70.5281 47.1386C69.3046 45.667 68.0052 44.2557 66.8316 42.7478C66.5317 42.3635 66.5817 41.7139 66.4697 41.1762C67.0194 41.1211 67.595 40.9333 68.1137 41.0332C70.2593 41.4485 72.0119 42.6479 73.6284 44.0385C76.2134 46.2598 78.0935 49.0066 79.5049 52.093C80.0219 53.2079 80.7112 54.2453 81.1627 55.3792C81.4694 56.1065 81.601 56.8957 81.547 57.6831C81.3178 59.8958 80.8853 62.086 80.6406 64.2969C80.5372 65.2327 80.0702 65.4326 79.3343 65.2361C77.3197 64.695 75.3086 64.1401 73.3233 63.5042C72.2377 63.1343 71.1949 62.649 70.2128 62.0567C71.9154 62.4789 73.6111 62.9356 75.3224 63.3164C76.5503 63.5949 77.7916 63.8112 79.0413 63.9643C80.0271 64.0815 80.3493 63.6645 80.42 62.6788C80.4982 61.5162 80.6363 60.3584 80.8336 59.2099C81.0593 58.0175 80.9904 56.3614 80.5234 55.1844Z" fill="white"/>
<path d="M40.8818 54.7622C37.1767 59.1203 33.0131 62.9579 28.1292 65.8754C24.8773 67.8106 21.1722 68.0639 17.4619 67.9571C16.9069 67.9415 16.3538 67.8554 15.7989 67.802L15.7885 67.5573C16.1918 67.4659 16.6002 67.2764 16.9948 67.2971C21.6892 67.5297 25.9199 66.1511 29.7043 63.5301C32.2152 61.7879 34.4814 59.6941 36.882 57.7882C38.19 56.7474 39.548 55.7686 40.8818 54.7622Z" fill="white"/>
<path d="M18.3666 49.7391L14.5753 50.6524L14.4753 50.4594C15.1302 50.1147 15.7523 49.665 16.4485 49.4513C19.3403 48.5587 22.2613 48.8878 25.1927 49.4513C23.8605 49.9528 22.5198 50.4387 21.1946 50.9609C18.9646 51.838 16.8863 53.1149 14.5098 53.6095C13.8532 53.7456 12.9984 54.1988 12.6469 53.4371C12.2591 52.5997 13.1639 52.1912 13.7826 51.8983C14.9889 51.3245 16.2607 50.8557 17.5032 50.3474L18.4217 49.9614L18.3666 49.7391Z" fill="white"/>
<path d="M71.974 67.5004C69.0875 67.8278 66.6317 67.1678 64.3173 66.046C62.2355 65.0362 60.2175 63.8885 58.215 62.7288C55.9747 61.4243 53.7671 60.037 51.5888 58.5688C52.03 58.7239 52.4988 58.8256 52.9055 59.0427C55.4043 60.3696 57.9031 61.6896 60.3709 63.0786C62.5647 64.3141 64.6654 65.7461 67.1815 66.2579C68.5722 66.5406 70.037 66.4699 71.3278 67.1954C71.4674 67.2729 71.6173 67.3315 71.974 67.5004Z" fill="white"/>
<path d="M35.9479 20.6991C35.5619 21.3436 35.2293 21.9053 34.864 22.505C35.0018 21.2574 35.119 20.0925 35.2672 18.9483C35.2931 18.7484 35.4154 18.4589 35.5636 18.4054C35.7118 18.352 35.9772 18.5054 36.1375 18.6346C36.4478 18.8865 36.736 19.1644 36.9991 19.4652C38.1193 20.7559 39.5083 21.3815 41.2334 21.3108C42.0106 21.2798 42.4087 21.9122 42.095 22.617C42.0244 22.7721 41.7021 22.8876 41.4919 22.8928C40.4286 22.9554 39.372 22.6888 38.4657 22.1294C37.6712 21.6279 36.8354 21.1988 35.9479 20.6991Z" fill="white"/>
<path d="M44.7369 23.089C43.9717 21.7104 44.0476 21.4881 45.39 21.0676C45.4986 21.0331 45.6054 20.9849 45.7157 20.9608C47.2805 20.6368 48.7005 20.0406 49.8241 18.8532C50.0327 18.6327 50.3204 18.4879 50.7151 18.207C50.9512 18.705 51.208 19.1048 51.3338 19.5408C51.5061 20.1577 51.2941 20.4903 50.5634 20.4938C50.0572 20.5025 49.5588 20.62 49.1021 20.8384C47.6459 21.5484 46.2207 22.3187 44.7369 23.089Z" fill="white"/>
<path d="M26.8436 45.6326L27.9017 44.9002C27.9466 44.3832 27.9793 44.0076 28.0138 43.625C28.3584 43.6664 28.7651 43.606 29.0478 43.7663C30.5815 44.6279 32.086 45.5568 33.6904 46.5235C33.1734 46.6803 32.7339 46.8337 32.2824 46.944C32.1101 46.9853 31.8344 47.0008 31.7499 46.9026C30.8883 45.9135 29.6699 46.0996 28.5687 45.9066C28.0758 45.817 27.5812 45.7446 26.8436 45.6326Z" fill="white"/>
<path d="M34.3797 24.6866C34.6623 24.1886 35.057 23.9818 35.6877 24.4523C36.8716 25.3346 38.1779 25.8309 39.6944 25.6189C39.9254 25.5879 40.1804 25.7361 40.4234 25.9877L37.6988 27.2284L34.3797 24.6866Z" fill="white"/>
<path d="M44.1596 24.9209C44.306 25.6602 44.4163 26.2443 44.5404 26.8165C44.5749 26.9767 44.6042 27.2214 44.7127 27.2697C45.8105 27.7763 45.259 28.1313 44.6283 28.5104C44.4146 28.6414 44.2836 28.9619 44.0734 29.0274C43.627 29.1652 43.1083 29.3289 42.6947 29.2221C42.1777 29.0894 41.7383 28.6896 41.2833 28.4156L42.4087 27.8883C42.4517 28.0021 42.4621 28.164 42.55 28.2433C42.7878 28.4535 43.0411 28.7396 43.3168 28.7741C43.4702 28.793 43.8045 28.3881 43.8338 28.1416C43.9786 27.1387 44.0458 26.1134 44.1596 24.9209Z" fill="white"/>
<path d="M41.3592 69.5218C39.4739 69.5218 37.5885 69.5425 35.7032 69.4942C35.4706 69.4942 35.0811 69.1375 35.0518 68.9083C34.9677 68.2207 35.0264 67.5232 35.2241 66.8594C35.3017 67.0817 35.3965 67.3005 35.4551 67.528C35.7205 68.4809 36.3322 69.0789 37.3128 69.1944C38.6553 69.3667 40.0046 69.4753 41.3506 69.6114L41.3592 69.5218Z" fill="white"/>
<path d="M51.4268 66.8871C51.4268 67.5764 51.4837 68.2829 51.3941 68.9653C51.3648 69.1772 50.946 69.4926 50.7047 69.4978C48.8263 69.5426 46.9479 69.5219 45.0815 69.5977C46.3913 69.4771 47.701 69.3737 49.009 69.2324C50.3997 69.0825 50.965 68.1175 51.1924 66.8457L51.4268 66.8871Z" fill="white"/>
<path d="M64.6119 67.9656C63.9071 69.5321 63.559 69.7199 62.0269 69.4063C62.413 68.7463 62.7938 68.0949 63.2333 67.3384L64.6119 67.9656Z" fill="white"/>
<path d="M46.1242 30.4025L41.2403 30.7661L41.2006 30.4404C41.6642 30.399 42.1278 30.3697 42.5879 30.3129C43.2445 30.2336 43.9786 30.2853 44.5353 30.001C45.1505 29.6856 45.5107 29.7649 46.1242 30.4025Z" fill="white"/>
<path d="M28.1395 68.479L30.7004 68.6065C30.6056 68.896 30.5884 69.3423 30.3971 69.4371C30.2058 69.5319 29.8008 69.3579 29.513 69.2458C29.0271 69.0546 28.5583 68.8219 28.0827 68.6065L28.1395 68.479Z" fill="white"/>
<path d="M56.0557 69.7006C55.9454 69.1629 55.8834 68.8889 55.8334 68.6098L58.3873 68.4736C58.4097 68.5219 58.4304 68.5719 58.4528 68.6201L56.0557 69.7006Z" fill="white"/>
<path d="M62.5595 48.4479C61.3963 48.3135 61.1481 47.333 60.7449 46.4972L60.9482 46.3042L62.7612 48.248L62.5595 48.4479Z" fill="white"/>
<path d="M32.6754 20.2765L31.4691 18.8134C32.1187 18.4429 32.572 18.9341 32.6754 20.2765Z" fill="white"/>
<path d="M25.8889 45.7097L27.0711 43.9365C27.4175 45.1169 26.2939 45.2083 25.8889 45.7097Z" fill="white"/>
<path d="M53.8516 20.225C54.0239 18.9274 54.3548 18.5707 55.0906 18.7826L53.8516 20.225Z" fill="white"/>
</svg>
