<svg width="29" height="29" viewBox="0 0 29 29" fill="none" xmlns="http://www.w3.org/2000/svg">
<rect x="0.464844" y="0.90918" width="28" height="28.0088" rx="3" fill="#CC0000"/>
<rect width="16.8725" height="16.7165" transform="translate(6.02832 6.55566)" fill="#CC0000"/>
<path d="M20.8408 10.1984C19.7089 10.087 18.577 10.0034 17.4381 9.94071V9.93375L17.2835 9.02827C17.178 8.38747 17.0234 7.42627 15.3783 7.42627H13.5364C11.8984 7.42627 11.7437 8.34568 11.6312 9.0213L11.4836 9.91285C10.8298 9.95464 10.176 9.99644 9.52215 10.0591L8.08799 10.1984C7.79272 10.2263 7.58181 10.484 7.60994 10.7696C7.63806 11.0551 7.89114 11.2641 8.18641 11.2362L9.62057 11.0969C13.3044 10.7347 17.0163 10.8741 20.7423 11.2432C20.7634 11.2432 20.7775 11.2432 20.7986 11.2432C21.0657 11.2432 21.2977 11.0412 21.3258 10.7696C21.3469 10.484 21.136 10.2263 20.8408 10.1984Z" fill="white"/>
<path d="M19.5477 12.2253C19.379 12.0511 19.147 11.9536 18.908 11.9536H10.0218C9.78277 11.9536 9.54374 12.0511 9.38204 12.2253C9.22035 12.3994 9.12896 12.6362 9.14302 12.88L9.57889 20.0263C9.65622 21.085 9.75464 22.4084 12.2082 22.4084H16.7216C19.1751 22.4084 19.2735 21.092 19.3509 20.0263L19.7867 12.887C19.8008 12.6362 19.7094 12.3994 19.5477 12.2253ZM15.6319 18.9188H13.2908C13.0026 18.9188 12.7636 18.682 12.7636 18.3964C12.7636 18.1109 13.0026 17.874 13.2908 17.874H15.6319C15.9201 17.874 16.1591 18.1109 16.1591 18.3964C16.1591 18.682 15.9201 18.9188 15.6319 18.9188ZM16.2224 16.1327H12.7073C12.4191 16.1327 12.1801 15.8959 12.1801 15.6104C12.1801 15.3248 12.4191 15.088 12.7073 15.088H16.2224C16.5107 15.088 16.7497 15.3248 16.7497 15.6104C16.7497 15.8959 16.5107 16.1327 16.2224 16.1327Z" fill="white"/>
</svg>
