<svg width="126" height="47" viewBox="0 0 126 47" fill="none" xmlns="http://www.w3.org/2000/svg">
<g filter="url(#filter0_d_122_113884)">
<rect width="126" height="45" rx="5" fill="white" shape-rendering="crispEdges"/>
<path d="M27.2862 22.3458C28.0662 22.6218 28.4562 23.2578 28.4562 24.2538V26.3418C28.4562 27.9258 27.7122 28.7178 26.2242 28.7178H21.5982V17.0718H26.0802C27.5682 17.0718 28.3122 17.8638 28.3122 19.4478V20.5098C28.3122 21.4698 27.9702 22.0818 27.2862 22.3458ZM25.4502 18.7818H24.1182V21.8958H25.4502C25.5462 21.8958 25.6242 21.8598 25.6842 21.7878C25.7562 21.7158 25.7922 21.6318 25.7922 21.5358V19.1418C25.7922 19.0458 25.7562 18.9618 25.6842 18.8898C25.6242 18.8178 25.5462 18.7818 25.4502 18.7818ZM25.9362 26.6298V24.0198C25.9362 23.9238 25.9002 23.8398 25.8282 23.7678C25.7682 23.6958 25.6902 23.6598 25.5942 23.6598H24.1182V26.9898H25.5942C25.6902 26.9898 25.7682 26.9538 25.8282 26.8818C25.9002 26.8098 25.9362 26.7258 25.9362 26.6298ZM33.8304 19.7538H34.2984V22.0938H33.1104C32.7024 22.0938 32.4984 22.3038 32.4984 22.7238V28.7178H30.0864V19.9338H32.2824V20.7798C32.6304 20.0958 33.1464 19.7538 33.8304 19.7538ZM39.8414 19.9338H41.8754V28.7178H39.8414V28.0698C39.4694 28.6218 38.8514 28.8978 37.9874 28.8978H37.6094C36.1214 28.8978 35.3774 28.1058 35.3774 26.5218V22.1298C35.3774 20.5458 36.1214 19.7538 37.6094 19.7538H37.9874C38.8514 19.7538 39.4694 20.0298 39.8414 20.5818V19.9338ZM39.4634 26.8098V21.8418C39.4634 21.7458 39.4274 21.6618 39.3554 21.5898C39.2954 21.5178 39.2174 21.4818 39.1214 21.4818H38.1314C38.0354 21.4818 37.9514 21.5178 37.8794 21.5898C37.8194 21.6618 37.7894 21.7458 37.7894 21.8418V26.8098C37.7894 26.9058 37.8194 26.9898 37.8794 27.0618C37.9514 27.1338 38.0354 27.1698 38.1314 27.1698H39.1214C39.2174 27.1698 39.2954 27.1338 39.3554 27.0618C39.4274 26.9898 39.4634 26.9058 39.4634 26.8098ZM50.0141 23.3898H47.6021V21.8418C47.6021 21.7458 47.5661 21.6618 47.4941 21.5898C47.4341 21.5178 47.3561 21.4818 47.2601 21.4818H46.2701C46.1741 21.4818 46.0901 21.5178 46.0181 21.5898C45.9581 21.6618 45.9281 21.7458 45.9281 21.8418V26.8098C45.9281 26.9058 45.9581 26.9898 46.0181 27.0618C46.0901 27.1338 46.1741 27.1698 46.2701 27.1698H47.2601C47.3561 27.1698 47.4341 27.1338 47.4941 27.0618C47.5661 26.9898 47.6021 26.9058 47.6021 26.8098V25.2618H50.0141V26.5218C50.0141 28.1058 49.2701 28.8978 47.7821 28.8978H45.7481C44.2601 28.8978 43.5161 28.1058 43.5161 26.5218V22.1298C43.5161 20.5458 44.2601 19.7538 45.7481 19.7538H47.7821C49.2701 19.7538 50.0141 20.5458 50.0141 22.1298V23.3898ZM58.4613 19.9338L56.6613 24.0558L58.7493 28.7178H56.3373L54.6813 25.0638H53.9613V28.7178H51.5493V17.0718H53.9613V23.0838H54.7713L56.0853 19.9338H58.4613ZM64.0242 19.7538C65.5122 19.7538 66.2562 20.5458 66.2562 22.1298V24.9738H62.1702V26.8098C62.1702 26.9058 62.2002 26.9898 62.2602 27.0618C62.3322 27.1338 62.4162 27.1698 62.5122 27.1698H63.5022C63.5982 27.1698 63.6762 27.1338 63.7362 27.0618C63.8082 26.9898 63.8442 26.9058 63.8442 26.8098V25.8378H66.2562V26.5218C66.2562 28.1058 65.5122 28.8978 64.0242 28.8978H61.9902C60.5022 28.8978 59.7582 28.1058 59.7582 26.5218V22.1298C59.7582 20.5458 60.5022 19.7538 61.9902 19.7538H64.0242ZM62.1702 23.3898H63.8442V21.7698C63.8442 21.6738 63.8082 21.5898 63.7362 21.5178C63.6762 21.4458 63.5982 21.4098 63.5022 21.4098H62.5122C62.4162 21.4098 62.3322 21.4458 62.2602 21.5178C62.2002 21.5898 62.1702 21.6738 62.1702 21.7698V23.3898ZM70.7845 27.3318H71.5045V28.8978H69.8125C68.3245 28.8978 67.5805 28.1058 67.5805 26.5218V18.0258H69.9925V19.9338H71.5045V21.6798H69.9925V26.4678C69.9925 26.8038 70.0585 27.0318 70.1905 27.1518C70.3225 27.2718 70.5205 27.3318 70.7845 27.3318ZM80.8327 26.8098V25.0098H83.2267V26.5218C83.2267 28.1058 82.4827 28.8978 80.9947 28.8978H78.7267C77.2387 28.8978 76.4947 28.1058 76.4947 26.5218V19.2678C76.4947 17.6838 77.2387 16.8918 78.7267 16.8918H80.9947C82.4827 16.8918 83.2267 17.6838 83.2267 19.2678V20.3658H80.8327V18.9618C80.8327 18.8658 80.7967 18.7818 80.7247 18.7098C80.6647 18.6378 80.5867 18.6018 80.4907 18.6018H79.3567C79.2607 18.6018 79.1767 18.6378 79.1047 18.7098C79.0447 18.7818 79.0147 18.8658 79.0147 18.9618V26.8098C79.0147 26.9058 79.0447 26.9898 79.1047 27.0618C79.1767 27.1338 79.2607 27.1698 79.3567 27.1698H80.4907C80.5867 27.1698 80.6647 27.1338 80.7247 27.0618C80.7967 26.9898 80.8327 26.9058 80.8327 26.8098ZM87.0609 28.7178H84.6489V17.0718H87.0609V20.1858C87.4209 19.8978 87.9129 19.7538 88.5369 19.7538H88.9149C90.4029 19.7538 91.1469 20.5458 91.1469 22.1298V28.7178H88.7349V21.8418C88.7349 21.7458 88.6989 21.6618 88.6269 21.5898C88.5669 21.5178 88.4889 21.4818 88.3929 21.4818H87.4029C87.1989 21.4818 87.0849 21.5898 87.0609 21.8058V28.7178ZM97.2515 19.9338H99.2855V28.7178H97.2515V28.0698C96.8795 28.6218 96.2615 28.8978 95.3975 28.8978H95.0195C93.5315 28.8978 92.7875 28.1058 92.7875 26.5218V22.1298C92.7875 20.5458 93.5315 19.7538 95.0195 19.7538H95.3975C96.2615 19.7538 96.8795 20.0298 97.2515 20.5818V19.9338ZM96.8735 26.8098V21.8418C96.8735 21.7458 96.8375 21.6618 96.7655 21.5898C96.7055 21.5178 96.6275 21.4818 96.5315 21.4818H95.5415C95.4455 21.4818 95.3615 21.5178 95.2895 21.5898C95.2295 21.6618 95.1995 21.7458 95.1995 21.8418V26.8098C95.1995 26.9058 95.2295 26.9898 95.2895 27.0618C95.3615 27.1338 95.4455 27.1698 95.5415 27.1698H96.5315C96.6275 27.1698 96.7055 27.1338 96.7655 27.0618C96.8375 26.9898 96.8735 26.9058 96.8735 26.8098ZM104.13 27.3318H104.85V28.8978H103.158C101.67 28.8978 100.926 28.1058 100.926 26.5218V18.0258H103.338V19.9338H104.85V21.6798H103.338V26.4678C103.338 26.8038 103.404 27.0318 103.536 27.1518C103.668 27.2718 103.866 27.3318 104.13 27.3318Z" fill="#0A52BE"/>
</g>
<!--<defs>-->
<!--<filter id="filter0_d_122_113884" x="0" y="0" width="126" height="47" filterUnits="userSpaceOnUse" color-interpolation-filters="sRGB">-->
<!--<feFlood flood-opacity="0" result="BackgroundImageFix"/>-->
<!--<feColorMatrix in="SourceAlpha" type="matrix" values="0 0 0 0 0 0 0 0 0 0 0 0 0 0 0 0 0 0 127 0" result="hardAlpha"/>-->
<!--<feOffset dy="2"/>-->
<!--<feComposite in2="hardAlpha" operator="out"/>-->
<!--<feColorMatrix type="matrix" values="0 0 0 0 0.0182291 0 0 0 0 0.260938 0 0 0 0 0.625 0 0 0 1 0"/>-->
<!--<feBlend mode="normal" in2="BackgroundImageFix" result="effect1_dropShadow_122_113884"/>-->
<!--<feBlend mode="normal" in="SourceGraphic" in2="effect1_dropShadow_122_113884" result="shape"/>-->
<!--</filter>-->
<!--</defs>-->
</svg>
