<svg width="12" height="12" viewBox="0 0 12 12" fill="none" xmlns="http://www.w3.org/2000/svg">
<g clip-path="url(#clip0_10723_44340)">
<path d="M5.56824 0C5.72984 0 5.86189 0.132051 5.86189 0.293655V0.31453C6.37368 0.386068 6.83762 0.621555 7.18921 0.966108C7.60342 1.37211 7.8626 1.92917 7.8626 2.54861L7.84289 3.31347L7.99441 4.41023C8.00048 4.44569 7.99715 4.48213 7.98476 4.51591C7.97238 4.5497 7.95136 4.57965 7.92381 4.60279L7.94258 4.62484L7.97729 4.66635L7.82436 4.86877L7.82155 4.87604L7.82085 4.87839C7.77417 4.99754 7.71155 5.1059 7.63907 5.18588C7.57832 5.25085 7.51007 5.29753 7.43595 5.31582C7.42164 5.36179 7.40569 5.40917 7.3942 5.45585C7.31164 5.73426 7.24667 5.95332 7.07498 6.17099C7.03745 6.21837 6.99758 6.2641 6.95512 6.30749C6.92634 6.3379 6.89629 6.36709 6.86506 6.39498C6.86998 6.44775 6.86951 6.91075 6.86858 7.04281L6.81791 7.055C6.70697 7.44693 6.37509 7.70118 5.98409 7.82104C5.7615 7.88929 5.51922 7.91416 5.28818 7.89633C5.05551 7.8785 4.83293 7.81682 4.65185 7.71291C4.3976 7.56679 4.22357 7.33787 4.21114 7.02826V7.00692L4.15602 6.99191V6.39756L4.15719 6.3354C3.99887 6.1921 3.86916 6.00188 3.78191 5.80837C3.72116 5.67351 3.67285 5.52762 3.61679 5.3625L3.5877 5.27665C3.52438 5.26844 3.46527 5.23912 3.41203 5.19573C3.34518 5.14085 3.28772 5.06087 3.24104 4.96845C3.20961 4.90653 3.14746 4.81365 3.12494 4.62062C3.05739 4.57934 3.01681 4.50053 3.0283 4.41703L3.18076 3.3191L3.13807 2.64712C3.13502 2.59833 3.13338 2.55377 3.13338 2.5139C3.13338 1.91533 3.39092 1.37774 3.79833 0.981119C4.1851 0.604199 4.70861 0.354638 5.27458 0.301865V0.293655C5.27458 0.132051 5.40663 0 5.56824 0Z" fill="white"/>
<path d="M5.78238 7.71166C6.12506 7.63519 6.4363 7.44404 6.58806 7.15015C6.63684 7.03545 6.75951 6.96485 6.88758 6.98713C7.08952 7.02255 7.21243 7.04249 7.3365 7.06219C8.81111 7.29979 10.2102 7.52542 10.5967 9.39853L11.014 11.6542C11.0203 11.6774 11.0238 11.7016 11.0238 11.7267C11.0238 11.8782 10.9009 12.0009 10.7497 12.0009H0.273527C0.25922 12.0002 0.244443 11.999 0.229666 11.9966C0.0807277 11.9725 -0.0205975 11.832 0.00356109 11.6828L0.315042 9.78226C0.755291 7.54372 1.92264 7.31198 3.61374 6.97634C3.79176 6.94116 3.97471 6.90481 4.11755 6.87479C4.26368 6.84476 4.40745 6.93741 4.43982 7.08353C4.49729 7.34107 4.66264 7.5205 4.87702 7.62628C5.00579 7.68984 5.15168 7.72831 5.30343 7.74262C5.46128 7.75739 5.62476 7.7466 5.78238 7.71166Z" fill="#00AC9E"/>
<path fill-rule="evenodd" clip-rule="evenodd" d="M6.84034 7.25704C6.64707 7.64897 6.24388 7.89665 5.80715 7.98531V9.25798H5.21609L5.21562 8.00736C4.72307 7.94239 4.28868 7.66187 4.17305 7.14258C2.31542 7.53451 1.03033 7.56383 0.58398 9.83473L0.47773 10.4814H2.743V9.33092C2.743 9.26056 2.80023 9.20333 2.8706 9.20333C2.94096 9.20333 2.99819 9.26056 2.99819 9.33092V11.7266H8.01191V9.33092C8.01191 9.26056 8.06914 9.20333 8.13951 9.20333C8.20987 9.20333 8.26687 9.26056 8.26687 9.33092V10.4814H10.5195L10.3321 9.46743C9.95023 7.58095 8.37898 7.52654 6.84034 7.25704ZM0.377108 11.095L0.273438 11.7266H2.743V11.095H0.377108ZM8.26687 11.7266H10.7496L10.6328 11.095H8.26687V11.7266Z" fill="white"/>
<path fill-rule="evenodd" clip-rule="evenodd" d="M6.6566 6.44207C5.89009 7.03853 5.13226 6.98177 4.38147 6.44723L4.37795 7.04135C4.45723 7.96265 6.43143 8.01449 6.6566 7.06855V6.44207ZM7.74467 4.69046C7.72544 4.66771 7.70644 4.64519 7.68697 4.62291L7.67384 4.61447C7.1583 4.25138 6.33503 4.07031 5.50801 4.07031C4.70491 4.07031 3.90909 4.24083 3.39941 4.57999L3.47072 4.89569L3.70574 5.14197L3.85116 5.29865C4.25997 7.00921 6.76097 7.11664 7.19864 5.29865L7.45594 5.07489L7.74467 4.69046Z" fill="white"/>
<path fill-rule="evenodd" clip-rule="evenodd" d="M7.79081 4.44277L7.65383 3.45063C7.63858 3.44993 7.62334 3.44641 7.60856 3.44008C6.85941 3.11335 6.13724 2.97942 5.43828 2.99467C4.73885 3.01015 4.05983 3.17551 3.39887 3.44711C3.38855 3.45134 3.378 3.45415 3.36745 3.45556L3.23047 4.44277C4.31455 3.66923 6.68632 3.66478 7.79081 4.44277ZM7.64023 3.17504L7.65524 2.59875C7.68573 1.43116 6.69968 0.494141 5.53163 0.494141H5.49856C4.31221 0.494141 3.26612 1.44805 3.34164 2.63206L3.37659 3.17996C4.04177 2.91492 4.72595 2.75449 5.43335 2.73901C6.14591 2.7233 6.88052 2.85488 7.64023 3.17504ZM5.51052 1.37933C5.79479 1.37933 6.02536 1.60989 6.02536 1.89416C6.02536 2.1782 5.79479 2.40853 5.51052 2.40853C5.22625 2.40853 4.99592 2.1782 4.99592 1.89416C4.99592 1.60989 5.22625 1.37933 5.51052 1.37933Z" fill="#00AC9E"/>
</g>
<defs>
<clipPath id="clip0_10723_44340">
<rect width="11.0238" height="12" fill="white"/>
</clipPath>
</defs>
</svg>
