<svg width="17" height="18" viewBox="0 0 17 18" fill="none" xmlns="http://www.w3.org/2000/svg">
<path d="M12.4733 8.12277C12.1866 8.12277 11.9599 7.88791 11.9599 7.60608C11.9599 7.3578 11.7133 6.84111 11.2999 6.39152C10.8933 5.95536 10.4466 5.70037 10.0733 5.70037C9.7866 5.70037 9.55994 5.46551 9.55994 5.18368C9.55994 4.90185 9.79327 4.66699 10.0733 4.66699C10.7399 4.66699 11.4399 5.02935 12.0533 5.68024C12.6266 6.29087 12.9933 7.04913 12.9933 7.59937C12.9933 7.88791 12.7599 8.12277 12.4733 8.12277Z" fill="#CC0000"/>
<path d="M14.8795 8.12439C14.5928 8.12439 14.3662 7.88953 14.3662 7.6077C14.3662 5.22557 12.4395 3.29302 10.0795 3.29302C9.79283 3.29302 9.56616 3.05816 9.56616 2.77633C9.56616 2.4945 9.79283 2.25293 10.0728 2.25293C13.0062 2.25293 15.3928 4.65519 15.3928 7.6077C15.3928 7.88953 15.1595 8.12439 14.8795 8.12439Z" fill="#CC0000"/>
<path d="M8.09327 10.9427L6.85994 12.1841C6.59994 12.4458 6.1866 12.4458 5.91994 12.1908C5.8466 12.117 5.77327 12.0499 5.69994 11.9761C5.01327 11.2782 4.39327 10.5468 3.83994 9.78182C3.29327 9.01685 2.85327 8.25188 2.53327 7.49363C2.21994 6.72866 2.05994 5.99724 2.05994 5.29938C2.05994 4.84308 2.13994 4.40692 2.29994 4.0043C2.45994 3.59498 2.71327 3.2192 3.0666 2.88369C3.49327 2.46095 3.95994 2.25293 4.45327 2.25293C4.63994 2.25293 4.8266 2.29319 4.99327 2.37371C5.1666 2.45424 5.31994 2.57502 5.43994 2.74949L6.9866 4.94374C7.1066 5.11149 7.19327 5.26583 7.25327 5.41345C7.31327 5.55437 7.3466 5.69528 7.3466 5.82278C7.3466 5.98382 7.29994 6.14487 7.2066 6.2992C7.11994 6.45354 6.99327 6.61458 6.83327 6.77563L6.3266 7.30574C6.25327 7.37955 6.21994 7.46679 6.21994 7.57415C6.21994 7.62783 6.2266 7.6748 6.23994 7.72848C6.25994 7.78217 6.27994 7.82243 6.29327 7.86269C6.41327 8.08413 6.61994 8.37267 6.91327 8.7216C7.21327 9.07053 7.53327 9.42618 7.87994 9.78182C7.9466 9.84892 8.01994 9.91602 8.0866 9.98313C8.35327 10.2448 8.35994 10.6743 8.09327 10.9427Z" fill="#CC0000"/>
<path d="M15.373 13.2078C15.373 13.3957 15.3397 13.5903 15.273 13.7782C15.253 13.8318 15.233 13.8855 15.2063 13.9392C15.093 14.1808 14.9463 14.4089 14.753 14.6237C14.4263 14.986 14.0663 15.2477 13.6597 15.4155C13.653 15.4155 13.6463 15.4222 13.6397 15.4222C13.2463 15.5832 12.8197 15.6705 12.3597 15.6705C11.6797 15.6705 10.953 15.5094 10.1863 15.1806C9.41968 14.8518 8.65301 14.4089 7.89301 13.852C7.63301 13.6574 7.37301 13.4628 7.12634 13.2548L9.30634 11.0605C9.49301 11.2014 9.65968 11.3088 9.79968 11.3826C9.83301 11.396 9.87301 11.4162 9.91968 11.4363C9.97301 11.4564 10.0263 11.4631 10.0863 11.4631C10.1997 11.4631 10.2863 11.4229 10.3597 11.3491L10.8663 10.8458C11.033 10.678 11.193 10.5505 11.3463 10.47C11.4997 10.3761 11.653 10.3291 11.8197 10.3291C11.9463 10.3291 12.0797 10.3559 12.2263 10.4163C12.373 10.4767 12.5263 10.564 12.693 10.678L14.8997 12.2549C15.073 12.3757 15.193 12.5166 15.2663 12.6844C15.333 12.8522 15.373 13.0199 15.373 13.2078Z" fill="#CC0000"/>
</svg>
