<svg width="85" height="78" viewBox="0 0 85 78" fill="none" xmlns="http://www.w3.org/2000/svg">
<path d="M72.5249 46.7265C89.1584 53.6704 89.1584 64.9031 72.5249 71.847C55.9384 78.7909 29.0616 78.7909 12.4751 71.847C-4.15837 64.9031 -4.15837 53.6704 12.4751 46.7265C29.0616 39.7826 55.9384 39.7826 72.5249 46.7265Z" fill="#272727"/>
<mask id="mask0_3063_16934" style="mask-type:luminance" maskUnits="userSpaceOnUse" x="7" y="0" width="78" height="66">
<path d="M85 0H7.77625V65.0375H85V0Z" fill="white"/>
</mask>
<g mask="url(#mask0_3063_16934)">
<path d="M77.8346 55.6356C77.6765 55.0884 63.4067 38.3748 61.336 35.9426C61.0793 35.6414 60.7612 35.3236 60.4187 35.1158C60.1876 34.9754 58.8441 34.807 58.7359 35.0453C57.5607 37.6363 57.7457 46.9378 58.9023 49.4907C60.1985 52.3499 69.4288 60.2698 69.8999 60.2056C72.4078 59.8644 78.5022 57.7849 77.8339 55.6362L77.8346 55.6356Z" fill="#CC0000"/>
<path d="M37.5338 37.846V15.0352C37.5338 11.5328 40.4201 8.6679 43.947 8.6679H51.2058C54.7334 8.6679 57.6189 11.5335 57.6189 15.0352V37.846C57.6189 41.3484 37.5332 41.3484 37.5332 37.846H37.5338Z" fill="#4B4848"/>
<path d="M54.8902 35.609C54.8902 38.0494 50.3301 47.7144 47.9079 47.7144C45.4858 47.7144 41.1427 38.0494 41.1427 35.609C41.1427 33.1686 44.2203 33.6007 48.0161 33.6007C51.8119 33.6007 54.8895 33.1686 54.8895 35.609H54.8902Z" fill="#F0C7AD"/>
<path d="M48.0417 40.2254C45.4768 40.2254 42.4229 38.3176 42.4229 35.5956L44.573 27.5518C44.573 24.8496 51.5097 24.8496 51.5097 27.5518L53.6598 35.5956C53.6598 38.3176 50.6059 40.2254 48.041 40.2254H48.0417Z" fill="#F0C7AD"/>
<path d="M44.7785 31.7895C48.0417 32.8756 49.9511 32.7765 52.2324 30.2547L51.5098 27.5525C51.5098 24.8502 44.573 24.8502 44.573 27.5525L42.9209 33.7329C43.417 32.4987 43.5252 31.3726 44.7785 31.7901V31.7895Z" fill="#C98360"/>
<path d="M38.8428 65.3998C38.9305 65.858 35.8305 71.6718 35.9489 72.13C35.9489 72.13 44.9007 73.476 48.0782 73.476C51.2557 73.476 60.1352 72.13 60.1352 72.13C60.2536 71.6718 57.1536 65.8573 57.2413 65.3998C57.2413 65.3998 58.3089 55.4303 58.5906 53.7436C58.8895 51.9508 61.1907 46.8603 60.2196 41.8791C60.2196 41.8791 60.8335 37.5753 60.548 35.6122C58.3371 33.2417 55.7191 32.6354 52.6472 31.6408L53.071 35.7316C52.4539 38.6004 48.1333 41.9255 48.1333 41.9255C48.1333 41.9255 43.7146 38.4663 43.0534 35.5601L43.4388 31.6408C40.3669 32.6354 37.7483 33.241 35.538 35.6122C35.2519 37.5759 35.8664 41.8791 35.8664 41.8791C34.8787 46.0322 37.1965 51.9502 37.4954 53.7436C37.7764 55.4303 38.8441 65.3998 38.8441 65.3998H38.8428Z" fill="#E1E9ED"/>
<path d="M54.7129 24.9424C55.554 24.6672 56.4053 24.3882 57.1517 23.9147C57.898 23.4413 58.5426 22.7555 58.7916 21.9116C59.0406 21.0676 58.8255 20.0622 58.1361 19.5106C57.4461 18.9589 56.4053 19.1267 55.7793 19.7482C55.4784 20.0469 54.1944 25.1114 54.7135 24.9417L54.7129 24.9424Z" fill="#F0C7AD"/>
<path d="M41.0377 24.9424C40.1966 24.6672 39.3453 24.3882 38.599 23.9147C37.8526 23.4413 37.208 22.7555 36.959 21.9116C36.71 21.0676 36.9251 20.0622 37.6145 19.5106C38.3045 18.9589 39.3453 19.1267 39.9713 19.7482C40.2722 20.0469 41.5562 25.1114 41.0371 24.9417L41.0377 24.9424Z" fill="#F0C7AD"/>
<path d="M48.7106 6.82626C48.5653 6.81927 47.1853 6.81927 47.04 6.82626C42.5894 7.03979 38.389 7.78399 39.04 14.7086C39.04 14.7086 39.7371 22.6584 40.1256 24.197C40.3228 24.9774 40.8425 25.7159 41.2989 26.366C41.9941 27.3556 42.7987 28.2809 43.7102 29.0791C44.8278 30.0584 46.1618 30.9037 47.6794 30.9037C49.087 30.9037 50.147 30.5001 51.2 29.7489C52.2478 29.0009 53.1549 28.0572 53.9454 27.0492C54.5484 26.2809 55.1501 25.4407 55.5143 24.5288C55.5578 24.4201 55.5975 24.3108 55.6263 24.197C56.0148 22.6584 56.7119 14.7086 56.7119 14.7086C57.3622 7.78463 53.1625 7.03979 48.7119 6.82626H48.7106Z" fill="#F0C7AD"/>
<path d="M47.8753 30.554C44.6249 30.4193 41.955 27.3853 41.007 24.427C40.6684 23.4184 40.3964 21.4483 40.5954 20.4569C40.9161 18.8617 43.9694 15.1191 45.907 13.6294C47.8446 12.1398 49.8852 11.5195 52.1179 11.3562C53.5376 11.2519 54.1477 15.4121 56.7093 14.7193C56.7093 14.713 56.7106 14.7079 56.7106 14.7079C57.361 7.78389 53.1613 7.03905 48.7106 6.82552C48.5653 6.81853 47.1853 6.81853 47.04 6.82552C42.5894 7.03905 38.389 7.78325 39.04 14.7079C39.04 14.7079 39.7371 22.6577 40.1256 24.1963C40.3228 24.9767 40.8425 25.7152 41.2983 26.3653C41.9934 27.3548 42.798 28.2801 43.7095 29.0784C44.8271 30.0577 46.1611 30.9029 47.6788 30.9029C49.0864 30.9029 50.1464 30.4994 51.1994 29.7482C51.6628 29.4177 52.0987 29.0479 52.509 28.6519C50.3947 30.2496 48.3496 30.6214 47.8753 30.5547V30.554Z" fill="#E3A781"/>
<path d="M47.979 18.6367C47.979 18.6367 47.047 21.5728 47.218 22.0876C47.5118 22.9723 48.9641 22.685 48.9641 22.685C48.9641 22.685 47.9784 22.3386 47.9784 21.7031V18.6367H47.979Z" fill="#FA704E"/>
<path d="M42.3436 16.5414C42.3589 16.5261 42.3743 16.5122 42.3897 16.4982C43.2448 15.7324 44.2216 15.4667 45.2125 15.7489C45.2983 15.773 45.3892 15.8055 45.4641 15.9249C45.6062 16.1525 45.6279 16.4098 45.6209 16.7829C44.4681 16.2332 43.3025 16.2853 42.2303 16.9386C42.1938 16.814 42.2053 16.8051 42.2418 16.7028C42.268 16.6291 42.3045 16.5808 42.3436 16.5408V16.5414Z" fill="#E6534C"/>
<path d="M53.69 16.5414C53.6746 16.5261 53.6592 16.5122 53.6439 16.4982C52.7887 15.7324 51.8119 15.4667 50.821 15.7489C50.7353 15.773 50.6444 15.8055 50.5695 15.9249C50.4274 16.1525 50.4056 16.4098 50.4127 16.7829C51.5655 16.2332 52.7311 16.2853 53.8033 16.9386C53.8398 16.814 53.8282 16.8051 53.7918 16.7028C53.7655 16.6291 53.729 16.5808 53.69 16.5408V16.5414Z" fill="#E6534C"/>
<path d="M45.0569 18.6018C45.0569 18.0813 44.6786 17.6586 44.212 17.6586C43.7454 17.6586 43.3671 18.0806 43.3671 18.6018V19.5951C43.3671 20.1137 43.7825 20.2929 44.212 20.2929C44.6415 20.2929 45.0569 20.1137 45.0569 19.5951V18.6018Z" fill="#45363F"/>
<path d="M44.7516 18.5611C44.7516 18.603 44.7177 18.6367 44.6754 18.6367C44.6332 18.6367 44.5992 18.603 44.5992 18.5611C44.5992 18.5191 44.6332 18.4855 44.6754 18.4855C44.7177 18.4855 44.7516 18.5191 44.7516 18.5611Z" fill="white"/>
<path d="M52.7907 18.6018C52.7907 18.0813 52.4124 17.6586 51.9458 17.6586C51.4791 17.6586 51.1008 18.0806 51.1008 18.6018V19.5951C51.1008 20.1137 51.5163 20.2929 51.9458 20.2929C52.3753 20.2929 52.7907 20.1137 52.7907 19.5951V18.6018Z" fill="#45363F"/>
<path d="M52.4847 18.5611C52.4847 18.603 52.4508 18.6367 52.4086 18.6367C52.3663 18.6367 52.3324 18.603 52.3324 18.5611C52.3324 18.5191 52.3663 18.4855 52.4086 18.4855C52.4508 18.4855 52.4847 18.5191 52.4847 18.5611Z" fill="white"/>
<path d="M44.7011 22.7295C44.7011 22.7295 46.8224 23.0994 48.1045 23.0409C49.3866 22.9818 51.6507 22.7295 51.6507 22.7295C51.8773 22.7295 50.6227 26.0456 48.2088 26.0717C45.8053 26.0984 44.5507 22.7295 44.7011 22.7295Z" fill="white"/>
<path d="M37.7431 19.3447C37.7431 19.3447 38.8659 20.1709 40.244 19.4051C41.0845 18.9379 41.7649 18.2478 42.3173 17.4642C43.2966 16.0762 44.1742 14.6075 45.313 13.3447C46.4517 12.0819 47.9047 11.0142 49.585 10.713C50.9158 10.4741 52.3931 10.8096 53.3885 11.6803C53.6112 12.7924 53.834 13.9046 54.0561 15.0161C54.2308 15.8906 54.805 17.5779 55.3331 18.2992C55.8612 19.0199 56.7778 19.487 57.6195 19.1769C57.6195 19.1769 59.465 8.2923 53.5453 7.62945C53.5453 7.62945 52.6319 6.12072 49.9172 5.22781C46.3531 4.05527 38.5631 4.47154 37.3354 11.1852C36.4136 16.2281 37.7431 19.3447 37.7431 19.3447Z" fill="#4B4848"/>
<path d="M18.35 54.9448C18.5081 54.3976 32.7779 37.684 34.8486 35.2518C35.1053 34.9506 35.4234 34.6328 35.7659 34.425C35.997 34.2846 37.3405 34.1162 37.4487 34.3545C38.6239 36.9455 38.4389 46.2476 37.2823 48.7999C35.9861 51.6591 26.7558 59.579 26.2847 59.5148C23.7768 59.1735 17.6824 57.0941 18.3507 54.9454L18.35 54.9448Z" fill="#CC0000"/>
<path d="M33.4192 73.924L45.8468 75.3514C46.4888 75.4251 47.0899 75.0279 47.2697 74.4121L48.0404 71.7703L48.8809 74.4407C49.0703 75.0432 49.665 75.4264 50.2968 75.3533L62.6661 73.924C62.7813 73.5516 58.3633 65.0382 58.3633 60.5367C58.3633 59.6203 58.5649 57.0388 59.5168 53.8993C60.1863 51.6903 61.8442 49.206 62.0234 46.8361C62.1617 45.0154 61.2386 43.2626 60.7848 41.7526C60.7848 41.7526 60.9807 37.3999 60.6914 35.4139C58.4555 33.0161 55.7191 32.6347 52.6472 31.6402L53.071 35.731C52.4539 38.5998 49.6701 59.3273 47.7792 59.3273C45.8884 59.3273 43.714 38.4657 43.0527 35.5594L43.4381 31.6402C40.3662 32.6347 37.6298 33.0161 35.3939 35.4139C35.1046 37.3999 35.3005 41.7526 35.3005 41.7526C34.8582 43.302 33.9339 45.0611 34.0664 46.8736C34.2424 49.2835 35.9034 51.7869 36.5845 54.0137C37.5715 57.2422 37.8513 59.8872 37.8513 60.8278C37.8513 65.8662 33.3021 73.5459 33.4192 73.924Z" fill="#CC0000"/>
<path d="M38.8012 59.5142C38.7 58.7141 38.3121 56.5666 39.2371 56.416C41.9377 55.9775 43.6243 56.0735 46.3493 56.0735C46.1527 55.26 45.9582 54.3296 45.7668 53.3223C41.5498 52.7421 36.5653 52.744 35.0316 48.5565C34.4869 46.8565 35.0566 44.2508 35.3888 42.4453C35.3888 42.0792 35.3005 41.7539 35.3005 41.7539C34.8582 43.3033 33.9339 45.0624 34.0664 46.8749C34.2424 49.2848 35.9034 51.7881 36.5845 54.015C37.5715 57.2428 37.8513 59.8885 37.8513 60.8291C37.8513 65.8675 33.3021 73.5472 33.4192 73.9253L35.6532 74.1821C35.7165 72.191 36.1864 70.2755 36.7612 68.3086C37.617 65.2949 39.2365 62.9581 38.8005 59.5155L38.8012 59.5142Z" fill="#1C1A1F"/>
<path d="M57.9639 62.1395C58.4843 65.5695 59.952 69.4379 62.4203 73.9526L62.6654 73.924C62.7807 73.5516 58.3627 65.0382 58.3627 60.5367C58.3627 59.6203 58.5643 57.0388 59.5161 53.8993C60.1857 51.6903 61.8435 49.206 62.0228 46.8361C62.122 45.527 61.6726 44.2527 61.2438 43.0789C61.4588 45.5823 62.0669 48.7554 60.1089 50.9982C57.6445 53.8529 53.6144 53.0605 50.0318 53.0388C49.7936 54.1459 49.553 55.1678 49.3142 56.0525C51.6538 56.158 54.9317 55.9349 57.0601 57.0541C58.4613 57.8269 57.4435 58.709 57.9639 62.1389V62.1395Z" fill="#CC0000"/>
<path d="M57.9639 62.1395C58.4843 65.5695 59.952 69.4379 62.4203 73.9526L62.6654 73.924C62.7807 73.5516 58.3627 65.0382 58.3627 60.5367C58.3627 59.6203 58.5643 57.0388 59.5161 53.8993C60.1857 51.6903 61.8435 49.206 62.0228 46.8361C62.122 45.527 61.6726 44.2527 61.2438 43.0789C61.4588 45.5823 62.0669 48.7554 60.1089 50.9982C57.6445 53.8529 53.6144 53.0605 50.0318 53.0388C49.7936 54.1459 49.553 55.1678 49.3142 56.0525C51.6538 56.158 54.9317 55.9349 57.0601 57.0541C58.4613 57.8269 57.4435 58.709 57.9639 62.1389V62.1395Z" fill="black" fill-opacity="0.2"/>
<path d="M48.7043 41.478C50.1612 40.5178 51.8536 39.4806 53.5179 40.0125C54.816 40.4269 54.4121 41.6655 55.0112 42.8184C54.6457 40.092 55.4778 37.3649 55.0419 34.6385C54.9229 33.8924 54.7961 33.1254 54.4089 32.4752C54.0216 31.8245 53.3079 31.3078 52.55 31.3764C52.55 31.3764 52.9565 35.0828 52.7081 35.8772C52.4598 36.6716 48.1986 41.8111 48.7037 41.478H48.7043Z" fill="#EDF2F4"/>
<path d="M47.4477 41.3795C45.9909 40.4193 44.2351 39.3846 42.5708 39.9166C41.2727 40.3309 41.6766 41.5696 41.0774 42.7224C41.4429 39.996 40.6108 37.269 41.0467 34.5426C41.1658 33.7965 41.2925 33.0294 41.6798 32.3793C42.067 31.7285 42.7807 31.2118 43.5386 31.2804C43.5386 31.2804 43.1322 34.9868 43.3805 35.7812C43.6289 36.5756 47.9534 41.7126 47.4484 41.3795H47.4477Z" fill="#EDF2F4"/>
<path d="M71.1845 54.0226C75.5148 53.4901 77.7008 55.185 77.8506 56.3531C78.0445 57.8663 75.6153 60.3849 74.4241 60.5285C72.0423 60.8164 54.5861 63.1106 54.5861 63.1106C54.3825 62.8176 54.2199 62.4967 54.1079 62.1503C53.8032 61.2066 54.1803 60.4662 54.1803 60.4662C59.5117 58.4738 67.0258 55.5371 71.1845 54.0226Z" fill="#F0C7AD"/>
<path d="M58.0739 17.1324C58.0739 17.1223 58.0189 16.101 57.6086 14.741C57.2335 13.4991 56.475 11.7089 54.9912 10.2357L55.6076 9.62373C57.2277 11.2322 58.0483 13.1731 58.4516 14.5185C58.8882 15.9739 58.9432 17.0466 58.9451 17.0911L58.0746 17.1324H58.0739Z" fill="#1A1A1A"/>
<path d="M57.9415 20.2211C57.9415 22.5973 57.9895 24.5058 57.1701 24.5058C56.3508 24.5058 56.2516 22.5795 56.2516 20.2033C56.2516 17.8271 56.3508 15.9008 57.1701 15.9008C57.9895 15.9008 57.9415 17.8449 57.9415 20.2211Z" fill="#1A1A1A"/>
<path d="M58.8132 17.0613H58.9777C59.1973 17.0613 59.3752 17.2379 59.3752 17.4559V23.4413C59.3752 23.6593 59.1973 23.8359 58.9777 23.8359H58.8132V17.0613Z" fill="#707070"/>
<path d="M59.1333 16.9297H57.613V24.0393H59.1333V16.9297Z" fill="#4D4D4D"/>
<path d="M37.5332 17.1324C37.5332 17.1223 37.5882 16.101 37.9985 14.741C38.3736 13.4991 39.1321 11.7089 40.6159 10.2357L39.9995 9.62373C38.3794 11.2322 37.5588 13.1731 37.1555 14.5185C36.719 15.9739 36.6639 17.0466 36.662 17.0911L37.5325 17.1324H37.5332Z" fill="#1A1A1A"/>
<path d="M44.0494 27.107L41.7265 27.0968C41.7137 27.0968 41.7002 27.0968 41.6874 27.0968C40.1883 27.0968 39.5073 26.7937 39.0816 26.5293C38.108 25.9243 37.5639 24.7168 37.7591 23.5932C37.7707 23.5283 37.8321 23.4851 37.8974 23.4959C37.9627 23.5074 38.0062 23.5684 37.9953 23.6332C37.8167 24.6647 38.3154 25.7724 39.209 26.3272C39.9707 26.8006 40.9097 26.8623 41.7271 26.8585L44.0513 26.8686C44.1173 26.8686 44.171 26.9227 44.1704 26.9881C44.1704 27.0536 44.1166 27.1063 44.0507 27.1063L44.0494 27.107Z" fill="#1A1A1A"/>
<path d="M43.7626 27.6993C44.3813 27.6993 44.8828 27.3968 44.8828 27.0237C44.8828 26.6506 44.3813 26.3482 43.7626 26.3482C43.144 26.3482 42.6425 26.6506 42.6425 27.0237C42.6425 27.3968 43.144 27.6993 43.7626 27.6993Z" fill="#1A1A1A"/>
<path d="M37.8097 20.2211C37.8097 22.5973 37.7617 24.5058 38.5811 24.5058C39.4004 24.5058 39.4996 22.5795 39.4996 20.2033C39.4996 17.8271 39.4004 15.9008 38.5811 15.9008C37.7617 15.9008 37.8097 17.8449 37.8097 20.2211Z" fill="#1A1A1A"/>
<path d="M36.9379 23.8359H36.7734C36.5538 23.8359 36.3759 23.6593 36.3759 23.4413V17.4559C36.3759 17.2379 36.5538 17.0613 36.7734 17.0613H36.9379V23.8359Z" fill="#707070"/>
<path d="M36.6178 24.0393H38.1381V16.9297H36.6178V24.0393Z" fill="#4D4D4D"/>
<path d="M56.7215 10.7772C54.7571 7.99107 51.5002 6.16902 47.8145 6.16902C44.1288 6.16902 40.8483 8.00505 38.8857 10.8083L40.1224 11.3136C40.5942 10.6793 41.1459 10.1016 41.7675 9.59767C42.6035 8.91957 43.5393 8.39145 44.5487 8.02729C45.5934 7.65043 46.6924 7.45977 47.8152 7.45977C48.9379 7.45977 50.0369 7.65106 51.0816 8.02729C52.091 8.39145 53.0269 8.91957 53.8628 9.59767C54.4741 10.0934 55.0176 10.6609 55.4848 11.2824L56.7228 10.7772H56.7215Z" fill="#28282E"/>
<path d="M53.069 61.729C53.069 61.729 53.7276 61.1716 54.0221 60.5088C54.0221 60.5088 54.4125 58.4224 54.5578 58.4338C54.8312 58.4548 59.0597 60.9695 58.9374 61.4621C58.8145 61.9546 54.0688 63.0719 53.069 61.729Z" fill="#E3A781"/>
<path d="M55.0034 60.5062C54.2148 60.6124 53.3968 60.8698 53.0889 61.5002C52.8329 62.0258 52.9366 62.667 53.3245 63.1392C54.0663 63.6584 55.1532 63.8065 56.0116 63.4697C56.66 63.8059 57.4864 63.8682 58.1777 63.6317C58.4779 63.5294 58.7595 63.3674 58.9285 63.1322C59.0975 62.8964 59.1359 62.58 58.9708 62.3359C58.8338 62.1332 57.5978 60.1573 55.0034 60.5062Z" fill="#E3A781"/>
<path d="M53.9434 60.8126C53.9434 60.8126 53.053 61.2708 52.5019 61.3998C51.9508 61.5282 50.7506 61.5797 50.3825 61.5511C50.0145 61.5225 49.5357 62.5971 51.1314 62.9543C52.7272 63.3115 53.2188 62.7935 54.1911 63.103C55.1634 63.4125 54.7077 60.8717 53.9434 60.8126Z" fill="#E3A781"/>
<path d="M56.0378 59.4284C56.0378 59.4284 56.0698 60.8799 56.0558 61.0604C56.0417 61.2403 55.89 62.2431 55.8503 62.7477C55.8106 63.2517 56.6197 63.6407 57.0479 62.3696C57.3456 61.4195 57.4128 61.178 57.4454 60.7617C57.4781 60.3455 57.503 59.0992 57.2425 58.7973C56.9826 58.4955 55.9329 58.4383 56.0372 59.429L56.0378 59.4284Z" fill="#F0C7AD"/>
<path d="M57.318 60.5711C57.318 60.5711 57.2911 61.8669 57.27 62.0264C57.2489 62.1859 57.0568 63.07 56.9967 63.5174C56.9365 63.9641 57.7276 64.3613 58.2064 63.2549C58.5419 62.4268 58.6187 62.2158 58.668 61.8466C58.7172 61.478 58.7928 60.369 58.5451 60.0836C58.298 59.7983 57.2533 59.682 57.3173 60.5711H57.318Z" fill="#F0C7AD"/>
<path d="M58.4382 61.2638C58.4382 61.2638 58.4343 62.3264 58.417 62.4573C58.3998 62.5876 58.2333 63.3102 58.1847 63.6756C58.1354 64.041 58.8862 64.3798 59.3183 63.4799C59.6198 62.8056 59.6889 62.634 59.7299 62.3321C59.7702 62.0302 59.8227 61.1214 59.5859 60.8837C59.349 60.6461 58.3639 60.5336 58.4394 61.2638H58.4382Z" fill="#F0C7AD"/>
<path d="M54.4197 58.423C54.4197 58.423 54.4414 59.9432 54.4261 60.1338C54.4113 60.3245 54.1732 61.2943 54.1316 61.8275C54.09 62.3607 55.1058 62.9581 55.5584 61.614C55.8727 60.6092 55.9444 60.3544 55.9789 59.9139C56.0135 59.4742 56.0398 58.1567 55.7645 57.8371C55.4893 57.518 54.3089 57.3757 54.4197 58.4224V58.423Z" fill="#F0C7AD"/>
<path d="M24.9757 53.6375C20.6454 53.1049 18.4594 54.7999 18.3097 55.968C18.1157 57.4812 20.5449 59.9997 21.7361 60.1434C24.1179 60.4313 41.5741 62.7255 41.5741 62.7255C41.7777 62.4325 41.9403 62.1116 42.0523 61.7652C42.357 60.8215 41.98 60.0811 41.98 60.0811C36.6486 58.0887 29.1344 55.152 24.9757 53.6375Z" fill="#F0C7AD"/>
<path d="M43.0919 61.3439C43.0919 61.3439 42.4332 60.7865 42.1388 60.1237C42.1388 60.1237 41.7483 58.0372 41.603 58.0487C41.3297 58.0696 37.1012 60.5844 37.2234 61.0769C37.3463 61.5695 42.092 62.6867 43.0919 61.3439Z" fill="#E3A781"/>
<path d="M41.1574 60.1211C41.946 60.2273 42.7641 60.4846 43.072 61.1151C43.328 61.6407 43.2243 62.2819 42.8364 62.7541C42.0945 63.2733 41.0077 63.4214 40.1493 63.0846C39.5009 63.4208 38.6745 63.483 37.9832 63.2466C37.683 63.1443 37.4013 62.9823 37.2323 62.7471C37.0634 62.5113 37.0249 62.1948 37.1901 61.9508C37.3271 61.7481 38.5631 59.7722 41.1574 60.1211Z" fill="#E3A781"/>
<path d="M42.2175 60.4274C42.2175 60.4274 43.1079 60.8857 43.659 61.0147C44.2101 61.143 45.4103 61.1945 45.7784 61.1659C46.1464 61.1373 46.6252 62.212 45.0295 62.5692C43.4337 62.9263 42.9421 62.4084 41.9698 62.7179C40.9975 63.0274 41.4532 60.4865 42.2175 60.4274Z" fill="#E3A781"/>
<path d="M40.1224 59.0433C40.1224 59.0433 40.0904 60.4948 40.1045 60.6753C40.1186 60.8552 40.2703 61.858 40.31 62.3626C40.3496 62.8666 39.5406 63.2555 39.1123 61.9845C38.8147 61.0344 38.7475 60.7929 38.7148 60.3766C38.6822 59.9603 38.6572 58.7141 38.9177 58.4122C39.1776 58.1103 40.2274 58.0531 40.123 59.0439L40.1224 59.0433Z" fill="#F0C7AD"/>
<path d="M38.8423 60.1866C38.8423 60.1866 38.8692 61.4824 38.8903 61.6419C38.9114 61.8015 39.1034 62.6855 39.1636 63.1329C39.2238 63.5796 38.4326 63.9768 37.9538 62.8704C37.6184 62.0423 37.5416 61.8313 37.4923 61.4621C37.443 61.0935 37.3675 59.9845 37.6152 59.6991C37.8623 59.4138 38.9069 59.2975 38.8429 60.1866H38.8423Z" fill="#F0C7AD"/>
<path d="M37.7221 60.8787C37.7221 60.8787 37.7259 61.9413 37.7432 62.0722C37.7605 62.2025 37.9269 62.925 37.9755 63.2905C38.0242 63.6559 37.274 63.9946 36.8419 63.0947C36.5404 62.4204 36.4713 62.2488 36.4303 61.947C36.39 61.6451 36.3375 60.7363 36.5744 60.4986C36.8112 60.2609 37.7963 60.1484 37.7208 60.8787H37.7221Z" fill="#F0C7AD"/>
<path d="M41.7406 58.0379C41.7406 58.0379 41.7188 59.558 41.7342 59.7487C41.7489 59.9394 41.987 60.9092 42.0286 61.4424C42.0702 61.9756 41.0544 62.573 40.6018 61.2288C40.2876 60.2241 40.2159 59.9692 40.1813 59.5288C40.1467 59.089 40.1205 57.7716 40.3957 57.4519C40.671 57.1323 41.8513 56.9905 41.7406 58.0372V58.0379Z" fill="#F0C7AD"/>
<path d="M16.7318 40.8279H45.3923C46.2066 40.8279 47.024 41.4889 47.2083 42.2972L51.8145 62.4293C51.9995 63.2377 51.4848 63.8987 50.6706 63.8987H22.0101C21.1959 63.8987 20.3785 63.2377 20.1941 62.4293L15.588 42.2972C15.403 41.4889 15.9176 40.8279 16.7318 40.8279Z" fill="#A6A6A6"/>
<path d="M15.9298 40.8279H44.5903C45.4045 40.8279 46.222 41.4889 46.4063 42.2972L51.0125 62.4293C51.1975 63.2377 50.6828 63.8987 49.8686 63.8987H21.2081C20.3939 63.8987 19.5765 63.2377 19.3921 62.4293L14.786 42.2972C14.601 41.4889 15.1156 40.8279 15.9298 40.8279Z" fill="#B39687"/>
<path d="M15.9298 40.8279H44.5903C45.4045 40.8279 46.222 41.4889 46.4063 42.2972L51.0125 62.4293C51.1975 63.2377 50.6828 63.8987 49.8686 63.8987H21.2081C20.3939 63.8987 19.5765 63.2377 19.3921 62.4293L14.786 42.2972C14.601 41.4889 15.1156 40.8279 15.9298 40.8279Z" fill="#D0D0D0"/>
<path d="M23.5175 59.9788L16.109 46.2909L19.7819 62.3416C19.9259 62.9708 20.5795 63.5027 21.2087 63.5027H49.8692C50.0068 63.5027 50.1329 63.476 50.2418 63.4258C41.8641 62.8412 23.5175 59.9788 23.5175 59.9788Z" fill="#D0D0D0"/>
<path d="M23.5175 59.9788L16.109 46.2909L19.7819 62.3416C19.9259 62.9708 20.5795 63.5027 21.2087 63.5027H49.8692C50.0068 63.5027 50.1329 63.476 50.2418 63.4258C41.8641 62.8412 23.5175 59.9788 23.5175 59.9788Z" fill="black" fill-opacity="0.2"/>
<path d="M28.6423 41.2245H22.9518L44.3177 54.7249L28.6423 41.2245Z" fill="#C8C8C8"/>
<path d="M46.0172 42.3856C45.8731 41.7564 45.2196 41.2245 44.5904 41.2245H33.7394L48.0488 51.2626L46.0178 42.3856H46.0172Z" fill="#C8C8C8"/>
<path d="M60.6351 65.0375H20.8701C20.5552 65.0375 20.2972 64.7814 20.2972 64.4687C20.2972 64.1561 20.5552 63.8999 20.8701 63.8999H60.6351C60.9501 63.8999 61.208 64.1561 61.208 64.4687C61.208 64.7814 60.9501 65.0375 60.6351 65.0375Z" fill="#A6A6A6"/>
<path d="M52.1468 65.0375H20.8701C20.5552 65.0375 20.2972 64.7814 20.2972 64.4687C20.2972 64.1561 20.5552 63.8999 20.8701 63.8999H52.1468C52.4617 63.8999 52.7196 64.1561 52.7196 64.4687C52.7196 64.7814 52.4617 65.0375 52.1468 65.0375Z" fill="#3D414A"/>
</g>
<path d="M17.2789 0H5.50103C2.47527 0 0 2.45757 0 5.46168C0 8.46517 2.47527 10.9234 5.50103 10.9234H13.8543L18.6173 14.0972L16.1728 10.9234H17.2789C20.304 10.9234 22.7799 8.4658 22.7799 5.46168C22.7799 2.4582 20.3046 0 17.2789 0Z" fill="#00AC9E"/>
<path d="M6.54565 7.04795C6.80089 7.04795 7.0078 6.84252 7.0078 6.5891C7.0078 6.33569 6.80089 6.13026 6.54565 6.13026C6.29041 6.13026 6.0835 6.33569 6.0835 6.5891C6.0835 6.84252 6.29041 7.04795 6.54565 7.04795Z" fill="white"/>
<path d="M11.3899 7.04795C11.6451 7.04795 11.852 6.84252 11.852 6.5891C11.852 6.33569 11.6451 6.13026 11.3899 6.13026C11.1346 6.13026 10.9277 6.33569 10.9277 6.5891C10.9277 6.84252 11.1346 7.04795 11.3899 7.04795Z" fill="white"/>
<path d="M16.2342 7.04795C16.4895 7.04795 16.6964 6.84252 16.6964 6.5891C16.6964 6.33569 16.4895 6.13026 16.2342 6.13026C15.979 6.13026 15.7721 6.33569 15.7721 6.5891C15.7721 6.84252 15.979 7.04795 16.2342 7.04795Z" fill="white"/>
</svg>
