<svg width="25" height="25" viewBox="0 0 25 25" fill="none" xmlns="http://www.w3.org/2000/svg">
<path d="M22.4748 7.56977C22.3408 7.41345 22.1623 7.30196 21.939 7.30196L19.3274 7.16806C19.0374 4.55648 16.8275 2.50293 14.1489 2.50293C11.649 2.50293 9.55074 4.28867 9.03735 6.63235L6.82751 6.52071L6.42581 3.79753C6.38112 3.44035 6.06863 3.19482 5.71145 3.19482H2.14014C1.73844 3.19482 1.42578 3.5073 1.42578 3.90917C1.42578 4.31087 1.73827 4.62353 2.14014 4.62353H5.08662L7.00624 17.2127C7.09546 17.793 7.36341 18.3065 7.74284 18.6859C7.34114 19.0876 7.07316 19.6457 7.07316 20.2708C7.07316 21.4985 8.07758 22.5029 9.30528 22.5029C10.533 22.5029 11.5374 21.4985 11.5374 20.2708C11.5374 20.003 11.4705 19.7351 11.3811 19.4895H16.5819C16.4927 19.735 16.4256 20.0028 16.4256 20.2708C16.4256 21.4985 17.43 22.5029 18.6577 22.5029C19.8854 22.5029 20.8898 21.4985 20.8898 20.2708C20.8898 19.0431 19.8854 18.0387 18.6577 18.0387L9.63995 18.0384C9.01496 18.0384 8.50161 17.592 8.41224 16.9893L8.25608 15.8509H17.5417C19.6846 15.8509 21.5372 14.3107 21.8943 12.1903L22.6309 8.12781C22.6532 7.92695 22.6087 7.72611 22.4746 7.56978L22.4748 7.56977ZM18.6357 19.4893C19.0598 19.4893 19.417 19.8465 19.417 20.2706C19.417 20.6948 19.0598 21.0519 18.6357 21.0519C18.2115 21.0519 17.8543 20.6948 17.8543 20.2706C17.8543 19.8463 18.2115 19.4893 18.6357 19.4893ZM9.28308 19.4893C9.70722 19.4893 10.0644 19.8465 10.0644 20.2706C10.0644 20.6948 9.70723 21.0519 9.28308 21.0519C8.85893 21.0519 8.50176 20.6948 8.50176 20.2706C8.50176 19.8463 8.85893 19.4893 9.28308 19.4893ZM14.1491 3.95374C16.2249 3.95374 17.9214 5.65011 17.9214 7.72606C17.9214 9.80185 16.2251 11.4984 14.1491 11.4984C12.0733 11.4984 10.3768 9.80201 10.3768 7.72606C10.3768 5.65011 12.0733 3.95374 14.1491 3.95374Z" fill="white"/>
<path d="M13.1669 9.26638C13.3008 9.40029 13.5016 9.48966 13.6802 9.48966C13.8811 9.48966 14.0596 9.40044 14.1935 9.26638L16.2024 7.14591C16.4702 6.85568 16.4702 6.40931 16.1801 6.11905C15.8899 5.85125 15.4435 5.85125 15.1533 6.14132L13.68 7.70376L13.1223 7.14589C12.8545 6.85567 12.3857 6.8334 12.0955 7.12363C11.8052 7.39143 11.783 7.86023 12.0732 8.15048L13.1669 9.26638Z" fill="white"/>
</svg>
