<svg width="21" height="21" viewBox="0 0 21 21" fill="none" xmlns="http://www.w3.org/2000/svg">
<path d="M14.9081 3.40596V2.10596C14.9081 1.76429 14.6248 1.48096 14.2831 1.48096C13.9415 1.48096 13.6581 1.76429 13.6581 2.10596V3.35596H8.24148V2.10596C8.24148 1.76429 7.95815 1.48096 7.61648 1.48096C7.27482 1.48096 6.99148 1.76429 6.99148 2.10596V3.40596C4.74148 3.61429 3.64982 4.95596 3.48315 6.94762C3.46648 7.18929 3.66648 7.38929 3.89982 7.38929H17.9998C18.2415 7.38929 18.4415 7.18096 18.4165 6.94762C18.2498 4.95596 17.1581 3.61429 14.9081 3.40596Z" fill="#FFFFFF"/>
<path d="M17.6164 8.6394H4.28304C3.82471 8.6394 3.44971 9.0144 3.44971 9.47274V14.6061C3.44971 17.1061 4.69971 18.7727 7.61637 18.7727H14.283C17.1997 18.7727 18.4497 17.1061 18.4497 14.6061V9.47274C18.4497 9.0144 18.0747 8.6394 17.6164 8.6394ZM8.62471 15.6144C8.58304 15.6477 8.54137 15.6894 8.49971 15.7144C8.44971 15.7477 8.39971 15.7727 8.34971 15.7894C8.29971 15.8144 8.24971 15.8311 8.19971 15.8394C8.14137 15.8477 8.09137 15.8561 8.03304 15.8561C7.92471 15.8561 7.81637 15.8311 7.71637 15.7894C7.60804 15.7477 7.52471 15.6894 7.44137 15.6144C7.29137 15.4561 7.19971 15.2394 7.19971 15.0227C7.19971 14.8061 7.29137 14.5894 7.44137 14.4311C7.52471 14.3561 7.60804 14.2977 7.71637 14.2561C7.86637 14.1894 8.03304 14.1727 8.19971 14.2061C8.24971 14.2144 8.29971 14.2311 8.34971 14.2561C8.39971 14.2727 8.44971 14.2977 8.49971 14.3311C8.54137 14.3644 8.58304 14.3977 8.62471 14.4311C8.77471 14.5894 8.86637 14.8061 8.86637 15.0227C8.86637 15.2394 8.77471 15.4561 8.62471 15.6144ZM8.62471 12.6977C8.46637 12.8477 8.24971 12.9394 8.03304 12.9394C7.81637 12.9394 7.59971 12.8477 7.44137 12.6977C7.29137 12.5394 7.19971 12.3227 7.19971 12.1061C7.19971 11.8894 7.29137 11.6727 7.44137 11.5144C7.67471 11.2811 8.04137 11.2061 8.34971 11.3394C8.45804 11.3811 8.54971 11.4394 8.62471 11.5144C8.77471 11.6727 8.86637 11.8894 8.86637 12.1061C8.86637 12.3227 8.77471 12.5394 8.62471 12.6977ZM11.5414 15.6144C11.383 15.7644 11.1664 15.8561 10.9497 15.8561C10.733 15.8561 10.5164 15.7644 10.358 15.6144C10.208 15.4561 10.1164 15.2394 10.1164 15.0227C10.1164 14.8061 10.208 14.5894 10.358 14.4311C10.6664 14.1227 11.233 14.1227 11.5414 14.4311C11.6914 14.5894 11.783 14.8061 11.783 15.0227C11.783 15.2394 11.6914 15.4561 11.5414 15.6144ZM11.5414 12.6977C11.4997 12.7311 11.458 12.7644 11.4164 12.7977C11.3664 12.8311 11.3164 12.8561 11.2664 12.8727C11.2164 12.8977 11.1664 12.9144 11.1164 12.9227C11.058 12.9311 11.008 12.9394 10.9497 12.9394C10.733 12.9394 10.5164 12.8477 10.358 12.6977C10.208 12.5394 10.1164 12.3227 10.1164 12.1061C10.1164 11.8894 10.208 11.6727 10.358 11.5144C10.433 11.4394 10.5247 11.3811 10.633 11.3394C10.9414 11.2061 11.308 11.2811 11.5414 11.5144C11.6914 11.6727 11.783 11.8894 11.783 12.1061C11.783 12.3227 11.6914 12.5394 11.5414 12.6977ZM14.458 15.6144C14.2997 15.7644 14.083 15.8561 13.8664 15.8561C13.6497 15.8561 13.433 15.7644 13.2747 15.6144C13.1247 15.4561 13.033 15.2394 13.033 15.0227C13.033 14.8061 13.1247 14.5894 13.2747 14.4311C13.583 14.1227 14.1497 14.1227 14.458 14.4311C14.608 14.5894 14.6997 14.8061 14.6997 15.0227C14.6997 15.2394 14.608 15.4561 14.458 15.6144ZM14.458 12.6977C14.4164 12.7311 14.3747 12.7644 14.333 12.7977C14.283 12.8311 14.233 12.8561 14.183 12.8727C14.133 12.8977 14.083 12.9144 14.033 12.9227C13.9747 12.9311 13.9164 12.9394 13.8664 12.9394C13.6497 12.9394 13.433 12.8477 13.2747 12.6977C13.1247 12.5394 13.033 12.3227 13.033 12.1061C13.033 11.8894 13.1247 11.6727 13.2747 11.5144C13.358 11.4394 13.4414 11.3811 13.5497 11.3394C13.6997 11.2727 13.8664 11.2561 14.033 11.2894C14.083 11.2977 14.133 11.3144 14.183 11.3394C14.233 11.3561 14.283 11.3811 14.333 11.4144C14.3747 11.4477 14.4164 11.4811 14.458 11.5144C14.608 11.6727 14.6997 11.8894 14.6997 12.1061C14.6997 12.3227 14.608 12.5394 14.458 12.6977Z" fill="#FFFFFF"/>
</svg>
