<svg width="126" height="135" viewBox="0 0 126 135" fill="none" xmlns="http://www.w3.org/2000/svg">
<path d="M107.009 72.7512C131.397 86.995 131.397 110.036 107.009 124.28C82.6905 138.524 43.2846 138.524 18.9659 124.28C-5.42173 110.036 -5.42173 86.995 18.9659 72.7512C43.2846 58.5074 82.6905 58.5074 107.009 72.7512Z" fill="#272727"/>
<path d="M79.5416 14.2108L44.2532 6.25151C42.1401 5.8289 40.3792 6.60369 39.5339 8.15329C40.4496 7.51936 41.647 7.30805 43.0557 7.66023L78.2738 15.5491C81.3025 16.2534 83.7678 19.1413 83.7678 22.0292L85.1765 101.974C85.1765 102.819 85.0356 103.594 84.6835 104.228C85.8104 103.453 86.5148 102.185 86.4444 100.636L85.0356 20.6909C85.0356 17.803 82.5704 14.8447 79.5416 14.2108Z" fill="#4B4B4D" fill-opacity="0.25098"/>
<path d="M40.5906 96.0561L45.1689 93.3795C45.1689 93.3795 46.2959 83.5889 45.5211 75.9818C44.4646 65.346 37.5618 52.4562 29.3913 55.4849C21.1502 58.5137 33.1244 69.3608 35.8009 78.4471C38.4775 87.4629 40.5906 96.0561 40.5906 96.0561Z" fill="#26DDBF"/>
<path d="M41.6128 96.0561L46.1912 93.3795C46.1912 93.3795 47.3181 83.5889 46.5433 75.9818C45.4868 65.346 38.5841 52.4562 30.4135 55.4849C22.1725 58.5137 34.1466 69.3608 36.8232 78.4471C39.4997 87.4629 41.6128 96.0561 41.6128 96.0561Z" fill="black" fill-opacity="0.14902"/>
<path d="M44.0073 94.9278C43.8664 94.9278 43.7255 94.787 43.7255 94.6461C44.5708 70.9091 32.7375 59.0054 32.5967 58.8646C32.5262 58.7941 32.5262 58.5828 32.5967 58.5124C32.7375 58.3715 32.8784 58.3715 33.0193 58.5124C33.0897 58.5828 45.0638 70.6978 44.289 94.6461C44.289 94.787 44.1482 94.9278 44.0073 94.9278Z" fill="white"/>
<path d="M39.1482 97.9574L42.3882 96.0557C42.3882 96.0557 42.9517 89.3642 39.6412 81.1232C36.8238 74.0092 29.6393 68.0925 26.0471 69.3604C22.5253 70.6282 22.5957 73.1639 24.3566 75.8405C26.0471 78.5171 36.7533 84.8563 39.1482 97.9574Z" fill="#26DDBF"/>
<path d="M40.8386 97.253C40.6977 97.253 40.6273 97.1121 40.6273 96.9713C40.6977 81.9684 26.6105 71.8256 26.4696 71.6847C26.3287 71.6143 26.2583 71.4734 26.3992 71.3325C26.4696 71.1917 26.6105 71.1916 26.7514 71.2621C26.8922 71.3325 41.1908 81.6866 41.1908 96.9713C41.1908 97.1121 41.0499 97.253 40.8386 97.253Z" fill="white"/>
<path d="M45.9427 100.002C41.0826 98.9454 37.1382 94.2262 37.0678 89.507L35.659 9.6325C35.5886 4.91328 39.3922 1.95497 44.2522 3.08194L79.5407 10.9708C84.3304 12.0273 88.2748 16.7465 88.3452 21.4658L89.7539 101.34C89.8244 106.059 86.0208 109.018 81.2312 107.961L45.9427 100.002Z" fill="#16161C"/>
<path d="M46.5067 102.608C41.4353 101.481 37.2796 96.48 37.2091 91.5495L35.73 7.30792C35.5891 2.30696 39.6744 -0.792229 44.7458 0.334748L81.936 8.71664C87.0074 9.84362 91.1632 14.8446 91.304 19.7751L92.7128 104.017C92.8536 108.947 88.7683 112.117 83.6969 110.919L46.5067 102.608Z" fill="#D0D0D0"/>
<path d="M45.8726 96.7625C42.8439 96.1286 40.3786 93.1702 40.3786 90.2824L38.9699 10.3374C38.8995 7.44955 41.2943 5.61821 44.2526 6.25214L79.5411 14.2114C82.5698 14.8453 85.0351 17.8037 85.0351 20.6915L86.4438 100.636C86.5142 103.524 84.1194 105.356 81.1611 104.722L45.8726 96.7625Z" fill="#F3F3F3"/>
<path d="M75.0329 12.5897L48.7603 6.6731L50.0281 9.56097C50.5916 10.8993 51.789 11.9558 53.1273 12.308L70.8772 16.2524C72.2155 16.5341 73.4129 16.0411 73.9059 14.9846L75.0329 12.5897Z" fill="#D0D0D0"/>
<path d="M78.7681 59.3698L46.3675 52.0444C44.6066 51.6923 43.1978 52.7488 43.2683 54.4393L43.4796 68.8082C43.55 70.4987 44.9587 72.1892 46.7196 72.6118L79.1202 79.8667C80.8811 80.2893 82.2899 79.2328 82.2194 77.4719L82.0081 63.1029C81.9377 61.4124 80.529 59.722 78.7681 59.3698Z" fill="#00AC9E"/>
<path d="M68.5526 64.9341L57.3533 62.4688C56.9307 62.3984 56.6489 62.6097 56.6489 62.9619C56.6489 63.3141 57.0011 63.7367 57.3533 63.8071L68.5526 66.2724C68.9048 66.4132 69.257 66.1315 69.1865 65.7793C69.1865 65.4271 68.9048 65.075 68.5526 64.9341Z" fill="white"/>
<path d="M72.0054 69.5827L53.4807 65.4269C53.1285 65.2861 52.8468 65.5678 52.8468 65.92C52.8468 66.2722 53.1285 66.6948 53.5512 66.7652L72.0758 70.921C72.428 70.9914 72.7802 70.7801 72.7098 70.3575C72.7098 70.0053 72.428 69.6531 72.0054 69.5827Z" fill="white"/>
<path d="M91.8175 23.3355L33.3978 10.1276C30.2228 9.49256 27.6829 11.3976 27.8099 14.4455L28.1909 40.3534C28.3179 43.4014 30.8578 46.5764 34.0328 47.2114L92.4525 60.2923C95.6275 61.0543 98.0405 59.1493 98.0405 56.1013L97.5325 30.1935C97.5325 27.0185 94.9925 23.9705 91.8175 23.3355Z" fill="#CC0000"/>
<path d="M71.0403 27.488L54.8424 23.9225C54.333 23.7187 53.9255 24.1262 53.9255 24.6356C53.9255 25.145 54.333 25.6543 54.9443 25.8581L71.1421 29.4236C71.6515 29.6274 72.059 29.2199 72.059 28.7105C72.059 28.2012 71.6515 27.5899 71.0403 27.488Z" fill="#1D384B"/>
<path d="M69.7595 46.0587L54.1574 42.5261C53.6667 42.428 53.1761 42.8205 53.2742 43.3111C53.2742 43.8018 53.6667 44.2924 54.2555 44.4887L69.8576 47.9231C70.3483 48.1194 70.7408 47.7268 70.7408 47.2362C70.7408 46.7456 70.2502 46.1568 69.7595 46.0587Z" fill="#1D384B"/>
<path d="M43.5947 31.3209L44.3495 29.8114C45.6075 30.5661 46.488 31.0693 46.9912 31.5725C46.9912 30.1888 46.9912 29.1824 46.9912 28.6792L48.7524 29.1824C48.6266 29.8114 48.5008 30.8177 48.2492 31.8241C49.1298 31.6983 50.0103 31.5725 51.1425 31.4467L51.5199 33.2079C50.5135 33.3337 49.5071 33.2079 48.5008 33.0821C48.8782 33.7111 49.5072 34.5916 50.2619 35.7238L48.7524 36.3528C48.375 35.598 47.8718 34.7174 47.3686 33.5853C46.6138 34.4658 46.1107 35.0948 45.6075 35.598L44.2237 34.2142C45.3559 33.4595 45.9849 32.8305 46.488 32.5789C45.4817 32.2015 44.4753 31.6983 43.5947 31.3209ZM53.1552 33.5853L53.91 32.2015C55.168 32.9563 56.0486 33.4595 56.5517 33.9626C56.5517 32.5789 56.5517 31.5725 56.5517 31.0693L58.3129 31.4467C58.1871 32.2015 58.0613 33.2079 57.8097 34.2142C58.6903 34.0884 59.5709 33.9626 60.703 33.8369L61.0804 35.598C60.074 35.598 59.0677 35.598 58.0613 35.4722C58.4387 35.9754 59.0677 36.856 59.8225 38.1139L58.3129 38.7429C57.9355 37.9881 57.4323 37.1076 56.9291 35.8496C56.1744 36.856 55.6712 37.4849 55.168 37.9881L53.7842 36.6044C54.9164 35.8496 55.6712 35.2206 56.0486 34.969C55.0422 34.5916 54.0358 34.0884 53.1552 33.5853ZM62.7158 35.9754L63.4705 34.5916C64.7285 35.3464 65.6091 35.8496 66.1123 36.3528C66.1123 34.969 66.1123 33.9626 66.2381 33.4595L67.8734 33.8369C67.8734 34.5916 67.6218 35.598 67.3702 36.6044C68.2508 36.4786 69.1314 36.3528 70.2635 36.227L70.6409 37.9881C69.6346 37.9881 68.6282 37.9881 67.6218 37.8623C67.9992 38.3655 68.6282 39.2461 69.383 40.5041L67.8734 41.133C67.496 40.3783 66.9928 39.4977 66.4897 38.2397C65.8607 39.2461 65.2317 39.8751 64.7285 40.3783L63.3447 38.9945C64.4769 38.1139 65.2317 37.6107 65.6091 37.3591C64.6027 36.9818 63.5963 36.4786 62.7158 35.9754ZM72.2763 38.3655L73.0311 36.9818C74.289 37.6107 75.1696 38.2397 75.6728 38.7429C75.6728 37.3591 75.6728 36.3528 75.7986 35.8496L77.5597 36.227C77.4339 36.9818 77.1823 37.8623 76.9307 38.9945C77.8113 38.8687 78.8177 38.6171 79.8241 38.6171L80.2015 40.3783C79.1951 40.3783 78.1887 40.3783 77.1823 40.2525C77.5597 40.7556 78.1887 41.6362 79.0693 42.8942L77.4339 43.5232C77.0565 42.7684 76.5534 41.8878 76.0502 40.6299C75.4212 41.5104 74.7922 42.2652 74.289 42.7684L72.9053 41.3846C74.0374 40.5041 74.7922 40.0009 75.1696 39.7493C74.1632 39.2461 73.1569 38.8687 72.2763 38.3655Z" fill="#FEFEFE"/>
<path d="M79.1897 81.7353L46.7891 74.4804C45.0282 74.0578 43.6899 75.1143 43.6899 76.8752L43.9717 91.2442C43.9717 92.9347 45.4508 94.6251 47.1413 95.0477L79.5419 102.303C81.3028 102.655 82.7115 101.598 82.6411 99.9078L82.4298 85.5389C82.3593 83.8484 80.9506 82.1579 79.1897 81.7353Z" fill="#00AC9E"/>
<path d="M68.9065 85.5395L57.7072 83.0038C57.355 82.9334 57.0732 83.1447 57.0732 83.5673C57.0732 83.9195 57.355 84.2717 57.7776 84.3421L68.9769 86.8778C69.3291 86.9482 69.6109 86.7369 69.6109 86.3848C69.6109 85.9621 69.3291 85.61 68.9065 85.5395Z" fill="white"/>
<path d="M69.0477 93.0058L57.8484 90.4701C57.4962 90.3997 57.2145 90.6814 57.2145 91.0336C57.2145 91.3858 57.4962 91.7379 57.9188 91.8788L69.1182 94.3441C69.4704 94.4145 69.7521 94.2032 69.7521 93.851C69.7521 93.4988 69.4703 93.0762 69.0477 93.0058Z" fill="white"/>
<path d="M72.4281 90.1182L53.9034 85.9625C53.5512 85.892 53.199 86.1033 53.2694 86.4555C53.2694 86.8781 53.5512 87.2303 53.9034 87.3008L72.4985 91.4565C72.8507 91.5269 73.1324 91.3156 73.1324 90.9634C73.1324 90.6113 72.8507 90.1886 72.4281 90.1182Z" fill="white"/>
</svg>
