<svg width="40" height="22" viewBox="0 0 40 22" fill="none" xmlns="http://www.w3.org/2000/svg">
<path d="M25.1211 2.63281H14.6719V19.6434H25.1211V2.63281Z" fill="#FF5F00"/>
<path d="M15.3339 11.1378C15.3339 7.6816 17.1252 4.61609 19.8785 2.63252C17.855 1.18993 15.3007 0.318359 12.5142 0.318359C5.91298 0.318359 0.572266 5.15706 0.572266 11.1378C0.572266 17.1186 5.91298 21.9573 12.5142 21.9573C15.3007 21.9573 17.855 21.0857 19.8785 19.6431C17.1252 17.6896 15.3339 14.594 15.3339 11.1378Z" fill="#EB001B"/>
<path d="M39.2164 11.1378C39.2164 17.1186 33.8756 21.9573 27.2744 21.9573C24.4879 21.9573 21.9337 21.0857 19.9102 19.6431C22.6966 17.6596 24.4547 14.594 24.4547 11.1378C24.4547 7.6816 22.6634 4.61609 19.9102 2.63252C21.9337 1.18993 24.4879 0.318359 27.2744 0.318359C33.8756 0.318359 39.2164 5.18712 39.2164 11.1378Z" fill="#F79E1B"/>
</svg>
