<svg width="368" height="201" viewBox="0 0 368 201" fill="none" xmlns="http://www.w3.org/2000/svg">
    <rect x="1.43365" y="1.01465" width="365.133" height="198" rx="14" fill="#141414" stroke="#CC0000" stroke-width="2"/>
    <mask id="mask0_2753_16532" style="mask-type:alpha" maskUnits="userSpaceOnUse" x="0" y="1" width="368" height="200">
        <rect x="0.433594" y="1.91309" width="367.133" height="198.102" rx="15" fill="#141414"/>
    </mask>
    <g mask="url(#mask0_2753_16532)">
        <ellipse cx="44.231" cy="41.5847" rx="91.4615" ry="90.613" fill="white" fill-opacity="0.05"/>
        <ellipse cx="250.626" cy="175.026" rx="114.933" ry="116.76" fill="white" fill-opacity="0.06"/>
    </g>
    <path d="M44.3047 26.1465H33.8555V43.1571H44.3047V26.1465Z" fill="#FF5F00"/>
    <path d="M34.5175 34.6515C34.5175 31.1953 36.3088 28.1298 39.0621 26.1462C37.0386 24.7036 34.4843 23.832 31.6978 23.832C25.0966 23.832 19.7559 28.6707 19.7559 34.6515C19.7559 40.6323 25.0966 45.471 31.6978 45.471C34.4843 45.471 37.0386 44.5994 39.0621 43.1568C36.3088 41.2033 34.5175 38.1077 34.5175 34.6515Z" fill="#EB001B"/>
    <path d="M58.4 34.6515C58.4 40.6323 53.0592 45.471 46.458 45.471C43.6715 45.471 41.1173 44.5994 39.0938 43.1568C41.8802 41.1732 43.6383 38.1077 43.6383 34.6515C43.6383 31.1953 41.847 28.1298 39.0938 26.1462C41.1173 24.7036 43.6715 23.832 46.458 23.832C53.0592 23.832 58.4 28.7008 58.4 34.6515Z" fill="#F79E1B"/>
<!--    <circle cx="338.611" cy="23.832" r="8.38669" stroke="#CC0000" fill="none"/>-->
<!--    <line x1="334.111" y1="19.332" x2="343.111" y2="28.332" stroke="#CC0000" stroke-width="2"/>-->
<!--    <line x1="343.111" y1="19.332" x2="334.111" y2="28.332" stroke="#CC0000" stroke-width="2"/>-->
</svg>
