<svg width="18" height="18" viewBox="0 0 18 18" fill="none" xmlns="http://www.w3.org/2000/svg">
<path fill-rule="evenodd" clip-rule="evenodd" d="M9.00031 10.5909L12.9776 14.5682C13.1886 14.7792 13.4748 14.8978 13.7733 14.8978C14.0718 14.8978 14.358 14.7792 14.5691 14.5682C14.7801 14.3571 14.8987 14.0709 14.8987 13.7724C14.8987 13.474 14.7801 13.1877 14.5691 12.9767L10.5903 8.99943L14.5683 5.02218C14.6728 4.91768 14.7556 4.79363 14.8121 4.65711C14.8686 4.5206 14.8977 4.37429 14.8977 4.22654C14.8976 4.07879 14.8685 3.93249 14.8119 3.796C14.7553 3.65951 14.6724 3.5355 14.5679 3.43105C14.4634 3.3266 14.3394 3.24376 14.2029 3.18725C14.0664 3.13074 13.92 3.10167 13.7723 3.10171C13.6245 3.10174 13.4783 3.13088 13.3418 3.18745C13.2053 3.24402 13.0813 3.32693 12.9768 3.43143L9.00031 7.40868L5.02306 3.43143C4.91934 3.32393 4.79524 3.23817 4.65801 3.17914C4.52079 3.12012 4.37318 3.08902 4.2238 3.08765C4.07443 3.08628 3.92628 3.11467 3.78799 3.17118C3.64971 3.22768 3.52406 3.31115 3.41838 3.41673C3.3127 3.52231 3.22911 3.64788 3.17248 3.78611C3.11585 3.92434 3.08731 4.07247 3.08854 4.22184C3.08977 4.37122 3.12073 4.51886 3.17962 4.65614C3.23852 4.79342 3.32416 4.9176 3.43156 5.02143L7.41031 8.99943L3.43231 12.9774C3.32491 13.0813 3.23927 13.2054 3.18037 13.3427C3.12148 13.48 3.09052 13.6276 3.08929 13.777C3.08806 13.9264 3.1166 14.0745 3.17323 14.2127C3.22986 14.351 3.31345 14.4765 3.41913 14.5821C3.52481 14.6877 3.65046 14.7712 3.78874 14.8277C3.92703 14.8842 4.07518 14.9126 4.22455 14.9112C4.37393 14.9098 4.52154 14.8787 4.65876 14.8197C4.79599 14.7607 4.92009 14.6749 5.02381 14.5674L9.00031 10.5909Z" fill="#CC0000"/>
</svg>
