<svg width="388" height="100" viewBox="0 0 388 100" fill="none" xmlns="http://www.w3.org/2000/svg">
<rect x="0.75" y="0.75" width="386.5" height="98.5" rx="11.25" fill="#141414"/>
<rect x="0.75" y="0.75" width="386.5" height="98.5" rx="11.25" stroke="url(#paint0_linear_7527_6029)" stroke-width="1.5"/>
<path d="M69.809 17.9995C65.9945 17.9995 62.3363 19.5148 59.639 22.212C56.9418 24.9093 55.4265 28.5675 55.4265 32.382C55.4265 36.1965 56.9418 39.8547 59.639 42.5519C62.3363 45.2492 65.9945 46.7645 69.809 46.7645C73.6234 46.7645 77.2817 45.2492 79.9789 42.5519C82.6761 39.8547 84.1914 36.1965 84.1914 32.382C84.1914 28.5675 82.6761 24.9093 79.9789 22.212C77.2817 19.5148 73.6234 17.9995 69.809 17.9995ZM71.2394 53.7885C72.049 52.6141 71.2714 50.8221 69.8474 50.8221H66.0169C60.3409 50.8221 54.8972 53.0769 50.8836 57.0905C46.8701 61.1041 44.6152 66.5477 44.6152 72.2238C44.6152 74.5407 45.5356 76.7628 47.174 78.4011C48.8123 80.0394 51.0343 80.9598 53.3513 80.9598H70.0554C71.5018 80.9598 72.2762 79.123 71.4378 77.9486C68.8914 74.3818 67.5262 70.107 67.5337 65.7245C67.5337 61.2957 68.9034 57.1805 71.2394 53.7885Z" fill="white"/>
<path fill-rule="evenodd" clip-rule="evenodd" d="M104.878 65.7277C104.878 70.0433 103.163 74.1821 100.112 77.2337C97.0601 80.2854 92.9212 81.9997 88.6056 81.9997C84.29 81.9997 80.1511 80.2854 77.0995 77.2337C74.0479 74.1821 72.3335 70.0433 72.3335 65.7277C72.3335 61.412 74.0479 57.2732 77.0995 54.2215C80.1511 51.1699 84.29 49.4556 88.6056 49.4556C92.9212 49.4556 97.0601 51.1699 100.112 54.2215C103.163 57.2732 104.878 61.412 104.878 65.7277ZM97.9208 59.542C98.1582 59.7497 98.3523 60.0022 98.4921 60.2849C98.6318 60.5677 98.7145 60.8753 98.7353 61.19C98.7561 61.5047 98.7146 61.8205 98.6133 62.1192C98.512 62.4179 98.3528 62.6937 98.1448 62.9308L89.9208 72.3165C89.5585 72.7294 89.115 73.0633 88.618 73.2974C88.121 73.5314 87.5811 73.6606 87.032 73.6768C86.4829 73.693 85.9363 73.5959 85.4263 73.3916C84.9164 73.1873 84.454 72.8801 84.068 72.4893L79.4503 67.8173C79.2287 67.5929 79.0534 67.327 78.9344 67.0348C78.8155 66.7427 78.7553 66.43 78.7572 66.1145C78.7592 65.7991 78.8232 65.4872 78.9457 65.1965C79.0682 64.9058 79.2467 64.6421 79.4711 64.4204C79.6955 64.1988 79.9614 64.0235 80.2536 63.9045C80.5457 63.7856 80.8584 63.7254 81.1738 63.7273C81.4893 63.7293 81.8012 63.7933 82.0919 63.9158C82.3826 64.0383 82.6463 64.2168 82.8679 64.4412L85.6712 67.2829C85.8257 67.4393 86.0108 67.5623 86.2149 67.644C86.4191 67.7257 86.6379 67.7645 86.8577 67.7579C87.0775 67.7513 87.2936 67.6995 87.4925 67.6056C87.6913 67.5118 87.8687 67.3779 88.0136 67.2125L94.532 59.7692C94.7397 59.5318 94.9922 59.3377 95.2749 59.198C95.5577 59.0582 95.8652 58.9756 96.18 58.9548C96.4947 58.934 96.8105 58.9754 97.1092 59.0767C97.4079 59.178 97.6837 59.334 97.9208 59.542Z" fill="#CC0000"/>
<path d="M146.845 55.168V52.968H149.771V54.816C149.771 56.752 148.862 57.72 147.043 57.72H144.271C142.453 57.72 141.543 56.752 141.543 54.816V45.95C141.543 44.014 142.453 43.046 144.271 43.046H147.043C148.862 43.046 149.771 44.014 149.771 45.95V47.292H146.845V45.576C146.845 45.4587 146.801 45.356 146.713 45.268C146.64 45.18 146.545 45.136 146.427 45.136H145.041C144.924 45.136 144.821 45.18 144.733 45.268C144.66 45.356 144.623 45.4587 144.623 45.576V55.168C144.623 55.2853 144.66 55.388 144.733 55.476C144.821 55.564 144.924 55.608 145.041 55.608H146.427C146.545 55.608 146.64 55.564 146.713 55.476C146.801 55.388 146.845 55.2853 146.845 55.168ZM156.504 46.764H159.452V57.5H156.768V56.95C156.313 57.4633 155.624 57.72 154.7 57.72H154.238C152.419 57.72 151.51 56.752 151.51 54.816V46.764H154.458V55.168C154.458 55.2853 154.494 55.388 154.568 55.476C154.656 55.564 154.758 55.608 154.876 55.608H156.086C156.203 55.608 156.298 55.564 156.372 55.476C156.46 55.388 156.504 55.2853 156.504 55.168V46.764ZM166.517 50.768C168.335 50.768 169.245 51.736 169.245 53.672V54.816C169.245 56.752 168.335 57.72 166.517 57.72H164.075C162.256 57.72 161.347 56.752 161.347 54.816V54.134H164.075V55.102C164.075 55.2193 164.111 55.322 164.185 55.41C164.273 55.498 164.375 55.542 164.493 55.542H166.297C166.414 55.542 166.509 55.498 166.583 55.41C166.671 55.322 166.715 55.2193 166.715 55.102V53.782C166.715 53.6647 166.671 53.562 166.583 53.474C166.509 53.386 166.414 53.342 166.297 53.342H164.031C162.212 53.342 161.303 52.374 161.303 50.438V49.448C161.303 47.512 162.212 46.544 164.031 46.544H166.341C168.159 46.544 169.069 47.512 169.069 49.448V49.844H166.341V49.162C166.341 49.0447 166.297 48.942 166.209 48.854C166.135 48.766 166.04 48.722 165.923 48.722H164.251C164.133 48.722 164.031 48.766 163.943 48.854C163.869 48.942 163.833 49.0447 163.833 49.162V50.328C163.833 50.4453 163.869 50.548 163.943 50.636C164.031 50.724 164.133 50.768 164.251 50.768H166.517ZM174.89 55.806H175.77V57.72H173.702C171.884 57.72 170.974 56.752 170.974 54.816V44.432H173.922V46.764H175.77V48.898H173.922V54.75C173.922 55.1607 174.003 55.4393 174.164 55.586C174.326 55.7327 174.568 55.806 174.89 55.806ZM185.254 49.448V54.816C185.254 56.752 184.345 57.72 182.526 57.72H180.04C178.222 57.72 177.312 56.752 177.312 54.816V49.448C177.312 47.512 178.222 46.544 180.04 46.544H182.526C184.345 46.544 185.254 47.512 185.254 49.448ZM182.306 55.432V48.81C182.306 48.6927 182.262 48.59 182.174 48.502C182.101 48.414 182.006 48.37 181.888 48.37H180.678C180.561 48.37 180.458 48.414 180.37 48.502C180.297 48.59 180.26 48.6927 180.26 48.81V55.432C180.26 55.5493 180.297 55.652 180.37 55.74C180.458 55.828 180.561 55.872 180.678 55.872H181.888C182.006 55.872 182.101 55.828 182.174 55.74C182.262 55.652 182.306 55.5493 182.306 55.432ZM196.94 46.544C198.758 46.544 199.668 47.512 199.668 49.448V57.5H196.72V49.096C196.72 48.9787 196.676 48.876 196.588 48.788C196.514 48.7 196.419 48.656 196.302 48.656H195.356C195.238 48.656 195.136 48.7 195.048 48.788C194.974 48.876 194.938 48.9787 194.938 49.096V57.5H191.99V49.096C191.99 48.9787 191.946 48.876 191.858 48.788C191.784 48.7 191.689 48.656 191.572 48.656H190.626C190.508 48.656 190.406 48.7 190.318 48.788C190.244 48.876 190.208 48.9787 190.208 49.096V57.5H187.26V46.764H189.944V47.314C190.398 46.8007 191.088 46.544 192.012 46.544H192.21C193.295 46.544 194.05 46.8813 194.476 47.556C194.93 46.8813 195.686 46.544 196.742 46.544H196.94ZM207.018 46.544C208.837 46.544 209.746 47.512 209.746 49.448V52.924H204.752V55.168C204.752 55.2853 204.789 55.388 204.862 55.476C204.95 55.564 205.053 55.608 205.17 55.608H206.38C206.498 55.608 206.593 55.564 206.666 55.476C206.754 55.388 206.798 55.2853 206.798 55.168V53.98H209.746V54.816C209.746 56.752 208.837 57.72 207.018 57.72H204.532C202.714 57.72 201.804 56.752 201.804 54.816V49.448C201.804 47.512 202.714 46.544 204.532 46.544H207.018ZM204.752 50.988H206.798V49.008C206.798 48.8907 206.754 48.788 206.666 48.7C206.593 48.612 206.498 48.568 206.38 48.568H205.17C205.053 48.568 204.95 48.612 204.862 48.7C204.789 48.788 204.752 48.8907 204.752 49.008V50.988ZM215.941 46.544H216.513V49.404H215.061C214.562 49.404 214.313 49.6607 214.313 50.174V57.5H211.365V46.764H214.049V47.798C214.474 46.962 215.105 46.544 215.941 46.544ZM225.227 57.5H222.279V43.266H225.227V47.072C225.667 46.72 226.268 46.544 227.031 46.544H227.493C229.312 46.544 230.221 47.512 230.221 49.448V57.5H227.273V49.096C227.273 48.9787 227.229 48.876 227.141 48.788C227.068 48.7 226.972 48.656 226.855 48.656H225.645C225.396 48.656 225.256 48.788 225.227 49.052V57.5ZM237.682 46.764H240.168V57.5H237.682V56.708C237.228 57.3827 236.472 57.72 235.416 57.72H234.954C233.136 57.72 232.226 56.752 232.226 54.816V49.448C232.226 47.512 233.136 46.544 234.954 46.544H235.416C236.472 46.544 237.228 46.8813 237.682 47.556V46.764ZM237.22 55.168V49.096C237.22 48.9787 237.176 48.876 237.088 48.788C237.015 48.7 236.92 48.656 236.802 48.656H235.592C235.475 48.656 235.372 48.7 235.284 48.788C235.211 48.876 235.174 48.9787 235.174 49.096V55.168C235.174 55.2853 235.211 55.388 235.284 55.476C235.372 55.564 235.475 55.608 235.592 55.608H236.802C236.92 55.608 237.015 55.564 237.088 55.476C237.176 55.388 237.22 55.2853 237.22 55.168ZM247.234 50.768C249.052 50.768 249.962 51.736 249.962 53.672V54.816C249.962 56.752 249.052 57.72 247.234 57.72H244.792C242.973 57.72 242.064 56.752 242.064 54.816V54.134H244.792V55.102C244.792 55.2193 244.828 55.322 244.902 55.41C244.99 55.498 245.092 55.542 245.21 55.542H247.014C247.131 55.542 247.226 55.498 247.3 55.41C247.388 55.322 247.432 55.2193 247.432 55.102V53.782C247.432 53.6647 247.388 53.562 247.3 53.474C247.226 53.386 247.131 53.342 247.014 53.342H244.748C242.929 53.342 242.02 52.374 242.02 50.438V49.448C242.02 47.512 242.929 46.544 244.748 46.544H247.058C248.876 46.544 249.786 47.512 249.786 49.448V49.844H247.058V49.162C247.058 49.0447 247.014 48.942 246.926 48.854C246.852 48.766 246.757 48.722 246.64 48.722H244.968C244.85 48.722 244.748 48.766 244.66 48.854C244.586 48.942 244.55 49.0447 244.55 49.162V50.328C244.55 50.4453 244.586 50.548 244.66 50.636C244.748 50.724 244.85 50.768 244.968 50.768H247.234ZM261.594 46.764H264.08V57.5H261.594V56.708C261.14 57.3827 260.384 57.72 259.328 57.72H258.866C257.048 57.72 256.138 56.752 256.138 54.816V49.448C256.138 47.512 257.048 46.544 258.866 46.544H259.328C260.384 46.544 261.14 46.8813 261.594 47.556V46.764ZM261.132 55.168V49.096C261.132 48.9787 261.088 48.876 261 48.788C260.927 48.7 260.832 48.656 260.714 48.656H259.504C259.387 48.656 259.284 48.7 259.196 48.788C259.123 48.876 259.086 48.9787 259.086 49.096V55.168C259.086 55.2853 259.123 55.388 259.196 55.476C259.284 55.564 259.387 55.608 259.504 55.608H260.714C260.832 55.608 260.927 55.564 261 55.476C261.088 55.388 261.132 55.2853 261.132 55.168ZM269.034 57.5H266.086V46.764H268.77V47.314C269.224 46.8007 269.914 46.544 270.838 46.544H271.3C273.118 46.544 274.028 47.512 274.028 49.448V57.5H271.08V49.096C271.08 48.9787 271.036 48.876 270.948 48.788C270.874 48.7 270.779 48.656 270.662 48.656H269.452C269.334 48.656 269.232 48.7 269.144 48.788C269.07 48.876 269.034 48.9787 269.034 49.096V57.5ZM285.936 46.764H288.422V57.5H285.936V56.708C285.482 57.3827 284.726 57.72 283.67 57.72H283.208C281.39 57.72 280.48 56.752 280.48 54.816V49.448C280.48 47.512 281.39 46.544 283.208 46.544H283.67C284.726 46.544 285.482 46.8813 285.936 47.556V46.764ZM285.474 55.168V49.096C285.474 48.9787 285.43 48.876 285.342 48.788C285.269 48.7 285.174 48.656 285.056 48.656H283.846C283.729 48.656 283.626 48.7 283.538 48.788C283.465 48.876 283.428 48.9787 283.428 49.096V55.168C283.428 55.2853 283.465 55.388 283.538 55.476C283.626 55.564 283.729 55.608 283.846 55.608H285.056C285.174 55.608 285.269 55.564 285.342 55.476C285.43 55.388 285.474 55.2853 285.474 55.168ZM298.37 50.988H295.422V49.096C295.422 48.9787 295.378 48.876 295.29 48.788C295.216 48.7 295.121 48.656 295.004 48.656H293.794C293.676 48.656 293.574 48.7 293.486 48.788C293.412 48.876 293.376 48.9787 293.376 49.096V55.168C293.376 55.2853 293.412 55.388 293.486 55.476C293.574 55.564 293.676 55.608 293.794 55.608H295.004C295.121 55.608 295.216 55.564 295.29 55.476C295.378 55.388 295.422 55.2853 295.422 55.168V53.276H298.37V54.816C298.37 56.752 297.46 57.72 295.642 57.72H293.156C291.337 57.72 290.428 56.752 290.428 54.816V49.448C290.428 47.512 291.337 46.544 293.156 46.544H295.642C297.46 46.544 298.37 47.512 298.37 49.448V50.988ZM308.188 50.988H305.24V49.096C305.24 48.9787 305.196 48.876 305.108 48.788C305.035 48.7 304.939 48.656 304.822 48.656H303.612C303.495 48.656 303.392 48.7 303.304 48.788C303.231 48.876 303.194 48.9787 303.194 49.096V55.168C303.194 55.2853 303.231 55.388 303.304 55.476C303.392 55.564 303.495 55.608 303.612 55.608H304.822C304.939 55.608 305.035 55.564 305.108 55.476C305.196 55.388 305.24 55.2853 305.24 55.168V53.276H308.188V54.816C308.188 56.752 307.279 57.72 305.46 57.72H302.974C301.155 57.72 300.246 56.752 300.246 54.816V49.448C300.246 47.512 301.155 46.544 302.974 46.544H305.46C307.279 46.544 308.188 47.512 308.188 49.448V50.988ZM318.006 49.448V54.816C318.006 56.752 317.097 57.72 315.278 57.72H312.792C310.974 57.72 310.064 56.752 310.064 54.816V49.448C310.064 47.512 310.974 46.544 312.792 46.544H315.278C317.097 46.544 318.006 47.512 318.006 49.448ZM315.058 55.432V48.81C315.058 48.6927 315.014 48.59 314.926 48.502C314.853 48.414 314.758 48.37 314.64 48.37H313.43C313.313 48.37 313.21 48.414 313.122 48.502C313.049 48.59 313.012 48.6927 313.012 48.81V55.432C313.012 55.5493 313.049 55.652 313.122 55.74C313.21 55.828 313.313 55.872 313.43 55.872H314.64C314.758 55.872 314.853 55.828 314.926 55.74C315.014 55.652 315.058 55.5493 315.058 55.432ZM325.005 46.764H327.953V57.5H325.269V56.95C324.815 57.4633 324.125 57.72 323.201 57.72H322.739C320.921 57.72 320.011 56.752 320.011 54.816V46.764H322.959V55.168C322.959 55.2853 322.996 55.388 323.069 55.476C323.157 55.564 323.26 55.608 323.377 55.608H324.587C324.705 55.608 324.8 55.564 324.873 55.476C324.961 55.388 325.005 55.2853 325.005 55.168V46.764ZM332.907 57.5H329.959V46.764H332.643V47.314C333.097 46.8007 333.787 46.544 334.711 46.544H335.173C336.991 46.544 337.901 47.512 337.901 49.448V57.5H334.953V49.096C334.953 48.9787 334.909 48.876 334.821 48.788C334.747 48.7 334.652 48.656 334.535 48.656H333.325C333.207 48.656 333.105 48.7 333.017 48.788C332.943 48.876 332.907 48.9787 332.907 49.096V57.5ZM343.822 55.806H344.702V57.72H342.634C340.815 57.72 339.906 56.752 339.906 54.816V44.432H342.854V46.764H344.702V48.898H342.854V54.75C342.854 55.1607 342.935 55.4393 343.096 55.586C343.257 55.7327 343.499 55.806 343.822 55.806ZM350.908 51.67C350.791 51.67 350.688 51.714 350.6 51.802C350.527 51.89 350.49 51.9927 350.49 52.11V53.32H347.916V52.066C347.916 50.13 348.825 49.162 350.644 49.162H350.754C350.871 49.162 350.967 49.118 351.04 49.03C351.128 48.942 351.172 48.8393 351.172 48.722V46.104C351.172 45.9867 351.128 45.884 351.04 45.796C350.967 45.708 350.871 45.664 350.754 45.664H349.082C348.965 45.664 348.862 45.708 348.774 45.796C348.701 45.884 348.664 45.9867 348.664 46.104V47.226H345.936V46.17C345.936 44.234 346.845 43.266 348.664 43.266H351.106C352.925 43.266 353.834 44.234 353.834 46.17V48.766C353.834 50.702 352.925 51.67 351.106 51.67H350.908ZM347.674 56.136C347.674 55.696 347.828 55.322 348.136 55.014C348.444 54.706 348.818 54.552 349.258 54.552C349.698 54.552 350.072 54.706 350.38 55.014C350.688 55.322 350.842 55.696 350.842 56.136C350.842 56.576 350.688 56.95 350.38 57.258C350.072 57.566 349.698 57.72 349.258 57.72C348.818 57.72 348.444 57.566 348.136 57.258C347.828 56.95 347.674 56.576 347.674 56.136Z" fill="white"/>
<defs>
<linearGradient id="paint0_linear_7527_6029" x1="178" y1="-77.4419" x2="182.038" y2="104.794" gradientUnits="userSpaceOnUse">
<stop stop-color="#606060"/>
<stop offset="1" stop-color="white" stop-opacity="0.3"/>
</linearGradient>
</defs>
</svg>
