<svg width="26" height="27" viewBox="0 0 26 27" fill="none" xmlns="http://www.w3.org/2000/svg">
<rect x="0.476074" y="0.658936" width="25.5081" height="25.5081" rx="3" fill="#CC0000"/>
<path d="M13.23 16.4294C13.9441 16.4294 14.5229 15.8506 14.5229 15.1365C14.5229 14.4225 13.9441 13.8436 13.23 13.8436C12.516 13.8436 11.9371 14.4225 11.9371 15.1365C11.9371 15.8506 12.516 16.4294 13.23 16.4294Z" fill="white"/>
<path d="M19.2635 9.10309H16.6778V7.81021C16.6778 7.23871 16.4508 6.69063 16.0466 6.28652C15.6425 5.88242 15.0945 5.6554 14.523 5.6554H11.9372C11.3657 5.6554 10.8176 5.88242 10.4135 6.28652C10.0094 6.69063 9.78238 7.23871 9.78238 7.81021V9.10309H7.19661C6.51082 9.10309 5.85312 9.37552 5.3682 9.86045C4.88327 10.3454 4.61084 11.0031 4.61084 11.6889V18.5843C4.61084 19.27 4.88327 19.9277 5.3682 20.4127C5.85312 20.8976 6.51082 21.17 7.19661 21.17H19.2635C19.9493 21.17 20.607 20.8976 21.092 20.4127C21.5769 19.9277 21.8493 19.27 21.8493 18.5843V11.6889C21.8493 11.0031 21.5769 10.3454 21.092 9.86045C20.607 9.37552 19.9493 9.10309 19.2635 9.10309ZM11.5062 7.81021C11.5062 7.69591 11.5516 7.58629 11.6325 7.50547C11.7133 7.42465 11.8229 7.37924 11.9372 7.37924H14.523C14.6373 7.37924 14.7469 7.42465 14.8277 7.50547C14.9085 7.58629 14.9539 7.69591 14.9539 7.81021V9.10309H11.5062V7.81021ZM13.2301 18.1533C12.6334 18.1533 12.0502 17.9764 11.5541 17.6449C11.058 17.3134 10.6713 16.8422 10.443 16.291C10.2147 15.7398 10.1549 15.1332 10.2713 14.548C10.3877 13.9628 10.675 13.4253 11.0969 13.0034C11.5188 12.5815 12.0564 12.2942 12.6415 12.1778C13.2267 12.0614 13.8333 12.1211 14.3845 12.3495C14.9358 12.5778 15.4069 12.9645 15.7384 13.4606C16.0699 13.9567 16.2468 14.5399 16.2468 15.1366C16.2468 15.9366 15.929 16.704 15.3632 17.2697C14.7975 17.8355 14.0302 18.1533 13.2301 18.1533Z" fill="white"/>
</svg>
