<svg width="26" height="26" viewBox="0 0 26 26" fill="none" xmlns="http://www.w3.org/2000/svg">
<path d="M23.5742 17.245L16.6408 4.76504C15.7092 3.08587 14.42 2.16504 13.0008 2.16504C11.5817 2.16504 10.2925 3.08587 9.36083 4.76504L2.4275 17.245C1.55 18.8375 1.4525 20.365 2.15666 21.5675C2.86083 22.77 4.2475 23.4309 6.0675 23.4309H19.9342C21.7542 23.4309 23.1408 22.77 23.845 21.5675C24.5492 20.365 24.4517 18.8267 23.5742 17.245ZM12.1883 9.74837C12.1883 9.30421 12.5567 8.93587 13.0008 8.93587C13.445 8.93587 13.8133 9.30421 13.8133 9.74837V15.165C13.8133 15.6092 13.445 15.9775 13.0008 15.9775C12.5567 15.9775 12.1883 15.6092 12.1883 15.165V9.74837ZM13.77 19.1842C13.7158 19.2275 13.6617 19.2709 13.6075 19.3142C13.5425 19.3575 13.4775 19.39 13.4125 19.4117C13.3475 19.4442 13.2825 19.4659 13.2067 19.4767C13.1417 19.4875 13.0658 19.4984 13.0008 19.4984C12.9358 19.4984 12.86 19.4875 12.7842 19.4767C12.7192 19.4659 12.6542 19.4442 12.5892 19.4117C12.5242 19.39 12.4592 19.3575 12.3942 19.3142C12.34 19.2709 12.2858 19.2275 12.2317 19.1842C12.0367 18.9784 11.9175 18.6967 11.9175 18.415C11.9175 18.1334 12.0367 17.8517 12.2317 17.6459C12.2858 17.6025 12.34 17.5592 12.3942 17.5159C12.4592 17.4725 12.5242 17.44 12.5892 17.4184C12.6542 17.3859 12.7192 17.3642 12.7842 17.3534C12.925 17.3209 13.0767 17.3209 13.2067 17.3534C13.2825 17.3642 13.3475 17.3859 13.4125 17.4184C13.4775 17.44 13.5425 17.4725 13.6075 17.5159C13.6617 17.5592 13.7158 17.6025 13.77 17.6459C13.965 17.8517 14.0842 18.1334 14.0842 18.415C14.0842 18.6967 13.965 18.9784 13.77 19.1842Z" fill="#CC0000"/>
</svg>
