<svg width="14" height="16" viewBox="0 0 14 16" fill="none" xmlns="http://www.w3.org/2000/svg">
<path d="M0.0649414 14.5332C0.0649414 14.7066 0.133742 14.8728 0.25636 14.9953C0.378869 15.1178 0.545032 15.1867 0.71828 15.1867H13.1327C13.3661 15.1867 13.5818 15.0621 13.6985 14.86C13.8152 14.6578 13.8152 14.4088 13.6985 14.2066C13.5818 14.0045 13.3661 13.8799 13.1327 13.8799H0.71828C0.545018 13.8799 0.378869 13.9487 0.25636 14.0713C0.133742 14.1938 0.0649414 14.36 0.0649414 14.5332V14.5332Z" fill="white"/>
<path d="M6.92516 0.813477C6.7519 0.813477 6.58564 0.882387 6.46313 1.0049C6.34062 1.1274 6.27182 1.29357 6.27182 1.46693V10.5006L2.7769 7.50499C2.64651 7.38456 2.47271 7.32232 2.2954 7.3326C2.1182 7.343 1.95283 7.42503 1.83732 7.5599C1.72181 7.69477 1.66613 7.87086 1.6832 8.04753C1.70026 8.22429 1.78843 8.38649 1.92756 8.49688L6.50112 12.4172C6.53612 12.4425 6.57364 12.4644 6.61291 12.4825C6.63632 12.4982 6.66071 12.5124 6.68609 12.5249C6.83966 12.5903 7.01337 12.5903 7.16694 12.5249C7.19231 12.5124 7.21671 12.4982 7.24011 12.4825C7.27938 12.4644 7.31679 12.4425 7.3519 12.4172L11.9255 8.49688C12.0926 8.34243 12.1674 8.11219 12.1228 7.88893C12.0782 7.66578 11.9208 7.48192 11.707 7.40348C11.4934 7.32516 11.2544 7.36356 11.0761 7.50499L7.57838 10.5006V1.46693C7.57838 1.29356 7.50958 1.1274 7.38707 1.0049C7.26456 0.882387 7.09832 0.813477 6.92504 0.813477H6.92516Z" fill="white"/>
</svg>
