<svg width="18" height="21" viewBox="0 0 18 21" fill="none" xmlns="http://www.w3.org/2000/svg">
<path fill-rule="evenodd" clip-rule="evenodd" d="M11.28 0.5C11.6998 0.500109 12.1088 0.632286 12.4493 0.877808C12.7898 1.12333 13.0444 1.46975 13.177 1.868L13.72 3.5H17C17.2652 3.5 17.5196 3.60536 17.7071 3.79289C17.8946 3.98043 18 4.23478 18 4.5C18 4.76522 17.8946 5.01957 17.7071 5.20711C17.5196 5.39464 17.2652 5.5 17 5.5L16.997 5.571L16.13 17.714C16.0759 18.4706 15.7372 19.1786 15.182 19.6956C14.6269 20.2125 13.8965 20.4999 13.138 20.5H4.862C4.10346 20.4999 3.37311 20.2125 2.81797 19.6956C2.26283 19.1786 1.92411 18.4706 1.87 17.714L1.003 5.57C1.00119 5.54671 1.00019 5.52336 1 5.5C0.734784 5.5 0.48043 5.39464 0.292893 5.20711C0.105357 5.01957 0 4.76522 0 4.5C0 4.23478 0.105357 3.98043 0.292893 3.79289C0.48043 3.60536 0.734784 3.5 1 3.5H4.28L4.823 1.868C4.9557 1.46959 5.21043 1.12305 5.5511 0.877515C5.89176 0.631978 6.30107 0.499899 6.721 0.5H11.28ZM6 8.5C5.75507 8.50003 5.51866 8.58996 5.33563 8.75272C5.15259 8.91547 5.03566 9.13975 5.007 9.383L5 9.5V15.5C5.00028 15.7549 5.09788 16 5.27285 16.1854C5.44782 16.3707 5.68695 16.4822 5.94139 16.4972C6.19584 16.5121 6.44638 16.4293 6.64183 16.2657C6.83729 16.1021 6.9629 15.8701 6.993 15.617L7 15.5V9.5C7 9.23478 6.89464 8.98043 6.70711 8.79289C6.51957 8.60536 6.26522 8.5 6 8.5ZM12 8.5C11.7348 8.5 11.4804 8.60536 11.2929 8.79289C11.1054 8.98043 11 9.23478 11 9.5V15.5C11 15.7652 11.1054 16.0196 11.2929 16.2071C11.4804 16.3946 11.7348 16.5 12 16.5C12.2652 16.5 12.5196 16.3946 12.7071 16.2071C12.8946 16.0196 13 15.7652 13 15.5V9.5C13 9.23478 12.8946 8.98043 12.7071 8.79289C12.5196 8.60536 12.2652 8.5 12 8.5ZM11.28 2.5H6.72L6.387 3.5H11.613L11.28 2.5Z" fill="white"/>
</svg>
