<svg width="190" height="161" viewBox="0 0 190 161" fill="none" xmlns="http://www.w3.org/2000/svg">
<path opacity="0.3" d="M37.3696 35.7779V8.54064C37.3796 6.53726 38.1825 4.61936 39.6027 3.20629C41.0228 1.79322 42.9448 0.999975 44.9482 1H162.976C164.98 0.999975 166.902 1.79322 168.322 3.20629C169.742 4.61936 170.545 6.53726 170.555 8.54064V50.6925" stroke="#E6E6E6" stroke-linecap="round" stroke-linejoin="round" stroke-dasharray="3 10"/>
<path d="M74.3841 23.1455H2C0.895431 23.1455 0 24.0409 0 25.1455V97.5296C0 98.6342 0.895432 99.5296 2 99.5296H74.3841C75.4887 99.5296 76.3841 98.6342 76.3841 97.5296V25.1455C76.3841 24.0409 75.4887 23.1455 74.3841 23.1455Z" fill="#050505"/>
<path d="M37.5271 47.8761C41.4385 47.8761 44.6092 44.7053 44.6092 40.794C44.6092 36.8827 41.4385 33.7119 37.5271 33.7119C33.6158 33.7119 30.4451 36.8827 30.4451 40.794C30.4451 44.7053 33.6158 47.8761 37.5271 47.8761Z" fill="#E6E6E6"/>
<path d="M63.4665 67.7608H13.0582C12.8108 67.7605 12.5735 67.662 12.3985 67.487C12.2235 67.312 12.125 67.0748 12.1248 66.8273V54.3231C12.125 54.0756 12.2235 53.8384 12.3985 53.6634C12.5735 53.4884 12.8108 53.3899 13.0582 53.3896H63.4665C63.714 53.3899 63.9512 53.4884 64.1262 53.6634C64.3012 53.8384 64.3997 54.0756 64.4 54.3231V66.8273C64.3997 67.0748 64.3012 67.312 64.1262 67.487C63.9512 67.662 63.714 67.7605 63.4665 67.7608ZM13.0582 53.763C12.9097 53.7632 12.7674 53.8223 12.6624 53.9273C12.5574 54.0323 12.4983 54.1746 12.4981 54.3231V66.8273C12.4983 66.9758 12.5574 67.1181 12.6624 67.2231C12.7674 67.3281 12.9097 67.3872 13.0582 67.3874H63.4665C63.615 67.3872 63.7573 67.3281 63.8624 67.2231C63.9674 67.1181 64.0264 66.9758 64.0266 66.8273V54.3231C64.0264 54.1746 63.9674 54.0323 63.8624 53.9273C63.7573 53.8223 63.615 53.7632 63.4665 53.763L13.0582 53.763Z" fill="#E6E6E6"/>
<path d="M17.4323 57.9092C17.2644 57.9095 17.1034 57.9764 16.9848 58.0952C16.8662 58.214 16.7996 58.375 16.7996 58.5429C16.7996 58.7108 16.8662 58.8719 16.9848 58.9907C17.1034 59.1095 17.2644 59.1764 17.4323 59.1767H47.3092C47.3925 59.1768 47.4751 59.1605 47.5521 59.1287C47.6291 59.097 47.6991 59.0503 47.758 58.9914C47.817 58.9326 47.8638 58.8627 47.8957 58.7857C47.9276 58.7087 47.944 58.6263 47.944 58.5429C47.944 58.4596 47.9276 58.3771 47.8957 58.3002C47.8638 58.2232 47.817 58.1533 47.758 58.0944C47.6991 58.0356 47.6291 57.9889 47.5521 57.9571C47.4751 57.9253 47.3925 57.909 47.3092 57.9092H17.4323Z" fill="#E6E6E6"/>
<path d="M17.4323 61.7158C17.2643 61.7158 17.1031 61.7826 16.9842 61.9014C16.8654 62.0203 16.7986 62.1815 16.7986 62.3496C16.7986 62.5177 16.8654 62.6789 16.9842 62.7977C17.1031 62.9166 17.2643 62.9833 17.4323 62.9833H30.2885C30.4566 62.9833 30.6178 62.9166 30.7366 62.7977C30.8555 62.6789 30.9222 62.5177 30.9222 62.3496C30.9222 62.1815 30.8555 62.0203 30.7366 61.9014C30.6178 61.7826 30.4566 61.7158 30.2885 61.7158H17.4323Z" fill="#E6E6E6"/>
<path d="M63.4665 85.2432H13.0582C12.8108 85.2429 12.5735 85.1444 12.3985 84.9694C12.2235 84.7944 12.125 84.5572 12.1248 84.3097V71.8056C12.125 71.5581 12.2235 71.3208 12.3985 71.1458C12.5735 70.9708 12.8108 70.8724 13.0582 70.8721H63.4665C63.714 70.8724 63.9512 70.9708 64.1262 71.1458C64.3012 71.3208 64.3997 71.5581 64.4 71.8056V84.3097C64.3997 84.5572 64.3012 84.7944 64.1262 84.9694C63.9512 85.1444 63.714 85.2429 63.4665 85.2432ZM13.0582 71.2455C12.9097 71.2456 12.7674 71.3047 12.6624 71.4097C12.5574 71.5147 12.4983 71.6571 12.4981 71.8056V84.3097C12.4983 84.4582 12.5574 84.6006 12.6624 84.7056C12.7674 84.8106 12.9097 84.8696 13.0582 84.8698H63.4665C63.615 84.8696 63.7573 84.8106 63.8624 84.7056C63.9674 84.6006 64.0264 84.4582 64.0266 84.3097V71.8056C64.0264 71.6571 63.9674 71.5147 63.8624 71.4097C63.7573 71.3047 63.615 71.2456 63.4665 71.2455L13.0582 71.2455Z" fill="#E6E6E6"/>
<path d="M17.4323 75.3916C17.2644 75.3919 17.1034 75.4588 16.9848 75.5776C16.8662 75.6964 16.7996 75.8575 16.7996 76.0254C16.7996 76.1933 16.8662 76.3543 16.9848 76.4731C17.1034 76.5919 17.2644 76.6588 17.4323 76.6591H47.3092C47.3925 76.6592 47.4751 76.643 47.5521 76.6112C47.6291 76.5794 47.6991 76.5327 47.758 76.4739C47.817 76.415 47.8638 76.3451 47.8957 76.2681C47.9276 76.1912 47.944 76.1087 47.944 76.0254C47.944 75.942 47.9276 75.8595 47.8957 75.7826C47.8638 75.7056 47.817 75.6357 47.758 75.5769C47.6991 75.518 47.6291 75.4713 47.5521 75.4395C47.4751 75.4078 47.3925 75.3915 47.3092 75.3916H17.4323Z" fill="#E6E6E6"/>
<path d="M17.4323 79.1982C17.2643 79.1982 17.1031 79.265 16.9842 79.3839C16.8654 79.5027 16.7986 79.6639 16.7986 79.832C16.7986 80.0001 16.8654 80.1613 16.9842 80.2801C17.1031 80.399 17.2643 80.4658 17.4323 80.4658H30.2885C30.4566 80.4658 30.6178 80.399 30.7366 80.2801C30.8555 80.1613 30.9222 80.0001 30.9222 79.832C30.9222 79.6639 30.8555 79.5027 30.7366 79.3839C30.6178 79.265 30.4566 79.1982 30.2885 79.1982H17.4323Z" fill="#E6E6E6"/>
<path d="M5.00175 29.0733C5.71747 29.0733 6.29768 28.4931 6.29768 27.7774C6.29768 27.0617 5.71747 26.4814 5.00175 26.4814C4.28602 26.4814 3.70581 27.0617 3.70581 27.7774C3.70581 28.4931 4.28602 29.0733 5.00175 29.0733Z" fill="white"/>
<path d="M8.85159 29.0733C9.56732 29.0733 10.1475 28.4931 10.1475 27.7774C10.1475 27.0617 9.56732 26.4814 8.85159 26.4814C8.13587 26.4814 7.55566 27.0617 7.55566 27.7774C7.55566 28.4931 8.13587 29.0733 8.85159 29.0733Z" fill="#CC0000"/>
<path d="M12.4742 29.0733C13.1899 29.0733 13.7701 28.4931 13.7701 27.7774C13.7701 27.0617 13.1899 26.4814 12.4742 26.4814C11.7584 26.4814 11.1782 27.0617 11.1782 27.7774C11.1782 28.4931 11.7584 29.0733 12.4742 29.0733Z" fill="#FFD200"/>
<path d="M96.9288 50.6934L100.908 72.8151L89.9187 73.6336L92.1165 55.8922L96.9288 50.6934Z" fill="#F4A28C"/>
<path opacity="0.31" d="M91.6549 58.6527C92.8296 58.3371 93.8845 57.6804 94.6863 56.7656C94.6863 56.7656 94.6181 59.9031 91.238 63.071L91.6549 58.6527Z" fill="#CE8172"/>
<path d="M89.2825 49.4576C89.2825 49.4576 88.2215 54.5807 88.6913 58.1275C88.7342 58.4724 88.8452 58.8053 89.0179 59.1069C89.1906 59.4084 89.4216 59.6727 89.6973 59.8842C89.973 60.0958 90.288 60.2504 90.624 60.3391C90.96 60.4279 91.3103 60.4489 91.6546 60.4011C93.4355 60.1434 95.7697 59.2718 96.6715 56.6118L98.7556 52.2541C99.0822 51.3376 99.1161 50.3422 98.8527 49.4055C98.5894 48.4689 98.0417 47.637 97.2854 47.0249C94.6026 44.5316 89.7675 46.305 89.2825 49.4576Z" fill="#F4A28C"/>
<path d="M88.7822 52.7178L87.0997 54.5518C87.0037 54.6551 86.9354 54.781 86.9012 54.9179C86.8671 55.0548 86.8683 55.1981 86.9046 55.3344C86.941 55.4707 87.0113 55.5955 87.109 55.6972C87.2068 55.7989 87.3288 55.8742 87.4635 55.9159L89.4112 56.5298L88.7822 52.7178Z" fill="#F4A28C"/>
<path d="M98.5587 57.6276L100.37 50.7463C100.37 50.7463 104.341 50.0718 103.151 47.4799C101.961 44.8881 100.37 46.6084 100.317 43.63C100.264 40.6517 97.8463 40.053 96.126 41.7203C94.4057 43.3875 95.209 41.0533 93.0946 40.735C90.9802 40.4167 90.3891 41.3641 90.336 43.0086C90.283 44.6532 87.2061 42.8949 86.4028 44.9487C85.5994 47.0025 85.4933 48.9957 90.8135 49.3367C96.1336 49.6777 92.314 54.0354 98.5587 57.6276Z" fill="#050505"/>
<path d="M94.2852 54.5519C94.2852 54.5519 94.558 52.5588 96.0434 52.8846C97.5288 53.2105 97.1498 56.1055 95.0733 56.1358L94.2852 54.5519Z" fill="#F4A28C"/>
<path opacity="0.45" d="M98.2247 160.998C138.724 160.998 171.555 153.608 171.555 144.492C171.555 135.376 138.724 127.986 98.2247 127.986C57.7257 127.986 24.8948 135.376 24.8948 144.492C24.8948 153.608 57.7257 160.998 98.2247 160.998Z" fill="#050505"/>
<path d="M87.0246 70.4047C87.0246 70.4047 56.0132 61.4468 56.1572 83.9703C56.2709 100.984 75.3537 137.103 75.3537 137.103H114.762C114.762 137.103 144.659 91.2457 130.116 76.4751C115.573 61.7045 112.238 74.4061 87.0246 70.4047Z" fill="#CC0000"/>
<path d="M75.2927 142.622L99.2712 149.087L120.544 138.295L123.773 132.535H102.333H68.2219L75.2927 142.622Z" fill="#0A52BE"/>
<path opacity="0.08" d="M112.533 73.6338C112.533 73.6338 100.908 79.4693 104.243 109.708C105.182 118.218 102.333 120.318 102.333 120.318L69.1008 123.645L75.3531 137.096H114.762C114.762 137.096 132.056 108.95 133.42 94.452C134.784 79.9543 112.533 73.6338 112.533 73.6338Z" fill="black"/>
<path d="M94.011 142.614C94.011 142.614 102.082 145.441 99.316 149.086C96.5498 152.732 92.1619 146.676 92.1619 146.676L94.011 142.614Z" fill="#CC0000"/>
<path d="M94.2235 141.202C94.2235 141.202 61.6358 124.529 58.8241 133.412C56.0125 142.294 78.5283 147.424 93.0336 147.955L94.2235 141.202Z" fill="#0A52BE"/>
<path d="M102.144 142.514C102.144 142.514 128.161 116.747 133.496 124.326C138.832 131.904 118.991 143.659 105.327 148.577L102.144 142.514Z" fill="#0A52BE"/>
<path d="M103.167 144.455C103.167 144.455 95.4594 151.321 99.9232 153.345C104.387 155.368 105.327 148.578 105.327 148.578L103.167 144.455Z" fill="#CC0000"/>
<path d="M110.404 79.9099C110.283 71.2325 120.749 66.6171 127.001 72.6269C131.586 77.0376 136.057 83.6537 138.263 93.4603C143.833 118.159 153.844 114.377 158.725 106.586C163.605 98.7956 162.665 81.6681 162.665 81.6681L171.555 81.8348C171.555 81.8348 179.187 126.306 146.5 127.958C121.34 129.223 110.684 100.713 110.404 79.9099Z" fill="#CC0000"/>
<path opacity="0.54" d="M110.404 79.9099C110.283 71.2325 120.749 66.6171 127.001 72.6269C131.586 77.0376 136.057 83.6537 138.263 93.4603C143.833 118.159 153.844 114.377 158.725 106.586C163.605 98.7956 162.665 81.6681 162.665 81.6681L171.555 81.8348C171.555 81.8348 179.187 126.306 146.5 127.958C121.34 129.223 110.684 100.713 110.404 79.9099Z" fill="white"/>
<path d="M172.329 63.7217H168.744V95.2105H172.329V63.7217Z" fill="#050505"/>
<path d="M78.6497 128.539L75.8684 103.212H118.399L114.155 129.835L114.761 133.246L78.2026 133.534L78.6497 128.539Z" fill="#FFD200"/>
<path d="M97.551 120.5C99.5643 120.5 101.196 118.867 101.196 116.854C101.196 114.841 99.5643 113.209 97.551 113.209C95.5378 113.209 93.9058 114.841 93.9058 116.854C93.9058 118.867 95.5378 120.5 97.551 120.5Z" fill="white"/>
<path d="M70.7916 70.5474C68.8772 69.5468 66.667 69.2673 64.5638 69.7597C62.4605 70.2522 60.6041 71.4837 59.3328 73.2301C52.8608 81.8773 38.8708 102.438 39.4847 117.352C40.3183 136.716 82.5459 134.025 82.5459 134.025L81.7123 126.704C81.7123 126.704 56.1195 124.863 63.1827 112.017C67.98 103.279 83.2204 77.3605 70.7916 70.5474Z" fill="#CC0000"/>
<path opacity="0.54" d="M70.7916 70.5474C68.8772 69.5468 66.667 69.2673 64.5638 69.7597C62.4605 70.2522 60.6041 71.4837 59.3328 73.2301C52.8608 81.8773 38.8708 102.438 39.4847 117.352C40.3183 136.716 82.5459 134.025 82.5459 134.025L81.7123 126.704C81.7123 126.704 56.1195 124.863 63.1827 112.017C67.98 103.279 83.2204 77.3605 70.7916 70.5474Z" fill="white"/>
<path d="M164.901 81.7071C164.901 81.7071 163.901 74.0376 170.691 74.9319C177.482 75.8262 177.421 81.2752 171.555 81.8284L164.901 81.7071Z" fill="#F4A28C"/>
<path d="M187.623 42.0469H152.813C151.708 42.0469 150.813 42.9423 150.813 44.0469V64.859C150.813 65.9636 151.708 66.859 152.813 66.859H187.623C188.727 66.859 189.623 65.9636 189.623 64.859V44.0469C189.623 42.9423 188.727 42.0469 187.623 42.0469Z" fill="#CC0000"/>
<path d="M81.8862 128.403C81.8862 128.403 88.3735 126.13 89.9271 128.82C91.4807 131.51 89.1692 135.171 82.5304 134.027L81.8862 128.403Z" fill="#F4A28C"/>
<path d="M176.818 49.47C175.699 49.3588 174.581 49.2755 173.455 49.2129V49.206L173.303 48.3029C173.198 47.6638 173.045 46.7051 171.42 46.7051H169.6C167.981 46.7051 167.828 47.6221 167.717 48.2959L167.571 49.1852C166.925 49.2268 166.279 49.2685 165.633 49.331L164.216 49.47C163.924 49.4978 163.716 49.7548 163.743 50.0396C163.771 50.3245 164.021 50.5329 164.313 50.5051L165.73 50.3661C169.371 50.0049 173.039 50.1438 176.72 50.512C176.741 50.512 176.755 50.512 176.776 50.512C177.04 50.512 177.269 50.3106 177.297 50.0396C177.318 49.7548 177.109 49.4978 176.818 49.47Z" fill="white"/>
<path d="M175.54 51.4955C175.373 51.3219 175.144 51.2246 174.907 51.2246H166.126C165.89 51.2246 165.654 51.3219 165.494 51.4955C165.334 51.6692 165.244 51.9054 165.258 52.1486L165.689 59.2762C165.765 60.3321 165.862 61.652 168.287 61.652H172.747C175.171 61.652 175.269 60.3391 175.345 59.2762L175.776 52.1555C175.79 51.9054 175.699 51.6692 175.54 51.4955ZM171.67 58.1716H169.357C169.072 58.1716 168.836 57.9354 168.836 57.6506C168.836 57.3658 169.072 57.1296 169.357 57.1296H171.67C171.955 57.1296 172.191 57.3658 172.191 57.6506C172.191 57.9354 171.955 58.1716 171.67 58.1716ZM172.254 55.3928H168.78C168.495 55.3928 168.259 55.1566 168.259 54.8718C168.259 54.587 168.495 54.3508 168.78 54.3508H172.254C172.538 54.3508 172.775 54.587 172.775 54.8718C172.775 55.1566 172.538 55.3928 172.254 55.3928Z" fill="white"/>
</svg>
