<svg width="24" height="24" viewBox="0 0 24 24" fill="none" xmlns="http://www.w3.org/2000/svg">
<path d="M13.1901 6H6.79012C6.53012 6 6.28012 6.01 6.04012 6.04C3.35012 6.27 2.00012 7.86 2.00012 10.79V14.79C2.00012 18.79 3.60012 19.58 6.79012 19.58H7.19012C7.41012 19.58 7.70012 19.73 7.83012 19.9L9.03012 21.5C9.56012 22.21 10.4201 22.21 10.9501 21.5L12.1501 19.9C12.3001 19.7 12.5401 19.58 12.7901 19.58H13.1901C16.1201 19.58 17.7101 18.24 17.9401 15.54C17.9701 15.3 17.9801 15.05 17.9801 14.79V10.79C17.9801 7.6 16.3801 6 13.1901 6ZM6.50012 14C5.94012 14 5.50012 13.55 5.50012 13C5.50012 12.45 5.95012 12 6.50012 12C7.05012 12 7.50012 12.45 7.50012 13C7.50012 13.55 7.05012 14 6.50012 14ZM9.99012 14C9.43012 14 8.99012 13.55 8.99012 13C8.99012 12.45 9.44012 12 9.99012 12C10.5401 12 10.9901 12.45 10.9901 13C10.9901 13.55 10.5501 14 9.99012 14ZM13.4901 14C12.9301 14 12.4901 13.55 12.4901 13C12.4901 12.45 12.9401 12 13.4901 12C14.0401 12 14.4901 12.45 14.4901 13C14.4901 13.55 14.0401 14 13.4901 14Z" fill="white"/>
<path d="M21.9818 6.79V10.79C21.9818 12.79 21.3618 14.15 20.1218 14.9C19.8218 15.08 19.4718 14.84 19.4718 14.49L19.4818 10.79C19.4818 6.79 17.1918 4.5 13.1917 4.5L7.10171 4.51C6.75171 4.51 6.51171 4.16 6.69171 3.86C7.44171 2.62 8.80171 2 10.7917 2H17.1918C20.3818 2 21.9818 3.6 21.9818 6.79Z" fill="white"/>
</svg>
