<svg width="117" height="124" viewBox="0 0 117 124" fill="none" xmlns="http://www.w3.org/2000/svg">
<path d="M63.6858 109.559C89.6738 109.559 110.741 88.4919 110.741 62.5038C110.741 36.5157 89.6738 15.4482 63.6858 15.4482C37.6977 15.4482 16.6302 36.5157 16.6302 62.5038C16.6302 88.4919 37.6977 109.559 63.6858 109.559Z" fill="#202020"/>
<path fill-rule="evenodd" clip-rule="evenodd" d="M67.0735 56.5033C69.3282 56.779 85.4002 56.5899 89.033 56.5828C92.7098 56.5758 94.4967 58.2961 94.5722 62.0307C94.6417 65.4514 94.3082 69.6314 94.6311 72.9306C98.8612 73.2152 104.111 72.5819 104.086 80.9077C104.072 85.6976 105.071 93.6329 102.403 96.6458C99.5228 99.8985 92.2244 98.7761 87.1924 98.7891C79.8009 98.808 78.6144 96.5786 78.2379 90.3996L67.1183 90.3713L67.08 102.257L115.159 102.315L115.272 35.8965L67.1259 35.8877L67.0735 56.5033Z" fill="#050505"/>
<path fill-rule="evenodd" clip-rule="evenodd" d="M67.4346 108.776C66.8932 107.422 66.9415 105.367 67.1542 103.781L115.167 103.794C115.395 105.161 115.382 107.611 114.953 108.678C113.523 109.278 69.7747 109.428 67.4346 108.776ZM79.8056 90.3634C82.4421 90.3563 85.0803 90.3628 87.7167 90.3645C90.7037 90.3663 92.1542 90.4706 93.5328 88.5505C95.7133 85.5141 93.9187 78.499 94.6705 74.5069C100.636 74.2671 102.606 75.6782 102.595 81.6928C102.561 98.4507 103.974 97.2906 87.9783 97.2953C82.316 97.2971 79.4097 96.6579 79.8056 90.3634ZM46.3689 58.34C47.8524 57.6825 80.9515 58.0831 85.6205 58.0831C94.3559 58.0831 93.0733 58.0342 93.0804 70.6886C93.0827 74.0073 93.0786 77.3266 93.0786 80.6453C93.0786 83.6358 93.5947 87.6144 91.2269 88.6083C89.7069 89.2463 56.4322 88.874 51.8197 88.874C48.3001 88.8746 45.1175 89.6481 44.4494 86.1415C44.1554 84.5973 44.3546 69.1763 44.3546 66.2341C44.3546 62.9148 43.7088 59.5189 46.3689 58.34ZM67.1259 35.8874L115.272 35.8963L115.159 102.314L67.0799 102.257L67.1182 90.371L78.2379 90.3993C78.6143 96.5783 79.8009 98.8077 87.1924 98.7888C92.2243 98.7759 99.5228 99.8982 102.403 96.6455C105.071 93.6326 104.072 85.6973 104.086 80.9075C104.11 72.5816 98.8611 73.2149 94.631 72.9304C94.3082 69.6311 94.6416 65.4511 94.5721 62.0305C94.4967 58.2958 92.7098 56.5755 89.0329 56.5826C85.4002 56.5896 69.3281 56.7788 67.0734 56.503L67.1259 35.8874ZM67.16 34.3751C66.7842 31.9566 66.7199 30.4572 69.1131 30.4607L112.608 30.4613C114.198 30.4613 116.147 30.1956 115.128 34.4128L67.16 34.3751ZM65.6701 108.188C66.1326 110.944 69.0801 110.496 71.733 110.496H105.796C118.486 110.496 116.76 112.951 116.76 95.8425L116.76 36.364C116.762 33.3429 117.388 30.4501 115.264 29.2889C113.466 28.7964 81.3904 28.9967 76.7114 28.9967C64.6061 28.9967 65.5705 27.7412 65.587 37.4121C65.5982 43.7591 65.5847 50.1072 65.5876 56.4541C61.4394 57.4987 49.6905 55.6617 46.0519 56.7947C43.3807 57.6265 42.8546 60.2936 42.8675 63.6141L42.8711 83.528C42.8693 86.8538 43.3766 89.4531 46.1803 90.1896C48.7732 90.8712 62.4215 89.872 65.5758 90.4594L65.6701 108.188Z" fill="#CC0000"/>
<path fill-rule="evenodd" clip-rule="evenodd" d="M47.1407 86.3724C46.7053 84.3869 46.7182 62.1535 47.2402 60.8751C48.3225 60.6135 68.3413 60.3796 68.8509 61.0324C69.2144 62.1052 69.1272 85.3608 68.8108 86.3671C67.5477 86.7547 48.4321 86.7577 47.1407 86.3724ZM75.9254 66.8762C74.1645 66.8703 72.7022 66.8544 71.9893 65.7126C71.3436 64.678 71.4697 62.4823 72.106 61.6197C73.1853 60.1569 78.5207 60.7113 80.9038 60.7113C83.1261 60.7113 88.4921 60.0891 89.8224 61.5131C90.5735 62.3173 91.9963 66.8726 87.1924 66.8762H75.9254ZM46.3689 58.3411C43.7088 59.52 44.3546 62.9159 44.3546 66.2352C44.3546 69.1774 44.1554 84.5984 44.4494 86.1426C45.1175 89.6492 48.3001 88.8757 51.8197 88.8751C56.4322 88.8751 89.7069 89.2474 91.2269 88.6094C93.5947 87.6155 93.0786 83.6369 93.0786 80.6464C93.0786 77.3277 93.0827 74.0084 93.0804 70.6897C93.0733 58.0353 94.3559 58.0842 85.6205 58.0842C80.9515 58.0842 47.8523 57.6836 46.3689 58.3411Z" fill="#141414"/>
<path d="M73.2375 71.4541H88.7255" stroke="white" stroke-width="2" stroke-linecap="round"/>
<path d="M73.2375 76.106H88.7255" stroke="white" stroke-width="2" stroke-linecap="round"/>
<path d="M73.2375 80.5752H88.7255" stroke="white" stroke-width="2" stroke-linecap="round"/>
<path fill-rule="evenodd" clip-rule="evenodd" d="M79.8056 90.3649C79.4096 96.6594 82.3159 97.2987 87.9783 97.2969C103.974 97.2922 102.561 98.4522 102.595 81.6944C102.606 75.6797 100.636 74.2687 94.6705 74.5085C93.9187 78.5006 95.7132 85.5156 93.5328 88.5521C92.1542 90.4721 90.7037 90.3679 87.7167 90.3661C85.0802 90.3643 82.442 90.3579 79.8056 90.3649Z" fill="#CC0000"/>
<path fill-rule="evenodd" clip-rule="evenodd" d="M90.0744 105.639C91.0235 105.64 93.9522 105.345 94.3823 105.999C95.6525 107.929 89.1417 107.068 88.7093 106.941C88.6916 105.7 88.8701 105.638 90.0744 105.639ZM67.4344 108.775C69.7745 109.428 113.523 109.277 114.953 108.678C115.381 107.611 115.394 105.161 115.167 103.794L67.154 103.781C66.9413 105.367 66.893 107.422 67.4344 108.775Z" fill="#141414"/>
<path fill-rule="evenodd" clip-rule="evenodd" d="M48.733 85.0239C48.8102 83.3572 49.2803 79.5071 50.8469 78.8944C53.4091 77.8934 55.5483 78.7282 56.1764 76.1053C58.117 76.6038 57.8142 76.6209 59.7714 76.1077C60.5479 78.9038 62.8049 77.7997 65.3047 78.9639C66.6568 79.5937 67.1104 83.1157 67.2336 85.0469L48.733 85.0239ZM57.2086 65.034C59.7808 64.2192 61.3591 67.0465 61.4334 69.1416C61.5135 71.3898 60.1284 74.2984 58.7686 74.7998C54.9344 76.2126 52.4205 66.5499 57.2086 65.034ZM48.4408 62.1966L67.5317 62.2344L67.471 78.7878C65.4449 76.6262 63.8295 77.6089 61.4234 76.2821C60.8059 74.4757 61.745 74.0669 62.3136 72.5333C62.8067 71.2042 63.0789 69.6482 62.8108 68.0982C61.3368 59.5708 50.0192 63.755 53.7114 72.7148C54.3158 74.1818 55.1695 74.4952 54.5491 76.2962C52.2662 77.6825 51.0231 76.4429 48.4555 78.7925L48.4408 62.1966ZM47.1406 86.3725C48.432 86.7578 67.5476 86.7549 68.8107 86.3672C69.1271 85.3609 69.2143 62.1053 68.8508 61.0325C68.3412 60.3797 48.3224 60.6136 47.2401 60.8752C46.7181 62.1536 46.7052 84.3871 47.1406 86.3725Z" fill="white"/>
<path fill-rule="evenodd" clip-rule="evenodd" d="M67.16 34.3761L115.128 34.4138C116.147 30.1966 114.198 30.4623 112.608 30.4623L69.113 30.4617C66.7199 30.4582 66.7841 31.9576 67.16 34.3761Z" fill="#141414"/>
<path fill-rule="evenodd" clip-rule="evenodd" d="M48.4556 78.7921C51.0232 76.4426 52.2663 77.6822 54.5492 76.2959C55.1696 74.4948 54.3159 74.1814 53.7115 72.7144C50.0193 63.7546 61.3369 59.5704 62.8109 68.0978C63.079 69.6479 62.8068 71.2038 62.3137 72.533C61.7451 74.0665 60.806 74.4754 61.4235 76.2817C63.8296 77.6085 65.445 76.6258 67.4711 78.7874L67.5318 62.234L48.4409 62.1963L48.4556 78.7921Z" fill="#141414"/>
<path fill-rule="evenodd" clip-rule="evenodd" d="M48.733 85.0245L67.2336 85.0475C67.1104 83.1163 66.6568 79.5943 65.3047 78.9645C62.8049 77.8004 60.5479 78.9044 59.7714 76.1083C57.8142 76.6215 58.117 76.6044 56.1764 76.106C55.5483 78.7289 53.4091 77.894 50.8469 78.895C49.2804 79.5077 48.8102 83.3578 48.733 85.0245Z" fill="#CC0000"/>
<path fill-rule="evenodd" clip-rule="evenodd" d="M5.10814 76.9655C5.83751 82.9254 11.3325 88.0534 18.3629 87.2698C24.5284 86.5829 29.5733 80.8369 28.7679 73.9968C28.0727 68.0941 22.4569 62.7181 15.5544 63.5941C9.36005 64.3801 4.24444 69.9016 5.10814 76.9655Z" fill="#CC0000"/>
<path fill-rule="evenodd" clip-rule="evenodd" d="M5.10814 76.9656C4.24444 69.9017 9.36005 64.3802 15.5544 63.5942C22.4569 62.7182 28.0727 68.0942 28.7679 73.9969C29.5733 80.8369 24.5284 86.5829 18.3629 87.2699C11.3325 88.0535 5.83751 82.9255 5.10814 76.9656ZM24.602 86.6931C25.0056 86.0939 26.3889 85.2367 27.5048 83.8151C28.3048 82.7959 29.0041 81.5192 29.5515 80.0923C30.7363 77.0021 30.5996 73.33 29.4219 70.4019C27.3486 65.248 22.3556 61.4456 15.0024 62.0689C10.6191 62.9291 7.5431 65.0824 5.75385 67.8503C0.820291 75.4821 4.25269 85.1319 12.069 88.0358C14.187 88.8229 16.5065 89.1422 19.0009 88.7663C21.7635 88.3498 22.6389 87.4201 24.602 86.6931Z" fill="#D0D0D0"/>
<path fill-rule="evenodd" clip-rule="evenodd" d="M75.1395 65.3667C78.2832 65.3602 81.4281 65.3673 84.5724 65.3673C85.7325 65.3667 88.1957 65.7426 88.7867 64.9431C89.9066 63.4266 88.8409 62.1965 86.9497 62.1764C83.816 62.1423 80.6387 62.1982 77.4973 62.1947C76.2412 62.1935 73.7421 61.8335 73.226 62.7385C72.9626 63.201 73.0086 64.3251 73.2171 64.7546C73.5577 65.4568 74.3065 65.3626 75.1395 65.3667Z" fill="#0A52BE"/>
<path fill-rule="evenodd" clip-rule="evenodd" d="M86.9495 62.1763C88.8407 62.1963 89.9065 63.4265 88.7865 64.943C88.1956 65.7424 85.7324 65.3666 84.5723 65.3671C81.428 65.3671 78.2831 65.3601 75.1394 65.3666C74.3063 65.3624 73.5575 65.4567 73.217 64.7544C73.0084 64.3249 72.9625 63.2008 73.2258 62.7383C73.7419 61.8334 76.2411 62.1934 77.4972 62.1946C80.6385 62.1981 83.8158 62.1421 86.9495 62.1763ZM75.9253 66.8754H87.1923C91.9962 66.8718 90.5734 62.3165 89.8222 61.5123C88.4919 60.0883 83.1259 60.7105 80.9037 60.7105C78.5205 60.7105 73.1852 60.1561 72.1059 61.619C71.4696 62.4815 71.3435 64.6772 71.9892 65.7118C72.7021 66.8536 74.1643 66.8695 75.9253 66.8754Z" fill="white"/>
<path fill-rule="evenodd" clip-rule="evenodd" d="M57.2086 65.0332C52.4205 66.5491 54.9344 76.2118 58.7686 74.799C60.1284 74.2976 61.5135 71.389 61.4334 69.1408C61.3591 67.0457 59.7808 64.2184 57.2086 65.0332Z" fill="#CC0000"/>
<path fill-rule="evenodd" clip-rule="evenodd" d="M49.2126 107.571C46.1319 108.688 47.9913 112.915 50.8004 111.872C53.3355 110.93 52.2008 106.486 49.2126 107.571Z" fill="#F6FAFA"/>
<path fill-rule="evenodd" clip-rule="evenodd" d="M38.6533 111.182C39.3474 116.856 44.579 121.738 51.2718 120.992C57.1409 120.338 61.9437 114.867 61.1772 108.356C60.515 102.737 55.169 97.6192 48.5982 98.4528C42.7008 99.2011 37.8309 104.457 38.6533 111.182Z" fill="#CC0000"/>
<path fill-rule="evenodd" clip-rule="evenodd" d="M38.6533 111.183C37.8308 104.458 42.7008 99.2017 48.5982 98.4535C55.169 97.6198 60.5149 102.737 61.1772 108.357C61.9436 114.868 57.1409 120.339 51.2717 120.993C44.579 121.739 39.3473 116.857 38.6533 111.183ZM57.211 120.443C57.5951 119.873 58.9119 119.057 59.9747 117.703C60.7365 116.733 61.4022 115.518 61.923 114.159C63.0506 111.217 62.9205 107.721 61.7993 104.934C59.8256 100.028 55.0724 96.4079 48.0721 97.0012C43.8997 97.8201 40.9716 99.8698 39.2678 102.505C34.571 109.771 37.8391 118.957 45.2801 121.721C47.2961 122.471 49.5043 122.775 51.8792 122.417C54.5085 122.021 55.3422 121.135 57.211 120.443Z" fill="#D0D0D0"/>
<path fill-rule="evenodd" clip-rule="evenodd" d="M15.324 33.246C16.1352 39.8757 22.2477 45.5799 30.0681 44.7086C36.9258 43.9444 42.5381 37.5521 41.6426 29.9438C40.869 23.3777 34.6217 17.3978 26.9438 18.3723C20.0531 19.2466 14.3631 25.3885 15.324 33.246Z" fill="#CC0000"/>
<path fill-rule="evenodd" clip-rule="evenodd" d="M15.324 33.2475C14.3631 25.39 20.0532 19.2481 26.9439 18.3738C34.6217 17.3993 40.8691 23.3792 41.6426 29.9453C42.5382 37.5536 36.9259 43.9459 30.0682 44.7101C22.2478 45.5814 16.1353 39.8772 15.324 33.2475ZM37.0084 44.0679C37.4573 43.4016 38.9956 42.4483 40.2375 40.8664C41.1271 39.7323 41.9054 38.313 42.5134 36.7253C43.8313 33.2882 43.6799 29.203 42.3697 25.9462C40.0637 20.2137 34.5092 15.9836 26.33 16.677C21.4542 17.6338 18.033 20.0287 16.0422 23.1076C10.5543 31.5973 14.3726 42.3311 23.0673 45.5614C25.4227 46.4369 28.0032 46.7921 30.7781 46.3738C33.8505 45.9113 34.8244 44.8762 37.0084 44.0679Z" fill="#D0D0D0"/>
<path d="M52.0983 107.104C51.8741 107.104 51.6881 106.903 51.6881 106.662V104.6C51.6881 103.964 51.3216 103.569 50.7308 103.569H49.0898C48.4991 103.569 48.1326 103.964 48.1326 104.6V106.662C48.1326 106.903 47.9466 107.104 47.7223 107.104C47.4981 107.104 47.3121 106.903 47.3121 106.662V104.6C47.3121 103.475 48.0451 102.686 49.0898 102.686H50.7308C51.7756 102.686 52.5086 103.475 52.5086 104.6V106.662C52.5086 106.903 52.3226 107.104 52.0983 107.104Z" fill="white"/>
<path d="M47.722 112.423C47.4977 112.423 47.3117 112.223 47.3117 111.981C47.3117 111.734 47.4977 111.539 47.722 111.539H54.1547C54.3188 111.539 54.4446 111.386 54.4282 111.21L54.0563 107.858C53.925 106.715 53.739 105.778 51.8792 105.778H47.9408C46.081 105.778 45.895 106.715 45.7692 107.858L45.2769 112.276C45.1183 113.725 45.534 114.909 47.454 114.909H52.366C54.0945 114.909 54.6033 113.949 54.5759 112.7C54.5704 112.541 54.4501 112.423 54.3024 112.423H47.722Z" fill="white"/>
<path d="M15.9015 79.966H14.3867C13.6462 79.966 13.0403 80.5719 13.0403 81.3125V81.4808H12.367C12.091 81.4808 11.8621 81.7097 11.8621 81.9857C11.8621 82.2617 12.091 82.4906 12.367 82.4906H20.4458C20.7218 82.4906 20.9507 82.2617 20.9507 81.9857C20.9507 81.7097 20.7218 81.4808 20.4458 81.4808H19.7726V81.3125C19.7726 80.5719 19.1667 79.966 18.4261 79.966H16.9114V78.4243C16.743 78.4445 16.5747 78.4512 16.4064 78.4512C16.2381 78.4512 16.0698 78.4445 15.9015 78.4243V79.966Z" fill="white"/>
<path d="M20.7693 75.5163C21.2136 75.348 21.6041 75.072 21.9137 74.7623C22.5399 74.0689 22.9505 73.2408 22.9505 72.2713C22.9505 71.3019 22.1898 70.5411 21.2203 70.5411H20.8433C20.4057 69.6457 19.4901 69.0264 18.4264 69.0264H14.387C13.3233 69.0264 12.4077 69.6457 11.9701 70.5411H11.5931C10.6237 70.5411 9.86292 71.3019 9.86292 72.2713C9.86292 73.2408 10.2736 74.0689 10.8997 74.7623C11.2094 75.072 11.5999 75.348 12.0442 75.5163C12.7443 77.2398 14.4274 78.4516 16.4067 78.4516C18.386 78.4516 20.0691 77.2398 20.7693 75.5163ZM18.3187 73.3687L17.9013 73.8804C17.834 73.9544 17.7868 74.1025 17.7936 74.2035L17.834 74.8633C17.8609 75.2672 17.5714 75.4759 17.1944 75.3278L16.5818 75.0854C16.4875 75.0518 16.3259 75.0518 16.2317 75.0854L15.619 75.3278C15.242 75.4759 14.9525 75.2672 14.9795 74.8633L15.0199 74.2035C15.0266 74.1025 14.9795 73.9544 14.9121 73.8804L14.4947 73.3687C14.2322 73.059 14.3466 72.7157 14.7371 72.6147L15.3767 72.4531C15.4777 72.4262 15.5988 72.3319 15.6527 72.2444L16.0095 71.6924C16.2317 71.349 16.5818 71.349 16.8039 71.6924L17.1607 72.2444C17.2146 72.3319 17.3358 72.4262 17.4368 72.4531L18.0763 72.6147C18.4668 72.7157 18.5813 73.059 18.3187 73.3687Z" fill="white"/>
<path d="M21.6832 31.5335L35.2345 31.5335" stroke="white" stroke-width="2" stroke-linecap="round" stroke-linejoin="round"/>
<path d="M28.4589 38.3092L28.4589 24.7578" stroke="white" stroke-width="2" stroke-linecap="round" stroke-linejoin="round"/>
<path fill-rule="evenodd" clip-rule="evenodd" d="M39.7084 11.8856C40.7581 12.4916 41.0236 11.9813 43.0966 11.2093L50.6976 8.88132C51.1324 8.77578 51.895 8.70636 52.2143 8.15327C52.6302 7.4329 52.3278 6.5326 51.3689 6.38424C50.8369 6.30173 45.5155 7.80726 44.5856 8.11618C44.2495 8.22765 44.0022 8.37308 43.6347 8.48997L40.8254 9.55789C40.3381 9.78156 39.2562 9.98233 39.2687 10.9579C39.2729 11.2485 39.3839 11.6982 39.7084 11.8856Z" fill="#D0D0D0"/>
<path fill-rule="evenodd" clip-rule="evenodd" d="M56.859 6.2085C56.398 8.17824 58.7497 7.66213 59.5648 7.6105C60.8171 7.53087 61.9587 7.48787 63.1869 7.48937L66.8793 7.62476C67.505 7.67817 68.0747 7.72516 68.7535 7.7982C70.822 8.02017 71.0243 5.77772 69.3303 5.47432C66.9833 5.05463 62.668 5.15488 60.1167 5.1992C58.8572 5.2205 57.1026 5.16637 56.859 6.2085Z" fill="#D0D0D0"/>
<path fill-rule="evenodd" clip-rule="evenodd" d="M82.6942 113.622C81.8467 113.143 81.5172 113.491 80.8358 113.778L78.263 114.667C77.9292 114.757 77.6902 114.827 77.3455 114.916L75.5803 115.409C75.2763 115.495 75.0324 115.577 74.73 115.649L72.0593 116.186C69.0367 116.483 69.9928 118.191 70.4584 118.512C70.9595 118.859 71.471 118.68 72.297 118.56C73.9735 118.315 78.6335 117.094 80.2519 116.499C80.8496 116.278 82.545 115.721 82.8547 115.432C83.4657 114.865 83.3408 113.987 82.6942 113.622Z" fill="#D0D0D0"/>
<path fill-rule="evenodd" clip-rule="evenodd" d="M7.63323 44.4326C6.83407 45.3672 5.11591 53.0876 4.9014 55.3928C4.83286 56.1271 4.62209 56.5598 5.15149 57.1369C5.62927 57.6582 6.38212 57.6004 6.82285 57.1226C7.29386 56.6126 7.39053 54.645 7.58199 53.5515C7.96923 51.3393 8.64844 48.499 9.34824 46.3357C9.55493 45.6963 9.8161 45.0937 9.36942 44.5381C8.91845 43.9771 8.05182 43.943 7.63323 44.4326Z" fill="#D0D0D0"/>
<path fill-rule="evenodd" clip-rule="evenodd" d="M74.8267 7.66468C74.7081 9.09155 76.2427 9.05478 77.4026 9.37731C80.017 10.1053 82.0758 10.8023 84.5929 11.8511C85.7796 12.3462 87.3548 13.4606 87.8317 11.6634C88.1434 10.487 86.0481 9.89929 85.0324 9.48333C83.747 8.95794 82.598 8.52941 81.3514 8.10813C80.1753 7.71027 79.0387 7.39645 77.843 7.0611C76.9308 6.80614 74.9585 6.07192 74.8267 7.66468Z" fill="#D0D0D0"/>
<path fill-rule="evenodd" clip-rule="evenodd" d="M28.6428 107.573C29.4004 106.383 27.9365 105.686 27.1219 105.038C25.2319 103.534 23.8621 102.282 22.1534 100.575C21.7322 100.155 20.2973 98.4886 19.9629 98.2755C19.1099 97.7321 17.1726 98.6172 18.8218 100.479C20.9403 102.872 24.1622 105.793 26.7878 107.758C27.4793 108.275 28.1798 108.299 28.6428 107.573Z" fill="#D0D0D0"/>
<path fill-rule="evenodd" clip-rule="evenodd" d="M93.9254 14.0475L92.9747 13.4986C92.4745 13.5475 92.0261 13.474 91.661 14.0737C90.8649 15.3803 92.7256 16.0753 93.6006 16.6763C94.1528 17.0556 94.7131 17.4183 95.204 17.7622C96.4922 18.6638 98.3475 20.108 99.5427 21.1758C99.965 21.5531 100.449 22.0283 100.88 22.3644C102.076 23.2982 103.281 21.9661 102.719 20.9487C102.293 20.1775 98.058 16.9298 97.1295 16.2445C96.7691 15.9791 94.0263 14.1937 93.9254 14.0475Z" fill="#D0D0D0"/>
</svg>
