<svg width="26" height="26" viewBox="0 0 26 26" fill="none" xmlns="http://www.w3.org/2000/svg">
<rect x="0.700195" y="0.216797" width="25" height="25" rx="5" fill="#202020"/>
<path d="M6.51349 5.51963C6.23004 5.52004 6 5.75006 6 6.03351C6 6.05872 6.00181 6.08343 6.00542 6.10824L6.00502 6.10553V10.1506V10.1579C6.00502 10.4418 6.23545 10.6717 6.5189 10.6717C6.80235 10.6717 7.03277 10.4418 7.03277 10.1579V10.1502V10.1506V7.28016L10.2674 10.5148C10.3605 10.6079 10.4888 10.665 10.6305 10.665C10.9144 10.665 11.1444 10.4346 11.1444 10.1512C11.1444 10.0089 11.0868 9.88074 10.9936 9.78753L7.75899 6.55292H10.63H10.6372C10.9212 6.55292 11.1511 6.3225 11.1511 6.03905C11.1511 5.7556 10.9212 5.52518 10.6372 5.52518H10.6296H6.58087C6.56058 5.52206 6.53677 5.52025 6.51297 5.52025L6.51349 5.51963ZM19.8721 5.52004C19.8523 5.52044 19.8334 5.52225 19.8149 5.52496L19.8176 5.52456H15.7699H15.7627C15.4787 5.52456 15.2488 5.75448 15.2488 6.03843C15.2488 6.32239 15.4787 6.5523 15.7627 6.5523H15.7703H18.6408L15.4062 9.78691C15.3131 9.88002 15.2554 10.0083 15.2554 10.1505C15.2554 10.4345 15.4859 10.6644 15.7698 10.6644C15.9116 10.6644 16.0402 10.6068 16.1335 10.5141L19.3681 7.27954V10.15V10.1573C19.3681 10.4412 19.598 10.6711 19.8819 10.6711C20.1659 10.6711 20.3958 10.4412 20.3958 10.1573V10.1496V10.15V6.10131C20.3985 6.08102 20.4003 6.05721 20.4003 6.03341C20.4003 5.74944 20.1704 5.51953 19.8865 5.51953C19.8815 5.51953 19.8761 5.51953 19.8712 5.51993L19.8721 5.52004ZM6.51117 14.7695C6.23032 14.774 6.00453 15.0021 6.00453 15.2833V15.291V15.2906V19.4023V19.4036V19.4049C6.00453 19.4198 6.00543 19.4346 6.00674 19.449L6.00633 19.4468C6.00674 19.4508 6.00674 19.4531 6.00674 19.4553V19.4535C6.00804 19.4688 6.01035 19.4818 6.01256 19.4949L6.01216 19.4918C6.01347 19.4999 6.01437 19.5048 6.01527 19.5094L6.01487 19.5062C6.02572 19.5562 6.04229 19.6008 6.06389 19.6412L6.06258 19.6385C6.0657 19.6453 6.06801 19.6489 6.07022 19.6525L6.06891 19.6498C6.07654 19.6632 6.08287 19.6741 6.0901 19.6848L6.0888 19.683C6.09191 19.6885 6.09422 19.6916 6.09643 19.6947L6.09513 19.6929C6.12396 19.7339 6.1568 19.7694 6.19417 19.7996L6.19507 19.8005C6.19638 19.8014 6.19778 19.8032 6.19959 19.8045L6.19999 19.8049C6.28367 19.8711 6.38994 19.912 6.50556 19.9147H6.50596C6.50867 19.9151 6.51269 19.9151 6.51721 19.9151H10.6297H10.6369C10.9209 19.9151 11.1508 19.6851 11.1508 19.4012C11.1508 19.1172 10.9209 18.8873 10.6369 18.8873H10.6293H7.75932L10.9934 15.6527C11.0892 15.5591 11.1487 15.429 11.1487 15.2846C11.1487 15.0006 10.9188 14.7707 10.6348 14.7707C10.6299 14.7707 10.6245 14.7707 10.6196 14.7711H10.6205C10.4818 14.7751 10.3572 14.8337 10.2672 14.9259L7.0326 18.1605V15.2895V15.2828C7.0326 14.9988 6.80217 14.7689 6.51872 14.7689H6.51059H6.51099L6.51117 14.7695ZM19.8749 14.7695C19.594 14.774 19.3682 15.0021 19.3682 15.2833V15.291V15.2906V18.1616L16.1336 14.927C16.04 14.8306 15.9095 14.7713 15.7651 14.7713H15.7647C15.4813 14.7717 15.2512 15.0017 15.2512 15.2852C15.2512 15.4296 15.3111 15.5601 15.4069 15.6533L18.641 18.8879H15.7705H15.7633C15.4793 18.8879 15.2494 19.1178 15.2494 19.4018C15.2494 19.6857 15.4793 19.9156 15.7633 19.9156H15.7709H19.8821C19.9361 19.9156 19.9888 19.9071 20.0378 19.8913L20.0342 19.8922C20.0373 19.8909 20.0378 19.8904 20.0382 19.8904L20.0355 19.8917C20.0549 19.8859 20.0705 19.8801 20.0863 19.8732L20.0832 19.8745C20.0872 19.8727 20.0881 19.8723 20.089 19.8718L20.0863 19.8731C20.1039 19.8655 20.1183 19.8583 20.1322 19.8506L20.1295 19.8519C20.1317 19.8506 20.1322 19.8497 20.1326 19.8497L20.1313 19.8506C20.1578 19.8358 20.1803 19.8209 20.2015 19.8043L20.2006 19.8052C20.2083 19.7994 20.2141 19.7944 20.2204 19.7891L20.2195 19.7895C20.2312 19.7795 20.2416 19.7697 20.2515 19.7593C20.2519 19.7589 20.2524 19.7584 20.2528 19.758C20.2753 19.7346 20.2959 19.709 20.3135 19.6811L20.3148 19.6789C20.3135 19.6816 20.3139 19.6811 20.3139 19.6811L20.3152 19.6784C20.3229 19.6667 20.3314 19.6523 20.339 19.6374L20.3403 19.6347C20.339 19.6374 20.3394 19.6369 20.3394 19.6369L20.3407 19.6342C20.3547 19.6072 20.3673 19.5757 20.3763 19.5429L20.3772 19.5393C20.3768 19.542 20.3768 19.5415 20.3768 19.5406L20.3777 19.5369C20.3881 19.5001 20.3944 19.4582 20.3953 19.4145V19.4141C20.3957 19.4114 20.3957 19.4074 20.3957 19.4028V15.2904V15.2836C20.3957 14.9997 20.1658 14.7698 19.8818 14.7698H19.8737H19.8741L19.8749 14.7695Z" fill="white"/>
</svg>
