<svg width="12" height="12" viewBox="0 0 12 12" fill="none" xmlns="http://www.w3.org/2000/svg">
<path d="M10.4241 11.0383H2.10065C1.91107 11.0383 1.75385 10.8811 1.75385 10.6915C1.75385 10.5019 1.91107 10.3447 2.10065 10.3447H10.4241C10.6136 10.3447 10.7709 10.5019 10.7709 10.6915C10.7709 10.8811 10.6136 11.0383 10.4241 11.0383Z" fill="white"/>
<path d="M9.50829 2.47545C8.61121 1.57837 7.73263 1.55525 6.81243 2.47545L6.25291 3.03497C6.20667 3.08121 6.18818 3.1552 6.20667 3.21993C6.55811 4.44532 7.53842 5.42564 8.76381 5.77707C8.7823 5.78169 8.8008 5.78632 8.8193 5.78632C8.87016 5.78632 8.9164 5.76782 8.9534 5.73083L9.50829 5.17131C9.96608 4.71815 10.188 4.27886 10.188 3.83494C10.1927 3.37715 9.9707 2.93324 9.50829 2.47545Z" fill="white"/>
<path d="M7.93164 6.1971C7.79754 6.13236 7.66806 6.06762 7.54321 5.99364C7.44148 5.93352 7.34437 5.86879 7.24727 5.79943C7.16866 5.74856 7.07618 5.67457 6.98832 5.60059C6.97907 5.59596 6.9467 5.56822 6.90971 5.53123C6.75711 5.40175 6.58602 5.23528 6.43342 5.05032C6.41955 5.04107 6.39643 5.0087 6.36406 4.96709C6.31782 4.9116 6.23921 4.81911 6.16985 4.71276C6.11436 4.6434 6.04962 4.54167 5.98951 4.43994C5.91552 4.31509 5.85079 4.19023 5.78605 4.06076C5.70117 3.87888 5.46245 3.82484 5.32052 3.96677L2.72026 6.56703C2.66015 6.62714 2.60466 6.74274 2.59079 6.82135L2.34108 8.59239C2.29484 8.90683 2.3827 9.20277 2.57691 9.40161C2.74338 9.56345 2.97459 9.65131 3.22429 9.65131C3.27978 9.65131 3.33527 9.64669 3.39076 9.63744L5.16642 9.38774C5.24965 9.37386 5.36525 9.31837 5.42074 9.25826L8.02529 6.65371C8.16438 6.51462 8.11212 6.27531 7.93164 6.1971Z" fill="white"/>
</svg>
