<svg width="25" height="25" viewBox="0 0 25 25" fill="none" xmlns="http://www.w3.org/2000/svg">
<path d="M17.4258 4.00293H7.42578C4.42578 4.00293 2.42578 5.50293 2.42578 9.00293V16.0029C2.42578 19.5029 4.42578 21.0029 7.42578 21.0029H17.4258C20.4258 21.0029 22.4258 19.5029 22.4258 16.0029V9.00293C22.4258 5.50293 20.4258 4.00293 17.4258 4.00293ZM17.8958 10.0929L14.7658 12.5929C14.1058 13.1229 13.2658 13.3829 12.4258 13.3829C11.5858 13.3829 10.7358 13.1229 10.0858 12.5929L6.95578 10.0929C6.63578 9.83293 6.58578 9.35293 6.83578 9.03293C7.09578 8.71293 7.56578 8.65293 7.88578 8.91293L11.0158 11.4129C11.7758 12.0229 13.0658 12.0229 13.8258 11.4129L16.9558 8.91293C17.2758 8.65293 17.7558 8.70293 18.0058 9.03293C18.2658 9.35293 18.2158 9.83293 17.8958 10.0929Z" fill="white"/>
</svg>
