<svg width="118" height="123" viewBox="0 0 118 123" fill="none" xmlns="http://www.w3.org/2000/svg">
<path d="M64.1864 109.412C90.1745 109.412 111.242 88.3444 111.242 62.3563C111.242 36.3683 90.1745 15.3008 64.1864 15.3008C38.1984 15.3008 17.1309 36.3683 17.1309 62.3563C17.1309 88.3444 38.1984 109.412 64.1864 109.412Z" fill="#202020"/>
<path fill-rule="evenodd" clip-rule="evenodd" d="M67.5742 56.3558C69.8289 56.6316 85.901 56.4424 89.5337 56.4354C93.2106 56.4283 94.9975 58.1486 95.0729 61.8833C95.1424 65.3039 94.809 69.4839 95.1318 72.7832C99.3619 73.0677 104.611 72.4344 104.587 80.7603C104.573 85.5501 105.572 93.4854 102.904 96.4983C100.024 99.751 92.7251 98.6287 87.6932 98.6416C80.3017 98.6605 79.1151 96.4312 78.7387 90.2521L67.619 90.2238L67.5807 102.109L115.66 102.167L115.773 35.7491L67.6267 35.7402L67.5742 56.3558Z" fill="#050505"/>
<path fill-rule="evenodd" clip-rule="evenodd" d="M67.9345 108.628C67.393 107.275 67.4413 105.219 67.654 103.634L115.667 103.647C115.894 105.014 115.881 107.463 115.453 108.53C114.023 109.13 70.2746 109.281 67.9345 108.628ZM80.3055 90.2159C82.9419 90.2088 85.5802 90.2153 88.2166 90.2171C91.2036 90.2188 92.6541 90.3231 94.0327 88.4031C96.2132 85.3666 94.4186 78.3516 95.1704 74.3595C101.136 74.1197 103.106 75.5307 103.094 81.5454C103.061 98.3032 104.474 97.1431 88.4782 97.1479C82.8159 97.1496 79.9096 96.5104 80.3055 90.2159ZM46.8687 58.1925C48.3522 57.5351 81.4514 57.9357 86.1204 57.9357C94.8558 57.9357 93.5732 57.8868 93.5803 70.5412C93.5826 73.8599 93.5785 77.1791 93.5785 80.4978C93.5785 83.4884 94.0946 87.4669 91.7268 88.4608C90.2068 89.0989 56.9321 88.7265 52.3196 88.7265C48.8 88.7271 45.6174 89.5007 44.9493 85.994C44.6553 84.4499 44.8544 69.0288 44.8544 66.0866C44.8544 62.7673 44.2087 59.3714 46.8687 58.1925ZM67.6258 35.74L115.772 35.7488L115.659 102.167L67.5798 102.109L67.6181 90.2236L78.7377 90.2518C79.1142 96.4309 80.3008 98.6602 87.6923 98.6414C92.7242 98.6284 100.023 99.7507 102.903 96.498C105.571 93.4851 104.572 85.5498 104.586 80.76C104.61 72.4341 99.361 73.0675 95.1309 72.7829C94.808 69.4836 95.1415 65.3036 95.072 61.883C94.9966 58.1484 93.2097 56.428 89.5328 56.4351C85.9001 56.4422 69.828 56.6313 67.5733 56.3556L67.6258 35.74ZM67.6599 34.2276C67.284 31.8091 67.2198 30.3097 69.613 30.3133L113.108 30.3139C114.698 30.3139 116.647 30.0482 115.628 34.2653L67.6599 34.2276ZM66.17 108.04C66.6324 110.797 69.58 110.348 72.2329 110.348H106.296C118.986 110.348 117.259 112.803 117.259 95.695L117.26 36.2166C117.262 33.1954 117.888 30.3027 115.764 29.1415C113.966 28.6489 81.8903 28.8492 77.2113 28.8492C65.1059 28.8492 66.0704 27.5938 66.0869 37.2647C66.0981 43.6116 66.0845 49.9597 66.0875 56.3067C61.9393 57.3512 50.1904 55.5143 46.5518 56.6472C43.8806 57.4791 43.3545 60.1462 43.3674 63.4666L43.371 83.3806C43.3692 86.7063 43.8764 89.3057 46.6802 90.0421C49.2731 90.7238 62.9214 89.7246 66.0757 90.3119L66.17 108.04Z" fill="#CC0000"/>
<path fill-rule="evenodd" clip-rule="evenodd" d="M47.6402 86.2244C47.2048 84.239 47.2178 62.0056 47.7398 60.7271C48.8221 60.4655 68.8409 60.2316 69.3505 60.8844C69.714 61.9573 69.6268 85.2129 69.3104 86.2191C68.0473 86.6068 48.9316 86.6097 47.6402 86.2244ZM76.425 66.7282C74.664 66.7223 73.2018 66.7064 72.4889 65.5646C71.8432 64.5301 71.9693 62.3343 72.6055 61.4718C73.6849 60.0089 79.0202 60.5633 81.4033 60.5633C83.6256 60.5633 88.9916 59.9412 90.3219 61.3652C91.0731 62.1694 92.4959 66.7247 87.692 66.7282H76.425ZM46.8684 58.1932C44.2084 59.3721 44.8541 62.7679 44.8541 66.0872C44.8541 69.0294 44.655 84.4505 44.949 85.9947C45.6171 89.5013 48.7997 88.7277 52.3193 88.7271C56.9317 88.7271 90.2065 89.0995 91.7265 88.4614C94.0943 87.4675 93.5782 83.489 93.5782 80.4985C93.5782 77.1798 93.5823 73.8605 93.5799 70.5418C93.5729 57.8874 94.8555 57.9363 86.1201 57.9363C81.4511 57.9363 48.3519 57.5357 46.8684 58.1932Z" fill="#141414"/>
<path d="M73.7383 71.3066H89.2263" stroke="white" stroke-width="2" stroke-linecap="round"/>
<path d="M73.7383 75.958H89.2263" stroke="white" stroke-width="2" stroke-linecap="round"/>
<path d="M73.7383 80.4277H89.2263" stroke="white" stroke-width="2" stroke-linecap="round"/>
<path fill-rule="evenodd" clip-rule="evenodd" d="M80.3052 90.2175C79.9093 96.512 82.8156 97.1512 88.478 97.1494C104.473 97.1447 103.061 98.3048 103.094 81.5469C103.106 75.5323 101.135 74.1212 95.1701 74.361C94.4184 78.3531 96.2129 85.3682 94.0325 88.4046C92.6539 90.3247 91.2034 90.2204 88.2164 90.2186C85.5799 90.2169 82.9417 90.2104 80.3052 90.2175Z" fill="#CC0000"/>
<path fill-rule="evenodd" clip-rule="evenodd" d="M90.5738 105.491C91.5229 105.493 94.4516 105.198 94.8816 105.851C96.1519 107.782 89.6411 106.92 89.2087 106.794C89.191 105.552 89.3695 105.49 90.5738 105.491ZM67.9338 108.628C70.2739 109.281 114.023 109.13 115.452 108.53C115.881 107.463 115.894 105.014 115.666 103.647L67.6534 103.634C67.4407 105.219 67.3924 107.275 67.9338 108.628Z" fill="#141414"/>
<path fill-rule="evenodd" clip-rule="evenodd" d="M49.233 84.8765C49.3102 83.2098 49.7803 79.3597 51.3469 78.7469C53.9091 77.746 56.0483 78.5808 56.6764 75.9579C58.617 76.4563 58.3142 76.4734 60.2714 75.9602C61.0479 78.7564 63.3049 77.6523 65.8047 78.8165C67.1568 79.4463 67.6104 82.9682 67.7336 84.8994L49.233 84.8765ZM57.7086 64.8865C60.2808 64.0717 61.8591 66.8991 61.9334 68.9941C62.0135 71.2423 60.6284 74.151 59.2686 74.6523C55.4344 76.0651 52.9205 66.4024 57.7086 64.8865ZM48.9408 62.0492L68.0317 62.0869L67.971 78.6403C65.9449 76.4787 64.3295 77.4614 61.9234 76.1346C61.3059 74.3283 62.245 73.9194 62.8136 72.3859C63.3067 71.0567 63.5789 69.5008 63.3108 67.9507C61.8368 59.4233 50.5192 63.6075 54.2114 72.5673C54.8158 74.0343 55.6695 74.3477 55.0491 76.1488C52.7662 77.535 51.5231 76.2955 48.9555 78.645L48.9408 62.0492ZM47.6406 86.225C48.932 86.6103 68.0476 86.6074 69.3107 86.2197C69.6271 85.2135 69.7143 61.9579 69.3508 60.885C68.8412 60.2322 48.8224 60.4661 47.7401 60.7277C47.2181 62.0062 47.2052 84.2396 47.6406 86.225Z" fill="white"/>
<path fill-rule="evenodd" clip-rule="evenodd" d="M67.6591 34.2286L115.627 34.2663C116.646 30.0491 114.697 30.3149 113.107 30.3149L69.6122 30.3143C67.219 30.3107 67.2832 31.8101 67.6591 34.2286Z" fill="#141414"/>
<path fill-rule="evenodd" clip-rule="evenodd" d="M48.9561 78.6447C51.5237 76.2951 52.7668 77.5347 55.0497 76.1484C55.6701 74.3474 54.8164 74.034 54.212 72.567C50.5197 63.6071 61.8374 59.423 63.3114 67.9504C63.5795 69.5004 63.3073 71.0564 62.8142 72.3855C62.2456 73.9191 61.3065 74.3279 61.924 76.1343C64.3301 77.461 65.9455 76.4783 67.9716 78.6399L68.0323 62.0865L48.9414 62.0488L48.9561 78.6447Z" fill="#141414"/>
<path fill-rule="evenodd" clip-rule="evenodd" d="M49.2324 84.8766L67.733 84.8996C67.6098 82.9683 67.1562 79.4464 65.8041 78.8166C63.3043 77.6524 61.0473 78.7565 60.2708 75.9604C58.3136 76.4735 58.6164 76.4564 56.6758 75.958C56.0477 78.5809 53.9085 77.7461 51.3463 78.7471C49.7797 79.3598 49.3096 83.2099 49.2324 84.8766Z" fill="#CC0000"/>
<path fill-rule="evenodd" clip-rule="evenodd" d="M5.60722 76.8181C6.33659 82.7779 11.8316 87.9059 18.862 87.1223C25.0274 86.4354 30.0723 80.6894 29.267 73.8493C28.5718 67.9466 22.956 62.5706 16.0535 63.4467C9.85913 64.2326 4.74352 69.7541 5.60722 76.8181Z" fill="#CC0000"/>
<path fill-rule="evenodd" clip-rule="evenodd" d="M5.60802 76.8182C4.74432 69.7542 9.85993 64.2327 16.0543 63.4468C22.9568 62.5707 28.5726 67.9467 29.2678 73.8494C30.0731 80.6895 25.0282 86.4355 18.8628 87.1224C11.8324 87.906 6.33739 82.778 5.60802 76.8182ZM25.1019 86.5457C25.5054 85.9465 26.8888 85.0893 28.0046 83.6676C28.8047 82.6484 29.504 81.3717 30.0513 79.9448C31.2361 76.8547 31.0994 73.1825 29.9217 70.2544C27.8485 65.1005 22.8554 61.2981 15.5022 61.9214C11.1189 62.7816 8.04298 64.935 6.25373 67.7028C1.32017 75.3347 4.75257 84.9844 12.5688 87.8883C14.6868 88.6754 17.0063 88.9948 19.5008 88.6189C22.2633 88.2024 23.1388 87.2727 25.1019 86.5457Z" fill="#D0D0D0"/>
<path fill-rule="evenodd" clip-rule="evenodd" d="M75.6401 65.2192C78.7839 65.2127 81.9288 65.2198 85.0731 65.2198C86.2331 65.2192 88.6963 65.5951 89.2873 64.7956C90.4072 63.2791 89.3415 62.049 87.4503 62.029C84.3166 61.9948 81.1393 62.0508 77.9979 62.0472C76.7419 62.0461 74.2427 61.6861 73.7266 62.591C73.4632 63.0535 73.5092 64.1776 73.7177 64.6071C74.0583 65.3094 74.8071 65.2151 75.6401 65.2192Z" fill="#0A52BE"/>
<path fill-rule="evenodd" clip-rule="evenodd" d="M87.4495 62.0288C89.3407 62.0489 90.4065 63.279 89.2865 64.7955C88.6956 65.595 86.2324 65.2191 85.0723 65.2197C81.928 65.2197 78.7831 65.2126 75.6394 65.2191C74.8063 65.215 74.0575 65.3092 73.717 64.607C73.5084 64.1775 73.4625 63.0534 73.7258 62.5909C74.2419 61.6859 76.7411 62.0459 77.9972 62.0471C81.1385 62.0506 84.3158 61.9947 87.4495 62.0288ZM76.4253 66.7279H87.6923C92.4962 66.7244 91.0734 62.1691 90.3222 61.3649C88.9919 59.9409 83.6259 60.563 81.4037 60.563C79.0205 60.563 73.6852 60.0086 72.6059 61.4715C71.9696 62.334 71.8435 64.5298 72.4892 65.5643C73.2021 66.7061 74.6643 66.722 76.4253 66.7279Z" fill="white"/>
<path fill-rule="evenodd" clip-rule="evenodd" d="M57.7089 64.8857C52.9209 66.4016 55.4348 76.0643 59.269 74.6515C60.6288 74.1502 62.0139 71.2415 61.9337 68.9933C61.8595 66.8983 60.2812 64.0709 57.7089 64.8857Z" fill="#CC0000"/>
<path fill-rule="evenodd" clip-rule="evenodd" d="M49.7121 107.423C46.6314 108.541 48.4908 112.767 51.2999 111.724C53.835 110.783 52.7003 106.339 49.7121 107.423Z" fill="#F6FAFA"/>
<path fill-rule="evenodd" clip-rule="evenodd" d="M39.1535 111.035C39.8475 116.709 45.0792 121.59 51.7719 120.845C57.6411 120.191 62.4438 114.72 61.6773 108.208C61.0151 102.589 55.6692 97.4717 49.0984 98.3054C43.2009 99.0536 38.331 104.31 39.1535 111.035Z" fill="#CC0000"/>
<path fill-rule="evenodd" clip-rule="evenodd" d="M39.1539 111.035C38.3314 104.311 43.2014 99.0542 49.0988 98.306C55.6696 97.4724 61.0156 102.59 61.6778 108.209C62.4443 114.72 57.6415 120.191 51.7724 120.845C45.0796 121.591 39.8479 116.709 39.1539 111.035ZM57.7116 120.296C58.0957 119.726 59.4125 118.909 60.4753 117.556C61.2371 116.586 61.9028 115.37 62.4236 114.012C63.5513 111.07 63.4211 107.574 62.2999 104.787C60.3262 99.8808 55.573 96.2605 48.5727 96.8537C44.4003 97.6727 41.4722 99.7223 39.7684 102.358C35.0717 109.623 38.3397 118.809 45.7807 121.574C47.7968 122.323 50.0049 122.627 52.3798 122.269C55.0091 121.873 55.8428 120.988 57.7116 120.296Z" fill="#D0D0D0"/>
<path fill-rule="evenodd" clip-rule="evenodd" d="M15.825 33.0986C16.6363 39.7283 22.7487 45.4325 30.5691 44.5611C37.4269 43.797 43.0391 37.4047 42.1436 29.7964C41.3701 23.2303 35.1227 17.2504 27.4449 18.2248C20.5541 19.0991 14.8641 25.241 15.825 33.0986Z" fill="#CC0000"/>
<path fill-rule="evenodd" clip-rule="evenodd" d="M15.8248 33.1001C14.8639 25.2425 20.554 19.1006 27.4447 18.2263C35.1225 17.2519 41.3699 23.2318 42.1434 29.7979C43.0389 37.4062 37.4267 43.7985 30.569 44.5626C22.7486 45.4339 16.6361 39.7298 15.8248 33.1001ZM37.5092 43.9204C37.9581 43.2541 39.4964 42.3008 40.7383 40.719C41.6279 39.5848 42.4062 38.1656 43.0142 36.5778C44.3321 33.1407 44.1807 29.0555 42.8704 25.7987C40.5645 20.0662 35.01 15.8361 26.8308 16.5296C21.955 17.4863 18.5338 19.8813 16.543 22.9602C11.0551 31.4498 14.8734 42.1836 23.5681 45.4139C25.9235 46.2894 28.504 46.6447 31.2789 46.2264C34.3513 45.7639 35.3252 44.7287 37.5092 43.9204Z" fill="#D0D0D0"/>
<path d="M52.5988 106.955C52.3745 106.955 52.1885 106.755 52.1885 106.513V104.452C52.1885 103.815 51.822 103.421 51.2313 103.421H49.5903C48.9995 103.421 48.633 103.815 48.633 104.452V106.513C48.633 106.755 48.447 106.955 48.2228 106.955C47.9985 106.955 47.8125 106.755 47.8125 106.513V104.452C47.8125 103.326 48.5455 102.537 49.5903 102.537H51.2313C52.276 102.537 53.009 103.326 53.009 104.452V106.513C53.009 106.755 52.823 106.955 52.5988 106.955Z" fill="white"/>
<path d="M48.2219 112.275C47.9977 112.275 47.8117 112.074 47.8117 111.833C47.8117 111.585 47.9977 111.391 48.2219 111.391H54.6547C54.8188 111.391 54.9446 111.238 54.9282 111.061L54.5562 107.709C54.4249 106.567 54.2389 105.63 52.3791 105.63H48.4407C46.5809 105.63 46.395 106.567 46.2691 107.709L45.7768 112.127C45.6182 113.577 46.0339 114.761 47.9539 114.761H52.866C54.5945 114.761 55.1032 113.8 55.0758 112.552C55.0704 112.392 54.95 112.275 54.8023 112.275H48.2219Z" fill="white"/>
<path d="M16.4027 79.8181H14.8879C14.1473 79.8181 13.5414 80.424 13.5414 81.1645V81.3328H12.8682C12.5922 81.3328 12.3633 81.5617 12.3633 81.8378C12.3633 82.1138 12.5922 82.3427 12.8682 82.3427H20.947C21.223 82.3427 21.4519 82.1138 21.4519 81.8378C21.4519 81.5617 21.223 81.3328 20.947 81.3328H20.2737V81.1645C20.2737 80.424 19.6678 79.8181 18.9273 79.8181H17.4125V78.2764C17.2442 78.2966 17.0759 78.3033 16.9076 78.3033C16.7393 78.3033 16.571 78.2966 16.4027 78.2764V79.8181Z" fill="white"/>
<path d="M21.2696 75.3689C21.714 75.2005 22.1044 74.9245 22.4141 74.6148C23.0402 73.9214 23.4509 73.0933 23.4509 72.1239C23.4509 71.1544 22.6901 70.3937 21.7207 70.3937H21.3437C20.9061 69.4983 19.9905 68.8789 18.9268 68.8789H14.8874C13.8237 68.8789 12.9081 69.4983 12.4705 70.3937H12.0935C11.124 70.3937 10.3633 71.1544 10.3633 72.1239C10.3633 73.0933 10.774 73.9214 11.4001 74.6148C11.7097 74.9245 12.1002 75.2005 12.5445 75.3689C13.2447 77.0923 14.9278 78.3041 16.9071 78.3041C18.8864 78.3041 20.5695 77.0923 21.2696 75.3689ZM18.8191 73.2212L18.4017 73.7329C18.3343 73.807 18.2872 73.9551 18.2939 74.0561L18.3343 74.7158C18.3613 75.1198 18.0718 75.3285 17.6948 75.1803L17.0821 74.938C16.9879 74.9043 16.8263 74.9043 16.732 74.938L16.1194 75.1803C15.7424 75.3285 15.4529 75.1198 15.4798 74.7158L15.5202 74.0561C15.527 73.9551 15.4798 73.807 15.4125 73.7329L14.9951 73.2212C14.7326 72.9116 14.847 72.5682 15.2375 72.4672L15.877 72.3057C15.978 72.2787 16.0992 72.1845 16.1531 72.097L16.5099 71.5449C16.732 71.2016 17.0821 71.2016 17.3043 71.5449L17.6611 72.097C17.715 72.1845 17.8361 72.2787 17.9371 72.3057L18.5767 72.4672C18.9672 72.5682 19.0816 72.9116 18.8191 73.2212Z" fill="white"/>
<path d="M22.1833 31.386L35.7347 31.386" stroke="white" stroke-width="2" stroke-linecap="round" stroke-linejoin="round"/>
<path d="M28.959 38.1617L28.959 24.6104" stroke="white" stroke-width="2" stroke-linecap="round" stroke-linejoin="round"/>
<path fill-rule="evenodd" clip-rule="evenodd" d="M40.2095 11.7381C41.2592 12.3442 41.5247 11.8338 43.5977 11.0618L51.1987 8.73386C51.6335 8.62831 52.3961 8.5589 52.7154 8.00581C53.1313 7.28544 52.8289 6.38514 51.87 6.23678C51.338 6.15427 46.0166 7.6598 45.0867 7.96872C44.7506 8.08019 44.5033 8.22562 44.1358 8.34251L41.3265 9.41043C40.8392 9.6341 39.7573 9.83487 39.7698 10.8104C39.774 11.101 39.885 11.5508 40.2095 11.7381Z" fill="#D0D0D0"/>
<path fill-rule="evenodd" clip-rule="evenodd" d="M57.3604 6.06104C56.8993 8.03078 59.251 7.51467 60.0662 7.46304C61.3185 7.38341 62.4601 7.34041 63.6883 7.34191L67.3806 7.4773C68.0063 7.53071 68.5761 7.5777 69.2549 7.65074C71.3234 7.87271 71.5256 5.63026 69.8316 5.32686C67.4846 4.90717 63.1693 5.00742 60.618 5.05174C59.3586 5.07304 57.6039 5.01891 57.3604 6.06104Z" fill="#D0D0D0"/>
<path fill-rule="evenodd" clip-rule="evenodd" d="M83.1949 113.474C82.3475 112.996 82.018 113.344 81.3365 113.631L78.7637 114.519C78.4299 114.609 78.1909 114.68 77.8462 114.769L76.081 115.262C75.777 115.348 75.5332 115.43 75.2307 115.502L72.56 116.038C69.5375 116.336 70.4935 118.044 70.9591 118.365C71.4602 118.711 71.9718 118.533 72.7978 118.412C74.4743 118.167 79.1342 116.947 80.7526 116.351C81.3504 116.131 83.0457 115.573 83.3554 115.285C83.9664 114.718 83.8416 113.84 83.1949 113.474Z" fill="#D0D0D0"/>
<path fill-rule="evenodd" clip-rule="evenodd" d="M8.13421 44.2851C7.33505 45.2197 5.61689 52.9401 5.40238 55.2453C5.33383 55.9796 5.12306 56.4124 5.65247 56.9895C6.13025 57.5107 6.88309 57.4529 7.32383 56.9751C7.79484 56.4651 7.8915 54.4976 8.08296 53.404C8.47021 51.1919 9.14942 48.3515 9.84922 46.1883C10.0559 45.5489 10.3171 44.9462 9.87039 44.3907C9.41942 43.8296 8.55279 43.7956 8.13421 44.2851Z" fill="#D0D0D0"/>
<path fill-rule="evenodd" clip-rule="evenodd" d="M75.3264 7.51722C75.2079 8.94409 76.7425 8.90732 77.9024 9.22985C80.5167 9.95781 82.5756 10.6549 85.0927 11.7036C86.2794 12.1987 87.8546 13.3131 88.3315 11.5159C88.6431 10.3395 86.5478 9.75183 85.5322 9.33587C84.2467 8.81048 83.0978 8.38195 81.8512 7.96067C80.6751 7.56281 79.5385 7.24898 78.3428 6.91364C77.4305 6.65868 75.4583 5.92446 75.3264 7.51722Z" fill="#D0D0D0"/>
<path fill-rule="evenodd" clip-rule="evenodd" d="M29.1434 107.425C29.901 106.236 28.4371 105.539 27.6226 104.891C25.7325 103.387 24.3628 102.134 22.654 100.428C22.2328 100.008 20.7979 98.3411 20.4635 98.1281C19.6105 97.5846 17.6732 98.4697 19.3224 100.332C21.4409 102.724 24.6628 105.645 27.2884 107.61C27.9799 108.127 28.6804 108.152 29.1434 107.425Z" fill="#D0D0D0"/>
<path fill-rule="evenodd" clip-rule="evenodd" d="M94.4259 13.9L93.4752 13.3511C92.975 13.4 92.5266 13.3265 92.1615 13.9262C91.3654 15.2329 93.2261 15.9278 94.1011 16.5288C94.6533 16.9081 95.2136 17.2708 95.7045 17.6148C96.9927 18.5163 98.8479 19.9605 100.043 21.0284C100.465 21.4057 100.95 21.8808 101.381 22.2169C102.577 23.1507 103.782 21.8186 103.219 20.8012C102.793 20.0301 98.5585 16.7823 97.63 16.0971C97.2696 15.8317 94.5268 14.0462 94.4259 13.9Z" fill="#D0D0D0"/>
</svg>
