<svg width="19" height="18" viewBox="0 0 19 18" fill="none" xmlns="http://www.w3.org/2000/svg">
<path d="M14.4455 3.19238H6.4455C4.0455 3.19238 2.4455 4.412 2.4455 7.25777V12.9493C2.4455 15.7951 4.0455 17.0147 6.4455 17.0147H14.4455C16.8455 17.0147 18.4455 15.7951 18.4455 12.9493V7.25777C18.4455 4.412 16.8455 3.19238 14.4455 3.19238ZM14.8215 8.14402L12.3175 10.1767C11.7895 10.6076 11.1175 10.819 10.4455 10.819C9.7735 10.819 9.0935 10.6076 8.5735 10.1767L6.0695 8.14402C5.8135 7.93262 5.7735 7.54234 5.9735 7.28216C6.1815 7.02197 6.5575 6.97319 6.8135 7.18459L9.3175 9.21728C9.9255 9.71326 10.9575 9.71326 11.5655 9.21728L14.0695 7.18459C14.3255 6.97319 14.7095 7.01384 14.9095 7.28216C15.1175 7.54234 15.0775 7.93262 14.8215 8.14402Z" fill="#CC0000"/>
</svg>
