<svg width="121" height="130" viewBox="0 0 121 130" fill="none" xmlns="http://www.w3.org/2000/svg">
<path d="M60.3816 113.493C84.8011 113.493 104.597 93.6973 104.597 69.2779C104.597 44.8584 84.8011 25.0625 60.3816 25.0625C35.9621 25.0625 16.1662 44.8584 16.1662 69.2779C16.1662 93.6973 35.9621 113.493 60.3816 113.493Z" fill="#202020"/>
<path fill-rule="evenodd" clip-rule="evenodd" d="M84.0464 61.5C92.6274 61.5 99.5834 68.4559 99.5834 77.037C99.5834 85.6174 92.6274 92.574 84.0464 92.574C75.4653 92.574 68.5094 85.6174 68.5094 77.037C68.5094 68.4559 75.4653 61.5 84.0464 61.5V61.5Z" stroke="#CC0000" stroke-width="1.5" stroke-miterlimit="2.61313" stroke-linecap="round" stroke-linejoin="round" stroke-dasharray="8 8"/>
<path fill-rule="evenodd" clip-rule="evenodd" d="M94.2394 22.0209C94.2394 23.2715 94.8324 23.2456 96.5919 24.6998L102.594 30.2913C102.913 30.6253 103.368 31.271 104.027 31.271C104.885 31.271 105.534 30.5362 105.172 29.6028C104.971 29.0848 100.88 25.1061 100.124 24.4345C99.8512 24.1916 99.5937 24.0457 99.2996 23.7776L96.8958 21.8181C96.4445 21.498 95.7069 20.6348 94.8416 21.1492C94.584 21.3029 94.2394 21.6342 94.2394 22.0209Z" fill="#D0D0D0"/>
<path fill-rule="evenodd" clip-rule="evenodd" d="M106.484 104.212C105.862 104.34 105.691 104.594 105.328 105.067C105.194 105.242 105.176 105.259 105.023 105.451C104.617 105.956 104.185 106.371 103.808 106.911C103.219 107.753 99.2765 111.533 98.4827 112.291C97.9641 112.786 97.3668 112.894 97.3275 113.781C97.2959 114.491 97.943 115.172 98.7368 115.036C99.4 114.922 99.8969 114.284 100.306 113.913C100.555 113.687 100.693 113.5 100.981 113.299C102.047 112.553 105.342 108.96 106.211 107.826C106.698 107.193 107.804 106.237 107.831 105.426C107.854 104.736 107.202 104.065 106.484 104.212Z" fill="#D0D0D0"/>
<path fill-rule="evenodd" clip-rule="evenodd" d="M108.161 34.4186C106.163 35.0228 107.837 36.8581 108.304 37.56C109.021 38.638 109.649 39.636 110.281 40.7343L112.065 44.1038C112.34 44.6906 112.592 45.224 112.877 45.8682C113.746 47.8313 115.854 46.855 115.252 45.1847C114.416 42.8707 112.1 39.0661 110.744 36.809C110.075 35.6945 109.218 34.0985 108.161 34.4186Z" fill="#D0D0D0"/>
<path fill-rule="evenodd" clip-rule="evenodd" d="M57.0901 129.029H57.7049C58.0797 128.836 58.0986 128.976 58.4004 128.595C58.8819 127.988 58.7892 126.744 57.5196 126.588C54.2982 126.191 53.277 126.381 49.5552 125.624L45.8524 124.854C44.4768 124.912 44.2571 126.762 45.5871 127.213C47.3732 127.819 51.1294 128.377 53.0897 128.636C53.522 128.693 57.0494 129.008 57.0901 129.029Z" fill="#D0D0D0"/>
<path fill-rule="evenodd" clip-rule="evenodd" d="M24.3454 114.563C24.3454 113.558 23.8654 113.439 23.2618 112.972L21.1577 111.112C20.9072 110.858 20.7226 110.679 20.4678 110.414L19.1287 109.079C18.8971 108.849 18.6999 108.672 18.4817 108.437L16.6443 106.309C14.8427 103.745 13.7934 105.471 13.7415 106.052C13.6846 106.678 14.1043 107.047 14.6321 107.728C15.7031 109.11 19.1645 112.677 20.5212 113.829C21.0223 114.254 22.3838 115.494 22.8 115.626C23.6198 115.887 24.3454 115.329 24.3454 114.563Z" fill="#D0D0D0"/>
<path fill-rule="evenodd" clip-rule="evenodd" d="M115.309 87.9653C114.328 88.2903 114.174 89.7571 113.514 91.2576C112.526 93.5013 111.406 95.9311 110.159 98.0078C109.913 98.4177 109.344 99.1995 109.407 99.775C109.482 100.454 110.055 100.968 110.956 100.802C111.617 100.682 111.768 100.052 112.124 99.4683C112.465 98.9076 112.744 98.4198 113.069 97.8415C113.757 96.6189 116.989 90.0322 116.835 88.9086C116.739 88.2088 116.083 87.7098 115.309 87.9653Z" fill="#D0D0D0"/>
<path fill-rule="evenodd" clip-rule="evenodd" d="M82.5216 124.752C83.7906 124.752 90.9977 120.922 92.9495 119.544C93.5713 119.106 94.052 118.981 94.1496 118.179C94.238 117.454 93.6878 116.903 93.0175 116.877C92.3017 116.85 90.6938 118.094 89.7077 118.677C87.7131 119.857 85.03 121.229 82.8641 122.131C82.2241 122.397 81.5763 122.597 81.4401 123.32C81.3026 124.049 81.857 124.752 82.5216 124.752Z" fill="#D0D0D0"/>
<path fill-rule="evenodd" clip-rule="evenodd" d="M27.6349 118.427C27.6349 119.605 28.4813 119.866 29.965 120.737C30.9454 121.312 31.8592 121.853 32.8944 122.367C33.8798 122.856 38.321 125.106 39.2123 125.106C39.9976 125.106 40.418 124.654 40.418 123.877C40.418 122.721 39.0263 122.574 37.3953 121.83C34.9564 120.718 33.0095 119.774 30.6921 118.326C30.3447 118.109 29.4288 117.48 29.0294 117.412C28.3409 117.294 27.6349 117.771 27.6349 118.427Z" fill="#D0D0D0"/>
<path fill-rule="evenodd" clip-rule="evenodd" d="M4.47168 89.8921C4.47168 91.5624 8.20963 98.512 9.52206 100.653C10.6927 102.562 12.2045 101.432 12.0599 100.305C12.0115 99.9318 11.3995 99.0229 11.1608 98.6144C9.57329 95.8955 8.1177 93.0658 6.99406 90.1026C6.68807 89.2962 6.50138 88.8105 5.61496 88.8105C5.05701 88.8105 4.47168 89.2632 4.47168 89.8921Z" fill="#D0D0D0"/>
<path fill-rule="evenodd" clip-rule="evenodd" d="M116.13 51.2264C114.794 51.8567 115.619 53.2091 115.929 54.412C116.627 57.1239 117.066 59.3234 117.428 62.1139C117.598 63.4299 117.415 65.4125 119.267 64.9114C120.479 64.583 119.923 62.4073 119.771 61.2851C119.577 59.8653 119.367 58.6174 119.1 57.286C118.849 56.0298 118.543 54.8521 118.226 53.6105C117.983 52.6638 117.622 50.5225 116.13 51.2264Z" fill="#D0D0D0"/>
<path fill-rule="evenodd" clip-rule="evenodd" d="M2.04759 65.9408C3.50249 65.9408 3.29755 64.2802 3.40985 63.212C3.67093 60.7332 4.00149 58.8466 4.53909 56.4134C4.67104 55.814 5.32585 53.6412 5.32585 53.232C5.32585 52.1884 3.48143 50.9932 2.77539 53.4608C1.86792 56.631 1.11205 61.0546 0.857989 64.429C0.791315 65.3175 1.15837 65.9408 2.04759 65.9408Z" fill="#D0D0D0"/>
<path fill-rule="evenodd" clip-rule="evenodd" d="M0.759033 71.3094V73.1418C0.853079 73.3777 1.08749 76.418 1.16399 77.004C1.33173 78.287 1.53105 79.4464 1.74511 80.6746C1.87003 81.3933 2.26236 83.5998 2.61257 84.0729C3.24983 84.934 5.05635 84.654 4.72017 82.8713C4.50471 81.7309 4.20011 80.61 3.97131 79.3376C3.56144 77.0581 3.47372 75.8986 3.25615 73.6998C3.12491 72.374 3.466 70.7458 2.13603 70.5682C1.2812 70.4545 1.13241 70.9191 0.759033 71.3094Z" fill="#D0D0D0"/>
<path fill-rule="evenodd" clip-rule="evenodd" d="M120.281 71.5867V70.454C119.979 70.0322 119.813 69.5935 119.089 69.5767C117.511 69.5395 117.85 71.5608 117.764 72.6528C117.71 73.342 117.675 74.0298 117.621 74.646C117.48 76.2623 117.147 78.6654 116.809 80.2845C116.69 80.8565 116.515 81.5345 116.437 82.0931C116.219 83.6435 118.032 84.033 118.651 83.0055C119.12 82.2272 119.837 76.7669 119.971 75.5836C120.022 75.1247 120.202 71.7523 120.281 71.5867Z" fill="#D0D0D0"/>
<path fill-rule="evenodd" clip-rule="evenodd" d="M77.1253 126.254C77.3955 125.694 77.0193 124.943 76.5281 124.714C75.9413 124.44 75.2858 124.75 74.7131 124.891C73.5467 125.177 72.2743 125.484 70.9864 125.708C69.6543 125.941 68.3959 126.139 66.9888 126.303C65.5002 126.478 63.8298 126.325 63.3778 127.227C63.0732 127.835 63.3821 128.579 63.8986 128.82C64.4081 129.058 65.3879 128.904 65.9873 128.841C67.3755 128.695 68.7153 128.539 70.0319 128.33C72.1107 128.001 73.6913 127.631 75.6824 127.143C76.4747 126.948 76.8018 126.927 77.1253 126.254Z" fill="#D0D0D0"/>
<path fill-rule="evenodd" clip-rule="evenodd" d="M77.6755 13.4993C77.6755 14.8574 78.6426 14.7802 80.7453 15.5732C82.8003 16.3481 85.8462 17.6858 87.6899 18.7336C88.0591 18.9434 88.9104 19.4789 89.3308 19.5744C89.8361 19.6895 90.738 19.3337 90.738 18.3546C90.738 17.5377 90.1548 17.3292 89.6003 17.0232L84.585 14.5072C83.8488 14.171 79.9305 12.5673 79.1192 12.4536C78.3401 12.3448 77.6755 12.7975 77.6755 13.4993Z" fill="#D0D0D0"/>
<path fill-rule="evenodd" clip-rule="evenodd" d="M54.9252 80.1863L35.8871 90.7096L42.6056 102.879L61.6689 92.3489L54.9252 80.1863Z" fill="white"/>
<path fill-rule="evenodd" clip-rule="evenodd" d="M63.2392 92.7216C62.478 93.6725 46.4497 102.214 43.2523 103.961C42.2191 104.527 42.0344 104.563 41.4029 103.45C40.1813 101.296 34.4843 91.0931 34.3771 90.2224C35.2219 89.2368 52.7205 79.959 55.3004 78.567C56.3948 79.6255 62.3531 90.8624 63.2392 92.7216ZM28.4881 101.526C28.6944 100.481 28.2249 100.273 28.814 99.0381C29.7308 97.1144 31.7484 96.3693 33.64 97.1685C38.5676 99.2504 34.4692 107.751 29.0662 102.68L25.8216 104.235C26.4571 107.056 28.5317 107.185 30.8362 107.917C37.7994 110.132 35.0795 110.221 43.0094 106.017L61.0677 96.1417C63.4882 94.7989 65.8814 94.5188 64.1752 91.529C63.0281 89.5199 62.0451 87.6562 60.9608 85.6536C55.6775 75.8959 56.5044 75.8528 52.6081 77.9745L28.531 91.1484C25.9308 92.5701 25.6034 96.3585 24.6193 100.068C24.2558 101.437 24.2238 101.807 25.1892 103.118L28.4881 101.526Z" fill="white"/>
<path fill-rule="evenodd" clip-rule="evenodd" d="M29.5769 100.634C29.9584 99.6018 30.0284 98.4926 31.7296 98.1454C34.3887 97.6019 35.7022 101.205 33.506 102.628C32.3647 103.366 31.3691 103.003 30.2073 102.134C30.934 101.663 32.2737 101.289 31.6096 100.489C31.1328 99.9156 31.0327 100.567 29.7603 100.644C29.7159 100.646 29.635 100.616 29.5769 100.634ZM28.4882 101.526L25.1892 103.118C24.2239 101.807 24.2558 101.437 24.6193 100.068C25.6035 96.3582 25.9309 92.5698 28.5311 91.1481L52.6082 77.9742C56.5045 75.8525 55.6776 75.8956 60.9608 85.6533C62.0451 87.6559 63.0281 89.5196 64.1753 91.5287C65.8814 94.5185 63.4882 94.7986 61.0677 96.1414L43.0095 106.016C35.0795 110.22 37.7995 110.131 30.8363 107.917C28.5318 107.184 26.4572 107.055 25.8217 104.234L29.0663 102.68C34.4693 107.751 38.5676 99.2501 33.6401 97.1682C31.7485 96.369 29.7309 97.1141 28.8141 99.0378C28.225 100.273 28.6944 100.481 28.4882 101.526ZM24.7403 105.179C25.6847 106.405 25.6436 107.464 27.2543 108.036L35.5332 110.647C38.0111 110.794 41.0581 108.522 43.7905 107.016C46.0414 105.774 48.2447 104.605 50.4002 103.389C54.7312 100.946 59.0573 98.6241 63.4512 96.233C66.6661 94.4835 66.6172 93.3397 64.9863 90.4599C64.4204 89.46 61.6042 84.5049 61.4523 83.8486C56.6936 76.814 58.2044 73.5493 52.126 76.8371L26.9965 90.6074C24.9221 92.0974 24.6641 95.0892 24.1082 97.0754C23.0799 100.754 22.5665 101.433 23.9509 103.52C22.6099 104.342 20.4991 104.609 20.1205 104.997C19.5891 105.542 19.8799 105.039 19.855 105.593C20.2594 106.702 23.4018 105.213 24.4624 104.708L24.7403 105.179Z" fill="#CC0000"/>
<path fill-rule="evenodd" clip-rule="evenodd" d="M61.669 92.3497L42.6057 102.88L35.8872 90.7103L54.9253 80.187L61.669 92.3497ZM63.2392 92.7215C62.3531 90.8623 56.3948 79.6253 55.3004 78.5669C52.7205 79.9588 35.2219 89.2367 34.3771 90.2223C34.4843 91.093 40.1813 101.296 41.4029 103.45C42.0344 104.563 42.2192 104.527 43.2523 103.961C46.4497 102.214 62.478 93.6724 63.2392 92.7215Z" fill="#CC0000"/>
<path fill-rule="evenodd" clip-rule="evenodd" d="M30.2071 102.134C31.3688 103.002 32.3645 103.366 33.5058 102.627C35.702 101.204 34.3885 97.6015 31.7294 98.1451C30.0281 98.4922 29.9582 99.6015 29.5767 100.634C29.6348 100.615 29.7157 100.646 29.7601 100.643C31.0325 100.567 31.1326 99.9153 31.6094 100.489C32.2735 101.288 30.9338 101.662 30.2071 102.134Z" fill="white"/>
<path fill-rule="evenodd" clip-rule="evenodd" d="M80.0213 71.0862L75.401 70.2061L74.8518 73.0894C76.0365 73.3148 76.82 74.4664 76.594 75.6511C76.3686 76.8359 75.217 77.6188 74.0322 77.3934L73.4829 80.2761L78.1032 81.1562L80.0213 71.0862Z" fill="white"/>
<path fill-rule="evenodd" clip-rule="evenodd" d="M93.6097 76.6618L94.1589 73.7785L81.3442 71.3379L79.4226 81.4277L92.2373 83.8683L92.7901 80.9658C91.6053 80.7404 90.8219 79.5882 91.0479 78.404C91.2733 77.2193 92.4249 76.4358 93.6097 76.6618ZM89.1624 77.4517L87.3508 78.4774L87.4685 80.5458C87.4738 80.7311 87.2501 80.8318 87.1307 80.7066L85.5964 79.3098L83.6555 80.0449C83.4791 80.1136 83.3078 79.9377 83.401 79.7711L84.2707 77.8909L82.9432 76.2669C82.8273 76.1224 82.9478 75.9197 83.129 75.9343L85.1892 76.183L86.3204 74.4344C86.413 74.2678 86.6699 74.3167 86.6955 74.5055L87.1045 76.5482L89.1117 77.0736C89.2859 77.1272 89.3237 77.3591 89.1624 77.4517Z" fill="white"/>
<path d="M43.6164 71.4914C62.9 71.4914 78.5325 55.8589 78.5325 36.5753C78.5325 17.2916 62.9 1.65918 43.6164 1.65918C24.3327 1.65918 8.70028 17.2916 8.70028 36.5753C8.70028 55.8589 24.3327 71.4914 43.6164 71.4914Z" fill="#CC0000" stroke="#D0D0D0" stroke-width="2" stroke-miterlimit="2.61313"/>
<path fill-rule="evenodd" clip-rule="evenodd" d="M56.1198 49.9428L56.1565 29.1485L59.2783 29.1508L59.2745 48.609C59.2759 50.2468 59.6836 49.9629 56.1198 49.9428ZM28.1567 49.9074C27.991 49.3154 28.078 48.292 28.0759 47.6066C35.4097 47.6726 42.9223 47.6168 50.287 47.6127C51.5249 47.6121 52.4777 47.676 53.5331 47.1423C54.2699 46.7698 55.0361 46.1352 55.476 45.436C55.5175 46.7016 55.5041 48.1036 55.4877 49.3749C55.4774 50.1699 54.9153 49.9441 54.1653 49.9431C51.653 49.9394 28.9968 50.0444 28.1567 49.9074ZM23.8594 43.349L46.8659 43.3138C47.339 45.2472 47.237 45.1288 48.2665 46.2459C48.5935 46.6006 48.5578 46.6008 49.0481 46.9092C44.2351 46.8946 39.4192 46.909 34.6058 46.9096C32.2783 46.9098 29.7444 47.0047 27.4424 46.9037C25.3731 46.8129 23.6751 44.7189 23.8594 43.349ZM50.8356 46.84C49.3065 46.6211 48.309 45.58 47.8337 44.3789C47.0096 42.4701 48.7236 42.601 43.2042 42.6069C43.2321 41.4665 43.3333 33.4332 43.1283 33.0122C42.828 32.8044 41.4869 32.8032 41.1312 32.946L39.0854 34.5384C38.8909 34.6997 38.8952 34.6799 38.7465 34.7887C38.4614 34.9977 38.4693 35.0613 38.4624 35.5368C38.4423 36.9185 38.3715 36.6921 40.4805 36.683C40.6448 37.2135 40.5412 41.6822 40.539 42.6069H28.0798L28.082 29.1528L55.4847 29.1522C55.3843 32.8691 55.4796 36.7132 55.4796 40.4313C55.4796 42.6455 55.8228 45.3492 53.1873 46.5355C52.5909 46.8042 51.5715 47.0808 50.8356 46.84ZM56.165 23.2872C56.5842 23.0662 58.9342 23.1462 59.3386 23.3625C59.525 23.8086 59.5404 28.102 59.3504 28.5055C59.2484 28.6152 56.2501 28.8074 56.1089 28.4375L56.0096 23.8171C56.0233 23.2316 56.0996 23.3262 56.165 23.2872ZM51.3695 25.6792C51.1132 25.6096 50.6444 25.708 50.8348 25.4759C51.0051 25.2679 51.3125 25.2193 51.5842 25.3075C52.917 25.7405 51.3742 27.666 50.6618 26.3111C50.9291 26.3093 51.2933 26.4289 51.5057 26.3039C51.8357 26.1096 51.7002 25.7693 51.3695 25.6792ZM42.4865 26.1511C42.3768 26.7955 41.4238 27.0511 41.0468 26.301C41.4867 26.295 41.5855 26.407 42.0581 26.3002C42.3222 25.4037 41.6862 25.8314 41.1417 25.553C41.4003 25.4168 41.5013 25.1026 42.0322 25.3326C42.3086 25.4522 42.5567 25.7397 42.4865 26.1511ZM31.7338 25.4383C31.9165 25.2701 32.1763 25.2209 32.4462 25.3075C33.6684 25.7005 32.4877 27.3441 31.7383 26.6086C31.4356 26.3115 31.6836 26.6302 31.5628 26.2881C31.856 26.3287 32.2882 26.4684 32.4701 26.2144C32.9988 25.4757 31.3279 25.8116 31.7338 25.4383ZM38.3695 23.3463C38.4786 23.4812 38.772 24.4931 38.7863 24.6562C38.88 24.7325 38.8492 24.7019 38.9373 24.7976C39.2916 25.1823 39.3642 25.4101 39.9662 25.7986C40.2697 25.9945 40.2312 25.8939 40.331 26.1905C40.5904 26.9617 41.0557 27.6411 42.0598 27.4046C43.8229 26.9894 43.4844 24.0209 41.0135 24.7448L40.4394 25.3047C39.8191 24.8798 39.192 24.3511 39.1493 23.3238L47.9842 23.3394C48.2412 24.5963 48.6643 25.2319 49.4467 25.7604C50.3635 26.3797 49.7039 26.2656 50.2364 26.9074C50.4995 27.2243 50.9116 27.5092 51.5284 27.4347C53.4105 27.2075 53.068 24.345 51.1486 24.5951C50.5865 24.6682 50.336 25.0281 50.0341 25.3166C49.4508 24.9502 48.7659 24.3171 48.7007 23.3418C49.7569 23.268 50.9829 23.3226 52.0575 23.3226C52.7106 23.3226 54.9455 23.1433 55.3287 23.4232C55.6278 23.6745 55.5195 27.8267 55.4732 28.4507L35.0269 28.4503L28.1022 28.4393L28.0812 23.9851C28.0877 23.2724 28.198 23.3119 28.8525 23.3356C29.1485 25.2058 29.9676 25.4146 30.6248 25.95C30.8217 26.1106 31.231 28.2971 33.1556 27.1276C33.1781 27.1035 33.2736 26.9981 33.2908 26.9819C33.4525 26.8287 33.3179 26.953 33.4108 26.8935L33.6087 26.2911C33.7374 25.2735 33.3082 25.0757 32.786 24.6661C31.6035 24.4442 31.5195 24.7586 30.8961 25.3108C30.2913 24.9785 29.6469 24.2936 29.5654 23.3256L38.3695 23.3463ZM48.6971 22.6292C48.816 21.3441 49.9894 20.29 51.3831 20.2976C51.787 20.2999 52.0757 20.3498 52.4292 20.5073C53.3541 20.9194 53.7972 21.5519 54.0295 22.6282L48.6971 22.6292ZM39.108 22.6069C39.2681 22.0867 39.2744 21.8233 39.672 21.2966C41.08 19.4314 44.2215 20.3529 44.4524 22.6292L39.108 22.6069ZM29.5635 22.6274C29.6637 21.3282 30.8785 20.2956 32.2451 20.2974C33.6542 20.2993 34.6044 21.2367 34.8901 22.6284L29.5635 22.6274ZM27.4129 42.5945C26.302 42.6633 25.0647 42.5253 23.9796 42.6113C22.1302 42.7576 23.7158 45.8463 24.9787 46.6909C26.0026 47.3756 26.159 47.2936 27.4096 47.6151C27.3995 48.1783 27.3477 49.2788 27.423 49.7917C27.5138 50.4119 28.0231 50.6439 28.7006 50.6504C35.7405 50.7182 43.1245 50.647 50.2027 50.647C53.0081 50.647 56.0278 50.7552 58.8059 50.6486C60.3683 50.5887 59.9503 48.9451 59.9503 47.5132C59.9503 46.0798 59.9503 44.6466 59.9503 43.2135C59.9503 36.9193 60.0446 30.0344 59.9562 23.8195C59.9295 21.9342 57.7651 22.7382 54.7553 22.6181C54.5155 22.1466 54.1754 19.6319 51.3833 19.5955C49.6507 19.5731 48.276 20.7563 47.9919 22.6286L45.1535 22.6274C44.5991 19.3123 41.0819 18.9001 39.4872 20.5249C38.4444 21.5876 38.7307 21.767 38.3997 22.6264L35.6175 22.6189C35.4603 22.3099 35.4008 21.8237 35.2203 21.4506C33.9081 18.7384 29.3911 18.9313 28.8549 22.6302C27.8374 22.6118 27.4109 22.8773 27.3985 23.9041L27.4056 31.9161C27.4056 35.4188 27.2909 39.1163 27.4129 42.5945Z" fill="white"/>
</svg>
