<svg width="197" height="175" viewBox="0 0 197 175" fill="none" xmlns="http://www.w3.org/2000/svg">
<g clip-path="url(#clip0_2353_12100)">
<path d="M148.899 96.2747C176.795 112.595 176.795 138.995 148.899 155.315C121.083 171.635 76.0095 171.635 48.1931 155.315C20.2979 138.995 20.2979 112.595 48.1931 96.2747C76.0095 79.9547 121.083 79.9547 148.899 96.2747Z" fill="#272727"/>
<path d="M59.4614 142.435L62.8498 140.435C62.8498 140.435 63.7166 132.995 63.165 127.235C62.377 119.235 57.255 109.555 51.1086 111.795C45.041 114.035 53.9454 122.275 55.9154 129.075C57.8854 135.955 59.4614 142.435 59.4614 142.435Z" fill="#26DDBF"/>
<path d="M59.4614 142.435L62.8498 140.435C62.8498 140.435 63.7166 132.995 63.165 127.235C62.377 119.235 57.255 109.555 51.1086 111.795C45.041 114.035 53.9454 122.275 55.9154 129.075C57.8854 135.955 59.4614 142.435 59.4614 142.435Z" fill="black" fill-opacity="0.14902"/>
<path d="M61.2738 141.555C61.1162 141.555 61.0374 141.475 61.0374 141.315C61.6678 123.475 52.8422 114.435 52.7634 114.355C52.6846 114.275 52.6846 114.115 52.7634 114.035C52.8422 113.955 52.9998 113.955 53.0786 114.035C53.1574 114.115 62.0618 123.315 61.5102 141.395C61.4314 141.475 61.3526 141.555 61.2738 141.555Z" fill="white"/>
<path d="M57.6491 143.795L60.0919 142.435C60.0919 142.435 60.4859 137.315 58.0431 131.155C55.9155 125.795 50.6359 121.315 47.9567 122.275C45.2775 123.235 45.3563 125.155 46.6171 127.155C47.9567 129.155 55.8367 133.955 57.6491 143.795Z" fill="#26DDBF"/>
<path d="M58.9099 143.315C58.8311 143.315 58.7523 143.235 58.7523 143.075C58.7523 131.795 48.2719 124.115 48.1931 124.035C48.1143 123.955 48.1143 123.795 48.1931 123.715C48.1931 123.635 48.3507 123.635 48.4295 123.715C48.5083 123.795 59.2251 131.555 59.1463 143.075C59.1463 143.235 59.0675 143.315 58.9099 143.315Z" fill="white"/>
<path d="M57.4915 95.5546L128.884 53.7146L131.721 55.3946C132.509 55.7946 133.061 56.8346 133.061 57.7146V111.235C133.061 112.115 132.509 113.155 131.721 113.555L63.0075 153.875C62.2983 154.275 61.0375 154.275 60.3283 153.875L58.8311 152.995C58.0431 152.515 57.4915 151.475 57.4915 150.595V95.5546Z" fill="#820202"/>
<path d="M128.49 48.9946L128.805 48.8347L127.702 48.1947C127.545 48.1147 127.466 48.0347 127.387 48.0347L95.9459 36.1947C95.0791 35.8747 94.0546 36.2747 93.5031 36.9947L58.3583 89.0746C57.8855 89.8746 57.4915 91.1546 57.4915 92.1146C57.4915 93.5546 57.4915 95.5546 57.4915 95.5546L58.5159 96.1946L128.884 53.7146V50.1947C128.884 49.7947 128.727 49.3947 128.49 48.9946Z" fill="#820202"/>
<path d="M128.805 48.8346C128.648 48.7546 128.569 48.6746 128.49 48.6746L97.049 36.8346C96.3398 36.5946 95.5518 36.7546 95.0002 37.2346L93.897 36.5946C94.4486 36.1146 95.3154 35.9546 95.9458 36.1946L127.387 48.0346C127.466 48.0346 127.545 48.1146 127.702 48.1946L128.805 48.8346Z" fill="white" fill-opacity="0.34902"/>
<path d="M58.2007 89.3946C58.2795 89.3146 58.2795 89.2346 58.3583 89.0746C58.2795 89.2346 58.2795 89.3146 58.2007 89.3946Z" fill="#26DDBF"/>
<path d="M93.7395 36.7535C93.7395 36.6741 93.8178 36.6741 93.896 36.5946C93.8178 36.6741 93.7395 36.6741 93.7395 36.7535Z" fill="#26DDBF"/>
<path d="M57.7278 90.5946C57.8066 90.3546 57.8854 90.0346 57.9642 89.7946C57.8854 90.0346 57.8066 90.3546 57.7278 90.5946Z" fill="#26DDBF"/>
<path d="M57.9643 89.7946C58.0431 89.7146 58.1219 89.5546 58.2007 89.4746C58.1219 89.5546 58.0431 89.7146 57.9643 89.7946Z" fill="#26DDBF"/>
<path d="M93.5031 36.9946C93.5819 36.9146 93.6607 36.8346 93.7395 36.7546C93.6607 36.8346 93.5819 36.9146 93.5031 36.9946Z" fill="black" fill-opacity="0.2"/>
<path d="M94.6063 37.6345L59.4615 89.7145C58.9887 90.5145 58.5159 91.7945 58.5159 92.7545C58.5159 94.1945 58.5159 96.1945 58.5159 96.1945L129.987 54.3545V50.8345C129.987 49.9545 129.278 48.9945 128.49 48.6745L97.0491 36.8345C96.1823 36.5145 95.1579 36.9145 94.6063 37.6345Z" fill="#CC0000"/>
<path d="M57.4915 95.5546L128.884 53.7146L131.721 55.3946C132.509 55.7946 133.061 56.8346 133.061 57.7146V111.235C133.061 112.115 132.509 113.155 131.721 113.555L63.0075 153.875C62.2983 154.275 61.0375 154.275 60.3283 153.875L58.8311 152.995C58.0431 152.515 57.4915 151.475 57.4915 150.595V95.5546Z" fill="#CC0000" fill-opacity="0.05098"/>
<path d="M66.3171 146.595L64.0319 145.235C63.6379 144.995 63.4803 144.595 63.4803 143.955V71.4745C63.4803 70.8345 63.7167 70.0345 64.1107 69.3945L66.3959 70.7545C66.0019 71.3945 65.7655 72.1945 65.7655 72.8345V145.315C65.7655 145.955 66.0019 146.355 66.3171 146.595Z" fill="#DFDFDF"/>
<path d="M67.7354 69.3946L125.102 35.7946C126.205 35.1546 127.072 35.6346 127.072 36.9146V109.395C127.072 110.675 126.205 112.195 125.102 112.835L67.7354 146.435C66.6322 147.075 65.7654 146.595 65.7654 145.315V72.8346C65.7654 71.5546 66.6322 70.0346 67.7354 69.3946Z" fill="#EFEFEF"/>
<path d="M124.156 34.2746L126.441 35.5546C126.047 35.3946 125.653 35.4746 125.102 35.7946L67.7355 69.3946C67.2627 69.6346 66.7899 70.1946 66.3959 70.7546L64.1107 69.3946C64.4259 68.8346 64.8987 68.3546 65.4503 68.0346L122.817 34.4346C123.368 34.1146 123.841 34.0346 124.156 34.2746Z" fill="#F9F9F9"/>
<path d="M131.248 111.955C131.248 111.955 131.248 111.955 131.169 112.035L101.462 98.5946C99.0979 97.5546 96.3399 98.4346 95.0003 100.675L63.1651 152.435L61.9831 153.155C61.6679 153.395 61.3527 153.395 61.1163 153.235L93.8183 99.9546C95.1579 97.7146 97.9159 96.9146 100.28 97.9546L131.248 111.955Z" fill="#26DDBF"/>
<path d="M92.0847 105.315H92.1635L63.1651 152.435L61.9831 153.155C61.6679 153.395 61.3527 153.395 61.1163 153.315L90.9027 104.675L92.0847 105.315Z" fill="white" fill-opacity="0.4"/>
<path d="M131.248 111.955C131.248 111.955 131.248 111.955 131.169 112.035L101.462 98.5946C99.0978 97.5546 96.3398 98.4346 95.0002 100.675L93.8182 99.9546C95.1578 97.7146 97.9158 96.9146 100.28 97.9546L131.248 111.955Z" fill="white" fill-opacity="0.4"/>
<path d="M133.061 57.3946C132.982 56.9946 132.824 56.9146 132.509 57.0746C132.43 57.1546 132.273 57.2346 132.194 57.3946L132.036 57.6346L102.644 99.1546L98.3099 105.315C97.7583 106.035 96.7339 106.435 95.8671 106.275L92.0847 105.395L63.1651 98.3546C62.9287 98.3546 62.7711 98.3546 62.6135 98.3546C62.5347 98.3546 62.4559 98.4346 62.3771 98.4346L63.1651 97.9546L91.0603 104.675L94.8427 105.635C95.6307 105.795 96.7339 105.395 97.2067 104.675L101.619 98.5146L131.091 56.7546C131.248 56.5946 131.327 56.5146 131.485 56.4346L128.884 54.9146L129.987 54.3546L131.721 55.3946C132.351 55.7146 132.903 56.5946 133.061 57.3946Z" fill="#820202"/>
<path d="M102.644 99.1546L98.3099 105.315C97.7583 106.035 96.7339 106.435 95.8671 106.275L92.0847 105.315H92.1635L92.3211 104.995L94.8427 105.635C95.6307 105.795 96.7339 105.395 97.2067 104.675L101.541 98.5146L102.644 99.1546Z" fill="white" fill-opacity="0.4"/>
<path d="M131.721 55.3946L129.987 54.3546L128.884 54.9146L131.485 56.4346C131.327 56.5146 131.248 56.5946 131.091 56.7546L101.619 98.5146H101.541L102.644 99.1546L132.036 57.6346L132.194 57.3946C132.273 57.2346 132.43 57.1546 132.509 57.0746C132.745 56.9146 132.982 56.9946 133.061 57.3946C132.903 56.5946 132.351 55.7146 131.721 55.3946Z" fill="black" fill-opacity="0.101961"/>
<path d="M63.7955 99.2346L57.4915 95.5546V150.595C57.4915 151.475 58.0431 152.515 58.8311 152.995L60.3283 153.875C61.0375 154.275 62.2983 154.275 63.0075 153.875L63.7955 153.395V99.2346Z" fill="#820202"/>
<path d="M132.036 57.6346V110.515C132.036 110.995 131.879 111.475 131.642 111.955C131.406 112.275 131.169 112.595 130.854 112.835H130.775L130.697 112.915L61.983 153.155C61.8254 153.235 61.7466 153.315 61.6678 153.315C61.6678 153.235 61.6678 153.155 61.6678 153.075V99.5546C61.6678 98.7546 62.377 98.1946 63.165 98.3546L92.0846 105.395L95.867 106.275C96.7338 106.435 97.7582 106.035 98.3098 105.315L102.644 99.1546L132.036 57.6346Z" fill="#445964"/>
<path d="M133.061 57.7146V111.235C133.061 111.635 132.903 112.195 132.667 112.595C132.43 112.915 132.194 113.235 131.879 113.475L131.8 113.555C131.8 113.555 131.8 113.555 131.721 113.555L63.0074 153.875C62.6134 154.035 62.2982 154.115 62.0618 153.955C61.9042 153.875 61.7466 153.635 61.6678 153.315C61.6678 153.235 61.6678 153.155 61.6678 153.075V99.5546C61.6678 98.7546 62.377 98.1946 63.165 98.3546L92.0846 105.395L95.867 106.275C96.7338 106.435 97.7582 106.035 98.3098 105.315L102.644 99.1546L132.036 57.6346L132.194 57.3946C132.667 56.7546 133.061 56.8346 133.061 57.7146Z" fill="#CC0000"/>
<path d="M131.721 113.555C131.8 113.555 131.8 113.555 131.8 113.555L131.879 113.475C132.194 113.235 132.43 112.915 132.667 112.595C132.903 112.195 133.061 111.635 133.061 111.235L102.644 99.1545L123.053 118.675L131.721 113.555Z" fill="#820202"/>
<path d="M131.721 113.555C131.8 113.555 131.8 113.555 131.8 113.555L131.879 113.475C132.194 113.235 132.43 112.915 132.667 112.595C132.903 112.195 133.061 111.635 133.061 111.235L102.644 99.1545L123.053 118.675L131.721 113.555Z" fill="black" fill-opacity="0.2"/>
<path d="M61.6678 153.075C61.6678 153.555 61.8254 153.875 62.0618 153.955C62.2982 154.115 62.6134 154.035 63.0074 153.875L86.6474 139.955L92.0847 105.315L61.6678 152.195V153.075Z" fill="#820202"/>
<path d="M132.667 112.595C132.43 112.915 132.194 113.235 131.879 113.475L131.8 113.555L63.0075 153.875C62.6135 154.035 62.2983 154.115 62.0619 153.955L95.0003 100.595C96.3399 98.4346 99.0979 97.5546 101.462 98.5946L132.667 112.595Z" fill="#CC0000"/>
<path d="M132.667 112.595C132.43 112.995 132.194 113.235 131.879 113.475L131.8 113.555L63.0075 153.875C62.6135 154.035 62.2983 154.115 62.0619 153.955L63.0075 152.515L130.618 112.835H130.697C130.933 112.595 131.169 112.355 131.406 112.035L132.667 112.595Z" fill="#820202"/>
<path d="M57.7279 90.5946L58.8311 91.2346C58.6735 91.7946 58.5159 92.2746 58.5159 92.7546C58.5159 94.1946 58.5159 96.1946 58.5159 96.1946L57.4915 95.5546C57.4915 95.5546 57.4915 93.5546 57.4915 92.1146C57.4915 91.6346 57.5703 91.1546 57.7279 90.5946Z" fill="#820202" fill-opacity="0.14902"/>
<path d="M64.1895 98.1946L63.1651 97.9546L62.3771 98.4346L61.2739 97.7946L58.5159 96.1946L59.6191 95.5546L64.1895 98.1946Z" fill="#820202"/>
<path d="M145.747 100.355L140.704 97.3146H140.625C138.419 96.0346 135.346 96.2746 132.036 98.1946C125.259 102.195 119.743 111.875 119.743 119.795C119.743 123.795 121.083 126.595 123.289 127.875H123.368L127.939 130.595L129.042 128.755C130.145 128.435 131.327 128.035 132.588 127.315C139.365 123.395 144.881 113.715 144.881 105.715C144.881 104.595 144.723 103.555 144.487 102.595L145.747 100.355Z" fill="#173F7A"/>
<path d="M120.216 115.635C119.901 117.075 119.743 118.435 119.743 119.795C119.743 123.795 121.083 126.595 123.289 127.875H123.368L127.939 130.595L129.042 128.755C130.145 128.435 131.327 128.035 132.588 127.315C133.77 126.675 134.873 125.795 135.897 124.835L120.216 115.635Z" fill="black" fill-opacity="0.14902"/>
<path d="M136.843 101.075C130.066 104.995 124.55 114.675 124.55 122.595C124.55 130.595 130.066 133.795 136.843 129.795C143.62 125.875 149.136 116.195 149.136 108.275C149.136 100.275 143.62 97.0746 136.843 101.075Z" fill="#0A52BE"/>
<path d="M95.0002 100.675L62.0618 153.955C61.8254 153.875 61.6678 153.555 61.6678 153.075V152.195L90.6662 104.995L90.9026 104.675L93.8182 99.9546L95.0002 100.675Z" fill="black" fill-opacity="0.14902"/>
<path d="M64.1895 98.1946L59.6191 95.5546L58.5159 96.1946L61.2739 97.7946L62.3771 98.4346C62.4559 98.3546 62.5347 98.3546 62.6135 98.3546C62.7711 98.3546 62.9287 98.3546 63.1651 98.3546L65.3715 98.9146L90.6663 104.995L90.9027 104.675L64.1895 98.1946Z" fill="#820202" fill-opacity="0.101961"/>
<path d="M76.0525 83.5335L76.1044 81.3741C77.6877 81.0922 78.8751 80.8807 79.6629 80.8997C78.9885 79.4431 78.6177 78.4738 78.3949 77.9083L80.3932 76.7561C80.6084 77.6416 80.8177 78.7669 81.1001 80.1341C81.8341 79.1115 82.8026 78.1746 83.9324 77.0815L85.0794 78.5496C84.0303 79.5646 82.985 80.4196 81.9436 81.1147C82.6487 81.2918 83.6651 81.6364 84.9909 82.2285L83.6823 84.1975C82.981 83.8605 82.0492 83.2779 80.9636 82.5315C80.6888 84.1254 80.3448 85.3174 80.0854 86.2714L78.1198 86.064C78.7943 84.2398 79.2958 83.0515 79.6263 82.4193C78.3543 82.8688 77.163 83.2402 76.0525 83.5335ZM86.997 77.4755L87.0471 75.3961C88.6322 75.0342 89.8197 74.8227 90.6074 74.8417C89.9331 73.385 89.5623 72.4158 89.3394 71.8503L91.3377 70.6981C91.5529 71.5835 91.7623 72.7089 91.9659 74.0742C92.7787 73.0535 93.7471 72.1166 94.8769 71.0235L96.024 72.4915C94.9748 73.5066 93.9296 74.3616 92.8881 75.0567C93.5145 75.2319 94.6097 75.5784 95.9354 76.1705L94.6269 78.1395C93.9256 77.8025 92.9937 77.2199 91.9082 76.4735C91.6333 78.0673 91.2893 79.2594 90.9511 80.2115L89.0643 80.006C89.7388 78.1817 90.2404 76.9935 90.5709 76.3613C89.2989 76.8107 88.1076 77.1821 86.997 77.4755ZM97.9416 71.4174L97.9916 69.3381C99.5768 68.9761 100.764 68.7647 101.552 68.7837C100.878 67.327 100.428 66.3559 100.284 65.7923L102.28 64.7201C102.497 65.5255 102.707 66.6509 102.91 68.0162C103.723 66.9955 104.692 66.0585 105.821 64.9655L106.969 66.4335C105.919 67.4485 104.874 68.3036 103.754 68.9968C104.459 69.1738 105.554 69.5203 106.88 70.1124L105.571 72.0815C104.87 71.7445 103.938 71.1619 102.853 70.4155C102.578 72.0093 102.234 73.2014 101.896 74.1535L100.009 73.948C100.683 72.1237 101.185 70.9355 101.515 70.3032C100.243 70.7527 99.0521 71.1241 97.9416 71.4174ZM108.886 65.3594L108.936 63.28C110.521 62.9181 111.707 62.7866 112.497 62.7257C111.822 61.269 111.373 60.2979 111.229 59.7342L113.225 58.662C113.442 59.4675 113.651 60.5929 113.855 61.9582C114.666 61.0174 115.636 60.0005 116.687 58.9055L117.913 60.3755C116.864 61.3905 115.819 62.2456 114.697 63.0188C115.404 63.1158 116.42 63.4604 117.825 64.0544L116.516 66.0235C115.815 65.6865 114.883 65.1038 113.797 64.3575C113.444 65.9494 113.177 67.2233 112.84 68.0955L110.875 67.8881C111.547 66.1438 112.051 64.8755 112.46 64.2452C111.188 64.6947 109.997 65.0661 108.886 65.3594Z" fill="#00AC9E"/>
<path fill-rule="evenodd" clip-rule="evenodd" d="M132.521 115.728L132.775 115.598L132.604 113.079C132.592 111.869 133.078 110.478 133.78 109.274C134.481 108.071 135.564 106.994 136.668 106.404C137.859 105.744 138.974 105.719 139.805 106.063C140.637 106.407 141.244 107.287 141.335 108.507L141.515 110.947L141.769 110.817C142.101 110.696 142.346 110.646 142.571 110.754L142.649 110.763C142.874 110.871 143.001 111.129 142.963 111.446L143.395 117.705C143.435 118.032 143.308 118.42 143.104 118.798C142.909 119.096 142.636 119.385 142.294 119.585L133.124 124.506C132.782 124.706 132.469 124.668 132.244 124.56C132.019 124.452 131.882 124.274 131.842 123.946L131.42 117.608C131.458 117.291 131.507 116.894 131.702 116.595C131.906 116.217 132.257 115.938 132.521 115.728ZM137.311 115.509C137.731 115.319 138.112 115.446 138.133 115.932C138.163 116.339 137.958 116.717 137.685 117.006L137.852 117.59L138.364 119.265L136.752 120.115L137.012 117.971L137.177 117.266C136.855 117.307 136.561 117.11 136.599 116.792C136.501 116.296 136.881 115.779 137.311 115.509ZM134.211 114.888L140.07 111.737L139.889 109.297C139.829 108.484 139.427 107.87 138.899 107.644C138.371 107.419 137.569 107.482 136.807 107.872C135.968 108.253 135.324 108.98 134.827 109.805C134.33 110.631 134.058 111.565 134.04 112.368L134.211 114.888Z" fill="#FEFEFE"/>
</g>
<defs>
<clipPath id="clip0_2353_12100">
<rect width="197" height="174" fill="white" transform="translate(0 0.738403)"/>
</clipPath>
</defs>
</svg>
