<svg width="23" height="23" viewBox="0 0 23 23" fill="none" xmlns="http://www.w3.org/2000/svg">
<path d="M16.9266 9.77699C16.6241 9.70366 16.3033 9.66699 15.9733 9.66699C13.5716 9.66699 11.6191 11.6195 11.6191 14.0212C11.6191 14.837 11.8483 15.607 12.2516 16.267C12.5908 16.8353 13.0583 17.3212 13.6266 17.6695C14.305 18.1187 15.1116 18.3753 15.9733 18.3753C17.5683 18.3753 18.9525 17.5228 19.7041 16.267C20.1075 15.607 20.3275 14.837 20.3275 14.0212C20.3275 11.9495 18.8791 10.2078 16.9266 9.77699ZM18.1458 13.4528L15.8175 15.5978C15.6891 15.717 15.515 15.7812 15.35 15.7812C15.1758 15.7812 15.0016 15.717 14.8641 15.5795L13.7916 14.507C13.5258 14.2412 13.5258 13.8012 13.7916 13.5353C14.0575 13.2695 14.4975 13.2695 14.7633 13.5353L15.3683 14.1403L17.2108 12.4445C17.495 12.1878 17.9258 12.2062 18.1825 12.4812C18.4391 12.7653 18.4208 13.1962 18.1458 13.4528Z" fill="white"/>
<path d="M19.365 4.18467V6.21967C19.365 6.96217 18.9067 7.88801 18.4483 8.35551L18.2833 8.50217C18.155 8.62134 17.9625 8.64884 17.7975 8.59384C17.6142 8.52967 17.4308 8.48384 17.2475 8.43801C16.8442 8.33717 16.4133 8.29134 15.9733 8.29134C12.8108 8.29134 10.2442 10.858 10.2442 14.0205C10.2442 15.0655 10.5283 16.0922 11.0692 16.9722C11.5275 17.7422 12.1692 18.3838 12.8658 18.8147C13.0767 18.9522 13.1592 19.2455 12.9758 19.4105C12.9117 19.4655 12.8475 19.5113 12.7833 19.5572L11.5 20.3913C10.3083 21.1338 8.66751 20.2997 8.66751 18.8147V13.9105C8.66751 13.2597 8.30084 12.4255 7.93418 11.9672L4.46001 8.26384C4.00168 7.79634 3.63501 6.96217 3.63501 6.41217V4.27634C3.63501 3.16717 4.46001 2.33301 5.45918 2.33301H17.5408C18.54 2.33301 19.365 3.16717 19.365 4.18467Z" fill="white"/>
</svg>
