<svg width="17" height="16" viewBox="0 0 17 16" fill="none" xmlns="http://www.w3.org/2000/svg">
<path d="M8.00344 14H4.48756C3.89891 14 3.39958 13.8122 3.04456 13.4573C2.68954 13.1024 2.50172 12.601 2.50172 12.0102C2.49943 9.46399 2.49943 7.16507 2.50172 4.98064C2.50172 4.39217 2.69183 3.89301 3.04914 3.54038C3.40645 3.18776 3.90578 3 4.49672 3H6.833C7.11931 3 7.35294 3.08472 7.51098 3.245C7.65299 3.38697 7.72629 3.58389 7.724 3.81286C7.71942 4.29829 7.37585 4.6097 6.84446 4.61199H4.50588C4.18522 4.61199 4.10963 4.68755 4.10963 5.0127V11.9919C4.10963 12.3147 4.18522 12.388 4.50817 12.388H11.4895C11.8125 12.388 11.8881 12.3147 11.8881 11.9896V9.65404C11.8881 9.12281 12.2042 8.77706 12.6897 8.77477H12.6943C13.1822 8.77477 13.4983 9.11594 13.4983 9.64488V9.8647C13.5006 10.5814 13.5006 11.3233 13.4983 12.0514C13.496 12.617 13.3059 13.1024 12.9486 13.455C12.5913 13.8077 12.1057 13.9954 11.5376 13.9977H8.00344V14Z" fill="white"/>
<path d="M7.31062 10C7.01576 10 6.72585 9.80421 6.58957 9.51425C6.42108 9.15489 6.49294 8.7658 6.78284 8.47088C7.1446 8.10409 7.51628 7.73482 7.87556 7.37794L8.25714 6.99876L9.48862 5.77447C10.1502 5.11772 10.8093 4.46097 11.4684 3.80173C11.4808 3.78934 11.4932 3.77695 11.5056 3.76208C11.1042 3.75465 10.2344 3.74969 9.75127 3.74721C9.47623 3.74721 9.24331 3.65799 9.07978 3.48947C8.92368 3.33086 8.84191 3.11276 8.84438 2.86245C8.84934 2.34944 9.21358 2.00496 9.74879 2.00248C10.4079 2 11.062 2 11.7187 2C12.3852 2 13.0022 2 13.6067 2.00248C14.1444 2.00248 14.4938 2.34696 14.4963 2.87732C14.5012 4.20322 14.5012 5.51673 14.4963 6.78563C14.4938 7.29616 14.137 7.65551 13.629 7.65551C13.1211 7.65551 12.7643 7.29864 12.7593 6.79058C12.7569 6.53036 12.7544 6.12639 12.7519 5.73482C12.7494 5.44734 12.7494 5.17224 12.7469 4.98885C12.7271 5.0062 12.7098 5.02354 12.6924 5.04089C12.3108 5.42503 11.9293 5.80669 11.5477 6.19083C10.4228 7.32094 9.26066 8.49071 8.11095 9.63321C7.93255 9.80669 7.70955 9.92813 7.4692 9.98513C7.41469 9.99504 7.36265 10 7.31062 10Z" fill="white"/>
</svg>
