<svg width="25" height="26" viewBox="0 0 25 26" fill="none" xmlns="http://www.w3.org/2000/svg">
<path d="M2.93704 15.0311H3.40352C3.58796 15.0316 3.73712 15.1813 3.73712 15.3657V22.1815C3.73712 22.6956 3.94144 23.1886 4.30496 23.552C4.66829 23.9155 5.16128 24.1197 5.67539 24.1197H9.01912C9.30276 24.1197 9.57477 24.0071 9.77532 23.8065C9.97606 23.6058 10.0887 23.3338 10.0887 23.0501V19.1308C10.0751 18.5177 10.2867 17.9207 10.6837 17.4531C11.0809 16.9854 11.6357 16.6797 12.2429 16.5938C12.9212 16.5232 13.5977 16.7433 14.1045 17.1996C14.6114 17.656 14.9011 18.3057 14.902 18.9876V23.0523C14.902 23.3359 15.0146 23.6079 15.2154 23.8085C15.4159 24.0092 15.688 24.1218 15.9716 24.1218H19.311C19.8252 24.1218 20.3183 23.9177 20.682 23.5542C21.0455 23.1908 21.25 22.6979 21.2503 22.1836V15.3656C21.2503 15.1812 21.3995 15.0315 21.5839 15.0309H22.0536C22.5781 15.0306 23.0801 14.8178 23.445 14.4413C23.8098 14.0645 24.0066 13.556 23.9901 13.0318C23.9736 12.5075 23.7453 12.0124 23.3574 11.6594L13.799 2.96969C13.4438 2.64253 12.9784 2.46094 12.4952 2.46094C12.0121 2.46094 11.5467 2.64251 11.1915 2.96969L1.71556 11.5815C1.44123 11.8184 1.23496 12.1241 1.11802 12.4671C1.00107 12.8102 0.977626 13.1784 1.05015 13.5335C1.14756 13.9604 1.38751 14.3415 1.73044 14.6138C2.07353 14.886 2.4992 15.0332 2.93699 15.031L2.93704 15.0311Z" fill="white"/>
</svg>
