<svg width="21" height="21" viewBox="0 0 21 21" fill="none" xmlns="http://www.w3.org/2000/svg">
<path d="M13.3345 18.6108H13.2207C9.33571 18.6108 7.46321 17.1525 7.13946 13.8858C7.10446 13.5441 7.36696 13.2358 7.73446 13.2025C8.08446 13.1691 8.41696 13.4275 8.45196 13.7691C8.70571 16.3858 10.0007 17.3608 13.2295 17.3608H13.3432C16.9045 17.3608 18.1645 16.1608 18.1645 12.7691V7.33581C18.1645 3.94414 16.9045 2.74414 13.3432 2.74414H13.2295C9.98321 2.74414 8.68821 3.73581 8.45196 6.40247C8.40821 6.74414 8.10196 7.00247 7.73446 6.96914C7.36696 6.94414 7.10446 6.63581 7.13071 6.29414C7.42821 2.97747 9.30946 1.49414 13.2207 1.49414H13.3345C17.6307 1.49414 19.4682 3.24414 19.4682 7.33581V12.7691C19.4682 16.8608 17.6307 18.6108 13.3345 18.6108Z" fill="#CC0000"/>
<path d="M13.1255 10.6777H3.16797C2.80922 10.6777 2.51172 10.3944 2.51172 10.0527C2.51172 9.71107 2.80922 9.42773 3.16797 9.42773H13.1255C13.4842 9.42773 13.7817 9.71107 13.7817 10.0527C13.7817 10.3944 13.4842 10.6777 13.1255 10.6777Z" fill="#CC0000"/>
<path d="M5.11852 13.4699C4.95227 13.4699 4.78602 13.4116 4.65477 13.2866L1.72352 10.4949C1.46977 10.2533 1.46977 9.85326 1.72352 9.61159L4.65477 6.81992C4.90852 6.57826 5.32852 6.57826 5.58227 6.81992C5.83602 7.06159 5.83602 7.46159 5.58227 7.70326L3.11477 10.0533L5.58227 12.4033C5.83602 12.6449 5.83602 13.0449 5.58227 13.2866C5.45977 13.4116 5.28477 13.4699 5.11852 13.4699Z" fill="#CC0000"/>
</svg>
