<svg width="19" height="21" viewBox="0 0 19 21" fill="none" xmlns="http://www.w3.org/2000/svg">
<path d="M13.4258 0.50293H5.42578C1.92578 0.50293 0.425781 2.50293 0.425781 5.50293V15.5029C0.425781 18.5029 1.92578 20.5029 5.42578 20.5029H13.4258C16.9258 20.5029 18.4258 18.5029 18.4258 15.5029V5.50293C18.4258 2.50293 16.9258 0.50293 13.4258 0.50293ZM5.42578 10.7529H9.42578C9.83578 10.7529 10.1758 11.0929 10.1758 11.5029C10.1758 11.9129 9.83578 12.2529 9.42578 12.2529H5.42578C5.01578 12.2529 4.67578 11.9129 4.67578 11.5029C4.67578 11.0929 5.01578 10.7529 5.42578 10.7529ZM13.4258 16.2529H5.42578C5.01578 16.2529 4.67578 15.9129 4.67578 15.5029C4.67578 15.0929 5.01578 14.7529 5.42578 14.7529H13.4258C13.8358 14.7529 14.1758 15.0929 14.1758 15.5029C14.1758 15.9129 13.8358 16.2529 13.4258 16.2529ZM15.9258 7.75293H13.9258C12.4058 7.75293 11.1758 6.52293 11.1758 5.00293V3.00293C11.1758 2.59293 11.5158 2.25293 11.9258 2.25293C12.3358 2.25293 12.6758 2.59293 12.6758 3.00293V5.00293C12.6758 5.69293 13.2358 6.25293 13.9258 6.25293H15.9258C16.3358 6.25293 16.6758 6.59293 16.6758 7.00293C16.6758 7.41293 16.3358 7.75293 15.9258 7.75293Z" fill="white"/>
</svg>
