<svg width="33" height="17" viewBox="0 0 33 17" fill="none" xmlns="http://www.w3.org/2000/svg">
<path d="M11.8749 5.7944C11.5181 5.55937 11.0386 5.65881 10.804 6.01609C9.78967 7.5594 9.78967 9.55455 10.804 11.0983C10.9524 11.3241 11.1994 11.4473 11.451 11.4473C11.5965 11.4473 11.7438 11.4065 11.8748 11.3204C12.2316 11.0858 12.3311 10.6063 12.097 10.2495C11.4216 9.22121 11.4216 7.89341 12.097 6.86575C12.3306 6.50847 12.2316 6.02897 11.8748 5.79436L11.8749 5.7944Z" fill="white"/>
<path d="M8.26562 3.15228C7.90834 2.91816 7.42861 3.01715 7.194 3.37396C5.1256 6.52247 5.1256 10.5914 7.194 13.7395C7.34248 13.9654 7.58949 14.0885 7.84107 14.0885C7.98702 14.0885 8.13389 14.0478 8.26488 13.9617C8.62169 13.7271 8.72114 13.2476 8.48656 12.8908C6.75702 10.2584 6.75702 6.85612 8.48656 4.22362C8.72137 3.86635 8.62238 3.38685 8.26557 3.15224L8.26562 3.15228Z" fill="white"/>
<path d="M3.86493 0.843889C3.50812 0.609309 3.02863 0.708758 2.79402 1.06557C-0.196314 5.61714 -0.196314 11.4989 2.79402 16.0502C2.9425 16.2761 3.18951 16.3992 3.44109 16.3992C3.58704 16.3992 3.73392 16.358 3.8649 16.2724C4.22171 16.0378 4.32116 15.5583 4.08658 15.2015C1.43511 11.166 1.43511 5.95149 4.08658 1.91523C4.32116 1.5575 4.22217 1.07798 3.8649 0.843847L3.86493 0.843889Z" fill="white"/>
<path d="M21.593 5.79381C21.2362 6.02838 21.1361 6.50742 21.3709 6.86472C22.0458 7.89238 22.0458 9.22082 21.3709 10.249C21.1363 10.6058 21.2357 11.086 21.593 11.3199C21.724 11.406 21.8709 11.4467 22.0168 11.4467C22.2684 11.4467 22.5154 11.324 22.6639 11.0977C23.6772 9.5544 23.6772 7.55926 22.6639 6.016C22.4293 5.65873 21.9498 5.55974 21.593 5.79386L21.593 5.79381Z" fill="white"/>
<path d="M25.202 3.15178C24.8452 3.38636 24.7451 3.86586 24.9799 4.22269C26.7094 6.85507 26.7094 10.2573 24.9799 12.8898C24.7453 13.2467 24.8448 13.7261 25.202 13.9608C25.333 14.0468 25.4799 14.0876 25.6258 14.0876C25.877 14.0876 26.1245 13.9649 26.2729 13.7386C28.3413 10.5906 28.3413 6.52177 26.2729 3.37303C26.0383 3.01599 25.5588 2.917 25.202 3.15181L25.202 3.15178Z" fill="white"/>
<path d="M30.6735 1.06439C30.4385 0.707578 29.9587 0.60859 29.6026 0.842709C29.2458 1.07729 29.1457 1.55679 29.3805 1.91433C32.0319 5.94982 32.0319 11.1643 29.3805 15.2006C29.1459 15.5574 29.2453 16.0369 29.6026 16.2715C29.7336 16.3576 29.8805 16.3983 30.0264 16.3983C30.2776 16.3983 30.525 16.2756 30.6735 16.0493C33.6638 11.498 33.6638 5.616 30.6735 1.06467L30.6735 1.06439Z" fill="white"/>
<path d="M16.7334 5.75391C15.1869 5.75391 13.9293 7.01152 13.9293 8.55801C13.9293 10.1045 15.1869 11.3621 16.7334 11.3621C18.2799 11.3621 19.5375 10.1045 19.5375 8.55801C19.5375 7.01152 18.2799 5.75391 16.7334 5.75391ZM16.7334 9.81468C16.0402 9.81468 15.4762 9.25045 15.4762 8.55754C15.4762 7.86438 16.0405 7.3004 16.7334 7.3004C17.4265 7.3004 17.9905 7.86394 17.9905 8.55754C17.9905 9.2507 17.427 9.81468 16.7334 9.81468Z" fill="white"/>
</svg>
