<svg width="18" height="18" viewBox="0 0 18 18" fill="none" xmlns="http://www.w3.org/2000/svg">
<rect y="-0.00292969" width="18" height="18" rx="2.57143" fill="#CC0000" fill-opacity="0.5"/>
<path d="M10.5729 7.90477C10.5625 7.89855 8.79292 7.00692 8.78158 7.00081C8.63901 6.92019 8.4693 6.92042 8.32713 7.00081C8.18496 7.08144 8.09999 7.22546 8.09999 7.38648V9.19388C8.09999 9.3549 8.18497 9.49893 8.32713 9.57955C8.39964 9.62046 8.47926 9.64043 8.55735 9.64043C8.63254 9.64043 8.70616 9.62194 8.77064 9.58525L10.573 8.67554C10.7151 8.59502 10.8 8.45095 10.8 8.2902C10.8 8.12946 10.7151 7.98539 10.573 7.90475L10.5729 7.90477Z" fill="white"/>
<path d="M12.532 5.10858C12.4028 4.97943 12.1936 4.97943 12.0645 5.10858C11.9353 5.23772 11.9353 5.44694 12.0645 5.57608C12.8125 6.32417 13.2245 7.32051 13.2245 8.38137C13.2245 9.44224 12.8125 10.4385 12.0645 11.1867C11.9353 11.3158 11.9353 11.525 12.0645 11.6542C12.129 11.7187 12.2136 11.7511 12.2982 11.7511C12.3827 11.7511 12.4674 11.7188 12.5319 11.6542C13.405 10.7815 13.8857 9.6193 13.8857 8.3813C13.8857 7.1433 13.405 5.98105 12.532 5.10843V5.10858Z" fill="white"/>
<path d="M11.5825 6.0578C11.4533 5.92865 11.2441 5.92865 11.115 6.0578C10.9858 6.18694 10.9858 6.39615 11.115 6.5253C12.1381 7.54842 12.1381 9.21308 11.115 10.2363C10.9858 10.3654 10.9858 10.5746 11.115 10.7038C11.1795 10.7684 11.2641 10.8007 11.3487 10.8007C11.4332 10.8007 11.5179 10.7684 11.5824 10.7038C12.202 10.0842 12.5432 9.25928 12.5432 8.38081C12.5433 7.50233 12.202 6.67734 11.5825 6.05783V6.0578Z" fill="white"/>
<path d="M6.44965 5.57608C6.5788 5.44694 6.5788 5.23772 6.44965 5.10858C6.32051 4.97943 6.11129 4.97943 5.98215 5.10858C5.10927 5.98122 4.62856 7.14383 4.62856 8.38145C4.62856 9.61907 5.10927 10.7817 5.98215 11.6543C6.04672 11.7189 6.13129 11.7512 6.21586 11.7512C6.30043 11.7512 6.38508 11.719 6.44958 11.6543C6.57872 11.5252 6.57872 11.316 6.44958 11.1868C4.90286 9.64002 4.90286 7.12293 6.44965 5.57623L6.44965 5.57608Z" fill="white"/>
<path d="M7.39952 6.0578C7.27038 5.92865 7.06116 5.92865 6.93202 6.0578C6.31234 6.67733 5.97103 7.50231 5.97103 8.38077C5.97103 9.25924 6.31226 10.0842 6.93202 10.7037C6.99659 10.7683 7.08116 10.8006 7.16573 10.8006C7.2503 10.8006 7.33495 10.7684 7.39945 10.7037C7.52859 10.5746 7.52859 10.3654 7.39945 10.2362C6.90477 9.74165 6.63226 9.08265 6.63226 8.38075C6.63226 7.67885 6.90479 7.01986 7.39952 6.52526C7.52867 6.39612 7.52867 6.1869 7.39952 6.05776V6.0578Z" fill="white"/>
<path d="M7.61498 13.5191H8.08709V13.8832H7.18298V11.8867H7.61498V13.5191Z" fill="white"/>
<path d="M8.7239 11.8867V13.8832H8.2919V11.8867H8.7239Z" fill="white"/>
<path d="M9.85062 11.8867H10.2672L9.85371 13.8832H9.35691L8.94342 11.8867H9.36308L9.60685 13.3432L9.85062 11.8867Z" fill="white"/>
<path d="M10.9116 13.5252H11.3899V13.8832H10.4796V11.8867H11.3899V12.2385H10.9116V12.7075H11.3591V13.0469H10.9116V13.5252Z" fill="white"/>
</svg>
