<svg width="12" height="11" viewBox="0 0 12 11" fill="none" xmlns="http://www.w3.org/2000/svg">
<path d="M9.92604 3.95795C9.44479 1.96071 7.5977 1.06152 5.9752 1.06152C5.9752 1.06152 5.9752 1.06152 5.97062 1.06152C4.3527 1.06152 2.50104 1.95639 2.01979 3.95363C1.48354 6.18431 2.93187 8.07347 4.2427 9.2623C4.72854 9.70325 5.35187 9.92373 5.9752 9.92373C6.59854 9.92373 7.22187 9.70325 7.70312 9.2623C9.01395 8.07347 10.4623 6.18863 9.92604 3.95795ZM5.9752 6.12379C5.1777 6.12379 4.53145 5.51424 4.53145 4.76203C4.53145 4.00983 5.1777 3.40028 5.9752 3.40028C6.7727 3.40028 7.41895 4.00983 7.41895 4.76203C7.41895 5.51424 6.7727 6.12379 5.9752 6.12379Z" fill="white"/>
</svg>
