<svg width="45" height="45" viewBox="0 0 45 45" fill="none" xmlns="http://www.w3.org/2000/svg">
<rect width="45" height="45" rx="5" fill="#CC0000"/>
<path d="M26.4322 19.7673C26.4063 19.7518 21.9823 17.5227 21.954 17.5074C21.5975 17.3058 21.1733 17.3064 20.8178 17.5074C20.4624 17.709 20.25 18.069 20.25 18.4716V22.9901C20.25 23.3926 20.4624 23.7527 20.8178 23.9542C20.9991 24.0565 21.1982 24.1064 21.3934 24.1064C21.5814 24.1064 21.7654 24.0602 21.9266 23.9685L26.4324 21.6942C26.7878 21.4929 27 21.1327 27 20.7309C27 20.329 26.7879 19.9688 26.4324 19.7673L26.4322 19.7673Z" fill="white"/>
<path d="M31.33 12.7773C31.0071 12.4544 30.4841 12.4544 30.1612 12.7773C29.8384 13.1002 29.8384 13.6232 30.1612 13.9461C32.0313 15.8163 33.0612 18.3071 33.0612 20.9593C33.0612 23.6115 32.0312 26.1022 30.1612 27.9725C29.8384 28.2954 29.8384 28.8184 30.1612 29.1413C30.3226 29.3027 30.5341 29.3835 30.7455 29.3835C30.9569 29.3835 31.1685 29.3029 31.3298 29.1413C33.5125 26.9597 34.7143 24.0541 34.7143 20.9591C34.7143 17.8641 33.5125 14.9585 31.33 12.7769V12.7773Z" fill="white"/>
<path d="M28.9562 15.1523C28.6333 14.8294 28.1103 14.8294 27.7874 15.1523C27.4646 15.4752 27.4646 15.9982 27.7874 16.3211C30.3452 18.8789 30.3452 23.0405 27.7874 25.5985C27.4646 25.9214 27.4646 26.4444 27.7874 26.7673C27.9489 26.9287 28.1603 27.0095 28.3717 27.0095C28.5832 27.0095 28.7948 26.9289 28.956 26.7673C30.505 25.2183 31.3581 23.156 31.3581 20.9598C31.3583 18.7636 30.505 16.7012 28.9562 15.1524V15.1523Z" fill="white"/>
<path d="M16.1241 13.9461C16.447 13.6232 16.447 13.1002 16.1241 12.7773C15.8013 12.4544 15.2782 12.4544 14.9554 12.7773C12.7732 14.9589 11.5714 17.8654 11.5714 20.9595C11.5714 24.0535 12.7732 26.9601 14.9554 29.1417C15.1168 29.3031 15.3282 29.3839 15.5397 29.3839C15.7511 29.3839 15.9627 29.3033 16.1239 29.1417C16.4468 28.8188 16.4468 28.2958 16.1239 27.9729C12.2571 24.1059 12.2571 17.8132 16.1241 13.9464L16.1241 13.9461Z" fill="white"/>
<path d="M18.4988 15.1523C18.176 14.8294 17.6529 14.8294 17.3301 15.1523C15.7809 16.7011 14.9276 18.7636 14.9276 20.9597C14.9276 23.1559 15.7807 25.2184 17.3301 26.7672C17.4915 26.9286 17.7029 27.0094 17.9144 27.0094C18.1258 27.0094 18.3374 26.9288 18.4986 26.7672C18.8215 26.4443 18.8215 25.9213 18.4986 25.5984C17.262 24.3619 16.5807 22.7144 16.5807 20.9597C16.5807 19.2049 17.262 17.5575 18.4988 16.321C18.8217 15.9981 18.8217 15.4751 18.4988 15.1522V15.1523Z" fill="white"/>
<path d="M19.0374 33.8035H20.2177V34.7138H17.9574V29.7227H19.0374V33.8035Z" fill="white"/>
<path d="M21.8097 29.7227V34.7138H20.7297V29.7227H21.8097Z" fill="white"/>
<path d="M24.6265 29.7227H25.6679L24.6342 34.7138H23.3922L22.3585 29.7227H23.4077L24.0171 33.3638L24.6265 29.7227Z" fill="white"/>
<path d="M27.279 33.8189H28.4747V34.7138H26.199V29.7227H28.4747V30.6021H27.279V31.7747H28.3976V32.6232H27.279V33.8189Z" fill="white"/>
</svg>
