<svg width="21" height="20" viewBox="0 0 21 20" fill="none" xmlns="http://www.w3.org/2000/svg">
<g clip-path="url(#clip0_3243_17516)">
<path d="M10.127 13.75C10.4585 13.75 10.7764 13.8817 11.0108 14.1161C11.2453 14.3505 11.377 14.6685 11.377 15C11.377 15.3315 11.2453 15.6495 11.0108 15.8839C10.7764 16.1183 10.4585 16.25 10.127 16.25C9.79543 16.25 9.47749 16.1183 9.24307 15.8839C9.00865 15.6495 8.87695 15.3315 8.87695 15C8.87695 14.6685 9.00865 14.3505 9.24307 14.1161C9.47749 13.8817 9.79543 13.75 10.127 13.75ZM10.127 8.75C10.4585 8.75 10.7764 8.8817 11.0108 9.11612C11.2453 9.35054 11.377 9.66848 11.377 10C11.377 10.3315 11.2453 10.6495 11.0108 10.8839C10.7764 11.1183 10.4585 11.25 10.127 11.25C9.79543 11.25 9.47749 11.1183 9.24307 10.8839C9.00865 10.6495 8.87695 10.3315 8.87695 10C8.87695 9.66848 9.00865 9.35054 9.24307 9.11612C9.47749 8.8817 9.79543 8.75 10.127 8.75ZM10.127 3.75C10.4585 3.75 10.7764 3.8817 11.0108 4.11612C11.2453 4.35054 11.377 4.66848 11.377 5C11.377 5.33152 11.2453 5.64946 11.0108 5.88388C10.7764 6.1183 10.4585 6.25 10.127 6.25C9.79543 6.25 9.47749 6.1183 9.24307 5.88388C9.00865 5.64946 8.87695 5.33152 8.87695 5C8.87695 4.66848 9.00865 4.35054 9.24307 4.11612C9.47749 3.8817 9.79543 3.75 10.127 3.75Z" fill="white"/>
</g>
<defs>
<clipPath id="clip0_3243_17516">
<rect width="20" height="20" fill="white" transform="translate(0.126953)"/>
</clipPath>
</defs>
</svg>
