<svg width="12" height="12" viewBox="0 0 12 12" fill="none" xmlns="http://www.w3.org/2000/svg">
<path d="M8.61271 10.8439H3.96026C3.76951 10.8439 3.61133 10.6772 3.61133 10.4761C3.61133 10.2751 3.76951 10.1084 3.96026 10.1084H8.61271C8.80346 10.1084 8.96164 10.2751 8.96164 10.4761C8.96164 10.6772 8.80346 10.8439 8.61271 10.8439Z" fill="white"/>
<path d="M10.1716 2.76278L8.31058 4.16506C8.064 4.35138 7.71041 4.23861 7.6034 3.93952L6.72409 1.46836C6.57521 1.0418 6.00296 1.0418 5.85408 1.46836L4.97012 3.93462C4.86311 4.23861 4.51418 4.35138 4.2676 4.16016L2.40662 2.75788C2.03442 2.4833 1.54126 2.87065 1.6948 3.32663L3.63021 9.03873C3.69535 9.23485 3.87214 9.36233 4.06754 9.36233H8.50133C8.69673 9.36233 8.87352 9.22995 8.93866 9.03873L10.8741 3.32663C11.0323 2.87065 10.5391 2.4833 10.1716 2.76278ZM7.44987 7.28833H5.12365C4.9329 7.28833 4.77472 7.12162 4.77472 6.92059C4.77472 6.71957 4.9329 6.55286 5.12365 6.55286H7.44987C7.64062 6.55286 7.79881 6.71957 7.79881 6.92059C7.79881 7.12162 7.64062 7.28833 7.44987 7.28833Z" fill="white"/>
</svg>
