<svg width="32" height="31" viewBox="0 0 32 31" fill="none" xmlns="http://www.w3.org/2000/svg">
<ellipse cx="16" cy="15.5" rx="16" ry="15.5" fill="#CC0000"/>
<path d="M16.0023 8.99609H15.9998L8.70312 22.7388L8.70505 22.7407H23.297L23.2983 22.7388L16.0023 8.99609ZM15.2778 12.6663H16.7243V18.3331H15.2778V12.6663ZM16.001 21.4814C15.8103 21.4814 15.6239 21.426 15.4653 21.3222C15.3067 21.2184 15.1831 21.0709 15.1101 20.8983C15.0372 20.7258 15.0181 20.5359 15.0553 20.3526C15.0925 20.1694 15.1843 20.0011 15.3192 19.8691C15.454 19.737 15.6259 19.647 15.8129 19.6106C16 19.5741 16.1939 19.5928 16.3701 19.6643C16.5463 19.7358 16.6969 19.8569 16.8028 20.0122C16.9088 20.1675 16.9654 20.3501 16.9654 20.5369C16.9654 20.7874 16.8638 21.0276 16.6829 21.2047C16.5021 21.3819 16.2568 21.4814 16.001 21.4814Z" fill="white"/>
<path d="M24.3574 24H7.64262C7.53222 24 7.42368 23.9721 7.32748 23.919C7.23128 23.866 7.15064 23.7895 7.09335 23.6971C7.03605 23.6047 7.00403 23.4994 7.00036 23.3913C6.99668 23.2832 7.02149 23.176 7.07239 23.0801L15.4298 7.3389C15.4841 7.23673 15.566 7.1511 15.6665 7.09135C15.767 7.0316 15.8824 7 16 7C16.1176 7 16.233 7.0316 16.3335 7.09135C16.434 7.1511 16.5159 7.23673 16.5702 7.3389L24.9276 23.0801C24.9785 23.176 25.0033 23.2832 24.9996 23.3913C24.996 23.4994 24.9639 23.6047 24.9067 23.6971C24.8494 23.7895 24.7687 23.866 24.6725 23.919C24.5763 23.9721 24.4678 24 24.3574 24ZM8.70336 22.7407H23.2966L23.2973 22.7388L16.0013 8.9955H15.9987L8.70208 22.7388L8.70336 22.7407Z" fill="white"/>
</svg>
