<svg width="25" height="24" viewBox="0 0 25 24" fill="none" xmlns="http://www.w3.org/2000/svg">
<path d="M20.0858 14.49L19.0858 12.83C18.8758 12.46 18.6858 11.76 18.6858 11.35V8.82C18.6858 6.47 17.3058 4.44 15.3158 3.49C14.7958 2.57 13.8358 2 12.7358 2C11.6458 2 10.6658 2.59 10.1458 3.52C8.19579 4.49 6.84579 6.5 6.84579 8.82V11.35C6.84579 11.76 6.65579 12.46 6.44579 12.82L5.43579 14.49C5.03579 15.16 4.94579 15.9 5.19579 16.58C5.43579 17.25 6.00579 17.77 6.74579 18.02C8.68579 18.68 10.7258 19 12.7658 19C14.8058 19 16.8458 18.68 18.7858 18.03C19.4858 17.8 20.0258 17.27 20.2858 16.58C20.5458 15.89 20.4758 15.13 20.0858 14.49Z" fill="white"/>
<path d="M15.5758 20.01C15.1558 21.17 14.0458 22 12.7458 22C11.9558 22 11.1758 21.68 10.6258 21.11C10.3058 20.81 10.0658 20.41 9.92578 20C10.0558 20.02 10.1858 20.03 10.3258 20.05C10.5558 20.08 10.7958 20.11 11.0358 20.13C11.6058 20.18 12.1858 20.21 12.7658 20.21C13.3358 20.21 13.9058 20.18 14.4658 20.13C14.6758 20.11 14.8858 20.1 15.0858 20.07C15.2458 20.05 15.4058 20.03 15.5758 20.01Z" fill="white"/>
</svg>
