<svg width="45" height="45" viewBox="0 0 45 45" fill="none" xmlns="http://www.w3.org/2000/svg">
<rect width="45" height="45" rx="5" fill="#0A52BE"/>
<path d="M30.2207 25.5439L29.2564 23.9432C29.0539 23.5864 28.8707 22.9114 28.8707 22.5161V20.0764C28.8707 17.8104 27.5399 15.8529 25.621 14.9368C25.1196 14.0496 24.1939 13.5 23.1332 13.5C22.0821 13.5 21.1371 14.0689 20.6357 14.9657C18.7553 15.9011 17.4535 17.8393 17.4535 20.0764V22.5161C17.4535 22.9114 17.2703 23.5864 17.0678 23.9336L16.0939 25.5439C15.7082 26.19 15.6214 26.9036 15.8624 27.5593C16.0939 28.2054 16.6435 28.7068 17.3571 28.9479C19.2278 29.5843 21.1949 29.8929 23.1621 29.8929C25.1292 29.8929 27.0964 29.5843 28.9671 28.9575C29.6421 28.7357 30.1628 28.2246 30.4135 27.5593C30.6642 26.8939 30.5967 26.1611 30.2207 25.5439Z" fill="white"/>
<path d="M25.8718 30.8671C25.4668 31.9856 24.3964 32.786 23.1429 32.786C22.3811 32.786 21.6289 32.4774 21.0986 31.9278C20.79 31.6385 20.5586 31.2528 20.4236 30.8574C20.5489 30.8767 20.6743 30.8863 20.8093 30.9056C21.0311 30.9346 21.2625 30.9635 21.4939 30.9828C22.0436 31.031 22.6029 31.0599 23.1622 31.0599C23.7118 31.0599 24.2614 31.031 24.8014 30.9828C25.0039 30.9635 25.2064 30.9539 25.3993 30.9249C25.5536 30.9056 25.7079 30.8864 25.8718 30.8671Z" fill="white"/>
</svg>
