<svg width="15" height="13" viewBox="0 0 15 13" fill="none" xmlns="http://www.w3.org/2000/svg">
<g clip-path="url(#clip0_10723_44465)">
<path fill-rule="evenodd" clip-rule="evenodd" d="M11.369 9.3991L10.053 11.2508L10.1707 12.0018L10.9158 11.8841L10.8299 11.3155L11.4467 11.2155L11.3455 10.5963L11.9341 10.4997L12.0141 9.91116C12.3289 10.0533 12.6787 10.0991 13.0194 10.043C13.3363 9.97859 13.6273 9.82235 13.8561 9.59375C14.0848 9.36515 14.2413 9.0743 14.3059 8.75742C14.3706 8.44054 14.3406 8.11164 14.2196 7.8117C14.0987 7.51176 13.8922 7.25403 13.6258 7.07062C13.3594 6.88721 13.045 6.78623 12.7216 6.78025C12.3983 6.77427 12.0803 6.86357 11.8074 7.037C11.5344 7.21044 11.3185 7.46036 11.1865 7.75563C11.0546 8.05089 11.0124 8.37846 11.0653 8.69751C11.1054 8.95396 11.2081 9.19656 11.3643 9.40381L11.369 9.3991ZM4.71571 6.46443C4.74868 6.18073 3.90818 5.34377 3.75515 4.82582C3.42672 4.30081 3.309 3.46973 3.66804 2.91646C3.81165 2.69633 3.74926 2.56331 3.74926 2.26078C3.74926 -0.750401 9.02649 -0.751578 9.02649 2.26078C9.02649 2.64218 8.9382 2.67279 9.1442 2.96708C9.49029 3.46737 9.31136 4.35378 9.02649 4.81993C8.83932 5.36496 7.95644 6.14895 8.01883 6.45854C8.07063 8.00534 4.70983 7.95236 4.72278 6.45854L4.71571 6.46443ZM0 10.5963C0.142437 8.7493 -0.220129 9.19898 1.32666 8.61864C2.09888 8.32906 3.08534 7.96178 3.7987 7.52035L5.12184 10.5963H0ZM6.63684 9.13777H6.82754C6.90758 9.13592 6.98368 9.10266 7.03941 9.04517C7.09513 8.98768 7.12601 8.91059 7.12537 8.83053V8.34083C7.12508 8.26138 7.0938 8.18518 7.03817 8.12846C6.98254 8.07173 6.90697 8.03896 6.82754 8.03712H5.72219C5.68205 8.03681 5.64225 8.04443 5.60506 8.05954C5.56788 8.07465 5.53404 8.09695 5.5055 8.12517C5.47695 8.15338 5.45426 8.18696 5.43872 8.22397C5.42318 8.26098 5.4151 8.30069 5.41495 8.34083V8.83053C5.41526 8.91098 5.44736 8.98805 5.50425 9.04494C5.56114 9.10183 5.6382 9.13393 5.71866 9.13424H5.90936L5.55032 10.5963H6.98293L6.63684 9.13777ZM8.80871 7.36496C9.12945 7.56348 9.46564 7.7359 9.81401 7.88056C9.72241 8.34124 9.74504 8.81734 9.87993 9.26726L9.00177 10.5033C8.9794 10.5351 8.95821 10.5668 8.9382 10.5998H7.43849L8.80871 7.36496ZM12.9147 7.86172C12.8554 7.87197 12.8006 7.89948 12.7569 7.94082C12.7133 7.98215 12.6829 8.03546 12.6694 8.09404C12.656 8.15263 12.6602 8.21387 12.6815 8.27008C12.7027 8.32629 12.7402 8.37495 12.789 8.40996C12.8379 8.44497 12.896 8.46476 12.956 8.46685C13.0161 8.46894 13.0754 8.45322 13.1266 8.42168C13.1778 8.39014 13.2185 8.34419 13.2436 8.28959C13.2687 8.23499 13.2771 8.17418 13.2678 8.11481C13.2614 8.07494 13.2471 8.03673 13.2259 8.00239C13.2046 7.96805 13.1768 7.93826 13.1439 7.91474C13.1111 7.89121 13.0739 7.87441 13.0346 7.86531C12.9952 7.85622 12.9545 7.85499 12.9147 7.86172Z" fill="white"/>
</g>
<defs>
<clipPath id="clip0_10723_44465">
<rect width="14.465" height="12" fill="white" transform="translate(0 0.00195312)"/>
</clipPath>
</defs>
</svg>
