<svg width="104" height="103" viewBox="0 0 104 103" fill="none" xmlns="http://www.w3.org/2000/svg">
<rect x="0.15213" y="0.0332031" width="95" height="95" rx="5" fill="#141414"/>
<mask id="mask0_2833_17387" style="mask-type:alpha" maskUnits="userSpaceOnUse" x="0" y="0" width="96" height="96">
<rect x="0.916534" y="0.0332031" width="95" height="95" rx="5" fill="#D9D9D9"/>
</mask>
<g mask="url(#mask0_2833_17387)">
<path d="M55.6796 65.0031C55.6796 65.0261 55.6796 64.7482 55.7024 64.4932C61.8337 64.8909 70.2874 66.5331 71.4676 67.604H69.6618L72.5287 70.085L70.7255 70.3579L73.4531 73.0046C71.8094 73.9812 70.3482 73.9455 68.8362 73.6829C65.397 73.0811 61.9553 72.4896 58.5034 71.9541C57.6803 71.8266 56.8142 72.0102 55.9709 71.9158C54.6565 71.7705 54.1652 73.0429 54.9351 73.9557C55.6036 74.7462 56.49 75.3505 57.2878 76.0288C57.492 76.1664 57.6768 76.331 57.8374 76.5183C55.5986 76.3093 53.5801 75.5468 51.9365 74.0093C51.3464 73.4585 50.9235 73.4993 50.2878 73.818C46.3142 75.7636 42.3229 77.6734 38.3367 79.5935C37.9264 79.7898 37.5035 79.9581 36.8172 80.2641C39.6967 76.5311 44.4705 76.0798 47.4666 73.0658L47.2893 72.6604C45.4228 73.0786 43.4904 73.3106 41.6999 73.9353C33.4438 76.8447 25.2383 79.9173 16.9847 82.8216C13.4594 84.0609 9.85308 85.0706 6.25685 86.0931C5.49709 86.3098 4.61829 86.1262 3.50397 86.1262C4.01048 85.4531 4.34984 84.9482 4.74745 84.4994C8.11828 80.6746 12.411 78.1758 16.9493 76.0696C25.2029 72.2448 33.9174 69.7892 42.6674 67.4383C44.658 66.9028 46.6561 66.0409 48.6619 66.0103C50.1815 65.9874 51.159 65.0516 52.4405 64.8578C53.4586 64.7099 54.5349 64.9394 55.6796 65.0031Z" fill="white" fill-opacity="0.3"/>
<path d="M96.5323 63.5908C92.8145 57.5833 88.9067 51.8053 82.1777 48.7174C83.7302 50.7063 85.151 52.7436 85.194 55.7372C82.4665 52.3968 79.2982 50.2269 75.2006 49.0234C76.9278 52.0628 78.6322 54.8881 77.7027 58.6925C74.9498 55.2884 71.9336 52.5269 67.6586 50.9715C68.5957 49.8699 69.4187 48.9061 70.3431 47.8249H67.3724C67.879 54.4546 69.3149 60.7196 72.7288 66.439L72.4578 66.5843C71.8956 65.7403 71.232 64.9473 70.7863 64.0345C67.5801 57.5119 66.5544 50.5201 66.481 43.3295C66.481 42.5059 66.4582 41.7766 65.2983 41.7996C64.2523 46.9631 62.3301 51.6676 57.85 54.8651C54.4336 57.3002 50.5259 58.0729 46.4536 57.8485C34.9963 57.2186 31.861 50.6629 30.149 41.0958C29.136 41.2437 29.2727 41.7843 29.5589 42.5263C32.3827 49.8495 31.9192 57.03 28.5737 64.0727C28.4412 64.3343 28.2897 64.5857 28.1204 64.8249C28.0875 64.8708 27.9684 64.853 27.5911 64.9116C30.9417 58.2029 31.785 51.3718 29.5006 44.0027L26.492 46.0426L29.531 47.3175L29.3892 47.6439L26.7174 47.83L29.4095 50.9613C25.2029 52.5218 22.1613 55.1966 19.5705 58.4706C18.5347 56.8107 18.8842 55.3368 21.7789 49.0565C17.7648 50.2167 14.5763 52.4223 11.8411 55.7525C11.9374 52.7742 13.2872 50.6884 14.9283 48.7097C8.12589 51.7696 4.21563 57.6343 0.56369 63.754C1.43995 60.2428 2.20985 56.7189 5.18813 54.2302C7.00144 52.713 8.73371 51.0888 10.4406 49.4568C12.5275 47.4705 15.0144 46.5551 17.8382 46.3027C20.348 46.0808 22.8451 45.7136 25.4967 45.3898L24.8407 44.3699C26.7047 42.7175 28.5737 41.055 30.6884 39.1758C31.1316 44.5178 32.2789 49.2733 35.9105 53.0012C39.6486 56.826 44.3794 57.6215 49.4369 57.2416C57.8247 56.6118 63.2418 50.5558 64.8171 39.877C65.6554 40.5221 66.4101 41.0882 67.1445 41.6772C67.4085 41.8822 67.6444 42.1214 67.846 42.3886C70.1076 45.4842 73.4404 45.8564 76.8746 46.0579C78.3029 46.142 79.7136 46.4429 81.1369 46.6137C82.6903 46.7786 84.1547 47.4245 85.3282 48.4624C88.0001 50.8593 90.7099 53.2205 93.2678 55.7346C95.1166 57.5501 95.4762 60.1536 96.2714 62.5045C96.3904 62.8615 96.4462 63.2312 96.5323 63.5908ZM69.9126 46.091L67.1572 44.3954C67.223 45.5989 67.2737 46.5092 67.3243 47.4552L69.9126 46.091Z" fill="white" fill-opacity="0.3"/>
<path d="M46.4179 16.0792C46.3749 13.4248 47.6842 11.6272 49.5304 9.94679C47.7019 9.21243 45.9848 9.43682 44.283 9.8295C38.6936 11.0917 34.3554 15.9288 33.5272 21.8139C33.358 23.0723 33.2734 24.3408 33.274 25.6106C33.274 26.832 33.4082 28.0534 33.4842 29.2748L33.1397 29.3742C32.8029 28.0101 32.1622 26.6382 32.1875 25.2944C32.2568 21.7641 33.2013 18.3071 34.9353 15.2378C39.0912 7.7794 51.6172 5.8976 57.475 13.7333C61.0206 18.4583 62.6389 23.7237 61.9551 29.6853C61.7728 31.2586 62.1197 32.888 62.1273 34.4918C62.1273 35.0706 62.0083 35.7821 61.6664 36.2053C60.2305 37.9775 58.7438 39.714 57.1661 41.3586C56.0356 42.4854 55.1965 43.8739 54.7221 45.4027C54.398 46.4941 53.9193 47.5395 53.5521 48.6206C53.4736 48.8527 53.4913 49.3066 53.6205 49.3856C53.8979 49.5213 54.2173 49.5414 54.5094 49.4417C55.0818 49.2275 55.6136 48.9088 56.3253 48.8833C54.2156 50.6121 52.1744 52.4327 49.9761 54.0391C48.3705 55.2121 45.2276 54.8347 43.6979 53.5291C42.9382 52.8687 42.262 52.0706 41.4389 51.4892C39.8915 50.4107 39.6433 48.8527 39.7826 47.0601C40.1397 47.6823 40.4689 48.3351 40.8615 48.919C41.1526 49.4274 41.5209 49.8868 41.953 50.2806C43.1484 51.2394 44.2804 52.1956 46.1039 51.479C47.0764 51.0991 48.3173 51.4128 49.7432 51.4128L51.2272 48.5365C48.4414 47.4554 45.6556 48.7915 43.156 47.7537L43.1813 47.3661C46.0152 47.3661 48.8517 47.3279 51.6856 47.3891C52.5188 47.4069 53.0405 47.1621 53.4002 46.4329C53.7598 45.7036 54.2106 45.0406 54.5145 44.3012C55.2489 42.5163 54.6791 41.4479 52.7898 41.0552C52.0604 40.9047 51.3083 40.8639 50.5358 40.4891C50.8425 40.3829 51.1603 40.3127 51.483 40.28C51.863 40.2812 52.2394 40.3547 52.5923 40.4968C54.9374 41.4887 56.7001 40.6829 58.3969 38.9515C58.8873 38.4714 59.2789 37.8986 59.5492 37.266C59.8195 36.6333 59.9632 35.9531 59.9721 35.2644C59.0705 35.6265 58.2247 36.0829 57.318 36.3022C56.3607 36.4952 55.3817 36.5561 54.4081 36.4833C56.1252 35.8764 57.3889 33.9844 59.5264 34.8641C62.2742 27.7245 61.0687 17.8947 54.4613 12.6573C55.525 15.8472 56.1708 18.8433 53.775 21.7425C52.2529 18.573 50.2851 16.1302 46.4179 16.0792Z" fill="white" fill-opacity="0.3"/>
<path d="M95.238 77.7554C91.586 76.0164 87.8935 74.5757 83.8161 74.2366C85.3027 74.8358 86.7969 75.4121 88.2709 76.0393C89.2383 76.4499 90.2615 76.8043 91.0871 77.4316C91.5506 77.7783 91.662 78.5994 91.933 79.2165C91.2948 79.3924 90.5907 79.8361 90.0285 79.7009C87.2857 79.0431 84.6088 78.1098 81.8585 77.5132C79.4146 76.9828 76.9048 76.7686 74.3798 76.5927C82.6664 79.4664 90.0057 83.8955 96.7119 89.4389L96.5599 89.7551C95.0885 89.0411 93.6196 88.3195 92.1432 87.6132C91.6544 87.3786 91.1681 87.0675 90.649 86.9859C84.5227 86.0093 78.9182 83.6328 73.6074 80.5246C71.6979 79.4077 69.8086 78.6249 67.5293 78.8595C65.9515 79.0201 64.708 78.2042 63.4493 76.6488L74.0861 74.9021L73.2174 74.2697C75.7308 73.3937 78.396 73.0465 81.0481 73.2498C84.5227 73.5048 87.9847 74.03 91.4315 74.5885C93.2246 74.8638 94.4782 76.0699 95.238 77.7554Z" fill="white" fill-opacity="0.3"/>
<path d="M2.37435 74.842L3.64062 69.4158C1.38918 70.8336 0.330578 72.8352 0.122909 75.3111C-0.00371933 76.7875 0.0266714 78.2766 -0.0796957 79.753C-0.19366 81.2829 -2.69836 83.2489 -4.19003 82.9837C-4.54965 82.9199 -4.86875 82.6292 -5.27649 82.3998C-5.78748 84.1922 -5.87422 86.0803 -5.52975 87.9126C-5.25435 89.5718 -5.06331 91.2442 -4.95739 92.9231C-4.85862 94.5346 -4.36224 95.2358 -2.79459 94.94C1.00424 94.226 4.77268 93.3285 8.55125 92.4972C9.0375 92.3901 9.51615 92.2423 10.0379 92.1071C10.0227 92.2295 10.0379 92.3264 10.0075 92.3392C5.7857 94.2618 1.53607 96.1079 -3.09343 96.8091C-4.90674 97.0845 -5.00804 96.9621 -5.25877 95.1823C-5.70196 92.0026 -6.20847 88.8331 -6.63394 85.6508C-6.73271 84.8859 -6.81629 83.9373 -6.48199 83.2999C-3.96463 78.4806 -2.10067 73.2891 1.49809 69.0818C4.13954 65.9965 7.09503 63.3063 10.8837 61.7356C12.0259 61.2614 13.2998 61.0548 14.5357 60.8738C15.4398 60.7437 15.9362 61.3608 15.6677 62.2201C15.3182 63.3344 14.9713 64.5328 14.2849 65.4355C11.8841 68.5846 9.05522 71.2696 5.39822 72.9601C4.45358 73.3962 3.6153 74.0591 2.37435 74.842Z" fill="white" fill-opacity="0.3"/>
<path d="M102.033 81.9567C100.83 82.7217 99.6066 82.4922 98.9937 81.0898C98.4262 79.6862 98.0291 78.2188 97.811 76.7193C97.3172 73.7411 96.0382 71.3009 93.5665 69.5567C93.7437 70.8317 93.9185 72.1219 94.1262 73.6212C91.4011 72.7364 89.0231 72.0913 87.344 70.0514C85.5459 67.8738 83.6363 65.7855 81.9117 63.5544C81.471 62.9857 81.5444 62.0244 81.3798 61.2289C82.1877 61.1473 83.0336 60.8693 83.7959 61.0172C86.9489 61.6318 89.5245 63.4065 91.9 65.4642C95.6989 68.751 98.4619 72.8155 100.536 77.3823C101.296 79.0321 102.309 80.5671 102.972 82.2449C103.423 83.3211 103.616 84.4888 103.537 85.6541C103.2 88.9281 102.565 92.169 102.205 95.4404C102.053 96.825 101.367 97.1208 100.285 96.8301C97.3248 96.0295 94.3693 95.2084 91.4518 94.2675C89.8564 93.7201 88.3239 93.002 86.8805 92.1256C89.3827 92.7503 91.8747 93.4261 94.3895 93.9896C96.1941 94.4017 98.0182 94.7216 99.8548 94.9483C101.303 95.1217 101.777 94.5047 101.881 93.0461C101.996 91.3258 102.199 89.6126 102.489 87.9132C102.82 86.1487 102.719 83.6983 102.033 81.9567Z" fill="white" fill-opacity="0.3"/>
<path d="M43.7765 81.334C38.3315 87.7826 32.2129 93.4612 25.0356 97.7781C20.2567 100.642 14.8117 101.016 9.3591 100.858C8.54362 100.835 7.73067 100.708 6.91519 100.629L6.89999 100.267C7.49261 100.132 8.09283 99.8511 8.67278 99.8817C15.5715 100.226 21.7889 98.1861 27.3504 94.3077C31.0403 91.7298 34.3706 88.6317 37.8984 85.8116C39.8206 84.2714 41.8163 82.8231 43.7765 81.334Z" fill="white" fill-opacity="0.3"/>
<path d="M89.4689 100.181C85.2269 100.665 81.618 99.6887 78.2168 98.0287C75.1575 96.5345 72.1919 94.8363 69.249 93.1202C65.9567 91.19 62.7125 89.1373 59.5114 86.9648C60.1597 87.1943 60.8485 87.3448 61.4462 87.6661C65.1184 89.6295 68.7906 91.5827 72.4172 93.6379C75.6412 95.4661 78.7284 97.585 82.4259 98.3424C84.4697 98.7605 86.6223 98.656 88.5192 99.7295C88.7244 99.8442 88.9447 99.9309 89.4689 100.181Z" fill="white" fill-opacity="0.3"/>
<path d="M36.5258 30.9305C35.9585 31.8842 35.4698 32.7154 34.9329 33.6028C35.1355 31.7567 35.3077 30.033 35.5255 28.3399C35.5635 28.0441 35.7433 27.6157 35.9611 27.5367C36.1789 27.4576 36.5689 27.6845 36.8044 27.8758C37.2604 28.2485 37.684 28.6597 38.0707 29.1048C39.7169 31.0147 41.7581 31.9403 44.2932 31.8357C45.4354 31.7898 46.0204 32.7256 45.5595 33.7685C45.4556 33.998 44.982 34.1689 44.6731 34.1765C43.1106 34.2692 41.5577 33.8748 40.2259 33.0469C39.0584 32.3049 37.8301 31.67 36.5258 30.9305Z" fill="white" fill-opacity="0.3"/>
<path d="M49.4418 34.466C48.3174 32.4261 48.4288 32.0971 50.4017 31.475C50.5612 31.424 50.7182 31.3526 50.8803 31.3169C53.1799 30.8375 55.2667 29.9552 56.9179 28.1984C57.2244 27.872 57.6473 27.6578 58.2272 27.2422C58.5742 27.9791 58.9516 28.5707 59.1364 29.2158C59.3897 30.1286 59.0782 30.6208 58.0044 30.6259C57.2605 30.6387 56.528 30.8126 55.8568 31.1358C53.7168 32.1864 51.6224 33.3262 49.4418 34.466Z" fill="white" fill-opacity="0.3"/>
<path d="M23.1464 67.8231L24.7014 66.7394C24.7672 65.9745 24.8153 65.4186 24.866 64.8525C25.3725 64.9137 25.9702 64.8245 26.3855 65.0616C28.6395 66.3366 30.8504 67.7109 33.2082 69.1414C32.4484 69.3735 31.8026 69.6004 31.1391 69.7636C30.8858 69.8248 30.4806 69.8477 30.3565 69.7024C29.0903 68.2388 27.2997 68.5141 25.6814 68.2286C24.9571 68.096 24.2303 67.9889 23.1464 67.8231Z" fill="white" fill-opacity="0.3"/>
<path d="M34.2211 36.8316C34.6365 36.0947 35.2164 35.7887 36.1433 36.4848C37.8832 37.7904 39.8029 38.5247 42.0315 38.2111C42.3709 38.1652 42.7457 38.3845 43.1028 38.7568L39.0988 40.5927L34.2211 36.8316Z" fill="white" fill-opacity="0.3"/>
<path d="M48.5934 37.1768C48.8087 38.2707 48.9708 39.1351 49.1531 39.9816C49.2038 40.2188 49.2468 40.5808 49.4064 40.6522C51.0196 41.4019 50.2092 41.9272 49.2823 42.4881C48.9682 42.6819 48.7758 43.1562 48.4668 43.2531C47.8109 43.4571 47.0486 43.6993 46.4407 43.5412C45.681 43.3449 45.0352 42.7533 44.3666 42.3479L46.0203 41.5676C46.0836 41.7359 46.0988 41.9756 46.228 42.0929C46.5775 42.404 46.9498 42.8273 47.355 42.8783C47.5804 42.9063 48.0717 42.3071 48.1148 41.9425C48.3275 40.4584 48.4263 38.9413 48.5934 37.1768Z" fill="white" fill-opacity="0.3"/>
<path d="M51.4806 45.2877L44.3034 45.8257L44.2451 45.3438C44.9264 45.2826 45.6076 45.2393 46.2838 45.1551C47.2487 45.0378 48.3276 45.1143 49.1456 44.6936C50.0497 44.227 50.579 44.3443 51.4806 45.2877Z" fill="white" fill-opacity="0.3"/>
<path d="M75.6336 71.9904C73.9241 71.7915 73.5594 70.3406 72.9668 69.104L73.2656 68.8184L75.9299 71.6946L75.6336 71.9904Z" fill="white" fill-opacity="0.3"/>
<path d="M21.7432 67.9383L23.4806 65.3145C23.9896 67.0611 22.3384 67.1963 21.7432 67.9383Z" fill="white" fill-opacity="0.3"/>
</g>
<rect x="81.6521" y="79.9336" width="22.1957" height="22.1957" rx="3" fill="#CC0000"/>
<g clip-path="url(#clip0_2833_17387)">
<path d="M92.75 93.6562C93.3713 93.6562 93.875 93.1526 93.875 92.5312C93.875 91.9099 93.3713 91.4062 92.75 91.4062C92.1287 91.4062 91.625 91.9099 91.625 92.5312C91.625 93.1526 92.1287 93.6562 92.75 93.6562Z" fill="white"/>
<path d="M98 87.2812H95.75V86.1562C95.75 85.659 95.5525 85.1821 95.2008 84.8304C94.8492 84.4788 94.3723 84.2812 93.875 84.2812H91.625C91.1277 84.2812 90.6508 84.4788 90.2992 84.8304C89.9475 85.1821 89.75 85.659 89.75 86.1562V87.2812H87.5C86.9033 87.2812 86.331 87.5183 85.909 87.9403C85.4871 88.3622 85.25 88.9345 85.25 89.5312V95.5312C85.25 96.128 85.4871 96.7003 85.909 97.1222C86.331 97.5442 86.9033 97.7812 87.5 97.7812H98C98.5967 97.7812 99.169 97.5442 99.591 97.1222C100.013 96.7003 100.25 96.128 100.25 95.5312V89.5312C100.25 88.9345 100.013 88.3622 99.591 87.9403C99.169 87.5183 98.5967 87.2812 98 87.2812ZM91.25 86.1562C91.25 86.0568 91.2895 85.9614 91.3598 85.8911C91.4302 85.8208 91.5255 85.7812 91.625 85.7812H93.875C93.9745 85.7812 94.0698 85.8208 94.1402 85.8911C94.2105 85.9614 94.25 86.0568 94.25 86.1562V87.2812H91.25V86.1562ZM92.75 95.1562C92.2308 95.1562 91.7233 95.0023 91.2916 94.7139C90.8599 94.4254 90.5235 94.0154 90.3248 93.5358C90.1261 93.0561 90.0742 92.5283 90.1754 92.0191C90.2767 91.5099 90.5267 91.0422 90.8938 90.6751C91.261 90.308 91.7287 90.058 92.2379 89.9567C92.7471 89.8554 93.2749 89.9074 93.7545 90.1061C94.2342 90.3047 94.6442 90.6412 94.9326 91.0729C95.221 91.5046 95.375 92.0121 95.375 92.5312C95.375 93.2274 95.0984 93.8951 94.6062 94.3874C94.1139 94.8797 93.4462 95.1562 92.75 95.1562Z" fill="white"/>
</g>
<defs>
<clipPath id="clip0_2833_17387">
<rect width="18" height="18" fill="white" transform="translate(83.75 82.0312)"/>
</clipPath>
</defs>
</svg>
