<svg width="14" height="14" viewBox="0 0 14 14" fill="none" xmlns="http://www.w3.org/2000/svg">
<path d="M10.2666 3.10279L6.97078 1.32945C6.62078 1.14279 6.20661 1.14279 5.85661 1.32945L2.56661 3.10279C2.32745 3.23695 2.17578 3.49362 2.17578 3.77362C2.17578 4.05945 2.32161 4.31612 2.56661 4.44445L5.86245 6.21779C6.03745 6.31112 6.22995 6.35779 6.41661 6.35779C6.60328 6.35779 6.80161 6.31112 6.97078 6.21779L10.2666 4.44445C10.5058 4.31612 10.6574 4.05945 10.6574 3.77362C10.6574 3.49362 10.5058 3.23695 10.2666 3.10279Z" fill="#CC0000"/>
<path d="M5.31984 6.83638L2.25734 5.30805C2.01817 5.18555 1.74984 5.20305 1.52234 5.33721C1.30067 5.47721 1.1665 5.71638 1.1665 5.97888V8.87221C1.1665 9.37388 1.4465 9.82305 1.89567 10.0505L4.95817 11.5789C5.06317 11.6314 5.17984 11.6605 5.2965 11.6605C5.43067 11.6605 5.57067 11.6197 5.69317 11.5497C5.91484 11.4097 6.049 11.1705 6.049 10.908V8.01471C6.04317 7.51305 5.76317 7.06388 5.31984 6.83638Z" fill="#CC0000"/>
<path d="M11.6667 5.97888V7.41388C11.3867 7.33221 11.0892 7.29721 10.7917 7.29721C9.99837 7.29721 9.22254 7.57138 8.61004 8.06138C7.77004 8.72055 7.29171 9.71805 7.29171 10.7972C7.29171 11.083 7.32671 11.3689 7.40254 11.643C7.31504 11.6314 7.22754 11.5964 7.14587 11.5439C6.92421 11.4097 6.79004 11.1705 6.79004 10.908V8.01471C6.79004 7.51305 7.07004 7.06388 7.51337 6.83638L10.5759 5.30805C10.815 5.18555 11.0834 5.20305 11.3109 5.33721C11.5325 5.47721 11.6667 5.71638 11.6667 5.97888Z" fill="#CC0000"/>
<path d="M12.8215 9.14609C12.3432 8.55693 11.614 8.18359 10.7915 8.18359C10.1732 8.18359 9.6015 8.39943 9.15234 8.76109C8.54567 9.23943 8.1665 9.98026 8.1665 10.8086C8.1665 11.2986 8.3065 11.7653 8.54567 12.1619C8.70317 12.4244 8.9015 12.6519 9.13484 12.8386H9.14067C9.58984 13.2119 10.1673 13.4336 10.7915 13.4336C11.4565 13.4336 12.0573 13.1886 12.5182 12.7803C12.7223 12.6053 12.8973 12.3953 13.0373 12.1619C13.2765 11.7653 13.4165 11.2986 13.4165 10.8086C13.4165 10.1786 13.1948 9.59526 12.8215 9.14609ZM12.1098 10.4819L10.7098 11.7769C10.6282 11.8528 10.5173 11.8936 10.4123 11.8936C10.3015 11.8936 10.1907 11.8528 10.1032 11.7653L9.45567 11.1178C9.2865 10.9486 9.2865 10.6686 9.45567 10.4994C9.62484 10.3303 9.90484 10.3303 10.074 10.4994L10.424 10.8494L11.5148 9.84026C11.6898 9.67693 11.9698 9.68859 12.1332 9.86359C12.3023 10.0444 12.2907 10.3186 12.1098 10.4819Z" fill="#CC0000"/>
</svg>
