<svg width="366" height="410" viewBox="0 0 366 410" fill="none" xmlns="http://www.w3.org/2000/svg">
<g clip-path="url(#clip0_7080_7916)">
<path fill-rule="evenodd" clip-rule="evenodd" d="M354 0.180664H12C5.37258 0.180664 0 5.55325 0 12.1807V165.73C5.05332 166.232 9 170.496 9 175.681C9 180.866 5.05332 185.13 0 185.632V397.82C0 404.447 5.37258 409.82 12 409.82H354C360.627 409.82 366 404.447 366 397.82V185.681C360.477 185.681 356 181.204 356 175.681C356 170.158 360.477 165.681 366 165.681V12.1807C366 5.55325 360.627 0.180664 354 0.180664Z" fill="#202020"/>
<path d="M183 102.18C206.748 102.18 226 82.9287 226 59.1804C226 35.4322 206.748 16.1804 183 16.1804C159.252 16.1804 140 35.4322 140 59.1804C140 82.9287 159.252 102.18 183 102.18Z" fill="#00AC9E" fill-opacity="0.12"/>
<path d="M182.232 38.7043C170.95 38.7043 161.756 47.8982 161.756 59.1805C161.756 70.4629 170.95 79.6567 182.232 79.6567C193.514 79.6567 202.708 70.4629 202.708 59.1805C202.708 47.8982 193.514 38.7043 182.232 38.7043ZM192.02 54.471L180.41 66.081C180.123 66.3677 179.734 66.5315 179.324 66.5315C178.915 66.5315 178.526 66.3677 178.239 66.081L172.444 60.2863C171.851 59.6924 171.851 58.7096 172.444 58.1158C173.038 57.522 174.021 57.522 174.615 58.1158L179.324 62.8253L189.849 52.3005C190.443 51.7067 191.426 51.7067 192.02 52.3005C192.613 52.8943 192.613 53.8567 192.02 54.471Z" fill="#00AC9E"/>
<path d="M97.822 122.653C99.806 122.653 100.798 123.709 100.798 125.821V128.917C100.798 131.029 99.806 132.085 97.822 132.085H95.11V138.181H91.75V122.653H97.822ZM97.438 129.301V125.437C97.438 125.309 97.39 125.197 97.294 125.101C97.214 125.005 97.11 124.957 96.982 124.957H95.11V129.781H96.982C97.11 129.781 97.214 129.733 97.294 129.637C97.39 129.541 97.438 129.429 97.438 129.301ZM108.317 126.469H111.029V138.181H108.317V137.317C107.821 138.053 106.997 138.421 105.845 138.421H105.341C103.357 138.421 102.365 137.365 102.365 135.253V129.397C102.365 127.285 103.357 126.229 105.341 126.229H105.845C106.997 126.229 107.821 126.597 108.317 127.333V126.469ZM107.813 135.637V129.013C107.813 128.885 107.765 128.773 107.669 128.677C107.589 128.581 107.485 128.533 107.357 128.533H106.037C105.909 128.533 105.797 128.581 105.701 128.677C105.621 128.773 105.581 128.885 105.581 129.013V135.637C105.581 135.765 105.621 135.877 105.701 135.973C105.797 136.069 105.909 136.117 106.037 136.117H107.357C107.485 136.117 107.589 136.069 107.669 135.973C107.765 135.877 107.813 135.765 107.813 135.637ZM118.665 126.469H121.881V139.069C121.881 141.181 120.889 142.237 118.905 142.237H116.505C114.521 142.237 113.529 141.181 113.529 139.069V138.685H116.649V139.453C116.649 139.581 116.689 139.693 116.769 139.789C116.865 139.885 116.977 139.933 117.105 139.933H118.209C118.337 139.933 118.441 139.885 118.521 139.789C118.617 139.693 118.665 139.581 118.665 139.453V137.077C118.185 137.461 117.529 137.653 116.697 137.653H116.193C114.209 137.653 113.217 136.597 113.217 134.485V126.469H116.433V134.869C116.433 134.997 116.473 135.109 116.553 135.205C116.649 135.301 116.761 135.349 116.889 135.349H118.209C118.337 135.349 118.441 135.301 118.521 135.205C118.617 135.109 118.665 134.997 118.665 134.869V126.469ZM134.628 126.229C136.612 126.229 137.604 127.285 137.604 129.397V138.181H134.388V129.013C134.388 128.885 134.34 128.773 134.244 128.677C134.164 128.581 134.06 128.533 133.932 128.533H132.9C132.772 128.533 132.66 128.581 132.564 128.677C132.484 128.773 132.444 128.885 132.444 129.013V138.181H129.228V129.013C129.228 128.885 129.18 128.773 129.084 128.677C129.004 128.581 128.9 128.533 128.772 128.533H127.74C127.612 128.533 127.5 128.581 127.404 128.677C127.324 128.773 127.284 128.885 127.284 129.013V138.181H124.068V126.469H126.996V127.069C127.492 126.509 128.244 126.229 129.252 126.229H129.468C130.652 126.229 131.476 126.597 131.94 127.333C132.436 126.597 133.26 126.229 134.412 126.229H134.628ZM145.623 126.229C147.607 126.229 148.599 127.285 148.599 129.397V133.189H143.151V135.637C143.151 135.765 143.191 135.877 143.271 135.973C143.367 136.069 143.479 136.117 143.607 136.117H144.927C145.055 136.117 145.159 136.069 145.239 135.973C145.335 135.877 145.383 135.765 145.383 135.637V134.341H148.599V135.253C148.599 137.365 147.607 138.421 145.623 138.421H142.911C140.927 138.421 139.935 137.365 139.935 135.253V129.397C139.935 127.285 140.927 126.229 142.911 126.229H145.623ZM143.151 131.077H145.383V128.917C145.383 128.789 145.335 128.677 145.239 128.581C145.159 128.485 145.055 128.437 144.927 128.437H143.607C143.479 128.437 143.367 128.485 143.271 128.581C143.191 128.677 143.151 128.789 143.151 128.917V131.077ZM153.581 138.181H150.365V126.469H153.293V127.069C153.789 126.509 154.541 126.229 155.549 126.229H156.053C158.037 126.229 159.029 127.285 159.029 129.397V138.181H155.813V129.013C155.813 128.885 155.765 128.773 155.669 128.677C155.589 128.581 155.485 128.533 155.357 128.533H154.037C153.909 128.533 153.797 128.581 153.701 128.677C153.621 128.773 153.581 128.885 153.581 129.013V138.181ZM165.489 136.333H166.449V138.421H164.193C162.209 138.421 161.217 137.365 161.217 135.253V123.925H164.433V126.469H166.449V128.797H164.433V135.181C164.433 135.629 164.521 135.933 164.697 136.093C164.873 136.253 165.137 136.333 165.489 136.333ZM181.718 126.733H178.526V125.509C178.526 125.381 178.478 125.269 178.382 125.173C178.302 125.077 178.198 125.029 178.07 125.029H176.75C176.622 125.029 176.51 125.077 176.414 125.173C176.334 125.269 176.294 125.381 176.294 125.509V128.269C176.294 128.397 176.334 128.509 176.414 128.605C176.51 128.701 176.622 128.749 176.75 128.749H178.91C180.894 128.781 181.886 129.837 181.886 131.917V135.253C181.886 137.365 180.894 138.421 178.91 138.421H176.078C174.094 138.421 173.102 137.365 173.102 135.253V133.645H176.294V135.373C176.294 135.501 176.334 135.613 176.414 135.709C176.51 135.805 176.622 135.853 176.75 135.853H178.238C178.366 135.853 178.47 135.805 178.55 135.709C178.646 135.613 178.694 135.501 178.694 135.373V132.325C178.694 132.197 178.646 132.085 178.55 131.989C178.47 131.893 178.366 131.845 178.238 131.845H176.078C174.094 131.845 173.102 130.789 173.102 128.677V125.581C173.102 123.469 174.094 122.413 176.078 122.413H178.742C180.726 122.413 181.718 123.469 181.718 125.581V126.733ZM189.423 126.469H192.639V138.181H189.711V137.581C189.215 138.141 188.463 138.421 187.455 138.421H186.951C184.967 138.421 183.975 137.365 183.975 135.253V126.469H187.191V135.637C187.191 135.765 187.231 135.877 187.311 135.973C187.407 136.069 187.519 136.117 187.647 136.117H188.967C189.095 136.117 189.199 136.069 189.279 135.973C189.375 135.877 189.423 135.765 189.423 135.637V126.469ZM203.49 131.077H200.274V129.013C200.274 128.885 200.226 128.773 200.13 128.677C200.05 128.581 199.946 128.533 199.818 128.533H198.498C198.37 128.533 198.258 128.581 198.162 128.677C198.082 128.773 198.042 128.885 198.042 129.013V135.637C198.042 135.765 198.082 135.877 198.162 135.973C198.258 136.069 198.37 136.117 198.498 136.117H199.818C199.946 136.117 200.05 136.069 200.13 135.973C200.226 135.877 200.274 135.765 200.274 135.637V133.573H203.49V135.253C203.49 137.365 202.498 138.421 200.514 138.421H197.802C195.818 138.421 194.826 137.365 194.826 135.253V129.397C194.826 127.285 195.818 126.229 197.802 126.229H200.514C202.498 126.229 203.49 127.285 203.49 129.397V131.077ZM214.201 131.077H210.985V129.013C210.985 128.885 210.937 128.773 210.841 128.677C210.761 128.581 210.657 128.533 210.529 128.533H209.209C209.081 128.533 208.969 128.581 208.873 128.677C208.793 128.773 208.753 128.885 208.753 129.013V135.637C208.753 135.765 208.793 135.877 208.873 135.973C208.969 136.069 209.081 136.117 209.209 136.117H210.529C210.657 136.117 210.761 136.069 210.841 135.973C210.937 135.877 210.985 135.765 210.985 135.637V133.573H214.201V135.253C214.201 137.365 213.209 138.421 211.225 138.421H208.513C206.529 138.421 205.537 137.365 205.537 135.253V129.397C205.537 127.285 206.529 126.229 208.513 126.229H211.225C213.209 126.229 214.201 127.285 214.201 129.397V131.077ZM221.936 126.229C223.92 126.229 224.912 127.285 224.912 129.397V133.189H219.464V135.637C219.464 135.765 219.504 135.877 219.584 135.973C219.68 136.069 219.792 136.117 219.92 136.117H221.24C221.368 136.117 221.472 136.069 221.552 135.973C221.648 135.877 221.696 135.765 221.696 135.637V134.341H224.912V135.253C224.912 137.365 223.92 138.421 221.936 138.421H219.224C217.24 138.421 216.248 137.365 216.248 135.253V129.397C216.248 127.285 217.24 126.229 219.224 126.229H221.936ZM219.464 131.077H221.696V128.917C221.696 128.789 221.648 128.677 221.552 128.581C221.472 128.485 221.368 128.437 221.24 128.437H219.92C219.792 128.437 219.68 128.485 219.584 128.581C219.504 128.677 219.464 128.789 219.464 128.917V131.077ZM232.198 130.837C234.182 130.837 235.174 131.893 235.174 134.005V135.253C235.174 137.365 234.182 138.421 232.198 138.421H229.534C227.55 138.421 226.558 137.365 226.558 135.253V134.509H229.534V135.565C229.534 135.693 229.574 135.805 229.654 135.901C229.75 135.997 229.862 136.045 229.99 136.045H231.958C232.086 136.045 232.19 135.997 232.27 135.901C232.366 135.805 232.414 135.693 232.414 135.565V134.125C232.414 133.997 232.366 133.885 232.27 133.789C232.19 133.693 232.086 133.645 231.958 133.645H229.486C227.502 133.645 226.51 132.589 226.51 130.477V129.397C226.51 127.285 227.502 126.229 229.486 126.229H232.006C233.99 126.229 234.982 127.285 234.982 129.397V129.829H232.006V129.085C232.006 128.957 231.958 128.845 231.862 128.749C231.782 128.653 231.678 128.605 231.55 128.605H229.726C229.598 128.605 229.486 128.653 229.39 128.749C229.31 128.845 229.27 128.957 229.27 129.085V130.357C229.27 130.485 229.31 130.597 229.39 130.693C229.486 130.789 229.598 130.837 229.726 130.837H232.198ZM242.58 130.837C244.564 130.837 245.556 131.893 245.556 134.005V135.253C245.556 137.365 244.564 138.421 242.58 138.421H239.916C237.932 138.421 236.94 137.365 236.94 135.253V134.509H239.916V135.565C239.916 135.693 239.956 135.805 240.036 135.901C240.132 135.997 240.244 136.045 240.372 136.045H242.34C242.468 136.045 242.572 135.997 242.652 135.901C242.748 135.805 242.796 135.693 242.796 135.565V134.125C242.796 133.997 242.748 133.885 242.652 133.789C242.572 133.693 242.468 133.645 242.34 133.645H239.868C237.884 133.645 236.892 132.589 236.892 130.477V129.397C236.892 127.285 237.884 126.229 239.868 126.229H242.388C244.372 126.229 245.364 127.285 245.364 129.397V129.829H242.388V129.085C242.388 128.957 242.34 128.845 242.244 128.749C242.164 128.653 242.06 128.605 241.932 128.605H240.108C239.98 128.605 239.868 128.653 239.772 128.749C239.692 128.845 239.652 128.957 239.652 129.085V130.357C239.652 130.485 239.692 130.597 239.772 130.693C239.868 130.789 239.98 130.837 240.108 130.837H242.58ZM251.715 124.621C251.363 124.621 251.099 124.701 250.923 124.861C250.747 125.021 250.659 125.325 250.659 125.773V126.469H252.675V128.893H250.659V138.181H247.443V125.581C247.443 123.469 248.435 122.413 250.419 122.413H252.675V124.621H251.715ZM259.548 126.469H262.764V138.181H259.836V137.581C259.34 138.141 258.588 138.421 257.58 138.421H257.076C255.092 138.421 254.1 137.365 254.1 135.253V126.469H257.316V135.637C257.316 135.765 257.356 135.877 257.436 135.973C257.532 136.069 257.644 136.117 257.772 136.117H259.092C259.22 136.117 259.324 136.069 259.404 135.973C259.5 135.877 259.548 135.765 259.548 135.637V126.469ZM268.167 138.181H264.951V122.653H268.167V138.181ZM273.966 122.653L273.558 133.621H271.158L270.75 122.653H273.966ZM270.654 136.693C270.654 136.213 270.822 135.805 271.158 135.469C271.494 135.133 271.902 134.965 272.382 134.965C272.862 134.965 273.27 135.133 273.606 135.469C273.942 135.805 274.11 136.213 274.11 136.693C274.11 137.173 273.942 137.581 273.606 137.917C273.27 138.253 272.862 138.421 272.382 138.421C271.902 138.421 271.494 138.253 271.158 137.917C270.822 137.581 270.654 137.173 270.654 136.693Z" fill="white"/>
<path d="M16 174.681H350" stroke="white" stroke-opacity="0.16" stroke-dasharray="6 6"/>
<mask id="mask0_7080_7916" style="mask-type:luminance" maskUnits="userSpaceOnUse" x="16" y="207" width="334" height="33">
<path d="M16 207.181H350V239.181H16V207.181Z" fill="white"/>
</mask>
<g mask="url(#mask0_7080_7916)">
<path d="M350 238.181H16V240.181H350V238.181Z" fill="white" fill-opacity="0.1"/>
</g>
<mask id="mask1_7080_7916" style="mask-type:luminance" maskUnits="userSpaceOnUse" x="16" y="251" width="334" height="34">
<path d="M16 251.181H350V284.819H16V251.181Z" fill="white"/>
</mask>
<g mask="url(#mask1_7080_7916)">
<path d="M350 283.819H16V285.819H350V283.819Z" fill="white" fill-opacity="0.1"/>
</g>
<path d="M250.549 253.314H240.1V270.325H250.549V253.314Z" fill="#FF5F00"/>
<path d="M240.762 261.819C240.762 258.363 242.553 255.298 245.306 253.314C243.283 251.871 240.728 251 237.942 251C231.341 251 226 255.839 226 261.819C226 267.8 231.341 272.639 237.942 272.639C240.728 272.639 243.283 271.767 245.306 270.325C242.553 268.371 240.762 265.276 240.762 261.819Z" fill="#EB001B"/>
<path d="M264.644 261.819C264.644 267.8 259.303 272.639 252.702 272.639C249.916 272.639 247.361 271.767 245.338 270.325C248.124 268.341 249.882 265.276 249.882 261.819C249.882 258.363 248.091 255.298 245.338 253.314C247.361 251.871 249.916 251 252.702 251C259.303 251 264.644 255.869 264.644 261.819Z" fill="#F79E1B"/>
<path d="M16 348.319H350" stroke="white" stroke-opacity="0.16" stroke-dasharray="4 4"/>
</g>
<defs>
<clipPath id="clip0_7080_7916">
<rect width="366" height="410" fill="white"/>
</clipPath>
</defs>
</svg>
