<svg width="19" height="20" viewBox="0 0 19 20" fill="none" xmlns="http://www.w3.org/2000/svg">
<path d="M5.79131 10.9471C5.79131 12.2144 4.76393 13.2418 3.49659 13.2418C2.22925 13.2418 1.20187 12.2144 1.20187 10.9471C1.20187 9.67972 2.22925 8.65234 3.49659 8.65234C4.76393 8.65234 5.79131 9.67972 5.79131 10.9471Z" fill="white"/>
<path d="M6.42288 15.032C6.00186 14.3372 5.2228 13.874 4.33862 13.874H2.63338C1.41231 13.874 0.380651 14.8004 0.233356 16.0214L0.00176805 18.0004C-0.0192318 18.253 0.149209 18.5058 0.380643 18.5478C1.37013 18.7584 2.40179 18.8635 3.49642 18.8635C4.04376 18.8635 4.57008 18.8425 5.0964 18.7794L5.30699 17.0741C5.41243 16.2321 5.83346 15.5162 6.42293 15.032L6.42288 15.032Z" fill="white"/>
<path d="M17.3703 10.9471C17.3703 12.2144 16.3429 13.2418 15.0756 13.2418C13.8082 13.2418 12.7809 12.2144 12.7809 10.9471C12.7809 9.67972 13.8082 8.65234 15.0756 8.65234C16.3429 8.65234 17.3703 9.67972 17.3703 10.9471Z" fill="white"/>
<path d="M18.3388 16C18.1914 14.7789 17.1599 13.8525 15.9388 13.8525H14.2335C13.3703 13.8525 12.5914 14.3157 12.1704 15.0105C12.7599 15.5158 13.1809 16.2315 13.2862 17.0526L13.4968 18.7578C14.0231 18.821 14.5494 18.842 15.0968 18.842C16.1916 18.842 17.2231 18.7367 18.2126 18.5263C18.4651 18.4631 18.6336 18.2315 18.5914 17.9789L18.3388 16Z" fill="white"/>
<path d="M10.1282 15.0107H8.44404C7.22298 15.0107 6.19132 15.9371 6.04402 17.1582L5.81244 19.1372C5.79144 19.3898 5.93873 19.6425 6.19131 19.6845C7.18079 19.8951 8.21246 20.0002 9.30709 20.0002C10.4019 20.0002 11.4124 19.8949 12.4019 19.6845C12.6544 19.6214 12.8229 19.3898 12.7807 19.1372L12.5493 17.158C12.4018 15.9371 11.3704 15.0107 10.1281 15.0107H10.1282Z" fill="white"/>
<path d="M11.5808 12.1053C11.5808 13.3726 10.5534 14.4 9.28608 14.4C8.01874 14.4 6.99136 13.3726 6.99136 12.1053C6.99136 10.8379 8.01874 9.81055 9.28608 9.81055C10.5534 9.81055 11.5808 10.8379 11.5808 12.1053Z" fill="white"/>
<path d="M4.31759 7.41044H14.2335C14.6966 7.41044 15.0755 7.03156 15.0755 6.5684V0.842037C15.0755 0.378875 14.6966 0 14.2335 0H4.31759C3.85443 0 3.47556 0.378875 3.47556 0.842037V6.5684C3.47556 7.03156 3.85443 7.41059 4.31759 7.41059V7.41044ZM10.3176 1.51565H13.265C13.4544 1.51565 13.6018 1.66309 13.6018 1.85253C13.6018 2.04197 13.4544 2.18941 13.265 2.18941H10.3176C10.1282 2.18941 9.98076 2.04197 9.98076 1.85253C9.98076 1.66294 10.1281 1.51565 10.3176 1.51565ZM10.3176 3.36834H13.265C13.4544 3.36834 13.6018 3.51578 13.6018 3.70522C13.6018 3.89465 13.4544 4.04209 13.265 4.04209H10.3176C10.1282 4.04209 9.98076 3.89465 9.98076 3.70522C9.98076 3.51563 10.1281 3.36834 10.3176 3.36834ZM10.3176 5.22087H13.265C13.4544 5.22087 13.6018 5.36831 13.6018 5.55775C13.6018 5.74719 13.4544 5.89463 13.265 5.89463H10.3176C10.1282 5.89463 9.98076 5.74719 9.98076 5.55775C9.98076 5.36831 10.1281 5.22087 10.3176 5.22087ZM5.07549 2.9683L6.12813 2.88415C6.23343 2.88415 6.31758 2.821 6.33872 2.71571L6.73876 1.72622C6.82291 1.51564 7.1388 1.51564 7.22294 1.72622L7.62298 2.71571C7.66513 2.79985 7.74928 2.86315 7.83357 2.88415L8.88621 2.9683C9.1178 2.9893 9.20194 3.28403 9.03365 3.43146L8.2756 4.10507C8.21245 4.16822 8.1703 4.27351 8.19145 4.35766L8.44404 5.38929C8.50719 5.62087 8.2546 5.78933 8.06517 5.66302L7.15997 5.11568C7.07582 5.07353 6.97053 5.07353 6.88624 5.11568L5.98104 5.66302C5.7916 5.78931 5.53886 5.59987 5.60217 5.38929L5.85476 4.35766C5.87576 4.27351 5.85476 4.16822 5.77061 4.10507L4.97056 3.41033C4.75983 3.26304 4.84398 2.98931 5.07557 2.9683H5.07549Z" fill="white"/>
</svg>
