<svg width="25" height="25" viewBox="0 0 25 25" fill="none" xmlns="http://www.w3.org/2000/svg">
<path d="M12.4261 2.50488C9.80615 2.50488 7.67615 4.63488 7.67615 7.25488C7.67615 9.82488 9.68615 11.9049 12.3061 11.9949C12.3861 11.9849 12.4661 11.9849 12.5261 11.9949C12.5461 11.9949 12.5561 11.9949 12.5761 11.9949C12.5861 11.9949 12.5861 11.9949 12.5961 11.9949C15.1561 11.9049 17.1661 9.82488 17.1761 7.25488C17.1761 4.63488 15.0461 2.50488 12.4261 2.50488Z" fill="white"/>
<path d="M17.5051 14.6528C14.7151 12.7928 10.1651 12.7928 7.35513 14.6528C6.08513 15.5028 5.38513 16.6528 5.38513 17.8828C5.38513 19.1128 6.08513 20.2528 7.34513 21.0928C8.74513 22.0328 10.5851 22.5028 12.4251 22.5028C14.2651 22.5028 16.1051 22.0328 17.5051 21.0928C18.7651 20.2428 19.4651 19.1028 19.4651 17.8628C19.4551 16.6328 18.7651 15.4928 17.5051 14.6528Z" fill="white"/>
</svg>
