<svg width="366" height="416" viewBox="0 0 366 416" fill="none" xmlns="http://www.w3.org/2000/svg">
<path fill-rule="evenodd" clip-rule="evenodd" d="M0 12C0 5.37258 5.37258 0 12 0H354C360.627 0 366 5.37258 366 12V165.5C360.477 165.5 356 169.977 356 175.5C356 181.023 360.477 185.5 366 185.5V404C366 410.627 360.627 416 354 416H12C5.37259 416 0 410.627 0 404V185.451C5.05332 184.949 9 180.685 9 175.5C9 170.315 5.05332 166.051 0 165.549V12Z" fill="#202020"/>
<circle cx="183" cy="59" r="43" fill="#00AC9E" fill-opacity="0.12"/>
<path d="M182.232 38.5237C170.95 38.5237 161.756 47.7175 161.756 58.9999C161.756 70.2823 170.95 79.4761 182.232 79.4761C193.514 79.4761 202.708 70.2823 202.708 58.9999C202.708 47.7175 193.514 38.5237 182.232 38.5237ZM192.02 54.2903L180.41 65.9003C180.123 66.187 179.734 66.3508 179.324 66.3508C178.915 66.3508 178.526 66.187 178.239 65.9003L172.444 60.1056C171.851 59.5118 171.851 58.5289 172.444 57.9351C173.038 57.3413 174.021 57.3413 174.615 57.9351L179.324 62.6446L189.849 52.1199C190.443 51.5261 191.426 51.5261 192.02 52.1199C192.613 52.7137 192.613 53.6761 192.02 54.2903Z" fill="#00AC9E"/>
<path d="M97.8222 122.472C99.8062 122.472 100.798 123.528 100.798 125.64V128.736C100.798 130.848 99.8062 131.904 97.8222 131.904H95.1102V138H91.7502V122.472H97.8222ZM97.4382 129.12V125.256C97.4382 125.128 97.3902 125.016 97.2942 124.92C97.2142 124.824 97.1102 124.776 96.9822 124.776H95.1102V129.6H96.9822C97.1102 129.6 97.2142 129.552 97.2942 129.456C97.3902 129.36 97.4382 129.248 97.4382 129.12ZM108.317 126.288H111.029V138H108.317V137.136C107.821 137.872 106.997 138.24 105.845 138.24H105.341C103.357 138.24 102.365 137.184 102.365 135.072V129.216C102.365 127.104 103.357 126.048 105.341 126.048H105.845C106.997 126.048 107.821 126.416 108.317 127.152V126.288ZM107.813 135.456V128.832C107.813 128.704 107.765 128.592 107.669 128.496C107.589 128.4 107.485 128.352 107.357 128.352H106.037C105.909 128.352 105.797 128.4 105.701 128.496C105.621 128.592 105.581 128.704 105.581 128.832V135.456C105.581 135.584 105.621 135.696 105.701 135.792C105.797 135.888 105.909 135.936 106.037 135.936H107.357C107.485 135.936 107.589 135.888 107.669 135.792C107.765 135.696 107.813 135.584 107.813 135.456ZM118.665 126.288H121.881V138.888C121.881 141 120.889 142.056 118.905 142.056H116.505C114.521 142.056 113.529 141 113.529 138.888V138.504H116.649V139.272C116.649 139.4 116.689 139.512 116.769 139.608C116.865 139.704 116.977 139.752 117.105 139.752H118.209C118.337 139.752 118.441 139.704 118.521 139.608C118.617 139.512 118.665 139.4 118.665 139.272V136.896C118.185 137.28 117.529 137.472 116.697 137.472H116.193C114.209 137.472 113.217 136.416 113.217 134.304V126.288H116.433V134.688C116.433 134.816 116.473 134.928 116.553 135.024C116.649 135.12 116.761 135.168 116.889 135.168H118.209C118.337 135.168 118.441 135.12 118.521 135.024C118.617 134.928 118.665 134.816 118.665 134.688V126.288ZM134.628 126.048C136.612 126.048 137.604 127.104 137.604 129.216V138H134.388V128.832C134.388 128.704 134.34 128.592 134.244 128.496C134.164 128.4 134.06 128.352 133.932 128.352H132.9C132.772 128.352 132.66 128.4 132.564 128.496C132.484 128.592 132.444 128.704 132.444 128.832V138H129.228V128.832C129.228 128.704 129.18 128.592 129.084 128.496C129.004 128.4 128.9 128.352 128.772 128.352H127.74C127.612 128.352 127.5 128.4 127.404 128.496C127.324 128.592 127.284 128.704 127.284 128.832V138H124.068V126.288H126.996V126.888C127.492 126.328 128.244 126.048 129.252 126.048H129.468C130.652 126.048 131.476 126.416 131.94 127.152C132.436 126.416 133.26 126.048 134.412 126.048H134.628ZM145.623 126.048C147.607 126.048 148.599 127.104 148.599 129.216V133.008H143.151V135.456C143.151 135.584 143.191 135.696 143.271 135.792C143.367 135.888 143.479 135.936 143.607 135.936H144.927C145.055 135.936 145.159 135.888 145.239 135.792C145.335 135.696 145.383 135.584 145.383 135.456V134.16H148.599V135.072C148.599 137.184 147.607 138.24 145.623 138.24H142.911C140.927 138.24 139.935 137.184 139.935 135.072V129.216C139.935 127.104 140.927 126.048 142.911 126.048H145.623ZM143.151 130.896H145.383V128.736C145.383 128.608 145.335 128.496 145.239 128.4C145.159 128.304 145.055 128.256 144.927 128.256H143.607C143.479 128.256 143.367 128.304 143.271 128.4C143.191 128.496 143.151 128.608 143.151 128.736V130.896ZM153.581 138H150.365V126.288H153.293V126.888C153.789 126.328 154.541 126.048 155.549 126.048H156.053C158.037 126.048 159.029 127.104 159.029 129.216V138H155.813V128.832C155.813 128.704 155.765 128.592 155.669 128.496C155.589 128.4 155.485 128.352 155.357 128.352H154.037C153.909 128.352 153.797 128.4 153.701 128.496C153.621 128.592 153.581 128.704 153.581 128.832V138ZM165.489 136.152H166.449V138.24H164.193C162.209 138.24 161.217 137.184 161.217 135.072V123.744H164.433V126.288H166.449V128.616H164.433V135C164.433 135.448 164.521 135.752 164.697 135.912C164.873 136.072 165.137 136.152 165.489 136.152ZM181.718 126.552H178.526V125.328C178.526 125.2 178.478 125.088 178.382 124.992C178.302 124.896 178.198 124.848 178.07 124.848H176.75C176.622 124.848 176.51 124.896 176.414 124.992C176.334 125.088 176.294 125.2 176.294 125.328V128.088C176.294 128.216 176.334 128.328 176.414 128.424C176.51 128.52 176.622 128.568 176.75 128.568H178.91C180.894 128.6 181.886 129.656 181.886 131.736V135.072C181.886 137.184 180.894 138.24 178.91 138.24H176.078C174.094 138.24 173.102 137.184 173.102 135.072V133.464H176.294V135.192C176.294 135.32 176.334 135.432 176.414 135.528C176.51 135.624 176.622 135.672 176.75 135.672H178.238C178.366 135.672 178.47 135.624 178.55 135.528C178.646 135.432 178.694 135.32 178.694 135.192V132.144C178.694 132.016 178.646 131.904 178.55 131.808C178.47 131.712 178.366 131.664 178.238 131.664H176.078C174.094 131.664 173.102 130.608 173.102 128.496V125.4C173.102 123.288 174.094 122.232 176.078 122.232H178.742C180.726 122.232 181.718 123.288 181.718 125.4V126.552ZM189.423 126.288H192.639V138H189.711V137.4C189.215 137.96 188.463 138.24 187.455 138.24H186.951C184.967 138.24 183.975 137.184 183.975 135.072V126.288H187.191V135.456C187.191 135.584 187.231 135.696 187.311 135.792C187.407 135.888 187.519 135.936 187.647 135.936H188.967C189.095 135.936 189.199 135.888 189.279 135.792C189.375 135.696 189.423 135.584 189.423 135.456V126.288ZM203.49 130.896H200.274V128.832C200.274 128.704 200.226 128.592 200.13 128.496C200.05 128.4 199.946 128.352 199.818 128.352H198.498C198.37 128.352 198.258 128.4 198.162 128.496C198.082 128.592 198.042 128.704 198.042 128.832V135.456C198.042 135.584 198.082 135.696 198.162 135.792C198.258 135.888 198.37 135.936 198.498 135.936H199.818C199.946 135.936 200.05 135.888 200.13 135.792C200.226 135.696 200.274 135.584 200.274 135.456V133.392H203.49V135.072C203.49 137.184 202.498 138.24 200.514 138.24H197.802C195.818 138.24 194.826 137.184 194.826 135.072V129.216C194.826 127.104 195.818 126.048 197.802 126.048H200.514C202.498 126.048 203.49 127.104 203.49 129.216V130.896ZM214.201 130.896H210.985V128.832C210.985 128.704 210.937 128.592 210.841 128.496C210.761 128.4 210.657 128.352 210.529 128.352H209.209C209.081 128.352 208.969 128.4 208.873 128.496C208.793 128.592 208.753 128.704 208.753 128.832V135.456C208.753 135.584 208.793 135.696 208.873 135.792C208.969 135.888 209.081 135.936 209.209 135.936H210.529C210.657 135.936 210.761 135.888 210.841 135.792C210.937 135.696 210.985 135.584 210.985 135.456V133.392H214.201V135.072C214.201 137.184 213.209 138.24 211.225 138.24H208.513C206.529 138.24 205.537 137.184 205.537 135.072V129.216C205.537 127.104 206.529 126.048 208.513 126.048H211.225C213.209 126.048 214.201 127.104 214.201 129.216V130.896ZM221.936 126.048C223.92 126.048 224.912 127.104 224.912 129.216V133.008H219.464V135.456C219.464 135.584 219.504 135.696 219.584 135.792C219.68 135.888 219.792 135.936 219.92 135.936H221.24C221.368 135.936 221.472 135.888 221.552 135.792C221.648 135.696 221.696 135.584 221.696 135.456V134.16H224.912V135.072C224.912 137.184 223.92 138.24 221.936 138.24H219.224C217.24 138.24 216.248 137.184 216.248 135.072V129.216C216.248 127.104 217.24 126.048 219.224 126.048H221.936ZM219.464 130.896H221.696V128.736C221.696 128.608 221.648 128.496 221.552 128.4C221.472 128.304 221.368 128.256 221.24 128.256H219.92C219.792 128.256 219.68 128.304 219.584 128.4C219.504 128.496 219.464 128.608 219.464 128.736V130.896ZM232.198 130.656C234.182 130.656 235.174 131.712 235.174 133.824V135.072C235.174 137.184 234.182 138.24 232.198 138.24H229.534C227.55 138.24 226.558 137.184 226.558 135.072V134.328H229.534V135.384C229.534 135.512 229.574 135.624 229.654 135.72C229.75 135.816 229.862 135.864 229.99 135.864H231.958C232.086 135.864 232.19 135.816 232.27 135.72C232.366 135.624 232.414 135.512 232.414 135.384V133.944C232.414 133.816 232.366 133.704 232.27 133.608C232.19 133.512 232.086 133.464 231.958 133.464H229.486C227.502 133.464 226.51 132.408 226.51 130.296V129.216C226.51 127.104 227.502 126.048 229.486 126.048H232.006C233.99 126.048 234.982 127.104 234.982 129.216V129.648H232.006V128.904C232.006 128.776 231.958 128.664 231.862 128.568C231.782 128.472 231.678 128.424 231.55 128.424H229.726C229.598 128.424 229.486 128.472 229.39 128.568C229.31 128.664 229.27 128.776 229.27 128.904V130.176C229.27 130.304 229.31 130.416 229.39 130.512C229.486 130.608 229.598 130.656 229.726 130.656H232.198ZM242.58 130.656C244.564 130.656 245.556 131.712 245.556 133.824V135.072C245.556 137.184 244.564 138.24 242.58 138.24H239.916C237.932 138.24 236.94 137.184 236.94 135.072V134.328H239.916V135.384C239.916 135.512 239.956 135.624 240.036 135.72C240.132 135.816 240.244 135.864 240.372 135.864H242.34C242.468 135.864 242.572 135.816 242.652 135.72C242.748 135.624 242.796 135.512 242.796 135.384V133.944C242.796 133.816 242.748 133.704 242.652 133.608C242.572 133.512 242.468 133.464 242.34 133.464H239.868C237.884 133.464 236.892 132.408 236.892 130.296V129.216C236.892 127.104 237.884 126.048 239.868 126.048H242.388C244.372 126.048 245.364 127.104 245.364 129.216V129.648H242.388V128.904C242.388 128.776 242.34 128.664 242.244 128.568C242.164 128.472 242.06 128.424 241.932 128.424H240.108C239.98 128.424 239.868 128.472 239.772 128.568C239.692 128.664 239.652 128.776 239.652 128.904V130.176C239.652 130.304 239.692 130.416 239.772 130.512C239.868 130.608 239.98 130.656 240.108 130.656H242.58ZM251.715 124.44C251.363 124.44 251.099 124.52 250.923 124.68C250.747 124.84 250.659 125.144 250.659 125.592V126.288H252.675V128.712H250.659V138H247.443V125.4C247.443 123.288 248.435 122.232 250.419 122.232H252.675V124.44H251.715ZM259.548 126.288H262.764V138H259.836V137.4C259.34 137.96 258.588 138.24 257.58 138.24H257.076C255.092 138.24 254.1 137.184 254.1 135.072V126.288H257.316V135.456C257.316 135.584 257.356 135.696 257.436 135.792C257.532 135.888 257.644 135.936 257.772 135.936H259.092C259.22 135.936 259.324 135.888 259.404 135.792C259.5 135.696 259.548 135.584 259.548 135.456V126.288ZM268.167 138H264.951V122.472H268.167V138ZM273.966 122.472L273.558 133.44H271.158L270.75 122.472H273.966ZM270.654 136.512C270.654 136.032 270.822 135.624 271.158 135.288C271.494 134.952 271.902 134.784 272.382 134.784C272.862 134.784 273.27 134.952 273.606 135.288C273.942 135.624 274.11 136.032 274.11 136.512C274.11 136.992 273.942 137.4 273.606 137.736C273.27 138.072 272.862 138.24 272.382 138.24C271.902 138.24 271.494 138.072 271.158 137.736C270.822 137.4 270.654 136.992 270.654 136.512Z" fill="white"/>
<line x1="16" y1="174.5" x2="350" y2="174.5" stroke="white" stroke-opacity="0.16" stroke-dasharray="6 6"/>
<mask id="path-7-inside-1_6987_5286" fill="white">
<path d="M16 207H350V239H16V207Z"/>
</mask>
<path d="M350 238H16V240H350V238Z" fill="white" fill-opacity="0.1" mask="url(#path-7-inside-1_6987_5286)"/>
<mask id="path-9-inside-2_6987_5286" fill="white">
<path d="M16 251H350V291H16V251Z"/>
</mask>
<path d="M350 290H16V292H350V290Z" fill="white" fill-opacity="0.1" mask="url(#path-9-inside-2_6987_5286)"/>
<line x1="16" y1="354.5" x2="350" y2="354.5" stroke="white" stroke-opacity="0.16" stroke-dasharray="4 4"/>
</svg>
