<svg width="110" height="110" viewBox="0 0 110 110" fill="none" xmlns="http://www.w3.org/2000/svg">
<rect x="0.296875" y="0.516846" width="109.177" height="109.177" rx="5" fill="#141414"/>
<rect x="0.296875" y="0.513794" width="109.18" height="109.18" rx="10" fill="#050505"/>
<mask id="mask0_6794_22518" style="mask-type:alpha" maskUnits="userSpaceOnUse" x="0" y="0" width="110" height="110">
<rect x="0.299805" y="0.516846" width="109.177" height="109.177" rx="5" fill="#D9D9D9"/>
</mask>
<g mask="url(#mask0_6794_22518)">
<path d="M63.2354 73.8103C63.2354 73.8367 63.2354 73.5173 63.2616 73.2242C70.3079 73.6814 80.0231 75.5686 81.3794 76.7993H79.3042L82.5989 79.6506L80.5266 79.9641L83.6612 83.0059C81.7723 84.1282 80.0929 84.0872 78.3554 83.7854C74.4029 83.0938 70.4476 82.4139 66.4806 81.7986C65.5347 81.652 64.5393 81.863 63.5701 81.7546C62.0595 81.5876 61.4949 83.0498 62.3797 84.0989C63.1481 85.0073 64.1667 85.7018 65.0835 86.4813C65.3182 86.6395 65.5306 86.8287 65.7151 87.044C63.1422 86.8037 60.8226 85.9275 58.9337 84.1605C58.2555 83.5275 57.7695 83.5744 57.0389 83.9407C52.4724 86.1766 47.8854 88.3714 43.3043 90.578C42.8328 90.8037 42.3468 90.9971 41.558 91.3487C44.8673 87.0586 50.3535 86.5399 53.7967 83.0762L53.5929 82.6103C51.4479 83.0909 49.2272 83.3575 47.1695 84.0755C37.6813 87.4191 28.2513 90.9502 18.766 94.2879C14.7146 95.7121 10.57 96.8725 6.43714 98.0476C5.56399 98.2967 4.55405 98.0857 3.27344 98.0857C3.85554 97.312 4.24554 96.7318 4.70249 96.2161C8.57635 91.8205 13.5096 88.9487 18.7252 86.5282C28.2105 82.1326 38.2255 79.3107 48.2813 76.6088C50.5689 75.9935 52.8653 75.003 55.1704 74.9678C56.9167 74.9415 58.0401 73.866 59.5129 73.6433C60.6829 73.4733 61.9198 73.7371 63.2354 73.8103Z" fill="white" fill-opacity="0.3"/>
<path d="M110.185 72.1875C105.912 65.2835 101.421 58.6433 93.688 55.0946C95.4722 57.3803 97.105 59.7216 97.1544 63.1619C94.0198 59.3231 90.3788 56.8293 85.6696 55.4462C87.6546 58.9392 89.6133 62.1861 88.5452 66.5582C85.3815 62.6462 81.9151 59.4726 77.0022 57.685C78.0791 56.4191 79.025 55.3114 80.0873 54.0689H76.6733C77.2554 61.6879 78.9056 68.8879 82.829 75.4608L82.5176 75.6278C81.8714 74.6578 81.1089 73.7465 80.5966 72.6974C76.912 65.2015 75.7332 57.1663 75.6488 48.9026C75.6488 47.9561 75.6226 47.118 74.2896 47.1444C73.0876 53.0784 70.8785 58.485 65.7298 62.1597C61.8036 64.9582 57.3127 65.8462 52.6326 65.5883C39.4656 64.8645 35.8624 57.3304 33.8949 46.3356C32.7307 46.5056 32.8879 47.1268 33.2167 47.9796C36.4619 56.3956 35.9293 64.6476 32.0846 72.7414C31.9323 73.042 31.7581 73.331 31.5636 73.6058C31.5258 73.6586 31.389 73.6381 30.9553 73.7055C34.8059 65.9956 35.7751 58.1451 33.1498 49.6763L29.6921 52.0206L33.1847 53.4858L33.0217 53.8609L29.9512 54.0748L33.045 57.6733C28.2107 59.4667 24.7152 62.5407 21.7378 66.3033C20.5474 64.3956 20.949 62.7018 24.2757 55.4843C19.6626 56.8176 15.9983 59.3524 12.8549 63.1795C12.9655 59.7568 14.5168 57.3597 16.4028 55.0858C8.58526 58.6022 4.09146 65.3421 -0.105469 72.3751C0.901561 68.3399 1.78635 64.2901 5.20909 61.4301C7.293 59.6865 9.28378 57.8198 11.2454 55.9444C13.6437 53.6616 16.5018 52.6096 19.747 52.3195C22.6313 52.0645 25.501 51.6425 28.5483 51.2704L27.7945 50.0982C29.9366 48.1993 32.0846 46.2887 34.5148 44.129C35.0242 50.2682 36.3426 55.7334 40.5163 60.0176C44.8121 64.4132 50.2489 65.3275 56.0612 64.8908C65.7007 64.167 71.9263 57.2074 73.7366 44.9349C74.7 45.6763 75.5673 46.3268 76.4114 47.0037C76.7147 47.2393 76.9858 47.5142 77.2176 47.8213C79.8166 51.3788 83.6468 51.8067 87.5935 52.0382C89.235 52.1349 90.8561 52.4806 92.4918 52.677C94.2771 52.8664 95.96 53.6087 97.3087 54.8015C100.379 57.5561 103.493 60.2696 106.433 63.159C108.558 65.2454 108.971 68.2374 109.885 70.9392C110.022 71.3494 110.086 71.7743 110.185 72.1875ZM79.5925 52.0762L76.4259 50.1275C76.5016 51.5107 76.5598 52.5568 76.618 53.644L79.5925 52.0762Z" fill="white" fill-opacity="0.3"/>
<path d="M52.5917 17.5857C52.5422 14.5351 54.0469 12.4692 56.1687 10.5381C54.0673 9.69413 52.094 9.952 50.1382 10.4033C43.7147 11.8538 38.729 17.4128 37.7773 24.1761C37.5829 25.6223 37.4856 27.0801 37.4863 28.5395C37.4863 29.9431 37.6405 31.3468 37.7278 32.7504L37.332 32.8647C36.9449 31.297 36.2085 29.7204 36.2377 28.1761C36.3173 24.1189 37.4028 20.146 39.3955 16.6186C44.1717 8.04725 58.5669 5.88462 65.2989 14.8897C69.3736 20.3197 71.2334 26.371 70.4476 33.2222C70.238 35.0303 70.6367 36.9028 70.6455 38.746C70.6455 39.4112 70.5087 40.2288 70.1158 40.7152C68.4655 42.7519 66.7571 44.7475 64.9438 46.6376C63.6446 47.9325 62.6803 49.5282 62.1352 51.2852C61.7627 52.5394 61.2126 53.7408 60.7906 54.9833C60.7003 55.25 60.7207 55.7716 60.8691 55.8624C61.188 56.0184 61.555 56.0415 61.8907 55.9269C62.5485 55.6808 63.1597 55.3145 63.9775 55.2851C61.5531 57.272 59.2073 59.3643 56.6809 61.2104C54.8357 62.5584 51.2238 62.1247 49.4658 60.6243C48.5927 59.8653 47.8156 58.9481 46.8697 58.28C45.0914 57.0405 44.8061 55.25 44.9662 53.1899C45.3766 53.9049 45.755 54.6551 46.2061 55.3262C46.5406 55.9104 46.9639 56.4384 47.4605 56.891C48.8343 57.9928 50.1352 59.0917 52.2308 58.2683C53.3484 57.8317 54.7746 58.1921 56.4132 58.1921L58.1187 54.8866C54.9172 53.6441 51.7156 55.1797 48.843 53.987L48.8721 53.5416C52.1289 53.5416 55.3887 53.4976 58.6455 53.5679C59.6031 53.5885 60.2026 53.3071 60.6159 52.469C61.0292 51.6309 61.5473 50.869 61.8965 50.0192C62.7406 47.968 62.0857 46.7401 59.9145 46.2888C59.0763 46.116 58.2119 46.0691 57.3242 45.6383C57.6766 45.5162 58.0419 45.4356 58.4127 45.398C58.8494 45.3994 59.2819 45.4839 59.6875 45.6471C62.3826 46.787 64.4083 45.861 66.3583 43.8713C66.922 43.3195 67.372 42.6612 67.6826 41.9341C67.9933 41.207 68.1584 40.4254 68.1687 39.6339C67.1325 40.05 66.1604 40.5746 65.1185 40.8266C64.0183 41.0483 62.8932 41.1183 61.7743 41.0347C63.7476 40.3372 65.2 38.1629 67.6564 39.1739C70.8143 30.9688 69.4289 19.6721 61.8354 13.6531C63.0578 17.319 63.8 20.7622 61.0467 24.0941C59.2975 20.4516 57.036 17.6443 52.5917 17.5857Z" fill="white" fill-opacity="0.3"/>
<path d="M108.697 88.466C104.5 86.4675 100.257 84.8118 95.571 84.422C97.2794 85.1107 98.9966 85.773 100.691 86.4938C101.802 86.9656 102.978 87.3729 103.927 88.0938C104.46 88.4924 104.588 89.4359 104.899 90.1451C104.166 90.3473 103.357 90.8572 102.71 90.7019C99.5583 89.9458 96.4819 88.8733 93.3212 88.1876C90.5125 87.5781 87.6282 87.3319 84.7265 87.1297C94.2496 90.4323 102.684 95.5224 110.391 101.893L110.217 102.256C108.526 101.436 106.837 100.607 105.141 99.7949C104.579 99.5253 104.02 99.1678 103.423 99.074C96.383 97.9517 89.9421 95.2205 83.8388 91.6484C81.6443 90.3649 79.473 89.4652 76.8536 89.7348C75.0404 89.9195 73.6113 88.9817 72.1648 87.1942L84.3889 85.1869L83.3906 84.4601C86.279 83.4534 89.342 83.0544 92.3898 83.288C96.383 83.581 100.362 84.1847 104.323 84.8264C106.383 85.1429 107.824 86.529 108.697 88.466Z" fill="white" fill-opacity="0.3"/>
<path d="M1.97535 85.1174L3.43059 78.8815C0.843167 80.5108 -0.373418 82.8112 -0.612079 85.6566C-0.757603 87.3533 -0.722677 89.0646 -0.844918 90.7613C-0.97589 92.5196 -3.85437 94.7789 -5.56864 94.4741C-5.98193 94.4009 -6.34866 94.0668 -6.81725 93.8031C-7.40449 95.863 -7.50417 98.0328 -7.10829 100.139C-6.79179 102.045 -6.57225 103.967 -6.45052 105.897C-6.33701 107.749 -5.76656 108.555 -3.96496 108.215C0.400772 107.394 4.73158 106.363 9.07404 105.407C9.63285 105.284 10.1829 105.114 10.7825 104.959C10.765 105.1 10.7825 105.211 10.7476 105.226C5.89578 107.435 1.01198 109.557 -4.3084 110.363C-6.39231 110.679 -6.50873 110.539 -6.79687 108.493C-7.30621 104.839 -7.88831 101.196 -8.37727 97.5393C-8.49078 96.6602 -8.58682 95.5701 -8.20264 94.8375C-5.30961 89.2991 -3.16749 83.3328 0.968319 78.4976C4.00396 74.9519 7.4005 71.8603 11.7546 70.0552C13.0672 69.5101 14.5312 69.2728 15.9515 69.0647C16.9906 68.9153 17.561 69.6244 17.2525 70.612C16.8509 71.8925 16.4521 73.2698 15.6634 74.3072C12.9042 77.9262 9.65322 81.0119 5.45048 82.9548C4.36486 83.4559 3.40149 84.2178 1.97535 85.1174Z" fill="white" fill-opacity="0.3"/>
<path d="M116.506 93.2949C115.124 94.174 113.718 93.9102 113.013 92.2985C112.361 90.6855 111.905 88.9991 111.654 87.2759C111.087 83.8532 109.617 81.0488 106.776 79.0444C106.98 80.5096 107.181 81.9924 107.419 83.7154C104.288 82.6986 101.555 81.9572 99.6252 79.6129C97.5588 77.1103 95.3642 74.7103 93.3822 72.1462C92.8758 71.4928 92.9602 70.388 92.771 69.4737C93.6994 69.38 94.6715 69.0605 95.5476 69.2305C99.1712 69.9367 102.131 71.9763 104.861 74.3411C109.227 78.1184 112.402 82.7894 114.786 88.0378C115.659 89.9337 116.823 91.6978 117.586 93.626C118.104 94.8629 118.326 96.2048 118.235 97.5439C117.848 101.307 117.117 105.031 116.704 108.791C116.529 110.382 115.741 110.722 114.498 110.388C111.095 109.468 107.699 108.524 104.346 107.443C102.513 106.814 100.751 105.988 99.0926 104.981C101.968 105.699 104.832 106.476 107.722 107.123C109.796 107.597 111.892 107.965 114.003 108.225C115.668 108.424 116.212 107.715 116.331 106.039C116.464 104.062 116.697 102.093 117.03 100.14C117.411 98.1124 117.295 95.2963 116.506 93.2949Z" fill="white" fill-opacity="0.3"/>
<path d="M49.5559 92.5787C43.2984 99.9897 36.2666 106.516 28.0183 111.477C22.5262 114.768 16.2686 115.198 10.0024 115.017C9.06518 114.99 8.13091 114.844 7.19373 114.753L7.17627 114.337C7.85732 114.182 8.54711 113.859 9.21361 113.894C17.1418 114.29 24.287 111.946 30.6785 107.489C34.9191 104.526 38.7464 100.966 42.8007 97.7245C45.0097 95.9545 47.3032 94.2901 49.5559 92.5787Z" fill="white" fill-opacity="0.3"/>
<path d="M102.067 114.238C97.1923 114.794 93.0448 113.672 89.136 111.764C85.6202 110.047 82.212 108.095 78.83 106.123C75.0464 103.905 71.318 101.546 67.6392 99.0493C68.3842 99.3131 69.1759 99.4859 69.8628 99.8552C74.083 102.112 78.3032 104.356 82.471 106.718C86.1761 108.819 89.724 111.254 93.9733 112.125C96.3221 112.605 98.796 112.485 100.976 113.719C101.212 113.851 101.465 113.95 102.067 114.238Z" fill="white" fill-opacity="0.3"/>
<path d="M41.2233 34.6535C40.5713 35.7495 40.0096 36.7048 39.3926 37.7246C39.6254 35.603 39.8233 33.622 40.0736 31.6762C40.1173 31.3363 40.3239 30.844 40.5742 30.7532C40.8245 30.6623 41.2728 30.9231 41.5434 31.1429C42.0675 31.5713 42.5543 32.0438 42.9987 32.5554C44.8905 34.7502 47.2364 35.814 50.1498 35.6938C51.4624 35.6411 52.1347 36.7165 51.605 37.915C51.4857 38.1788 50.9414 38.3751 50.5863 38.3839C48.7907 38.4905 47.0061 38.0372 45.4755 37.0857C44.1338 36.233 42.7222 35.5033 41.2233 34.6535Z" fill="white" fill-opacity="0.3"/>
<path d="M56.0668 38.7159C54.7746 36.3715 54.9026 35.9935 57.1699 35.2785C57.3533 35.2199 57.5337 35.1379 57.72 35.0968C60.3627 34.5459 62.761 33.532 64.6586 31.513C65.0108 31.1379 65.4968 30.8917 66.1633 30.4141C66.5621 31.2609 66.9957 31.9408 67.2082 32.6822C67.4993 33.7313 67.1413 34.2968 65.9072 34.3027C65.0523 34.3175 64.2105 34.5174 63.4391 34.8888C60.9798 36.0961 58.5728 37.406 56.0668 38.7159Z" fill="white" fill-opacity="0.3"/>
<path d="M25.8472 77.0514L27.6342 75.8059C27.7099 74.9268 27.7652 74.288 27.8234 73.6375C28.4055 73.7078 29.0924 73.6052 29.5697 73.8777C32.16 75.3429 34.7009 76.9224 37.4106 78.5664C36.5374 78.833 35.7952 79.0938 35.0327 79.2814C34.7416 79.3517 34.276 79.3781 34.1333 79.2111C32.6781 77.529 30.6204 77.8455 28.7606 77.5173C27.9282 77.3649 27.0929 77.2418 25.8472 77.0514Z" fill="white" fill-opacity="0.3"/>
<path d="M38.5747 41.4346C39.052 40.5878 39.7185 40.2361 40.7838 41.0361C42.7833 42.5365 44.9894 43.3804 47.5507 43.02C47.9407 42.9672 48.3714 43.2192 48.7818 43.6471L44.1803 45.757L38.5747 41.4346Z" fill="white" fill-opacity="0.3"/>
<path d="M55.0917 41.8318C55.3391 43.0889 55.5254 44.0823 55.735 45.0552C55.7932 45.3277 55.8427 45.7439 56.026 45.8259C57.88 46.6874 56.9486 47.2911 55.8834 47.9358C55.5225 48.1585 55.3013 48.7036 54.9462 48.8149C54.1924 49.0493 53.3163 49.3277 52.6178 49.146C51.7447 48.9204 51.0025 48.2406 50.2341 47.7746L52.1347 46.8779C52.2074 47.0713 52.2249 47.3468 52.3733 47.4816C52.775 47.8391 53.2028 48.3255 53.6685 48.3841C53.9275 48.4164 54.4922 47.7277 54.5417 47.3087C54.7861 45.6032 54.8996 43.8596 55.0917 41.8318Z" fill="white" fill-opacity="0.3"/>
<path d="M58.41 51.1535L50.1617 51.7718L50.0947 51.218C50.8776 51.1476 51.6606 51.0978 52.4377 51.0011C53.5466 50.8663 54.7864 50.9542 55.7265 50.4707C56.7656 49.9344 57.3739 50.0692 58.41 51.1535Z" fill="white" fill-opacity="0.3"/>
<path d="M86.1673 81.8404C84.2027 81.6118 83.7836 79.9444 83.1025 78.5232L83.446 78.1949L86.5078 81.5004L86.1673 81.8404Z" fill="white" fill-opacity="0.3"/>
<path d="M24.2346 77.184L26.2312 74.1686C26.8162 76.1759 24.9186 76.3312 24.2346 77.184Z" fill="white" fill-opacity="0.3"/>
</g>
</svg>
