<svg width="40" height="40" viewBox="0 0 40 40" fill="none" xmlns="http://www.w3.org/2000/svg">
<rect width="40" height="40" rx="5" fill="white"/>
<path d="M5.71356 5.71582V13.7158H13.7135V5.71582H5.71356ZM12.5707 12.5734H6.85641V6.85918H12.5707V12.5734Z" fill="black"/>
<path d="M26.2852 5.71582V13.7158H34.2847V5.71582H26.2852ZM33.1418 12.5734H27.4276V6.85918H33.1418V12.5734Z" fill="black"/>
<path d="M7.99945 8.00122H11.4279V11.4297H7.99945V8.00122Z" fill="black"/>
<path d="M25.1424 10.2873V6.85877L21.7135 6.85857V5.71582H20.5707V8.00157H19.4278V5.71582H14.8563V8.00157H15.999V9.14432H17.142V6.85918H18.2847V9.14432H20.5709V10.2873H19.4277V11.43H22.8562V12.5734H23.999V14.8585H25.1427V11.43H23.999V10.2873L25.1424 10.2873ZM21.7135 9.14431V8.00157H23.999V9.14431H21.7135Z" fill="black"/>
<path d="M28.57 8.00122H31.9989V11.4297H28.57V8.00122Z" fill="black"/>
<path d="M14.8563 9.14355H15.9992V11.4293H19.4277V12.5727H18.2848V13.7151H17.142V12.5727H15.9993V13.7151H14.8563L14.8563 9.14355Z" fill="black"/>
<path d="M19.4283 12.5728H20.5716V13.7155H19.4283V12.5728Z" fill="black"/>
<path d="M21.7128 12.5728H22.8556V16.0008H21.7128V14.8579H20.5703V13.7151H21.7128V12.5728Z" fill="black"/>
<path d="M15.9991 13.7156H17.1419V14.8583H15.9991V13.7156Z" fill="black"/>
<path d="M18.2845 13.7156H19.4278V14.8583H18.2845V13.7156Z" fill="black"/>
<path d="M9.14221 14.8594H10.285V16.0027H9.14221V14.8594Z" fill="black"/>
<path d="M12.5704 14.8594H13.7132V16.0027H12.5704V14.8594Z" fill="black"/>
<path d="M19.4283 14.8594H20.5716V16.0027H19.4283V14.8594Z" fill="black"/>
<path d="M27.428 14.8594H30.8561V16.0023H28.5708V17.1451H30.8561V16.0023H31.9997V18.2885H27.428V14.8594Z" fill="black"/>
<path d="M31.9982 14.8594H34.2836V18.2885H33.1408V16.0023H31.9982V14.8594Z" fill="black"/>
<path d="M5.71356 16.002H9.14206V17.1447H5.71356V16.002Z" fill="black"/>
<path d="M10.2847 16.002H12.5702V17.1447H11.4275V18.2881H10.2847L10.2847 16.002Z" fill="black"/>
<path d="M14.8563 16.002H15.999V17.1447H14.8563V16.002Z" fill="black"/>
<path d="M20.5703 16.002H21.713V17.1447H20.5703V16.002Z" fill="black"/>
<path d="M25.1423 16.002H26.2851V18.2881H23.9989V17.1448H25.1423L25.1423 16.002Z" fill="black"/>
<path d="M12.5703 17.1433H14.856V18.2867H15.999V21.7148H14.856V22.8579H15.999V21.7148H17.1417V24.0009H14.856V25.1433H10.2847V22.858H11.4274V24.0009H13.7132V22.858H12.5702V21.7148H13.7132V20.5719H12.5702V19.4291H13.7132V18.2867H12.5702L12.5703 17.1433Z" fill="black"/>
<path d="M5.71356 18.2871H6.85631V19.4299H5.71356V18.2871Z" fill="black"/>
<path d="M9.14177 18.2871H10.2847V20.5722H12.5703V21.7152H10.2847V22.8584H7.99897V21.7152H6.85602V19.4294H7.99897V20.5722H9.14172L9.14177 18.2871Z" fill="black"/>
<path d="M26.2852 18.2871H27.428V19.4299H26.2852V18.2871Z" fill="black"/>
<path d="M27.428 19.4302H30.8561V20.5729H28.5708V21.7159H27.428V19.4302Z" fill="black"/>
<path d="M31.9994 19.4302H33.142V20.5729H34.2847V22.8591H30.8558V20.5729H31.9994V19.4302Z" fill="black"/>
<path d="M17.1415 20.574H18.2843V21.7173H17.1415V20.574Z" fill="black"/>
<path d="M5.71356 21.7148H6.85631V22.8582H5.71356V21.7148Z" fill="black"/>
<path d="M18.2845 21.7148H19.4278V22.8582H18.2845V21.7148Z" fill="black"/>
<path d="M6.85636 22.8586H7.99931V25.144H5.71356V24.0016H6.85631L6.85636 22.8586Z" fill="black"/>
<path d="M14.8563 25.144H15.999V26.2868H14.8563V25.144Z" fill="black"/>
<path d="M15.9992 26.2869H17.142V30.8584H18.2847V28.573H21.7134V29.716H20.5708V33.1441H21.7134V34.2868H18.2847V33.1441H17.142V32.0015H15.9992V30.8583H14.8563V29.7159H15.9992V26.2869Z" fill="black"/>
<path d="M26.2852 26.2869H27.428V27.4306H26.2852V26.2869Z" fill="black"/>
<path d="M5.71356 26.2869V34.2868H13.7135V26.2869H5.71356ZM12.5707 33.144H6.85641V27.4302H12.5707V33.144Z" fill="black"/>
<path d="M7.99933 28.5732H11.4278V32.0017H7.99933V28.5732Z" fill="black"/>
<path d="M33.1417 24.0027V25.1454H31.999V24.0027H30.8552V25.1454H29.7125V22.8601H27.4275V24.0028H25.1422V22.8601H27.4275V21.7165H26.2848V19.4308H23.9988V20.5735H25.1426V21.7165H23.9988V20.5735H22.8561V19.4308H23.9988V18.288L22.8561 18.2878V17.1451H21.7133V18.2884H18.2846V17.1451H19.4276V16.0023H18.2846V14.8594H17.1419V17.1451H15.9991V18.2885H17.1419V19.4312H18.2846V20.574H20.5708V19.4312H21.7135V20.574H20.5708V21.7166H21.7135V22.8599H19.4278L19.428 25.1451H18.2846V26.2878H21.7133V27.4316H22.8561V25.1451H20.5707V24.0023L22.8561 24.0021V22.8594H23.9988V24.0021H22.8561V25.1449H23.9988V27.431L22.8561 27.4312V28.574H23.9988V29.7167H25.1426V33.1452L27.4275 33.1454V32.0027H30.8556V30.8593H33.1418V28.574H31.999V29.7167L29.7131 29.7169V26.2878H30.8558V28.574H31.9996L31.9998 26.2878H33.1425V27.4316H34.2845V24.0027L33.1417 24.0027ZM28.5702 30.8593H26.2849V29.7165L28.5702 29.7163V30.8593ZM28.5702 28.5739H25.1421V25.145H28.5702V28.5739Z" fill="black"/>
<path d="M21.7127 30.8577H22.8555V32.001H21.7127V30.8577Z" fill="black"/>
<path d="M33.1421 30.8577H34.2848V32.001H33.1421V30.8577Z" fill="black"/>
<path d="M22.856 32.0015H23.9988V34.2868H22.856V32.0015Z" fill="black"/>
<path d="M15.9991 33.1453H17.1419V34.288H15.9991V33.1453Z" fill="black"/>
<path d="M28.57 33.1453H30.8554V34.288H28.57V33.1453Z" fill="black"/>
<path d="M31.9982 33.1453H34.2836V34.288H31.9982V33.1453Z" fill="black"/>
</svg>
