<svg width="388" height="100" viewBox="0 0 388 100" fill="none" xmlns="http://www.w3.org/2000/svg">
<rect x="0.75" y="0.75" width="386.5" height="98.5" rx="11.25" fill="#0A52BE"/>
<rect x="0.75" y="0.75" width="386.5" height="98.5" rx="11.25" stroke="url(#paint0_linear_7527_5779)" stroke-width="1.5"/>
<path d="M49.3335 36.6668V30.0002C49.3335 28.2321 50.0359 26.5364 51.2861 25.2861C52.5364 24.0359 54.2321 23.3335 56.0002 23.3335H62.6668M49.3335 63.3335V70.0002C49.3335 71.7683 50.0359 73.464 51.2861 74.7142C52.5364 75.9644 54.2321 76.6668 56.0002 76.6668H62.6668M89.3335 23.3335H96.0002C97.7683 23.3335 99.464 24.0359 100.714 25.2861C101.964 26.5364 102.667 28.2321 102.667 30.0002V36.6668M89.3335 76.6668H96.0002C97.7683 76.6668 99.464 75.9644 100.714 74.7142C101.964 73.464 102.667 71.7683 102.667 70.0002V63.3335M89.3335 63.3335L81.0002 55.0002M62.6668 46.6668C62.6668 47.98 62.9255 49.2804 63.428 50.4937C63.9306 51.7069 64.6672 52.8093 65.5958 53.7379C66.5243 54.6665 67.6267 55.4031 68.84 55.9056C70.0533 56.4082 71.3536 56.6668 72.6668 56.6668C73.98 56.6668 75.2804 56.4082 76.4937 55.9056C77.7069 55.4031 78.8093 54.6665 79.7379 53.7379C80.6665 52.8093 81.4031 51.7069 81.9056 50.4937C82.4082 49.2804 82.6668 47.98 82.6668 46.6668C82.6668 44.0147 81.6133 41.4711 79.7379 39.5958C77.8625 37.7204 75.319 36.6668 72.6668 36.6668C70.0147 36.6668 67.4711 37.7204 65.5958 39.5958C63.7204 41.4711 62.6668 44.0147 62.6668 46.6668Z" stroke="white" stroke-width="5" stroke-linecap="round" stroke-linejoin="round"/>
<path d="M149.368 47.006H146.442V45.884C146.442 45.7667 146.398 45.664 146.31 45.576C146.237 45.488 146.141 45.444 146.024 45.444H144.814C144.697 45.444 144.594 45.488 144.506 45.576C144.433 45.664 144.396 45.7667 144.396 45.884V48.414C144.396 48.5313 144.433 48.634 144.506 48.722C144.594 48.81 144.697 48.854 144.814 48.854H146.794C148.613 48.8833 149.522 49.8513 149.522 51.758V54.816C149.522 56.752 148.613 57.72 146.794 57.72H144.198C142.379 57.72 141.47 56.752 141.47 54.816V53.342H144.396V54.926C144.396 55.0433 144.433 55.146 144.506 55.234C144.594 55.322 144.697 55.366 144.814 55.366H146.178C146.295 55.366 146.391 55.322 146.464 55.234C146.552 55.146 146.596 55.0433 146.596 54.926V52.132C146.596 52.0147 146.552 51.912 146.464 51.824C146.391 51.736 146.295 51.692 146.178 51.692H144.198C142.379 51.692 141.47 50.724 141.47 48.788V45.95C141.47 44.014 142.379 43.046 144.198 43.046H146.64C148.459 43.046 149.368 44.014 149.368 45.95V47.006ZM159.378 50.988H156.43V49.096C156.43 48.9787 156.386 48.876 156.298 48.788C156.225 48.7 156.13 48.656 156.012 48.656H154.802C154.685 48.656 154.582 48.7 154.494 48.788C154.421 48.876 154.384 48.9787 154.384 49.096V55.168C154.384 55.2853 154.421 55.388 154.494 55.476C154.582 55.564 154.685 55.608 154.802 55.608H156.012C156.13 55.608 156.225 55.564 156.298 55.476C156.386 55.388 156.43 55.2853 156.43 55.168V53.276H159.378V54.816C159.378 56.752 158.469 57.72 156.65 57.72H154.164C152.346 57.72 151.436 56.752 151.436 54.816V49.448C151.436 47.512 152.346 46.544 154.164 46.544H156.65C158.469 46.544 159.378 47.512 159.378 49.448V50.988ZM166.711 46.764H169.197V57.5H166.711V56.708C166.256 57.3827 165.501 57.72 164.445 57.72H163.983C162.164 57.72 161.255 56.752 161.255 54.816V49.448C161.255 47.512 162.164 46.544 163.983 46.544H164.445C165.501 46.544 166.256 46.8813 166.711 47.556V46.764ZM166.249 55.168V49.096C166.249 48.9787 166.205 48.876 166.117 48.788C166.043 48.7 165.948 48.656 165.831 48.656H164.621C164.503 48.656 164.401 48.7 164.313 48.788C164.239 48.876 164.203 48.9787 164.203 49.096V55.168C164.203 55.2853 164.239 55.388 164.313 55.476C164.401 55.564 164.503 55.608 164.621 55.608H165.831C165.948 55.608 166.043 55.564 166.117 55.476C166.205 55.388 166.249 55.2853 166.249 55.168ZM174.15 57.5H171.202V46.764H173.886V47.314C174.341 46.8007 175.03 46.544 175.954 46.544H176.416C178.235 46.544 179.144 47.512 179.144 49.448V57.5H176.196V49.096C176.196 48.9787 176.152 48.876 176.064 48.788C175.991 48.7 175.895 48.656 175.778 48.656H174.568C174.451 48.656 174.348 48.7 174.26 48.788C174.187 48.876 174.15 48.9787 174.15 49.096V57.5ZM191.25 43.266C193.069 43.266 193.978 44.234 193.978 46.17V49.008C193.978 50.944 193.069 51.912 191.25 51.912H188.764V57.5H185.684V43.266H191.25ZM190.898 49.36V45.818C190.898 45.7007 190.854 45.598 190.766 45.51C190.693 45.422 190.598 45.378 190.48 45.378H188.764V49.8H190.48C190.598 49.8 190.693 49.756 190.766 49.668C190.854 49.58 190.898 49.4773 190.898 49.36ZM200.409 46.764H203.357V57.5H200.673V56.95C200.218 57.4633 199.529 57.72 198.605 57.72H198.143C196.324 57.72 195.415 56.752 195.415 54.816V46.764H198.363V55.168C198.363 55.2853 198.399 55.388 198.473 55.476C198.561 55.564 198.663 55.608 198.781 55.608H199.991C200.108 55.608 200.203 55.564 200.277 55.476C200.365 55.388 200.409 55.2853 200.409 55.168V46.764ZM209.938 46.544H210.51V49.404H209.058C208.559 49.404 208.31 49.6607 208.31 50.174V57.5H205.362V46.764H208.046V47.798C208.471 46.962 209.102 46.544 209.938 46.544ZM219.771 50.988H216.823V49.096C216.823 48.9787 216.779 48.876 216.691 48.788C216.618 48.7 216.522 48.656 216.405 48.656H215.195C215.078 48.656 214.975 48.7 214.887 48.788C214.814 48.876 214.777 48.9787 214.777 49.096V55.168C214.777 55.2853 214.814 55.388 214.887 55.476C214.975 55.564 215.078 55.608 215.195 55.608H216.405C216.522 55.608 216.618 55.564 216.691 55.476C216.779 55.388 216.823 55.2853 216.823 55.168V53.276H219.771V54.816C219.771 56.752 218.862 57.72 217.043 57.72H214.557C212.738 57.72 211.829 56.752 211.829 54.816V49.448C211.829 47.512 212.738 46.544 214.557 46.544H217.043C218.862 46.544 219.771 47.512 219.771 49.448V50.988ZM224.595 57.5H221.647V43.266H224.595V47.072C225.035 46.72 225.637 46.544 226.399 46.544H226.861C228.68 46.544 229.589 47.512 229.589 49.448V57.5H226.641V49.096C226.641 48.9787 226.597 48.876 226.509 48.788C226.436 48.7 226.341 48.656 226.223 48.656H225.013C224.764 48.656 224.625 48.788 224.595 49.052V57.5ZM237.05 46.764H239.536V57.5H237.05V56.708C236.596 57.3827 235.84 57.72 234.784 57.72H234.322C232.504 57.72 231.594 56.752 231.594 54.816V49.448C231.594 47.512 232.504 46.544 234.322 46.544H234.784C235.84 46.544 236.596 46.8813 237.05 47.556V46.764ZM236.588 55.168V49.096C236.588 48.9787 236.544 48.876 236.456 48.788C236.383 48.7 236.288 48.656 236.17 48.656H234.96C234.843 48.656 234.74 48.7 234.652 48.788C234.579 48.876 234.542 48.9787 234.542 49.096V55.168C234.542 55.2853 234.579 55.388 234.652 55.476C234.74 55.564 234.843 55.608 234.96 55.608H236.17C236.288 55.608 236.383 55.564 236.456 55.476C236.544 55.388 236.588 55.2853 236.588 55.168ZM246.602 50.768C248.42 50.768 249.33 51.736 249.33 53.672V54.816C249.33 56.752 248.42 57.72 246.602 57.72H244.16C242.341 57.72 241.432 56.752 241.432 54.816V54.134H244.16V55.102C244.16 55.2193 244.196 55.322 244.27 55.41C244.358 55.498 244.46 55.542 244.578 55.542H246.382C246.499 55.542 246.594 55.498 246.668 55.41C246.756 55.322 246.8 55.2193 246.8 55.102V53.782C246.8 53.6647 246.756 53.562 246.668 53.474C246.594 53.386 246.499 53.342 246.382 53.342H244.116C242.297 53.342 241.388 52.374 241.388 50.438V49.448C241.388 47.512 242.297 46.544 244.116 46.544H246.426C248.244 46.544 249.154 47.512 249.154 49.448V49.844H246.426V49.162C246.426 49.0447 246.382 48.942 246.294 48.854C246.22 48.766 246.125 48.722 246.008 48.722H244.336C244.218 48.722 244.116 48.766 244.028 48.854C243.954 48.942 243.918 49.0447 243.918 49.162V50.328C243.918 50.4453 243.954 50.548 244.028 50.636C244.116 50.724 244.218 50.768 244.336 50.768H246.602ZM256.273 46.544C258.092 46.544 259.001 47.512 259.001 49.448V52.924H254.007V55.168C254.007 55.2853 254.044 55.388 254.117 55.476C254.205 55.564 254.308 55.608 254.425 55.608H255.635C255.753 55.608 255.848 55.564 255.921 55.476C256.009 55.388 256.053 55.2853 256.053 55.168V53.98H259.001V54.816C259.001 56.752 258.092 57.72 256.273 57.72H253.787C251.969 57.72 251.059 56.752 251.059 54.816V49.448C251.059 47.512 251.969 46.544 253.787 46.544H256.273ZM254.007 50.988H256.053V49.008C256.053 48.8907 256.009 48.788 255.921 48.7C255.848 48.612 255.753 48.568 255.635 48.568H254.425C254.308 48.568 254.205 48.612 254.117 48.7C254.044 48.788 254.007 48.8907 254.007 49.008V50.988Z" fill="white"/>
<defs>
<linearGradient id="paint0_linear_7527_5779" x1="178" y1="-77.4419" x2="182.038" y2="104.794" gradientUnits="userSpaceOnUse">
<stop stop-color="#606060"/>
<stop offset="1" stop-color="white" stop-opacity="0.3"/>
</linearGradient>
</defs>
</svg>
