<svg width="23" height="23" viewBox="0 0 23 23" fill="none" xmlns="http://www.w3.org/2000/svg">
<g clip-path="url(#clip0_7634_35159)">
<path d="M2.87243 0C1.29584 0 0.000130554 1.29571 0.000130554 2.8723V7.66178V7.66156C-0.000939091 7.91591 0.0991763 8.16021 0.27844 8.34052C0.45749 8.52107 0.700931 8.62289 0.955264 8.62375C1.2094 8.6229 1.45284 8.52107 1.63209 8.34052C1.81114 8.16018 1.91126 7.91589 1.91019 7.66156V2.87209C1.91019 2.33151 2.33161 1.91695 2.87238 1.91695H7.66186V1.91717C7.91728 1.91824 8.16264 1.81705 8.34317 1.6365C8.52394 1.45574 8.6249 1.21038 8.62405 0.95497C8.62298 0.700833 8.52115 0.457178 8.34082 0.278145C8.16027 0.0990947 7.91597 -0.00102407 7.66186 4.93021e-05L2.87243 0Z" fill="#CC0000"/>
<path d="M15.3306 0.000279518C15.0776 0.00113526 14.8352 0.101894 14.6562 0.280944C14.4773 0.45978 14.3764 0.702153 14.3755 0.955194C14.3744 1.20954 14.4745 1.45363 14.6538 1.63416C14.8329 1.81471 15.0763 1.91653 15.3306 1.91739H20.1201C20.6607 1.91739 21.0823 2.33175 21.0823 2.87252V7.66199L21.0821 7.66178C21.0812 7.91613 21.1811 8.16043 21.3604 8.34074C21.5394 8.52129 21.7829 8.62311 22.0372 8.62397C22.2926 8.62504 22.538 8.52386 22.7185 8.34331C22.8993 8.16254 23.0003 7.91739 22.9992 7.66177V2.8723C22.9992 1.29571 21.6964 0 20.1198 0L15.3306 0.000279518Z" fill="#CC0000"/>
<path d="M22.037 14.377C21.7839 14.3779 21.5415 14.4786 21.3625 14.6577C21.1837 14.8365 21.0827 15.0789 21.0818 15.3319V20.1285C21.0818 20.6691 20.6604 21.0836 20.1196 21.0836H15.3302H15.3304C15.0773 21.0845 14.8349 21.1854 14.6559 21.3643C14.4771 21.5431 14.3761 21.7857 14.3753 22.0385C14.3742 22.2929 14.4743 22.5372 14.6536 22.7175C14.8326 22.898 15.0761 22.9999 15.3304 23.0007H20.1199C21.6965 23.0007 22.9992 21.705 22.9992 20.1284V15.3319H22.999C22.9982 15.0777 22.8963 14.8341 22.716 14.6551C22.5354 14.476 22.2911 14.3759 22.037 14.377L22.037 14.377Z" fill="#CC0000"/>
<path d="M0.955134 14.377C0.702065 14.3778 0.459692 14.4786 0.280664 14.6576C0.101828 14.8365 0.000854314 15.0788 0 15.3319V20.1284C0 21.705 1.29571 23.0007 2.8723 23.0007H7.66177C7.9172 23.0018 8.16256 22.9006 8.34309 22.72C8.52385 22.5393 8.62482 22.2941 8.62397 22.0385C8.6229 21.7844 8.52107 21.5409 8.34074 21.3617C8.16018 21.1826 7.91589 21.0825 7.66177 21.0836H2.8723C2.33172 21.0836 1.9101 20.6692 1.9101 20.1285V15.3319C1.90925 15.0788 1.80828 14.8365 1.62944 14.6577C1.4506 14.4786 1.20802 14.3779 0.955189 14.377L0.955134 14.377Z" fill="#CC0000"/>
<path d="M3.82748 4.7904L3.81657 9.13897H3.81678C3.81635 9.25534 3.86234 9.36722 3.9447 9.44958C4.02685 9.53215 4.13852 9.57836 4.2551 9.57836H18.7363C18.8526 9.57836 18.9645 9.53216 19.0467 9.44958C19.1288 9.36722 19.175 9.25534 19.1746 9.13897L19.1637 4.7904H19.1639C19.1633 4.53605 19.0616 4.29217 18.8815 4.1127C18.7014 3.933 18.4573 3.83203 18.203 3.83203H4.78858C4.53423 3.83203 4.29014 3.933 4.11 4.1127C3.93009 4.29217 3.82848 4.53605 3.82784 4.7904H3.82748ZM3.81657 13.8532L3.82748 18.2074C3.82812 18.4618 3.92973 18.7056 4.10985 18.8853C4.28997 19.0648 4.53384 19.1658 4.78843 19.1658H18.2055C18.4599 19.1658 18.704 19.0648 18.8839 18.8853C19.064 18.7056 19.1656 18.4618 19.1663 18.2074L19.1772 13.8532C19.1774 13.7367 19.1314 13.625 19.049 13.5424C18.9669 13.4601 18.8552 13.4136 18.7386 13.4136H4.25473C4.13836 13.4136 4.02669 13.4601 3.94433 13.5424C3.86219 13.625 3.81598 13.7367 3.81641 13.8532H3.81657Z" fill="#CC0000"/>
<path d="M2.87242 10.541C2.61807 10.5402 2.37398 10.6401 2.19346 10.8193C2.01312 10.9984 1.91109 11.2418 1.91023 11.4962C1.90916 11.7516 2.01034 11.9969 2.19089 12.1775C2.37165 12.3582 2.61702 12.4592 2.87242 12.4583H20.1203C20.3757 12.4592 20.621 12.3582 20.8016 12.1775C20.9823 11.9969 21.0833 11.7516 21.0822 11.4962C21.0814 11.2418 20.9796 10.9984 20.799 10.8193C20.6187 10.6401 20.3744 10.5402 20.1202 10.541H2.87242Z" fill="#CC0000"/>
</g>
<defs>
<clipPath id="clip0_7634_35159">
<rect width="22.9996" height="23" fill="white"/>
</clipPath>
</defs>
</svg>
