<svg width="40" height="40" viewBox="0 0 40 40" fill="none" xmlns="http://www.w3.org/2000/svg">
<rect width="40" height="40" rx="4" fill="#0A52BE"/>
<path d="M5.99902 6V13.8402H13.8392V6H5.99902ZM12.7192 12.7207H7.11905V7.12053H12.7192V12.7207Z" fill="white"/>
<path d="M26.1602 6V13.8402H33.9999V6H26.1602ZM32.8798 12.7207H27.2797V7.12053H32.8798V12.7207Z" fill="white"/>
<path d="M8.23926 8.24023H11.5993V11.6003H8.23926V8.24023Z" fill="white"/>
<path d="M25.0397 10.4802V7.12012L21.6793 7.11993V6H20.5593V8.24011H19.4392V6H14.959V8.24011H16.0789V9.36004H17.199V7.12053H18.319V9.36004H20.5595V10.4802H19.4392V11.6001H22.7992V12.7206H23.9191V14.9601H25.04V11.6001H23.9191V10.4802L25.0397 10.4802ZM21.6793 9.36003V8.2401H23.9192V9.36003H21.6793Z" fill="white"/>
<path d="M28.3994 8.24023H31.7599V11.6003H28.3994V8.24023Z" fill="white"/>
<path d="M14.959 9.36133H16.0791V11.6014H19.4392V12.722H18.319V13.8415H17.1991V12.722H16.0792V13.8415H14.959L14.959 9.36133Z" fill="white"/>
<path d="M19.4404 12.7227H20.561V13.8426H19.4404V12.7227Z" fill="white"/>
<path d="M21.6784 12.7188H22.7983V16.0784H21.6784V14.9583H20.5586V13.8383H21.6784V12.7188Z" fill="white"/>
<path d="M16.0791 13.8418H17.199V14.9617H16.0791V13.8418Z" fill="white"/>
<path d="M18.3193 13.8398H19.4399V14.9598H18.3193V13.8398Z" fill="white"/>
<path d="M9.35938 14.9629H10.4793V16.0834H9.35938V14.9629Z" fill="white"/>
<path d="M12.7197 14.9629H13.8397V16.0834H12.7197V14.9629Z" fill="white"/>
<path d="M19.4404 14.9629H20.561V16.0834H19.4404V14.9629Z" fill="white"/>
<path d="M27.2803 14.9629H30.6399V16.083H28.4002V17.2029H30.6399V16.083H31.7606V18.3235H27.2803V14.9629Z" fill="white"/>
<path d="M31.7588 14.9629H33.9985V18.3235H32.8786V16.083H31.7588V14.9629Z" fill="white"/>
<path d="M5.99902 16.082H9.35906V17.202H5.99902V16.082Z" fill="white"/>
<path d="M10.4785 16.082H12.7184V17.202H11.5985V18.3225H10.4786L10.4785 16.082Z" fill="white"/>
<path d="M14.959 16.082H16.0789V17.202H14.959V16.082Z" fill="white"/>
<path d="M20.5586 16.082H21.6785V17.202H20.5586V16.082Z" fill="white"/>
<path d="M25.0395 16.082H26.1595V18.3225H23.9189V17.202H25.0395L25.0395 16.082Z" fill="white"/>
<path d="M12.7185 17.2012H14.9586V18.3217H16.0787V21.6813H14.9586V22.8017H16.0787V21.6813H17.1986V23.9218H14.9585V25.0414H10.4785V22.8017H11.5984V23.9218H13.8386V22.8017H12.7184V21.6814H13.8386V20.5613H12.7184V19.4413H13.8386V18.3218H12.7184L12.7185 17.2012Z" fill="white"/>
<path d="M5.99902 18.3203H7.11895V19.4402H5.99902V18.3203Z" fill="white"/>
<path d="M9.35925 18.3203H10.4794V20.5598H12.7193V21.68H10.4794V22.8003H8.23927V21.68H7.11914V19.4398H8.23927V20.5598H9.3592L9.35925 18.3203Z" fill="white"/>
<path d="M26.1602 18.3203H27.2801V19.4402H26.1602V18.3203Z" fill="white"/>
<path d="M27.2803 19.4414H30.6399V20.5613H28.4002V21.6815H27.2803V19.4414Z" fill="white"/>
<path d="M31.7594 19.4414H32.8792V20.5613H33.9991V22.8018H30.6387V20.5613H31.7594V19.4414Z" fill="white"/>
<path d="M17.1982 20.5625H18.3182V21.683H17.1982V20.5625Z" fill="white"/>
<path d="M5.99902 21.6777H7.11895V22.7983H5.99902V21.6777Z" fill="white"/>
<path d="M18.3193 21.6777H19.4399V22.7983H18.3193V21.6777Z" fill="white"/>
<path d="M7.119 22.8008H8.23913V25.0405H5.99902V23.9209H7.11895L7.119 22.8008Z" fill="white"/>
<path d="M14.959 25.0391H16.0789V26.159H14.959V25.0391Z" fill="white"/>
<path d="M16.0791 26.1582H17.199V30.6384H18.319V28.3987H21.6792V29.5188H20.5594V32.8785H21.6792V33.9984H18.319V32.8785H17.199V31.7587H16.0791V30.6384H14.959V29.5188H16.0791V26.1582Z" fill="white"/>
<path d="M26.1602 26.1582H27.2801V27.2791H26.1602V26.1582Z" fill="white"/>
<path d="M5.99902 26.1582V33.9984H13.8392V26.1582H5.99902ZM12.7192 32.8784H7.11905V27.2787H12.7192V32.8784Z" fill="white"/>
<path d="M8.23926 28.4004H11.5993V31.7604H8.23926V28.4004Z" fill="white"/>
<path d="M32.8794 23.9236V25.0435H31.7595V23.9236H30.6385V25.0435H29.5186V22.8038H27.2793V23.9238H25.0396V22.8038H27.2793V21.6831H26.1594V19.443H23.9191V20.5629H25.04V21.6831H23.9191V20.5629H22.7991V19.443H23.9191V18.3231L22.7991 18.3229V17.2029H21.6792V18.3235H18.319V17.2029H19.4391V16.083H18.319V14.9629H17.199V17.203H16.0791V18.3235H17.199V19.4435H18.319V20.5634H20.5595V19.4435H21.6794V20.5634H20.5595V21.6832H21.6794V22.8037H19.4393L19.4395 25.0432H18.319V26.1631H21.6792V27.2841H22.7991V25.0432H20.5594V23.9233L22.7991 23.9231V22.8031H23.9191V23.9231H22.7991V25.043H23.9191V27.2835L22.7991 27.2837V28.4036H23.9191V29.5236H25.04V32.8836L27.2793 32.8838V31.7639H30.6389V30.6433H32.8794V28.4036H31.7595V29.5236L29.5192 29.5238V26.1631H30.6391V28.4036H31.7601L31.7603 26.1631H32.8802V27.2841H33.9994V23.9236L32.8794 23.9236ZM28.3992 30.6433H26.1595V29.5234L28.3992 29.5232V30.6433ZM28.3992 28.4036H25.0395V25.0431H28.3992V28.4036Z" fill="white"/>
<path d="M21.6787 30.6406H22.7986V31.7612H21.6787V30.6406Z" fill="white"/>
<path d="M32.8799 30.6406H33.9998V31.7612H32.8799V30.6406Z" fill="white"/>
<path d="M22.7998 31.7598H23.9197V33.9995H22.7998V31.7598Z" fill="white"/>
<path d="M16.0791 32.8809H17.199V34.0008H16.0791V32.8809Z" fill="white"/>
<path d="M28.3994 32.8809H30.6391V34.0008H28.3994V32.8809Z" fill="white"/>
<path d="M31.7588 32.8809H33.9985V34.0008H31.7588V32.8809Z" fill="white"/>
</svg>
