<svg width="24" height="24" viewBox="0 0 24 24" fill="none" xmlns="http://www.w3.org/2000/svg">
<path fill-rule="evenodd" clip-rule="evenodd" d="M12 3.00001C9.61305 3.00001 7.32387 3.94822 5.63604 5.63605C3.94821 7.32387 3 9.61306 3 12C3 12.2652 2.89464 12.5196 2.70711 12.7071C2.51957 12.8947 2.26522 13 2 13C1.73478 13 1.48043 12.8947 1.29289 12.7071C1.10536 12.5196 1 12.2652 1 12C1 5.92501 5.925 1.00001 12 1.00001C13.4984 0.998219 14.9813 1.30342 16.3572 1.89677C17.7331 2.49013 18.9728 3.35907 20 4.45001V2.00001C20 1.73479 20.1054 1.48044 20.2929 1.2929C20.4804 1.10536 20.7348 1.00001 21 1.00001C21.2652 1.00001 21.5196 1.10536 21.7071 1.2929C21.8946 1.48044 22 1.73479 22 2.00001V7.00001C22 7.26522 21.8946 7.51958 21.7071 7.70711C21.5196 7.89465 21.2652 8.00001 21 8.00001H16C15.7348 8.00001 15.4804 7.89465 15.2929 7.70711C15.1054 7.51958 15 7.26522 15 7.00001C15 6.73479 15.1054 6.48044 15.2929 6.2929C15.4804 6.10536 15.7348 6.00001 16 6.00001H18.708C17.8648 5.05507 16.8311 4.29925 15.675 3.7822C14.5189 3.26515 13.2665 2.99859 12 3.00001ZM12 21C14.3869 21 16.6761 20.0518 18.364 18.364C20.0518 16.6761 21 14.387 21 12C21 11.7348 21.1054 11.4804 21.2929 11.2929C21.4804 11.1054 21.7348 11 22 11C22.2652 11 22.5196 11.1054 22.7071 11.2929C22.8946 11.4804 23 11.7348 23 12C23 18.075 18.075 23 12 23C10.5016 23.0018 9.01873 22.6966 7.64282 22.1032C6.26692 21.5099 5.02716 20.6409 4 19.55V22C4 22.2652 3.89464 22.5196 3.70711 22.7071C3.51957 22.8947 3.26522 23 3 23C2.73478 23 2.48043 22.8947 2.29289 22.7071C2.10536 22.5196 2 22.2652 2 22V17C2 16.7348 2.10536 16.4804 2.29289 16.2929C2.48043 16.1054 2.73478 16 3 16H8C8.26522 16 8.51957 16.1054 8.70711 16.2929C8.89464 16.4804 9 16.7348 9 17C9 17.2652 8.89464 17.5196 8.70711 17.7071C8.51957 17.8947 8.26522 18 8 18H5.292C6.13523 18.9449 7.16886 19.7008 8.32498 20.2178C9.4811 20.7349 10.7335 21.0014 12 21Z" fill="white"/>
</svg>
