<svg width="388" height="100" viewBox="0 0 388 100" fill="none" xmlns="http://www.w3.org/2000/svg">
<rect x="0.75" y="0.75" width="386.5" height="98.5" rx="11.25" fill="#141414"/>
<rect x="0.75" y="0.75" width="386.5" height="98.5" rx="11.25" stroke="url(#paint0_linear_7527_5857)" stroke-width="1.5"/>
<path fill-rule="evenodd" clip-rule="evenodd" d="M79.4897 28.0311H86.6157C86.9072 28.0311 87.1868 28.1469 87.3929 28.3531C87.599 28.5592 87.7148 28.8388 87.7148 29.1303C87.7148 29.4218 87.599 29.7014 87.3929 29.9075C87.1868 30.1136 86.9072 30.2294 86.6157 30.2294H79.4896L79.9883 30.6189C80.2172 30.7977 80.3657 31.0601 80.4011 31.3484C80.4365 31.6366 80.356 31.9272 80.1772 32.1561C79.9984 32.385 79.736 32.5334 79.4478 32.5689C79.1595 32.6043 78.8689 32.5238 78.6401 32.345L75.6287 29.9934C75.0571 29.547 75.0734 28.6846 75.645 28.2547L78.6401 25.9158C78.8695 25.7434 79.1574 25.6679 79.4419 25.7055C79.7264 25.7432 79.9847 25.891 80.1614 26.1171C80.338 26.3433 80.4189 26.6297 80.3865 26.9149C80.3541 27.2 80.2111 27.4611 79.9883 27.6419L79.4897 28.0311ZM60.0175 17.0259C53.3324 17.0259 47.9131 22.4452 47.9131 29.1303C47.9131 35.8154 53.3324 41.2347 60.0175 41.2347C66.7026 41.2347 72.1219 35.8154 72.1219 29.1303C72.1219 22.4452 66.7026 17.0259 60.0175 17.0259ZM60.0175 38.9765C54.5798 38.9765 50.1713 34.568 50.1713 29.1303C50.1713 23.6926 54.5798 19.2839 60.0175 19.2839C65.4552 19.2839 69.8639 23.6924 69.8639 29.1303C69.8637 34.568 65.4552 38.9765 60.0175 38.9765ZM60.0175 21.4822C55.7934 21.4822 52.3696 24.9061 52.3696 29.1303C52.3696 33.3543 55.7935 36.7782 60.0175 36.7782C64.2416 36.7782 67.6656 33.3543 67.6656 29.1303C67.6654 24.9063 64.2415 21.4822 60.0175 21.4822ZM61.1166 34.4118V34.6654C61.1166 34.9569 61.0008 35.2365 60.7947 35.4426C60.5886 35.6487 60.309 35.7645 60.0175 35.7645C59.726 35.7645 59.4464 35.6487 59.2403 35.4426C59.0342 35.2365 58.9184 34.9569 58.9184 34.6654V34.3892C57.567 34.0559 56.4913 33.1276 56.1466 31.745C56.1122 31.6052 56.1057 31.4599 56.1274 31.3176C56.1491 31.1752 56.1987 31.0385 56.2733 30.9153C56.3478 30.7921 56.4459 30.6848 56.562 30.5996C56.678 30.5143 56.8097 30.4527 56.9495 30.4183C57.0894 30.3839 57.2346 30.3774 57.377 30.3991C57.5193 30.4209 57.656 30.4704 57.7792 30.545C57.9024 30.6195 58.0097 30.7176 58.095 30.8337C58.1802 30.9497 58.2418 31.0814 58.2762 31.2212C58.4779 32.0305 59.3462 32.3514 60.1061 32.3333C60.2027 32.3297 60.2991 32.3216 60.3949 32.3091C60.8719 32.2511 61.7427 32.0203 61.7282 31.4044C61.7256 31.3717 61.7221 31.3391 61.7177 31.3066C61.6206 30.5064 60.496 30.2868 59.8495 30.1806C58.1424 29.9004 56.5027 29.0698 56.4083 27.1242C56.33 25.5142 57.4299 24.3044 58.9185 23.8896V23.5949C58.9185 23.3034 59.0343 23.0238 59.2404 22.8177C59.4466 22.6115 59.7261 22.4957 60.0176 22.4957C60.3091 22.4957 60.5887 22.6115 60.7948 22.8177C61.001 23.0238 61.1168 23.3034 61.1168 23.5949V23.8747C62.161 24.1569 63.1055 24.8555 63.606 26.0477C63.7127 26.3153 63.71 26.6141 63.5986 26.8797C63.4872 27.1454 63.276 27.3567 63.0103 27.4681C62.7447 27.5795 62.4459 27.5822 62.1783 27.4756C61.9107 27.369 61.6957 27.1615 61.5795 26.8979C61.2529 26.1201 60.4339 25.8065 59.6419 25.9659C59.1111 26.0727 58.5686 26.4135 58.5981 27.0212C58.632 27.7215 59.657 27.9273 60.2016 28.0167C61.9595 28.3052 63.6577 29.0624 63.899 31.049C63.9089 31.1302 63.915 31.2318 63.9179 31.3529C63.9582 33.0465 62.6442 34.0793 61.1166 34.4118ZM103.875 43.7072H96.7493C96.4578 43.7072 96.1782 43.5914 95.9721 43.3852C95.766 43.1791 95.6502 42.8995 95.6502 42.608C95.6502 42.3165 95.766 42.037 95.9721 41.8308C96.1782 41.6247 96.4578 41.5089 96.7493 41.5089H103.875L103.377 41.1195C103.263 41.031 103.169 40.921 103.098 40.7959C103.027 40.6707 102.981 40.5328 102.964 40.3901C102.946 40.2473 102.957 40.1026 102.996 39.964C103.034 39.8254 103.099 39.6957 103.188 39.5824C103.276 39.4691 103.386 39.3743 103.511 39.3034C103.637 39.2326 103.775 39.1871 103.917 39.1696C104.06 39.152 104.205 39.1628 104.343 39.2012C104.482 39.2396 104.612 39.3049 104.725 39.3935L107.72 41.7323C108.292 42.1623 108.308 43.0246 107.736 43.471L104.725 45.8226C104.496 45.995 104.208 46.0706 103.923 46.0329C103.639 45.9953 103.38 45.8475 103.204 45.6213C103.027 45.3952 102.946 45.1087 102.979 44.8236C103.011 44.5384 103.154 44.2774 103.377 44.0965L103.875 43.7072ZM74.5929 67.8863C75.7044 68.0219 76.6157 67.693 76.9253 66.5375C77.2028 65.5017 76.5476 64.5316 75.5728 64.1889C72.3592 63.5992 69.2474 62.4743 66.7999 61.5895C63.2997 60.3241 62.3937 60.0244 58.9403 62.0239L52.8029 65.5774L57.9386 74.6518L58.2543 74.4694C58.505 74.325 58.8027 74.286 59.0821 74.361L73.1294 78.1216C75.1607 78.6659 76.3058 78.3057 78.0986 77.3919L97.3868 65.5152C97.9749 65.1531 98.2635 64.3093 98.1779 63.4829C98.1083 62.8109 97.7789 62.1969 97.1615 61.884C96.1684 61.381 94.4387 61.5344 91.7564 63.0964L81.0852 69.3117C80.2239 69.8132 79.3375 70.1321 78.4171 70.2867C75.7642 70.7324 71.7775 69.4853 69.3999 68.8063C68.6382 68.5888 67.8649 68.3678 67.1111 68.1659C66.9701 68.1302 66.8377 68.0669 66.7215 67.9796C66.6052 67.8923 66.5074 67.7828 66.4338 67.6575C66.3603 67.5321 66.3123 67.3934 66.2927 67.2493C66.2732 67.1053 66.2825 66.9587 66.32 66.8183C66.3575 66.6779 66.4226 66.5463 66.5114 66.4312C66.6002 66.3161 66.7109 66.2198 66.8372 66.1478C66.9636 66.0759 67.1029 66.0297 67.2472 66.0121C67.3915 65.9944 67.5379 66.0056 67.6778 66.045C69.9787 66.6614 72.2605 67.4031 74.5929 67.8863ZM57.9366 79.1112L49.5165 64.2337C49.1094 63.5143 48.1878 63.2589 47.4684 63.666L44.6043 65.287C43.8849 65.6941 43.6295 66.6157 44.0366 67.3351L52.4565 82.2126C52.8636 82.932 53.7854 83.1874 54.5048 82.7803L57.3687 81.1593C58.0881 80.7522 58.3436 79.8306 57.9366 79.1112ZM47.8816 68.4874C47.7488 68.5068 47.6133 68.4999 47.4831 68.467C47.3529 68.434 47.2305 68.3758 47.1228 68.2956C46.9053 68.1336 46.7611 67.8918 46.7218 67.6234C46.7024 67.4905 46.7094 67.3551 46.7423 67.2249C46.7752 67.0947 46.8334 66.9722 46.9136 66.8645C46.9939 66.7569 47.0945 66.666 47.2099 66.5972C47.3252 66.5284 47.453 66.483 47.5858 66.4636C47.8542 66.4244 48.1272 66.4934 48.3447 66.6554C48.5622 66.8174 48.7064 67.0592 48.7456 67.3276C48.7849 67.596 48.7159 67.8689 48.5538 68.0864C48.3918 68.3039 48.15 68.4481 47.8816 68.4874Z" fill="white"/>
<path d="M80.1798 36.0898C80.5293 35.888 80.9294 35.888 81.2789 36.0898L84.9323 38.1992L73.0931 45.0346V50.4179L76.5264 52.4001V47.0168L88.3656 40.1814L92.019 42.2906C92.3686 42.4923 92.5686 42.8388 92.5686 43.2425V55.6441C92.5686 56.0476 92.3686 56.3941 92.019 56.5959L81.2789 62.7967C80.9294 62.9985 80.5293 62.9985 80.1798 62.7967L69.4397 56.5959C69.0902 56.3942 68.8901 56.0477 68.8901 55.6441V43.2425C68.8901 42.839 69.0902 42.4925 69.4397 42.2906L80.1798 36.0898Z" fill="#CC0000"/>
<path d="M144.484 51.67V57.5H141.404V43.266H146.882C148.7 43.266 149.61 44.234 149.61 46.17V47.82C149.61 48.9933 149.192 49.7413 148.356 50.064C149.089 50.328 149.456 50.9293 149.456 51.868V57.5H146.376V52.11C146.376 51.8167 146.236 51.67 145.958 51.67H144.484ZM144.484 45.356V49.514H146.112C146.229 49.514 146.324 49.47 146.398 49.382C146.486 49.294 146.53 49.1913 146.53 49.074V45.796C146.53 45.6787 146.486 45.576 146.398 45.488C146.324 45.4 146.229 45.356 146.112 45.356H144.484ZM156.691 46.544C158.51 46.544 159.419 47.512 159.419 49.448V52.924H154.425V55.168C154.425 55.2853 154.462 55.388 154.535 55.476C154.623 55.564 154.726 55.608 154.843 55.608H156.053C156.171 55.608 156.266 55.564 156.339 55.476C156.427 55.388 156.471 55.2853 156.471 55.168V53.98H159.419V54.816C159.419 56.752 158.51 57.72 156.691 57.72H154.205C152.387 57.72 151.477 56.752 151.477 54.816V49.448C151.477 47.512 152.387 46.544 154.205 46.544H156.691ZM154.425 50.988H156.471V49.008C156.471 48.8907 156.427 48.788 156.339 48.7C156.266 48.612 156.171 48.568 156.053 48.568H154.843C154.726 48.568 154.623 48.612 154.535 48.7C154.462 48.788 154.425 48.8907 154.425 49.008V50.988ZM168.98 46.764V58.314C168.98 60.25 168.071 61.218 166.252 61.218H164.052C162.233 61.218 161.324 60.25 161.324 58.314V57.962H163.986V58.666C163.986 58.7833 164.023 58.886 164.096 58.974C164.184 59.062 164.287 59.106 164.404 59.106H165.614C165.731 59.106 165.827 59.062 165.9 58.974C165.988 58.886 166.032 58.7833 166.032 58.666V56.466C165.577 56.818 164.976 56.994 164.228 56.994H163.766C161.947 56.994 161.038 56.026 161.038 54.09V49.448C161.038 47.512 161.947 46.544 163.766 46.544H164.228C165.284 46.544 166.039 46.8813 166.494 47.556V46.764H168.98ZM166.032 54.442V49.096C166.032 48.9787 165.988 48.876 165.9 48.788C165.827 48.7 165.731 48.656 165.614 48.656H164.404C164.287 48.656 164.184 48.7 164.096 48.788C164.023 48.876 163.986 48.9787 163.986 49.096V54.442C163.986 54.5593 164.023 54.662 164.096 54.75C164.184 54.838 164.287 54.882 164.404 54.882H165.614C165.731 54.882 165.827 54.838 165.9 54.75C165.988 54.662 166.032 54.5593 166.032 54.442ZM173.977 45.422C173.669 45.73 173.295 45.884 172.855 45.884C172.415 45.884 172.034 45.73 171.711 45.422C171.388 45.0993 171.227 44.718 171.227 44.278C171.227 43.8233 171.388 43.442 171.711 43.134C172.034 42.8113 172.415 42.65 172.855 42.65C173.295 42.65 173.669 42.8113 173.977 43.134C174.3 43.442 174.461 43.8233 174.461 44.278C174.461 44.7327 174.3 45.114 173.977 45.422ZM171.381 57.5V46.764H174.329V57.5H171.381ZM181.459 50.768C183.278 50.768 184.187 51.736 184.187 53.672V54.816C184.187 56.752 183.278 57.72 181.459 57.72H179.017C177.199 57.72 176.289 56.752 176.289 54.816V54.134H179.017V55.102C179.017 55.2193 179.054 55.322 179.127 55.41C179.215 55.498 179.318 55.542 179.435 55.542H181.239C181.357 55.542 181.452 55.498 181.525 55.41C181.613 55.322 181.657 55.2193 181.657 55.102V53.782C181.657 53.6647 181.613 53.562 181.525 53.474C181.452 53.386 181.357 53.342 181.239 53.342H178.973C177.155 53.342 176.245 52.374 176.245 50.438V49.448C176.245 47.512 177.155 46.544 178.973 46.544H181.283C183.102 46.544 184.011 47.512 184.011 49.448V49.844H181.283V49.162C181.283 49.0447 181.239 48.942 181.151 48.854C181.078 48.766 180.983 48.722 180.865 48.722H179.193C179.076 48.722 178.973 48.766 178.885 48.854C178.812 48.942 178.775 49.0447 178.775 49.162V50.328C178.775 50.4453 178.812 50.548 178.885 50.636C178.973 50.724 179.076 50.768 179.193 50.768H181.459ZM189.833 55.806H190.713V57.72H188.645C186.826 57.72 185.917 56.752 185.917 54.816V44.432H188.865V46.764H190.713V48.898H188.865V54.75C188.865 55.1607 188.945 55.4393 189.107 55.586C189.268 55.7327 189.51 55.806 189.833 55.806ZM197.469 46.544C199.287 46.544 200.197 47.512 200.197 49.448V52.924H195.203V55.168C195.203 55.2853 195.239 55.388 195.313 55.476C195.401 55.564 195.503 55.608 195.621 55.608H196.831C196.948 55.608 197.043 55.564 197.117 55.476C197.205 55.388 197.249 55.2853 197.249 55.168V53.98H200.197V54.816C200.197 56.752 199.287 57.72 197.469 57.72H194.983C193.164 57.72 192.255 56.752 192.255 54.816V49.448C192.255 47.512 193.164 46.544 194.983 46.544H197.469ZM195.203 50.988H197.249V49.008C197.249 48.8907 197.205 48.788 197.117 48.7C197.043 48.612 196.948 48.568 196.831 48.568H195.621C195.503 48.568 195.401 48.612 195.313 48.7C195.239 48.788 195.203 48.8907 195.203 49.008V50.988ZM206.391 46.544H206.963V49.404H205.511C205.013 49.404 204.763 49.6607 204.763 50.174V57.5H201.815V46.764H204.499V47.798C204.925 46.962 205.555 46.544 206.391 46.544ZM213.785 50.636C213.184 50.196 212.883 49.404 212.883 48.26V46.808C212.883 44.872 213.793 43.904 215.611 43.904H217.943C219.762 43.904 220.671 44.872 220.671 46.808V47.424H217.921V46.742C217.921 46.6247 217.877 46.522 217.789 46.434C217.716 46.346 217.621 46.302 217.503 46.302H216.029C215.912 46.302 215.809 46.346 215.721 46.434C215.648 46.522 215.611 46.6247 215.611 46.742V49.074C215.611 49.1913 215.648 49.294 215.721 49.382C215.809 49.47 215.912 49.514 216.029 49.514H221.463V51.89H220.605V54.816C220.605 56.752 219.696 57.72 217.877 57.72H215.479C213.661 57.72 212.751 56.752 212.751 54.816V53.122C212.751 51.9487 213.096 51.12 213.785 50.636ZM217.635 55.388C217.753 55.388 217.848 55.344 217.921 55.256C218.009 55.168 218.053 55.0653 218.053 54.948V51.89H215.897C215.78 51.89 215.677 51.934 215.589 52.022C215.516 52.11 215.479 52.2127 215.479 52.33V54.948C215.479 55.0653 215.516 55.168 215.589 55.256C215.677 55.344 215.78 55.388 215.897 55.388H217.635ZM235.218 47.006H232.292V45.884C232.292 45.7667 232.248 45.664 232.16 45.576C232.086 45.488 231.991 45.444 231.874 45.444H230.664C230.546 45.444 230.444 45.488 230.356 45.576C230.282 45.664 230.246 45.7667 230.246 45.884V48.414C230.246 48.5313 230.282 48.634 230.356 48.722C230.444 48.81 230.546 48.854 230.664 48.854H232.644C234.462 48.8833 235.372 49.8513 235.372 51.758V54.816C235.372 56.752 234.462 57.72 232.644 57.72H230.048C228.229 57.72 227.32 56.752 227.32 54.816V53.342H230.246V54.926C230.246 55.0433 230.282 55.146 230.356 55.234C230.444 55.322 230.546 55.366 230.664 55.366H232.028C232.145 55.366 232.24 55.322 232.314 55.234C232.402 55.146 232.446 55.0433 232.446 54.926V52.132C232.446 52.0147 232.402 51.912 232.314 51.824C232.24 51.736 232.145 51.692 232.028 51.692H230.048C228.229 51.692 227.32 50.724 227.32 48.788V45.95C227.32 44.014 228.229 43.046 230.048 43.046H232.49C234.308 43.046 235.218 44.014 235.218 45.95V47.006ZM242.5 46.544C244.319 46.544 245.228 47.512 245.228 49.448V52.924H240.234V55.168C240.234 55.2853 240.271 55.388 240.344 55.476C240.432 55.564 240.535 55.608 240.652 55.608H241.862C241.979 55.608 242.075 55.564 242.148 55.476C242.236 55.388 242.28 55.2853 242.28 55.168V53.98H245.228V54.816C245.228 56.752 244.319 57.72 242.5 57.72H240.014C238.195 57.72 237.286 56.752 237.286 54.816V49.448C237.286 47.512 238.195 46.544 240.014 46.544H242.5ZM240.234 50.988H242.28V49.008C242.28 48.8907 242.236 48.788 242.148 48.7C242.075 48.612 241.979 48.568 241.862 48.568H240.652C240.535 48.568 240.432 48.612 240.344 48.7C240.271 48.788 240.234 48.8907 240.234 49.008V50.988ZM249.794 57.5H246.846V43.266H249.794V57.5ZM254.714 57.5H251.766V43.266H254.714V57.5Z" fill="white"/>
<defs>
<linearGradient id="paint0_linear_7527_5857" x1="178" y1="-77.4419" x2="182.038" y2="104.794" gradientUnits="userSpaceOnUse">
<stop stop-color="#606060"/>
<stop offset="1" stop-color="white" stop-opacity="0.3"/>
</linearGradient>
</defs>
</svg>
