<svg width="188" height="189" viewBox="0 0 188 189" fill="none" xmlns="http://www.w3.org/2000/svg">
<g filter="url(#filter0_d_3192_36435)">
<rect y="0.5" width="184" height="184" rx="12" fill="white"/>
<rect x="0.75" y="1.25" width="182.5" height="182.5" rx="11.25" stroke="url(#paint0_linear_3192_36435)" stroke-width="1.5"/>
<path fill-rule="evenodd" clip-rule="evenodd" d="M97.0603 43.1451H107.393C107.816 43.1451 108.221 43.313 108.52 43.6119C108.819 43.9108 108.987 44.3162 108.987 44.7389C108.987 45.1616 108.819 45.5669 108.52 45.8658C108.221 46.1647 107.816 46.3326 107.393 46.3326H97.0601L97.7833 46.8974C98.1152 47.1566 98.3305 47.5371 98.3819 47.9551C98.4333 48.3731 98.3165 48.7944 98.0572 49.1263C97.798 49.4582 97.4175 49.6735 96.9995 49.7248C96.5815 49.7762 96.1603 49.6594 95.8284 49.4002L91.4619 45.9904C90.6331 45.3431 90.6567 44.0926 91.4856 43.4692L95.8284 40.0779C96.161 39.8279 96.5785 39.7184 96.991 39.773C97.4035 39.8276 97.7781 40.0419 98.0343 40.3698C98.2904 40.6977 98.4076 41.1131 98.3607 41.5266C98.3138 41.94 98.1064 42.3186 97.7833 42.5807L97.0603 43.1451ZM68.8257 27.1875C59.1323 27.1875 51.2743 35.0455 51.2743 44.7389C51.2743 54.4323 59.1323 62.2902 68.8257 62.2902C78.5191 62.2902 86.377 54.4323 86.377 44.7389C86.377 35.0455 78.5191 27.1875 68.8257 27.1875ZM68.8257 59.0159C60.941 59.0159 54.5487 52.6235 54.5487 44.7389C54.5487 36.8542 60.941 30.4617 68.8257 30.4617C76.7103 30.4617 83.1029 36.854 83.1029 44.7389C83.1027 52.6235 76.7103 59.0159 68.8257 59.0159ZM68.8257 33.6492C62.7007 33.6492 57.7362 38.6139 57.7362 44.7389C57.7362 50.8637 62.7009 55.8284 68.8257 55.8284C74.9506 55.8284 79.9154 50.8637 79.9154 44.7389C79.9152 38.6141 74.9504 33.6492 68.8257 33.6492ZM70.4194 52.397V52.7648C70.4194 53.1875 70.2515 53.5929 69.9526 53.8918C69.6537 54.1906 69.2484 54.3585 68.8257 54.3585C68.403 54.3585 67.9976 54.1906 67.6987 53.8918C67.3998 53.5929 67.2319 53.1875 67.2319 52.7648V52.3644C65.2724 51.8811 63.7127 50.5349 63.2129 48.5302C63.163 48.3274 63.1535 48.1169 63.185 47.9104C63.2166 47.704 63.2884 47.5058 63.3965 47.3272C63.5046 47.1486 63.6469 46.993 63.8151 46.8693C63.9834 46.7457 64.1743 46.6564 64.3771 46.6065C64.5799 46.5567 64.7905 46.5472 64.9969 46.5787C65.2033 46.6102 65.4015 46.6821 65.5801 46.7902C65.7587 46.8983 65.9143 47.0406 66.038 47.2088C66.1616 47.3771 66.2509 47.568 66.3008 47.7708C66.5932 48.9442 67.8523 49.4096 68.9542 49.3833C69.0942 49.378 69.2339 49.3663 69.3729 49.3482C70.0646 49.2641 71.3273 48.9294 71.3061 48.0363C71.3024 47.9889 71.2974 47.9416 71.291 47.8945C71.1502 46.7342 69.5195 46.4159 68.582 46.2619C66.1067 45.8555 63.7293 44.6512 63.5924 41.8301C63.4788 39.4956 65.0736 37.7413 67.2321 37.1399V36.7125C67.2321 36.2899 67.4 35.8845 67.6989 35.5856C67.9978 35.2867 68.4032 35.1188 68.8259 35.1188C69.2486 35.1188 69.6539 35.2867 69.9528 35.5856C70.2517 35.8845 70.4196 36.2899 70.4196 36.7125V37.1184C71.9337 37.5276 73.3033 38.5404 74.0291 40.2692C74.1837 40.6572 74.1799 41.0904 74.0183 41.4756C73.8568 41.8608 73.5504 42.1671 73.1653 42.3287C72.7801 42.4903 72.3469 42.4942 71.9589 42.3396C71.5708 42.185 71.259 41.8842 71.0906 41.502C70.617 40.3742 69.4295 39.9194 68.281 40.1505C67.5114 40.3055 66.7247 40.7995 66.7675 41.6807C66.8167 42.6961 68.3029 42.9945 69.0926 43.1242C71.6416 43.5426 74.104 44.6405 74.4538 47.521C74.4681 47.6387 74.4771 47.7861 74.4813 47.9616C74.5397 50.4174 72.6343 51.9149 70.4194 52.397ZM132.42 65.8754H122.087C121.664 65.8754 121.259 65.7075 120.96 65.4086C120.661 65.1097 120.493 64.7043 120.493 64.2816C120.493 63.8589 120.661 63.4536 120.96 63.1547C121.259 62.8558 121.664 62.6879 122.087 62.6879H132.419L131.697 62.1233C131.532 61.9949 131.395 61.8355 131.292 61.654C131.189 61.4725 131.123 61.2726 131.098 61.0656C131.073 60.8586 131.088 60.6487 131.144 60.4477C131.199 60.2468 131.294 60.0588 131.423 59.8944C131.551 59.7301 131.71 59.5927 131.892 59.49C132.073 59.3873 132.273 59.3213 132.48 59.2959C132.687 59.2704 132.897 59.286 133.098 59.3417C133.299 59.3974 133.487 59.4921 133.651 59.6205L137.994 63.0118C138.823 63.6354 138.847 64.8857 138.018 65.5329L133.651 68.9428C133.319 69.1928 132.901 69.3023 132.489 69.2477C132.076 69.1931 131.702 68.9788 131.446 68.6509C131.189 68.323 131.072 67.9076 131.119 67.4941C131.166 67.0807 131.373 66.7021 131.697 66.44L132.42 65.8754ZM89.96 100.935C91.5717 101.132 92.8931 100.655 93.3419 98.9794C93.7444 97.4774 92.7943 96.0708 91.3808 95.5739C86.7211 94.7189 82.209 93.0877 78.6601 91.8047C73.5848 89.9699 72.2712 89.5354 67.2638 92.4346L58.3645 97.5872L65.8113 110.745L66.2691 110.481C66.6325 110.271 67.0643 110.215 67.4694 110.323L87.8379 115.776C90.7834 116.566 92.4437 116.043 95.0433 114.718L123.011 97.497C123.864 96.972 124.282 95.7484 124.158 94.5501C124.057 93.5758 123.58 92.6854 122.684 92.2318C121.245 91.5025 118.736 91.7248 114.847 93.9897L99.3739 103.002C98.125 103.729 96.8396 104.192 95.505 104.416C91.6583 105.062 85.8776 103.254 82.4301 102.269C81.3256 101.954 80.2044 101.633 79.1113 101.34C78.907 101.289 78.715 101.197 78.5464 101.07C78.3778 100.944 78.2361 100.785 78.1294 100.603C78.0227 100.422 77.9531 100.22 77.9248 100.011C77.8964 99.8026 77.9099 99.5902 77.9643 99.3865C78.0187 99.1829 78.113 98.9921 78.2418 98.8252C78.3705 98.6583 78.5311 98.5186 78.7143 98.4143C78.8975 98.31 79.0995 98.2431 79.3087 98.2175C79.518 98.1919 79.7302 98.2081 79.9331 98.2652C83.2694 99.1591 86.5781 100.234 89.96 100.935ZM65.8083 117.211L53.5992 95.6389C53.0089 94.5957 51.6725 94.2254 50.6294 94.8157L46.4765 97.1661C45.4334 97.7564 45.0631 99.0927 45.6533 100.136L57.8623 121.708C58.4525 122.751 59.7891 123.122 60.8322 122.531L64.9849 120.181C66.028 119.591 66.3986 118.254 65.8083 117.211ZM51.2287 101.807C51.036 101.835 50.8396 101.825 50.6509 101.777C50.4621 101.729 50.2845 101.645 50.1284 101.529C49.813 101.294 49.6038 100.943 49.547 100.554C49.5188 100.361 49.5289 100.165 49.5766 99.9761C49.6243 99.7873 49.7087 99.6097 49.8251 99.4536C49.9414 99.2974 50.0874 99.1657 50.2546 99.0659C50.4218 98.9662 50.6071 98.9004 50.7998 98.8722C51.1889 98.8153 51.5847 98.9153 51.9001 99.1503C52.2154 99.3852 52.4246 99.7358 52.4815 100.125C52.5383 100.514 52.4383 100.91 52.2034 101.225C51.9684 101.541 51.6178 101.75 51.2287 101.807Z" fill="#050505"/>
<path d="M98.0604 54.8305C98.5672 54.5378 99.1474 54.5378 99.6542 54.8305L104.952 57.8891L87.7847 67.8004V75.6062L92.763 78.4803V70.6745L109.93 60.7632L115.227 63.8216C115.734 64.114 116.024 64.6165 116.024 65.2018V83.1841C116.024 83.7692 115.734 84.2716 115.227 84.5643L99.6542 93.5554C99.1474 93.848 98.5672 93.848 98.0604 93.5554L82.4873 84.5643C81.9805 84.2718 81.6904 83.7694 81.6904 83.1841V65.2018C81.6904 64.6167 81.9805 64.1142 82.4873 63.8216L98.0604 54.8305Z" fill="#CC0000"/>
<path d="M38.4837 158.17V164H35.4037V149.766H40.8817C42.7004 149.766 43.6097 150.734 43.6097 152.67V154.32C43.6097 155.493 43.1917 156.241 42.3557 156.564C43.089 156.828 43.4557 157.429 43.4557 158.368V164H40.3757V158.61C40.3757 158.317 40.2364 158.17 39.9577 158.17H38.4837ZM38.4837 151.856V156.014H40.1117C40.229 156.014 40.3244 155.97 40.3977 155.882C40.4857 155.794 40.5297 155.691 40.5297 155.574V152.296C40.5297 152.179 40.4857 152.076 40.3977 151.988C40.3244 151.9 40.229 151.856 40.1117 151.856H38.4837ZM50.6913 153.044C52.51 153.044 53.4193 154.012 53.4193 155.948V159.424H48.4253V161.668C48.4253 161.785 48.462 161.888 48.5353 161.976C48.6233 162.064 48.726 162.108 48.8433 162.108H50.0533C50.1706 162.108 50.266 162.064 50.3393 161.976C50.4273 161.888 50.4713 161.785 50.4713 161.668V160.48H53.4193V161.316C53.4193 163.252 52.51 164.22 50.6913 164.22H48.2053C46.3866 164.22 45.4773 163.252 45.4773 161.316V155.948C45.4773 154.012 46.3866 153.044 48.2053 153.044H50.6913ZM48.4253 157.488H50.4713V155.508C50.4713 155.391 50.4273 155.288 50.3393 155.2C50.266 155.112 50.1706 155.068 50.0533 155.068H48.8433C48.726 155.068 48.6233 155.112 48.5353 155.2C48.462 155.288 48.4253 155.391 48.4253 155.508V157.488ZM62.9799 153.264V164.814C62.9799 166.75 62.0705 167.718 60.2519 167.718H58.0519C56.2332 167.718 55.3239 166.75 55.3239 164.814V164.462H57.9859V165.166C57.9859 165.283 58.0225 165.386 58.0959 165.474C58.1839 165.562 58.2865 165.606 58.4039 165.606H59.6139C59.7312 165.606 59.8265 165.562 59.8999 165.474C59.9879 165.386 60.0319 165.283 60.0319 165.166V162.966C59.5772 163.318 58.9759 163.494 58.2279 163.494H57.7659C55.9472 163.494 55.0379 162.526 55.0379 160.59V155.948C55.0379 154.012 55.9472 153.044 57.7659 153.044H58.2279C59.2839 153.044 60.0392 153.381 60.4939 154.056V153.264H62.9799ZM60.0319 160.942V155.596C60.0319 155.479 59.9879 155.376 59.8999 155.288C59.8265 155.2 59.7312 155.156 59.6139 155.156H58.4039C58.2865 155.156 58.1839 155.2 58.0959 155.288C58.0225 155.376 57.9859 155.479 57.9859 155.596V160.942C57.9859 161.059 58.0225 161.162 58.0959 161.25C58.1839 161.338 58.2865 161.382 58.4039 161.382H59.6139C59.7312 161.382 59.8265 161.338 59.8999 161.25C59.9879 161.162 60.0319 161.059 60.0319 160.942ZM67.9771 151.922C67.6691 152.23 67.2951 152.384 66.8551 152.384C66.4151 152.384 66.0338 152.23 65.7111 151.922C65.3885 151.599 65.2271 151.218 65.2271 150.778C65.2271 150.323 65.3885 149.942 65.7111 149.634C66.0338 149.311 66.4151 149.15 66.8551 149.15C67.2951 149.15 67.6691 149.311 67.9771 149.634C68.2998 149.942 68.4611 150.323 68.4611 150.778C68.4611 151.233 68.2998 151.614 67.9771 151.922ZM65.3811 164V153.264H68.3291V164H65.3811ZM75.4592 157.268C77.2778 157.268 78.1872 158.236 78.1872 160.172V161.316C78.1872 163.252 77.2778 164.22 75.4592 164.22H73.0172C71.1985 164.22 70.2892 163.252 70.2892 161.316V160.634H73.0172V161.602C73.0172 161.719 73.0538 161.822 73.1272 161.91C73.2152 161.998 73.3178 162.042 73.4352 162.042H75.2392C75.3565 162.042 75.4518 161.998 75.5252 161.91C75.6132 161.822 75.6572 161.719 75.6572 161.602V160.282C75.6572 160.165 75.6132 160.062 75.5252 159.974C75.4518 159.886 75.3565 159.842 75.2392 159.842H72.9732C71.1545 159.842 70.2452 158.874 70.2452 156.938V155.948C70.2452 154.012 71.1545 153.044 72.9732 153.044H75.2832C77.1018 153.044 78.0112 154.012 78.0112 155.948V156.344H75.2832V155.662C75.2832 155.545 75.2392 155.442 75.1512 155.354C75.0778 155.266 74.9825 155.222 74.8652 155.222H73.1932C73.0758 155.222 72.9732 155.266 72.8852 155.354C72.8118 155.442 72.7752 155.545 72.7752 155.662V156.828C72.7752 156.945 72.8118 157.048 72.8852 157.136C72.9732 157.224 73.0758 157.268 73.1932 157.268H75.4592ZM83.8328 162.306H84.7128V164.22H82.6448C80.8261 164.22 79.9168 163.252 79.9168 161.316V150.932H82.8648V153.264H84.7128V155.398H82.8648V161.25C82.8648 161.661 82.9454 161.939 83.1068 162.086C83.2681 162.233 83.5101 162.306 83.8328 162.306ZM91.4686 153.044C93.2873 153.044 94.1966 154.012 94.1966 155.948V159.424H89.2026V161.668C89.2026 161.785 89.2393 161.888 89.3126 161.976C89.4006 162.064 89.5033 162.108 89.6206 162.108H90.8306C90.948 162.108 91.0433 162.064 91.1166 161.976C91.2046 161.888 91.2486 161.785 91.2486 161.668V160.48H94.1966V161.316C94.1966 163.252 93.2873 164.22 91.4686 164.22H88.9826C87.164 164.22 86.2546 163.252 86.2546 161.316V155.948C86.2546 154.012 87.164 153.044 88.9826 153.044H91.4686ZM89.2026 157.488H91.2486V155.508C91.2486 155.391 91.2046 155.288 91.1166 155.2C91.0433 155.112 90.948 155.068 90.8306 155.068H89.6206C89.5033 155.068 89.4006 155.112 89.3126 155.2C89.2393 155.288 89.2026 155.391 89.2026 155.508V157.488ZM100.391 153.044H100.963V155.904H99.5112C99.0125 155.904 98.7632 156.161 98.7632 156.674V164H95.8152V153.264H98.4992V154.298C98.9245 153.462 99.5552 153.044 100.391 153.044ZM107.785 157.136C107.184 156.696 106.883 155.904 106.883 154.76V153.308C106.883 151.372 107.793 150.404 109.611 150.404H111.943C113.762 150.404 114.671 151.372 114.671 153.308V153.924H111.921V153.242C111.921 153.125 111.877 153.022 111.789 152.934C111.716 152.846 111.621 152.802 111.503 152.802H110.029C109.912 152.802 109.809 152.846 109.721 152.934C109.648 153.022 109.611 153.125 109.611 153.242V155.574C109.611 155.691 109.648 155.794 109.721 155.882C109.809 155.97 109.912 156.014 110.029 156.014H115.463V158.39H114.605V161.316C114.605 163.252 113.696 164.22 111.877 164.22H109.479C107.661 164.22 106.751 163.252 106.751 161.316V159.622C106.751 158.449 107.096 157.62 107.785 157.136ZM111.635 161.888C111.753 161.888 111.848 161.844 111.921 161.756C112.009 161.668 112.053 161.565 112.053 161.448V158.39H109.897C109.78 158.39 109.677 158.434 109.589 158.522C109.516 158.61 109.479 158.713 109.479 158.83V161.448C109.479 161.565 109.516 161.668 109.589 161.756C109.677 161.844 109.78 161.888 109.897 161.888H111.635ZM129.218 153.506H126.292V152.384C126.292 152.267 126.248 152.164 126.16 152.076C126.086 151.988 125.991 151.944 125.874 151.944H124.664C124.546 151.944 124.444 151.988 124.356 152.076C124.282 152.164 124.246 152.267 124.246 152.384V154.914C124.246 155.031 124.282 155.134 124.356 155.222C124.444 155.31 124.546 155.354 124.664 155.354H126.644C128.462 155.383 129.372 156.351 129.372 158.258V161.316C129.372 163.252 128.462 164.22 126.644 164.22H124.048C122.229 164.22 121.32 163.252 121.32 161.316V159.842H124.246V161.426C124.246 161.543 124.282 161.646 124.356 161.734C124.444 161.822 124.546 161.866 124.664 161.866H126.028C126.145 161.866 126.24 161.822 126.314 161.734C126.402 161.646 126.446 161.543 126.446 161.426V158.632C126.446 158.515 126.402 158.412 126.314 158.324C126.24 158.236 126.145 158.192 126.028 158.192H124.048C122.229 158.192 121.32 157.224 121.32 155.288V152.45C121.32 150.514 122.229 149.546 124.048 149.546H126.49C128.308 149.546 129.218 150.514 129.218 152.45V153.506ZM136.5 153.044C138.319 153.044 139.228 154.012 139.228 155.948V159.424H134.234V161.668C134.234 161.785 134.271 161.888 134.344 161.976C134.432 162.064 134.535 162.108 134.652 162.108H135.862C135.979 162.108 136.075 162.064 136.148 161.976C136.236 161.888 136.28 161.785 136.28 161.668V160.48H139.228V161.316C139.228 163.252 138.319 164.22 136.5 164.22H134.014C132.195 164.22 131.286 163.252 131.286 161.316V155.948C131.286 154.012 132.195 153.044 134.014 153.044H136.5ZM134.234 157.488H136.28V155.508C136.28 155.391 136.236 155.288 136.148 155.2C136.075 155.112 135.979 155.068 135.862 155.068H134.652C134.535 155.068 134.432 155.112 134.344 155.2C134.271 155.288 134.234 155.391 134.234 155.508V157.488ZM143.794 164H140.846V149.766H143.794V164ZM148.714 164H145.766V149.766H148.714V164Z" fill="#050505"/>
</g>
<defs>
<filter id="filter0_d_3192_36435" x="0" y="0.5" width="188" height="188" filterUnits="userSpaceOnUse" color-interpolation-filters="sRGB">
<feFlood flood-opacity="0" result="BackgroundImageFix"/>
<feColorMatrix in="SourceAlpha" type="matrix" values="0 0 0 0 0 0 0 0 0 0 0 0 0 0 0 0 0 0 127 0" result="hardAlpha"/>
<feOffset dx="4" dy="4"/>
<feComposite in2="hardAlpha" operator="out"/>
<feColorMatrix type="matrix" values="0 0 0 0 0.23 0 0 0 0 0.2185 0 0 0 0 0.2185 0 0 0 1 0"/>
<feBlend mode="normal" in2="BackgroundImageFix" result="effect1_dropShadow_3192_36435"/>
<feBlend mode="normal" in="SourceGraphic" in2="effect1_dropShadow_3192_36435" result="shape"/>
</filter>
<linearGradient id="paint0_linear_3192_36435" x1="84.4124" y1="-141.993" x2="113.043" y2="191.025" gradientUnits="userSpaceOnUse">
<stop stop-color="#606060"/>
<stop offset="1" stop-color="white" stop-opacity="0.3"/>
</linearGradient>
</defs>
</svg>
