<svg width="147" height="164" viewBox="0 0 147 164" fill="none" xmlns="http://www.w3.org/2000/svg">
<circle opacity="0.3" cx="67.1262" cy="96.1352" r="66.2551" fill="#373435" stroke="#00AC9E"/>
<path d="M108.067 23.0082L61.1309 12.4218C58.3204 11.8597 55.9782 12.8902 54.854 14.9513C56.0719 14.1081 57.6646 13.8271 59.5383 14.2955L106.381 24.7882C110.409 25.7251 113.688 29.5662 113.688 33.4073L115.562 139.74C115.562 140.864 115.375 141.895 114.906 142.738C116.405 141.707 117.342 140.021 117.248 137.96L115.375 31.6272C115.375 27.7862 112.096 23.8514 108.067 23.0082Z" fill="#4B4B4D" fill-opacity="0.25098"/>
<path d="M56.2595 131.87L62.3491 128.31C62.3491 128.31 63.848 115.288 62.8175 105.17C61.4122 91.0233 52.2311 73.8789 41.3636 77.9074C30.4025 81.9358 46.3289 96.3633 49.889 108.449C53.449 120.44 56.2595 131.87 56.2595 131.87Z" fill="#26DDBF"/>
<path d="M57.617 131.87L63.7065 128.31C63.7065 128.31 65.2054 115.288 64.1749 105.17C62.7696 91.0235 53.5885 73.8792 42.721 77.9076C31.7599 81.9361 47.6863 96.3636 51.2464 108.449C54.8064 120.441 57.617 131.87 57.617 131.87Z" fill="black" fill-opacity="0.14902"/>
<path d="M60.8014 130.371C60.6141 130.371 60.4267 130.184 60.4267 129.996C61.5509 98.4245 45.8118 82.5917 45.6245 82.4044C45.5308 82.3107 45.5308 82.0296 45.6245 81.9359C45.8118 81.7486 45.9992 81.7486 46.1866 81.9359C46.2803 82.0296 62.2067 98.1435 61.1762 129.996C61.1762 130.184 60.9888 130.371 60.8014 130.371Z" fill="white"/>
<path d="M54.337 134.4L58.6465 131.87C58.6465 131.87 59.396 122.97 54.9928 112.009C51.2454 102.547 41.6895 94.6772 36.9116 96.3635C32.2274 98.0498 32.321 101.423 34.6632 104.983C36.9116 108.543 51.1517 116.974 54.337 134.4Z" fill="#26DDBF"/>
<path d="M56.5864 133.462C56.399 133.462 56.3053 133.275 56.3053 133.087C56.399 113.132 37.662 99.6418 37.4746 99.4545C37.2873 99.3608 37.1936 99.1734 37.3809 98.986C37.4746 98.7987 37.662 98.7987 37.8494 98.8923C38.0367 98.986 57.0548 112.758 57.0548 133.087C57.0548 133.275 56.8674 133.462 56.5864 133.462Z" fill="white"/>
<path d="M145.353 160.351C145.915 155.198 120.714 144.612 89.0483 136.742C57.3828 128.966 31.3383 126.812 30.7762 131.964C30.3078 137.211 55.5091 147.703 87.1746 155.573C118.84 163.442 144.885 165.597 145.353 160.351Z" fill="#141414"/>
<path d="M63.3797 137.116C56.9155 135.71 51.6691 129.433 51.5754 123.157L49.7017 16.9177C49.608 10.6408 54.667 6.70603 61.1313 8.20499L108.068 18.6977C114.438 20.103 119.684 26.3799 119.778 32.6568L121.652 138.896C121.746 145.173 116.687 149.107 110.316 147.702L63.3797 137.116Z" fill="#16161C"/>
<path d="M64.1298 140.582C57.3844 139.083 51.857 132.431 51.7634 125.873L49.796 13.8258C49.6086 7.17415 55.0423 3.052 61.7876 4.55096L111.253 15.6995C117.999 17.1984 123.526 23.8501 123.713 30.408L125.587 142.455C125.775 149.013 120.341 153.229 113.595 151.636L64.1298 140.582Z" fill="#D0D0D0"/>
<path d="M63.2859 132.806C59.2575 131.963 55.9785 128.028 55.9785 124.187L54.1048 17.8547C54.0111 14.0136 57.1964 11.5778 61.1312 12.421L108.067 23.0074C112.096 23.8506 115.375 27.7853 115.375 31.6264L117.249 137.959C117.342 141.8 114.157 144.236 110.222 143.393L63.2859 132.806Z" fill="#F3F3F3"/>
<path d="M102.071 20.8522L67.1262 12.9827L68.8126 16.8238C69.562 18.6038 71.1547 20.009 72.9347 20.4775L96.5433 25.7238C98.3233 26.0986 99.916 25.4428 100.572 24.0375L102.071 20.8522Z" fill="#D0D0D0"/>
<path d="M93.4522 90.472L78.5562 87.193C77.9941 87.0993 77.6194 87.3804 77.6194 87.8488C77.6194 88.3172 78.0878 88.8793 78.5562 88.973L93.4522 92.252C93.9206 92.4394 94.389 92.0646 94.2953 91.5962C94.2953 91.1278 93.9206 90.6593 93.4522 90.472Z" fill="#00AC9E"/>
<path d="M98.0431 96.6548L73.404 91.1274C72.9355 90.94 72.5608 91.3148 72.5608 91.7832C72.5608 92.2516 72.9355 92.8137 73.4976 92.9074L98.1368 98.4348C98.6052 98.5285 99.0737 98.2475 98.98 97.6854C98.98 97.2169 98.6052 96.7485 98.0431 96.6548Z" fill="#00AC9E"/>
<path d="M102.36 103.027L66.8139 94.8571C66.1442 94.6197 65.5697 94.953 65.5352 95.4202C65.5007 95.8873 66.0061 96.4883 66.8194 96.6424L102.365 104.812C103.042 104.956 103.746 104.726 103.651 104.156C103.685 103.688 103.173 103.181 102.36 103.027Z" fill="#00AC9E"/>
<path d="M55.451 131.155L61.695 127.504C61.695 127.504 63.232 114.152 62.1753 103.777C60.7344 89.2716 51.3203 71.6923 40.1771 75.8229C28.9379 79.9536 45.2684 94.7471 48.9188 107.139C52.5691 119.435 55.451 131.155 55.451 131.155Z" fill="#26DDBF"/>
<path d="M55.451 131.155L61.695 127.504C61.695 127.504 63.232 114.152 62.1753 103.777C60.7344 89.2716 51.3203 71.6923 40.1771 75.8229C28.9379 79.9536 45.2684 94.7471 48.9188 107.139C52.5691 119.435 55.451 131.155 55.451 131.155Z" fill="black" fill-opacity="0.14902"/>
<path d="M58.7171 129.618C58.525 129.618 58.3328 129.426 58.3328 129.234C59.4856 96.8608 43.3472 80.6263 43.1551 80.4342C43.059 80.3382 43.059 80.05 43.1551 79.9539C43.3472 79.7618 43.5393 79.7618 43.7314 79.9539C43.8275 80.05 60.158 96.5726 59.1013 129.234C59.1013 129.426 58.9092 129.618 58.7171 129.618Z" fill="white"/>
<path d="M52.0875 133.748L56.5064 131.154C56.5064 131.154 57.2749 122.028 52.7599 110.789C48.9175 101.087 39.1192 93.0176 34.22 94.7468C29.4169 96.4759 29.513 99.9341 31.9145 103.584C34.22 107.235 48.8214 115.88 52.0875 133.748Z" fill="#26DDBF"/>
<path d="M54.3931 132.788C54.201 132.788 54.1049 132.596 54.1049 132.404C54.201 111.942 34.9886 98.1094 34.7965 97.9173C34.6044 97.8212 34.5083 97.6291 34.7004 97.437C34.7965 97.2449 34.9886 97.2449 35.1807 97.3409C35.3729 97.437 54.8734 111.558 54.8734 132.404C54.8734 132.596 54.6813 132.788 54.3931 132.788Z" fill="white"/>
<path d="M146.806 160.357C147.382 155.074 121.541 144.219 89.0725 136.149C56.6036 128.176 29.8984 125.967 29.322 131.25C28.8417 136.63 54.6824 147.389 87.1513 155.458C119.62 163.527 146.325 165.736 146.806 160.357Z" fill="#141414"/>
<path d="M62.751 136.535C56.1227 135.094 50.7432 128.658 50.6472 122.222L48.7259 13.2875C48.6299 6.85132 53.8172 2.81671 60.4455 4.3537L108.572 15.1126C115.105 16.5536 120.484 22.9897 120.58 29.4259L122.501 138.36C122.598 144.796 117.41 148.831 110.878 147.39L62.751 136.535Z" fill="#16161C"/>
<path d="M63.5187 140.088C56.6022 138.551 50.9346 131.731 50.8385 125.007L48.8212 10.1167C48.6291 3.29635 54.2007 -0.930372 61.1171 0.606618L111.838 12.038C118.754 13.575 124.422 20.3954 124.614 27.1197L126.535 142.01C126.727 148.734 121.156 153.057 114.239 151.424L63.5187 140.088Z" fill="#B7B7B7"/>
<path d="M62.6544 132.115C58.5237 131.251 55.1616 127.216 55.1616 123.278L53.2403 14.2475C53.1443 10.309 56.4104 7.81139 60.445 8.67595L108.572 19.5309C112.703 20.3955 116.065 24.4301 116.065 28.3686L117.986 137.399C118.082 141.337 114.816 143.835 110.781 142.97L62.6544 132.115Z" fill="white"/>
<path d="M102.425 17.3214L66.5938 9.2522L68.3229 13.1907C69.0914 15.0159 70.7244 16.4568 72.5496 16.9371L96.7572 22.3166C98.5824 22.7009 100.215 22.0284 100.888 20.5875L102.425 17.3214Z" fill="#D0D0D0"/>
<path d="M91.1865 100.223L75.9127 96.7647C75.4323 96.6687 75.0481 96.9569 75.0481 97.4372C75.0481 98.0136 75.4323 98.4939 76.0087 98.5899L91.2826 102.048C91.7629 102.144 92.1471 101.856 92.1471 101.376C92.1471 100.799 91.7629 100.319 91.1865 100.223Z" fill="#00AC9E"/>
<path d="M96.2298 106.511L70.9655 100.844C70.4852 100.748 70.0049 101.036 70.0049 101.516C70.1009 102.092 70.4852 102.573 70.9655 102.669L96.3258 108.336C96.8062 108.432 97.1904 108.144 97.1904 107.664C97.1904 107.184 96.8061 106.607 96.2298 106.511Z" fill="#00AC9E"/>
<path d="M108.573 19.5307L60.4459 8.67567C57.5641 8.0993 55.1625 9.15598 54.0098 11.2693C55.2586 10.4048 56.8916 10.1166 58.8129 10.5969L106.844 21.3558C110.974 22.3165 114.337 26.255 114.337 30.1935L116.258 139.224C116.258 140.376 116.066 141.433 115.585 142.298C117.122 141.241 118.083 139.512 117.987 137.399L116.066 28.3684C116.066 24.4298 112.704 20.3952 108.573 19.5307Z" fill="#4B4B4D" fill-opacity="0.25098"/>
<path d="M82.6915 90.5987C94.3644 92.9024 104.346 85.2185 104.986 73.4364C105.626 61.6542 96.6817 50.2355 85.0088 47.9318C73.3358 45.6282 63.3543 53.3121 62.7144 65.0942C62.0745 76.8763 71.0185 88.2951 82.6915 90.5987Z" fill="#D1D3D4"/>
<path d="M82.7403 89.6745C93.3895 91.7761 102.496 84.7661 103.079 74.0173C103.663 63.2685 95.5035 52.8512 84.8543 50.7496C74.2051 48.648 65.099 55.658 64.5152 66.4068C63.9314 77.1556 72.0911 87.5729 82.7403 89.6745Z" fill="#CC0000"/>
<path fill-rule="evenodd" clip-rule="evenodd" d="M81.6755 77.456H81.5794C80.8109 77.2639 80.1385 76.7836 79.7542 76.1112L76.8724 71.5963C76.5842 71.0199 76.3921 70.4435 76.4881 69.8672C76.4881 69.0987 76.8724 68.4262 77.5448 68.042L77.6409 67.9459C78.1212 67.6577 78.6975 67.5617 79.2739 67.7538C80.0424 67.8499 80.8109 68.4262 81.1952 69.0986C81.4833 69.4829 81.8676 69.8671 82.3479 69.9632H82.444C82.8282 70.0593 83.3085 69.9632 83.5967 69.675L90.1289 64.2956C90.6092 63.9113 91.2816 63.7192 92.0501 63.9113C92.7226 64.0074 93.2989 64.3916 93.7793 64.968L93.8753 65.0641C94.3556 65.6404 94.5478 66.4089 94.5478 67.0814C94.5478 67.7538 94.2596 68.3302 93.7793 68.7144L83.5967 77.0718C83.1164 77.456 82.444 77.6482 81.6755 77.456Z" fill="white"/>
<path fill-rule="evenodd" clip-rule="evenodd" d="M82.9248 86.9666C72.7422 84.9493 64.7691 75.4391 64.673 65.0645C64.5769 65.5448 64.5769 66.0251 64.4809 66.4093C63.9045 77.1682 72.0698 87.639 82.7326 89.7524C93.3955 91.8657 102.521 84.8532 103.098 74.0943C103.098 73.614 103.098 73.1337 103.098 72.6533C101.849 82.7398 93.0113 88.9839 82.9248 86.9666Z" fill="#231F20" fill-opacity="0.160784"/>
</svg>
