<svg width="275" height="182" viewBox="0 0 275 182" fill="none" xmlns="http://www.w3.org/2000/svg">
<path fill-rule="evenodd" clip-rule="evenodd" d="M163.577 47.4292C164.343 48.6592 165.373 49.0775 167.084 49.7052C168.213 45.7733 170.546 41.9615 173.64 37.8193C172.285 37.2442 171.583 36.5475 170.657 35.1702C167.134 39.3501 165.511 42.0086 163.577 47.4292Z" fill="url(#paint0_linear_126_118851)"/>
<path fill-rule="evenodd" clip-rule="evenodd" d="M126.658 60.8979L121.573 63.7749C121.573 63.7749 114.583 56.309 108.138 56.4762C107.079 56.509 106.036 56.7367 105.042 57.2431L110.132 54.3656C117.2 50.7867 126.658 60.8979 126.658 60.8979Z" fill="url(#paint1_linear_126_118851)"/>
<path fill-rule="evenodd" clip-rule="evenodd" d="M198.739 58.2C198.908 58.4041 198.928 58.2884 199.113 58.8728C199.368 59.6835 199.239 58.8849 199.227 59.6688C199.307 60.648 202.556 68.4679 203.194 69.7091L203.381 70.2243L203.849 71.4181L203.988 71.7146C204.102 72.1573 212.237 82.7054 213.245 84.0097C215.851 87.3893 220.857 93.9631 217.849 99.5866C216.161 102.739 209.819 107.185 206.172 109.406C203.991 110.733 201.203 112.144 198.509 112.845C194.914 113.778 192.412 114.061 190.849 111.168C190.407 110.701 190.636 111.901 190.433 110.467C190.218 110.538 190.021 110.627 189.801 110.619C189.063 110.594 189.602 110.629 189.136 110.347C188.223 109.73 187.805 109.765 186.877 108.92C184.852 107.073 183.677 103.102 182.946 100.357C180.331 90.5469 182.994 88.6632 182.984 86.865C182.752 84.8613 182.516 81.8083 181.111 80.671L181.4 82.3411C180.985 82.0547 180.934 82.9507 180.916 81.3744C181.182 82.5028 180.547 91.8617 180.203 92.277C180.037 92.9685 180.361 92.2999 178.983 93.0279L180.151 93.3367C179.724 94.0698 179.793 93.9947 178.954 94.3191L178.327 94.8472L180.117 94.6313C180.243 98.8308 178.906 103.44 176.965 105.763C174.111 109.181 170.211 108.501 165.636 107.681C162.111 107.049 157.674 105.782 154.685 104.42C152.179 103.278 147.238 100.557 146.621 97.8375C146.573 97.8054 146.512 97.759 146.481 97.738C144.828 96.5761 145.356 96.9965 145.417 96.2029L146.525 95.9884L146.572 95.1103C146.617 95.0536 146.69 94.994 146.72 94.9534L146.947 94.6543C147.305 94.0579 147.08 95.0733 147.041 94.2433C144.296 93.185 145.009 88.6986 145.76 86.4839C146.518 84.2499 147.873 81.3361 148.98 79.4703C153.014 72.6734 156.239 73.2125 157.494 71.905C157.953 71.4268 159.113 69.2623 159.054 68.5364C159.137 68.2372 159.111 68.2343 159.234 67.9366C159.283 67.8178 159.417 67.7743 159.437 67.5712C159.448 67.4623 159.514 67.4507 159.553 67.3904C159.937 67.1015 159.705 67.3968 159.639 66.8584C159.653 66.8037 159.681 66.7345 159.691 66.6975L159.783 66.3558C159.86 66.043 159.844 66.24 159.907 65.7779L159.448 65.2321C159.291 64.7725 159.202 64.7679 158.989 64.0689L159.438 63.5014C159.63 62.6461 159.359 63.9438 159.495 62.8303C159.5 62.7838 159.546 62.6524 159.543 62.5608C159.541 62.5021 159.554 62.4749 159.571 62.4357C159.855 61.9122 160.479 59.9628 160.814 58.9625C161.392 57.235 161.255 56.6239 162.944 56.0773L163.754 56.1252L163.741 55.5867C163.978 55.1443 163.816 55.2884 164.249 55.0098L174.889 59.5056C176.862 60.7287 180.968 61.809 181.437 62.7716L178.753 64.0976C178.701 64.1664 178.611 64.2179 178.547 64.2522C177.422 64.8404 177.731 64.485 177.503 64.1495C177.171 64.8665 177.296 64.8155 176.6 65.1615C176.178 65.2264 176.451 65.0687 175.99 65.3589C175.56 65.6286 175.781 65.4464 175.681 65.7661C175.608 67.1297 174.872 67.2173 175.423 68.0804C175.672 67.6856 175.535 67.7924 175.689 67.543C175.922 67.1657 175.625 67.4811 176.007 67.1334C179.945 65.3228 184.061 63.25 188.077 61.4309C190.066 60.5298 192.055 59.5714 194.049 58.6454C197.494 57.0423 199.106 55.6972 198.739 58.2ZM174.889 59.5056C172.974 58.5361 170.991 57.7262 168.9 56.8046C166.172 55.6037 163.52 55.0882 163.727 53.5074C164.73 52.9282 165.612 53.6819 166.495 54.039L183.247 61.3316L182.789 61.9804C182.286 62.2134 182.412 62.5242 181.39 62.2225C180.364 61.9196 176.97 60.0879 174.889 59.5056ZM184.197 42.3242C183.732 41.9255 184.158 42.6544 183.7 41.6705C183.695 41.6597 183.579 41.1396 183.638 41.0498L183.804 42.2163C183.799 45.7939 187.787 59.0674 187.255 60.9808L186.196 61.1556C185.567 60.2966 181.714 41.2085 180.916 38.3031C179.917 38.299 177.797 38.7175 177.21 39.3301C176.836 39.8607 177.284 50.7741 177.304 53.0164C177.316 54.3449 177.804 57.0329 176.109 56.2834C176.071 56.2373 176.019 56.1008 176.013 56.1315L175.719 52.3598C175.751 50.9777 175.716 49.458 175.735 48.2095C175.774 45.4811 175.878 42.2043 175.745 39.5421C174.52 39.7938 174.595 39.744 174.553 40.9376C174.455 43.6666 174.086 54.7756 173.559 55.7767L172.53 55.77C171.669 53.9744 173.496 42.9415 173.452 40.1389L56.8515 69.2886L79.0785 158.249L229.947 120.506C229.78 118.728 225.292 101.481 224.456 98.1834L216.118 65.0103C215.247 61.3676 214.032 57.3835 213.32 53.745C213.124 52.7412 213.27 51.3365 213.069 50.6621C212.69 49.3967 212.978 50.6175 212.395 49.6861L210.556 42.7431C210.027 40.5794 208.476 32.9315 207.591 31.6239C204.909 31.8439 188.979 36.2468 184.776 37.2234C185.499 41.0803 187.759 49.3056 188.919 53.728C189.621 56.4041 190.529 58.1946 188.862 58.5391C188.047 57.9117 187.844 56.0211 187.502 54.7934C186.84 52.416 184.287 43.5205 184.197 42.3242Z" fill="#CC0000"/>
<path d="M82.7718 132.092L83.526 135.181L81.8939 135.58L80.0525 128.037L82.9552 127.328C83.9189 127.093 84.526 127.488 84.7765 128.514L84.9899 129.389C85.1417 130.01 85.017 130.461 84.6157 130.74C85.0385 130.785 85.3106 131.056 85.432 131.554L86.1606 134.538L84.5285 134.936L83.8312 132.08C83.7933 131.925 83.7005 131.865 83.5528 131.901L82.7718 132.092ZM81.9549 128.746L82.4928 130.949L83.3555 130.739C83.4177 130.724 83.4625 130.688 83.49 130.632C83.5252 130.574 83.5353 130.514 83.5201 130.452L83.096 128.715C83.0808 128.652 83.0442 128.604 82.9862 128.568C82.936 128.531 82.8798 128.52 82.8176 128.535L81.9549 128.746ZM88.592 132.511L90.399 132.07L90.7291 133.423L87.2901 134.262L85.4487 126.72L88.8877 125.88L89.2121 127.209L87.4052 127.65L87.8378 129.422L89.5282 129.009L89.8412 130.292L88.1509 130.704L88.592 132.511ZM93.1449 129.658L92.8518 128.457L95.0084 127.931L95.6858 130.705C95.9363 131.731 95.5797 132.362 94.616 132.597L93.1471 132.956C92.1834 133.191 91.5763 132.796 91.3259 131.77L90.1789 127.072C89.9284 126.046 90.285 125.415 91.2487 125.18L92.7176 124.821C93.6813 124.586 94.2884 124.981 94.5388 126.007L94.7124 126.718L93.162 127.097L92.94 126.188C92.9248 126.126 92.8882 126.077 92.8302 126.042C92.78 126.004 92.7237 125.993 92.6616 126.009L91.9271 126.188C91.865 126.203 91.8163 126.24 91.781 126.298C91.7535 126.354 91.7474 126.413 91.7626 126.475L93.0035 131.558C93.0187 131.62 93.0514 131.67 93.1016 131.707C93.1596 131.742 93.2197 131.752 93.2819 131.737L94.0163 131.558C94.0785 131.542 94.1233 131.507 94.1508 131.451C94.186 131.393 94.1961 131.333 94.1809 131.27L93.7511 129.51L93.1449 129.658ZM96.7233 123.967L98.5647 131.509L96.9327 131.908L95.0912 124.365L96.7233 123.967ZM102.606 124.631L101.056 125.009L100.911 124.415C100.895 124.352 100.859 124.304 100.801 124.269C100.751 124.231 100.694 124.22 100.632 124.236L99.9911 124.392C99.9289 124.407 99.8802 124.444 99.8449 124.502C99.8175 124.558 99.8113 124.617 99.8265 124.679L100.154 126.02C100.169 126.082 100.202 126.132 100.252 126.169C100.31 126.204 100.37 126.214 100.432 126.199L101.481 125.943C102.449 125.723 103.056 126.118 103.303 127.129L103.698 128.749C103.949 129.775 103.592 130.406 102.628 130.641L101.253 130.977C100.289 131.212 99.682 130.817 99.4315 129.791L99.2409 129.01L100.791 128.631L100.996 129.471C101.011 129.533 101.044 129.582 101.094 129.62C101.152 129.655 101.212 129.665 101.275 129.65L101.997 129.473C102.06 129.458 102.104 129.422 102.132 129.366C102.167 129.308 102.177 129.248 102.162 129.186L101.801 127.705C101.785 127.643 101.749 127.595 101.691 127.559C101.641 127.522 101.584 127.511 101.522 127.526L100.473 127.783C99.5092 128.018 98.9022 127.623 98.6517 126.597L98.2846 125.093C98.0341 124.067 98.3907 123.436 99.3544 123.201L100.648 122.885C101.612 122.65 102.219 123.045 102.47 124.071L102.606 124.631ZM103.184 123.86L102.845 122.472L106.925 121.476L107.264 122.864L106.04 123.162L107.543 129.318L105.911 129.716L104.408 123.561L103.184 123.86ZM110.814 127.086L112.621 126.645L112.951 127.997L109.512 128.837L107.671 121.294L111.11 120.455L111.434 121.784L109.627 122.225L110.06 123.997L111.75 123.584L112.064 124.866L110.373 125.279L110.814 127.086ZM114.773 124.279L115.527 127.368L113.895 127.767L112.054 120.224L114.957 119.515C115.92 119.28 116.527 119.675 116.778 120.701L116.991 121.576C117.143 122.197 117.018 122.648 116.617 122.927C117.04 122.972 117.312 123.243 117.433 123.741L118.162 126.725L116.53 127.123L115.833 124.267C115.795 124.112 115.702 124.052 115.554 124.088L114.773 124.279ZM113.956 120.933L114.494 123.136L115.357 122.926C115.419 122.911 115.464 122.875 115.491 122.819C115.527 122.761 115.537 122.701 115.522 122.639L115.097 120.902C115.082 120.839 115.046 120.791 114.988 120.756C114.937 120.718 114.881 120.707 114.819 120.723L113.956 120.933ZM120.594 124.698L122.4 124.257L122.731 125.61L119.292 126.449L117.45 118.907L120.889 118.067L121.214 119.396L119.407 119.837L119.839 121.609L121.53 121.196L121.843 122.479L120.152 122.892L120.594 124.698ZM124.829 117.105C125.793 116.87 126.4 117.265 126.65 118.291L127.74 122.756C127.991 123.782 127.634 124.412 126.671 124.648L123.675 125.379L121.833 117.837L124.829 117.105ZM126.154 123.341L124.97 118.491C124.955 118.429 124.918 118.38 124.86 118.345C124.81 118.308 124.754 118.297 124.692 118.312L123.736 118.546L125.033 123.862L125.989 123.628C126.052 123.613 126.096 123.577 126.124 123.521C126.159 123.463 126.169 123.403 126.154 123.341Z" fill="white"/>
<path fill-rule="evenodd" clip-rule="evenodd" d="M55.0423 68.2196L208.695 29.6777C209.382 30.8892 213.258 46.7179 213.603 49.9429C213.721 51.0543 214.09 51.5941 214.418 52.6898C216.608 59.9907 218.362 67.8966 220.297 75.4307L228.869 109.628C229.786 113.313 231.208 117.862 231.761 121.584L78.1257 160.101C77.5759 159.17 62.236 97.5243 60.7295 91.1538L56.4334 74.113C56.0239 72.4949 55.1826 69.7393 55.0423 68.2196ZM44.6442 76.5323C44.5543 77.207 44.5597 76.9537 44.5687 77.5357L48.2319 79.2949C47.8235 80.787 45.7212 82.2705 45.1846 83.8901L49.8287 85.8077C49.2712 87.4598 47.1462 88.3943 46.6847 89.9914C47.3306 90.1993 50.9698 91.8046 51.4486 92.3094C51.0194 93.2696 49.2864 95.4121 48.4151 96.8601L53.1564 98.734C52.5211 100.16 50.7398 101.73 50.0155 103.314L54.8874 105.923L51.781 110.227C53.0337 111.453 55.284 111.572 56.5917 112.842L53.4336 116.922L58.3107 119.356C57.7427 120.977 55.8412 121.724 55.1935 123.43L59.9927 126.004C59.619 127.197 57.5694 129.071 56.8725 130.353C58.1388 131.533 60.1746 131.896 61.7322 132.929C61.2282 134.007 59.2493 135.923 58.5443 137.053C59.9775 138.367 62.386 138.646 63.5173 140.062L60.4828 145.207C62.0736 145.822 63.7793 146.502 65.3183 147.011C64.7632 148.474 62.6321 150.522 62.2526 152.016C63.1569 152.236 66.3667 153.368 66.9745 153.896C66.2415 154.967 64.2989 156.769 63.8655 157.77C67.6013 157.462 69.0467 157.377 71.5872 159.151C73.4218 160.433 74.9146 162.357 75.9307 164.992L235.958 124.817C235.062 118.754 237.644 115.436 242.273 113.177C242.622 112.748 241.796 113.072 242.812 112.71C242.027 112.484 242.868 112.791 242.412 112.271C241.941 111.876 239.188 110.691 238.588 110.529C238.861 109.48 241.007 107.023 241.647 105.929C240.503 104.875 238.354 104.604 237.048 103.766C237.651 102.84 239.845 100.617 240.093 99.6367C239.428 99.3647 235.971 97.8601 235.432 97.2815C236.223 95.9615 238.125 93.8551 238.32 92.6591C237.584 92.4955 234.48 91.4191 233.845 91.016C234.017 89.7221 236.329 87.8982 236.735 86.3604L231.936 83.9285C232.345 82.4937 234.647 80.6007 234.943 79.3491C233.394 78.351 231.692 77.8881 230.159 76.9859L233.335 72.9409C232.486 71.8706 229.466 71.1095 228.511 70.282C229.386 69.0676 231.201 67.3987 231.656 66.3854C231.617 66.3437 231.544 66.2282 231.529 66.2701C231.514 66.3104 231.43 66.1789 231.4 66.1578L226.914 63.7964C227.05 62.4088 229.506 60.7588 229.946 59.177C228.733 58.7768 226.432 57.5882 225.09 56.8891C225.586 55.6416 227.891 53.9105 228.281 52.5423C227.581 52.2284 223.714 50.2143 223.332 49.7549L226.281 44.5845L221.518 42.7647C222.111 41.0384 224.037 39.5612 224.531 37.7481L219.838 36.0125C220.477 34.8211 222.387 33.2179 222.827 31.9779C216.584 32.9234 213.349 30.0849 211.677 24.6229L50.9222 64.948C50.7809 69.7224 52.1711 72.3246 44.6442 76.5323Z" fill="#CC0000"/>
<path fill-rule="evenodd" clip-rule="evenodd" d="M192.198 111.64C199.333 113.473 204.17 108.778 207.675 107.625C206.221 109.595 194.54 115.451 192.198 111.64ZM189.402 109.911C187.858 109.935 187.167 109.265 186.676 107.986L189.131 109.635C189.164 109.663 189.249 109.811 189.267 109.769C189.286 109.725 189.358 109.864 189.402 109.911ZM182.983 86.8628C182.993 88.6611 180.33 90.5448 182.945 100.355C183.676 103.1 184.851 107.071 186.875 108.918C187.804 109.763 188.222 109.728 189.135 110.345C190.041 110.242 190.378 110.053 190.83 109.496C192.431 107.523 191.666 106.635 190.712 104.604C190.055 104.809 189.919 105.074 189.278 104.732L190.389 104.28L189.478 102.183L187.517 102.34L189.126 101.516C188.903 100.568 188.52 99.7256 188.149 98.8485C187.841 98.1183 187.592 97.3213 188.054 96.4149C188.631 96.7007 188.242 96.2047 188.838 97.7134C189.218 98.68 188.368 98.6034 190.32 102.045L192.015 102.248C191.972 102.285 191.907 102.321 191.872 102.337L191.562 102.489C191.507 102.511 191.443 102.531 191.385 102.55C191.279 102.584 190.833 102.666 190.624 102.728C190.792 103.175 191.25 104.209 191.502 104.652C192.093 105.691 192.67 105.049 193.486 105.388L192.147 106.012C193.155 109.878 191.097 107.553 192.489 110.617C191.748 110.296 192.046 110.149 191.313 110.06C190.918 110.773 190.96 110.339 190.848 111.166C192.41 114.059 194.913 113.776 198.508 112.843C201.202 112.142 203.99 110.731 206.171 109.404C209.818 107.183 216.16 102.737 217.847 99.5844C220.855 93.961 215.85 87.3872 213.243 84.0076C212.236 82.7033 204.101 72.1552 203.986 71.7125C194.328 72.5977 187.381 76.5266 182.485 81.7549C182.609 82.837 182.966 83.401 183.194 84.3569C183.36 85.0539 183.495 85.8088 183.275 86.4303C183.117 86.8697 183.235 86.5884 182.983 86.8628Z" fill="#FDFDFD"/>
<path fill-rule="evenodd" clip-rule="evenodd" d="M147.996 96.6806C148.963 98.1444 149.283 98.8791 150.512 99.9021C155.803 104.306 160.008 104.455 161.816 105.771C158.719 105.645 148.032 101.507 147.996 96.6806ZM164.405 80.9269C165.155 81.4796 166.385 82.1693 167.533 82.657C169.198 83.3652 169.183 83.1817 170.413 83.5325L171.248 83.9366C167.94 84.1662 165.743 82.8915 164.213 81.2136C163.841 80.9642 164.05 81.25 163.675 80.7181C163.587 80.5957 163.562 80.4145 163.512 80.2807C164.222 80.4716 164.015 80.4282 164.405 80.9269ZM147.041 94.2419C149.691 94.1043 150.542 93.0032 150.548 90.5771C149.831 90.1501 150.013 90.4935 149.582 89.7695L150.75 90.0639L151.33 88.049C150.684 87.3341 150.496 87.6591 149.934 86.6192C150.603 86.8533 150.705 87.1007 151.55 87.1576C152.464 85.8054 152.28 83.2795 154.132 82.9191C154.211 83.986 153.602 83.6922 152.867 85.7829C152.532 86.7358 152.127 87.8168 151.954 88.8753C152.812 88.1541 153.56 87.1345 154.892 86.2034C158.899 83.4001 163.746 83.7446 167.542 85.8855C169.53 87.0065 171.705 88.9155 173.035 91.5587C174.962 95.389 174.02 97.2252 174.189 101.038C175.205 101.04 175.352 100.83 175.576 100.049C175.867 99.0408 175.56 98.7944 176.288 98.3514C176.657 98.9401 176.501 98.2061 176.472 99.1412C176.385 101.993 174.416 101.602 173.836 102.267C173.428 102.737 174.191 102.142 173.449 102.816C173.046 102.307 173.202 101.908 173.332 101.301C173.963 98.3529 173.735 92.743 171.899 91.0813L171.478 90.8947C171.461 90.9483 171.427 90.972 171.422 91.0646L171.295 91.4417C171.274 91.4986 171.238 91.5944 171.22 91.6467C171.201 91.7018 171.169 91.7901 171.142 91.8605C170.326 91.9154 171.138 91.9658 170.805 91.3905C170.526 90.7561 169.139 89.232 168.749 88.8654C168.27 88.4166 167.998 88.3157 167.547 87.8882C167.036 87.4027 166.767 87.1034 166.178 87.0902C165.282 86.8593 165.509 87.0011 164.721 86.362C164.839 86.2199 164.223 85.789 165.316 86.0744C164.555 86.1576 165.337 86.1755 164.919 85.6669C163.894 84.8944 160.643 84.7344 158.955 85.1473C157.024 85.6213 155.43 86.5997 154.089 87.7775C148.989 92.2553 152.847 94.279 146.572 95.1088L146.526 95.987L146.621 97.8361C147.238 100.556 152.179 103.277 154.685 104.419C157.674 105.78 162.111 107.047 165.636 107.68C170.211 108.499 174.111 109.18 176.965 105.762C178.906 103.439 180.243 98.8293 180.117 94.6299L178.327 94.8457L178.954 94.3176L179.354 93.6794L178.849 93.2206C178.489 92.9124 178.6 93.11 178.373 92.6408C178.876 92.2039 179.381 92.3884 180.203 92.2755C180.547 91.8603 181.182 82.5013 180.916 81.373C178.35 80.6442 178.452 79.6465 177.402 77.0773C176.673 75.296 176.138 73.044 174.28 72.858C173.972 74.5331 172.831 77.1794 172.235 78.9391C171.884 79.9784 171.556 81.0022 170.756 81.6009C169.094 82.8453 166.071 82.1333 165.734 79.1417C165.478 76.8706 168.442 71.8494 168.225 69.9747C165.405 69.3741 162.469 68.2491 159.054 68.535C159.113 69.2608 157.953 71.4254 157.494 71.9035C156.239 73.211 153.014 72.672 148.98 79.4688C147.873 81.3346 146.519 84.2485 145.76 86.4825C145.009 88.6971 144.296 93.1836 147.041 94.2419Z" fill="#FDFDFD"/>
<path fill-rule="evenodd" clip-rule="evenodd" d="M183.801 42.215C183.162 41.7162 183.125 39.954 183.069 39.0253C183.685 39.6185 183.913 40.965 184.193 42.3229C184.284 43.5192 186.836 52.4147 187.498 54.7921C187.841 56.0198 188.043 57.9104 188.859 58.5378C190.526 58.1932 189.618 56.4028 188.916 53.7267C187.756 49.3043 185.496 41.079 184.773 37.222C188.976 36.2455 204.906 31.8426 207.588 31.6226C208.473 32.9302 210.024 40.5781 210.552 42.7418L212.392 49.6848C212.975 50.6162 212.687 49.3954 213.066 50.6608C213.267 51.3352 213.121 52.7398 213.317 53.7437C214.029 57.3822 215.244 61.3663 216.115 65.009L224.453 98.182C225.289 101.48 229.777 118.726 229.944 120.504L79.0753 158.248L56.8483 69.2873L173.449 40.1376C173.492 42.9402 171.666 53.9731 172.527 55.7687L173.556 55.7753C174.083 54.7743 174.452 43.6653 174.55 40.9362C174.592 39.7427 174.517 39.7925 175.741 39.5408C175.875 42.203 175.77 45.4798 175.731 48.2082C175.713 49.4566 175.748 50.9763 175.716 52.3585L176.01 56.1302C176.016 56.0995 176.068 56.2359 176.106 56.282C177.801 57.0316 177.313 54.3436 177.301 53.0151C177.281 50.7728 176.833 39.8594 177.207 39.3288C177.794 38.7161 179.913 38.2977 180.913 38.3018C181.711 41.2072 185.564 60.2953 186.192 61.1542L187.252 60.9795C187.783 59.0661 183.796 45.7926 183.801 42.215ZM55.04 68.2199C55.1804 69.7396 56.0216 72.4952 56.4312 74.1133L60.7272 91.1541C62.2338 97.5246 77.5736 159.17 78.1234 160.101L231.759 121.584C231.206 117.862 229.783 113.313 228.866 109.628L220.295 75.431C218.359 67.8969 216.606 59.991 214.416 52.6901C214.088 51.5944 213.719 51.0546 213.6 49.9432C213.256 46.7182 209.38 30.8895 208.693 29.678L55.04 68.2199Z" fill="#FAF6F6"/>
<path fill-rule="evenodd" clip-rule="evenodd" d="M180.738 79.3893C178.845 79.3838 179.051 78.3001 180.093 77.6419L180.738 79.3893ZM178.78 77.3604C175.777 71.0014 176.126 70.8699 178.36 69.853C180.532 68.8645 190.079 64.0223 191.044 64.3302C191.797 64.5724 192.104 65.7379 192.504 66.7368C194.131 70.7965 193.708 70.0673 188.782 72.4124C185.318 74.0621 181.993 75.3461 178.78 77.3604ZM168.858 79.1002C168.716 78.896 168.326 79.4412 168.804 78.0061L170.501 73.1435C170.891 72.1618 170.775 71.8829 171.332 71.2979C171.528 71.578 171.595 71.3696 171.576 71.9719L169.215 78.728C168.97 79.1684 169.259 78.7648 168.858 79.1002ZM160.861 63.8183C162.236 64.0456 171.179 68.1396 173.868 69.2772C174.856 69.6962 175.426 69.6167 175.768 69.8277L175.49 70.7671C171.71 69.6611 171.765 67.6275 160.095 66.2298L160.861 63.8183ZM159.436 63.5002L160.353 63.4416C160.396 64.0257 160.188 65.1096 159.446 65.2309L159.905 65.7767C159.842 66.2388 159.858 66.0418 159.781 66.3546L159.69 66.6963C159.679 66.7333 159.651 66.8025 159.637 66.8572C163.143 66.1851 169.968 68.598 173.169 70.1506C174.09 70.5971 176.128 71.2056 175.48 72.7111C172.462 71.2045 172.065 70.6088 168.152 69.4183L161.646 68.0677C161.464 68.0474 160.535 67.9953 160.521 67.9926C159.127 67.7473 159.942 68.1995 159.551 67.3892C159.512 67.4495 159.446 67.4611 159.435 67.57C159.415 67.7731 159.281 67.8166 159.232 67.9354C159.109 68.2331 159.136 68.236 159.052 68.5352C162.467 68.2493 165.403 69.3743 168.223 69.9749C168.902 70.4564 168.502 70.3824 169.006 70.4221L170.353 70.8693C169.987 73.0102 167.176 77.9702 168.193 79.8321C170.144 80.2419 170.241 78.1405 170.835 76.4328C171.26 75.2116 171.95 72.8429 172.506 71.8989C173.209 72.0189 173.585 72.0955 173.712 72.8039L174.278 72.8583C176.137 73.0442 176.672 75.2962 177.401 77.0776C178.45 79.6467 178.348 80.6444 180.915 81.3732C180.932 82.9495 180.983 82.0536 181.398 82.3399L181.109 80.6698C182.514 81.8071 182.751 84.8601 182.983 86.8638C183.234 86.5893 183.117 86.8706 183.274 86.4312C183.495 85.8097 183.359 85.0549 183.194 84.3578C182.966 83.402 182.608 82.838 182.484 81.7559C187.381 76.5276 194.328 72.5986 203.986 71.7134L203.847 71.4169C197.208 71.9879 191.413 74.0044 186.361 77.9042C185.671 78.4363 184.93 79.076 184.284 79.6305C183.472 80.3253 182.909 81.0403 182.143 81.3495L181.856 80.2693C183.748 78.0105 187.678 75.3147 190.665 73.7344C194.546 71.6801 198.592 70.7366 203.379 70.2231L203.192 69.708C195.967 70.7249 191.305 72.24 185.699 76.3553C184.163 77.484 182.781 78.9519 181.574 79.7574C181.238 79.2111 180.766 77.9947 180.688 77.2896L191.478 72.2109C193.712 71.1697 195.436 70.9769 194.237 68.0881C193.593 66.5386 193.03 63.6809 191.498 62.9882C190.531 62.7493 181.155 67.3402 179.062 68.3948C178.104 68.8787 178.169 68.9089 177.551 68.8903C177.506 68.8895 177.405 68.9134 177.366 68.8473C177.326 68.7799 177.239 68.8211 177.181 68.7901L178.491 67.9561C178.875 67.7791 179.302 67.5831 179.744 67.3767C180.6 66.9773 181.529 66.5367 182.418 66.115L198.593 58.9168C198.931 59.2761 198.664 58.9894 198.818 59.165L199.225 59.6676C199.237 58.8837 199.366 59.6823 199.111 58.8716C198.926 58.2872 198.906 58.4029 198.737 58.1988C194.861 59.7226 178.134 68.2679 176.292 68.4133L176.088 67.4894C175.872 66.6557 176.058 68.2236 176.006 67.1322C175.623 67.4799 175.92 67.1645 175.687 67.5418C175.533 67.7912 175.67 67.6844 175.421 68.0792C174.87 67.2161 175.606 67.1285 175.68 65.7649C174.4 66.5668 175.166 67.1637 174.787 68.4085C172.552 68.3643 163.292 62.9982 160.024 62.5198C159.302 62.4135 160.023 62.6506 159.57 62.4345C159.552 62.4737 159.54 62.501 159.542 62.5596C159.544 62.6512 159.499 62.7826 159.494 62.8291C159.357 63.9426 159.629 62.6449 159.436 63.5002Z" fill="#97232B"/>
<path fill-rule="evenodd" clip-rule="evenodd" d="M203.192 69.7084C202.554 68.4671 199.305 60.6472 199.225 59.668L198.818 59.1654C198.664 58.9898 198.931 59.2765 198.593 58.9172L182.418 66.1154C181.529 66.5371 180.6 66.9777 179.744 67.3771C179.302 67.5835 178.875 67.7795 178.491 67.9565L177.181 68.7905C177.239 68.8215 177.326 68.7803 177.366 68.8477C177.405 68.9138 177.506 68.8899 177.551 68.8907C178.169 68.9093 178.104 68.8791 179.062 68.3952C181.155 67.3406 190.531 62.7497 191.498 62.9886C193.03 63.6813 193.593 66.539 194.237 68.0885C195.436 70.9773 193.712 71.1701 191.478 72.2113L180.688 77.29C180.766 77.9951 181.238 79.2115 181.574 79.7578C182.781 78.9523 184.162 77.4844 185.699 76.3557C191.305 72.2404 195.967 70.7253 203.192 69.7084Z" fill="#F9F9F9"/>
<path fill-rule="evenodd" clip-rule="evenodd" d="M179.19 76.2005L177.798 72.8245C178.523 72.9563 179.104 73.5792 179.575 74.0518C182.573 73.8776 185.951 70.563 189.063 70.9565C189.033 71.8802 189.384 71.6423 186.954 72.5886C185.986 72.9645 185.221 73.2334 184.266 73.5992C183.269 73.9824 182.509 74.2952 181.731 74.7709C180.838 75.3167 180.28 75.9679 179.19 76.2005ZM178.781 77.361C181.994 75.3468 185.319 74.0627 188.783 72.4131C193.709 70.0679 194.132 70.7971 192.505 66.7374C192.105 65.7385 191.798 64.573 191.045 64.3308C190.08 64.0229 180.533 68.8651 178.361 69.8536C176.127 70.8705 175.778 71.002 178.781 77.361Z" fill="#F9F9F9"/>
<path fill-rule="evenodd" clip-rule="evenodd" d="M160.74 61.93C160.75 60.9567 161.062 61.1452 161.335 60.1705C161.759 58.6494 161.149 59.098 161.983 58.4396C163.008 61.4709 160.921 60.3536 166.281 62.773C167.796 63.456 170.875 64.4979 171.118 66.048C170.139 66.3432 169.192 65.6254 168.362 65.1791C167.726 64.8379 166.682 64.2915 165.966 63.9132C163.304 62.5112 161.576 62.5738 160.74 61.93ZM159.572 62.4354C160.025 62.6515 159.304 62.4144 160.027 62.5207C163.294 62.9991 172.554 68.3652 174.789 68.4094C175.169 67.1646 174.403 66.5677 175.682 65.7658C175.782 65.4461 175.561 65.6283 175.991 65.3586C176.451 65.0684 176.179 65.2261 176.601 65.1612C177.393 61.8307 177.935 62.8283 171.086 59.7949C169.661 59.1637 168.309 58.5534 166.94 57.9721L163.37 56.4182C163.041 56.203 163.193 56.3199 162.945 56.077C161.256 56.6236 161.393 57.2347 160.815 58.9622C160.479 59.9625 159.855 61.9119 159.572 62.4354Z" fill="#F9F9F9"/>
<path fill-rule="evenodd" clip-rule="evenodd" d="M147.041 94.2436C147.08 95.0737 147.305 94.0582 146.946 94.6546L146.719 94.9537C146.689 94.9943 146.617 95.0539 146.571 95.1106C152.846 94.2808 148.989 92.2571 154.088 87.7792C155.43 86.6015 157.023 85.6231 158.954 85.1491C160.642 84.7362 163.894 84.8962 164.919 85.6687C167.412 86.1284 171.001 88.8563 171.898 91.0831C173.734 92.7448 173.963 98.3547 173.332 101.303C173.201 101.91 173.045 102.309 173.449 102.818C174.191 102.144 173.427 102.738 173.835 102.269C174.416 101.604 176.384 101.994 176.472 99.143C176.5 98.2079 176.656 98.9418 176.288 98.3532C175.559 98.7962 175.866 99.0426 175.576 100.051C175.351 100.832 175.204 101.042 174.189 101.04C174.019 97.227 174.961 95.3907 173.035 91.5605C171.705 88.9173 169.53 87.0082 167.542 85.8873C163.745 83.7464 158.898 83.4019 154.891 86.2052C153.56 87.1363 152.811 88.1558 151.954 88.8771C152.127 87.8185 152.531 86.7375 152.866 85.7847C153.601 83.6939 154.211 83.9877 154.131 82.9208C152.28 83.2813 152.464 85.8072 151.549 87.1594C150.704 87.1024 150.602 86.8551 149.934 86.6209C150.495 87.6609 150.684 87.3359 151.329 88.0508L150.75 90.0657L149.582 89.7712C150.013 90.4952 149.83 90.1519 150.547 90.5789C150.541 93.005 149.691 94.106 147.041 94.2436Z" fill="#97232B"/>
<path fill-rule="evenodd" clip-rule="evenodd" d="M176.007 67.1314C176.059 68.2228 175.874 66.6549 176.09 67.4886L176.294 68.4126C178.136 68.2671 194.863 59.7218 198.739 58.198C199.106 55.6952 197.494 57.0404 194.049 58.6434C192.055 59.5694 190.066 60.5279 188.077 61.4289C184.061 63.2481 179.945 65.3208 176.007 67.1314Z" fill="#E9D7D7"/>
<path fill-rule="evenodd" clip-rule="evenodd" d="M174.889 59.5057C176.97 60.088 180.364 61.9197 181.389 62.2226C182.412 62.5243 182.286 62.2136 182.789 61.9805L183.246 61.3317L166.495 54.0391C165.611 53.682 164.729 52.9284 163.727 53.5075C163.519 55.0883 166.172 55.6038 168.9 56.8047C170.991 57.7263 172.973 58.5362 174.889 59.5057Z" fill="#E9D7D7"/>
<path fill-rule="evenodd" clip-rule="evenodd" d="M203.847 71.4165L203.379 70.2227C198.592 70.7361 194.546 71.6797 190.666 73.7339C187.678 75.3143 183.748 78.01 181.857 80.2689L182.143 81.349C182.909 81.0398 183.473 80.3248 184.284 79.6301C184.93 79.0755 185.671 78.4358 186.361 77.9037C191.413 74.004 197.208 71.9874 203.847 71.4165Z" fill="#EACFD0"/>
<path fill-rule="evenodd" clip-rule="evenodd" d="M173.713 72.8028C173.585 72.0945 173.209 72.0178 172.507 71.8979C171.951 72.8418 171.261 75.2106 170.836 76.4317C170.241 78.1395 170.145 80.2409 168.193 79.8311C167.177 77.9692 169.988 73.0092 170.354 70.8683L169.007 70.4211C168.725 72.1779 167.822 74.2512 167.228 75.8885C166.505 77.8876 165.788 79.9606 167.82 81.0565C171.425 83.0016 172.015 76.3717 173.353 73.4525L173.615 72.9672C173.623 72.8744 173.679 72.8568 173.713 72.8028Z" fill="#FAF3F3"/>
<path fill-rule="evenodd" clip-rule="evenodd" d="M159.552 67.3903C159.942 68.2006 159.127 67.7483 160.521 67.9937C160.536 67.9964 161.465 68.0484 161.646 68.0688L168.153 69.4194C172.065 70.6099 172.462 71.2055 175.48 72.7121C176.128 71.2067 174.09 70.5981 173.17 70.1517C169.968 68.599 163.144 66.1861 159.637 66.8582C159.703 67.3967 159.935 67.1013 159.552 67.3903Z" fill="#EACFD0"/>
<path fill-rule="evenodd" clip-rule="evenodd" d="M160.096 66.2309C171.765 67.6286 171.711 69.6622 175.49 70.7682L175.768 69.8288C175.426 69.6178 174.856 69.6973 173.869 69.2784C171.179 68.1407 162.236 64.0467 160.862 63.8194L160.096 66.2309Z" fill="#FAF3F3"/>
<path fill-rule="evenodd" clip-rule="evenodd" d="M174.277 72.8583L173.711 72.8039C173.677 72.8579 173.621 72.8755 173.613 72.9683L173.351 73.4536C172.013 76.3728 171.423 83.0027 167.818 81.0576C165.786 79.9617 166.503 77.8887 167.226 75.8896C167.82 74.2523 168.723 72.179 169.005 70.4222C168.501 70.3825 168.901 70.4565 168.222 69.975C168.439 71.8497 165.475 76.8709 165.731 79.142C166.068 82.1336 169.091 82.8456 170.753 81.6012C171.553 81.0025 171.881 79.9787 172.232 78.9394C172.828 77.1797 173.969 74.5334 174.277 72.8583Z" fill="#B98688"/>
<path fill-rule="evenodd" clip-rule="evenodd" d="M162.945 56.0774C163.193 56.3203 163.041 56.2034 163.37 56.4187L166.94 57.9726C168.309 58.5538 169.661 59.1642 171.086 59.7953C177.936 62.8287 177.393 61.8312 176.601 65.1617C177.297 64.8156 177.172 64.8666 177.504 64.1496C177.732 64.4852 177.423 64.8406 178.548 64.2523C178.612 64.2181 178.702 64.1665 178.754 64.0977C178.054 64.1254 178.395 64.3121 178.134 64.0248C178.912 61.5803 177.22 61.392 175.722 60.7373C173.018 59.5553 165.597 56.1421 163.741 55.5868L163.754 56.1254L162.945 56.0774Z" fill="#A31B2B"/>
<path fill-rule="evenodd" clip-rule="evenodd" d="M163.74 55.5854C165.596 56.1407 173.017 59.5539 175.721 60.7358C177.218 61.3906 178.91 61.5789 178.132 64.0233C178.393 64.3107 178.053 64.1239 178.752 64.0963L181.436 62.7703C180.967 61.8078 176.861 60.7274 174.888 59.5043L164.248 55.0086C163.815 55.2871 163.977 55.143 163.74 55.5854Z" fill="#F5ECEB"/>
<path fill-rule="evenodd" clip-rule="evenodd" d="M160.738 61.9301C161.574 62.5739 163.302 62.5113 165.964 63.9133C166.68 64.2916 167.724 64.8381 168.36 65.1792C169.19 65.6255 170.137 66.3433 171.116 66.0482C170.873 64.498 167.794 63.4562 166.279 62.7732C160.919 60.3537 163.006 61.471 161.981 58.4397C161.147 59.0982 161.757 58.6495 161.333 60.1706C161.06 61.1453 160.748 60.9568 160.738 61.9301Z" fill="#A4142A"/>
<path fill-rule="evenodd" clip-rule="evenodd" d="M179.188 76.2C180.279 75.9674 180.836 75.3162 181.73 74.7704C182.508 74.2947 183.268 73.9819 184.265 73.5987C185.22 73.2329 185.984 72.964 186.953 72.5881C189.382 71.6418 189.032 71.8797 189.062 70.956C185.95 70.5625 182.572 73.8771 179.574 74.0513C179.103 73.5787 178.522 72.9558 177.797 72.824L179.188 76.2Z" fill="#AA1424"/>
<path fill-rule="evenodd" clip-rule="evenodd" d="M189.134 110.347C189.6 110.629 189.06 110.593 189.798 110.619C190.019 110.627 190.216 110.537 190.431 110.467C190.634 111.901 190.405 110.701 190.846 111.168C190.959 110.341 190.917 110.775 191.311 110.062C192.045 110.151 191.747 110.298 192.488 110.619C191.096 107.555 193.154 109.88 192.145 106.014L193.484 105.39C192.669 105.051 192.092 105.693 191.501 104.654C191.249 104.211 190.791 103.177 190.623 102.73C190.832 102.668 191.278 102.587 191.383 102.552C191.442 102.533 191.505 102.513 191.561 102.491L191.871 102.339C191.905 102.323 191.97 102.287 192.014 102.25L190.319 102.047C188.367 98.6055 189.217 98.682 188.837 97.7155C188.241 96.2068 188.63 96.7028 188.053 96.4169C187.591 97.3233 187.84 98.1203 188.148 98.8506C188.518 99.7277 188.902 100.57 189.125 101.518L187.516 102.342L189.476 102.185L190.388 104.282L189.277 104.734C189.918 105.076 190.054 104.811 190.71 104.606C191.665 106.637 192.43 107.525 190.829 109.498C190.377 110.055 190.04 110.244 189.134 110.347Z" fill="#992835"/>
<path fill-rule="evenodd" clip-rule="evenodd" d="M192.197 111.641C194.539 115.452 206.22 109.597 207.674 107.627C204.169 108.78 199.332 113.475 192.197 111.641Z" fill="#893539"/>
<path fill-rule="evenodd" clip-rule="evenodd" d="M150.51 99.9042C149.281 98.8812 148.961 98.1465 147.994 96.6827C148.031 101.509 158.717 105.647 161.814 105.773C160.006 104.458 155.801 104.309 150.51 99.9042Z" fill="#893539"/>
<path fill-rule="evenodd" clip-rule="evenodd" d="M166.178 87.092C166.311 86.6654 165.541 86.5068 166.774 86.8028C167.076 86.876 167.482 87.1619 167.64 87.2653C168.644 87.9181 171.489 90.252 170.805 91.3923C171.138 91.9676 170.326 91.9172 171.143 91.8623C171.169 91.7919 171.201 91.7037 171.22 91.6485C171.239 91.5962 171.274 91.5004 171.295 91.4436L171.422 91.0664C171.427 90.9739 171.461 90.9501 171.478 90.8966L171.899 91.0831C171.002 88.8563 167.412 86.1285 164.92 85.6687C165.337 86.1774 164.555 86.1594 165.316 86.0763C164.224 85.7908 164.839 86.2217 164.721 86.3639C165.509 87.0029 165.283 86.8611 166.178 87.092Z" fill="#E9D7D7"/>
<path fill-rule="evenodd" clip-rule="evenodd" d="M168.859 79.1016C169.26 78.7662 168.971 79.1697 169.216 78.7294L171.577 71.9733C171.596 71.371 171.529 71.5794 171.333 71.2992C170.776 71.8842 170.892 72.1631 170.502 73.1449L168.805 78.0075C168.327 79.4426 168.717 78.8973 168.859 79.1016Z" fill="#FCD5DB"/>
<path fill-rule="evenodd" clip-rule="evenodd" d="M164.404 80.9282C164.087 80.9456 164.176 80.8698 164.211 81.2149C165.742 82.8928 167.939 84.1675 171.247 83.9379L170.411 83.5338C169.181 83.183 169.197 83.3665 167.531 82.6583C166.384 82.1706 165.154 81.4809 164.404 80.9282Z" fill="#8A2934"/>
<path fill-rule="evenodd" clip-rule="evenodd" d="M170.804 91.3908C171.488 90.2505 168.642 87.9166 167.639 87.2638C167.481 87.1604 167.075 86.8746 166.773 86.8014C165.54 86.5054 166.31 86.6639 166.177 87.0905C166.766 87.1037 167.035 87.4031 167.547 87.8885C167.997 88.316 168.269 88.4169 168.748 88.8658C169.138 89.2323 170.525 90.7564 170.804 91.3908Z" fill="#8F5154"/>
<path fill-rule="evenodd" clip-rule="evenodd" d="M159.447 65.2321C160.189 65.1108 160.397 64.0269 160.354 63.4428L159.437 63.5014L158.988 64.0689C159.201 64.7679 159.291 64.7725 159.447 65.2321Z" fill="#F9DAE4"/>
<path fill-rule="evenodd" clip-rule="evenodd" d="M178.951 94.3176C179.79 93.9933 179.721 94.0683 180.147 93.3353L178.979 93.0265C180.357 92.2985 180.034 92.9671 180.2 92.2755C179.378 92.3884 178.872 92.2039 178.37 92.6408C178.596 93.11 178.486 92.9124 178.845 93.2206L179.351 93.6794L178.951 94.3176Z" fill="#EACFD0"/>
<path fill-rule="evenodd" clip-rule="evenodd" d="M183.803 42.2162L183.637 41.0497C183.577 41.1394 183.693 41.6595 183.699 41.6704C184.157 42.6542 183.731 41.9254 184.195 42.3241C183.915 40.9661 183.687 39.6196 183.071 39.0265C183.126 39.9552 183.164 41.7174 183.803 42.2162Z" fill="#B18F92"/>
<path fill-rule="evenodd" clip-rule="evenodd" d="M146.62 97.8372L146.524 95.988L145.416 96.2026C145.355 96.9962 144.826 96.5758 146.48 97.7376C146.511 97.7586 146.572 97.8051 146.62 97.8372Z" fill="#CB6A71"/>
<path fill-rule="evenodd" clip-rule="evenodd" d="M189.403 109.913C189.359 109.866 189.286 109.728 189.268 109.771C189.25 109.813 189.164 109.665 189.131 109.637L186.676 107.988C187.168 109.267 187.859 109.937 189.403 109.913Z" fill="#956C6E"/>
<path fill-rule="evenodd" clip-rule="evenodd" d="M180.74 79.3913L180.095 77.6438C179.052 78.302 178.846 79.3858 180.74 79.3913Z" fill="#F5E9E5"/>
<path fill-rule="evenodd" clip-rule="evenodd" d="M44.5682 77.5373C44.5592 76.9553 44.5538 77.2086 44.6438 76.5339L43.545 76.9254C43.884 77.5575 43.7413 77.3549 44.5682 77.5373Z" fill="#893539"/>
<path fill-rule="evenodd" clip-rule="evenodd" d="M242.272 113.18L243.407 112.905C242.958 112.318 243.198 112.491 242.412 112.274C242.868 112.794 242.027 112.487 242.812 112.713C241.796 113.075 242.622 112.751 242.272 113.18Z" fill="#956C6E"/>
<path fill-rule="evenodd" clip-rule="evenodd" d="M164.212 81.2151C164.177 80.87 164.088 80.9458 164.405 80.9284C164.014 80.4297 164.221 80.4731 163.511 80.2822C163.562 80.416 163.586 80.5972 163.674 80.7197C164.049 81.2516 163.84 80.9657 164.212 81.2151Z" fill="#B18F92"/>
<path d="M141.002 54.8761L146.558 76.5281L71.075 95.8991L65.5186 74.2471L141.002 54.8761ZM140.618 55.5376L66.1808 74.6401L71.4673 95.2402L145.905 76.1377L140.618 55.5376Z" fill="white"/>
<path d="M94.849 88.7763L72.0549 94.6258L67.022 75.0137L89.8161 69.1641L94.849 88.7763ZM89.583 89.0618C89.6289 89.0629 89.7317 89.0639 89.8346 89.0676C90.5852 89.0896 91.285 88.9513 91.9346 88.5335C92.521 88.156 93.1504 87.8458 93.752 87.4901C93.8392 87.4388 93.8983 87.3072 93.928 87.2013C93.9543 87.1071 93.9257 86.9958 93.9144 86.893C93.8468 86.2765 93.7927 85.6576 93.7019 85.0444C93.6624 84.7797 93.613 84.472 93.4517 84.2789C92.898 83.6079 92.2906 82.9812 91.7106 82.3315C91.6148 82.226 91.5403 82.1029 91.4914 81.9691C91.348 81.5545 91.2743 81.1082 91.0803 80.7205C90.8279 80.218 90.5649 79.6785 90.0602 79.3787C89.353 78.9619 88.6249 78.5814 87.879 78.2387C87.6201 78.1189 87.2897 78.0947 86.9981 78.1148C86.4124 78.1541 85.8311 78.2565 85.2475 78.3269C85.1313 78.3406 84.9964 78.3607 84.8963 78.3177C84.6437 78.2076 84.403 78.0686 84.1624 77.9323C83.7657 77.7121 83.3679 77.5029 82.8936 77.7041C82.8539 77.7212 82.8024 77.7108 82.6996 77.7157C82.9776 77.3224 82.8991 76.977 82.773 76.5838C82.7054 76.3725 82.8975 76.0796 82.9682 75.822C83.0003 75.7065 83.0811 75.5526 83.0367 75.4824C82.9708 75.3759 82.818 75.3121 82.6902 75.2595C82.6301 75.2342 82.5407 75.277 82.4664 75.2885C82.4505 75.265 82.4364 75.2402 82.4243 75.2145C82.3982 75.1504 82.3751 75.0855 82.3504 75.0188C82.0584 74.2193 81.5583 73.5123 80.9017 72.9706C80.3871 72.5488 79.8045 72.2862 79.1298 72.2527C77.4008 72.1704 75.9554 73.3958 75.7941 75.1369C75.7386 75.7383 75.8203 76.3517 75.8411 76.993C75.7893 77.0022 75.7421 77.0281 75.7065 77.0668C75.6357 77.1756 75.5538 77.3083 75.5604 77.4263C75.5644 77.5106 75.6985 77.5942 75.7833 77.6675C75.9889 77.8412 76.2518 77.9766 76.3901 78.1891C76.582 78.4854 76.6816 78.842 76.8057 79.1375C76.6172 79.2396 76.4302 79.3096 76.2906 79.4307C76.1402 79.5607 76.0143 79.7165 75.9186 79.8906C75.5899 80.4923 75.2526 81.0748 74.492 81.2062C74.4751 81.2104 74.4586 81.2159 74.4425 81.2226C73.7068 81.4554 73.1157 81.8706 72.7126 82.544C72.4423 82.9966 72.1248 83.4221 71.8705 83.8829C71.7307 84.1486 71.6336 84.4347 71.583 84.7306C71.4387 85.4807 71.4921 86.2555 71.7381 86.9787C71.7807 87.0989 71.7907 87.2281 71.7672 87.3534C71.5692 88.1819 71.3563 89.0088 71.1513 89.837C71.079 90.1146 71.1046 90.4086 71.2238 90.6696C71.4943 91.2844 71.7382 91.9109 71.9958 92.5318C72.1731 92.9591 72.1842 92.9627 72.6373 92.9404C72.7065 92.9395 72.7757 92.9435 72.8443 92.9522C73.3264 92.9943 73.8111 93.0175 74.2898 93.0841C75.0803 93.1947 75.825 93.0224 76.5479 92.7418C77.0765 92.5364 77.5842 92.279 78.0827 92.0528C78.2405 92.176 78.3888 92.344 78.575 92.4277C78.8896 92.5681 79.2183 92.6212 79.5736 92.4935C79.938 92.3619 80.327 92.2921 80.7031 92.1956C83.4543 91.4896 86.2046 90.782 88.9542 90.0728C89.0851 90.0392 89.2533 89.9627 89.3073 89.8571C89.4294 89.6176 89.4897 89.3466 89.584 89.0637L89.583 89.0618Z" fill="white"/>
<path d="M127.173 70.3987L121.55 71.4418L121.358 70.6956L121.264 70.7027C121.266 70.8965 121.256 71.0911 121.274 71.2834C121.292 71.4757 121.226 71.5425 121.037 71.5911C118.924 72.1292 116.812 72.6767 114.703 73.2338C114.501 73.2855 114.385 73.2779 114.291 73.0803C114.215 72.934 114.126 72.7952 114.024 72.6659C113.982 72.6094 113.911 72.5745 113.853 72.5297L113.795 72.5716L114.006 73.3954L108.654 75.1936C108.635 75.1221 108.612 75.0335 108.59 74.9453C107.85 72.0474 107.109 69.15 106.366 66.2531C106.31 66.0341 106.351 65.9548 106.575 65.8964C108.493 65.3949 110.409 64.8853 112.322 64.3677C112.395 64.344 112.471 64.3376 112.547 64.3491C112.622 64.3606 112.693 64.3896 112.755 64.4339C113.775 65.1028 114.802 65.7608 115.821 66.431C115.979 66.5353 116.116 66.5381 116.3 66.5178C116.796 66.4641 117.023 66.1985 117.179 65.7361C117.482 64.8357 117.858 63.9604 118.191 63.0694C118.256 62.8917 118.353 62.8175 118.531 62.7744C120.525 62.2884 122.517 61.7966 124.507 61.2987C124.732 61.2412 124.84 61.2906 124.899 61.5203C125.494 63.8663 126.094 66.2111 126.698 68.5546C126.856 69.1667 127.013 69.7753 127.173 70.3987Z" fill="white"/>
<path d="M143.05 71.0627C141.543 70.1185 139.876 69.9274 138.18 69.7458C138.381 69.5029 138.57 69.2772 138.753 69.0483C138.97 68.778 139.102 68.4897 138.927 68.1448C138.87 68.0322 138.821 67.8904 138.725 67.8281C138.38 67.6027 138.034 67.3612 137.656 67.2076C136.761 66.8341 135.816 66.5923 134.851 66.4897C134.279 66.4391 133.703 66.5353 133.178 66.7693C132.958 66.865 132.826 66.8311 132.697 66.6534C132.568 66.4757 132.444 66.2794 132.291 66.1183C132.147 65.9613 131.977 65.8293 131.79 65.7275C131.692 65.6785 131.53 65.7222 131.408 65.7609C131.139 65.843 130.891 65.9845 130.683 66.1751C130.365 66.4666 130.273 66.8472 130.489 67.2173C130.57 67.3575 130.575 67.535 130.627 67.6912C130.649 67.7692 130.691 67.84 130.749 67.8966C130.911 68.0332 131.093 68.1482 131.256 68.2838C131.393 68.399 131.525 68.436 131.672 68.3092C131.998 68.0275 132.358 68.1385 132.707 68.233C132.88 68.2809 133.235 69.4837 133.117 69.624C133.045 69.6974 132.947 69.7415 132.844 69.7477C132.329 69.7776 131.81 69.7706 131.296 69.8166C130.771 69.8633 130.253 69.9598 129.731 70.0278C129.216 70.0943 128.701 70.1518 128.156 70.2171L128.086 69.9427C127.695 68.4195 127.299 66.8971 126.913 65.3726C126.57 64.0079 126.246 62.6382 125.897 61.2749C125.836 61.0387 125.901 60.9363 126.118 60.8811C126.797 60.7068 127.477 60.5322 128.156 60.3618C129.297 60.0728 130.44 59.7891 131.579 59.4936C131.753 59.4491 131.88 59.4632 131.989 59.6032C132.217 59.8957 132.447 60.1832 132.673 60.4789C133.219 61.1905 133.759 61.9068 134.311 62.6138C134.464 62.8101 134.479 62.7982 134.761 62.6642C134.707 62.3973 134.665 62.1168 134.591 61.8447C134.366 61.0019 134.126 60.1624 133.897 59.3207C133.806 58.9902 133.861 58.9006 134.184 58.8176C135.869 58.3851 137.556 57.9566 139.24 57.5202C139.479 57.4588 139.583 57.5141 139.645 57.7558C140.767 62.1433 141.893 66.5296 143.022 70.9147C143.034 70.9454 143.035 70.9796 143.05 71.0627Z" fill="white"/>
<path d="M104.178 73.3863C103.758 73.4109 103.37 73.4572 103.201 73.9251C103.172 74.005 103.057 74.0694 102.968 74.1089C102.777 74.19 102.578 74.2503 102.381 74.3164C102.027 74.4358 101.964 74.4078 101.805 74.0602C101.772 73.9902 101.747 73.9172 101.711 73.826C102.03 73.624 102.34 73.4236 102.732 73.431C102.997 73.4356 103.143 73.3131 103.278 73.081C103.469 72.7518 103.558 72.4365 103.473 72.057C103.434 71.887 103.631 71.7003 103.447 71.5125C103.33 71.3932 103.265 71.2231 103.152 71.1019C103.115 71.067 103.071 71.0402 103.023 71.0233C102.975 71.0064 102.924 70.9998 102.873 71.0038C102.783 71.0237 102.689 71.0209 102.599 70.9957C102.51 70.9705 102.428 70.9236 102.362 70.8592C102.3 70.8042 102.094 70.8365 102.006 70.9005C101.791 71.0649 101.59 71.2467 101.404 71.444C101.355 71.4943 101.358 71.5948 101.335 71.6722C101.318 71.7303 101.316 71.8049 101.276 71.8436C101.079 72.041 101.067 72.1806 101.243 72.3941C101.518 72.7276 101.459 72.9032 101.021 72.9631C99.8839 73.1169 98.9028 73.5855 98.0879 74.3882C97.25 75.214 96.8614 76.2594 96.7034 77.3943C96.6301 77.9224 96.8071 78.3756 97.3063 78.6709C97.7377 78.9257 98.1478 79.2165 98.5692 79.4884C98.9163 79.7117 98.9078 79.7622 98.5846 80.0088C97.8671 80.559 97.1271 81.0929 96.4602 81.7025C95.9755 82.1457 95.5932 82.6994 95.1659 83.203C95.1606 83.1824 95.1292 83.1083 95.1096 83.0318C94.0053 78.7286 92.901 74.4257 91.7969 70.1232C91.7064 69.7707 91.7405 69.7131 92.077 69.6252C94.7986 68.9117 97.5191 68.1937 100.242 67.4874C100.897 67.3194 101.556 67.17 102.218 67.0421C102.962 66.8988 103.718 66.8719 104.453 67.0722C104.715 67.1425 104.972 67.3229 105.169 67.5159C105.567 67.9052 105.851 68.3954 105.991 68.9339C106.124 69.4363 106.296 69.9289 106.372 70.4408C106.454 70.9909 106.419 71.5397 106.111 72.0529C105.829 72.5246 105.484 72.9115 105.016 73.2C104.957 73.2362 104.898 73.3958 104.916 73.4131C104.987 73.4793 105.097 73.5551 105.184 73.5471C106.055 73.4669 107.017 73.9152 107.305 74.6521C107.413 74.9292 107.56 75.1916 107.683 75.4488L102.602 77.665C102.621 77.3608 102.395 77.2755 102.136 77.2303C102.119 77.2278 102.102 77.2262 102.085 77.223C100.971 77.0194 100.969 77.0215 100.155 76.2784C100.109 76.2364 100.097 76.1052 100.128 76.0454C100.265 75.7779 100.494 75.6164 100.783 75.5343C101.291 75.3901 101.795 75.2327 102.306 75.0999C102.669 75.0114 103.002 74.8304 103.274 74.5747C103.457 74.3913 103.653 74.2213 103.861 74.066C104.102 73.8925 104.153 73.6573 104.178 73.3863Z" fill="white"/>
<path d="M127.327 70.9993L128.023 73.7133C128.131 74.1318 128.229 74.5532 128.35 74.9681C128.406 75.1603 128.348 75.2219 128.165 75.2688C126.488 75.6992 124.813 76.1352 123.138 76.5771C122.937 76.6287 122.858 76.5712 122.811 76.3765C122.581 75.4159 122.343 74.4626 122.105 73.5068C121.988 73.0387 121.865 72.5717 121.726 72.0319L127.327 70.9993Z" fill="white"/>
<path d="M109.887 79.9373L108.821 75.7816L114.138 73.991L115.307 78.5465L109.887 79.9373Z" fill="white"/>
<path d="M129.437 75.144L128.329 70.8242L130.026 70.6215C130.096 70.6183 130.166 70.6105 130.235 70.598C130.553 70.5163 130.752 70.6623 130.866 70.8907C131.245 70.8422 131.601 70.7659 131.959 70.7593C132.317 70.7528 132.681 70.815 133.056 70.8493C132.985 71.0821 132.968 71.3086 133.162 71.473C133.337 71.6234 133.512 71.5813 133.66 71.3335C133.681 71.4547 133.692 71.5148 133.706 71.5969C134.292 71.4118 134.384 70.6818 134.91 70.5232C135.032 70.736 135.123 70.9349 135.249 71.1091C135.758 71.817 136.276 72.5169 136.813 73.2511L129.437 75.144Z" fill="white"/>
<path d="M114.797 73.8037L121.154 72.1725C121.145 72.2918 121.137 72.3803 121.132 72.4691C121.053 73.8799 120.97 75.2901 120.897 76.7011C120.875 77.1198 120.877 77.1354 120.467 77.2407C119.51 77.4863 118.556 77.7279 117.603 77.9784C117.446 78.0186 117.354 77.9984 117.263 77.8509C116.468 76.5592 115.664 75.273 114.865 73.984C114.837 73.9259 114.815 73.8656 114.797 73.8037Z" fill="white"/>
<path d="M107.812 76.0599C107.934 76.5337 108.041 76.9413 108.143 77.3505C108.359 78.2219 108.567 79.0955 108.79 79.965C108.838 80.1513 108.798 80.2315 108.613 80.2788C107.654 80.5137 106.701 80.7592 105.744 80.9937C104.854 81.2114 103.961 81.4196 103.069 81.6323C102.996 81.6512 102.923 81.6699 102.811 81.6985C102.823 81.6229 102.84 81.5481 102.861 81.4748C103.193 80.6409 103.523 79.8059 103.863 78.9758C104.014 78.6082 103.967 78.4619 103.608 78.3081C103.477 78.2521 103.344 78.1998 103.213 78.1456L103.201 78.0633L107.812 76.0599Z" fill="white"/>
<path d="M139.114 72.6764C138.89 72.5105 138.725 72.363 138.536 72.2541C138.335 72.1382 138.184 72.0058 138.079 71.7877C137.831 71.277 137.501 70.8249 136.916 70.5151C137.094 70.4437 137.224 70.3423 137.347 70.3509C138.911 70.4463 140.467 70.6057 141.931 71.2246C142.227 71.3504 142.503 71.5255 142.787 71.6773L142.765 71.7405L139.114 72.6764Z" fill="white"/>
<path d="M123.991 77.0902L124.549 76.9469C124.671 77.9681 124.792 78.9712 124.911 79.9562C124.885 79.987 124.881 79.9971 124.874 80.0001C124.412 80.1631 124.412 80.1631 124.138 79.7622C123.857 79.3511 123.577 78.94 123.256 78.5481C123.337 79.1434 123.418 79.7408 123.5 80.3467L122.929 80.4931C122.809 79.4824 122.689 78.4778 122.565 77.4436C122.726 77.4025 122.877 77.3743 123.022 77.3264C123.156 77.2791 123.226 77.3322 123.295 77.4384C123.549 77.8277 123.809 78.2139 124.068 78.6004C124.105 78.6549 124.149 78.7048 124.231 78.8142C124.144 78.1968 124.069 77.6546 123.991 77.0902Z" fill="white"/>
<path d="M143.03 73.1634C142.805 73.2083 142.612 73.3931 142.385 73.1599C142.328 73.1006 142.163 73.131 142.051 73.1514C142.017 73.1569 141.963 73.293 141.982 73.3165C142.049 73.3958 142.131 73.4606 142.223 73.5069C142.298 73.5446 142.391 73.5454 142.476 73.5639C143.14 73.7064 143.478 74.3318 143.241 74.9697C143.095 75.3602 142.682 75.5962 142.21 75.5561C141.798 75.5212 141.545 75.2647 141.462 74.7793C141.69 74.7176 141.908 74.5652 142.139 74.8134C142.193 74.8713 142.358 74.8645 142.455 74.8326C142.496 74.8144 142.531 74.7865 142.558 74.7515C142.585 74.7165 142.603 74.6753 142.611 74.6317C142.611 74.565 142.524 74.4639 142.453 74.436C142.285 74.3717 142.103 74.3461 141.928 74.2965C141.439 74.1568 141.162 73.5807 141.319 73.0379C141.448 72.5932 141.972 72.3284 142.449 72.4728C142.78 72.5718 142.928 72.8345 143.03 73.1634Z" fill="white"/>
<path d="M97.7084 86.2351C97.7433 86.5047 97.7703 86.7168 97.7993 86.9407L96.2514 87.3379C96.1164 86.3227 95.9838 85.3247 95.851 84.3138L97.3572 83.9273C97.3875 84.1417 97.4165 84.349 97.4488 84.5774L96.5505 84.8079C96.57 84.9698 96.5871 85.1114 96.6077 85.2838L97.3691 85.0884C97.4003 85.3208 97.427 85.5233 97.4567 85.748L96.7059 85.9407C96.7291 86.121 96.7494 86.2795 96.7748 86.4747L97.7084 86.2351Z" fill="white"/>
<path d="M113.66 79.7403L115.167 79.3536L115.258 80.0059L114.371 80.2335C114.386 80.3906 114.4 80.5316 114.416 80.7051L115.182 80.5085C115.215 80.7491 115.243 80.9554 115.274 81.1827L114.515 81.3774C114.542 81.5561 114.566 81.7136 114.596 81.9035L115.517 81.667C115.553 81.918 115.584 82.1356 115.618 82.3657L114.071 82.7627C114.002 82.2549 113.936 81.7541 113.868 81.2531C113.8 80.7521 113.733 80.2643 113.66 79.7403Z" fill="white"/>
<path d="M131.678 75.1178L133.861 74.5576C133.886 74.7495 133.902 74.9425 133.907 75.136C133.906 75.1901 133.824 75.2734 133.762 75.2968C133.6 75.3494 133.435 75.3937 133.268 75.4295L133.455 77.7917L132.583 78.0155L132.385 75.6592L131.748 75.8228L131.678 75.1178Z" fill="white"/>
<path d="M104.549 82.0764L105.237 81.8996C105.472 82.4734 105.702 83.0373 105.932 83.5997L105.984 83.5934C106.015 83.1561 106.047 82.7176 106.081 82.2779C106.083 82.2348 106.085 82.1915 106.088 82.1489C106.124 81.6309 106.124 81.6309 106.671 81.5329C106.671 81.6097 106.675 81.6821 106.669 81.7534C106.594 82.6737 106.511 83.5925 106.442 84.5134C106.429 84.6869 106.376 84.7841 106.194 84.803C106.09 84.8142 105.993 84.8707 105.89 84.8719C105.816 84.872 105.698 84.8325 105.675 84.7785C105.298 83.9178 104.932 83.052 104.565 82.187C104.556 82.1509 104.55 82.1138 104.549 82.0764Z" fill="white"/>
<path d="M95.7576 83.5381C96.1894 82.7108 97.8151 81.136 98.639 80.7533C98.6028 80.9574 98.5518 81.1476 98.5395 81.3402C98.5241 81.5857 98.567 81.8366 98.5358 82.0786C98.5007 82.3479 98.4141 82.6106 98.3397 82.8728C98.3297 82.907 98.2593 82.9337 98.2124 82.9457C97.4168 83.1499 96.621 83.3532 95.8249 83.5557C95.8123 83.559 95.7955 83.5477 95.7576 83.5381Z" fill="white"/>
<path d="M101.588 79.8775C101.401 80.2475 101.225 80.5737 101.068 80.9087C100.93 81.2061 100.838 81.4991 100.98 81.8464C101.146 82.2541 101.06 82.3705 100.633 82.4823L100.261 82.5778C100.256 82.498 100.236 82.437 100.252 82.3873C100.387 81.9608 100.511 81.5297 100.677 81.1133C100.773 80.862 100.829 80.6314 100.732 80.3676C100.654 80.1588 100.926 79.6629 101.141 79.661C101.285 79.66 101.432 79.7973 101.588 79.8775Z" fill="white"/>
<path d="M82.8421 83.3193C82.8432 83.3238 82.8291 83.2689 82.8207 83.2174C84.06 82.9831 85.8241 82.876 86.113 83.0273L85.754 83.1194L86.4498 83.4631L86.1051 83.6089L86.7815 83.9924C86.5042 84.2692 86.2118 84.3367 85.8979 84.362C85.1836 84.4186 84.4693 84.4774 83.7558 84.5478C83.5857 84.5646 83.4227 84.6451 83.2503 84.6695C82.9816 84.7078 82.9484 84.9842 83.1477 85.1252C83.3207 85.2471 83.5276 85.3212 83.7206 85.4145C83.7681 85.4312 83.8132 85.4543 83.8546 85.4831C83.3989 85.5561 82.9589 85.5085 82.5542 85.2887C82.409 85.2101 82.3269 85.2397 82.2167 85.3351C81.5252 85.922 80.8284 86.5029 80.1331 87.0854C80.0615 87.1451 79.9859 87.1999 79.8649 87.2954C80.2483 86.4113 81.1746 86.0786 81.6176 85.3305L81.5618 85.2595C81.2119 85.4373 80.8394 85.5817 80.5151 85.7965C79.0209 86.7923 77.5451 87.8177 76.0512 88.8124C75.413 89.237 74.7471 89.6204 74.0839 90.0058C73.9438 90.0874 73.7598 90.096 73.5382 90.1528C73.6048 89.9941 73.6467 89.8771 73.703 89.7681C74.1794 88.8408 74.9063 88.1283 75.7019 87.4808C77.1492 86.3044 78.7575 85.3748 80.3782 84.4641C80.7468 84.2568 81.1005 83.9846 81.4977 83.8762C81.7987 83.7942 81.9457 83.5595 82.1906 83.4558C82.3856 83.3747 82.6112 83.3651 82.8421 83.3193Z" fill="white"/>
<path d="M90.8904 80.9577C89.8468 79.961 88.777 79.0194 87.2825 78.753C87.692 79.0665 88.0777 79.3964 88.238 79.9853C87.5264 79.4649 86.7865 79.198 85.9107 79.1694C86.4082 79.6815 86.8902 80.1525 86.8982 80.9512C86.1784 80.4194 85.4387 80.028 84.5098 79.939C84.6403 79.6736 84.7551 79.4413 84.8842 79.1806L84.2935 79.3322C84.7302 80.6156 85.3332 81.7795 86.3018 82.7347L86.2553 82.7772C86.1007 82.6393 85.9286 82.5165 85.7937 82.359C84.8257 81.2345 84.2674 79.9062 83.8884 78.49C83.8467 78.3273 83.8052 78.1845 83.5757 78.2482C83.6294 79.3212 83.4856 80.3483 82.7569 81.2084C82.201 81.8636 81.4631 82.2155 80.642 82.379C78.332 82.8393 77.3764 81.7047 76.5512 79.9027C76.3572 79.9836 76.4118 80.0834 76.5063 80.2153C77.4389 81.5174 77.7106 82.959 77.4023 84.5205C77.3893 84.5789 77.3719 84.6363 77.3503 84.6922C77.3461 84.7029 77.3215 84.7054 77.2495 84.7363C77.5757 83.2405 77.3972 81.8485 76.5696 80.5099L76.0747 81.0662L76.7436 81.1629L76.7319 81.2346L76.2101 81.4077L76.9041 81.8887C76.1467 82.4115 75.6775 83.0949 75.3283 83.8736C75.0382 83.5987 75.033 83.2898 75.2903 81.9019C74.551 82.3358 74.0288 82.9341 73.6537 83.7312C73.5219 83.1382 73.6846 82.6574 73.9106 82.183C72.7131 83.1343 72.2328 84.4919 71.8168 85.8868C71.8131 85.1487 71.7876 84.4135 72.2537 83.7701C72.5374 83.378 72.7995 82.9688 73.0562 82.5595C73.3705 82.0607 73.8186 81.7531 74.3672 81.5591C74.855 81.3873 75.3329 81.1873 75.8437 80.9881L75.6616 80.8201C75.9485 80.3987 76.2359 79.9751 76.5611 79.4961C76.92 80.5284 77.3891 81.4089 78.3001 81.9598C79.2372 82.5243 80.2181 82.44 81.2045 82.1069C82.8404 81.5546 83.6106 80.0823 83.3826 77.8931C83.582 77.9777 83.7607 78.051 83.9366 78.1298C83.9995 78.1568 84.0585 78.192 84.1122 78.2345C84.7187 78.7304 85.4003 78.6339 86.0933 78.4984C86.3816 78.4421 86.6773 78.4296 86.9689 78.3907C87.2862 78.344 87.6101 78.3968 87.896 78.5419C88.5487 78.8789 89.2072 79.2069 89.8432 79.5728C90.3028 79.837 90.5062 80.3328 90.7835 80.7565C90.8253 80.8209 90.8551 80.8911 90.8904 80.9577ZM84.7107 78.8602L84.0769 78.6659C84.151 78.9003 84.2072 79.0774 84.2652 79.2617L84.7107 78.8602Z" fill="white"/>
<path d="M78.521 74.1304C78.3779 73.6084 78.5471 73.1866 78.8291 72.7606C78.4283 72.7088 78.0983 72.8408 77.7798 73.0052C76.7324 73.5396 76.1149 74.7162 76.2485 75.9206C76.2786 76.1777 76.3261 76.4325 76.3905 76.6833C76.4524 76.9245 76.541 77.1588 76.618 77.3961L76.5546 77.4333C76.4185 77.1811 76.2216 76.9429 76.1585 76.6763C75.9934 75.9756 76.006 75.2447 76.1952 74.5501C76.6436 72.8652 79.0388 71.8545 80.6006 73.1029C81.5451 73.8551 82.1337 74.8123 82.2998 76.0244C82.3433 76.3444 82.4949 76.6485 82.5777 76.9648C82.607 77.0791 82.6194 77.2257 82.5728 77.3267C82.3771 77.7499 82.1695 78.1687 81.9392 78.574C81.7715 78.8542 81.675 79.1712 81.6582 79.4973C81.649 79.7294 81.6068 79.9602 81.5886 80.1925C81.5848 80.2423 81.6113 80.331 81.641 80.34C81.703 80.3527 81.7675 80.3404 81.8206 80.3057C81.9235 80.2342 82.0131 80.1442 82.1533 80.1028C81.8215 80.5519 81.5079 81.0155 81.1522 81.4449C80.8924 81.7585 80.2483 81.8443 79.878 81.6646C79.6935 81.5729 79.5186 81.4498 79.3255 81.377C78.9631 81.243 78.8348 80.948 78.7717 80.5869C78.8742 80.6915 78.9728 80.8036 79.0804 80.8989C79.164 80.9845 79.2606 81.0564 79.3664 81.1121C79.6527 81.2404 79.9262 81.3715 80.2525 81.137C80.4266 81.0123 80.6892 81.0109 80.9728 80.9382L81.1221 80.2945C80.5134 80.2231 80.0272 80.6291 79.4776 80.5517L79.463 80.4739C80.0264 80.3293 80.5885 80.177 81.1551 80.0445C81.3217 80.0055 81.413 79.9305 81.4475 79.7682C81.4821 79.6058 81.5381 79.4519 81.5611 79.2904C81.6166 78.9004 81.4492 78.7185 81.0536 78.7374C80.901 78.7449 80.7494 78.7752 80.5768 78.7406C80.6324 78.704 80.692 78.6739 80.7545 78.651C80.8301 78.6318 80.9087 78.6271 80.9861 78.6372C81.5026 78.7134 81.8123 78.4643 82.0619 78.0358C82.1351 77.916 82.1839 77.7829 82.2056 77.6442C82.2273 77.5055 82.2214 77.3638 82.1883 77.2274C82.0274 77.3449 81.8823 77.4782 81.7131 77.5677C81.5326 77.6547 81.341 77.7167 81.1437 77.752C81.4544 77.5445 81.6098 77.1064 82.0794 77.171C82.2639 75.6209 81.5261 73.7413 79.9469 73.0442C80.32 73.6199 80.6003 74.1786 80.2708 74.8733C79.8076 74.3251 79.2925 73.9431 78.521 74.1304Z" fill="white"/>
<path d="M91.3526 83.8189C90.5384 83.6618 89.7312 83.5657 88.9033 83.7068C89.2292 83.7493 89.5555 83.7868 89.8804 83.8355C90.0936 83.8672 90.3149 83.885 90.5109 83.9667C90.6206 84.0116 90.6844 84.168 90.7695 84.276C90.6516 84.3434 90.5341 84.4669 90.4154 84.4689C89.8367 84.4789 89.2572 84.4312 88.6801 84.4537C88.1673 84.4737 87.6574 84.5595 87.1464 84.6536C88.9397 84.7982 90.6235 85.2984 92.2378 86.0509L92.2236 86.1211C91.8949 86.0552 91.5662 85.9876 91.2369 85.9235C91.1278 85.9021 91.0153 85.8655 90.908 85.8758C89.6404 85.9956 88.4056 85.8123 87.1921 85.4694C86.7558 85.3463 86.3405 85.2881 85.8992 85.4508C85.5936 85.563 85.305 85.4653 84.9759 85.2224L87.0023 84.3347L86.7976 84.2542C87.2529 83.9529 87.7653 83.7484 88.3029 83.6532C89.0067 83.5262 89.7217 83.4533 90.4353 83.3877C90.8058 83.3506 91.1162 83.5248 91.3526 83.8189Z" fill="white"/>
<path d="M72.7414 87.9822L72.7182 86.8461C72.3424 87.2409 72.2333 87.6902 72.3175 88.1898C72.3672 88.4878 72.4487 88.7803 72.5023 89.0773C72.5572 89.3852 72.1588 89.9012 71.8488 89.925C71.7741 89.9307 71.6959 89.8896 71.6032 89.8651C71.5924 90.2451 71.6708 90.6224 71.8322 90.9667C71.971 91.2803 72.0938 91.6008 72.1999 91.9269C72.3012 92.2401 72.4354 92.3532 72.7322 92.2148C73.4513 91.88 74.1551 91.5105 74.8643 91.1535C74.9556 91.1076 75.0432 91.0539 75.1401 91.0006C75.1433 91.0256 75.1512 91.0439 75.1458 91.048C74.4038 91.6431 73.6524 92.2245 72.7675 92.5992C72.4209 92.7461 72.3945 92.7271 72.2545 92.3884C72.0052 91.7831 71.7439 91.1831 71.498 90.5764C71.4396 90.4304 71.3749 90.2473 71.4091 90.1044C71.6654 89.0242 71.7729 87.9039 72.2753 86.8895C72.6441 86.1454 73.0955 85.4634 73.7692 84.9599C73.9723 84.8079 74.2151 84.7021 74.4516 84.6033C74.6248 84.5315 74.7548 84.628 74.745 84.8114C74.7319 85.0493 74.7237 85.3037 74.633 85.5169C74.3152 86.2613 73.8888 86.9359 73.2473 87.4563C73.0816 87.5906 72.9485 87.7643 72.7414 87.9822Z" fill="white"/>
<path d="M92.9164 84.3015C92.716 84.514 92.4611 84.5311 92.2682 84.2854C92.0842 84.0372 91.9309 83.7677 91.8116 83.4827C91.5624 82.9198 91.1845 82.5031 90.6046 82.2848C90.7045 82.5276 90.8046 82.7734 90.9219 83.0589C90.3352 83.0232 89.8297 83.0172 89.3924 82.7C88.9246 82.3618 88.4391 82.0468 87.9831 81.6942C87.8666 81.6044 87.8325 81.4108 87.7595 81.2621C87.916 81.2048 88.0701 81.1067 88.2291 81.0971C88.8872 81.0575 89.4893 81.2766 90.0659 81.5617C90.9878 82.0169 91.7431 82.6786 92.387 83.4746C92.6217 83.7616 92.9009 84.013 93.1178 84.3105C93.262 84.5 93.3596 84.7207 93.4029 84.9549C93.5018 85.6186 93.5397 86.291 93.634 86.9554C93.6739 87.2366 93.5524 87.33 93.3227 87.3278C92.6935 87.3208 92.0642 87.3094 91.4364 87.2725C91.0915 87.2458 90.7504 87.1822 90.419 87.0828C90.9481 87.0785 91.4779 87.0847 92.0065 87.0677C92.3862 87.057 92.7651 87.0271 93.1417 86.9782C93.4386 86.9385 93.5014 86.7925 93.4482 86.4991C93.3839 86.1536 93.3374 85.8049 93.3089 85.4545C93.2855 85.0891 93.1411 84.6104 92.9164 84.3015Z" fill="white"/>
<path d="M81.3006 87.1506C80.5447 88.7018 79.6159 90.1354 78.4076 91.3541C77.6025 92.1635 76.5388 92.5153 75.4467 92.7623C75.2833 92.7994 75.1152 92.8157 74.9491 92.8417L74.9277 92.771C75.0387 92.714 75.1438 92.628 75.2607 92.6045C76.6498 92.3204 77.7827 91.6004 78.692 90.5507C79.295 89.8534 79.8002 89.0716 80.3587 88.3347C80.6629 87.9325 80.9863 87.5447 81.3006 87.1506Z" fill="white"/>
<path d="M74.3476 87.3732L73.3083 87.9244L73.2646 87.8755C73.4301 87.7257 73.5781 87.5476 73.7656 87.4329C74.5436 86.9553 75.4218 86.8324 76.3206 86.7772C75.969 87.0237 75.6136 87.2662 75.2656 87.5182C74.6797 87.9417 74.1682 88.4706 73.5109 88.7933C73.3292 88.8824 73.1134 89.0789 72.9536 88.8827C72.7775 88.667 73.0112 88.4799 73.17 88.3479C73.4795 88.0897 73.816 87.8574 74.1409 87.6157L74.3804 87.434L74.3476 87.3732Z" fill="white"/>
<path d="M91.3412 88.5421C90.5223 88.8543 89.7552 88.8456 88.9948 88.6913C88.3108 88.5523 87.6351 88.3683 86.963 88.1796C86.2105 87.9664 85.4614 87.7266 84.7148 87.4609C84.8554 87.4732 85 87.4677 85.1351 87.5007C85.9648 87.701 86.7939 87.8994 87.6191 88.1202C88.3528 88.3167 89.074 88.5776 89.8476 88.5385C90.2752 88.5168 90.6979 88.3863 91.1295 88.5015C91.1761 88.5137 91.2243 88.5195 91.3412 88.5421Z" fill="white"/>
<path d="M77.305 77.5687C77.2405 77.7859 77.1854 77.975 77.1237 78.1777C77.0704 77.8028 77.0173 77.4536 76.9748 77.1081C76.9673 77.0478 76.9814 76.954 77.0207 76.9273C77.06 76.9006 77.149 76.9255 77.2056 76.9512C77.3151 77.0016 77.4202 77.0611 77.5196 77.1293C77.9437 77.4225 78.3965 77.5011 78.8953 77.3511C79.12 77.2837 79.2838 77.4387 79.245 77.6682C79.236 77.7188 79.1505 77.7767 79.0894 77.794C78.7834 77.892 78.4547 77.8933 78.1479 77.7978C77.8782 77.7109 77.6018 77.6481 77.305 77.5687Z" fill="white"/>
<path d="M80.0545 77.6067C79.7275 77.2613 79.733 77.1906 80.0938 76.9671C80.1229 76.9489 80.1505 76.9268 80.1809 76.9115C80.6139 76.6995 80.9841 76.4188 81.2234 75.9876C81.2678 75.9075 81.341 75.8436 81.4353 75.7319C81.5416 75.8598 81.6466 75.9573 81.716 76.0753C81.8127 76.2426 81.7757 76.3557 81.5624 76.4115C81.4151 76.452 81.2783 76.5237 81.1612 76.6218C80.789 76.9384 80.4303 77.2704 80.0545 77.6067Z" fill="white"/>
<path d="M76.5153 85.5378L76.7696 85.2444C76.7439 85.09 76.7253 84.9778 76.7067 84.8634C76.8105 84.8497 76.9248 84.8015 77.0194 84.8272C77.5322 84.9639 78.0414 85.1225 78.5827 85.2847C78.4434 85.3693 78.3265 85.4471 78.2029 85.5131C78.1556 85.5382 78.0762 85.5634 78.0442 85.541C77.7182 85.3166 77.3761 85.4623 77.0399 85.4885C76.8892 85.4993 76.7392 85.5152 76.5153 85.5378Z" fill="white"/>
<path d="M77.1458 78.8508C77.191 78.6841 77.2908 78.5941 77.5104 78.6842C77.9225 78.8533 78.3414 78.9003 78.7687 78.7247C78.8338 78.6983 78.9195 78.7225 79.0093 78.7778L78.3062 79.3446L77.1458 78.8508Z" fill="white"/>
<path d="M80.0223 78.1875C80.1207 78.3927 80.1968 78.5552 80.276 78.7132C80.2981 78.7575 80.325 78.8269 80.3604 78.8329C80.7195 78.8986 80.5848 79.0438 80.4288 79.2021C80.3762 79.2564 80.3619 79.36 80.3053 79.3949C80.1852 79.4687 80.0457 79.5555 79.9168 79.5553C79.7556 79.5553 79.5971 79.4714 79.4434 79.4254L79.733 79.1867C79.7541 79.2167 79.7693 79.2633 79.801 79.2799C79.8863 79.3236 79.9818 79.3882 80.0651 79.3776C80.1113 79.3716 80.1787 79.2281 80.1688 79.1538C80.1359 78.8497 80.0786 78.5447 80.0223 78.1875Z" fill="white"/>
<path d="M82.5472 91.4272C81.9963 91.5686 81.447 91.716 80.8925 91.8433C80.8245 91.8607 80.6839 91.7857 80.6582 91.7209C80.582 91.5263 80.5469 91.3181 80.5549 91.1093C80.5942 91.1684 80.6383 91.2253 80.6725 91.2873C80.8215 91.5459 81.0451 91.6747 81.3403 91.635C81.7455 91.5846 82.1479 91.5152 82.5514 91.454L82.5472 91.4272Z" fill="white"/>
<path d="M85.2918 89.9025C85.3435 90.1039 85.4131 90.3061 85.438 90.5122C85.4454 90.5763 85.3467 90.6999 85.2766 90.7195C84.731 90.8734 84.1806 91.0082 83.6409 91.1704C84.0146 91.0369 84.3895 90.9085 84.7612 90.7691C85.1563 90.621 85.2491 90.2966 85.2202 89.908L85.2918 89.9025Z" fill="white"/>
<path d="M89.2299 89.2277C89.1411 89.7397 89.0533 89.8209 88.5808 89.8442C88.6443 89.6218 88.7069 89.4023 88.7787 89.1476L89.2299 89.2277Z" fill="white"/>
<path d="M81.0075 79.6403L79.6064 80.1132L79.5704 80.0209C79.7029 79.974 79.8362 79.9307 79.9665 79.8795C80.1526 79.807 80.3712 79.7671 80.5127 79.6421C80.6689 79.5037 80.7802 79.4999 81.0075 79.6403Z" fill="white"/>
<path d="M78.6065 92.1158L79.3664 91.9606C79.3604 92.0526 79.3889 92.1847 79.34 92.2268C79.2911 92.269 79.1593 92.2484 79.0666 92.2373C78.9098 92.2177 78.755 92.1848 78.5994 92.1575L78.6065 92.1158Z" fill="white"/>
<path d="M86.8566 90.3799C86.7839 90.2307 86.7451 90.155 86.7095 90.077L87.4475 89.8451C87.4577 89.8575 87.4675 89.8706 87.4777 89.8831L86.8566 90.3799Z" fill="white"/>
<path d="M87.1631 83.6821C86.8122 83.7302 86.6657 83.4615 86.4847 83.247L86.5298 83.1751L87.2072 83.6084L87.1631 83.6821Z" fill="white"/>
<path d="M76.3182 77.6923L75.8547 77.3544C76.0172 77.197 76.1869 77.3068 76.3182 77.6923Z" fill="white"/>
<path d="M76.2427 85.6319L76.4558 85.0234C76.646 85.3432 76.3237 85.4545 76.2427 85.6319Z" fill="white"/>
<path d="M82.5019 76.0897C82.4548 75.6966 82.525 75.5672 82.7565 75.5739L82.5019 76.0897Z" fill="white"/>
<path d="M86.0935 140.751L145.607 125.828" stroke="black" stroke-width="2" stroke-linecap="round"/>
<path d="M87.7357 147.394L158.687 129.59" stroke="black" stroke-width="2" stroke-linecap="round"/>
<path fill-rule="evenodd" clip-rule="evenodd" d="M230.03 3.7505L235.332 8.93465C238.871 12.3928 233.731 20.2126 232.801 25.4484C232.528 26.9888 232.613 28.307 233.397 29.2242L228.107 24.0522C225.342 20.8457 231.12 12.6904 231.254 7.25041C231.29 5.86534 230.958 4.65393 230.03 3.7505Z" fill="url(#paint2_linear_126_118851)"/>
<path fill-rule="evenodd" clip-rule="evenodd" d="M34.2039 176.291C35.1748 177.792 36.4905 178.298 38.6742 179.057C40.1413 174.235 43.1474 169.554 47.1283 164.463C45.3996 163.767 44.5057 162.918 43.3303 161.237C38.8002 166.377 36.7091 169.642 34.2039 176.291Z" fill="url(#paint3_linear_126_118851)"/>
<path fill-rule="evenodd" clip-rule="evenodd" d="M14.9884 154.424L20.2965 157.727L20.3008 157.729L20.9124 158.112L20.9253 158.119C21.0976 158.216 21.2742 158.305 21.4595 158.387C26.6323 160.607 31.5721 155.113 35.6525 152.615C40.7213 149.011 46.8472 147.007 51.8478 148.249C52.8349 148.498 53.7808 148.871 54.666 149.387L49.022 145.861C43.6681 142.757 36.0841 144.772 30.0063 149.094C26.5329 151.222 22.4329 155.519 18.1004 155.375C17.3456 155.351 16.5846 155.19 15.8155 154.862C15.5225 154.736 15.2511 154.589 14.9884 154.424Z" fill="url(#paint4_linear_126_118851)"/>
<path fill-rule="evenodd" clip-rule="evenodd" d="M253.472 8.42138L247.646 8.60147C245.676 15.0207 238.627 31.2461 230.033 34.6845C229.064 35.0727 228.081 35.299 227.08 35.3288L232.906 35.1487C242.802 34.8412 251.277 15.565 253.472 8.42138Z" fill="url(#paint5_linear_126_118851)"/>
<defs>
<linearGradient id="paint0_linear_126_118851" x1="165.174" y1="40.7226" x2="171.322" y2="43.6415" gradientUnits="userSpaceOnUse">
<stop stop-color="#344F9F"/>
<stop offset="0.34902" stop-color="#50A8DD"/>
<stop offset="0.521569" stop-color="#55C9ED"/>
<stop offset="0.709804" stop-color="#50A8DD"/>
<stop offset="1" stop-color="#344F9F"/>
</linearGradient>
<linearGradient id="paint1_linear_126_118851" x1="114.501" y1="54.6178" x2="117.331" y2="65.3815" gradientUnits="userSpaceOnUse">
<stop stop-color="#D93438"/>
<stop offset="0.329412" stop-color="#EF464E"/>
<stop offset="0.509804" stop-color="#F2787C"/>
<stop offset="0.670588" stop-color="#EF464E"/>
<stop offset="1" stop-color="#C73538"/>
</linearGradient>
<linearGradient id="paint2_linear_126_118851" x1="225.262" y1="20.8021" x2="238.162" y2="12.1667" gradientUnits="userSpaceOnUse">
<stop stop-color="#344F9F"/>
<stop offset="0.478431" stop-color="#50A8DD"/>
<stop offset="0.568627" stop-color="#50A8DD"/>
<stop offset="1" stop-color="#344F9F"/>
</linearGradient>
<linearGradient id="paint3_linear_126_118851" x1="36.2851" y1="168.069" x2="43.9766" y2="171.911" gradientUnits="userSpaceOnUse">
<stop stop-color="#344F9F"/>
<stop offset="0.34902" stop-color="#50A8DD"/>
<stop offset="0.521569" stop-color="#55C9ED"/>
<stop offset="0.709804" stop-color="#50A8DD"/>
<stop offset="1" stop-color="#344F9F"/>
</linearGradient>
<linearGradient id="paint4_linear_126_118851" x1="28.6366" y1="162.9" x2="40.8638" y2="141.217" gradientUnits="userSpaceOnUse">
<stop stop-color="#AC4937"/>
<stop offset="0.470588" stop-color="#FFC82A"/>
<stop offset="0.588235" stop-color="#FFC82A"/>
<stop offset="1" stop-color="#AC4937"/>
</linearGradient>
<linearGradient id="paint5_linear_126_118851" x1="243.379" y1="30.1551" x2="235.791" y2="11.1588" gradientUnits="userSpaceOnUse">
<stop stop-color="#314231"/>
<stop offset="0.470588" stop-color="#28AC54"/>
<stop offset="0.6" stop-color="#28AC54"/>
<stop offset="1" stop-color="#314231"/>
</linearGradient>
</defs>
</svg>
