<svg width="20" height="20" viewBox="0 0 20 20" fill="none" xmlns="http://www.w3.org/2000/svg">
<path fill-rule="evenodd" clip-rule="evenodd" d="M6.32855 11.229V17.5886C6.32855 17.913 6.57568 18.2029 6.90666 18.2029H12.3268C12.6579 18.2029 12.905 17.913 12.905 17.5886V11.229C12.905 11.037 12.8675 10.8935 12.7714 10.7845C12.6917 10.694 12.5522 10.5786 12.399 10.5786H6.83438C6.56828 10.5786 6.32855 10.8488 6.32855 11.229Z" fill="white"/>
<path fill-rule="evenodd" clip-rule="evenodd" d="M5.0636 4.2189C5.0636 4.62874 5.47807 4.82672 5.72312 5.07698C5.83298 5.18903 5.87472 5.21517 5.99233 5.31347L7.05094 6.27852C7.00584 6.82065 6.61727 8.37849 6.61727 8.98851C6.61727 9.15042 6.82035 9.45826 7.19549 9.45826C7.32259 9.45826 7.70236 9.24744 7.82136 9.18083L9.6165 8.26586C9.8102 8.26586 11.6974 9.49446 12.0736 9.49446C12.24 9.49446 12.3857 9.44577 12.482 9.36089C12.8234 9.05998 12.6608 8.79805 12.5742 8.27106C12.5336 8.0237 12.4802 7.74349 12.4396 7.50238C12.2614 6.44319 12.1289 6.45406 12.462 6.12483C12.6163 5.97241 12.7418 5.84485 12.8951 5.69081L13.3653 5.25773C13.6511 4.97197 14.1694 4.55461 14.1694 4.25498C14.1694 3.58424 13.5118 3.64114 12.8994 3.53752L11.5835 3.33584C11.0439 3.25107 11.2344 3.3274 10.6882 2.24382L10.1946 1.21967C10.0088 0.845219 9.72752 0.590802 9.29015 0.857246C9.16352 0.934496 9.139 1.01429 9.07413 1.14705L8.07716 3.18539C7.97516 3.34983 7.60163 3.34463 7.27829 3.3984L5.51877 3.6623C5.26008 3.72891 5.0636 3.9099 5.0636 4.2189Z" fill="white"/>
<path fill-rule="evenodd" clip-rule="evenodd" d="M0.908386 13.6138V17.6969C0.908386 17.8592 1.03687 18.0052 1.13412 18.0855C1.28041 18.2062 1.37524 18.2055 1.63047 18.2033L5.38901 18.2029C5.34379 18.1086 5.28054 17.8421 5.28054 17.6969V13.144H1.37813C1.15656 13.144 0.908386 13.3922 0.908386 13.6138Z" fill="white"/>
<path fill-rule="evenodd" clip-rule="evenodd" d="M13.9528 17.6969C13.9528 17.842 13.8895 18.1086 13.8444 18.2028L17.5664 18.2031C17.8223 18.2047 17.9254 18.2189 18.0792 18.1015C18.1825 18.0228 18.325 17.8658 18.325 17.6969V14.3726C18.325 14.0612 18.0574 13.8306 17.7468 13.8306H13.9528V17.6969Z" fill="white"/>
</svg>
