<svg width="45" height="45" viewBox="0 0 45 45" fill="none" xmlns="http://www.w3.org/2000/svg">
<rect width="45" height="45" rx="22.5" fill="#CC0000"/>
<path d="M26.4501 15.4662L18.9251 17.9662C13.8668 19.6579 13.8668 22.4162 18.9251 24.0995L21.1584 24.8412L21.9001 27.0745C23.5834 32.1329 26.3501 32.1329 28.0334 27.0745L30.5418 19.5579C31.6584 16.1829 29.8251 14.3412 26.4501 15.4662ZM26.7168 19.9495L23.5501 23.1329C23.4251 23.2579 23.2668 23.3162 23.1084 23.3162C22.9501 23.3162 22.7918 23.2579 22.6668 23.1329C22.4251 22.8912 22.4251 22.4912 22.6668 22.2495L25.8334 19.0662C26.0751 18.8245 26.4751 18.8245 26.7168 19.0662C26.9584 19.3079 26.9584 19.7079 26.7168 19.9495Z" fill="white"/>
</svg>
