<svg width="41" height="41" viewBox="0 0 41 41" fill="none" xmlns="http://www.w3.org/2000/svg">
<path d="M20.0469 40.3611C31.0926 40.3611 40.0469 31.4068 40.0469 20.3611C40.0469 9.31538 31.0926 0.361084 20.0469 0.361084C9.00119 0.361084 0.046875 9.31538 0.046875 20.3611C0.046875 31.4068 9.00119 40.3611 20.0469 40.3611Z" fill="white"/>
<path d="M29.3957 21.1363C29.3957 20.3846 29.3347 19.836 29.2027 19.2671H20.6183V22.6602H25.6572C25.5556 23.5034 25.007 24.7732 23.7879 25.6266L23.7708 25.7402L26.485 27.8428L26.6731 27.8616C28.4001 26.2666 29.3957 23.9199 29.3957 21.1363Z" fill="#4285F4"/>
<path d="M20.6188 30.0755C23.0874 30.0755 25.1598 29.2627 26.6735 27.8608L23.7884 25.6258C23.0163 26.1642 21.98 26.5401 20.6188 26.5401C18.201 26.5401 16.1489 24.9452 15.4173 22.7407L15.3101 22.7498L12.4878 24.934L12.4509 25.0366C13.9544 28.0233 17.0428 30.0755 20.6188 30.0755Z" fill="#34A853"/>
<path d="M15.4171 22.741C15.2241 22.1721 15.1124 21.5625 15.1124 20.9327C15.1124 20.3028 15.2241 19.6933 15.407 19.1244L15.4018 19.0032L12.5442 16.7839L12.4507 16.8284C11.831 18.0678 11.4755 19.4596 11.4755 20.9327C11.4755 22.4057 11.831 23.7975 12.4507 25.0369L15.4171 22.741Z" fill="#FBBC05"/>
<path d="M20.6188 15.3246C22.3356 15.3246 23.4937 16.0662 24.1541 16.686L26.7344 14.1665C25.1497 12.6935 23.0874 11.7893 20.6188 11.7893C17.0428 11.7893 13.9544 13.8414 12.4509 16.8281L15.4072 19.1241C16.1489 16.9196 18.201 15.3246 20.6188 15.3246Z" fill="#EB4335"/>
</svg>
