<svg width="388" height="17" viewBox="0 0 388 17" fill="none" xmlns="http://www.w3.org/2000/svg">
<path d="M152.863 13.2455C152.172 13.2455 151.528 13.1195 150.931 12.8675C150.333 12.6061 149.811 12.2468 149.363 11.7895C148.915 11.3228 148.565 10.7861 148.313 10.1795C148.07 9.5728 147.949 8.92414 147.949 8.23347C147.949 7.53347 148.07 6.8848 148.313 6.28747C148.565 5.6808 148.91 5.1488 149.349 4.69147C149.797 4.23414 150.315 3.87947 150.903 3.62747C151.5 3.37547 152.144 3.24947 152.835 3.24947C153.525 3.24947 154.165 3.37547 154.753 3.62747C155.35 3.87947 155.873 4.23414 156.321 4.69147C156.769 5.1488 157.119 5.6808 157.371 6.28747C157.623 6.89414 157.749 7.54747 157.749 8.24747C157.749 8.93814 157.623 9.5868 157.371 10.1935C157.119 10.8001 156.769 11.3321 156.321 11.7895C155.882 12.2468 155.364 12.6061 154.767 12.8675C154.179 13.1195 153.544 13.2455 152.863 13.2455ZM152.835 11.9855C153.535 11.9855 154.146 11.8268 154.669 11.5095C155.201 11.1828 155.621 10.7395 155.929 10.1795C156.237 9.61014 156.391 8.96147 156.391 8.23347C156.391 7.69214 156.302 7.19747 156.125 6.74947C155.947 6.29214 155.7 5.89547 155.383 5.55947C155.065 5.22347 154.692 4.9668 154.263 4.78947C153.833 4.6028 153.357 4.50947 152.835 4.50947C152.144 4.50947 151.533 4.66814 151.001 4.98547C150.478 5.3028 150.063 5.74147 149.755 6.30147C149.456 6.86147 149.307 7.50547 149.307 8.23347C149.307 8.7748 149.391 9.2788 149.559 9.74547C149.736 10.2028 149.979 10.5995 150.287 10.9355C150.604 11.2621 150.977 11.5188 151.407 11.7055C151.845 11.8921 152.321 11.9855 152.835 11.9855ZM159.33 13.1055V6.45547H160.59V13.1055H159.33ZM160.59 9.31147L160.114 9.10147C160.114 8.25214 160.31 7.57547 160.702 7.07147C161.094 6.56747 161.659 6.31547 162.396 6.31547C162.732 6.31547 163.035 6.37614 163.306 6.49747C163.577 6.60947 163.829 6.8008 164.062 7.07147L163.236 7.92547C163.096 7.77614 162.942 7.6688 162.774 7.60347C162.606 7.53814 162.41 7.50547 162.186 7.50547C161.719 7.50547 161.337 7.6548 161.038 7.95347C160.739 8.25214 160.59 8.7048 160.59 9.31147ZM168.331 13.1055V3.38947H169.647V13.1055H168.331ZM169.227 13.1055V11.9015H174.435V13.1055H169.227ZM178.583 13.2455C177.929 13.2455 177.341 13.0915 176.819 12.7835C176.296 12.4755 175.881 12.0601 175.573 11.5375C175.265 11.0055 175.111 10.4128 175.111 9.75947C175.111 9.11547 175.265 8.5368 175.573 8.02347C175.881 7.5008 176.296 7.08547 176.819 6.77747C177.341 6.46947 177.929 6.31547 178.583 6.31547C179.227 6.31547 179.81 6.46947 180.333 6.77747C180.865 7.07614 181.285 7.4868 181.593 8.00947C181.901 8.53214 182.055 9.11547 182.055 9.75947C182.055 10.4128 181.901 11.0055 181.593 11.5375C181.285 12.0601 180.865 12.4755 180.333 12.7835C179.81 13.0915 179.227 13.2455 178.583 13.2455ZM178.583 12.0275C179.003 12.0275 179.376 11.9295 179.703 11.7335C180.029 11.5375 180.286 11.2715 180.473 10.9355C180.659 10.5901 180.753 10.1981 180.753 9.75947C180.753 9.33014 180.655 8.94747 180.459 8.61147C180.272 8.27547 180.015 8.01414 179.689 7.82747C179.371 7.63147 179.003 7.53347 178.583 7.53347C178.163 7.53347 177.789 7.63147 177.463 7.82747C177.136 8.01414 176.879 8.27547 176.693 8.61147C176.506 8.94747 176.413 9.33014 176.413 9.75947C176.413 10.1981 176.506 10.5901 176.693 10.9355C176.879 11.2715 177.136 11.5375 177.463 11.7335C177.789 11.9295 178.163 12.0275 178.583 12.0275ZM186.232 16.0315C185.551 16.0315 184.944 15.9055 184.412 15.6535C183.89 15.4015 183.47 15.0468 183.152 14.5895L183.964 13.7635C184.235 14.1088 184.557 14.3701 184.93 14.5475C185.304 14.7341 185.747 14.8275 186.26 14.8275C186.942 14.8275 187.478 14.6455 187.87 14.2815C188.272 13.9268 188.472 13.4461 188.472 12.8395V11.1875L188.696 9.68947L188.472 8.20547V6.45547H189.732V12.8395C189.732 13.4741 189.583 14.0295 189.284 14.5055C188.995 14.9815 188.584 15.3548 188.052 15.6255C187.53 15.8961 186.923 16.0315 186.232 16.0315ZM186.232 12.9935C185.626 12.9935 185.08 12.8488 184.594 12.5595C184.118 12.2701 183.74 11.8735 183.46 11.3695C183.18 10.8561 183.04 10.2821 183.04 9.64747C183.04 9.0128 183.18 8.44814 183.46 7.95347C183.74 7.44947 184.118 7.0528 184.594 6.76347C185.08 6.4648 185.626 6.31547 186.232 6.31547C186.755 6.31547 187.217 6.41814 187.618 6.62347C188.02 6.8288 188.337 7.11814 188.57 7.49147C188.813 7.85547 188.944 8.2848 188.962 8.77947V10.5435C188.934 11.0288 188.799 11.4581 188.556 11.8315C188.323 12.1955 188.006 12.4801 187.604 12.6855C187.203 12.8908 186.746 12.9935 186.232 12.9935ZM186.484 11.8035C186.895 11.8035 187.254 11.7148 187.562 11.5375C187.88 11.3601 188.122 11.1128 188.29 10.7955C188.458 10.4688 188.542 10.0908 188.542 9.66147C188.542 9.23214 188.454 8.8588 188.276 8.54147C188.108 8.2148 187.87 7.9628 187.562 7.78547C187.254 7.5988 186.89 7.50547 186.47 7.50547C186.05 7.50547 185.682 7.5988 185.364 7.78547C185.047 7.9628 184.795 8.2148 184.608 8.54147C184.431 8.8588 184.342 9.22747 184.342 9.64747C184.342 10.0675 184.431 10.4408 184.608 10.7675C184.795 11.0941 185.047 11.3508 185.364 11.5375C185.691 11.7148 186.064 11.8035 186.484 11.8035ZM191.596 13.1055V6.45547H192.856V13.1055H191.596ZM192.226 5.12547C191.993 5.12547 191.801 5.0508 191.652 4.90147C191.503 4.7428 191.428 4.5468 191.428 4.31347C191.428 4.08947 191.503 3.9028 191.652 3.75347C191.801 3.5948 191.993 3.51547 192.226 3.51547C192.459 3.51547 192.651 3.5948 192.8 3.75347C192.949 3.9028 193.024 4.08947 193.024 4.31347C193.024 4.5468 192.949 4.7428 192.8 4.90147C192.651 5.0508 192.459 5.12547 192.226 5.12547ZM199.417 13.1055V9.22747C199.417 8.72347 199.258 8.30814 198.941 7.98147C198.623 7.6548 198.213 7.49147 197.709 7.49147C197.373 7.49147 197.074 7.56614 196.813 7.71547C196.551 7.8648 196.346 8.07014 196.197 8.33147C196.047 8.5928 195.973 8.89147 195.973 9.22747L195.455 8.93347C195.455 8.42947 195.567 7.98147 195.791 7.58947C196.015 7.19747 196.327 6.88947 196.729 6.66547C197.13 6.43214 197.583 6.31547 198.087 6.31547C198.591 6.31547 199.034 6.44147 199.417 6.69347C199.809 6.94547 200.117 7.2768 200.341 7.68747C200.565 8.0888 200.677 8.51814 200.677 8.97547V13.1055H199.417ZM194.713 13.1055V6.45547H195.973V13.1055H194.713ZM207.199 13.1055L204.567 6.45547H205.883L207.787 11.6355H207.367L209.257 6.45547H209.985L211.875 11.6355H211.455L213.359 6.45547H214.675L212.057 13.1055H211.315L209.397 8.07947H209.859L207.927 13.1055H207.199ZM215.699 13.1055V6.45547H216.959V13.1055H215.699ZM216.329 5.12547C216.096 5.12547 215.905 5.0508 215.755 4.90147C215.606 4.7428 215.531 4.5468 215.531 4.31347C215.531 4.08947 215.606 3.9028 215.755 3.75347C215.905 3.5948 216.096 3.51547 216.329 3.51547C216.563 3.51547 216.754 3.5948 216.903 3.75347C217.053 3.9028 217.127 4.08947 217.127 4.31347C217.127 4.5468 217.053 4.7428 216.903 4.90147C216.754 5.0508 216.563 5.12547 216.329 5.12547ZM219.838 13.1055V3.66947H221.098V13.1055H219.838ZM218.2 7.60347V6.45547H222.736V7.60347H218.2ZM228.675 13.1055V9.22747C228.675 8.72347 228.516 8.30814 228.199 7.98147C227.881 7.6548 227.471 7.49147 226.967 7.49147C226.631 7.49147 226.332 7.56614 226.071 7.71547C225.809 7.8648 225.604 8.07014 225.455 8.33147C225.305 8.5928 225.231 8.89147 225.231 9.22747L224.713 8.93347C224.713 8.42947 224.825 7.98147 225.049 7.58947C225.273 7.19747 225.585 6.88947 225.987 6.66547C226.388 6.43214 226.841 6.31547 227.345 6.31547C227.849 6.31547 228.292 6.42747 228.675 6.65147C229.067 6.87547 229.375 7.18814 229.599 7.58947C229.823 7.9908 229.935 8.4528 229.935 8.97547V13.1055H228.675ZM223.971 13.1055V3.10947H225.231V13.1055H223.971Z" fill="white"/>
<path d="M141.089 8.21094L0.407241 8.21095" stroke="url(#paint0_linear_2353_12504)" stroke-dasharray="5 5"/>
<path d="M240.429 8.21094L387.335 8.21094" stroke="url(#paint1_linear_2353_12504)" stroke-dasharray="5 5"/>
<defs>
<linearGradient id="paint0_linear_2353_12504" x1="70.7482" y1="8.21093" x2="3.01046" y2="8.21093" gradientUnits="userSpaceOnUse">
<stop stop-color="#4E4E4E"/>
<stop offset="1" stop-color="#202020" stop-opacity="0"/>
</linearGradient>
<linearGradient id="paint1_linear_2353_12504" x1="313.882" y1="8.21095" x2="384.617" y2="8.21096" gradientUnits="userSpaceOnUse">
<stop stop-color="#4E4E4E"/>
<stop offset="1" stop-color="#202020" stop-opacity="0"/>
</linearGradient>
</defs>
</svg>
