<svg width="388" height="17" viewBox="0 0 388 17" fill="none" xmlns="http://www.w3.org/2000/svg">
<path d="M152.863 13.2892C152.172 13.2892 151.528 13.1632 150.931 12.9112C150.333 12.6498 149.811 12.2905 149.363 11.8332C148.915 11.3665 148.565 10.8298 148.313 10.2232C148.07 9.6165 147.949 8.96784 147.949 8.27717C147.949 7.57717 148.07 6.9285 148.313 6.33117C148.565 5.7245 148.91 5.1925 149.349 4.73517C149.797 4.27784 150.315 3.92317 150.903 3.67117C151.5 3.41917 152.144 3.29317 152.835 3.29317C153.525 3.29317 154.165 3.41917 154.753 3.67117C155.35 3.92317 155.873 4.27784 156.321 4.73517C156.769 5.1925 157.119 5.7245 157.371 6.33117C157.623 6.93784 157.749 7.59117 157.749 8.29117C157.749 8.98184 157.623 9.6305 157.371 10.2372C157.119 10.8438 156.769 11.3758 156.321 11.8332C155.882 12.2905 155.364 12.6498 154.767 12.9112C154.179 13.1632 153.544 13.2892 152.863 13.2892ZM152.835 12.0292C153.535 12.0292 154.146 11.8705 154.669 11.5532C155.201 11.2265 155.621 10.7832 155.929 10.2232C156.237 9.65384 156.391 9.00517 156.391 8.27717C156.391 7.73584 156.302 7.24117 156.125 6.79317C155.947 6.33584 155.7 5.93917 155.383 5.60317C155.065 5.26717 154.692 5.0105 154.263 4.83317C153.833 4.6465 153.357 4.55317 152.835 4.55317C152.144 4.55317 151.533 4.71184 151.001 5.02917C150.478 5.3465 150.063 5.78517 149.755 6.34517C149.456 6.90517 149.307 7.54917 149.307 8.27717C149.307 8.8185 149.391 9.3225 149.559 9.78917C149.736 10.2465 149.979 10.6432 150.287 10.9792C150.604 11.3058 150.977 11.5625 151.407 11.7492C151.845 11.9358 152.321 12.0292 152.835 12.0292ZM159.33 13.1492V6.49917H160.59V13.1492H159.33ZM160.59 9.35517L160.114 9.14517C160.114 8.29584 160.31 7.61917 160.702 7.11517C161.094 6.61117 161.659 6.35917 162.396 6.35917C162.732 6.35917 163.035 6.41984 163.306 6.54117C163.577 6.65317 163.829 6.8445 164.062 7.11517L163.236 7.96917C163.096 7.81984 162.942 7.7125 162.774 7.64717C162.606 7.58184 162.41 7.54917 162.186 7.54917C161.719 7.54917 161.337 7.6985 161.038 7.99717C160.739 8.29584 160.59 8.7485 160.59 9.35517ZM171.033 13.2892C170.268 13.2892 169.615 13.1492 169.073 12.8692C168.532 12.5892 168.051 12.1832 167.631 11.6512L168.527 10.7552C168.835 11.1845 169.19 11.5112 169.591 11.7352C169.993 11.9498 170.487 12.0572 171.075 12.0572C171.654 12.0572 172.116 11.9312 172.461 11.6792C172.816 11.4272 172.993 11.0818 172.993 10.6432C172.993 10.2792 172.909 9.98517 172.741 9.76117C172.573 9.53717 172.345 9.35517 172.055 9.21517C171.775 9.06584 171.467 8.93517 171.131 8.82317C170.795 8.70184 170.459 8.57584 170.123 8.44517C169.787 8.30517 169.479 8.13717 169.199 7.94117C168.919 7.73584 168.691 7.46984 168.513 7.14317C168.345 6.8165 168.261 6.40584 168.261 5.91117C168.261 5.3605 168.392 4.89384 168.653 4.51117C168.924 4.11917 169.288 3.8205 169.745 3.61517C170.212 3.4005 170.735 3.29317 171.313 3.29317C171.948 3.29317 172.517 3.41917 173.021 3.67117C173.525 3.91384 173.936 4.23584 174.253 4.63717L173.357 5.53317C173.068 5.19717 172.755 4.94517 172.419 4.77717C172.093 4.60917 171.715 4.52517 171.285 4.52517C170.763 4.52517 170.347 4.64184 170.039 4.87517C169.731 5.09917 169.577 5.4165 169.577 5.82717C169.577 6.15384 169.661 6.41984 169.829 6.62517C170.007 6.82117 170.235 6.98917 170.515 7.12917C170.795 7.26917 171.103 7.39984 171.439 7.52117C171.785 7.63317 172.125 7.75917 172.461 7.89917C172.797 8.03917 173.105 8.2165 173.385 8.43117C173.665 8.64584 173.889 8.92584 174.057 9.27117C174.235 9.60717 174.323 10.0318 174.323 10.5452C174.323 11.4038 174.025 12.0758 173.427 12.5612C172.839 13.0465 172.041 13.2892 171.033 13.2892ZM175.887 13.1492V6.49917H177.147V13.1492H175.887ZM176.517 5.16917C176.284 5.16917 176.092 5.0945 175.943 4.94517C175.794 4.7865 175.719 4.5905 175.719 4.35717C175.719 4.13317 175.794 3.9465 175.943 3.79717C176.092 3.6385 176.284 3.55917 176.517 3.55917C176.75 3.55917 176.942 3.6385 177.091 3.79717C177.24 3.9465 177.315 4.13317 177.315 4.35717C177.315 4.5905 177.24 4.7865 177.091 4.94517C176.942 5.0945 176.75 5.16917 176.517 5.16917ZM181.762 16.0752C181.08 16.0752 180.474 15.9492 179.942 15.6972C179.419 15.4452 178.999 15.0905 178.682 14.6332L179.494 13.8072C179.764 14.1525 180.086 14.4138 180.46 14.5912C180.833 14.7778 181.276 14.8712 181.79 14.8712C182.471 14.8712 183.008 14.6892 183.4 14.3252C183.801 13.9705 184.002 13.4898 184.002 12.8832V11.2312L184.226 9.73317L184.002 8.24917V6.49917H185.262V12.8832C185.262 13.5178 185.112 14.0732 184.814 14.5492C184.524 15.0252 184.114 15.3985 183.582 15.6692C183.059 15.9398 182.452 16.0752 181.762 16.0752ZM181.762 13.0372C181.155 13.0372 180.609 12.8925 180.124 12.6032C179.648 12.3138 179.27 11.9172 178.99 11.4132C178.71 10.8998 178.57 10.3258 178.57 9.69117C178.57 9.0565 178.71 8.49184 178.99 7.99717C179.27 7.49317 179.648 7.0965 180.124 6.80717C180.609 6.5085 181.155 6.35917 181.762 6.35917C182.284 6.35917 182.746 6.46184 183.148 6.66717C183.549 6.8725 183.866 7.16184 184.1 7.53517C184.342 7.89917 184.473 8.3285 184.492 8.82317V10.5872C184.464 11.0725 184.328 11.5018 184.086 11.8752C183.852 12.2392 183.535 12.5238 183.134 12.7292C182.732 12.9345 182.275 13.0372 181.762 13.0372ZM182.014 11.8472C182.424 11.8472 182.784 11.7585 183.092 11.5812C183.409 11.4038 183.652 11.1565 183.82 10.8392C183.988 10.5125 184.072 10.1345 184.072 9.70517C184.072 9.27584 183.983 8.9025 183.806 8.58517C183.638 8.2585 183.4 8.0065 183.092 7.82917C182.784 7.6425 182.42 7.54917 182 7.54917C181.58 7.54917 181.211 7.6425 180.894 7.82917C180.576 8.0065 180.324 8.2585 180.138 8.58517C179.96 8.9025 179.872 9.27117 179.872 9.69117C179.872 10.1112 179.96 10.4845 180.138 10.8112C180.324 11.1378 180.576 11.3945 180.894 11.5812C181.22 11.7585 181.594 11.8472 182.014 11.8472ZM191.815 13.1492V9.27117C191.815 8.76717 191.656 8.35184 191.339 8.02517C191.022 7.6985 190.611 7.53517 190.107 7.53517C189.771 7.53517 189.472 7.60984 189.211 7.75917C188.95 7.9085 188.744 8.11384 188.595 8.37517C188.446 8.6365 188.371 8.93517 188.371 9.27117L187.853 8.97717C187.853 8.47317 187.965 8.02517 188.189 7.63317C188.413 7.24117 188.726 6.93317 189.127 6.70917C189.528 6.47584 189.981 6.35917 190.485 6.35917C190.989 6.35917 191.432 6.48517 191.815 6.73717C192.207 6.98917 192.515 7.3205 192.739 7.73117C192.963 8.1325 193.075 8.56184 193.075 9.01917V13.1492H191.815ZM187.111 13.1492V6.49917H188.371V13.1492H187.111ZM197.455 13.2892C196.914 13.2892 196.424 13.1678 195.985 12.9252C195.556 12.6732 195.22 12.3278 194.977 11.8892C194.734 11.4505 194.613 10.9418 194.613 10.3632V6.49917H195.873V10.3072C195.873 10.6712 195.934 10.9885 196.055 11.2592C196.186 11.5205 196.372 11.7212 196.615 11.8612C196.858 12.0012 197.142 12.0712 197.469 12.0712C197.964 12.0712 198.351 11.9172 198.631 11.6092C198.911 11.2918 199.051 10.8578 199.051 10.3072V6.49917H200.311V10.3632C200.311 10.9418 200.19 11.4505 199.947 11.8892C199.704 12.3278 199.368 12.6732 198.939 12.9252C198.519 13.1678 198.024 13.2892 197.455 13.2892ZM205.5 13.2892C204.996 13.2892 204.538 13.1865 204.128 12.9812C203.726 12.7665 203.404 12.4725 203.162 12.0992C202.919 11.7258 202.784 11.3012 202.756 10.8252V8.82317C202.784 8.33784 202.919 7.91317 203.162 7.54917C203.414 7.17584 203.74 6.8865 204.142 6.68117C204.552 6.4665 205.005 6.35917 205.5 6.35917C206.106 6.35917 206.652 6.51317 207.138 6.82117C207.632 7.12917 208.02 7.5445 208.3 8.06717C208.58 8.58984 208.72 9.17784 208.72 9.83117C208.72 10.4845 208.58 11.0725 208.3 11.5952C208.02 12.1178 207.632 12.5332 207.138 12.8412C206.652 13.1398 206.106 13.2892 205.5 13.2892ZM205.29 12.0992C205.71 12.0992 206.078 12.0012 206.396 11.8052C206.713 11.6092 206.965 11.3432 207.152 11.0072C207.338 10.6618 207.432 10.2652 207.432 9.81717C207.432 9.3785 207.338 8.9865 207.152 8.64117C206.965 8.29584 206.713 8.02984 206.396 7.84317C206.078 7.64717 205.714 7.54917 205.304 7.54917C204.884 7.54917 204.515 7.64717 204.198 7.84317C203.88 8.02984 203.633 8.29584 203.456 8.64117C203.278 8.9865 203.19 9.38317 203.19 9.83117C203.19 10.2698 203.274 10.6618 203.442 11.0072C203.619 11.3432 203.866 11.6092 204.184 11.8052C204.51 12.0012 204.879 12.0992 205.29 12.0992ZM202 15.9352V6.49917H203.26V8.24917L203.022 9.85917L203.26 11.4832V15.9352H202ZM214.964 13.1492L212.332 6.49917H213.648L215.552 11.6792H215.132L217.022 6.49917H217.75L219.64 11.6792H219.22L221.124 6.49917H222.44L219.822 13.1492H219.08L217.162 8.12317H217.624L215.692 13.1492H214.964ZM223.465 13.1492V6.49917H224.725V13.1492H223.465ZM224.095 5.16917C223.862 5.16917 223.67 5.0945 223.521 4.94517C223.372 4.7865 223.297 4.5905 223.297 4.35717C223.297 4.13317 223.372 3.9465 223.521 3.79717C223.67 3.6385 223.862 3.55917 224.095 3.55917C224.328 3.55917 224.52 3.6385 224.669 3.79717C224.818 3.9465 224.893 4.13317 224.893 4.35717C224.893 4.5905 224.818 4.7865 224.669 4.94517C224.52 5.0945 224.328 5.16917 224.095 5.16917ZM227.604 13.1492V3.71317H228.864V13.1492H227.604ZM225.966 7.64717V6.49917H230.502V7.64717H225.966ZM236.44 13.1492V9.27117C236.44 8.76717 236.281 8.35184 235.964 8.02517C235.647 7.6985 235.236 7.53517 234.732 7.53517C234.396 7.53517 234.097 7.60984 233.836 7.75917C233.575 7.9085 233.369 8.11384 233.22 8.37517C233.071 8.6365 232.996 8.93517 232.996 9.27117L232.478 8.97717C232.478 8.47317 232.59 8.02517 232.814 7.63317C233.038 7.24117 233.351 6.93317 233.752 6.70917C234.153 6.47584 234.606 6.35917 235.11 6.35917C235.614 6.35917 236.057 6.47117 236.44 6.69517C236.832 6.91917 237.14 7.23184 237.364 7.63317C237.588 8.0345 237.7 8.4965 237.7 9.01917V13.1492H236.44ZM231.736 13.1492V3.15317H232.996V13.1492H231.736Z" fill="white"/>
<path d="M141.089 8.25464L0.407241 8.25465" stroke="url(#paint0_linear_2353_12411)" stroke-dasharray="5 5"/>
<path d="M240.429 8.25464L387.335 8.25464" stroke="url(#paint1_linear_2353_12411)" stroke-dasharray="5 5"/>
<defs>
<linearGradient id="paint0_linear_2353_12411" x1="70.7482" y1="8.25463" x2="3.01046" y2="8.25463" gradientUnits="userSpaceOnUse">
<stop stop-color="#4E4E4E"/>
<stop offset="1" stop-color="#202020" stop-opacity="0"/>
</linearGradient>
<linearGradient id="paint1_linear_2353_12411" x1="313.882" y1="8.25465" x2="384.617" y2="8.25466" gradientUnits="userSpaceOnUse">
<stop stop-color="#4E4E4E"/>
<stop offset="1" stop-color="#202020" stop-opacity="0"/>
</linearGradient>
</defs>
</svg>
