<svg width="20" height="21" viewBox="0 0 20 21" fill="none" xmlns="http://www.w3.org/2000/svg">
<path d="M7.58578 19.1188H12.406C13.7396 19.1188 14.8161 18.0021 14.8161 16.6188V4.95215C14.8161 3.56882 13.7396 2.45215 12.406 2.45215H7.58578C6.25219 2.45215 5.17568 3.56882 5.17568 4.95215V16.6188C5.17568 18.0021 6.25219 19.1188 7.58578 19.1188Z" fill="white"/>
<path d="M3.97062 5.72683V15.8435C3.97062 16.1102 3.73765 16.3018 3.4886 16.2518C2.29962 16.0268 1.9622 15.3102 1.9622 13.5602V8.01017C1.9622 6.26017 2.29962 5.5435 3.4886 5.3185C3.73765 5.2685 3.97062 5.46017 3.97062 5.72683Z" fill="white"/>
<path d="M18.0296 8.01017V13.5602C18.0296 15.3102 17.6921 16.0268 16.5032 16.2518C16.2541 16.3018 16.0211 16.1018 16.0211 15.8435V5.72683C16.0211 5.46017 16.2541 5.2685 16.5032 5.3185C17.6921 5.5435 18.0296 6.26017 18.0296 8.01017Z" fill="white"/>
</svg>
