<svg width="252" height="247" viewBox="0 0 252 247" fill="none" xmlns="http://www.w3.org/2000/svg">
<path d="M39.6386 232.465C-5.40329 216.736 -5.40329 191.232 39.6386 175.517C84.6805 159.803 157.711 159.788 202.753 175.517C247.795 191.247 247.795 216.751 202.753 232.48C157.711 248.209 84.6805 248.195 39.6386 232.465Z" fill="#141414"/>
<path d="M140.517 182.569L143.569 219.701L132.636 225.89H67.0144L56.0808 219.701L59.1781 182.545L70.0715 176.385H129.584L140.517 182.569Z" fill="#202020"/>
<path d="M164.021 227.169C184.709 227.169 201.48 217.68 201.48 205.974C201.48 194.268 184.709 184.779 164.021 184.779C143.333 184.779 126.562 194.268 126.562 205.974C126.562 217.68 143.333 227.169 164.021 227.169Z" fill="#202020"/>
<path d="M130.517 180.651L122.269 175.987H77.3806L69.1679 180.631L66.8286 208.655V211.593L75.0815 216.262H124.574L132.822 211.593V208.655L130.517 180.651Z" fill="#37474F"/>
<path opacity="0.1" d="M75.0815 216.262V213.324L66.8286 208.655V211.593L75.0815 216.262Z" fill="black"/>
<path opacity="0.1" d="M124.574 216.262V213.324L132.822 208.655V211.593L124.574 216.262Z" fill="black"/>
<path d="M130.517 180.651L132.822 208.655L124.574 213.324H75.0815L66.8286 208.655L69.1679 180.631L77.3806 175.987H122.269L130.517 180.651Z" fill="#455A64"/>
<path d="M129.097 179.937L130.101 190.417C130.146 195.42 130.136 200.424 130.156 205.433V205.502L130.091 205.541L122.561 209.831H122.526H122.485L99.8252 209.88L77.1699 209.831H77.1298H77.0946L69.5646 205.541L69.5044 205.502V205.452C69.5044 200.444 69.5044 195.44 69.5546 190.437L70.5586 180.001L69.6851 190.451C69.7303 195.455 69.7203 200.459 69.7403 205.467L69.6751 205.354L77.2352 209.615H77.1649L99.8202 209.561L122.48 209.615H122.405L129.97 205.359L129.905 205.467C129.905 200.459 129.905 195.455 129.96 190.451L129.097 179.937Z" fill="#263238"/>
<path d="M127.736 164.779L120.181 160.508H79.469L71.9491 164.764L69.6147 190.422L69.6348 190.432L69.6147 205.433L77.1698 209.708H122.485L130.04 205.433V190.422L127.736 164.779Z" fill="#37474F"/>
<path d="M127.736 164.779L130.04 190.422L122.485 194.697H77.1698L69.6147 190.422L71.9491 164.764L79.469 160.508H120.181L127.736 164.779Z" fill="#455A64"/>
<path opacity="0.1" d="M77.1698 209.708V194.697L69.6147 190.422V205.433L77.1698 209.708Z" fill="black"/>
<path opacity="0.1" d="M122.485 209.708V194.697L130.04 190.422V205.433L122.485 209.708Z" fill="black"/>
<path d="M112.019 197.015H87.1045V206.377H112.019V197.015Z" fill="#263238"/>
<path d="M112.551 197.423H87.6365V206.786H112.551V197.423Z" fill="#FAFAFA"/>
<path d="M110.377 201.049V200.793C110.357 200.494 110.222 200.213 109.999 200.008C109.776 199.803 109.481 199.688 109.175 199.688C108.869 199.688 108.574 199.803 108.351 200.008C108.128 200.213 107.992 200.494 107.973 200.793V201.428C107.962 201.585 107.986 201.743 108.043 201.891C108.1 202.039 108.189 202.173 108.303 202.285C108.417 202.397 108.554 202.484 108.704 202.539C108.855 202.595 109.016 202.619 109.177 202.609C109.221 202.605 109.264 202.61 109.305 202.625C109.346 202.639 109.384 202.662 109.415 202.692C109.446 202.722 109.47 202.758 109.485 202.798C109.5 202.838 109.507 202.881 109.504 202.923V203.415C109.504 203.5 109.469 203.582 109.408 203.642C109.347 203.702 109.264 203.735 109.177 203.735C109.091 203.735 109.008 203.702 108.947 203.642C108.885 203.582 108.851 203.5 108.851 203.415V203.16H107.973V203.415C107.992 203.715 108.128 203.996 108.351 204.201C108.574 204.406 108.869 204.52 109.175 204.52C109.481 204.52 109.776 204.406 109.999 204.201C110.222 203.996 110.357 203.715 110.377 203.415V202.923C110.387 202.766 110.364 202.609 110.307 202.462C110.25 202.314 110.162 202.181 110.049 202.069C109.935 201.958 109.799 201.872 109.648 201.816C109.498 201.761 109.338 201.737 109.177 201.748C109.134 201.751 109.089 201.746 109.048 201.731C109.007 201.716 108.969 201.693 108.938 201.662C108.907 201.632 108.883 201.595 108.868 201.554C108.853 201.514 108.847 201.471 108.851 201.428V200.793C108.851 200.708 108.885 200.627 108.947 200.567C109.008 200.507 109.091 200.473 109.177 200.473C109.264 200.473 109.347 200.507 109.408 200.567C109.469 200.627 109.504 200.708 109.504 200.793V201.049H110.377ZM97.4055 199.612C97.2444 199.601 97.0828 199.624 96.9315 199.68C96.7803 199.735 96.643 199.822 96.5288 199.934C96.4146 200.046 96.3262 200.18 96.2696 200.329C96.213 200.477 96.1895 200.635 96.2007 200.793V203.415C96.2204 203.715 96.3557 203.996 96.579 204.201C96.8023 204.406 97.0969 204.52 97.403 204.52C97.709 204.52 98.0036 204.406 98.2269 204.201C98.4502 203.996 98.5855 203.715 98.6052 203.415V203.16H97.7318V203.415C97.7318 203.5 97.6974 203.582 97.6362 203.642C97.575 203.702 97.492 203.735 97.4055 203.735C97.3189 203.735 97.2359 203.702 97.1747 203.642C97.1135 203.582 97.0792 203.5 97.0792 203.415V200.793C97.0792 200.708 97.1135 200.627 97.1747 200.567C97.2359 200.507 97.3189 200.473 97.4055 200.473C97.492 200.473 97.575 200.507 97.6362 200.567C97.6974 200.627 97.7318 200.708 97.7318 200.793V201.049H98.6052V200.793C98.6163 200.636 98.5929 200.478 98.5366 200.33C98.4803 200.182 98.3924 200.048 98.2788 199.936C98.1651 199.824 98.0284 199.737 97.8778 199.681C97.7272 199.626 97.5662 199.602 97.4055 199.612ZM91.01 199.612C90.8489 199.601 90.6873 199.624 90.5361 199.68C90.3848 199.735 90.2475 199.822 90.1333 199.934C90.0191 200.046 89.9308 200.18 89.8742 200.329C89.8176 200.477 89.794 200.635 89.8052 200.793V201.428C89.794 201.586 89.8176 201.744 89.8742 201.892C89.9308 202.04 90.0191 202.175 90.1333 202.287C90.2475 202.399 90.3848 202.485 90.5361 202.541C90.6873 202.596 90.8489 202.619 91.01 202.609C91.0531 202.605 91.0966 202.61 91.1373 202.625C91.1781 202.639 91.215 202.662 91.2457 202.692C91.2763 202.722 91.2999 202.759 91.3146 202.799C91.3294 202.839 91.3351 202.881 91.3313 202.923V203.415C91.337 203.46 91.3329 203.506 91.3192 203.549C91.3056 203.593 91.2827 203.633 91.2521 203.667C91.2215 203.701 91.1838 203.728 91.1416 203.747C91.0995 203.765 91.0537 203.775 91.0075 203.775C90.9612 203.775 90.9155 203.765 90.8733 203.747C90.8311 203.728 90.7935 203.701 90.7629 203.667C90.7323 203.633 90.7094 203.593 90.6957 203.549C90.6821 203.506 90.678 203.46 90.6837 203.415V203.16H89.8052V203.415C89.8249 203.715 89.9602 203.996 90.1835 204.201C90.4068 204.406 90.7014 204.52 91.0075 204.52C91.3136 204.52 91.6082 204.406 91.8315 204.201C92.0548 203.996 92.19 203.715 92.2098 203.415V202.923C92.2201 202.766 92.1961 202.609 92.1395 202.462C92.0828 202.314 91.9948 202.181 91.8813 202.069C91.7677 201.958 91.6313 201.872 91.4811 201.816C91.3308 201.761 91.1702 201.737 91.01 201.748C90.9662 201.751 90.9221 201.746 90.8807 201.731C90.8394 201.716 90.8019 201.693 90.7708 201.662C90.7397 201.632 90.7157 201.595 90.7007 201.554C90.6857 201.514 90.6799 201.471 90.6837 201.428V200.793C90.678 200.748 90.6821 200.702 90.6957 200.659C90.7094 200.616 90.7323 200.576 90.7629 200.542C90.7935 200.508 90.8311 200.481 90.8733 200.462C90.9155 200.443 90.9612 200.434 91.0075 200.434C91.0537 200.434 91.0995 200.443 91.1416 200.462C91.1838 200.481 91.2215 200.508 91.2521 200.542C91.2827 200.576 91.3056 200.616 91.3192 200.659C91.3329 200.702 91.337 200.748 91.3313 200.793V201.049H92.2098V200.793C92.2208 200.636 92.1974 200.478 92.1411 200.33C92.0848 200.182 91.9969 200.048 91.8833 199.936C91.7697 199.824 91.633 199.737 91.4823 199.681C91.3317 199.626 91.1707 199.602 91.01 199.612ZM94.4788 203.415C94.4845 203.46 94.4804 203.506 94.4668 203.549C94.4531 203.593 94.4302 203.633 94.3996 203.667C94.369 203.701 94.3313 203.728 94.2892 203.747C94.247 203.765 94.2013 203.775 94.155 203.775C94.1088 203.775 94.063 203.765 94.0209 203.747C93.9787 203.728 93.941 203.701 93.9104 203.667C93.8798 203.633 93.8569 203.593 93.8433 203.549C93.8296 203.506 93.8255 203.46 93.8312 203.415V199.716H92.9527V203.415C92.9725 203.715 93.1077 203.996 93.331 204.201C93.5543 204.406 93.8489 204.52 94.155 204.52C94.4611 204.52 94.7557 204.406 94.979 204.201C95.2023 203.996 95.3376 203.715 95.3573 203.415V199.716H94.4788V203.415ZM106.155 199.612C105.994 199.601 105.833 199.624 105.681 199.68C105.53 199.735 105.393 199.822 105.279 199.934C105.164 200.046 105.076 200.18 105.02 200.329C104.963 200.477 104.939 200.635 104.951 200.793V201.428C104.939 201.586 104.963 201.744 105.02 201.892C105.076 202.04 105.164 202.175 105.279 202.287C105.393 202.399 105.53 202.485 105.681 202.541C105.833 202.596 105.994 202.619 106.155 202.609C106.198 202.605 106.242 202.61 106.283 202.625C106.323 202.639 106.36 202.662 106.391 202.692C106.422 202.722 106.445 202.759 106.46 202.799C106.475 202.839 106.48 202.881 106.477 202.923V203.415C106.482 203.46 106.478 203.506 106.465 203.549C106.451 203.593 106.428 203.633 106.397 203.667C106.367 203.701 106.329 203.728 106.287 203.747C106.245 203.765 106.199 203.775 106.153 203.775C106.107 203.775 106.061 203.765 106.019 203.747C105.976 203.728 105.939 203.701 105.908 203.667C105.878 203.633 105.855 203.593 105.841 203.549C105.827 203.506 105.823 203.46 105.829 203.415V203.16H104.951V203.415C104.97 203.715 105.106 203.996 105.329 204.201C105.552 204.406 105.847 204.52 106.153 204.52C106.459 204.52 106.753 204.406 106.977 204.201C107.2 203.996 107.335 203.715 107.355 203.415V202.923C107.365 202.766 107.341 202.609 107.285 202.462C107.228 202.314 107.14 202.181 107.027 202.069C106.913 201.958 106.777 201.872 106.626 201.816C106.476 201.761 106.316 201.737 106.155 201.748C106.112 201.751 106.067 201.746 106.026 201.731C105.985 201.716 105.947 201.693 105.916 201.662C105.885 201.632 105.861 201.595 105.846 201.554C105.831 201.514 105.825 201.471 105.829 201.428V200.793C105.823 200.748 105.827 200.702 105.841 200.659C105.855 200.616 105.878 200.576 105.908 200.542C105.939 200.508 105.976 200.481 106.019 200.462C106.061 200.443 106.107 200.434 106.153 200.434C106.199 200.434 106.245 200.443 106.287 200.462C106.329 200.481 106.367 200.508 106.397 200.542C106.428 200.576 106.451 200.616 106.465 200.659C106.478 200.702 106.482 200.748 106.477 200.793V201.049H107.355V200.793C107.366 200.636 107.343 200.478 107.286 200.33C107.23 200.182 107.142 200.048 107.029 199.936C106.915 199.824 106.778 199.737 106.628 199.681C106.477 199.626 106.316 199.602 106.155 199.612ZM102.33 204.493H104.338V203.632H103.189V202.392H104.193V201.516H103.189V200.562H104.328V199.701H102.32L102.33 204.493ZM100.433 199.612C100.272 199.602 100.111 199.626 99.9602 199.681C99.8096 199.737 99.6729 199.824 99.5592 199.936C99.4456 200.048 99.3577 200.182 99.3014 200.33C99.2451 200.478 99.2217 200.636 99.2327 200.793V203.415C99.2525 203.715 99.3878 203.996 99.6111 204.201C99.8344 204.406 100.129 204.52 100.435 204.52C100.741 204.52 101.036 204.406 101.259 204.201C101.482 203.996 101.618 203.715 101.637 203.415V203.16H100.759V203.415C100.759 203.5 100.724 203.582 100.663 203.642C100.602 203.702 100.519 203.735 100.433 203.735C100.346 203.735 100.263 203.702 100.202 203.642C100.141 203.582 100.106 203.5 100.106 203.415V200.793C100.106 200.708 100.141 200.627 100.202 200.567C100.263 200.507 100.346 200.473 100.433 200.473C100.519 200.473 100.602 200.507 100.663 200.567C100.724 200.627 100.759 200.708 100.759 200.793V201.049H101.637V200.793C101.648 200.635 101.624 200.477 101.567 200.329C101.51 200.182 101.421 200.047 101.307 199.936C101.193 199.824 101.056 199.737 100.906 199.682C100.755 199.626 100.593 199.602 100.433 199.612Z" fill="#BA68C8"/>
<path opacity="0.4" d="M110.377 201.049V200.793C110.357 200.494 110.222 200.213 109.999 200.008C109.776 199.803 109.481 199.688 109.175 199.688C108.869 199.688 108.574 199.803 108.351 200.008C108.128 200.213 107.992 200.494 107.973 200.793V201.428C107.962 201.585 107.986 201.743 108.043 201.891C108.1 202.039 108.189 202.173 108.303 202.285C108.417 202.397 108.554 202.484 108.704 202.539C108.855 202.595 109.016 202.619 109.177 202.609C109.221 202.605 109.264 202.61 109.305 202.625C109.346 202.639 109.384 202.662 109.415 202.692C109.446 202.722 109.47 202.758 109.485 202.798C109.5 202.838 109.507 202.881 109.504 202.923V203.415C109.504 203.5 109.469 203.582 109.408 203.642C109.347 203.702 109.264 203.735 109.177 203.735C109.091 203.735 109.008 203.702 108.947 203.642C108.885 203.582 108.851 203.5 108.851 203.415V203.16H107.973V203.415C107.992 203.715 108.128 203.996 108.351 204.201C108.574 204.406 108.869 204.52 109.175 204.52C109.481 204.52 109.776 204.406 109.999 204.201C110.222 203.996 110.357 203.715 110.377 203.415V202.923C110.387 202.766 110.364 202.609 110.307 202.462C110.25 202.314 110.162 202.181 110.049 202.069C109.935 201.958 109.799 201.872 109.648 201.816C109.498 201.761 109.338 201.737 109.177 201.748C109.134 201.751 109.089 201.746 109.048 201.731C109.007 201.716 108.969 201.693 108.938 201.662C108.907 201.632 108.883 201.595 108.868 201.554C108.853 201.514 108.847 201.471 108.851 201.428V200.793C108.851 200.708 108.885 200.627 108.947 200.567C109.008 200.507 109.091 200.473 109.177 200.473C109.264 200.473 109.347 200.507 109.408 200.567C109.469 200.627 109.504 200.708 109.504 200.793V201.049H110.377ZM97.4055 199.612C97.2444 199.601 97.0828 199.624 96.9315 199.68C96.7803 199.735 96.643 199.822 96.5288 199.934C96.4146 200.046 96.3262 200.18 96.2696 200.329C96.213 200.477 96.1895 200.635 96.2007 200.793V203.415C96.2204 203.715 96.3557 203.996 96.579 204.201C96.8023 204.406 97.0969 204.52 97.403 204.52C97.709 204.52 98.0036 204.406 98.2269 204.201C98.4502 203.996 98.5855 203.715 98.6052 203.415V203.16H97.7318V203.415C97.7318 203.5 97.6974 203.582 97.6362 203.642C97.575 203.702 97.492 203.735 97.4055 203.735C97.3189 203.735 97.2359 203.702 97.1747 203.642C97.1135 203.582 97.0792 203.5 97.0792 203.415V200.793C97.0792 200.708 97.1135 200.627 97.1747 200.567C97.2359 200.507 97.3189 200.473 97.4055 200.473C97.492 200.473 97.575 200.507 97.6362 200.567C97.6974 200.627 97.7318 200.708 97.7318 200.793V201.049H98.6052V200.793C98.6163 200.636 98.5929 200.478 98.5366 200.33C98.4803 200.182 98.3924 200.048 98.2788 199.936C98.1651 199.824 98.0284 199.737 97.8778 199.681C97.7272 199.626 97.5662 199.602 97.4055 199.612ZM91.01 199.612C90.8489 199.601 90.6873 199.624 90.5361 199.68C90.3848 199.735 90.2475 199.822 90.1333 199.934C90.0191 200.046 89.9308 200.18 89.8742 200.329C89.8176 200.477 89.794 200.635 89.8052 200.793V201.428C89.794 201.586 89.8176 201.744 89.8742 201.892C89.9308 202.04 90.0191 202.175 90.1333 202.287C90.2475 202.399 90.3848 202.485 90.5361 202.541C90.6873 202.596 90.8489 202.619 91.01 202.609C91.0531 202.605 91.0966 202.61 91.1373 202.625C91.1781 202.639 91.215 202.662 91.2457 202.692C91.2763 202.722 91.2999 202.759 91.3146 202.799C91.3294 202.839 91.3351 202.881 91.3313 202.923V203.415C91.337 203.46 91.3329 203.506 91.3192 203.549C91.3056 203.593 91.2827 203.633 91.2521 203.667C91.2215 203.701 91.1838 203.728 91.1416 203.747C91.0995 203.765 91.0537 203.775 91.0075 203.775C90.9612 203.775 90.9155 203.765 90.8733 203.747C90.8311 203.728 90.7935 203.701 90.7629 203.667C90.7323 203.633 90.7094 203.593 90.6957 203.549C90.6821 203.506 90.678 203.46 90.6837 203.415V203.16H89.8052V203.415C89.8249 203.715 89.9602 203.996 90.1835 204.201C90.4068 204.406 90.7014 204.52 91.0075 204.52C91.3136 204.52 91.6082 204.406 91.8315 204.201C92.0548 203.996 92.19 203.715 92.2098 203.415V202.923C92.2201 202.766 92.1961 202.609 92.1395 202.462C92.0828 202.314 91.9948 202.181 91.8813 202.069C91.7677 201.958 91.6313 201.872 91.4811 201.816C91.3308 201.761 91.1702 201.737 91.01 201.748C90.9662 201.751 90.9221 201.746 90.8807 201.731C90.8394 201.716 90.8019 201.693 90.7708 201.662C90.7397 201.632 90.7157 201.595 90.7007 201.554C90.6857 201.514 90.6799 201.471 90.6837 201.428V200.793C90.678 200.748 90.6821 200.702 90.6957 200.659C90.7094 200.616 90.7323 200.576 90.7629 200.542C90.7935 200.508 90.8311 200.481 90.8733 200.462C90.9155 200.443 90.9612 200.434 91.0075 200.434C91.0537 200.434 91.0995 200.443 91.1416 200.462C91.1838 200.481 91.2215 200.508 91.2521 200.542C91.2827 200.576 91.3056 200.616 91.3192 200.659C91.3329 200.702 91.337 200.748 91.3313 200.793V201.049H92.2098V200.793C92.2208 200.636 92.1974 200.478 92.1411 200.33C92.0848 200.182 91.9969 200.048 91.8833 199.936C91.7697 199.824 91.633 199.737 91.4823 199.681C91.3317 199.626 91.1707 199.602 91.01 199.612ZM94.4788 203.415C94.4845 203.46 94.4804 203.506 94.4668 203.549C94.4531 203.593 94.4302 203.633 94.3996 203.667C94.369 203.701 94.3313 203.728 94.2892 203.747C94.247 203.765 94.2013 203.775 94.155 203.775C94.1088 203.775 94.063 203.765 94.0209 203.747C93.9787 203.728 93.941 203.701 93.9104 203.667C93.8798 203.633 93.8569 203.593 93.8433 203.549C93.8296 203.506 93.8255 203.46 93.8312 203.415V199.716H92.9527V203.415C92.9725 203.715 93.1077 203.996 93.331 204.201C93.5543 204.406 93.8489 204.52 94.155 204.52C94.4611 204.52 94.7557 204.406 94.979 204.201C95.2023 203.996 95.3376 203.715 95.3573 203.415V199.716H94.4788V203.415ZM106.155 199.612C105.994 199.601 105.833 199.624 105.681 199.68C105.53 199.735 105.393 199.822 105.279 199.934C105.164 200.046 105.076 200.18 105.02 200.329C104.963 200.477 104.939 200.635 104.951 200.793V201.428C104.939 201.586 104.963 201.744 105.02 201.892C105.076 202.04 105.164 202.175 105.279 202.287C105.393 202.399 105.53 202.485 105.681 202.541C105.833 202.596 105.994 202.619 106.155 202.609C106.198 202.605 106.242 202.61 106.283 202.625C106.323 202.639 106.36 202.662 106.391 202.692C106.422 202.722 106.445 202.759 106.46 202.799C106.475 202.839 106.48 202.881 106.477 202.923V203.415C106.482 203.46 106.478 203.506 106.465 203.549C106.451 203.593 106.428 203.633 106.397 203.667C106.367 203.701 106.329 203.728 106.287 203.747C106.245 203.765 106.199 203.775 106.153 203.775C106.107 203.775 106.061 203.765 106.019 203.747C105.976 203.728 105.939 203.701 105.908 203.667C105.878 203.633 105.855 203.593 105.841 203.549C105.827 203.506 105.823 203.46 105.829 203.415V203.16H104.951V203.415C104.97 203.715 105.106 203.996 105.329 204.201C105.552 204.406 105.847 204.52 106.153 204.52C106.459 204.52 106.753 204.406 106.977 204.201C107.2 203.996 107.335 203.715 107.355 203.415V202.923C107.365 202.766 107.341 202.609 107.285 202.462C107.228 202.314 107.14 202.181 107.027 202.069C106.913 201.958 106.777 201.872 106.626 201.816C106.476 201.761 106.316 201.737 106.155 201.748C106.112 201.751 106.067 201.746 106.026 201.731C105.985 201.716 105.947 201.693 105.916 201.662C105.885 201.632 105.861 201.595 105.846 201.554C105.831 201.514 105.825 201.471 105.829 201.428V200.793C105.823 200.748 105.827 200.702 105.841 200.659C105.855 200.616 105.878 200.576 105.908 200.542C105.939 200.508 105.976 200.481 106.019 200.462C106.061 200.443 106.107 200.434 106.153 200.434C106.199 200.434 106.245 200.443 106.287 200.462C106.329 200.481 106.367 200.508 106.397 200.542C106.428 200.576 106.451 200.616 106.465 200.659C106.478 200.702 106.482 200.748 106.477 200.793V201.049H107.355V200.793C107.366 200.636 107.343 200.478 107.286 200.33C107.23 200.182 107.142 200.048 107.029 199.936C106.915 199.824 106.778 199.737 106.628 199.681C106.477 199.626 106.316 199.602 106.155 199.612ZM102.33 204.493H104.338V203.632H103.189V202.392H104.193V201.516H103.189V200.562H104.328V199.701H102.32L102.33 204.493ZM100.433 199.612C100.272 199.602 100.111 199.626 99.9602 199.681C99.8096 199.737 99.6729 199.824 99.5592 199.936C99.4456 200.048 99.3577 200.182 99.3014 200.33C99.2451 200.478 99.2217 200.636 99.2327 200.793V203.415C99.2525 203.715 99.3878 203.996 99.6111 204.201C99.8344 204.406 100.129 204.52 100.435 204.52C100.741 204.52 101.036 204.406 101.259 204.201C101.482 203.996 101.618 203.715 101.637 203.415V203.16H100.759V203.415C100.759 203.5 100.724 203.582 100.663 203.642C100.602 203.702 100.519 203.735 100.433 203.735C100.346 203.735 100.263 203.702 100.202 203.642C100.141 203.582 100.106 203.5 100.106 203.415V200.793C100.106 200.708 100.141 200.627 100.202 200.567C100.263 200.507 100.346 200.473 100.433 200.473C100.519 200.473 100.602 200.507 100.663 200.567C100.724 200.627 100.759 200.708 100.759 200.793V201.049H101.637V200.793C101.648 200.635 101.624 200.477 101.567 200.329C101.51 200.182 101.421 200.047 101.307 199.936C101.193 199.824 101.056 199.737 100.906 199.682C100.755 199.626 100.593 199.602 100.433 199.612Z" fill="white"/>
<g opacity="0.4">
<path d="M91.0101 204.591C91.1705 204.602 91.3315 204.579 91.4821 204.524C91.6327 204.469 91.7695 204.383 91.8832 204.271C91.9969 204.16 92.0849 204.026 92.1413 203.878C92.1976 203.73 92.221 203.573 92.2099 203.415V203.248L90.0513 204.168C90.1655 204.308 90.312 204.419 90.4787 204.493C90.6454 204.566 90.8275 204.6 91.0101 204.591Z" fill="white"/>
<path d="M92.9529 202.933V203.425C92.9726 203.725 93.1079 204.005 93.3312 204.211C93.5545 204.416 93.8491 204.53 94.1552 204.53C94.4613 204.53 94.7558 204.416 94.9792 204.211C95.2025 204.005 95.3377 203.725 95.3575 203.425V201.91L94.479 202.284V203.415C94.4847 203.46 94.4806 203.506 94.4669 203.549C94.4533 203.593 94.4304 203.633 94.3998 203.667C94.3691 203.701 94.3315 203.728 94.2893 203.747C94.2472 203.765 94.2014 203.775 94.1552 203.775C94.1089 203.775 94.0632 203.765 94.021 203.747C93.9788 203.728 93.9412 203.701 93.9106 203.667C93.88 203.633 93.8571 203.593 93.8434 203.549C93.8298 203.506 93.8257 203.46 93.8314 203.415V202.559L92.9529 202.933Z" fill="white"/>
<path d="M100.433 200.473C100.477 200.47 100.521 200.475 100.562 200.49C100.603 200.505 100.641 200.528 100.672 200.559C100.703 200.589 100.727 200.626 100.742 200.666C100.757 200.707 100.763 200.75 100.759 200.793V201.049H101.637V200.793C101.657 200.521 101.573 200.251 101.4 200.037C101.227 199.823 100.979 199.681 100.704 199.637L99.3885 200.198C99.2877 200.381 99.2342 200.585 99.2329 200.793V203.416C99.2327 203.516 99.2428 203.617 99.263 203.716L100.106 203.356V200.793C100.103 200.75 100.108 200.707 100.123 200.666C100.138 200.626 100.162 200.589 100.193 200.559C100.225 200.528 100.262 200.505 100.303 200.49C100.345 200.475 100.389 200.47 100.433 200.473Z" fill="white"/>
<path d="M103.209 201.531V200.577H104.348V199.716H102.33V202.407L104.172 201.629V201.531H103.209Z" fill="white"/>
<path d="M97.7319 201.049H98.6054V200.793C98.613 200.708 98.613 200.622 98.6054 200.537L97.752 200.901L97.7319 201.049Z" fill="white"/>
<path d="M98.6052 203.415V203.16H97.7317V203.415C97.7317 203.5 97.6974 203.582 97.6362 203.641C97.575 203.701 97.492 203.735 97.4054 203.735C97.3189 203.735 97.2359 203.701 97.1747 203.641C97.1135 203.582 97.0791 203.5 97.0791 203.415V201.177L96.2006 201.551V203.415C96.1797 203.699 96.2731 203.98 96.4608 204.197C96.6485 204.414 96.9156 204.55 97.2046 204.576L98.3793 204.084C98.521 203.888 98.5996 203.655 98.6052 203.415Z" fill="white"/>
<path d="M108.625 199.731L108.722 199.691L108.625 199.731Z" fill="white"/>
<path d="M106.155 199.612C105.994 199.601 105.833 199.624 105.682 199.68C105.53 199.735 105.393 199.822 105.279 199.934C105.165 200.046 105.076 200.18 105.02 200.329C104.963 200.477 104.94 200.635 104.951 200.793V201.285L105.829 200.911V200.783C105.825 200.74 105.831 200.697 105.846 200.657C105.861 200.616 105.885 200.579 105.916 200.549C105.947 200.518 105.985 200.495 106.026 200.48C106.068 200.465 106.112 200.46 106.155 200.463C106.218 200.458 106.281 200.473 106.335 200.506C106.388 200.539 106.429 200.588 106.452 200.645L107.27 200.301C107.183 200.085 107.028 199.902 106.828 199.778C106.627 199.654 106.392 199.596 106.155 199.612Z" fill="white"/>
</g>
<path opacity="0.8" d="M91.01 199.612C90.8489 199.601 90.6873 199.624 90.5361 199.68C90.3848 199.735 90.2475 199.822 90.1333 199.934C90.0191 200.046 89.9308 200.18 89.8742 200.329C89.8176 200.477 89.794 200.635 89.8052 200.793V201.428C89.8027 201.474 89.8027 201.52 89.8052 201.566L90.6737 201.197V200.793C90.6679 200.748 90.672 200.702 90.6857 200.659C90.6993 200.616 90.7222 200.576 90.7528 200.542C90.7835 200.508 90.8211 200.481 90.8633 200.462C90.9054 200.443 90.9512 200.434 90.9974 200.434C91.0437 200.434 91.0894 200.443 91.1316 200.462C91.1738 200.481 91.2114 200.508 91.242 200.542C91.2727 200.576 91.2955 200.616 91.3092 200.659C91.3229 200.702 91.327 200.748 91.3212 200.793V200.921L92.1797 200.552C92.141 200.28 91.9991 200.032 91.7824 199.858C91.5656 199.684 91.2898 199.596 91.01 199.612ZM92.9527 199.716V200.232L93.8312 199.858V199.716H92.9527Z" fill="#BA68C8"/>
<path opacity="0.8" d="M106.155 203.735C106.081 203.737 106.008 203.712 105.949 203.666L105.101 204.026C105.24 204.244 105.448 204.412 105.693 204.506C105.938 204.599 106.207 204.613 106.46 204.544C106.713 204.476 106.937 204.329 107.099 204.125C107.26 203.922 107.35 203.673 107.355 203.415V203.071L106.466 203.445C106.467 203.484 106.458 203.523 106.443 203.56C106.427 203.596 106.404 203.628 106.374 203.656C106.345 203.683 106.311 203.704 106.273 203.718C106.236 203.731 106.195 203.737 106.155 203.735ZM104.348 204.493V204.35L104.012 204.493H104.348ZM109.93 201.974L108.66 202.5C108.82 202.561 108.991 202.593 109.162 202.594C109.206 202.59 109.249 202.596 109.29 202.61C109.331 202.625 109.368 202.648 109.399 202.678C109.43 202.707 109.454 202.744 109.47 202.784C109.485 202.823 109.492 202.866 109.489 202.909V203.401C109.489 203.485 109.454 203.567 109.393 203.627C109.332 203.687 109.249 203.72 109.162 203.72C109.076 203.72 108.993 203.687 108.932 203.627C108.87 203.567 108.836 203.485 108.836 203.401V203.145H107.957V203.401C107.977 203.7 108.112 203.981 108.336 204.186C108.559 204.391 108.854 204.505 109.16 204.505C109.466 204.505 109.76 204.391 109.984 204.186C110.207 203.981 110.342 203.7 110.362 203.401V202.909C110.37 202.731 110.336 202.553 110.26 202.391C110.185 202.228 110.072 202.085 109.93 201.974Z" fill="#BA68C8"/>
<path opacity="0.1" d="M99.8251 192.66C113.535 192.66 124.649 186.371 124.649 178.614C124.649 170.856 113.535 164.567 99.8251 164.567C86.1153 164.567 75.0012 170.856 75.0012 178.614C75.0012 186.371 86.1153 192.66 99.8251 192.66Z" fill="black"/>
<path d="M151.381 98.0093C151.851 98.6472 152.186 99.3716 152.365 100.139C152.543 100.907 152.562 101.702 152.42 102.477C152.194 103.86 151.597 105.159 150.688 106.24C149.807 107.326 148.633 108.148 147.299 108.612C146.63 108.838 145.929 108.961 145.221 108.976C144.874 108.983 144.526 108.965 144.182 108.922C143.851 108.878 143.544 108.828 143.228 108.76C141.923 108.508 140.696 107.962 139.644 107.165C138.604 106.337 137.805 105.257 137.325 104.031C136.881 102.858 136.651 101.617 136.647 100.366C136.639 99.7443 136.691 99.1233 136.802 98.5112C136.916 97.8961 137.084 97.292 137.304 96.7055C139.147 91.9971 144.363 88.9467 149.609 89.4141C152.3 89.6368 154.814 90.8183 156.677 92.7351C156.903 92.9762 157.118 93.2271 157.339 93.4731L157.932 94.2554C158.268 94.7769 158.609 95.2984 158.901 95.8544C159.51 96.9704 159.974 98.1573 160.281 99.3869C160.87 101.878 160.735 104.481 159.889 106.9C159.079 109.186 157.892 111.327 156.375 113.237C154.92 115.079 153.308 116.798 151.556 118.373C149.834 119.953 148.042 121.419 146.2 122.801C144.358 124.184 142.445 125.497 140.613 126.821C138.78 128.144 136.948 129.507 135.171 130.909C133.394 132.312 131.657 133.763 130.036 135.308C128.413 136.85 126.903 138.502 125.518 140.252C125.396 140.41 125.215 140.513 125.016 140.54C124.816 140.567 124.614 140.515 124.453 140.395C124.293 140.276 124.187 140.099 124.16 139.903C124.133 139.708 124.186 139.509 124.308 139.352C129.95 131.972 137.746 126.668 144.809 121.104C148.278 118.25 151.566 115.131 154.051 111.584C155.304 109.882 156.267 107.993 156.903 105.99C157.489 104.095 157.543 102.081 157.058 100.159C156.813 99.1997 156.445 98.274 155.964 97.4042C155.728 96.9564 155.462 96.5333 155.166 96.1004L154.739 95.5198L154.267 94.9835C152.94 93.5807 151.174 92.6525 149.247 92.3464C147.239 92.0222 145.178 92.318 143.349 93.1926C141.47 94.0589 139.978 95.5667 139.152 97.4337C139.048 97.6647 138.958 97.9012 138.881 98.1422C138.797 98.375 138.729 98.6134 138.68 98.8556C138.589 99.3524 138.544 99.8563 138.544 100.361C138.523 101.374 138.719 102.38 139.122 103.313C139.498 104.194 140.124 104.952 140.924 105.498C141.741 106.027 142.672 106.364 143.645 106.482C143.891 106.521 144.147 106.541 144.398 106.56C144.625 106.573 144.853 106.573 145.08 106.56C145.522 106.518 145.954 106.408 146.361 106.236C147.18 105.876 147.876 105.293 148.369 104.558C148.868 103.84 149.163 103.004 149.222 102.137C149.254 101.794 149.213 101.448 149.101 101.121C148.99 100.794 148.81 100.494 148.574 100.238C148.273 99.9044 148.112 99.4712 148.123 99.0258C148.135 98.5803 148.318 98.1557 148.637 97.8375C148.955 97.5193 149.385 97.3311 149.839 97.311C150.293 97.2908 150.738 97.4402 151.084 97.7289C151.148 97.7869 151.205 97.8512 151.255 97.9208L151.381 98.0093Z" fill="#BA68C8"/>
<path opacity="0.7" d="M151.381 98.0093C151.851 98.6472 152.186 99.3716 152.365 100.139C152.543 100.907 152.562 101.702 152.42 102.477C152.194 103.86 151.597 105.159 150.688 106.24C149.807 107.326 148.633 108.148 147.299 108.612C146.63 108.838 145.929 108.961 145.221 108.976C144.874 108.983 144.526 108.965 144.182 108.922C143.851 108.878 143.544 108.828 143.228 108.76C141.923 108.508 140.696 107.962 139.644 107.165C138.604 106.337 137.805 105.257 137.325 104.031C136.881 102.858 136.651 101.617 136.647 100.366C136.639 99.7443 136.691 99.1233 136.802 98.5112C136.916 97.8961 137.084 97.292 137.304 96.7055C139.147 91.9971 144.363 88.9467 149.609 89.4141C152.3 89.6368 154.814 90.8183 156.677 92.7351C156.903 92.9762 157.118 93.2271 157.339 93.4731L157.932 94.2554C158.268 94.7769 158.609 95.2984 158.901 95.8544C159.51 96.9704 159.974 98.1573 160.281 99.3869C160.87 101.878 160.735 104.481 159.889 106.9C159.079 109.186 157.892 111.327 156.375 113.237C154.92 115.079 153.308 116.798 151.556 118.373C149.834 119.953 148.042 121.419 146.2 122.801C144.358 124.184 142.445 125.497 140.613 126.821C138.78 128.144 136.948 129.507 135.171 130.909C133.394 132.312 131.657 133.763 130.036 135.308C128.413 136.85 126.903 138.502 125.518 140.252C125.396 140.41 125.215 140.513 125.016 140.54C124.816 140.567 124.614 140.515 124.453 140.395C124.293 140.276 124.187 140.099 124.16 139.903C124.133 139.708 124.186 139.509 124.308 139.352C129.95 131.972 137.746 126.668 144.809 121.104C148.278 118.25 151.566 115.131 154.051 111.584C155.304 109.882 156.267 107.993 156.903 105.99C157.489 104.095 157.543 102.081 157.058 100.159C156.813 99.1997 156.445 98.274 155.964 97.4042C155.728 96.9564 155.462 96.5333 155.166 96.1004L154.739 95.5198L154.267 94.9835C152.94 93.5807 151.174 92.6525 149.247 92.3464C147.239 92.0222 145.178 92.318 143.349 93.1926C141.47 94.0589 139.978 95.5667 139.152 97.4337C139.048 97.6647 138.958 97.9012 138.881 98.1422C138.797 98.375 138.729 98.6134 138.68 98.8556C138.589 99.3524 138.544 99.8563 138.544 100.361C138.523 101.374 138.719 102.38 139.122 103.313C139.498 104.194 140.124 104.952 140.924 105.498C141.741 106.027 142.672 106.364 143.645 106.482C143.891 106.521 144.147 106.541 144.398 106.56C144.625 106.573 144.853 106.573 145.08 106.56C145.522 106.518 145.954 106.408 146.361 106.236C147.18 105.876 147.876 105.293 148.369 104.558C148.868 103.84 149.163 103.004 149.222 102.137C149.254 101.794 149.213 101.448 149.101 101.121C148.99 100.794 148.81 100.494 148.574 100.238C148.273 99.9044 148.112 99.4712 148.123 99.0258C148.135 98.5803 148.318 98.1557 148.637 97.8375C148.955 97.5193 149.385 97.3311 149.839 97.311C150.293 97.2908 150.738 97.4402 151.084 97.7289C151.148 97.7869 151.205 97.8512 151.255 97.9208L151.381 98.0093Z" fill="#FFD200"/>
<path d="M51.0559 100.224C50.8168 100.479 50.6355 100.781 50.5239 101.11C50.4123 101.439 50.3729 101.788 50.4083 102.132C50.4682 102.999 50.7609 103.834 51.2567 104.553C51.75 105.288 52.4465 105.87 53.2647 106.231C53.6734 106.403 54.1069 106.513 54.5498 106.556C54.7772 106.568 55.0051 106.568 55.2325 106.556C55.4684 106.556 55.7345 106.516 55.9805 106.477C56.9543 106.359 57.8872 106.022 58.7063 105.493C59.5051 104.947 60.1286 104.189 60.5035 103.308C60.905 102.375 61.1034 101.369 61.0858 100.356C61.0875 99.8513 61.0404 99.3472 60.9453 98.8508C60.8999 98.6082 60.8344 98.3696 60.7495 98.1374C60.6727 97.8965 60.5822 97.66 60.4784 97.429C59.6489 95.5627 58.1556 94.0554 56.2767 93.1879C54.4494 92.313 52.3897 92.0172 50.3832 92.3417C48.4571 92.6488 46.6905 93.5769 45.3632 94.9788L44.9566 95.52L44.5299 96.1006C44.2538 96.5335 43.9676 96.9566 43.7317 97.4043C43.251 98.275 42.8818 99.2003 42.6323 100.16C42.1489 102.082 42.2044 104.096 42.7929 105.99C43.4217 107.993 44.3761 109.883 45.6192 111.589C48.1292 115.136 51.3922 118.255 54.866 121.109C61.9292 126.673 69.7252 131.992 75.3677 139.357C75.4902 139.514 75.5442 139.712 75.5178 139.907C75.4915 140.103 75.3869 140.28 75.2271 140.4C75.0674 140.52 74.8655 140.573 74.6659 140.547C74.4663 140.522 74.2854 140.419 74.1629 140.262C72.776 138.513 71.2663 136.861 69.6449 135.318C68.0134 133.773 66.2765 132.327 64.5044 130.919C62.7324 129.512 60.9101 128.159 59.0678 126.831C57.2254 125.502 55.3178 124.209 53.4805 122.811C51.6432 121.414 49.841 119.948 48.1242 118.383C46.3712 116.809 44.7589 115.091 43.305 113.247C41.7867 111.338 40.5994 109.197 39.791 106.91C38.9484 104.49 38.8128 101.888 39.3994 99.397C39.7087 98.168 40.1724 96.9814 40.7799 95.8644C41.0761 95.3084 41.4124 94.7869 41.7538 94.2654L42.3462 93.4831C42.567 93.2371 42.7779 92.9911 43.0088 92.7451C44.8713 90.8283 47.3858 89.6469 50.077 89.4241C55.3228 88.9321 60.5386 92.0071 62.3759 96.7156C62.5987 97.3013 62.7667 97.9057 62.878 98.5212C62.9841 99.1339 63.0361 99.7545 63.0336 100.376C63.0299 101.628 62.7987 102.869 62.3509 104.041C61.8706 105.267 61.0709 106.347 60.0316 107.175C58.9814 107.973 57.7558 108.518 56.4524 108.77C56.1311 108.838 55.8299 108.888 55.4986 108.932C55.1523 108.975 54.8033 108.993 54.4544 108.986C53.7467 108.97 53.0457 108.847 52.3761 108.622C51.0371 108.155 49.8581 107.33 48.9726 106.241C48.0657 105.159 47.4695 103.86 47.2457 102.477C47.1035 101.702 47.1223 100.907 47.3008 100.139C47.4794 99.3718 47.814 98.6474 48.2848 98.0095L48.3551 97.9111C48.6413 97.5373 49.0674 97.2902 49.5395 97.2242C50.0116 97.1582 50.4912 97.2788 50.8726 97.5593C51.2541 97.8399 51.5062 98.2574 51.5735 98.7202C51.6408 99.1829 51.5178 99.6529 51.2316 100.027C51.177 100.096 51.1184 100.161 51.0559 100.224Z" fill="#BA68C8"/>
<path opacity="0.7" d="M51.0559 100.224C50.8168 100.479 50.6355 100.781 50.5239 101.11C50.4123 101.439 50.3729 101.788 50.4083 102.132C50.4682 102.999 50.7609 103.834 51.2567 104.553C51.75 105.288 52.4465 105.87 53.2647 106.231C53.6734 106.403 54.1069 106.513 54.5498 106.556C54.7772 106.568 55.0051 106.568 55.2325 106.556C55.4684 106.556 55.7345 106.516 55.9805 106.477C56.9543 106.359 57.8872 106.022 58.7063 105.493C59.5051 104.947 60.1286 104.189 60.5035 103.308C60.905 102.375 61.1034 101.369 61.0858 100.356C61.0875 99.8513 61.0404 99.3472 60.9453 98.8508C60.8999 98.6082 60.8344 98.3696 60.7495 98.1374C60.6727 97.8965 60.5822 97.66 60.4784 97.429C59.6489 95.5627 58.1556 94.0554 56.2767 93.1879C54.4494 92.313 52.3897 92.0172 50.3832 92.3417C48.4571 92.6488 46.6905 93.5769 45.3632 94.9788L44.9566 95.52L44.5299 96.1006C44.2538 96.5335 43.9676 96.9566 43.7317 97.4043C43.251 98.275 42.8818 99.2003 42.6323 100.16C42.1489 102.082 42.2044 104.096 42.7929 105.99C43.4217 107.993 44.3761 109.883 45.6192 111.589C48.1292 115.136 51.3922 118.255 54.866 121.109C61.9292 126.673 69.7252 131.992 75.3677 139.357C75.4902 139.514 75.5442 139.712 75.5178 139.907C75.4915 140.103 75.3869 140.28 75.2271 140.4C75.0674 140.52 74.8655 140.573 74.6659 140.547C74.4663 140.522 74.2854 140.419 74.1629 140.262C72.776 138.513 71.2663 136.861 69.6449 135.318C68.0134 133.773 66.2765 132.327 64.5044 130.919C62.7324 129.512 60.9101 128.159 59.0678 126.831C57.2254 125.502 55.3178 124.209 53.4805 122.811C51.6432 121.414 49.841 119.948 48.1242 118.383C46.3712 116.809 44.7589 115.091 43.305 113.247C41.7867 111.338 40.5994 109.197 39.791 106.91C38.9484 104.49 38.8128 101.888 39.3994 99.397C39.7087 98.168 40.1724 96.9814 40.7799 95.8644C41.0761 95.3084 41.4124 94.7869 41.7538 94.2654L42.3462 93.4831C42.567 93.2371 42.7779 92.9911 43.0088 92.7451C44.8713 90.8283 47.3858 89.6469 50.077 89.4241C55.3228 88.9321 60.5386 92.0071 62.3759 96.7156C62.5987 97.3013 62.7667 97.9057 62.878 98.5212C62.9841 99.1339 63.0361 99.7545 63.0336 100.376C63.0299 101.628 62.7987 102.869 62.3509 104.041C61.8706 105.267 61.0709 106.347 60.0316 107.175C58.9814 107.973 57.7558 108.518 56.4524 108.77C56.1311 108.838 55.8299 108.888 55.4986 108.932C55.1523 108.975 54.8033 108.993 54.4544 108.986C53.7467 108.97 53.0457 108.847 52.3761 108.622C51.0371 108.155 49.8581 107.33 48.9726 106.241C48.0657 105.159 47.4695 103.86 47.2457 102.477C47.1035 101.702 47.1223 100.907 47.3008 100.139C47.4794 99.3718 47.814 98.6474 48.2848 98.0095L48.3551 97.9111C48.6413 97.5373 49.0674 97.2902 49.5395 97.2242C50.0116 97.1582 50.4912 97.2788 50.8726 97.5593C51.2541 97.8399 51.5062 98.2574 51.5735 98.7202C51.6408 99.1829 51.5178 99.6529 51.2316 100.027C51.177 100.096 51.1184 100.161 51.0559 100.224Z" fill="#FFD200"/>
<path d="M119.418 172.862C119.418 170.028 117.511 167.189 113.685 165.025C106.03 160.685 93.6054 160.685 85.975 165.025C82.3807 167.057 80.453 169.674 80.2522 172.331C80.2522 172.385 80.2522 172.429 80.2522 172.478C80.2522 172.606 80.2522 172.734 80.2522 172.862V176.542C80.2522 176.67 80.2522 176.798 80.2522 176.926C80.2522 176.975 80.2522 177.02 80.2522 177.074C80.4781 179.73 82.3807 182.348 85.975 184.38C93.6205 188.709 106.03 188.709 113.685 184.38C117.511 182.215 119.418 179.376 119.418 176.542V172.862Z" fill="#DB9D01"/>
<path opacity="0.4" d="M102.365 187.524C106.502 187.219 110.503 186.181 113.685 184.38C114.854 183.73 115.927 182.925 116.873 181.989V167.416C115.927 166.48 114.854 165.675 113.685 165.025C110.503 163.224 106.502 162.181 102.365 161.876V187.524Z" fill="#FFD200"/>
<path d="M88.741 163.726C87.7875 164.091 86.8629 164.525 85.975 165.025C82.3807 167.057 80.453 169.674 80.2522 172.331C80.2522 172.385 80.2522 172.429 80.2522 172.479C80.2522 172.606 80.2522 172.734 80.2522 172.862V176.542C80.2522 176.67 80.2522 176.798 80.2522 176.926C80.2522 176.975 80.2522 177.02 80.2522 177.074C80.4781 179.731 82.3807 182.348 85.975 184.38C86.863 184.878 87.7876 185.31 88.741 185.674V163.726Z" fill="#E2B239"/>
<path d="M81.6277 176.464C81.4352 176.189 81.2592 175.903 81.1006 175.608C81.0554 175.529 81.0203 175.45 80.9801 175.371C80.8578 175.128 80.7489 174.878 80.6538 174.624C80.6287 174.545 80.5936 174.466 80.5685 174.387C80.467 174.075 80.3865 173.756 80.3275 173.433C80.2737 173.108 80.2452 172.779 80.2422 172.449C80.2422 172.351 80.2422 172.257 80.2422 172.159C80.2498 171.931 80.2699 171.705 80.3024 171.48C80.3024 171.362 80.3376 171.249 80.3577 171.13C80.4045 170.914 80.4597 170.697 80.5233 170.481C80.5585 170.378 80.5836 170.269 80.6237 170.161C80.734 169.851 80.8648 169.549 81.0153 169.256C81.0605 169.162 81.1257 169.069 81.1759 168.975C81.2966 168.757 81.429 168.545 81.5725 168.341C81.6578 168.213 81.7532 168.09 81.8486 167.967C81.944 167.844 81.9791 167.78 82.0494 167.691L82.3807 167.317L82.5614 167.116C86.7582 162.388 92.9277 160.818 99.8252 160.818C106.723 160.818 112.907 162.397 117.099 167.135L117.25 167.293L117.596 167.691C117.676 167.785 117.737 167.883 117.812 167.982C117.887 168.08 117.988 168.213 118.068 168.326C118.221 168.548 118.361 168.778 118.49 169.015C118.535 169.089 118.59 169.167 118.63 169.246C118.782 169.546 118.915 169.855 119.027 170.171C119.062 170.265 119.082 170.363 119.112 170.456C119.182 170.683 119.241 170.913 119.288 171.145C119.288 171.253 119.328 171.357 119.343 171.465C119.378 171.705 119.398 171.946 119.403 172.188C119.403 172.272 119.403 172.356 119.403 172.439C119.393 173.108 119.279 173.771 119.067 174.407C119.067 174.476 119.017 174.545 118.992 174.614C118.895 174.882 118.782 175.145 118.655 175.401L118.55 175.608C118.381 175.917 118.195 176.218 117.993 176.508L117.967 176.542C117.726 176.886 117.463 177.215 117.179 177.526L117.119 177.585C116.858 177.861 116.572 178.132 116.266 178.402L116.055 178.584C115.774 178.815 115.478 179.047 115.161 179.268L114.93 179.435C114.529 179.706 114.117 179.977 113.665 180.228C106.02 184.557 93.5854 184.557 85.965 180.228C85.5182 179.977 85.1015 179.711 84.705 179.44C84.6146 179.381 84.5343 179.317 84.449 179.253C84.1427 179.042 83.8566 178.82 83.5855 178.594L83.3496 178.392C83.0635 178.145 82.7904 177.884 82.5313 177.61L82.441 177.517C82.1626 177.217 81.9028 176.902 81.6628 176.572C81.6542 176.535 81.6424 176.499 81.6277 176.464Z" fill="#BA68C8"/>
<g opacity="0.8">
<path d="M81.6277 176.464C81.4352 176.189 81.2592 175.903 81.1006 175.608C81.0554 175.529 81.0203 175.45 80.9801 175.371C80.8578 175.128 80.7489 174.878 80.6538 174.624C80.6287 174.545 80.5936 174.466 80.5685 174.387C80.467 174.075 80.3865 173.756 80.3275 173.433C80.2737 173.108 80.2452 172.779 80.2422 172.449C80.2422 172.351 80.2422 172.257 80.2422 172.159C80.2498 171.931 80.2699 171.705 80.3024 171.48C80.3024 171.362 80.3376 171.249 80.3577 171.13C80.4045 170.914 80.4597 170.697 80.5233 170.481C80.5585 170.378 80.5836 170.269 80.6237 170.161C80.734 169.851 80.8648 169.549 81.0153 169.256C81.0605 169.162 81.1257 169.069 81.1759 168.975C81.2966 168.757 81.429 168.545 81.5725 168.341C81.6578 168.213 81.7532 168.09 81.8486 167.967C81.944 167.844 81.9791 167.78 82.0494 167.691L82.3807 167.317L82.5614 167.116C86.7582 162.388 92.9277 160.818 99.8252 160.818C106.723 160.818 112.907 162.397 117.099 167.135L117.25 167.293L117.596 167.691C117.676 167.785 117.737 167.883 117.812 167.982C117.887 168.08 117.988 168.213 118.068 168.326C118.221 168.548 118.361 168.778 118.49 169.015C118.535 169.089 118.59 169.167 118.63 169.246C118.782 169.546 118.915 169.855 119.027 170.171C119.062 170.265 119.082 170.363 119.112 170.456C119.182 170.683 119.241 170.913 119.288 171.145C119.288 171.253 119.328 171.357 119.343 171.465C119.378 171.705 119.398 171.946 119.403 172.188C119.403 172.272 119.403 172.356 119.403 172.439C119.393 173.108 119.279 173.771 119.067 174.407C119.067 174.476 119.017 174.545 118.992 174.614C118.895 174.882 118.782 175.145 118.655 175.401L118.55 175.608C118.381 175.917 118.195 176.218 117.993 176.508L117.967 176.542C117.726 176.886 117.463 177.215 117.179 177.526L117.119 177.585C116.858 177.861 116.572 178.132 116.266 178.402L116.055 178.584C115.774 178.815 115.478 179.047 115.161 179.268L114.93 179.435C114.529 179.706 114.117 179.977 113.665 180.228C106.02 184.557 93.5854 184.557 85.965 180.228C85.5182 179.977 85.1015 179.711 84.705 179.44C84.6146 179.381 84.5343 179.317 84.449 179.253C84.1427 179.042 83.8566 178.82 83.5855 178.594L83.3496 178.392C83.0635 178.145 82.7904 177.884 82.5313 177.61L82.441 177.517C82.1626 177.217 81.9028 176.902 81.6628 176.572C81.6542 176.535 81.6424 176.499 81.6277 176.464Z" fill="#FFD925"/>
<path opacity="0.4" d="M119.418 172.323C119.418 169.489 117.51 166.651 113.685 164.486C106.03 160.146 93.6052 160.146 85.9748 164.486C82.3804 166.518 80.4528 169.135 80.252 171.792C80.252 171.846 80.252 171.89 80.252 171.94C80.252 172.068 80.252 172.195 80.252 172.323V176.004C80.252 176.131 80.252 176.259 80.252 176.387C80.252 176.436 80.252 176.481 80.252 176.535C80.4779 179.192 82.3804 181.809 85.9748 183.841C93.6202 188.171 106.03 188.171 113.685 183.841C117.51 181.676 119.418 178.837 119.418 176.004V172.323Z" fill="#FFD200"/>
</g>
<path opacity="0.3" d="M108.575 167.568V161.91C106.151 161.24 103.649 160.876 101.13 160.828V170.383L102.355 183.342C106.497 183.042 110.503 181.999 113.68 180.198C114.132 179.947 114.544 179.676 114.945 179.406L115.176 179.239C115.493 179.017 115.789 178.786 116.07 178.555L116.281 178.373C116.492 178.191 116.682 178.004 116.873 177.822L108.575 167.568Z" fill="#FFD200"/>
<path opacity="0.15" d="M94.1525 169.433V161.231C89.5944 161.965 85.5834 163.726 82.5814 167.106L82.4007 167.308L82.0694 167.682C81.9991 167.77 81.9389 167.864 81.8686 167.957C81.7983 168.051 81.6778 168.203 81.5925 168.331C81.449 168.536 81.3167 168.747 81.1959 168.966C81.1457 169.059 81.0805 169.153 81.0353 169.246C80.8849 169.539 80.7541 169.842 80.6437 170.151C80.6036 170.26 80.5785 170.368 80.5433 170.471C80.478 170.685 80.4243 170.902 80.3827 171.121C80.3827 171.239 80.3375 171.352 80.3224 171.47C80.2899 171.695 80.2698 171.922 80.2622 172.149C80.2622 172.247 80.2622 172.341 80.2622 172.439C80.2652 172.769 80.2937 173.098 80.3475 173.423C80.4065 173.746 80.487 174.065 80.5885 174.378C80.6136 174.456 80.6487 174.535 80.6738 174.614C80.7689 174.869 80.8778 175.118 81.0001 175.362C81.0403 175.44 81.0754 175.519 81.1206 175.598C81.2792 175.893 81.4552 176.179 81.6477 176.454C81.6662 176.479 81.683 176.505 81.6979 176.533C81.9379 176.862 82.1977 177.178 82.476 177.477L82.5664 177.571C82.8254 177.845 83.0985 178.106 83.3846 178.353L83.6206 178.555C83.8917 178.781 84.1778 179.002 84.484 179.214L84.74 179.401C85.1366 179.672 85.5533 179.937 86.0001 180.188C86.8881 180.686 87.8127 181.119 88.7661 181.482L94.1525 169.433Z" fill="#E2B239"/>
<path opacity="0.4" d="M101.241 171.549C103.45 171.426 105.604 170.828 107.551 169.797C108.201 169.439 108.799 168.995 109.328 168.479V159.204C108.8 158.685 108.202 158.238 107.551 157.876C105.605 156.843 103.45 156.244 101.241 156.12V171.549Z" fill="#FFD200"/>
<path d="M93.6506 157.153C93.1192 157.356 92.6041 157.598 92.1094 157.876C90.1014 159.008 89.0422 160.464 88.9217 161.945C88.9193 161.973 88.9193 162.001 88.9217 162.029C88.9217 162.102 88.9217 162.171 88.9217 162.245V165.428C88.9217 165.497 88.9217 165.571 88.9217 165.64C88.9193 165.668 88.9193 165.696 88.9217 165.723C89.0422 167.199 90.1065 168.675 92.1094 169.797C92.6052 170.073 93.1202 170.315 93.6506 170.52V157.153Z" fill="#FFD200"/>
<path d="M110.719 161.945C110.483 157.876 99.8101 150.663 99.8101 150.663C99.8101 150.663 89.1375 157.876 88.9016 161.945C88.8876 162.109 88.8876 162.273 88.9016 162.437C88.8992 162.465 88.8992 162.493 88.9016 162.521C89.0221 163.997 90.0863 165.473 92.0893 166.594C96.3513 169.005 103.264 169.005 107.531 166.594C109.539 165.458 110.593 164.001 110.719 162.521V162.437C110.73 162.273 110.73 162.109 110.719 161.945Z" fill="#F2F2F2"/>
<path d="M110.743 162.245C110.743 160.661 109.684 159.081 107.551 157.876C103.284 155.455 96.3712 155.455 92.1092 157.876C90.1012 159.008 89.042 160.464 88.9215 161.945C88.9191 161.973 88.9191 162.001 88.9215 162.029C88.9215 162.102 88.9215 162.171 88.9215 162.245V165.428C88.9215 165.497 88.9215 165.571 88.9215 165.64C88.9191 165.668 88.9191 165.696 88.9215 165.723C89.042 167.199 90.1062 168.675 92.1092 169.797C96.3712 172.208 103.284 172.208 107.551 169.797C109.684 168.587 110.743 167.008 110.743 165.428V162.245Z" fill="#F0BB2B"/>
<path opacity="0.8" d="M110.719 161.945C110.483 157.876 99.8101 150.663 99.8101 150.663C99.8101 150.663 89.1375 157.876 88.9016 161.945C88.8876 162.108 88.8876 162.273 88.9016 162.437C88.8992 162.464 88.8992 162.492 88.9016 162.52C89.0221 163.996 90.0863 165.472 92.0893 166.594C96.3513 169.005 103.264 169.005 107.531 166.594C109.539 165.458 110.593 164.001 110.719 162.52V162.437C110.73 162.273 110.73 162.108 110.719 161.945Z" fill="#F5C31C"/>
<path opacity="0.15" d="M88.9216 161.935C88.9076 162.098 88.9076 162.263 88.9216 162.427C88.9192 162.455 88.9192 162.483 88.9216 162.51C89.0421 163.986 90.1063 165.462 92.1093 166.584C92.6543 166.891 93.2233 167.154 93.8111 167.371C93.8111 163.996 99.8351 150.643 99.8351 150.643C99.8351 150.643 89.1575 157.866 88.9216 161.935Z" fill="white"/>
<path opacity="0.3" d="M107.551 166.614C108.13 166.289 108.668 165.897 109.152 165.448C109.152 160.405 99.8301 150.653 99.8301 150.653C99.8301 150.653 101.241 164.538 101.241 168.365C103.449 168.241 105.603 167.643 107.551 166.614Z" fill="#FFD200"/>
<path d="M137.274 86.9295C137.274 81.5175 133.62 76.1055 126.306 71.9432C111.682 63.6677 87.9679 63.6677 73.3447 71.9432C66.0406 76.0809 62.376 81.5027 62.376 86.9295V93.4091C62.376 98.8211 66.0356 104.233 73.3447 108.395C87.973 116.671 111.682 116.671 126.306 108.395C133.62 104.258 137.274 98.831 137.274 93.4091V86.9295Z" fill="#FFD200"/>
<path opacity="0.4" d="M128.901 73.5964V106.792C134.483 102.91 137.274 98.1718 137.274 93.4339V86.9296C137.274 82.1917 134.483 77.4537 128.901 73.5964Z" fill="white"/>
<path opacity="0.4" d="M99.8252 114.6C107.285 114.6 114.735 113.34 121.12 110.836V69.5078C114.735 66.9937 107.285 65.7244 99.8252 65.7244V114.6Z" fill="#FFD200"/>
<path d="M75.5384 70.8066C74.7904 71.1658 74.0324 71.5446 73.3447 71.9432C66.0406 76.0809 62.376 81.5027 62.376 86.9295V93.4091C62.376 98.8211 66.0356 104.233 73.3447 108.395C74.0525 108.794 74.7904 109.173 75.5384 109.532V70.8066Z" fill="#FFD200"/>
<path d="M99.8252 108.12C120.508 108.12 137.274 98.6326 137.274 86.9295C137.274 75.2263 120.508 65.739 99.8252 65.739C79.1426 65.739 62.376 75.2263 62.376 86.9295C62.376 98.6326 79.1426 108.12 99.8252 108.12Z" fill="#BA68C8"/>
<path opacity="0.55" d="M99.8252 108.12C120.508 108.12 137.274 98.6326 137.274 86.9295C137.274 75.2263 120.508 65.739 99.8252 65.739C79.1426 65.739 62.376 75.2263 62.376 86.9295C62.376 98.6326 79.1426 108.12 99.8252 108.12Z" fill="#FFD200"/>
<path d="M133.444 86.9247C133.437 88.0349 133.226 89.1349 132.822 90.1719C131.627 87.0772 128.725 84.14 124.388 81.68C117.892 78.0048 109.172 75.9728 99.8301 75.9728C90.4879 75.9728 81.7581 78.0048 75.2622 81.68C70.9199 84.14 68.0284 87.0674 66.8337 90.1719C66.4292 89.1349 66.2184 88.0349 66.2112 86.9247C66.2112 82.664 69.429 78.5017 75.2472 75.2004C81.7431 71.5251 90.4728 69.4932 99.8151 69.4932C109.157 69.4932 117.887 71.5251 124.373 75.2004C130.221 78.5164 133.444 82.664 133.444 86.9247Z" fill="#FFD200"/>
<path opacity="0.1" d="M84.2481 71.5447C81.1133 72.4032 78.096 73.6306 75.2623 75.2002C69.4291 78.5016 66.2263 82.6639 66.2263 86.9246C66.2335 88.0348 66.4444 89.1347 66.8488 90.1718C68.0436 87.0673 70.9351 84.1399 75.2774 81.6799C78.1111 80.1103 81.1283 78.8828 84.2632 78.0243L84.2481 71.5447Z" fill="black"/>
<path opacity="0.2" d="M100.794 75.9875C108.761 76.1056 116.23 77.7046 122.194 80.5484V74.0884C116.23 71.2447 108.761 69.6604 100.794 69.5276V75.9875Z" fill="white"/>
<path d="M62.376 93.4092C62.376 98.8212 66.0356 104.233 73.3447 108.395C87.973 116.671 111.682 116.671 126.306 108.395C133.62 104.258 137.274 98.831 137.274 93.4092C137.274 127.475 119.599 155.677 99.8252 155.677C80.0514 155.677 62.376 127.475 62.376 93.4092Z" fill="#BA68C8"/>
<path opacity="0.8" d="M62.376 93.4092C62.376 98.8212 66.0356 104.233 73.3447 108.395C87.973 116.671 111.682 116.671 126.306 108.395C133.62 104.258 137.274 98.831 137.274 93.4092C137.274 127.475 119.599 155.677 99.8252 155.677C80.0514 155.677 62.376 127.475 62.376 93.4092Z" fill="#FFD200"/>
<path opacity="0.1" d="M99.8252 155.677C108.595 155.677 116.953 150.122 123.535 140.971C114.634 152.366 97.3152 150.712 90.1065 136.075C87.9579 131.711 84.981 122.186 84.2481 112.681C80.4364 111.731 76.77 110.29 73.3447 108.395C66.0356 104.258 62.376 98.831 62.376 93.4092C62.376 127.475 80.0514 155.677 99.8252 155.677Z" fill="#7A4A83"/>
<path opacity="0.15" d="M73.932 126.924C72.3074 120.36 71.3158 113.661 70.9702 106.915C65.2474 103.008 62.376 98.2111 62.376 93.4092C62.376 126.811 79.3737 154.56 98.6756 155.628C87.7069 154.712 77.5213 140.868 73.932 126.924Z" fill="#573E5B"/>
<path opacity="0.3" d="M126.306 108.395C117.962 113.119 106.657 115.141 95.7739 114.472C97.5912 135.756 103.52 143.121 113.791 138.053C122.36 133.817 126.456 120.071 128.384 107.111C127.726 107.544 127.038 107.982 126.306 108.395Z" fill="#FFD200"/>
<path d="M132.807 90.1718C131.602 93.2615 128.71 96.2037 124.373 98.6588C117.877 102.334 109.157 104.356 99.8151 104.356C90.4728 104.356 81.7431 102.334 75.2472 98.6588C70.9049 96.1988 68.0134 93.2468 66.8186 90.1718C68.0134 87.0673 70.9049 84.1399 75.2472 81.6799C81.7431 78.0046 90.4728 75.9727 99.8151 75.9727C109.157 75.9727 117.887 78.0046 124.373 81.6799C128.725 84.1399 131.627 87.0771 132.807 90.1718Z" fill="#BA68C8"/>
<path opacity="0.8" d="M132.807 90.1718C131.602 93.2615 128.71 96.2037 124.373 98.6588C117.877 102.334 109.157 104.356 99.8151 104.356C90.4728 104.356 81.7431 102.334 75.2472 98.6588C70.9049 96.1988 68.0134 93.2468 66.8186 90.1718C68.0134 87.0673 70.9049 84.1399 75.2472 81.6799C81.7431 78.0046 90.4728 75.9727 99.8151 75.9727C109.157 75.9727 117.887 78.0046 124.373 81.6799C128.725 84.1399 131.627 87.0771 132.807 90.1718Z" fill="white"/>
<path opacity="0.1" d="M116.02 102.132C118.936 101.292 121.744 100.124 124.388 98.6538C128.725 96.1938 131.617 93.2418 132.822 90.1668C131.627 87.0721 128.725 84.1349 124.388 81.6749C122.275 80.4867 120.051 79.4983 117.747 78.7229C117.98 86.5632 117.402 94.4064 116.02 102.132Z" fill="#E4CBE9"/>
<path opacity="0.15" d="M126.863 83.2593C126.638 88.2715 126.059 93.2625 125.131 98.1964C129.051 95.8299 131.692 93.0648 132.821 90.1571C131.873 87.7119 129.83 85.3552 126.863 83.2593Z" fill="#FFFDFF"/>
<path opacity="0.4" d="M137.011 86.6245C137.011 81.2125 133.356 75.8005 126.042 71.6382C111.419 63.3628 87.7043 63.3628 73.081 71.6382C65.7769 75.7759 62.1123 81.1978 62.1123 86.6245V93.1042C62.1123 98.5162 65.7719 103.928 73.081 108.09C87.7093 116.366 111.419 116.366 126.042 108.09C133.356 103.953 137.011 98.526 137.011 93.1042V86.6245Z" fill="#FFD200"/>
<path d="M178.825 188.611C178.93 186.181 180.356 159.308 180.356 159.308L167.806 168.164C169.764 182.186 170.587 188.636 170.728 190.973C170.683 191.17 170.668 191.372 170.682 191.573C170.808 194.348 174.226 195.73 176.927 197.477C179.226 199.035 181.656 200.398 184.191 201.551C186.129 202.377 190.004 202.323 190.436 201.167C187.153 199.007 183.358 196.65 180.717 194.146C179.447 192.97 178.704 191.534 178.825 188.611Z" fill="#D9BDBD"/>
<path d="M194.251 204.02C194.402 204.02 194.698 205.688 193.895 206.431C192.971 207.287 190.21 208.739 186.475 208.399C182.74 208.06 180.682 206.977 179.146 205.787C177.61 204.596 175.456 202.918 173.76 202.608C172.183 202.318 170.461 201.674 169.939 201.211C169.417 200.749 169.407 198.604 169.407 198.604L194.251 204.02Z" fill="#263238"/>
<path d="M170.667 190.304C170.667 190.304 170.261 190.304 170.165 190.796C170.075 191.386 169.97 193.118 169.759 194.092C169.473 195.45 169.257 198.235 169.488 199.322C169.719 200.409 172.309 201.083 173.961 201.644C175.913 202.417 177.734 203.476 179.362 204.783C181.164 206.156 184.884 207.47 187.319 207.42C191.024 207.342 193.378 206.259 194.066 204.906C194.919 203.233 194.593 202.082 190.266 200.267C188.61 199.485 186.999 198.614 185.441 197.659C182.957 196.166 181.002 193.958 179.844 191.337C179.733 190.987 179.505 190.683 179.196 190.476C178.932 190.375 178.642 190.359 178.368 190.432C177.66 190.555 175.622 190.879 174.99 191.209C174.357 191.539 173.634 191.844 173.674 192.572C173.698 192.825 173.762 193.072 173.865 193.305C173.92 193.453 173.966 193.649 173.84 193.743C173.715 193.836 173.554 193.743 173.439 193.644C173.002 193.235 172.601 192.79 172.239 192.316C172.038 192.079 171.811 191.864 171.561 191.676C171.303 191.542 171.053 191.392 170.813 191.229C170.813 191.229 170.693 190.643 170.667 190.304Z" fill="#455A64"/>
<path d="M190.406 200.267C185.065 200.823 182.831 204.267 183.509 206.761C184.742 207.176 186.035 207.4 187.339 207.425C191.044 207.346 193.549 206.259 194.236 204.906C195.055 203.332 194.256 201.57 190.406 200.267Z" fill="#FAFAFA"/>
<path d="M183.132 201.024C183.073 201.027 183.014 201.01 182.966 200.975C182.911 200.932 182.876 200.869 182.866 200.8C182.857 200.732 182.875 200.662 182.916 200.606C183.51 199.944 184.244 199.416 185.066 199.058C185.889 198.701 186.78 198.522 187.68 198.535C187.75 198.541 187.815 198.574 187.861 198.626C187.907 198.679 187.93 198.746 187.926 198.815C187.924 198.849 187.915 198.883 187.9 198.913C187.885 198.944 187.864 198.971 187.837 198.994C187.811 199.016 187.781 199.033 187.748 199.044C187.715 199.055 187.68 199.059 187.645 199.056C186.832 199.053 186.028 199.218 185.285 199.54C184.542 199.862 183.877 200.334 183.333 200.926C183.31 200.957 183.279 200.982 183.245 200.999C183.21 201.016 183.171 201.025 183.132 201.024Z" fill="#F0F0F0"/>
<path d="M180.999 199.75C180.949 199.751 180.9 199.738 180.857 199.712C180.814 199.687 180.78 199.651 180.757 199.607C180.735 199.563 180.725 199.515 180.73 199.466C180.734 199.417 180.753 199.371 180.783 199.332C181.375 198.667 182.108 198.137 182.931 197.779C183.754 197.42 184.646 197.242 185.547 197.256C185.617 197.262 185.682 197.295 185.728 197.347C185.774 197.399 185.797 197.467 185.793 197.536C185.791 197.57 185.782 197.603 185.767 197.634C185.751 197.665 185.73 197.692 185.704 197.715C185.678 197.737 185.647 197.754 185.614 197.765C185.581 197.776 185.546 197.78 185.512 197.777C184.699 197.774 183.895 197.939 183.152 198.261C182.409 198.583 181.743 199.055 181.199 199.647C181.175 199.677 181.145 199.702 181.11 199.72C181.076 199.737 181.038 199.748 180.999 199.75Z" fill="#F0F0F0"/>
<path d="M178.84 198.112C178.781 198.115 178.722 198.097 178.674 198.063C178.618 198.02 178.582 197.957 178.572 197.888C178.563 197.819 178.581 197.749 178.624 197.694C179.218 197.031 179.952 196.503 180.774 196.146C181.597 195.788 182.488 195.61 183.388 195.622C183.423 195.625 183.457 195.634 183.488 195.649C183.52 195.665 183.548 195.686 183.571 195.712C183.593 195.738 183.611 195.769 183.622 195.801C183.633 195.834 183.637 195.868 183.634 195.903C183.632 195.937 183.623 195.97 183.608 196.001C183.593 196.031 183.571 196.059 183.545 196.081C183.519 196.104 183.489 196.121 183.456 196.132C183.423 196.142 183.388 196.146 183.353 196.144C182.541 196.139 181.737 196.303 180.994 196.625C180.251 196.946 179.585 197.418 179.041 198.008C179.018 198.04 178.988 198.066 178.953 198.084C178.918 198.102 178.879 198.112 178.84 198.112Z" fill="#F0F0F0"/>
<path d="M176.732 196.473C176.673 196.475 176.616 196.456 176.571 196.419C176.543 196.399 176.519 196.374 176.5 196.345C176.482 196.316 176.469 196.283 176.464 196.249C176.458 196.216 176.46 196.181 176.468 196.148C176.476 196.114 176.49 196.083 176.511 196.055C177.49 194.727 179.774 193.797 181.721 193.939C181.792 193.946 181.857 193.979 181.902 194.031C181.948 194.083 181.972 194.151 181.967 194.22C181.962 194.288 181.93 194.352 181.877 194.397C181.825 194.442 181.756 194.465 181.686 194.461C179.929 194.333 177.801 195.189 176.932 196.365C176.91 196.397 176.88 196.424 176.845 196.443C176.81 196.462 176.771 196.472 176.732 196.473Z" fill="#F0F0F0"/>
<path d="M157.319 169.581L144.935 167.121C144.513 174.466 144.709 186.456 144.719 193.246C144.719 194.545 143.845 203.307 144.187 206.008C144.689 210.067 150.251 209.875 150.738 207.484C151.225 205.093 151.772 194.924 151.877 193.866C151.889 193.549 151.926 193.233 151.988 192.921C153.358 186.756 157.239 169.93 157.319 169.581Z" fill="#D9BDBD"/>
<path d="M152.676 209.3C152.59 211.656 152.219 213.236 151.3 214.633C150.382 216.03 148.564 216.517 146.702 216.153C144.839 215.789 142.44 214.766 141.843 212.744C141.245 210.721 141.31 209.324 141.657 207.13L152.676 209.3Z" fill="#263238"/>
<path d="M144.719 192.493C143.956 192.562 143.876 195.637 143.544 198.82C143.183 202.225 142.038 203.656 141.727 206.451C141.351 209.644 141.592 211.061 142.947 212.955C144.302 214.849 148.926 216.63 151.084 213.821C152.846 211.533 152.836 209.044 152.565 205.87C152.265 203.186 152.119 200.487 152.129 197.787C152.199 195.401 152.631 193.187 151.983 192.936C151.943 193.285 151.908 193.733 151.862 194.077C151.832 194.343 151.797 195.632 151.36 195.656C151.316 195.358 151.304 195.057 151.325 194.756C151.342 194.62 151.33 194.482 151.29 194.35C151.249 194.219 151.181 194.097 151.089 193.994C150.726 193.775 150.318 193.637 149.895 193.59C149.142 193.482 148.389 193.383 147.621 193.339C147.244 193.339 146.863 193.315 146.481 193.339C146.154 193.339 145.829 193.387 145.517 193.482C145.431 193.507 145.351 193.549 145.282 193.606C145.213 193.663 145.156 193.733 145.116 193.811C145.082 193.93 145.074 194.054 145.09 194.176C145.096 194.398 145.07 194.619 145.015 194.835C145.015 194.928 144.92 195.041 144.809 195.022C144.699 195.002 144.684 194.914 144.679 194.835C144.679 194.451 144.714 194.171 144.719 193.723C144.719 193.516 144.719 193.319 144.719 193.113C144.719 192.906 144.709 192.7 144.719 192.493Z" fill="#455A64"/>
<path d="M141.576 208.301C141.511 210.269 141.687 211.627 142.746 213.108C144.096 215.002 149.091 216.783 151.25 213.979C152.324 212.581 152.57 210.953 152.671 209.295C151.255 207.204 143.645 206.436 141.576 208.301Z" fill="#FAFAFA"/>
<path d="M150.602 205.88C150.573 205.887 150.542 205.887 150.512 205.88C148.394 205.162 146.118 205.012 143.921 205.447C143.852 205.465 143.778 205.457 143.715 205.424C143.652 205.391 143.604 205.336 143.579 205.27C143.571 205.238 143.57 205.204 143.576 205.171C143.582 205.138 143.595 205.107 143.614 205.079C143.633 205.052 143.657 205.028 143.686 205.01C143.715 204.992 143.747 204.98 143.78 204.975C146.099 204.503 148.505 204.661 150.738 205.433C150.771 205.443 150.801 205.46 150.826 205.482C150.852 205.504 150.872 205.532 150.886 205.563C150.9 205.593 150.906 205.627 150.906 205.66C150.906 205.694 150.898 205.727 150.884 205.757C150.854 205.802 150.811 205.837 150.761 205.859C150.712 205.881 150.656 205.888 150.602 205.88Z" fill="#F0F0F0"/>
<path d="M144.031 203.051C143.979 203.051 143.928 203.036 143.885 203.008C143.841 202.98 143.807 202.94 143.785 202.894C143.773 202.863 143.767 202.829 143.769 202.796C143.771 202.762 143.78 202.73 143.796 202.7C143.811 202.67 143.833 202.644 143.86 202.623C143.887 202.602 143.918 202.587 143.951 202.579C147.334 201.501 150.753 202.923 150.899 202.982C150.931 202.993 150.961 203.011 150.986 203.034C151.01 203.058 151.03 203.086 151.042 203.118C151.055 203.149 151.06 203.183 151.058 203.216C151.055 203.25 151.046 203.282 151.029 203.312C150.99 203.371 150.93 203.415 150.861 203.434C150.792 203.454 150.718 203.449 150.653 203.42C150.618 203.42 147.294 202.028 144.127 203.037C144.096 203.048 144.064 203.053 144.031 203.051Z" fill="#F0F0F0"/>
<path d="M144.152 200.813C144.101 200.81 144.051 200.795 144.009 200.767C143.966 200.739 143.932 200.701 143.911 200.655C143.897 200.625 143.891 200.592 143.891 200.559C143.892 200.526 143.9 200.493 143.915 200.463C143.93 200.433 143.951 200.407 143.977 200.386C144.003 200.364 144.034 200.349 144.066 200.34C146.395 199.594 148.924 199.731 151.154 200.724C151.186 200.738 151.213 200.757 151.236 200.782C151.258 200.807 151.275 200.836 151.285 200.868C151.295 200.9 151.298 200.933 151.294 200.966C151.289 200.999 151.278 201.031 151.26 201.059C151.218 201.117 151.157 201.158 151.086 201.174C151.016 201.19 150.942 201.181 150.878 201.147C148.796 200.244 146.448 200.118 144.277 200.793C144.237 200.806 144.194 200.813 144.152 200.813Z" fill="#F0F0F0"/>
<path d="M144.302 198.294C144.252 198.292 144.202 198.277 144.16 198.251C144.117 198.224 144.083 198.186 144.061 198.141C144.048 198.111 144.041 198.078 144.042 198.046C144.042 198.013 144.05 197.98 144.064 197.95C144.078 197.921 144.099 197.894 144.124 197.873C144.15 197.851 144.18 197.836 144.212 197.826C147.696 196.606 151.205 198.205 151.355 198.274C151.387 198.287 151.415 198.306 151.438 198.331C151.461 198.355 151.479 198.385 151.489 198.416C151.5 198.448 151.503 198.482 151.499 198.515C151.495 198.548 151.484 198.58 151.466 198.609C151.425 198.667 151.364 198.71 151.294 198.728C151.224 198.746 151.149 198.738 151.084 198.707C151.049 198.707 147.661 197.143 144.428 198.274C144.388 198.29 144.345 198.297 144.302 198.294Z" fill="#EBEBEB"/>
<path d="M148.258 112.956C147.49 126.811 146.295 152.39 146.295 152.39C146.125 154.004 144.619 161.133 144.468 166.948C144.217 176.296 144.599 184.936 144.599 184.936C144.599 184.936 150.065 187.224 153.86 185.748C153.86 185.748 158.88 164.626 160.13 158.545C161.636 151.298 164.849 136.872 164.849 136.872L167.359 156.016C167.359 156.016 166.566 162.835 167.359 168.469C167.896 172.306 169.919 185.074 169.919 185.074C169.919 185.074 174.939 186.131 179.091 184.842C179.091 184.842 181.024 157.714 181.265 154.176C181.506 150.639 182.208 132.435 181.32 110.117L148.258 112.956Z" fill="#37474F"/>
<path d="M179.302 182.328C177.294 183.804 171.772 183.711 169.458 182.52L170.16 186.535C171.812 187.475 176.686 187.657 179.111 186.018L179.302 182.328Z" fill="#263238"/>
<path d="M154.483 183.357C151.612 184.596 146.19 183.849 144.493 182.309V186.245C145.828 187.553 150.989 188.188 153.72 187.184L154.483 183.357Z" fill="#263238"/>
<path d="M164.849 136.848L166.958 124.44C169.599 124.295 172.106 123.251 174.046 121.488C174.046 121.488 173.714 124.346 168.072 126.176L166.139 136.474L167.379 156.011L164.849 136.848Z" fill="#263238"/>
<path d="M183.393 23.5451C183.393 22.3003 183.293 21.2032 183.283 19.6583C183.273 18.1134 183.574 17.0261 184.377 16.8982C185.18 16.7702 185.562 17.8477 185.793 19.8994C186.159 23.1761 186.43 25.5328 186.752 25.5918C187.66 24.411 187.951 24.1158 188.95 24.6767C189.623 25.0555 189.538 26.0936 189.538 26.0936C189.706 25.8998 189.942 25.775 190.2 25.7441C190.457 25.7131 190.717 25.7781 190.928 25.9264C191.148 26.0699 191.321 26.271 191.43 26.5068C191.538 26.7426 191.577 27.0035 191.541 27.2597C191.541 27.2597 192.043 26.807 192.665 27.4024C192.912 27.6327 193.105 27.9133 193.23 28.2243C193.355 28.5354 193.409 28.8694 193.388 29.2031L192.735 28.9522C192.646 29.1592 192.508 29.3428 192.334 29.4884C192.043 29.7443 191.832 30.4724 191.636 31.1071C191.44 31.7418 191.3 32.4601 190.702 32.5831C190.591 32.6252 190.472 32.6443 190.353 32.639C190.235 32.6337 190.118 32.6042 190.011 32.5523C189.905 32.5005 189.81 32.4275 189.734 32.3379C189.657 32.2484 189.601 32.1442 189.568 32.0321C189.54 31.7762 189.55 31.5176 189.598 31.2646C189.598 31.2646 189.277 32.1649 188.433 32.037C187.59 31.9091 187.595 31.1711 187.565 30.6938C187.063 30.8857 186.561 31.0235 186.295 30.6545C186.029 30.2855 186.024 28.6865 186.024 28.6865L184.668 28.4306C184.668 28.4306 183.458 28.2978 183.438 27.4171C183.403 25.8722 183.398 24.9424 183.393 23.5451Z" fill="#D9BDBD"/>
<path d="M193.393 29.2031C193.157 30.4478 192.032 34.7971 191.691 35.4072C191.279 36.1354 191.119 36.9127 191.189 39.1562C191.229 40.3715 192.78 55.1708 192.78 55.1708L183.242 52.637L184.327 38.9988C183.955 36.4748 183.358 35.3629 182.494 34.2953C181.36 32.8832 181.159 32.0272 181.26 31.2744C181.47 29.7148 182.013 27.4909 182.264 27.1121C182.645 26.5069 183.77 26.2019 183.77 26.2019C184.216 26.0678 184.686 26.0259 185.15 26.0789L187.479 27.7025C187.479 27.7025 187.479 28.4405 186.927 28.6865C186.643 28.8201 186.324 28.8631 186.014 28.8095C186.014 28.8095 185.958 30.2855 186.3 30.5954C186.641 30.9054 186.902 30.9841 187.454 30.5216C187.545 31.0678 187.645 31.9042 188.308 31.9976C188.97 32.0911 189.603 31.2842 189.603 31.2842C189.603 31.2842 189.743 32.7602 190.235 32.7602C190.727 32.7602 191.942 28.1354 191.942 28.1354L193.393 29.2031Z" fill="#D9BDBD"/>
<path d="M183.574 45.7392L183.75 42.8807C183.75 42.8807 185.135 43.6531 187.766 43.4711C189.094 43.4277 190.405 43.1597 191.641 42.679L191.987 45.8032C191.987 45.8032 187.68 48.0565 183.574 45.7392Z" fill="#FAFAFA"/>
<path d="M183.534 29.4835C184.48 29.8729 185.357 30.4095 186.129 31.0727C187.089 31.9374 187.879 32.9681 188.458 34.1133C188.21 32.9987 187.668 31.9674 186.887 31.1219C187.07 31.1109 187.245 31.0457 187.389 30.9349C187.389 31.6237 187.505 32.2732 188.393 32.2781C188.587 32.2937 188.781 32.2597 188.957 32.1795C189.133 32.0993 189.285 31.9756 189.397 31.8205C189.383 32.0069 189.427 32.1931 189.521 32.3552C189.616 32.5173 189.758 32.6481 189.929 32.7307C190.117 32.8328 190.336 32.8651 190.546 32.8217C190.757 32.7783 190.944 32.6622 191.074 32.4946C191.12 32.4202 191.162 32.3429 191.199 32.2633C191.202 32.2504 191.202 32.237 191.199 32.224C191.199 32.224 191.199 32.224 191.174 32.224L191.074 32.3125C190.962 32.4274 190.824 32.5143 190.671 32.5657C190.518 32.6171 190.355 32.6315 190.195 32.6077C190.087 32.5493 189.993 32.4669 189.923 32.367C189.852 32.2671 189.806 32.1524 189.789 32.0321C189.723 31.6609 189.723 31.2815 189.789 30.9103C189.793 30.8959 189.793 30.8805 189.789 30.8661C189.789 30.8365 189.713 30.8661 189.688 30.8907C189.538 31.0579 189.432 31.2597 189.292 31.4368C189.201 31.5483 189.084 31.6372 188.952 31.6962C188.819 31.7552 188.674 31.7826 188.529 31.7763C187.901 31.7763 187.751 31.0137 187.766 30.5167C187.766 30.3544 187.791 30.192 187.791 30.0247C187.791 30.0247 187.791 29.9706 187.756 29.9706C187.672 30.0398 187.603 30.1231 187.55 30.2166C187.484 30.314 187.406 30.4032 187.319 30.4823C187.213 30.5898 187.076 30.6635 186.927 30.6939C186.591 30.748 186.455 30.4479 186.34 30.2019C186.158 29.7885 186.09 29.3354 186.144 28.8882V28.8439H186.265C187.474 29.0063 187.901 27.8599 187.515 27.5401C187.128 27.2203 185.481 26.0199 185.065 25.9559C184.626 25.9376 184.188 26.0097 183.78 26.1675L185.005 26.1133C185.005 26.1133 187.359 27.5893 187.334 27.8796C187.299 28.0886 187.187 28.2775 187.018 28.4094C186.849 28.5413 186.636 28.6067 186.42 28.593C185.816 28.5509 185.22 28.4386 184.643 28.2585C184.583 28.7603 183.534 29.4835 183.534 29.4835ZM184.277 29.0555C184.458 28.9615 184.604 28.8133 184.693 28.6324C184.693 28.6324 184.974 28.7062 185.908 28.8341C185.817 29.0242 185.738 29.2197 185.672 29.4196C185.629 29.5297 185.566 29.6314 185.486 29.7197C185.466 29.7448 185.441 29.765 185.411 29.7787C185.052 29.5097 184.673 29.2679 184.277 29.0555Z" fill="#9A4A4D"/>
<path d="M172.967 70.3243C174.162 68.9262 175.456 67.6111 176.837 66.3883C178.489 64.868 182.223 57.4339 182.223 57.4339L183.388 44.5681C184.663 45.867 189.914 45.7145 191.922 44.6222C191.922 44.6222 192.585 48.2926 193.227 55.5397C193.533 58.9198 193.584 59.4757 191.259 64.5482C189.718 67.9135 188.549 69.9602 186.345 74.462C184.412 78.4325 181.129 84.8728 180.522 87.6772C180.356 88.4299 180.361 89.4484 179.307 89.468C177.69 89.4976 176.23 84.2479 175.1 82.0093C172.967 77.7683 172.71 72.2726 172.967 70.3243Z" fill="#CC0000"/>
<path d="M158.318 70.7524C153.158 71.884 151.607 72.3711 149.167 72.927C149.167 72.927 144.619 85.473 146.808 94.2208C147.31 96.2331 148.459 102.703 148.454 106.398C148.454 109.925 148.414 111.077 148.032 116.085C148.032 116.085 154.94 120.808 169.382 119.367C180.723 118.235 181.511 114.324 181.511 114.324C181.511 114.324 180.888 99.0276 180.617 90.8555C180.346 82.5702 179.171 75.8003 176.571 71.9234C176.132 71.2858 175.51 70.7905 174.783 70.5006C174.056 70.2106 173.258 70.139 172.49 70.2948C170.246 70.7179 167.972 70.9098 167.972 70.9098L158.318 70.7524Z" fill="#CC0000"/>
<path d="M134.012 98.6292C133.153 101.394 133.279 102.565 134.202 105.325C134.781 107.051 135.35 108.781 135.909 110.516C136.652 112.818 137.917 116.661 138.178 117.566C138.476 118.491 138.595 119.462 138.53 120.43C138.38 121.418 138.318 122.417 138.344 123.416C138.382 124.606 138.595 125.784 138.976 126.914C139.237 127.697 139.378 128.543 139.694 129.3C139.977 129.825 140.313 130.319 140.698 130.776C141.075 131.318 141.175 131.987 141.647 132.474C142.48 133.335 143.394 133.507 144.207 133.95C144.538 134.486 145.076 135.603 145.452 136.105C146.406 137.389 146.777 135.406 146.787 134.722C146.771 133.99 146.677 133.261 146.506 132.548C146.092 130.762 145.782 128.956 145.578 127.136C145.542 126.811 145.231 125.463 145.778 125.497C145.867 125.514 145.951 125.548 146.026 125.597C146.101 125.646 146.165 125.709 146.215 125.783C146.53 126.24 146.819 126.713 147.084 127.2C147.334 127.558 147.611 127.899 147.912 128.218C148.145 128.51 148.433 128.755 148.76 128.941C149.107 129.109 150.402 129.286 150.497 128.7C150.505 128.606 150.488 128.511 150.447 128.425C150.221 127.8 149.945 127.2 149.704 126.58C149.452 125.965 149.24 125.336 149.066 124.695C148.63 122.683 148.198 121.03 147.058 119.328C145.05 116.272 143.374 101.867 143.374 101.867L147.39 90.6293C147.39 90.6293 150.738 86.1127 150.904 80.4449C151.069 74.777 149.051 73.1042 149.051 73.1042C144.182 73.8914 141.828 75.2592 140.362 79.2247C138.896 83.1902 134.885 95.8199 134.012 98.6292Z" fill="#D9BDBD"/>
<path d="M144.764 110.673L145.382 113.738C145.382 113.738 144.127 113.404 140.999 114.506C139.813 114.882 138.693 115.433 137.676 116.139L136.672 113.045L144.764 110.673Z" fill="#FAFAFA"/>
<path d="M133.158 100.543C133.359 99.5049 134.83 93.473 137.254 86.0635C139.679 78.654 140.201 78.0832 142.033 75.9135C143.866 73.7438 146.797 73.3748 149.187 72.9172C149.187 72.9172 151.12 74.4424 151.195 79.4707C151.257 83.3282 150.189 87.1222 148.118 90.4029L143.539 101.822L144.955 111.505C142.03 111.512 139.211 112.581 137.044 114.506L134.257 106.634C132.837 102.255 132.962 101.586 133.158 100.543Z" fill="#CC0000"/>
<path opacity="0.2" d="M133.158 100.543C133.359 99.5049 134.83 93.473 137.254 86.0635C139.679 78.654 140.201 78.0832 142.033 75.9135C143.866 73.7438 146.797 73.3748 149.187 72.9172C149.187 72.9172 151.12 74.4424 151.195 79.4707C151.257 83.3282 150.189 87.1222 148.118 90.4029L143.539 101.822L144.955 111.505C142.03 111.512 139.211 112.581 137.044 114.506L134.257 106.634C132.837 102.255 132.962 101.586 133.158 100.543Z" fill="#DC9797"/>
<path d="M168.047 70.3885C168.047 70.3885 171.521 73.3405 170.442 76.1941C169.362 79.0477 164.418 79.6381 160.522 77.0158C156.627 74.3934 156.903 71.2643 156.903 71.2643L158.343 70.7969C158.472 71.4833 158.757 72.1325 159.177 72.696C159.799 73.3996 166.988 76.1843 167.159 77.0354C167.159 77.0354 168.218 74.9543 168.529 74.1769C168.84 73.3996 167.209 70.2803 167.209 70.2803L168.047 70.3885Z" fill="#FAFAFA"/>
<path d="M173.368 52.8387C174.372 50.0491 172.916 46.5509 171.36 44.9667C169.101 42.6838 165.788 41.872 160.939 42.5067C157.254 42.9987 153.725 44.7748 153.313 48.5534C150.407 49.6407 151.11 54.4082 152.008 56.4647C153.835 60.6467 157.078 64.1645 157.294 66.3539L173.368 52.8387Z" fill="#263238"/>
<path d="M174.131 62.9296C173.705 65.0403 172.595 66.6491 170.668 67.0919C169.648 67.2669 168.615 67.3477 167.58 67.333V71.0132C169.016 72.7204 168.313 74.8901 167.154 77.0352C165.146 74.6589 159.378 73.7192 157.023 70.8656L156.827 62.354C156.827 62.354 155.733 63.7758 153.67 62.659C152.83 62.14 152.199 61.3527 151.883 60.4301C151.568 59.5076 151.587 58.5065 151.938 57.5963C152.761 55.5053 154.779 56.199 155.452 56.7698C156.125 57.3405 156.888 58.4426 157.375 58.2458C157.657 58.1367 157.907 57.9603 158.103 57.7327C158.298 57.5051 158.433 57.2333 158.494 56.942C158.857 55.6539 158.973 54.3109 158.835 52.9814C159.345 52.6815 159.789 52.2851 160.141 51.8153C160.914 50.8313 160.899 49.7391 160.858 48.7403C164.985 47.1364 170.396 47.2643 172.264 48.4746C173.403 50.1425 173.77 54.1917 174.096 56.5139C174.474 58.6355 174.486 60.8042 174.131 62.9296Z" fill="#D9BDBD"/>
<path d="M167.58 67.3331C165.411 67.3676 160.989 66.6984 159.744 65.6013C158.499 64.5041 157.816 62.1179 157.816 62.1179C157.816 62.1179 158.107 64.6714 159.106 65.9555C160.105 67.2396 162.525 67.9235 163.925 68.1449C165.326 68.3663 167.58 68.4844 167.58 68.4844V67.3331Z" fill="#9A4A4D"/>
<path d="M165.346 55.7317C165.359 55.8491 165.349 55.968 165.314 56.0813C165.28 56.1946 165.224 56.3001 165.147 56.3917C165.071 56.4832 164.977 56.5591 164.871 56.6147C164.765 56.6703 164.648 56.7047 164.528 56.7157C164.286 56.7278 164.049 56.6456 163.868 56.4871C163.688 56.3286 163.578 56.1066 163.564 55.8695C163.55 55.7519 163.561 55.6328 163.594 55.5192C163.628 55.4057 163.685 55.2999 163.761 55.2081C163.838 55.1164 163.932 55.0406 164.038 54.9852C164.145 54.9298 164.262 54.8958 164.382 54.8855C164.502 54.8788 164.623 54.8955 164.736 54.9344C164.849 54.9734 164.954 55.0339 165.043 55.1125C165.133 55.1911 165.206 55.2863 165.258 55.3925C165.31 55.4988 165.34 55.614 165.346 55.7317Z" fill="#263238"/>
<path d="M172.269 53.385L170.196 52.6568C170.237 52.5224 170.307 52.3978 170.399 52.2904C170.492 52.183 170.605 52.0952 170.734 52.0322C170.862 51.9691 171.001 51.9323 171.145 51.9238C171.288 51.9153 171.431 51.9354 171.566 51.9828C171.844 52.0841 172.071 52.286 172.202 52.5468C172.333 52.8075 172.357 53.1075 172.269 53.385Z" fill="#263238"/>
<path d="M164.222 53.4537L162.55 54.8609C162.451 54.7586 162.374 54.6377 162.324 54.5053C162.274 54.373 162.252 54.2321 162.26 54.0912C162.267 53.9503 162.304 53.8124 162.368 53.6858C162.431 53.5593 162.521 53.4469 162.63 53.3553C162.858 53.168 163.15 53.0738 163.446 53.0921C163.743 53.1104 164.02 53.2399 164.222 53.4537Z" fill="#263238"/>
<path d="M172.153 54.8215C172.16 54.9942 172.114 55.1649 172.022 55.3124C171.93 55.4599 171.796 55.5777 171.637 55.651C171.477 55.7244 171.299 55.7501 171.124 55.7249C170.95 55.6997 170.787 55.6249 170.656 55.5096C170.524 55.3943 170.431 55.2436 170.386 55.0765C170.341 54.9093 170.348 54.733 170.405 54.5694C170.462 54.4059 170.566 54.2623 170.706 54.1567C170.845 54.051 171.014 53.988 171.189 53.9753C171.431 53.9632 171.669 54.0454 171.849 54.2039C172.03 54.3624 172.139 54.5844 172.153 54.8215Z" fill="#263238"/>
<path d="M167.324 53.5867L168.444 59.8252L171.807 58.5559L167.324 53.5867Z" fill="#D7A9AB"/>
<path d="M164.995 61.011C164.903 61.4774 165.001 61.9603 165.267 62.3572C165.533 62.7542 165.947 63.0339 166.42 63.1369C166.893 63.24 167.388 63.1584 167.801 62.9094C168.213 62.6603 168.51 62.2635 168.629 61.8031L164.995 61.011Z" fill="#9A4A4D"/>
<path d="M165.462 61.926C165.885 61.8549 166.319 61.9343 166.688 62.15C167.056 62.3656 167.333 62.7033 167.47 63.1019C167.24 63.1901 166.995 63.2326 166.749 63.2267C166.502 63.2209 166.259 63.1669 166.035 63.0679C165.81 62.969 165.607 62.827 165.439 62.6503C165.271 62.4737 165.14 62.2659 165.055 62.0392C165.186 61.988 165.323 61.9501 165.462 61.926Z" fill="#F28F8F"/>
<path d="M167.153 77.0401C166.039 76.4153 163.83 75.0131 162.786 76.3907C161.742 77.7683 160.994 79.3427 160.196 79.136C159.397 78.9294 156.416 77.0106 155.356 74.9442C154.843 73.9244 154.546 72.813 154.483 71.6773C155.036 70.8882 155.539 70.0666 155.989 69.2173C156.416 68.3416 156.275 67.9185 156.993 67.8545L157.043 70.039C157.892 70.9349 158.829 71.7473 159.839 72.4645C161.777 73.7683 165.657 74.0488 167.153 77.0401Z" fill="#EBEBEB"/>
<path d="M167.154 77.0403C167.791 76.445 168.228 75.4217 169.302 75.6923C170.376 75.9629 171.963 78.3097 171.978 77.7488C171.993 77.1879 171.205 73.2273 170.366 72.0711C169.528 70.9149 168.308 68.696 167.58 68.7551V71.0183C167.58 71.0183 168.404 72.7304 168.278 73.6751C168.153 74.6197 167.264 76.1203 167.154 77.0403Z" fill="#EBEBEB"/>
<path opacity="0.2" d="M172.967 70.3246C174.162 68.9265 175.456 67.6113 176.837 66.3886C178.489 64.8683 182.223 57.4342 182.223 57.4342L183.388 44.5684C184.663 45.8672 189.914 45.7147 191.922 44.6225C191.922 44.6225 192.585 48.2928 193.227 55.54C193.533 58.92 193.584 59.476 191.259 64.5485C189.718 67.9138 188.549 69.9605 186.345 74.4623C184.412 78.4327 181.129 84.873 180.522 87.6774C180.356 88.4302 180.361 89.4486 179.307 89.4683C177.69 89.4978 176.23 84.2482 175.1 82.0096C172.967 77.7685 172.71 72.2729 172.967 70.3246Z" fill="#DC9797"/>
</svg>
