<svg width="41" height="41" viewBox="0 0 41 41" fill="none" xmlns="http://www.w3.org/2000/svg">
<circle cx="20.0469" cy="20.3611" r="20" fill="white"/>
<path fill-rule="evenodd" clip-rule="evenodd" d="M27.1563 25.9493C27.7463 25.0493 27.9663 24.5893 28.4163 23.5793C25.0963 22.3193 24.5663 17.5893 27.8463 15.7793C26.8463 14.5193 25.4363 13.7893 24.1063 13.7893C23.1463 13.7893 22.4863 14.0393 21.8963 14.2693C21.3963 14.4593 20.9463 14.6293 20.3863 14.6293C19.7863 14.6293 19.2563 14.4393 18.6963 14.2393C18.0863 14.0193 17.4463 13.7893 16.6463 13.7893C15.1563 13.7893 13.5663 14.6993 12.5563 16.2593C11.1363 18.4593 11.3863 22.5793 13.6763 26.0993C14.4963 27.3593 15.5963 28.7693 17.0263 28.7893C17.6263 28.7993 18.0163 28.6193 18.4463 28.4293C18.9363 28.2093 19.4663 27.9693 20.3963 27.9693C21.3263 27.9593 21.8463 28.2093 22.3363 28.4293C22.7563 28.6193 23.1363 28.7993 23.7263 28.7893C25.1763 28.7693 26.3363 27.2093 27.1563 25.9493Z" fill="#050505"/>
<path fill-rule="evenodd" clip-rule="evenodd" d="M23.8967 8.78931C24.0567 9.88931 23.6067 10.9793 23.0167 11.7393C22.3867 12.5593 21.2867 13.1993 20.2267 13.1593C20.0367 12.0993 20.5267 11.0093 21.1267 10.2793C21.7967 9.4793 22.9267 8.85931 23.8967 8.78931Z" fill="#050505"/>
</svg>
