<svg width="41" height="41" viewBox="0 0 41 41" fill="none" xmlns="http://www.w3.org/2000/svg">
<path d="M20.0469 40.3611C31.0926 40.3611 40.0469 31.4068 40.0469 20.3611C40.0469 9.31538 31.0926 0.361084 20.0469 0.361084C9.00119 0.361084 0.046875 9.31538 0.046875 20.3611C0.046875 31.4068 9.00119 40.3611 20.0469 40.3611Z" fill="#1877F2"/>
<path d="M23.9869 21.9976L24.4907 18.7133H21.3395V16.5819C21.3395 15.6834 21.7797 14.8076 23.1911 14.8076H24.6238V12.0115C24.6238 12.0115 23.3236 11.7896 22.0804 11.7896C19.4852 11.7896 17.7889 13.3625 17.7889 16.2101V18.7133H14.904V21.9976H17.7889V29.9372C18.9653 30.1213 20.1631 30.1213 21.3395 29.9372V21.9976H23.9869Z" fill="white"/>
</svg>
