<svg width="188" height="189" viewBox="0 0 188 189" fill="none" xmlns="http://www.w3.org/2000/svg">
<g filter="url(#filter0_d_3192_36352)">
<g clip-path="url(#clip0_3192_36352)">
<rect y="0.5" width="184" height="184" rx="12" fill="#0A52BE"/>
<g clip-path="url(#clip1_3192_36352)">
<path d="M52.4655 32H49.5V34.9655H52.4655V32Z" fill="white"/>
<path d="M55.431 32H52.4655V34.9655H55.431V32Z" fill="white"/>
<path d="M58.3966 32H55.431V34.9655H58.3966V32Z" fill="white"/>
<path d="M61.3621 32H58.3966V34.9655H61.3621V32Z" fill="white"/>
<path d="M64.3276 32H61.3621V34.9655H64.3276V32Z" fill="white"/>
<path d="M67.2931 32H64.3276V34.9655H67.2931V32Z" fill="white"/>
<path d="M70.2586 32H67.2931V34.9655H70.2586V32Z" fill="white"/>
<path d="M76.1897 32H73.2241V34.9655H76.1897V32Z" fill="white"/>
<path d="M79.1552 32H76.1897V34.9655H79.1552V32Z" fill="white"/>
<path d="M88.0517 32H85.0862V34.9655H88.0517V32Z" fill="white"/>
<path d="M91.0172 32H88.0517V34.9655H91.0172V32Z" fill="white"/>
<path d="M96.9483 32H93.9828V34.9655H96.9483V32Z" fill="white"/>
<path d="M105.845 32H102.879V34.9655H105.845V32Z" fill="white"/>
<path d="M117.707 32H114.741V34.9655H117.707V32Z" fill="white"/>
<path d="M120.672 32H117.707V34.9655H120.672V32Z" fill="white"/>
<path d="M123.638 32H120.672V34.9655H123.638V32Z" fill="white"/>
<path d="M126.603 32H123.638V34.9655H126.603V32Z" fill="white"/>
<path d="M129.569 32H126.603V34.9655H129.569V32Z" fill="white"/>
<path d="M132.534 32H129.569V34.9655H132.534V32Z" fill="white"/>
<path d="M135.5 32H132.534V34.9655H135.5V32Z" fill="white"/>
<path d="M52.4655 34.9655H49.5V37.931H52.4655V34.9655Z" fill="white"/>
<path d="M70.2586 34.9655H67.2931V37.931H70.2586V34.9655Z" fill="white"/>
<path d="M79.1552 34.9655H76.1897V37.931H79.1552V34.9655Z" fill="white"/>
<path d="M91.0172 34.9655H88.0517V37.931H91.0172V34.9655Z" fill="white"/>
<path d="M93.9828 34.9655H91.0172V37.931H93.9828V34.9655Z" fill="white"/>
<path d="M96.9483 34.9655H93.9828V37.931H96.9483V34.9655Z" fill="white"/>
<path d="M99.9138 34.9655H96.9483V37.931H99.9138V34.9655Z" fill="white"/>
<path d="M111.776 34.9655H108.81V37.931H111.776V34.9655Z" fill="white"/>
<path d="M117.707 34.9655H114.741V37.931H117.707V34.9655Z" fill="white"/>
<path d="M135.5 34.9655H132.534V37.931H135.5V34.9655Z" fill="white"/>
<path d="M52.4655 37.931H49.5V40.8966H52.4655V37.931Z" fill="white"/>
<path d="M58.3966 37.931H55.431V40.8966H58.3966V37.931Z" fill="white"/>
<path d="M61.3621 37.931H58.3966V40.8966H61.3621V37.931Z" fill="white"/>
<path d="M64.3276 37.931H61.3621V40.8966H64.3276V37.931Z" fill="white"/>
<path d="M70.2586 37.931H67.2931V40.8966H70.2586V37.931Z" fill="white"/>
<path d="M76.1897 37.931H73.2241V40.8966H76.1897V37.931Z" fill="white"/>
<path d="M79.1552 37.931H76.1897V40.8966H79.1552V37.931Z" fill="white"/>
<path d="M82.1207 37.931H79.1552V40.8966H82.1207V37.931Z" fill="white"/>
<path d="M91.0172 37.931H88.0517V40.8966H91.0172V37.931Z" fill="white"/>
<path d="M93.9828 37.931H91.0172V40.8966H93.9828V37.931Z" fill="white"/>
<path d="M99.9138 37.931H96.9483V40.8966H99.9138V37.931Z" fill="white"/>
<path d="M105.845 37.931H102.879V40.8966H105.845V37.931Z" fill="white"/>
<path d="M108.81 37.931H105.845V40.8966H108.81V37.931Z" fill="white"/>
<path d="M111.776 37.931H108.81V40.8966H111.776V37.931Z" fill="white"/>
<path d="M117.707 37.931H114.741V40.8966H117.707V37.931Z" fill="white"/>
<path d="M123.638 37.931H120.672V40.8966H123.638V37.931Z" fill="white"/>
<path d="M126.603 37.931H123.638V40.8966H126.603V37.931Z" fill="white"/>
<path d="M129.569 37.931H126.603V40.8966H129.569V37.931Z" fill="white"/>
<path d="M135.5 37.931H132.534V40.8966H135.5V37.931Z" fill="white"/>
<path d="M52.4655 40.8966H49.5V43.8621H52.4655V40.8966Z" fill="white"/>
<path d="M58.3966 40.8966H55.431V43.8621H58.3966V40.8966Z" fill="white"/>
<path d="M61.3621 40.8966H58.3966V43.8621H61.3621V40.8966Z" fill="white"/>
<path d="M64.3276 40.8966H61.3621V43.8621H64.3276V40.8966Z" fill="white"/>
<path d="M70.2586 40.8966H67.2931V43.8621H70.2586V40.8966Z" fill="white"/>
<path d="M76.1897 40.8966H73.2241V43.8621H76.1897V40.8966Z" fill="white"/>
<path d="M82.1207 40.8966H79.1552V43.8621H82.1207V40.8966Z" fill="white"/>
<path d="M93.9828 40.8966H91.0172V43.8621H93.9828V40.8966Z" fill="white"/>
<path d="M99.9138 40.8966H96.9483V43.8621H99.9138V40.8966Z" fill="white"/>
<path d="M102.879 40.8966H99.9138V43.8621H102.879V40.8966Z" fill="white"/>
<path d="M111.776 40.8966H108.81V43.8621H111.776V40.8966Z" fill="white"/>
<path d="M117.707 40.8966H114.741V43.8621H117.707V40.8966Z" fill="white"/>
<path d="M123.638 40.8966H120.672V43.8621H123.638V40.8966Z" fill="white"/>
<path d="M126.603 40.8966H123.638V43.8621H126.603V40.8966Z" fill="white"/>
<path d="M129.569 40.8966H126.603V43.8621H129.569V40.8966Z" fill="white"/>
<path d="M135.5 40.8966H132.534V43.8621H135.5V40.8966Z" fill="white"/>
<path d="M52.4655 43.8621H49.5V46.8276H52.4655V43.8621Z" fill="white"/>
<path d="M58.3966 43.8621H55.431V46.8276H58.3966V43.8621Z" fill="white"/>
<path d="M61.3621 43.8621H58.3966V46.8276H61.3621V43.8621Z" fill="white"/>
<path d="M64.3276 43.8621H61.3621V46.8276H64.3276V43.8621Z" fill="white"/>
<path d="M70.2586 43.8621H67.2931V46.8276H70.2586V43.8621Z" fill="white"/>
<path d="M79.1552 43.8621H76.1897V46.8276H79.1552V43.8621Z" fill="white"/>
<path d="M82.1207 43.8621H79.1552V46.8276H82.1207V43.8621Z" fill="white"/>
<path d="M88.0517 43.8621H85.0862V46.8276H88.0517V43.8621Z" fill="white"/>
<path d="M91.0172 43.8621H88.0517V46.8276H91.0172V43.8621Z" fill="white"/>
<path d="M93.9828 43.8621H91.0172V46.8276H93.9828V43.8621Z" fill="white"/>
<path d="M105.845 43.8621H102.879V46.8276H105.845V43.8621Z" fill="white"/>
<path d="M108.81 43.8621H105.845V46.8276H108.81V43.8621Z" fill="white"/>
<path d="M111.776 43.8621H108.81V46.8276H111.776V43.8621Z" fill="white"/>
<path d="M117.707 43.8621H114.741V46.8276H117.707V43.8621Z" fill="white"/>
<path d="M123.638 43.8621H120.672V46.8276H123.638V43.8621Z" fill="white"/>
<path d="M126.603 43.8621H123.638V46.8276H126.603V43.8621Z" fill="white"/>
<path d="M129.569 43.8621H126.603V46.8276H129.569V43.8621Z" fill="white"/>
<path d="M135.5 43.8621H132.534V46.8276H135.5V43.8621Z" fill="white"/>
<path d="M52.4655 46.8276H49.5V49.7931H52.4655V46.8276Z" fill="white"/>
<path d="M70.2586 46.8276H67.2931V49.7931H70.2586V46.8276Z" fill="white"/>
<path d="M76.1897 46.8276H73.2241V49.7931H76.1897V46.8276Z" fill="white"/>
<path d="M96.9483 46.8276H93.9828V49.7931H96.9483V46.8276Z" fill="white"/>
<path d="M102.879 46.8276H99.9138V49.7931H102.879V46.8276Z" fill="white"/>
<path d="M111.776 46.8276H108.81V49.7931H111.776V46.8276Z" fill="white"/>
<path d="M117.707 46.8276H114.741V49.7931H117.707V46.8276Z" fill="white"/>
<path d="M135.5 46.8276H132.534V49.7931H135.5V46.8276Z" fill="white"/>
<path d="M52.4655 49.7931H49.5V52.7586H52.4655V49.7931Z" fill="white"/>
<path d="M55.431 49.7931H52.4655V52.7586H55.431V49.7931Z" fill="white"/>
<path d="M58.3966 49.7931H55.431V52.7586H58.3966V49.7931Z" fill="white"/>
<path d="M61.3621 49.7931H58.3966V52.7586H61.3621V49.7931Z" fill="white"/>
<path d="M64.3276 49.7931H61.3621V52.7586H64.3276V49.7931Z" fill="white"/>
<path d="M67.2931 49.7931H64.3276V52.7586H67.2931V49.7931Z" fill="white"/>
<path d="M70.2586 49.7931H67.2931V52.7586H70.2586V49.7931Z" fill="white"/>
<path d="M76.1897 49.7931H73.2241V52.7586H76.1897V49.7931Z" fill="white"/>
<path d="M82.1207 49.7931H79.1552V52.7586H82.1207V49.7931Z" fill="white"/>
<path d="M88.0517 49.7931H85.0862V52.7586H88.0517V49.7931Z" fill="white"/>
<path d="M93.9828 49.7931H91.0172V52.7586H93.9828V49.7931Z" fill="white"/>
<path d="M99.9138 49.7931H96.9483V52.7586H99.9138V49.7931Z" fill="white"/>
<path d="M105.845 49.7931H102.879V52.7586H105.845V49.7931Z" fill="white"/>
<path d="M111.776 49.7931H108.81V52.7586H111.776V49.7931Z" fill="white"/>
<path d="M117.707 49.7931H114.741V52.7586H117.707V49.7931Z" fill="white"/>
<path d="M120.672 49.7931H117.707V52.7586H120.672V49.7931Z" fill="white"/>
<path d="M123.638 49.7931H120.672V52.7586H123.638V49.7931Z" fill="white"/>
<path d="M126.603 49.7931H123.638V52.7586H126.603V49.7931Z" fill="white"/>
<path d="M129.569 49.7931H126.603V52.7586H129.569V49.7931Z" fill="white"/>
<path d="M132.534 49.7931H129.569V52.7586H132.534V49.7931Z" fill="white"/>
<path d="M135.5 49.7931H132.534V52.7586H135.5V49.7931Z" fill="white"/>
<path d="M76.1897 52.7586H73.2241V55.7241H76.1897V52.7586Z" fill="white"/>
<path d="M82.1207 52.7586H79.1552V55.7241H82.1207V52.7586Z" fill="white"/>
<path d="M85.0862 52.7586H82.1207V55.7241H85.0862V52.7586Z" fill="white"/>
<path d="M88.0517 52.7586H85.0862V55.7241H88.0517V52.7586Z" fill="white"/>
<path d="M96.9483 52.7586H93.9828V55.7241H96.9483V52.7586Z" fill="white"/>
<path d="M99.9138 52.7586H96.9483V55.7241H99.9138V52.7586Z" fill="white"/>
<path d="M108.81 52.7586H105.845V55.7241H108.81V52.7586Z" fill="white"/>
<path d="M52.4655 55.7241H49.5V58.6897H52.4655V55.7241Z" fill="white"/>
<path d="M55.431 55.7241H52.4655V58.6897H55.431V55.7241Z" fill="white"/>
<path d="M61.3621 55.7241H58.3966V58.6897H61.3621V55.7241Z" fill="white"/>
<path d="M70.2586 55.7241H67.2931V58.6897H70.2586V55.7241Z" fill="white"/>
<path d="M73.2241 55.7241H70.2586V58.6897H73.2241V55.7241Z" fill="white"/>
<path d="M79.1552 55.7241H76.1897V58.6897H79.1552V55.7241Z" fill="white"/>
<path d="M82.1207 55.7241H79.1552V58.6897H82.1207V55.7241Z" fill="white"/>
<path d="M85.0862 55.7241H82.1207V58.6897H85.0862V55.7241Z" fill="white"/>
<path d="M93.9828 55.7241H91.0172V58.6897H93.9828V55.7241Z" fill="white"/>
<path d="M108.81 55.7241H105.845V58.6897H108.81V55.7241Z" fill="white"/>
<path d="M114.741 55.7241H111.776V58.6897H114.741V55.7241Z" fill="white"/>
<path d="M117.707 55.7241H114.741V58.6897H117.707V55.7241Z" fill="white"/>
<path d="M120.672 55.7241H117.707V58.6897H120.672V55.7241Z" fill="white"/>
<path d="M126.603 55.7241H123.638V58.6897H126.603V55.7241Z" fill="white"/>
<path d="M129.569 55.7241H126.603V58.6897H129.569V55.7241Z" fill="white"/>
<path d="M135.5 55.7241H132.534V58.6897H135.5V55.7241Z" fill="white"/>
<path d="M52.4655 58.6897H49.5V61.6552H52.4655V58.6897Z" fill="white"/>
<path d="M64.3276 58.6897H61.3621V61.6552H64.3276V58.6897Z" fill="white"/>
<path d="M73.2241 58.6897H70.2586V61.6552H73.2241V58.6897Z" fill="white"/>
<path d="M76.1897 58.6897H73.2241V61.6552H76.1897V58.6897Z" fill="white"/>
<path d="M93.9828 58.6897H91.0172V61.6552H93.9828V58.6897Z" fill="white"/>
<path d="M99.9138 58.6897H96.9483V61.6552H99.9138V58.6897Z" fill="white"/>
<path d="M102.879 58.6897H99.9138V61.6552H102.879V58.6897Z" fill="white"/>
<path d="M120.672 58.6897H117.707V61.6552H120.672V58.6897Z" fill="white"/>
<path d="M123.638 58.6897H120.672V61.6552H123.638V58.6897Z" fill="white"/>
<path d="M126.603 58.6897H123.638V61.6552H126.603V58.6897Z" fill="white"/>
<path d="M129.569 58.6897H126.603V61.6552H129.569V58.6897Z" fill="white"/>
<path d="M135.5 58.6897H132.534V61.6552H135.5V58.6897Z" fill="white"/>
<path d="M61.3621 61.6552H58.3966V64.6207H61.3621V61.6552Z" fill="white"/>
<path d="M67.2931 61.6552H64.3276V64.6207H67.2931V61.6552Z" fill="white"/>
<path d="M70.2586 61.6552H67.2931V64.6207H70.2586V61.6552Z" fill="white"/>
<path d="M76.1897 61.6552H73.2241V64.6207H76.1897V61.6552Z" fill="white"/>
<path d="M79.1552 61.6552H76.1897V64.6207H79.1552V61.6552Z" fill="white"/>
<path d="M82.1207 61.6552H79.1552V64.6207H82.1207V61.6552Z" fill="white"/>
<path d="M85.0862 61.6552H82.1207V64.6207H85.0862V61.6552Z" fill="white"/>
<path d="M88.0517 61.6552H85.0862V64.6207H88.0517V61.6552Z" fill="white"/>
<path d="M91.0172 61.6552H88.0517V64.6207H91.0172V61.6552Z" fill="white"/>
<path d="M93.9828 61.6552H91.0172V64.6207H93.9828V61.6552Z" fill="white"/>
<path d="M96.9483 61.6552H93.9828V64.6207H96.9483V61.6552Z" fill="white"/>
<path d="M102.879 61.6552H99.9138V64.6207H102.879V61.6552Z" fill="white"/>
<path d="M108.81 61.6552H105.845V64.6207H108.81V61.6552Z" fill="white"/>
<path d="M111.776 61.6552H108.81V64.6207H111.776V61.6552Z" fill="white"/>
<path d="M123.638 61.6552H120.672V64.6207H123.638V61.6552Z" fill="white"/>
<path d="M126.603 61.6552H123.638V64.6207H126.603V61.6552Z" fill="white"/>
<path d="M129.569 61.6552H126.603V64.6207H129.569V61.6552Z" fill="white"/>
<path d="M135.5 61.6552H132.534V64.6207H135.5V61.6552Z" fill="white"/>
<path d="M55.431 64.6207H52.4655V67.5862H55.431V64.6207Z" fill="white"/>
<path d="M64.3276 64.6207H61.3621V67.5862H64.3276V64.6207Z" fill="white"/>
<path d="M67.2931 64.6207H64.3276V67.5862H67.2931V64.6207Z" fill="white"/>
<path d="M73.2241 64.6207H70.2586V67.5862H73.2241V64.6207Z" fill="white"/>
<path d="M76.1897 64.6207H73.2241V67.5862H76.1897V64.6207Z" fill="white"/>
<path d="M96.9483 64.6207H93.9828V67.5862H96.9483V64.6207Z" fill="white"/>
<path d="M99.9138 64.6207H96.9483V67.5862H99.9138V64.6207Z" fill="white"/>
<path d="M102.879 64.6207H99.9138V67.5862H102.879V64.6207Z" fill="white"/>
<path d="M108.81 64.6207H105.845V67.5862H108.81V64.6207Z" fill="white"/>
<path d="M111.776 64.6207H108.81V67.5862H111.776V64.6207Z" fill="white"/>
<path d="M120.672 64.6207H117.707V67.5862H120.672V64.6207Z" fill="white"/>
<path d="M132.534 64.6207H129.569V67.5862H132.534V64.6207Z" fill="white"/>
<path d="M135.5 64.6207H132.534V67.5862H135.5V64.6207Z" fill="white"/>
<path d="M52.4655 67.5862H49.5V70.5517H52.4655V67.5862Z" fill="white"/>
<path d="M55.431 67.5862H52.4655V70.5517H55.431V67.5862Z" fill="white"/>
<path d="M58.3966 67.5862H55.431V70.5517H58.3966V67.5862Z" fill="white"/>
<path d="M61.3621 67.5862H58.3966V70.5517H61.3621V67.5862Z" fill="white"/>
<path d="M64.3276 67.5862H61.3621V70.5517H64.3276V67.5862Z" fill="white"/>
<path d="M70.2586 67.5862H67.2931V70.5517H70.2586V67.5862Z" fill="white"/>
<path d="M73.2241 67.5862H70.2586V70.5517H73.2241V67.5862Z" fill="white"/>
<path d="M76.1897 67.5862H73.2241V70.5517H76.1897V67.5862Z" fill="white"/>
<path d="M82.1207 67.5862H79.1552V70.5517H82.1207V67.5862Z" fill="white"/>
<path d="M85.0862 67.5862H82.1207V70.5517H85.0862V67.5862Z" fill="white"/>
<path d="M88.0517 67.5862H85.0862V70.5517H88.0517V67.5862Z" fill="white"/>
<path d="M93.9828 67.5862H91.0172V70.5517H93.9828V67.5862Z" fill="white"/>
<path d="M99.9138 67.5862H96.9483V70.5517H99.9138V67.5862Z" fill="white"/>
<path d="M102.879 67.5862H99.9138V70.5517H102.879V67.5862Z" fill="white"/>
<path d="M105.845 67.5862H102.879V70.5517H105.845V67.5862Z" fill="white"/>
<path d="M114.741 67.5862H111.776V70.5517H114.741V67.5862Z" fill="white"/>
<path d="M129.569 67.5862H126.603V70.5517H129.569V67.5862Z" fill="white"/>
<path d="M52.4655 70.5517H49.5V73.5172H52.4655V70.5517Z" fill="white"/>
<path d="M55.431 70.5517H52.4655V73.5172H55.431V70.5517Z" fill="white"/>
<path d="M67.2931 70.5517H64.3276V73.5172H67.2931V70.5517Z" fill="white"/>
<path d="M76.1897 70.5517H73.2241V73.5172H76.1897V70.5517Z" fill="white"/>
<path d="M79.1552 70.5517H76.1897V73.5172H79.1552V70.5517Z" fill="white"/>
<path d="M82.1207 70.5517H79.1552V73.5172H82.1207V70.5517Z" fill="white"/>
<path d="M93.9828 70.5517H91.0172V73.5172H93.9828V70.5517Z" fill="white"/>
<path d="M105.845 70.5517H102.879V73.5172H105.845V70.5517Z" fill="white"/>
<path d="M108.81 70.5517H105.845V73.5172H108.81V70.5517Z" fill="white"/>
<path d="M111.776 70.5517H108.81V73.5172H111.776V70.5517Z" fill="white"/>
<path d="M120.672 70.5517H117.707V73.5172H120.672V70.5517Z" fill="white"/>
<path d="M129.569 70.5517H126.603V73.5172H129.569V70.5517Z" fill="white"/>
<path d="M61.3621 73.5172H58.3966V76.4828H61.3621V73.5172Z" fill="white"/>
<path d="M64.3276 73.5172H61.3621V76.4828H64.3276V73.5172Z" fill="white"/>
<path d="M70.2586 73.5172H67.2931V76.4828H70.2586V73.5172Z" fill="white"/>
<path d="M79.1552 73.5172H76.1897V76.4828H79.1552V73.5172Z" fill="white"/>
<path d="M88.0517 73.5172H85.0862V76.4828H88.0517V73.5172Z" fill="white"/>
<path d="M91.0172 73.5172H88.0517V76.4828H91.0172V73.5172Z" fill="white"/>
<path d="M96.9483 73.5172H93.9828V76.4828H96.9483V73.5172Z" fill="white"/>
<path d="M99.9138 73.5172H96.9483V76.4828H99.9138V73.5172Z" fill="white"/>
<path d="M102.879 73.5172H99.9138V76.4828H102.879V73.5172Z" fill="white"/>
<path d="M105.845 73.5172H102.879V76.4828H105.845V73.5172Z" fill="white"/>
<path d="M108.81 73.5172H105.845V76.4828H108.81V73.5172Z" fill="white"/>
<path d="M111.776 73.5172H108.81V76.4828H111.776V73.5172Z" fill="white"/>
<path d="M117.707 73.5172H114.741V76.4828H117.707V73.5172Z" fill="white"/>
<path d="M120.672 73.5172H117.707V76.4828H120.672V73.5172Z" fill="white"/>
<path d="M132.534 73.5172H129.569V76.4828H132.534V73.5172Z" fill="white"/>
<path d="M135.5 73.5172H132.534V76.4828H135.5V73.5172Z" fill="white"/>
<path d="M52.4655 76.4828H49.5V79.4483H52.4655V76.4828Z" fill="white"/>
<path d="M58.3966 76.4828H55.431V79.4483H58.3966V76.4828Z" fill="white"/>
<path d="M61.3621 76.4828H58.3966V79.4483H61.3621V76.4828Z" fill="white"/>
<path d="M64.3276 76.4828H61.3621V79.4483H64.3276V76.4828Z" fill="white"/>
<path d="M85.0862 76.4828H82.1207V79.4483H85.0862V76.4828Z" fill="white"/>
<path d="M91.0172 76.4828H88.0517V79.4483H91.0172V76.4828Z" fill="white"/>
<path d="M96.9483 76.4828H93.9828V79.4483H96.9483V76.4828Z" fill="white"/>
<path d="M102.879 76.4828H99.9138V79.4483H102.879V76.4828Z" fill="white"/>
<path d="M105.845 76.4828H102.879V79.4483H105.845V76.4828Z" fill="white"/>
<path d="M123.638 76.4828H120.672V79.4483H123.638V76.4828Z" fill="white"/>
<path d="M126.603 76.4828H123.638V79.4483H126.603V76.4828Z" fill="white"/>
<path d="M132.534 76.4828H129.569V79.4483H132.534V76.4828Z" fill="white"/>
<path d="M64.3276 79.4483H61.3621V82.4138H64.3276V79.4483Z" fill="white"/>
<path d="M70.2586 79.4483H67.2931V82.4138H70.2586V79.4483Z" fill="white"/>
<path d="M73.2241 79.4483H70.2586V82.4138H73.2241V79.4483Z" fill="white"/>
<path d="M79.1552 79.4483H76.1897V82.4138H79.1552V79.4483Z" fill="white"/>
<path d="M82.1207 79.4483H79.1552V82.4138H82.1207V79.4483Z" fill="white"/>
<path d="M91.0172 79.4483H88.0517V82.4138H91.0172V79.4483Z" fill="white"/>
<path d="M93.9828 79.4483H91.0172V82.4138H93.9828V79.4483Z" fill="white"/>
<path d="M102.879 79.4483H99.9138V82.4138H102.879V79.4483Z" fill="white"/>
<path d="M105.845 79.4483H102.879V82.4138H105.845V79.4483Z" fill="white"/>
<path d="M108.81 79.4483H105.845V82.4138H108.81V79.4483Z" fill="white"/>
<path d="M114.741 79.4483H111.776V82.4138H114.741V79.4483Z" fill="white"/>
<path d="M117.707 79.4483H114.741V82.4138H117.707V79.4483Z" fill="white"/>
<path d="M123.638 79.4483H120.672V82.4138H123.638V79.4483Z" fill="white"/>
<path d="M126.603 79.4483H123.638V82.4138H126.603V79.4483Z" fill="white"/>
<path d="M132.534 79.4483H129.569V82.4138H132.534V79.4483Z" fill="white"/>
<path d="M135.5 79.4483H132.534V82.4138H135.5V79.4483Z" fill="white"/>
<path d="M55.431 82.4138H52.4655V85.3793H55.431V82.4138Z" fill="white"/>
<path d="M61.3621 82.4138H58.3966V85.3793H61.3621V82.4138Z" fill="white"/>
<path d="M64.3276 82.4138H61.3621V85.3793H64.3276V82.4138Z" fill="white"/>
<path d="M67.2931 82.4138H64.3276V85.3793H67.2931V82.4138Z" fill="white"/>
<path d="M73.2241 82.4138H70.2586V85.3793H73.2241V82.4138Z" fill="white"/>
<path d="M76.1897 82.4138H73.2241V85.3793H76.1897V82.4138Z" fill="white"/>
<path d="M82.1207 82.4138H79.1552V85.3793H82.1207V82.4138Z" fill="white"/>
<path d="M88.0517 82.4138H85.0862V85.3793H88.0517V82.4138Z" fill="white"/>
<path d="M91.0172 82.4138H88.0517V85.3793H91.0172V82.4138Z" fill="white"/>
<path d="M108.81 82.4138H105.845V85.3793H108.81V82.4138Z" fill="white"/>
<path d="M111.776 82.4138H108.81V85.3793H111.776V82.4138Z" fill="white"/>
<path d="M117.707 82.4138H114.741V85.3793H117.707V82.4138Z" fill="white"/>
<path d="M123.638 82.4138H120.672V85.3793H123.638V82.4138Z" fill="white"/>
<path d="M126.603 82.4138H123.638V85.3793H126.603V82.4138Z" fill="white"/>
<path d="M52.4655 85.3793H49.5V88.3448H52.4655V85.3793Z" fill="white"/>
<path d="M64.3276 85.3793H61.3621V88.3448H64.3276V85.3793Z" fill="white"/>
<path d="M67.2931 85.3793H64.3276V88.3448H67.2931V85.3793Z" fill="white"/>
<path d="M70.2586 85.3793H67.2931V88.3448H70.2586V85.3793Z" fill="white"/>
<path d="M76.1897 85.3793H73.2241V88.3448H76.1897V85.3793Z" fill="white"/>
<path d="M79.1552 85.3793H76.1897V88.3448H79.1552V85.3793Z" fill="white"/>
<path d="M82.1207 85.3793H79.1552V88.3448H82.1207V85.3793Z" fill="white"/>
<path d="M85.0862 85.3793H82.1207V88.3448H85.0862V85.3793Z" fill="white"/>
<path d="M91.0172 85.3793H88.0517V88.3448H91.0172V85.3793Z" fill="white"/>
<path d="M93.9828 85.3793H91.0172V88.3448H93.9828V85.3793Z" fill="white"/>
<path d="M99.9138 85.3793H96.9483V88.3448H99.9138V85.3793Z" fill="white"/>
<path d="M102.879 85.3793H99.9138V88.3448H102.879V85.3793Z" fill="white"/>
<path d="M108.81 85.3793H105.845V88.3448H108.81V85.3793Z" fill="white"/>
<path d="M111.776 85.3793H108.81V88.3448H111.776V85.3793Z" fill="white"/>
<path d="M117.707 85.3793H114.741V88.3448H117.707V85.3793Z" fill="white"/>
<path d="M120.672 85.3793H117.707V88.3448H120.672V85.3793Z" fill="white"/>
<path d="M126.603 85.3793H123.638V88.3448H126.603V85.3793Z" fill="white"/>
<path d="M129.569 85.3793H126.603V88.3448H129.569V85.3793Z" fill="white"/>
<path d="M135.5 85.3793H132.534V88.3448H135.5V85.3793Z" fill="white"/>
<path d="M52.4655 88.3448H49.5V91.3103H52.4655V88.3448Z" fill="white"/>
<path d="M58.3966 88.3448H55.431V91.3103H58.3966V88.3448Z" fill="white"/>
<path d="M64.3276 88.3448H61.3621V91.3103H64.3276V88.3448Z" fill="white"/>
<path d="M67.2931 88.3448H64.3276V91.3103H67.2931V88.3448Z" fill="white"/>
<path d="M79.1552 88.3448H76.1897V91.3103H79.1552V88.3448Z" fill="white"/>
<path d="M88.0517 88.3448H85.0862V91.3103H88.0517V88.3448Z" fill="white"/>
<path d="M91.0172 88.3448H88.0517V91.3103H91.0172V88.3448Z" fill="white"/>
<path d="M93.9828 88.3448H91.0172V91.3103H93.9828V88.3448Z" fill="white"/>
<path d="M96.9483 88.3448H93.9828V91.3103H96.9483V88.3448Z" fill="white"/>
<path d="M108.81 88.3448H105.845V91.3103H108.81V88.3448Z" fill="white"/>
<path d="M111.776 88.3448H108.81V91.3103H111.776V88.3448Z" fill="white"/>
<path d="M114.741 88.3448H111.776V91.3103H114.741V88.3448Z" fill="white"/>
<path d="M117.707 88.3448H114.741V91.3103H117.707V88.3448Z" fill="white"/>
<path d="M126.603 88.3448H123.638V91.3103H126.603V88.3448Z" fill="white"/>
<path d="M135.5 88.3448H132.534V91.3103H135.5V88.3448Z" fill="white"/>
<path d="M58.3966 91.3103H55.431V94.2759H58.3966V91.3103Z" fill="white"/>
<path d="M70.2586 91.3103H67.2931V94.2759H70.2586V91.3103Z" fill="white"/>
<path d="M73.2241 91.3103H70.2586V94.2759H73.2241V91.3103Z" fill="white"/>
<path d="M79.1552 91.3103H76.1897V94.2759H79.1552V91.3103Z" fill="white"/>
<path d="M85.0862 91.3103H82.1207V94.2759H85.0862V91.3103Z" fill="white"/>
<path d="M96.9483 91.3103H93.9828V94.2759H96.9483V91.3103Z" fill="white"/>
<path d="M102.879 91.3103H99.9138V94.2759H102.879V91.3103Z" fill="white"/>
<path d="M105.845 91.3103H102.879V94.2759H105.845V91.3103Z" fill="white"/>
<path d="M111.776 91.3103H108.81V94.2759H111.776V91.3103Z" fill="white"/>
<path d="M114.741 91.3103H111.776V94.2759H114.741V91.3103Z" fill="white"/>
<path d="M117.707 91.3103H114.741V94.2759H117.707V91.3103Z" fill="white"/>
<path d="M120.672 91.3103H117.707V94.2759H120.672V91.3103Z" fill="white"/>
<path d="M123.638 91.3103H120.672V94.2759H123.638V91.3103Z" fill="white"/>
<path d="M132.534 91.3103H129.569V94.2759H132.534V91.3103Z" fill="white"/>
<path d="M135.5 91.3103H132.534V94.2759H135.5V91.3103Z" fill="white"/>
<path d="M93.9828 94.2759H91.0172V97.2414H93.9828V94.2759Z" fill="white"/>
<path d="M99.9138 94.2759H96.9483V97.2414H99.9138V94.2759Z" fill="white"/>
<path d="M105.845 94.2759H102.879V97.2414H105.845V94.2759Z" fill="white"/>
<path d="M111.776 94.2759H108.81V97.2414H111.776V94.2759Z" fill="white"/>
<path d="M123.638 94.2759H120.672V97.2414H123.638V94.2759Z" fill="white"/>
<path d="M126.603 94.2759H123.638V97.2414H126.603V94.2759Z" fill="white"/>
<path d="M129.569 94.2759H126.603V97.2414H129.569V94.2759Z" fill="white"/>
<path d="M135.5 94.2759H132.534V97.2414H135.5V94.2759Z" fill="white"/>
<path d="M52.4655 97.2414H49.5V100.207H52.4655V97.2414Z" fill="white"/>
<path d="M55.431 97.2414H52.4655V100.207H55.431V97.2414Z" fill="white"/>
<path d="M58.3966 97.2414H55.431V100.207H58.3966V97.2414Z" fill="white"/>
<path d="M61.3621 97.2414H58.3966V100.207H61.3621V97.2414Z" fill="white"/>
<path d="M64.3276 97.2414H61.3621V100.207H64.3276V97.2414Z" fill="white"/>
<path d="M67.2931 97.2414H64.3276V100.207H67.2931V97.2414Z" fill="white"/>
<path d="M70.2586 97.2414H67.2931V100.207H70.2586V97.2414Z" fill="white"/>
<path d="M76.1897 97.2414H73.2241V100.207H76.1897V97.2414Z" fill="white"/>
<path d="M79.1552 97.2414H76.1897V100.207H79.1552V97.2414Z" fill="white"/>
<path d="M91.0172 97.2414H88.0517V100.207H91.0172V97.2414Z" fill="white"/>
<path d="M96.9483 97.2414H93.9828V100.207H96.9483V97.2414Z" fill="white"/>
<path d="M105.845 97.2414H102.879V100.207H105.845V97.2414Z" fill="white"/>
<path d="M111.776 97.2414H108.81V100.207H111.776V97.2414Z" fill="white"/>
<path d="M117.707 97.2414H114.741V100.207H117.707V97.2414Z" fill="white"/>
<path d="M123.638 97.2414H120.672V100.207H123.638V97.2414Z" fill="white"/>
<path d="M52.4655 100.207H49.5V103.172H52.4655V100.207Z" fill="white"/>
<path d="M70.2586 100.207H67.2931V103.172H70.2586V100.207Z" fill="white"/>
<path d="M79.1552 100.207H76.1897V103.172H79.1552V100.207Z" fill="white"/>
<path d="M85.0862 100.207H82.1207V103.172H85.0862V100.207Z" fill="white"/>
<path d="M96.9483 100.207H93.9828V103.172H96.9483V100.207Z" fill="white"/>
<path d="M102.879 100.207H99.9138V103.172H102.879V100.207Z" fill="white"/>
<path d="M111.776 100.207H108.81V103.172H111.776V100.207Z" fill="white"/>
<path d="M123.638 100.207H120.672V103.172H123.638V100.207Z" fill="white"/>
<path d="M126.603 100.207H123.638V103.172H126.603V100.207Z" fill="white"/>
<path d="M129.569 100.207H126.603V103.172H129.569V100.207Z" fill="white"/>
<path d="M52.4655 103.172H49.5V106.138H52.4655V103.172Z" fill="white"/>
<path d="M58.3966 103.172H55.431V106.138H58.3966V103.172Z" fill="white"/>
<path d="M61.3621 103.172H58.3966V106.138H61.3621V103.172Z" fill="white"/>
<path d="M64.3276 103.172H61.3621V106.138H64.3276V103.172Z" fill="white"/>
<path d="M70.2586 103.172H67.2931V106.138H70.2586V103.172Z" fill="white"/>
<path d="M79.1552 103.172H76.1897V106.138H79.1552V103.172Z" fill="white"/>
<path d="M93.9828 103.172H91.0172V106.138H93.9828V103.172Z" fill="white"/>
<path d="M96.9483 103.172H93.9828V106.138H96.9483V103.172Z" fill="white"/>
<path d="M99.9138 103.172H96.9483V106.138H99.9138V103.172Z" fill="white"/>
<path d="M108.81 103.172H105.845V106.138H108.81V103.172Z" fill="white"/>
<path d="M111.776 103.172H108.81V106.138H111.776V103.172Z" fill="white"/>
<path d="M114.741 103.172H111.776V106.138H114.741V103.172Z" fill="white"/>
<path d="M117.707 103.172H114.741V106.138H117.707V103.172Z" fill="white"/>
<path d="M120.672 103.172H117.707V106.138H120.672V103.172Z" fill="white"/>
<path d="M123.638 103.172H120.672V106.138H123.638V103.172Z" fill="white"/>
<path d="M126.603 103.172H123.638V106.138H126.603V103.172Z" fill="white"/>
<path d="M135.5 103.172H132.534V106.138H135.5V103.172Z" fill="white"/>
<path d="M52.4655 106.138H49.5V109.103H52.4655V106.138Z" fill="white"/>
<path d="M58.3966 106.138H55.431V109.103H58.3966V106.138Z" fill="white"/>
<path d="M61.3621 106.138H58.3966V109.103H61.3621V106.138Z" fill="white"/>
<path d="M64.3276 106.138H61.3621V109.103H64.3276V106.138Z" fill="white"/>
<path d="M70.2586 106.138H67.2931V109.103H70.2586V106.138Z" fill="white"/>
<path d="M76.1897 106.138H73.2241V109.103H76.1897V106.138Z" fill="white"/>
<path d="M79.1552 106.138H76.1897V109.103H79.1552V106.138Z" fill="white"/>
<path d="M82.1207 106.138H79.1552V109.103H82.1207V106.138Z" fill="white"/>
<path d="M85.0862 106.138H82.1207V109.103H85.0862V106.138Z" fill="white"/>
<path d="M93.9828 106.138H91.0172V109.103H93.9828V106.138Z" fill="white"/>
<path d="M96.9483 106.138H93.9828V109.103H96.9483V106.138Z" fill="white"/>
<path d="M108.81 106.138H105.845V109.103H108.81V106.138Z" fill="white"/>
<path d="M111.776 106.138H108.81V109.103H111.776V106.138Z" fill="white"/>
<path d="M123.638 106.138H120.672V109.103H123.638V106.138Z" fill="white"/>
<path d="M129.569 106.138H126.603V109.103H129.569V106.138Z" fill="white"/>
<path d="M132.534 106.138H129.569V109.103H132.534V106.138Z" fill="white"/>
<path d="M52.4655 109.103H49.5V112.069H52.4655V109.103Z" fill="white"/>
<path d="M58.3966 109.103H55.431V112.069H58.3966V109.103Z" fill="white"/>
<path d="M61.3621 109.103H58.3966V112.069H61.3621V109.103Z" fill="white"/>
<path d="M64.3276 109.103H61.3621V112.069H64.3276V109.103Z" fill="white"/>
<path d="M70.2586 109.103H67.2931V112.069H70.2586V109.103Z" fill="white"/>
<path d="M88.0517 109.103H85.0862V112.069H88.0517V109.103Z" fill="white"/>
<path d="M91.0172 109.103H88.0517V112.069H91.0172V109.103Z" fill="white"/>
<path d="M105.845 109.103H102.879V112.069H105.845V109.103Z" fill="white"/>
<path d="M108.81 109.103H105.845V112.069H108.81V109.103Z" fill="white"/>
<path d="M111.776 109.103H108.81V112.069H111.776V109.103Z" fill="white"/>
<path d="M114.741 109.103H111.776V112.069H114.741V109.103Z" fill="white"/>
<path d="M123.638 109.103H120.672V112.069H123.638V109.103Z" fill="white"/>
<path d="M126.603 109.103H123.638V112.069H126.603V109.103Z" fill="white"/>
<path d="M129.569 109.103H126.603V112.069H129.569V109.103Z" fill="white"/>
<path d="M52.4655 112.069H49.5V115.034H52.4655V112.069Z" fill="white"/>
<path d="M70.2586 112.069H67.2931V115.034H70.2586V112.069Z" fill="white"/>
<path d="M76.1897 112.069H73.2241V115.034H76.1897V112.069Z" fill="white"/>
<path d="M82.1207 112.069H79.1552V115.034H82.1207V112.069Z" fill="white"/>
<path d="M93.9828 112.069H91.0172V115.034H93.9828V112.069Z" fill="white"/>
<path d="M96.9483 112.069H93.9828V115.034H96.9483V112.069Z" fill="white"/>
<path d="M99.9138 112.069H96.9483V115.034H99.9138V112.069Z" fill="white"/>
<path d="M111.776 112.069H108.81V115.034H111.776V112.069Z" fill="white"/>
<path d="M114.741 112.069H111.776V115.034H114.741V112.069Z" fill="white"/>
<path d="M117.707 112.069H114.741V115.034H117.707V112.069Z" fill="white"/>
<path d="M132.534 112.069H129.569V115.034H132.534V112.069Z" fill="white"/>
<path d="M135.5 112.069H132.534V115.034H135.5V112.069Z" fill="white"/>
<path d="M52.4655 115.034H49.5V118H52.4655V115.034Z" fill="white"/>
<path d="M55.431 115.034H52.4655V118H55.431V115.034Z" fill="white"/>
<path d="M58.3966 115.034H55.431V118H58.3966V115.034Z" fill="white"/>
<path d="M61.3621 115.034H58.3966V118H61.3621V115.034Z" fill="white"/>
<path d="M64.3276 115.034H61.3621V118H64.3276V115.034Z" fill="white"/>
<path d="M67.2931 115.034H64.3276V118H67.2931V115.034Z" fill="white"/>
<path d="M70.2586 115.034H67.2931V118H70.2586V115.034Z" fill="white"/>
<path d="M76.1897 115.034H73.2241V118H76.1897V115.034Z" fill="white"/>
<path d="M79.1552 115.034H76.1897V118H79.1552V115.034Z" fill="white"/>
<path d="M88.0517 115.034H85.0862V118H88.0517V115.034Z" fill="white"/>
<path d="M91.0172 115.034H88.0517V118H91.0172V115.034Z" fill="white"/>
<path d="M93.9828 115.034H91.0172V118H93.9828V115.034Z" fill="white"/>
<path d="M96.9483 115.034H93.9828V118H96.9483V115.034Z" fill="white"/>
<path d="M108.81 115.034H105.845V118H108.81V115.034Z" fill="white"/>
<path d="M114.741 115.034H111.776V118H114.741V115.034Z" fill="white"/>
<path d="M120.672 115.034H117.707V118H120.672V115.034Z" fill="white"/>
<path d="M126.603 115.034H123.638V118H126.603V115.034Z" fill="white"/>
<path d="M129.569 115.034H126.603V118H129.569V115.034Z" fill="white"/>
</g>
<path d="M41.3681 153.506H38.4421V152.384C38.4421 152.267 38.3981 152.164 38.3101 152.076C38.2368 151.988 38.1415 151.944 38.0241 151.944H36.8141C36.6968 151.944 36.5941 151.988 36.5061 152.076C36.4328 152.164 36.3961 152.267 36.3961 152.384V154.914C36.3961 155.031 36.4328 155.134 36.5061 155.222C36.5941 155.31 36.6968 155.354 36.8141 155.354H38.7941C40.6128 155.383 41.5221 156.351 41.5221 158.258V161.316C41.5221 163.252 40.6128 164.22 38.7941 164.22H36.1981C34.3795 164.22 33.4701 163.252 33.4701 161.316V159.842H36.3961V161.426C36.3961 161.543 36.4328 161.646 36.5061 161.734C36.5941 161.822 36.6968 161.866 36.8141 161.866H38.1781C38.2955 161.866 38.3908 161.822 38.4641 161.734C38.5521 161.646 38.5961 161.543 38.5961 161.426V158.632C38.5961 158.515 38.5521 158.412 38.4641 158.324C38.3908 158.236 38.2955 158.192 38.1781 158.192H36.1981C34.3795 158.192 33.4701 157.224 33.4701 155.288V152.45C33.4701 150.514 34.3795 149.546 36.1981 149.546H38.6401C40.4588 149.546 41.3681 150.514 41.3681 152.45V153.506ZM51.3783 157.488H48.4303V155.596C48.4303 155.479 48.3863 155.376 48.2983 155.288C48.225 155.2 48.1296 155.156 48.0123 155.156H46.8023C46.685 155.156 46.5823 155.2 46.4943 155.288C46.421 155.376 46.3843 155.479 46.3843 155.596V161.668C46.3843 161.785 46.421 161.888 46.4943 161.976C46.5823 162.064 46.685 162.108 46.8023 162.108H48.0123C48.1296 162.108 48.225 162.064 48.2983 161.976C48.3863 161.888 48.4303 161.785 48.4303 161.668V159.776H51.3783V161.316C51.3783 163.252 50.469 164.22 48.6503 164.22H46.1643C44.3456 164.22 43.4363 163.252 43.4363 161.316V155.948C43.4363 154.012 44.3456 153.044 46.1643 153.044H48.6503C50.469 153.044 51.3783 154.012 51.3783 155.948V157.488ZM58.7106 153.264H61.1966V164H58.7106V163.208C58.256 163.883 57.5006 164.22 56.4446 164.22H55.9826C54.164 164.22 53.2546 163.252 53.2546 161.316V155.948C53.2546 154.012 54.164 153.044 55.9826 153.044H56.4446C57.5006 153.044 58.256 153.381 58.7106 154.056V153.264ZM58.2486 161.668V155.596C58.2486 155.479 58.2046 155.376 58.1166 155.288C58.0433 155.2 57.948 155.156 57.8306 155.156H56.6206C56.5033 155.156 56.4006 155.2 56.3126 155.288C56.2393 155.376 56.2026 155.479 56.2026 155.596V161.668C56.2026 161.785 56.2393 161.888 56.3126 161.976C56.4006 162.064 56.5033 162.108 56.6206 162.108H57.8306C57.948 162.108 58.0433 162.064 58.1166 161.976C58.2046 161.888 58.2486 161.785 58.2486 161.668ZM66.1499 164H63.2019V153.264H65.8859V153.814C66.3406 153.301 67.0299 153.044 67.9539 153.044H68.4159C70.2346 153.044 71.1439 154.012 71.1439 155.948V164H68.1959V155.596C68.1959 155.479 68.1519 155.376 68.0639 155.288C67.9906 155.2 67.8952 155.156 67.7779 155.156H66.5679C66.4506 155.156 66.3479 155.2 66.2599 155.288C66.1866 155.376 66.1499 155.479 66.1499 155.596V164ZM83.2504 149.766C85.0691 149.766 85.9784 150.734 85.9784 152.67V155.508C85.9784 157.444 85.0691 158.412 83.2504 158.412H80.7644V164H77.6844V149.766H83.2504ZM82.8984 155.86V152.318C82.8984 152.201 82.8544 152.098 82.7664 152.01C82.6931 151.922 82.5978 151.878 82.4804 151.878H80.7644V156.3H82.4804C82.5978 156.3 82.6931 156.256 82.7664 156.168C82.8544 156.08 82.8984 155.977 82.8984 155.86ZM92.4088 153.264H95.3568V164H92.6728V163.45C92.2181 163.963 91.5288 164.22 90.6048 164.22H90.1428C88.3241 164.22 87.4148 163.252 87.4148 161.316V153.264H90.3628V161.668C90.3628 161.785 90.3995 161.888 90.4728 161.976C90.5608 162.064 90.6635 162.108 90.7808 162.108H91.9908C92.1081 162.108 92.2035 162.064 92.2768 161.976C92.3648 161.888 92.4088 161.785 92.4088 161.668V153.264ZM101.938 153.044H102.51V155.904H101.058C100.559 155.904 100.31 156.161 100.31 156.674V164H97.3621V153.264H100.046V154.298C100.471 153.462 101.102 153.044 101.938 153.044ZM111.771 157.488H108.823V155.596C108.823 155.479 108.779 155.376 108.691 155.288C108.618 155.2 108.522 155.156 108.405 155.156H107.195C107.078 155.156 106.975 155.2 106.887 155.288C106.814 155.376 106.777 155.479 106.777 155.596V161.668C106.777 161.785 106.814 161.888 106.887 161.976C106.975 162.064 107.078 162.108 107.195 162.108H108.405C108.522 162.108 108.618 162.064 108.691 161.976C108.779 161.888 108.823 161.785 108.823 161.668V159.776H111.771V161.316C111.771 163.252 110.862 164.22 109.043 164.22H106.557C104.738 164.22 103.829 163.252 103.829 161.316V155.948C103.829 154.012 104.738 153.044 106.557 153.044H109.043C110.862 153.044 111.771 154.012 111.771 155.948V157.488ZM116.595 164H113.647V149.766H116.595V153.572C117.035 153.22 117.637 153.044 118.399 153.044H118.861C120.68 153.044 121.589 154.012 121.589 155.948V164H118.641V155.596C118.641 155.479 118.597 155.376 118.509 155.288C118.436 155.2 118.341 155.156 118.223 155.156H117.013C116.764 155.156 116.625 155.288 116.595 155.552V164ZM129.05 153.264H131.536V164H129.05V163.208C128.596 163.883 127.84 164.22 126.784 164.22H126.322C124.504 164.22 123.594 163.252 123.594 161.316V155.948C123.594 154.012 124.504 153.044 126.322 153.044H126.784C127.84 153.044 128.596 153.381 129.05 154.056V153.264ZM128.588 161.668V155.596C128.588 155.479 128.544 155.376 128.456 155.288C128.383 155.2 128.288 155.156 128.17 155.156H126.96C126.843 155.156 126.74 155.2 126.652 155.288C126.579 155.376 126.542 155.479 126.542 155.596V161.668C126.542 161.785 126.579 161.888 126.652 161.976C126.74 162.064 126.843 162.108 126.96 162.108H128.17C128.288 162.108 128.383 162.064 128.456 161.976C128.544 161.888 128.588 161.785 128.588 161.668ZM138.602 157.268C140.42 157.268 141.33 158.236 141.33 160.172V161.316C141.33 163.252 140.42 164.22 138.602 164.22H136.16C134.341 164.22 133.432 163.252 133.432 161.316V160.634H136.16V161.602C136.16 161.719 136.196 161.822 136.27 161.91C136.358 161.998 136.46 162.042 136.578 162.042H138.382C138.499 162.042 138.594 161.998 138.668 161.91C138.756 161.822 138.8 161.719 138.8 161.602V160.282C138.8 160.165 138.756 160.062 138.668 159.974C138.594 159.886 138.499 159.842 138.382 159.842H136.116C134.297 159.842 133.388 158.874 133.388 156.938V155.948C133.388 154.012 134.297 153.044 136.116 153.044H138.426C140.244 153.044 141.154 154.012 141.154 155.948V156.344H138.426V155.662C138.426 155.545 138.382 155.442 138.294 155.354C138.22 155.266 138.125 155.222 138.008 155.222H136.336C136.218 155.222 136.116 155.266 136.028 155.354C135.954 155.442 135.918 155.545 135.918 155.662V156.828C135.918 156.945 135.954 157.048 136.028 157.136C136.116 157.224 136.218 157.268 136.336 157.268H138.602ZM148.273 153.044C150.092 153.044 151.001 154.012 151.001 155.948V159.424H146.007V161.668C146.007 161.785 146.044 161.888 146.117 161.976C146.205 162.064 146.308 162.108 146.425 162.108H147.635C147.753 162.108 147.848 162.064 147.921 161.976C148.009 161.888 148.053 161.785 148.053 161.668V160.48H151.001V161.316C151.001 163.252 150.092 164.22 148.273 164.22H145.787C143.969 164.22 143.059 163.252 143.059 161.316V155.948C143.059 154.012 143.969 153.044 145.787 153.044H148.273ZM146.007 157.488H148.053V155.508C148.053 155.391 148.009 155.288 147.921 155.2C147.848 155.112 147.753 155.068 147.635 155.068H146.425C146.308 155.068 146.205 155.112 146.117 155.2C146.044 155.288 146.007 155.391 146.007 155.508V157.488Z" fill="white"/>
<g opacity="0.5">
<mask id="mask0_3192_36352" style="mask-type:alpha" maskUnits="userSpaceOnUse" x="-140" y="-186" width="622" height="458">
<path d="M206.137 -13.7103C206.137 33.1265 175.17 71.0952 136.969 71.0952C98.7691 71.0952 -139.902 -93.1796 -139.902 -140.016C-139.902 -186.853 203.022 -122.374 241.222 -122.374C279.422 -122.374 206.137 -60.5471 206.137 -13.7103Z" fill="url(#paint0_linear_3192_36352)"/>
<path d="M233.002 186.991C233.002 233.828 202.034 271.796 163.834 271.796C125.634 271.796 -87.1744 260.879 -87.1744 214.042C-87.1744 167.205 -71.444 56.2598 -33.2437 56.2598C4.95653 56.2598 233.002 140.154 233.002 186.991Z" fill="url(#paint1_radial_3192_36352)"/>
<path d="M311.465 -13.5818C414.536 79.5094 366.923 32.7272 455.452 30.3703C469.34 33.0456 492.916 33.1728 476.119 12.2793C455.122 -13.8377 461.889 -32.2843 435.649 -60.7388C409.408 -89.1934 393.428 -118.103 353.812 -163.359C314.197 -208.615 311.149 -171.309 266.488 -174.845C221.826 -178.382 242.196 -172.766 180.575 -107.101C118.954 -41.4363 208.394 -106.673 311.465 -13.5818Z" fill="#D9D9D9"/>
<path d="M214.157 132.845C76.2222 149.084 142.784 144.072 86.2465 212.238C75.0861 220.925 59.4616 238.581 86.2465 239.704C119.728 241.107 129.15 258.349 167.844 257.347C206.538 256.344 238.816 263.361 298.962 263.361C359.108 263.361 333.045 236.496 365.122 205.22C397.2 173.945 379.557 185.573 370.736 95.9557C361.915 6.33848 352.091 116.606 214.157 132.845Z" fill="#D9D9D9"/>
</mask>
<g mask="url(#mask0_3192_36352)">
<line x1="-45.2719" y1="83.5256" x2="435.493" y2="83.5256" stroke="white" stroke-opacity="0.09" stroke-width="0.400972"/>
<line x1="-45.2719" y1="32.2009" x2="435.493" y2="32.2009" stroke="white" stroke-opacity="0.09" stroke-width="0.400972"/>
<line x1="-45.2719" y1="134.85" x2="435.493" y2="134.85" stroke="white" stroke-opacity="0.09" stroke-width="0.400972"/>
<line x1="-45.2719" y1="57.8632" x2="435.493" y2="57.8632" stroke="white" stroke-opacity="0.09" stroke-width="0.400972"/>
<line x1="-45.2719" y1="160.512" x2="435.493" y2="160.512" stroke="white" stroke-opacity="0.09" stroke-width="0.400972"/>
<line x1="-45.2719" y1="6.53865" x2="435.493" y2="6.53865" stroke="white" stroke-opacity="0.09" stroke-width="0.400972"/>
<line x1="-45.2719" y1="109.188" x2="435.493" y2="109.188" stroke="white" stroke-opacity="0.09" stroke-width="0.400972"/>
<line x1="37.4565" y1="-1.82544" x2="37.4565" y2="1165.58" stroke="white" stroke-opacity="0.09" stroke-width="1.2607"/>
<line x1="118.144" y1="-1.82544" x2="118.144" y2="1165.58" stroke="white" stroke-opacity="0.09" stroke-width="1.2607"/>
<g opacity="0.7">
<rect x="98.0941" y="134.832" width="25.5164" height="25.5164" fill="black" fill-opacity="0.25"/>
<rect x="72.5779" y="134.832" width="25.5164" height="25.5164" fill="black" fill-opacity="0.25"/>
<rect x="72.5779" y="160.348" width="25.5164" height="25.8809" fill="black" fill-opacity="0.25"/>
<rect x="21.1805" y="109.315" width="25.5164" height="25.5164" fill="black" fill-opacity="0.25"/>
<rect x="21.1805" y="-19.3605" width="25.5164" height="25.8809" fill="black" fill-opacity="0.24"/>
</g>
</g>
</g>
</g>
<rect x="0.75" y="1.25" width="182.5" height="182.5" rx="11.25" stroke="url(#paint2_linear_3192_36352)" stroke-width="1.5"/>
</g>
<defs>
<filter id="filter0_d_3192_36352" x="0" y="0.5" width="188" height="188" filterUnits="userSpaceOnUse" color-interpolation-filters="sRGB">
<feFlood flood-opacity="0" result="BackgroundImageFix"/>
<feColorMatrix in="SourceAlpha" type="matrix" values="0 0 0 0 0 0 0 0 0 0 0 0 0 0 0 0 0 0 127 0" result="hardAlpha"/>
<feOffset dx="4" dy="4"/>
<feComposite in2="hardAlpha" operator="out"/>
<feColorMatrix type="matrix" values="0 0 0 0 0.23 0 0 0 0 0.2185 0 0 0 0 0.2185 0 0 0 1 0"/>
<feBlend mode="normal" in2="BackgroundImageFix" result="effect1_dropShadow_3192_36352"/>
<feBlend mode="normal" in="SourceGraphic" in2="effect1_dropShadow_3192_36352" result="shape"/>
</filter>
<linearGradient id="paint0_linear_3192_36352" x1="25.2987" y1="-116.56" x2="169.849" y2="-39.5729" gradientUnits="userSpaceOnUse">
<stop stop-color="white"/>
<stop offset="1" stop-color="white" stop-opacity="0"/>
</linearGradient>
<radialGradient id="paint1_radial_3192_36352" cx="0" cy="0" r="1" gradientUnits="userSpaceOnUse" gradientTransform="translate(14.2714 188.981) rotate(-29.3932) scale(247.135 424.754)">
<stop stop-color="white"/>
<stop offset="1" stop-color="white" stop-opacity="0"/>
</radialGradient>
<linearGradient id="paint2_linear_3192_36352" x1="84.4124" y1="-141.993" x2="113.043" y2="191.025" gradientUnits="userSpaceOnUse">
<stop stop-color="#606060"/>
<stop offset="1" stop-color="white" stop-opacity="0.3"/>
</linearGradient>
<clipPath id="clip0_3192_36352">
<rect y="0.5" width="184" height="184" rx="12" fill="white"/>
</clipPath>
<clipPath id="clip1_3192_36352">
<rect width="116" height="116" fill="white" transform="translate(34 17)"/>
</clipPath>
</defs>
</svg>
