<svg width="13" height="13" viewBox="0 0 13 13" fill="none" xmlns="http://www.w3.org/2000/svg">
<path d="M10.8063 3.50953C10.0013 3.42953 9.19632 3.36953 8.38632 3.32453V3.31953L8.27632 2.66953C8.20132 2.20953 8.09132 1.51953 6.92132 1.51953H5.61132C4.44632 1.51953 4.33632 2.17953 4.25632 2.66453L4.15132 3.30453C3.68632 3.33453 3.22132 3.36453 2.75632 3.40953L1.73632 3.50953C1.52632 3.52953 1.37632 3.71453 1.39632 3.91953C1.41632 4.12453 1.59632 4.27453 1.80632 4.25453L2.82632 4.15453C5.44632 3.89453 8.08632 3.99453 10.7363 4.25953C10.7513 4.25953 10.7613 4.25953 10.7763 4.25953C10.9663 4.25953 11.1313 4.11453 11.1513 3.91953C11.1663 3.71453 11.0163 3.52953 10.8063 3.50953Z" fill="white"/>
<path d="M9.88636 4.96453C9.76636 4.83953 9.60136 4.76953 9.43136 4.76953H3.11136C2.94136 4.76953 2.77136 4.83953 2.65636 4.96453C2.54136 5.08953 2.47636 5.25953 2.48636 5.43453L2.79636 10.5645C2.85136 11.3245 2.92136 12.2745 4.66636 12.2745H7.87636C9.62136 12.2745 9.69136 11.3295 9.74636 10.5645L10.0564 5.43953C10.0664 5.25953 10.0014 5.08953 9.88636 4.96453ZM7.10136 9.76953H5.43636C5.23136 9.76953 5.06136 9.59953 5.06136 9.39453C5.06136 9.18953 5.23136 9.01953 5.43636 9.01953H7.10136C7.30636 9.01953 7.47636 9.18953 7.47636 9.39453C7.47636 9.59953 7.30636 9.76953 7.10136 9.76953ZM7.52136 7.76953H5.02136C4.81636 7.76953 4.64636 7.59953 4.64636 7.39453C4.64636 7.18953 4.81636 7.01953 5.02136 7.01953H7.52136C7.72636 7.01953 7.89636 7.18953 7.89636 7.39453C7.89636 7.59953 7.72636 7.76953 7.52136 7.76953Z" fill="white"/>
</svg>
