<svg width="21" height="21" viewBox="0 0 21 21" fill="none" xmlns="http://www.w3.org/2000/svg">
<g clip-path="url(#clip0_8745_26504)">
<path d="M7.77196 15.6816C7.47557 15.6816 7.22979 15.4358 7.22979 15.1394C7.22979 14.8358 7.47557 14.5972 7.77196 14.5972H16.2732C16.49 14.5972 16.6563 14.4093 16.6346 14.1924L16.143 10.0792C15.9695 8.67674 15.7238 7.52734 13.2659 7.52734H8.06112C5.60328 7.52734 5.3575 8.67674 5.19124 10.0792L4.54063 15.5008C4.331 17.2792 4.88039 18.7322 7.41774 18.7322H13.9093C16.1936 18.7322 16.8659 17.5539 16.8298 16.0213C16.8226 15.8261 16.6635 15.6816 16.4683 15.6816H7.77196Z" fill="#CC0000"/>
<path d="M13.5548 9.15216C13.2584 9.15216 13.0126 8.90637 13.0126 8.60999V6.07987C13.0126 5.29914 12.5283 4.81481 11.7476 4.81481H9.57889C8.79817 4.81481 8.31383 5.29914 8.31383 6.07987V8.60999C8.31383 8.90637 8.06805 9.15216 7.77166 9.15216C7.47528 9.15216 7.22949 8.90637 7.22949 8.60999V6.07987C7.22949 4.69914 8.19817 3.73047 9.57889 3.73047H11.7476C13.1283 3.73047 14.097 4.69914 14.097 6.07987V8.60999C14.097 8.90637 13.8512 9.15216 13.5548 9.15216Z" fill="#CC0000"/>
</g>
<defs>
<clipPath id="clip0_8745_26504">
<rect width="20" height="20" fill="white" transform="translate(0.5 0.730469)"/>
</clipPath>
</defs>
</svg>
