<svg width="12" height="12" viewBox="0 0 12 12" fill="none" xmlns="http://www.w3.org/2000/svg">
<g clip-path="url(#clip0_10723_44528)">
<path fill-rule="evenodd" clip-rule="evenodd" d="M5.93954 4.55588C6.27986 4.55585 6.60967 4.67381 6.87277 4.88966C7.13587 5.10552 7.31599 5.40593 7.38245 5.73969C7.4489 6.07346 7.39758 6.41995 7.23723 6.72012C7.07687 7.02029 6.8174 7.25558 6.50303 7.3859C6.18865 7.51622 5.83881 7.53352 5.51311 7.43483C5.18742 7.33615 4.90601 7.12759 4.71683 6.8447C4.52766 6.5618 4.44242 6.22207 4.47563 5.88337C4.50885 5.54468 4.65847 5.22798 4.899 4.98722C5.0355 4.85035 5.19769 4.74179 5.37625 4.66777C5.55482 4.59375 5.74624 4.55572 5.93954 4.55588ZM10.1967 8.17725C10.1967 8.08547 10.2331 7.99745 10.298 7.93256C10.3629 7.86766 10.4509 7.8312 10.5427 7.8312C10.6345 7.8312 10.7225 7.86766 10.7874 7.93256C10.8523 7.99745 10.8887 8.08547 10.8887 8.17725V9.65315C10.8887 9.745 10.8523 9.8331 10.7874 9.89813C10.7226 9.96315 10.6346 9.99979 10.5427 10H10.5113H8.47289C8.38432 9.99572 8.30078 9.95752 8.23961 9.89332C8.17844 9.82912 8.14432 9.74384 8.14432 9.65517C8.14432 9.56649 8.17844 9.48121 8.23961 9.41701C8.30078 9.35281 8.38432 9.31461 8.47289 9.31033H10.1967V8.17403V8.17725ZM10.8887 3.83161C10.8887 3.92338 10.8523 4.0114 10.7874 4.07629C10.7225 4.14119 10.6345 4.17765 10.5427 4.17765C10.4509 4.17765 10.3629 4.14119 10.298 4.07629C10.2331 4.0114 10.1967 3.92338 10.1967 3.83161V2.69128H8.47289C8.38432 2.687 8.30078 2.6488 8.23961 2.5846C8.17844 2.5204 8.14432 2.43512 8.14432 2.34644C8.14432 2.25777 8.17844 2.17249 8.23961 2.10829C8.30078 2.04409 8.38432 2.00589 8.47289 2.00161H10.5113H10.5427C10.6344 2.00182 10.7223 2.03835 10.7872 2.1032C10.852 2.16805 10.8885 2.25594 10.8887 2.34765V3.82597V3.83161ZM1.69208 3.82597C1.69208 3.91775 1.65563 4.00577 1.59073 4.07066C1.52583 4.13556 1.43782 4.17201 1.34604 4.17201C1.25427 4.17201 1.16625 4.13556 1.10135 4.07066C1.03646 4.00577 1 3.91775 1 3.82597V2.34604C1.00021 2.25433 1.03674 2.16644 1.10159 2.10159C1.16644 2.03674 1.25433 2.00021 1.34604 2H1.37743H3.41424C3.50282 2.00428 3.58635 2.04248 3.64752 2.10668C3.70869 2.17088 3.74282 2.25616 3.74282 2.34483C3.74282 2.43351 3.70869 2.51879 3.64752 2.58299C3.58635 2.64719 3.50282 2.68539 3.41424 2.68967H1.69208V3.82436V3.82597ZM1 8.17403C1 8.08225 1.03646 7.99423 1.10135 7.92934C1.16625 7.86444 1.25427 7.82798 1.34604 7.82798C1.43782 7.82798 1.52583 7.86444 1.59073 7.92934C1.65563 7.99423 1.69208 8.08225 1.69208 8.17403V9.30872H3.41424C3.50282 9.313 3.58635 9.3512 3.64752 9.4154C3.70869 9.4796 3.74282 9.56488 3.74282 9.65356C3.74282 9.74223 3.70869 9.82751 3.64752 9.89171C3.58635 9.95591 3.50282 9.99411 3.41424 9.99839H1.37743H1.34604C1.25447 9.99818 1.1667 9.96176 1.10187 9.89709C1.03704 9.83241 1.00042 9.74472 1 9.65315V8.17403ZM1.55689 5.81692C1.78776 5.53699 2.03784 5.27347 2.3053 5.02827C3.35147 4.07786 4.53687 3.57006 5.76572 3.54431C6.99457 3.51856 8.24273 3.97485 9.4233 4.9486C9.74758 5.21675 10.0523 5.50774 10.3351 5.81933C10.381 5.87002 10.4081 5.93498 10.4117 6.00327C10.4154 6.07156 10.3954 6.13903 10.3552 6.19435C10.0403 6.6442 9.66343 7.04734 9.23579 7.39181C8.34431 8.11132 7.23482 8.50659 6.08923 8.51283C4.93322 8.50937 3.8074 8.14348 2.87023 7.46665C2.37014 7.11008 1.92286 6.68473 1.5416 6.2032C1.49729 6.14773 1.47445 6.07815 1.47726 6.00721C1.48007 5.93627 1.50834 5.86872 1.55689 5.81692ZM2.70446 5.46605C2.51261 5.64166 2.33072 5.82784 2.15964 6.02374C2.47067 6.3847 2.8244 6.70654 3.21306 6.98219C4.04961 7.58695 5.05456 7.91452 6.08681 7.91892C7.0995 7.91249 8.07992 7.56203 8.86722 6.92506C9.18956 6.66573 9.47948 6.36852 9.73071 6.03983C9.51552 5.81507 9.28739 5.60306 9.04748 5.40489C7.97958 4.52449 6.85857 4.11729 5.77537 4.1358C4.69218 4.15431 3.64118 4.61302 2.70446 5.46605ZM5.5251 4.83996C5.63795 4.83996 5.74826 4.87342 5.84209 4.93611C5.93592 4.99881 6.00905 5.08792 6.05223 5.19218C6.09542 5.29643 6.10672 5.41115 6.0847 5.52183C6.06269 5.63251 6.00834 5.73418 5.92855 5.81397C5.84875 5.89377 5.74709 5.94811 5.63641 5.97013C5.52573 5.99214 5.41101 5.98084 5.30675 5.93766C5.20249 5.89447 5.11338 5.82134 5.05069 5.72751C4.98799 5.63368 4.95453 5.52337 4.95453 5.41052C4.95474 5.25926 5.01493 5.11426 5.12188 5.00731C5.22884 4.90035 5.37384 4.84017 5.5251 4.83996Z" fill="white"/>
</g>
<defs>
<clipPath id="clip0_10723_44528">
<rect width="9.88874" height="8" fill="white" transform="translate(1 2)"/>
</clipPath>
</defs>
</svg>
