<svg width="29" height="20" viewBox="0 0 29 20" fill="none" xmlns="http://www.w3.org/2000/svg">
<path d="M9.95671 15.2743V5.27829H11.2167V15.2743H9.95671ZM16.5602 15.4143C16.0562 15.4143 15.5989 15.3116 15.1882 15.1063C14.7869 14.8916 14.4649 14.5976 14.2222 14.2243C13.9796 13.851 13.8442 13.4263 13.8162 12.9503V10.9483C13.8442 10.463 13.9796 10.0383 14.2222 9.67429C14.4742 9.30096 14.8009 9.01163 15.2022 8.80629C15.6129 8.59163 16.0656 8.48429 16.5602 8.48429C17.1669 8.48429 17.7129 8.63829 18.1982 8.94629C18.6929 9.25429 19.0802 9.66963 19.3602 10.1923C19.6402 10.715 19.7802 11.303 19.7802 11.9563C19.7802 12.6096 19.6402 13.1976 19.3602 13.7203C19.0802 14.243 18.6929 14.6583 18.1982 14.9663C17.7129 15.265 17.1669 15.4143 16.5602 15.4143ZM16.3502 14.2243C16.7702 14.2243 17.1389 14.1263 17.4562 13.9303C17.7736 13.7343 18.0256 13.4683 18.2122 13.1323C18.3989 12.787 18.4922 12.3903 18.4922 11.9423C18.4922 11.5036 18.3989 11.1116 18.2122 10.7663C18.0256 10.421 17.7736 10.155 17.4562 9.96829C17.1389 9.77229 16.7749 9.67429 16.3642 9.67429C15.9442 9.67429 15.5756 9.77229 15.2582 9.96829C14.9409 10.155 14.6936 10.421 14.5162 10.7663C14.3389 11.1116 14.2502 11.5083 14.2502 11.9563C14.2502 12.395 14.3342 12.787 14.5022 13.1323C14.6796 13.4683 14.9269 13.7343 15.2442 13.9303C15.5709 14.1263 15.9396 14.2243 16.3502 14.2243ZM13.0602 15.2743V5.27829H14.3202V10.2483L14.0822 11.8583L14.3202 13.4823V15.2743H13.0602ZM23.3227 15.4143C22.9493 15.4143 22.5947 15.3676 22.2587 15.2743C21.932 15.1716 21.6287 15.0316 21.3487 14.8543C21.0687 14.6676 20.826 14.4483 20.6207 14.1963L21.4327 13.3843C21.6753 13.683 21.9553 13.907 22.2727 14.0563C22.59 14.1963 22.9447 14.2663 23.3367 14.2663C23.7287 14.2663 24.032 14.201 24.2467 14.0703C24.4613 13.9303 24.5687 13.739 24.5687 13.4963C24.5687 13.2536 24.48 13.067 24.3027 12.9363C24.1347 12.7963 23.9153 12.6843 23.6447 12.6003C23.374 12.507 23.0847 12.4183 22.7767 12.3343C22.478 12.241 22.1933 12.1243 21.9227 11.9843C21.652 11.8443 21.428 11.653 21.2507 11.4103C21.0827 11.1676 20.9987 10.8456 20.9987 10.4443C20.9987 10.043 21.0967 9.69763 21.2927 9.40829C21.4887 9.10962 21.7593 8.88096 22.1047 8.72229C22.4593 8.56363 22.884 8.48429 23.3787 8.48429C23.9013 8.48429 24.3633 8.57763 24.7647 8.76429C25.1753 8.94163 25.5113 9.21229 25.7727 9.57629L24.9607 10.3883C24.774 10.1456 24.5407 9.95896 24.2607 9.82829C23.99 9.69762 23.682 9.63229 23.3367 9.63229C22.9727 9.63229 22.6927 9.69762 22.4967 9.82829C22.31 9.94963 22.2167 10.1223 22.2167 10.3463C22.2167 10.5703 22.3007 10.743 22.4687 10.8643C22.6367 10.9856 22.856 11.0883 23.1267 11.1723C23.4067 11.2563 23.696 11.345 23.9947 11.4383C24.2933 11.5223 24.578 11.639 24.8487 11.7883C25.1193 11.9376 25.3387 12.1383 25.5067 12.3903C25.684 12.6423 25.7727 12.9736 25.7727 13.3843C25.7727 14.0096 25.5487 14.5043 25.1007 14.8683C24.662 15.2323 24.0693 15.4143 23.3227 15.4143Z" fill="#D0D0D0"/>
<path d="M1.17041 0.899292L1.17041 19.4875" stroke="#D0D0D0" stroke-linecap="round"/>
</svg>
