<svg width="12" height="13" viewBox="0 0 12 13" fill="none" xmlns="http://www.w3.org/2000/svg">
<path d="M7.70273 5.07087C7.51198 5.07087 7.35379 4.90416 7.35379 4.70314V2.98706C7.35379 2.45752 7.04208 2.12902 6.53962 2.12902H5.14388C4.64142 2.12902 4.3297 2.45752 4.3297 2.98706V4.70314C4.3297 4.90416 4.17152 5.07087 3.98077 5.07087C3.79002 5.07087 3.63184 4.90416 3.63184 4.70314V2.98706C3.63184 2.05057 4.25526 1.39355 5.14388 1.39355H6.53962C7.42823 1.39355 8.05166 2.05057 8.05166 2.98706V4.70314C8.05166 4.90416 7.89348 5.07087 7.70273 5.07087Z" fill="white"/>
<path d="M3.9808 9.49845C3.79005 9.49845 3.63186 9.33175 3.63186 9.13072C3.63186 8.92479 3.79005 8.76299 3.9808 8.76299H9.45208C9.59165 8.76299 9.69866 8.63551 9.6847 8.48842L9.36833 5.69856C9.25667 4.74736 9.09849 3.96777 7.51666 3.96777H4.16689C2.58506 3.96777 2.42688 4.74736 2.31987 5.69856L1.90115 9.37588C1.76623 10.582 2.11982 11.5676 3.75283 11.5676H7.93073C9.4009 11.5676 9.83358 10.7684 9.81031 9.7289C9.80566 9.59652 9.70331 9.49845 9.57769 9.49845H3.9808Z" fill="white"/>
</svg>
