<?xml version="1.0" encoding="UTF-8"?>
<svg version="1.1" xmlns="http://www.w3.org/2000/svg" width="512" height="512">
<path d="M0 0 C4.26174211 2.01236627 8.36228186 4.31041771 12.4609375 6.6328125 C13.22631836 7.06142578 13.99169922 7.49003906 14.78027344 7.93164062 C21.0393154 11.44324686 27.25059575 15.03601799 33.4609375 18.6328125 C37.84750418 21.17152294 42.23720842 23.70467431 46.63122559 26.23046875 C48.49633748 27.3047039 50.35804501 28.38467788 52.21972656 29.46484375 C53.36280273 30.12226563 54.50587891 30.7796875 55.68359375 31.45703125 C56.70203369 32.04572998 57.72047363 32.63442871 58.76977539 33.2409668 C61.92414987 34.87238192 64.07957067 35.89469317 67.63014221 35.22157288 C68.41163132 34.97064377 69.19312042 34.71971466 69.99829102 34.46118164 C70.88923965 34.18081558 71.78018829 33.90044952 72.69813538 33.61158752 C73.65239914 33.30019333 74.6066629 32.98879913 75.58984375 32.66796875 C76.57589096 32.35580917 77.56193817 32.0436496 78.5778656 31.72203064 C81.72955247 30.72275712 84.87662821 29.70983133 88.0234375 28.6953125 C91.17442057 27.68643143 94.32628409 26.68049102 97.47972107 25.67930603 C99.4422929 25.05549203 101.40333935 24.42685482 103.36268616 23.79298401 C104.25048264 23.50946579 105.13827911 23.22594757 106.05297852 22.93383789 C106.83367203 22.68211319 107.61436554 22.43038849 108.41871643 22.17103577 C110.4609375 21.6328125 110.4609375 21.6328125 113.4609375 21.6328125 C113.71101562 21.02953125 113.96109375 20.42625 114.21875 19.8046875 C119.76403824 10.10915209 138.86990155 5.94676623 148.91015625 2.421875 C161.46021527 -0.367027 175.67228536 0.53501698 187.4609375 5.6328125 C188.77384766 6.15875 188.77384766 6.15875 190.11328125 6.6953125 C197.00655665 9.75426984 202.1600345 14.34084863 207.4609375 19.6328125 C208.43740234 20.591875 208.43740234 20.591875 209.43359375 21.5703125 C217.84452825 30.44338626 221.56556909 42.10042959 225.11328125 53.5546875 C225.53411408 54.88767691 225.95583014 56.22038775 226.37835693 57.55284119 C227.49893901 61.09520648 228.60724626 64.64129597 229.71297836 68.18832016 C230.8657313 71.87885013 232.02984621 75.56579378 233.19262695 79.25317383 C235.29616931 85.92993325 237.38967184 92.60978675 239.47794819 99.29133511 C241.31519325 105.16925682 243.15932959 111.04498761 245.00523376 116.92019653 C247.92048344 126.20035459 250.82957106 135.48243761 253.72265625 144.76953125 C253.9737616 145.57382065 254.22486694 146.37811005 254.48358154 147.20677185 C254.71676086 147.956689 254.94994019 148.70660614 255.19018555 149.47924805 C255.38887741 150.11734909 255.58756927 150.75545013 255.7922821 151.41288757 C256.01293839 152.1454628 256.23359467 152.87803802 256.4609375 153.6328125 C256.99373322 155.27155586 256.99373322 155.27155586 257.53729248 156.94340515 C258.4966221 160.77535106 258.63224836 163.87778532 258.51000977 167.81689453 C258.4751076 169.2339554 258.44053134 170.65102432 258.40623474 172.06809998 C258.38456175 172.81163664 258.36288876 173.5551733 258.34055901 174.32124138 C256.4054026 224.16056375 256.4054026 224.16056375 274.11572266 269.70703125 C278.00582733 276.01368266 280.84218381 282.85848302 283.80950928 289.63247681 C285.02266226 292.38597995 286.27440503 295.12091601 287.52758789 297.85636902 C288.85903115 300.7728739 290.16179057 303.70180499 291.4609375 306.6328125 C292.09684814 308.06270508 292.09684814 308.06270508 292.74560547 309.52148438 C296.02887152 317.24305115 297.01427673 324.84225798 294.80078125 333.09375 C292.02027272 339.37697708 287.06065871 343.10356473 281.2734375 346.5078125 C272.87088991 348.98725277 265.63711041 348.37978466 257.8125 344.5078125 C249.19131472 337.63377772 245.48423542 326.59338099 241.0859375 316.8203125 C240.29817369 315.0883799 239.50950485 313.35685869 238.7199707 311.62573242 C237.09741801 308.06481743 235.48010087 304.50159353 233.86669922 300.93652344 C231.56301471 295.85050294 229.23615788 290.77537708 226.90234375 285.703125 C225.82694249 283.36325459 224.7517784 281.02327535 223.67669678 278.68325806 C223.00089413 277.21241352 222.3248357 275.74168647 221.64849854 274.27108765 C209.32883387 247.45731313 209.32883387 247.45731313 209.34741211 238.76269531 C209.34748764 237.58177307 209.34756317 236.40085083 209.34764099 235.18414307 C209.35280228 233.91423523 209.35796356 232.64432739 209.36328125 231.3359375 C209.36540367 229.38007721 209.36540367 229.38007721 209.36756897 227.38470459 C209.37137883 223.92578195 209.38119599 220.46690159 209.39227295 217.00799561 C209.40252004 213.47538831 209.40707365 209.94277414 209.41210938 206.41015625 C209.42281968 199.48435768 209.43987766 192.55858712 209.4609375 185.6328125 C206.09677453 185.94942201 202.74283249 186.33038322 199.38671875 186.72265625 C197.96993835 186.8548053 197.96993835 186.8548053 196.52453613 186.98962402 C189.64609067 187.83838976 185.95329503 189.75002493 181.6484375 195.1953125 C180.2547201 197.07258168 178.91232435 198.96143902 177.61767578 200.90820312 C176.07742255 203.20460431 174.34583661 205.31432819 172.5859375 207.4453125 C171.96847656 208.22648438 171.35101563 209.00765625 170.71484375 209.8125 C167.69002765 213.59745187 164.60698953 217.33315495 161.5234375 221.0703125 C160.61416504 222.17258179 160.61416504 222.17258179 159.68652344 223.29711914 C158.49598019 224.74027496 157.30538895 226.1833912 156.11474609 227.62646484 C152.55012545 231.95094853 148.99605538 236.28417376 145.4609375 240.6328125 C144.80266968 241.33516525 144.14440186 242.03751801 143.46618652 242.76115417 C140.98785303 246.31030289 140.26547599 249.69996134 139.50976562 253.8762207 C139.34979599 254.69315399 139.18982635 255.51008728 139.02500916 256.35177612 C138.68085047 258.11946778 138.34339688 259.88847538 138.01194763 261.65859413 C137.48616696 264.4657374 136.9427001 267.26894763 136.39465332 270.07182312 C135.23384454 276.02657954 134.09665052 281.98572771 132.9609375 287.9453125 C131.64377412 294.84369317 130.31688125 301.74002496 128.9717865 308.63301659 C128.43904592 311.38524653 127.92085636 314.13994979 127.40344238 316.89509583 C127.07365358 318.59726459 126.74324149 320.29931275 126.41210938 322.0012207 C126.2738121 322.75941605 126.13551483 323.51761139 125.99302673 324.29878235 C124.25717157 333.04106106 120.88862827 339.55985774 113.4609375 344.6328125 C107.38436079 348.20726939 101.3372847 348.56015703 94.4609375 347.6328125 C86.28355959 344.98252658 81.95821443 340.85234937 77.6484375 333.5703125 C73.29852413 322.06582456 77.88855079 307.68458183 80.2578125 296.17578125 C80.65256582 294.21827979 81.04653366 292.26061978 81.4397583 290.30281067 C82.26226634 286.22239253 83.09365874 282.14391798 83.93164062 278.06665039 C85.00162371 272.85729136 86.04989667 267.64384363 87.09168625 262.42878246 C87.90003139 258.39405924 88.71941842 254.36163967 89.5421524 250.32982826 C89.93294018 248.40847605 90.32043891 246.48645166 90.70449066 244.56374168 C91.24337166 241.87495886 91.79699601 239.189615 92.35449219 236.50463867 C92.50842438 235.72160873 92.66235657 234.9385788 92.82095337 234.13182068 C94.55990515 225.92120111 97.95056166 219.7947387 103.5234375 213.5078125 C104.50741612 212.38083009 105.48911828 211.25185676 106.46875 210.12109375 C106.96665039 209.54697754 107.46455078 208.97286133 107.97753906 208.38134766 C110.37459459 205.55585199 112.63346231 202.62693951 114.8984375 199.6953125 C119.09758963 194.28213766 123.4790884 189.06528854 127.97143555 183.89404297 C131.99775351 179.23487795 135.80228303 174.42856004 139.57348633 169.56201172 C143.33479134 164.73167513 147.32582044 160.14717602 151.4609375 155.6328125 C147.32974341 144.31751595 142.83352754 133.2023102 138.0859375 122.1328125 C137.43848314 120.61602152 136.7913464 119.09909492 136.14453125 117.58203125 C134.58696815 113.93072736 133.02519652 110.2812525 131.4609375 106.6328125 C130.8009375 106.6328125 130.1409375 106.6328125 129.4609375 106.6328125 C128.07515311 108.29384378 128.07515311 108.29384378 126.703125 110.47265625 C126.16389404 111.28476563 125.62466309 112.096875 125.0690918 112.93359375 C124.49715088 113.80371094 123.92520996 114.67382812 123.3359375 115.5703125 C110.0119127 135.35785228 110.0119127 135.35785228 102.70947266 137.26391602 C92.54000399 138.93232722 80.78398406 135.16470867 70.79663086 133.24926758 C67.87592506 132.69100952 64.95280285 132.14689553 62.02929688 131.60351562 C60.17171386 131.2508477 58.31428586 130.89736208 56.45703125 130.54296875 C55.58316269 130.38143814 54.70929413 130.21990753 53.8089447 130.05348206 C53.00372879 129.89669479 52.19851288 129.73990753 51.36889648 129.57836914 C50.66039047 129.44370743 49.95188446 129.30904572 49.22190857 129.17030334 C47.4609375 128.6328125 47.4609375 128.6328125 45.4609375 126.6328125 C46.09 126.37628906 46.7190625 126.11976563 47.3671875 125.85546875 C56.10458526 121.94732547 62.0512367 116.49930036 65.8984375 107.6328125 C67.55486523 102.97730196 68.14357988 98.55185562 68.4609375 93.6328125 C75.65364589 94.09528783 82.4640202 94.88358317 89.4609375 96.6328125 C89.74308105 96.04508057 90.02522461 95.45734863 90.31591797 94.85180664 C91.361826 92.82488594 92.48822179 91.00429266 93.78125 89.12890625 C94.23032715 88.47567383 94.6794043 87.82244141 95.14208984 87.14941406 C95.61855957 86.46331055 96.0950293 85.77720703 96.5859375 85.0703125 C97.07658691 84.36229492 97.56723633 83.65427734 98.07275391 82.92480469 C99.53183576 80.82490665 100.99610656 78.72870238 102.4609375 76.6328125 C102.86248047 76.05354004 103.26402344 75.47426758 103.67773438 74.87744141 C104.72227367 73.37350675 105.77871302 71.87785704 106.8359375 70.3828125 C107.42117188 69.55265625 108.00640625 68.7225 108.609375 67.8671875 C110.65980534 65.39282853 112.93344037 63.60491245 115.4609375 61.6328125 C114.85816483 61.82073364 114.25539215 62.00865479 113.63435364 62.20227051 C107.35902266 64.15715855 101.08069479 66.10217925 94.80053711 68.04150391 C92.45730572 68.76651563 90.11484957 69.49403786 87.77319336 70.22412109 C84.40679477 71.27322135 81.03770953 72.31325515 77.66796875 73.3515625 C76.62195999 73.67966919 75.57595123 74.00777588 74.49824524 74.3458252 C73.51760605 74.64613647 72.53696686 74.94644775 71.52661133 75.25585938 C70.66723465 75.52233276 69.80785797 75.78880615 68.92243958 76.06335449 C66.30130507 76.66974278 64.14025219 76.88921801 61.4609375 76.6328125 C59.74863502 75.01306691 58.08930488 73.3369179 56.4609375 71.6328125 C51.6870928 68.14651927 46.48716724 64.74459891 40.41210938 64.57592773 C32.36834325 64.33018302 26.65702703 60.9544548 19.8359375 56.9453125 C18.6594232 56.26957831 17.48208086 55.59528396 16.30395508 54.92236328 C13.88316458 53.53525519 11.4691125 52.13737011 9.06005859 50.72998047 C5.57784969 48.69637047 2.07758393 46.69617219 -1.42578125 44.69921875 C-3.568445 43.47003324 -5.71040416 42.23961847 -7.8515625 41.0078125 C-8.84043457 40.44102783 -9.82930664 39.87424316 -10.84814453 39.2902832 C-25.14040292 30.9620501 -25.14040292 30.9620501 -27.5390625 23.6328125 C-28.37847979 16.1920518 -28.16997953 10.64048865 -23.5390625 4.6328125 C-16.40730141 -1.96406651 -9.2022992 -3.5549721 0 0 Z " fill="#FFFFFF" transform="translate(216.5390625,124.3671875)"/>
<path d="M0 0 C1.46605446 0.56353443 2.93356944 1.12328048 4.40234375 1.6796875 C5.87372572 2.2622774 7.34381233 2.84815085 8.8125 3.4375 C9.50134277 3.70119385 10.19018555 3.9648877 10.89990234 4.23657227 C14.23301506 5.65464031 15.78131422 6.54456039 17.37109375 9.85546875 C17.57863281 10.89316406 17.78617188 11.93085938 18 13 C18.21140625 13.96679688 18.4228125 14.93359375 18.640625 15.9296875 C18.84171875 16.90164062 19.0428125 17.87359375 19.25 18.875 C20.92081763 25.71093405 23.92449355 30.6164825 29.5 34.9375 C31 37 31 37 30.6875 40.75 C29.37123609 45.47586318 27.47007791 49.98745011 25.5625 54.5 C25.26239014 55.21897461 24.96228027 55.93794922 24.65307617 56.67871094 C23.85369172 58.49235647 22.93432575 60.25204091 22 62 C21.01 62.33 20.02 62.66 19 63 C18.14728516 61.948125 18.14728516 61.948125 17.27734375 60.875 C12.62135266 55.15411613 7.90740834 49.50702737 3 44 C3.83001302 45.66002604 4.66005697 47.32003663 5.49023438 48.97998047 C6.20950447 50.4188482 6.9282482 51.85797917 7.64648438 53.29736328 C9.44884158 56.90764052 11.25805376 60.51393026 13.08984375 64.109375 C13.41202881 64.74472168 13.73421387 65.38006836 14.06616211 66.03466797 C14.95821051 67.79264466 15.85401379 69.54871452 16.75 71.3046875 C18 74 18 74 18 76 C19.27880791 75.88724731 19.27880791 75.88724731 20.58345032 75.7722168 C28.65877691 75.0610723 36.73449241 74.3545531 44.81066608 73.65309143 C48.96164851 73.2923943 53.11246495 72.92997571 57.26293945 72.56347656 C61.27613953 72.20916541 65.28972597 71.85956745 69.30360985 71.51309204 C70.8269708 71.38079007 72.35019085 71.24685413 73.87325478 71.11117554 C99.94897678 68.79185785 99.94897678 68.79185785 107 74 C111.70658901 78.38241069 114.03618566 82.92967493 114.375 89.3125 C114.20090398 95.85198182 111.70816352 100.21419268 107.25 104.875 C101.34582968 108.73541906 94.62729521 109.31276238 87.73901367 109.86962891 C86.95572189 109.93819595 86.17243011 110.006763 85.36540222 110.07740784 C82.80009818 110.30023666 80.2341138 110.51365573 77.66796875 110.7265625 C75.86725698 110.88020882 74.06658308 111.03429962 72.26594543 111.18881226 C68.49981799 111.51054606 64.73334622 111.82776413 60.96655273 112.14160156 C56.16481479 112.54190714 51.36398619 112.95210539 46.56336498 113.36556435 C42.8462313 113.68481578 39.12871548 113.99941962 35.41106606 114.312603 C33.64212709 114.4620447 31.87329328 114.61273703 30.1045742 114.76475906 C1.59715051 117.20534661 1.59715051 117.20534661 -5 112 C-8.5462601 108.0254249 -11.13682917 104.23794945 -13.55859375 99.45703125 C-13.87022964 98.84792404 -14.18186554 98.23881683 -14.50294495 97.61125183 C-15.48835352 95.68191015 -16.4633187 93.74753093 -17.4375 91.8125 C-18.72523928 89.27600478 -20.01697369 86.74155197 -21.30859375 84.20703125 C-21.61936859 83.59522003 -21.93014343 82.98340881 -22.25033569 82.35305786 C-25.05814463 76.84159009 -27.99817354 71.40776902 -31 66 C-29.54748112 74.69863415 -27.65488405 83.27721763 -25.65087891 91.86181641 C-25.12474699 94.12608885 -24.61120521 96.3930016 -24.09765625 98.66015625 C-21.4827721 112.50310671 -21.4827721 112.50310671 -13.4375 123.4375 C-12.56931641 124.11619141 -12.56931641 124.11619141 -11.68359375 124.80859375 C-10.1414818 125.89987947 -8.57189558 126.95206961 -7 128 C-7.73048301 132.68803656 -9.36636885 136.90885555 -11.0625 141.3125 C-11.34416016 142.05306641 -11.62582031 142.79363281 -11.91601562 143.55664062 C-12.60718575 145.37242655 -13.30311689 147.18639899 -14 149 C-13.443125 149.60585938 -12.88625 150.21171875 -12.3125 150.8359375 C-7.69027653 155.91101394 -3.2609611 161.07361594 0.9921875 166.4609375 C6.28021727 173.14813468 11.74668596 179.69495852 17.16723633 186.27490234 C18.38881566 187.75798134 19.61000732 189.24137974 20.83081055 190.72509766 C23.43049608 193.88425387 26.03145972 197.04199082 28.65234375 200.18359375 C30.13157814 201.96626083 31.59620836 203.76119098 33.04296875 205.5703125 C34.29318504 207.12247723 35.58470328 208.6428178 36.92578125 210.1171875 C41.3002861 215.38158091 42.86039583 220.58570134 44.24609375 227.1328125 C44.55537056 228.54426796 44.55537056 228.54426796 44.87089539 229.98423767 C45.59477758 233.31995282 46.29921334 236.65935709 47 240 C47.20217762 240.95985369 47.20217762 240.95985369 47.40843964 241.93909836 C49.43642045 251.56805725 51.41219688 261.20703554 53.35864258 270.8527832 C53.99639377 274.01020529 54.64161783 277.1659629 55.29321289 280.32055664 C56.09484476 284.20163307 56.88384774 288.08508264 57.66414452 291.97050285 C57.95848316 293.42595649 58.25698077 294.88057664 58.56008339 296.33423042 C63.57537242 320.44359648 63.57537242 320.44359648 57.625 330.83984375 C53.84852741 335.86001044 48.91947823 339.02092407 43 341 C34.62945057 342.12475558 27.93123762 340.86792803 21 336 C11.62971083 328.19472741 11.09081588 314.81122596 9.05589294 303.52437401 C8.25541803 299.11809156 7.41775415 294.71881246 6.5859375 290.31835938 C5.53508976 284.75314385 4.49538532 279.18669256 3.50097656 273.61108398 C2.69058028 269.072977 1.83942753 264.54413433 0.96174622 260.01857948 C0.63784511 258.30996458 0.32828784 256.59855619 0.0344696 254.88451195 C-2.12744091 242.3362735 -6.05977228 235.02230809 -15 226 C-16.04369387 224.73967713 -17.06895456 223.4633542 -18.05859375 222.16015625 C-23.02435022 215.6940727 -28.15053339 209.43068397 -33.49731445 203.27661133 C-37.66586255 198.45313211 -41.6242091 193.4842631 -45.5234375 188.44140625 C-49.59181973 183.00870949 -49.59181973 183.00870949 -55.7890625 181.1484375 C-56.73007813 181.01953125 -57.67109375 180.890625 -58.640625 180.7578125 C-59.62546875 180.63148438 -60.6103125 180.50515625 -61.625 180.375 C-63.11386719 180.17390625 -63.11386719 180.17390625 -64.6328125 179.96875 C-67.08763775 179.63829276 -69.54324252 179.31571516 -72 179 C-71.98889694 179.70806793 -71.97779388 180.41613586 -71.96635437 181.1456604 C-71.86537235 187.88114457 -71.78964444 194.61651287 -71.74093914 201.35256386 C-71.71505523 204.8141522 -71.68005822 208.27510527 -71.62280273 211.73632812 C-71.55711596 215.73312804 -71.53364514 219.72928098 -71.51171875 223.7265625 C-71.48591232 224.94485748 -71.4601059 226.16315247 -71.43351746 227.41836548 C-71.43062398 236.46045454 -73.487108 243.70194704 -77 252 C-77.30501938 252.72971008 -77.61003876 253.45942017 -77.92430115 254.21124268 C-78.65875073 255.8936931 -79.44871926 257.55159663 -80.2421875 259.20703125 C-80.52735733 259.80799118 -80.81252716 260.40895111 -81.1063385 261.02812195 C-81.71168634 262.30248635 -82.319887 263.57549937 -82.93087769 264.84716797 C-84.59160737 268.30422559 -86.23027178 271.77174213 -87.87109375 275.23828125 C-88.2105452 275.95416412 -88.54999664 276.670047 -88.8997345 277.40762329 C-92.99216379 286.05947674 -96.92552295 294.78407775 -100.84197998 303.51675415 C-104.18450701 310.96950477 -107.60140982 318.38366194 -111.1796875 325.7265625 C-111.49884628 326.39739868 -111.81800507 327.06823486 -112.14683533 327.75939941 C-115.71363127 334.97648928 -120.52848091 338.44630168 -128 341 C-136.34271959 342.12101607 -143.105181 340.89507612 -150 336 C-155.46553769 331.02205177 -158.25547604 325.68957419 -158.8125 318.25 C-158.59186371 307.53810821 -153.37948971 298.40160528 -148.84960938 288.90136719 C-146.7776012 284.55071078 -144.77022072 280.17110021 -142.765625 275.7890625 C-142.0227336 274.16543291 -141.27981351 272.54181645 -140.53686523 270.91821289 C-140.16761932 270.11126984 -139.79837341 269.30432678 -139.41793823 268.47293091 C-138.00181818 265.38505187 -136.57714526 262.30120359 -135.1472168 259.21969604 C-134.45380296 257.71270803 -133.76972401 256.20139206 -133.09472656 254.68606567 C-131.46299674 251.03956419 -129.77614687 247.55166314 -127.70288086 244.13452148 C-119.99957726 230.72193361 -121.39259227 216.38028492 -121.76945305 201.44219398 C-122.5433736 170.51575886 -120.63734662 143.65355874 -109.51049805 114.47802734 C-106.2629872 105.94063397 -103.47575181 97.29694371 -100.765625 88.578125 C-100.54453882 87.86833307 -100.32345264 87.15854115 -100.09566689 86.42724037 C-99.20213713 83.55780734 -98.30982991 80.68799963 -97.41965199 77.81752491 C-81.50650128 26.50688857 -81.50650128 26.50688857 -73 16 C-72.38382812 15.17886719 -71.76765625 14.35773438 -71.1328125 13.51171875 C-53.80046283 -6.89982124 -23.46453753 -10.07431061 0 0 Z M-33 62 C-32 64 -32 64 -32 64 Z " fill="#FFFFFF" transform="translate(158,131)"/>
<path d="M0 0 C9.36918074 6.69704363 14.49241767 16.08519181 17.1875 27.1875 C18.48327226 40.85337716 15.91803587 51.8470575 7.44921875 62.7109375 C0.27509255 70.56654374 -9.19524227 75.7758 -19.8671875 76.56640625 C-31.96774592 77.07836866 -42.39770417 75.08580078 -51.8515625 67.03125 C-60.18989075 59.19122822 -65.87478252 49.80203581 -66.8125 38.1875 C-67.05453634 26.08568286 -64.50198476 16.11224614 -56.5625 6.8125 C-40.9742583 -9.26610029 -19.09989363 -11.79513299 0 0 Z " fill="#FFFFFF" transform="translate(355.8125,48.8125)"/>
<path d="M0 0 C9.94099001 6.86310657 16.27474536 15.80699164 19.15625 27.46484375 C20.92503419 37.74291404 19.05154378 47.29740052 14.84375 56.71484375 C14.39 57.91109375 13.93625 59.10734375 13.46875 60.33984375 C9.55923719 63.877022 5.71697024 63.17054632 0.58984375 63.3359375 C-6.21950665 64.02468306 -12.48336928 66.83516375 -17.17578125 71.890625 C-18.03236328 72.97923828 -18.03236328 72.97923828 -18.90625 74.08984375 C-21.4307598 77.27133441 -21.72553599 77.63717401 -25.96875 78.40234375 C-27.9921875 78.171875 -27.9921875 78.171875 -30.15625 77.71484375 C-30.95289063 77.55371094 -31.74953125 77.39257812 -32.5703125 77.2265625 C-41.19384594 75.05065546 -48.28793574 70.37617345 -54.15625 63.71484375 C-54.64867187 63.16441406 -55.14109375 62.61398438 -55.6484375 62.046875 C-62.87444378 53.3289321 -64.88830309 43.54323008 -64.53515625 32.390625 C-63.32056014 20.60779056 -58.05259982 10.5380436 -48.96875 2.90234375 C-34.41741573 -7.38352403 -15.62358025 -9.31188026 0 0 Z " fill="#FFFFFF" transform="translate(203.15625,47.28515625)"/>
</svg>
